<?xml version="1.0" encoding="UTF-8"?>
<svg id="Vrstva_1" data-name="Vrstva 1" xmlns="http://www.w3.org/2000/svg" xmlns:xlink="http://www.w3.org/1999/xlink" viewBox="0 0 1079.76 434.98">
  <defs>
    <style>
      .cls-1 {
        clip-path: url(#clippath);
      }

      .cls-2 {
        fill: url(#Nepojmenovaný_přechod_20);
      }

      .cls-3 {
        fill: url(#Nepojmenovaný_přechod_19);
      }

      .cls-4 {
        stroke: #1a1a18;
        stroke-width: .28px;
      }

      .cls-4, .cls-5, .cls-6, .cls-7, .cls-8, .cls-9 {
        fill: none;
      }

      .cls-4, .cls-6, .cls-7, .cls-8, .cls-9 {
        stroke-miterlimit: 22.93;
      }

      .cls-10 {
        fill: #e6e6e6;
      }

      .cls-11, .cls-12 {
        fill: #ffea00;
      }

      .cls-13 {
        fill: #b3b3b3;
      }

      .cls-14, .cls-15 {
        fill: #65b02d;
      }

      .cls-16, .cls-17 {
        fill: #1a1a18;
      }

      .cls-18 {
        fill: gray;
      }

      .cls-19, .cls-20 {
        fill: #2f2481;
      }

      .cls-21 {
        font-size: 10.46px;
      }

      .cls-21, .cls-22 {
        font-family: ArialMT, Arial;
      }

      .cls-21, .cls-22, .cls-23 {
        fill: #fff;
      }

      .cls-5 {
        clip-rule: evenodd;
      }

      .cls-24 {
        clip-path: url(#clippath-1);
      }

      .cls-25 {
        clip-path: url(#clippath-4);
      }

      .cls-26 {
        clip-path: url(#clippath-3);
      }

      .cls-27 {
        clip-path: url(#clippath-2);
      }

      .cls-28 {
        clip-path: url(#clippath-5);
      }

      .cls-22 {
        font-size: 14.95px;
      }

      .cls-6 {
        stroke: #fff;
      }

      .cls-6, .cls-7, .cls-8 {
        stroke-width: .57px;
      }

      .cls-7, .cls-9 {
        stroke: #2f2481;
      }

      .cls-8 {
        stroke: #e3007c;
      }

      .cls-29 {
        fill: url(#Nepojmenovaný_přechod_19-2);
      }

      .cls-30 {
        fill: url(#Nepojmenovaný_přechod_20-4);
      }

      .cls-31 {
        fill: url(#Nepojmenovaný_přechod_20-2);
      }

      .cls-32 {
        fill: url(#Nepojmenovaný_přechod_20-3);
      }

      .cls-33 {
        fill: #5a5047;
      }

      .cls-33, .cls-20, .cls-17, .cls-34, .cls-35, .cls-36, .cls-37, .cls-38, .cls-39, .cls-40, .cls-41, .cls-42, .cls-43, .cls-44, .cls-15, .cls-12, .cls-45, .cls-23, .cls-46, .cls-47, .cls-48 {
        fill-rule: evenodd;
      }

      .cls-34 {
        fill: #e32824;
      }

      .cls-35 {
        fill: #e3007c;
      }

      .cls-36 {
        fill: #d71c1b;
      }

      .cls-37 {
        fill: #e22311;
      }

      .cls-38 {
        fill: #d8d8d8;
      }

      .cls-39 {
        fill: #fcdf76;
      }

      .cls-40 {
        fill: #739dcf;
      }

      .cls-41 {
        fill: #009ce1;
      }

      .cls-42 {
        fill: #332d2a;
      }

      .cls-43 {
        fill: #8e7e6a;
      }

      .cls-44 {
        fill: #92b2d9;
      }

      .cls-45 {
        fill: #ffe58c;
      }

      .cls-46 {
        fill: #eb6d6c;
      }

      .cls-47 {
        fill: #e9ebeb;
      }

      .cls-48 {
        fill: #fdd448;
      }

      .cls-9 {
        stroke-width: .22px;
      }
    </style>
    <clipPath id="clippath">
      <path class="cls-5" d="M828.95,409.73l6.48-35.3,131.59,24.16c5.17,.95,7.9,9.62,6.11,19.37-1.79,9.75-7.43,16.88-12.59,15.93l-131.59-24.16Z"/>
    </clipPath>
    <linearGradient id="Nepojmenovaný_přechod_19" data-name="Nepojmenovaný přechod 19" x1="898.65" y1="422.53" x2="905.14" y2="387.21" gradientUnits="userSpaceOnUse">
      <stop offset="0" stop-color="#565655"/>
      <stop offset=".34" stop-color="#999a9a"/>
      <stop offset="1" stop-color="#1a1a18"/>
    </linearGradient>
    <clipPath id="clippath-1">
      <path class="cls-5" d="M879.49,382.62c4.17,.77,7.14,9.48,5.35,19.23-1.79,9.75-7.66,16.84-11.83,16.07l-44.08-8.09,6.48-35.3,44.08,8.09Z"/>
    </clipPath>
    <linearGradient id="Nepojmenovaný_přechod_20" data-name="Nepojmenovaný přechod 20" x1="854.3" y1="414.15" x2="861.23" y2="379.21" gradientUnits="userSpaceOnUse">
      <stop offset="0" stop-color="#c96b32"/>
      <stop offset=".3" stop-color="#d19351"/>
      <stop offset="1" stop-color="#c96b32"/>
    </linearGradient>
    <clipPath id="clippath-2">
      <path class="cls-5" d="M822.81,390.46c1.79-9.75,7.43-16.88,12.61-15.93,5.17,.95,7.91,9.62,6.12,19.37-1.79,9.75-7.43,16.88-12.61,15.93-5.17-.95-7.91-9.62-6.12-19.37"/>
    </clipPath>
    <linearGradient id="Nepojmenovaný_přechod_20-2" data-name="Nepojmenovaný přechod 20" x1="828.32" y1="409.32" x2="836.12" y2="374.63" xlink:href="#Nepojmenovaný_přechod_20"/>
    <clipPath id="clippath-3">
      <path class="cls-5" d="M970.42,261.85l-8.19-23.77,88.6-30.52c3.48-1.2,8.13,3.15,10.39,9.71,2.26,6.56,1.27,12.85-2.21,14.05l-88.59,30.52Z"/>
    </clipPath>
    <linearGradient id="Nepojmenovaný_přechod_19-2" data-name="Nepojmenovaný přechod 19" x1="1016.89" y1="245.84" x2="1008.7" y2="222.05" xlink:href="#Nepojmenovaný_přechod_19"/>
    <clipPath id="clippath-4">
      <path class="cls-5" d="M991.93,227.93c2.81-.97,7.62,3.33,9.88,9.89,2.26,6.56,1.12,12.91-1.69,13.88l-29.68,10.22-8.19-23.77,29.68-10.22Z"/>
    </clipPath>
    <linearGradient id="Nepojmenovaný_přechod_20-3" data-name="Nepojmenovaný přechod 20" x1="986.95" y1="255.96" x2="979.15" y2="232.26" xlink:href="#Nepojmenovaný_přechod_20"/>
    <clipPath id="clippath-5">
      <path class="cls-5" d="M960.04,252.2c-2.26-6.56-1.27-12.86,2.21-14.06,3.48-1.2,8.14,3.15,10.4,9.71,2.26,6.56,1.27,12.86-2.21,14.06-3.48,1.2-8.14-3.15-10.4-9.71"/>
    </clipPath>
    <linearGradient id="Nepojmenovaný_přechod_20-4" data-name="Nepojmenovaný přechod 20" x1="969.92" y1="261.85" x2="962.7" y2="237.96" xlink:href="#Nepojmenovaný_přechod_20"/>
  </defs>
  <g id="vlacek">
    <path class="cls-33" d="M617.93,190.62h261.66c6.57,0,11.94,5.37,11.94,11.94v27.94h4.66c2.53,0,4.61,2.07,4.61,4.6v2.89c0,2.53-2.07,4.6-4.61,4.6h-4.66v28.82c0,6.57-5.37,11.94-11.94,11.94h-261.66c-6.57,0-11.94-5.37-11.94-11.94v-28.82h-13.06c-2.53,0-4.6-2.07-4.6-4.6v-2.89c0-2.53,2.07-4.6,4.6-4.6h13.06v-27.94c0-6.57,5.37-11.94,11.94-11.94Z"/>
    <g>
      <path class="cls-18" d="M659.75,395.03c1.91,9.82-5.91,19.64-17.92,19.64s-19.55-9.82-17.34-19.65c1.79-7.96,9.65-13.38,17.83-13.38,8.19,0,15.88,5.43,17.43,13.39Z"/>
      <path class="cls-13" d="M659.75,392.87c1.91,9.82-5.91,19.64-17.92,19.64s-19.55-9.82-17.34-19.65c1.79-7.96,9.65-13.38,17.83-13.38s15.88,5.43,17.43,13.39Z"/>
      <path class="cls-10" d="M656.48,392.87c1.22,7.83-5.21,15.33-14.59,15.33-9.38,0-15.59-7.5-14.13-15.33,1.23-6.6,7.66-11.23,14.53-11.23,6.87,0,13.16,4.64,14.19,11.23Z"/>
    </g>
    <g>
      <path class="cls-18" d="M946.22,232.55c1.91,9.82-5.91,19.64-17.92,19.64s-19.55-9.82-17.34-19.65c1.79-7.96,9.65-13.38,17.83-13.38,8.19,0,15.88,5.43,17.43,13.39Z"/>
      <path class="cls-13" d="M946.22,230.4c1.91,9.82-5.91,19.64-17.92,19.64s-19.55-9.82-17.34-19.65c1.79-7.96,9.65-13.38,17.83-13.38s15.88,5.43,17.43,13.39Z"/>
      <path class="cls-10" d="M942.95,230.4c1.22,7.83-5.21,15.33-14.59,15.33-9.38,0-15.59-7.5-14.13-15.33,1.23-6.6,7.66-11.23,14.53-11.23s13.16,4.64,14.19,11.23Z"/>
    </g>
    <path class="cls-20" d="M58.38,161.35c2.99,0,5.42,.49,5.42,1.08s-2.43,1.08-5.42,1.08-5.42-.49-5.42-1.08,2.43-1.08,5.42-1.08Z"/>
    <path class="cls-7" d="M58.38,161.35c2.99,0,5.42,.49,5.42,1.08s-2.43,1.08-5.42,1.08-5.42-.49-5.42-1.08,2.43-1.08,5.42-1.08Z"/>
    <path class="cls-35" d="M51.73,168.21h0s0-.03,0-.04c0-1.33,2.98-2.4,6.65-2.4s6.49,.96,6.65,2.44h0c0,.09,0,.16,0,.24v13.41c-.15,.98,.26,1.04-1.1,1.32-3.99,.84-7.93,.83-11.59-.08-.68-.17-.49-.32-.62-.92v-13.97Z"/>
    <path class="cls-8" d="M51.73,168.21h0s0-.03,0-.04c0-1.33,2.98-2.4,6.65-2.4s6.49,.96,6.65,2.44h0c0,.09,0,.16,0,.24v13.41c-.15,.98,.26,1.04-1.1,1.32-3.99,.84-7.93,.83-11.59-.08-.68-.17-.49-.32-.62-.92v-13.97Z"/>
    <path class="cls-20" d="M52.96,162.43c3.47,.41,7.06,.47,10.84,0v4.33c-3.54,.54-7.16,.5-10.84,0v-4.33Z"/>
    <path class="cls-7" d="M52.96,162.43c3.47,.41,7.06,.47,10.84,0v4.33c-3.54,.54-7.16,.5-10.84,0v-4.33Z"/>
    <line class="cls-6" x1="55.54" y1="162.74" x2="55.54" y2="167.07"/>
    <line class="cls-6" x1="56.16" y1="162.77" x2="56.16" y2="167.1"/>
    <line class="cls-6" x1="56.77" y1="162.84" x2="56.77" y2="167.17"/>
    <line class="cls-6" x1="57.39" y1="162.85" x2="57.39" y2="167.18"/>
    <path class="cls-23" d="M53.53,172.18c3.32,.42,6.9,.46,10.84,0v6c-3.52,.81-7.13,.83-10.84,0v-6Z"/>
    <path class="cls-6" d="M53.53,172.18c3.32,.42,6.9,.46,10.84,0v6c-3.52,.81-7.13,.83-10.84,0v-6Z"/>
    <path class="cls-19" d="M61.72,174.57s.05,.02,.09,.05c.04,.04,.06,.06,.06,.07l-.18,.17c-.07-.06-.11-.1-.13-.1l-.27,.24s-.03,0-.03-.02,.07-.09,.2-.22c.14-.13,.22-.19,.25-.19Zm-.1,2.09s.02,.1,.05,.14c.03,.05,.07,.07,.11,.07,.05,0,.09-.02,.13-.06v.02s-.03,.05-.12,.12c-.09,.07-.2,.16-.34,.29h-.01s.01-.05,.04-.07c.03-.02,.04-.04,.04-.07l-.04-.05c-.07-.08-.11-.16-.11-.23v-.87s-.02-.06-.06-.09c-.04-.03-.07-.04-.09-.04s-.05,.02-.1,.06v-.02c.21-.17,.35-.3,.42-.38l.02-.02s.02,0,.02,.02c0,.02-.04,.07-.11,.15,0,.02,.03,.05,.09,.09,.06,.04,.12,.07,.19,.09-.09,.04-.13,.08-.13,.13v.73Zm-1.25-.09h-.03s.04-.08,.12-.14,.14-.13,.18-.18c.04-.06,.05-.11,.05-.16,0-.08-.02-.15-.07-.21-.04-.06-.1-.09-.16-.09-.06,0-.14,.05-.22,.15v-.02s.02-.05,.08-.1c.06-.05,.13-.11,.23-.17,.09-.06,.17-.14,.23-.24l.02-.03h.01s-.04,.09-.11,.18l.04,.03c.15,.09,.23,.19,.23,.31,0,.1-.1,.23-.29,.39l-.07,.07,.04,.02c.11,.02,.19,.06,.23,.12,.04,.06,.06,.13,.06,.22,0,.06-.02,.12-.05,.18-.03,.06-.11,.16-.23,.3-.13,.13-.21,.24-.24,.33-.03,.09-.05,.17-.05,.25,0,.08,.02,.14,.06,.19,.04,.05,.09,.08,.15,.08,.03,0,.05,0,.06-.03,.02-.02,.02-.03,.02-.04l-.02-.02c-.06-.02-.09-.06-.09-.12,0-.04,.01-.08,.05-.1,.03-.03,.07-.04,.11-.04s.08,.01,.1,.04c.03,.03,.04,.07,.04,.11,0,.06-.03,.11-.08,.16-.06,.05-.12,.07-.18,.07-.08,0-.14-.03-.19-.09-.05-.06-.07-.13-.07-.22,0-.06,.01-.12,.03-.19,.01-.06,.06-.16,.13-.28,.07-.12,.12-.21,.13-.28,.02-.07,.03-.14,.03-.2,0-.08-.02-.14-.05-.18-.04-.04-.08-.06-.13-.06-.04,0-.07,0-.11,.02Zm-.38,.09s.02,.1,.05,.14c.04,.05,.07,.07,.11,.07,.05,0,.09-.02,.13-.06v.02s-.03,.05-.12,.12c-.08,.07-.2,.16-.34,.29h-.01s.01-.05,.04-.07c.02-.02,.04-.04,.04-.07l-.04-.05c-.07-.08-.11-.16-.11-.23v-.87s-.02-.06-.06-.09c-.04-.03-.07-.04-.09-.04-.01,0-.05,.02-.1,.06v-.03c.2-.17,.34-.3,.41-.38l.02-.02s.03,0,.03,.02c0,.02-.04,.07-.11,.15,0,.02,.03,.05,.08,.09,.06,.04,.12,.07,.18,.09-.09,.04-.13,.08-.13,.13v.73Zm-.19-2s.08,.02,.11,.05c.04,.03,.05,.07,.05,.11s-.02,.08-.05,.11c-.03,.03-.07,.05-.11,.05s-.08-.01-.11-.05c-.03-.03-.05-.07-.05-.11s.02-.08,.05-.11c.03-.03,.07-.05,.11-.05Zm-2.39,2.78c0-.07-.02-.13-.06-.18-.03-.05-.07-.08-.1-.08-.02,0-.04,.02-.04,.05,0,.09,.07,.16,.2,.2Zm.83-.43c-.13,.08-.23,.18-.28,.28l-.02,.03v-.02s.01-.07,.05-.12c.04-.05,.06-.08,.06-.09l-.02-.02c-.19-.12-.31-.35-.35-.68v-.02c-.01-.1-.02-.19-.02-.26,0-.08,0-.14,0-.18v-.02c.01-.16,.06-.31,.12-.45v-.02c.08-.15,.16-.26,.24-.33,.08-.07,.14-.11,.16-.11h.01s-.03,.06-.03,.06c-.09,.1-.15,.24-.18,.41v.02c-.03,.13-.04,.27-.04,.43v.03c0,.19,.02,.36,.07,.49v.04c.06,.14,.14,.24,.23,.32,.01,0,.02,.02,.03,.02,.05,.02,.09,.04,.14,.04,.02,0,.07-.03,.15-.1h0s-.1,.12-.3,.25l-.03,.02Zm-1.61-1.05c0,.06,.01,.11,.04,.17,.03,.05,.1,.12,.21,.21,.11,.08,.18,.16,.21,.22,.03,.06,.04,.13,.04,.19,0,.13-.06,.23-.18,.31-.12,.08-.2,.13-.24,.13v-.02s.02-.03,.02-.03c.1-.06,.15-.12,.15-.2,0-.05-.01-.1-.04-.15-.02-.05-.09-.12-.19-.2-.1-.08-.16-.15-.19-.21-.03-.06-.04-.11-.04-.17,0-.16,.04-.28,.12-.36,.08-.08,.14-.12,.19-.12h.01s-.01,.02-.01,.02c-.07,.05-.11,.12-.11,.21Zm-.49,.64c.03,.05,.04,.12,.04,.19,0,.02,0,.06-.01,.1v.02c-.03,.08-.07,.14-.12,.18l-.03,.03c-.06,.04-.09,.06-.12,.06v-.02s0-.02,0-.02c.05-.04,.08-.09,.08-.15v-.06c-.02-.08-.12-.18-.29-.32l-.03-.03c-.13-.1-.21-.2-.23-.28v-.03s-.01-.07-.01-.07c0-.16,.04-.28,.11-.36,.07-.08,.13-.12,.16-.12h.01s-.01,.02-.01,.02c-.07,.04-.11,.11-.11,.2,0,.07,.04,.14,.12,.22l.03,.02s.07,.06,.09,.08l.08,.06c.1,.08,.17,.15,.21,.24l.02,.02Zm2.13,.4c-.02,.18-.08,.31-.18,.4-.1,.09-.24,.13-.4,.13-.09,0-.17-.01-.25-.04-.01,.19-.11,.35-.28,.48,.12,0,.21,.01,.27,.01,.34,0,.65-.09,.93-.29,.28-.19,.41-.44,.41-.75,0-.17-.03-.32-.1-.46-.14-.02-.25-.08-.33-.17-.09-.09-.13-.19-.14-.32-.07-.03-.16-.05-.25-.08-.1-.02-.19-.03-.29,0-.04,0-.1,.02-.17,.05,0-.02,.06-.05,.17-.07,.06-.01,.16,0,.29,0,.09,.01,.18,.04,.25,.08,.01-.11,.05-.2,.11-.27,.07-.07,.15-.1,.24-.1s.17,.03,.24,.08c.07,.05,.1,.13,.1,.22,0,.04,0,.07,0,.08,0,.1,.04,.15,.11,.15,.03,0,.06-.01,.08-.04h.01s0,.04-.03,.06c-.02,.02-.04,.03-.07,.03-.06,0-.1-.03-.13-.09-.03-.06-.05-.11-.05-.17,0-.08-.02-.14-.07-.2-.04-.05-.1-.08-.19-.08s-.16,.03-.22,.09c-.07,.06-.1,.15-.11,.25,.2,.09,.36,.24,.47,.46,.02,0,.04,0,.07,0,.16,0,.3-.06,.42-.19,.12-.13,.18-.29,.18-.49,0-.23-.09-.42-.28-.58-.27,.19-.57,.29-.91,.29-.05,0-.12,0-.2-.01-.06,0-.12-.02-.2-.04-.13-.04-.26-.09-.39-.16-.06,.06-.14,.13-.24,.19-.1,.06-.22,.11-.36,.15-.15,.04-.3,.07-.43,.07-.1,0-.18,0-.23-.02l-.22-.03c-.29-.06-.52-.18-.69-.36-.11,.2-.29,.3-.53,.3-.14,0-.26-.05-.36-.15-.1-.1-.14-.22-.14-.37,0-.03,.01-.05,.04-.05,.03,0,.04,.02,.04,.05,0,.13,.04,.25,.13,.33,.09,.09,.19,.13,.31,.13,.23,0,.4-.09,.5-.28-.16-.2-.25-.43-.26-.71,0-.09,0-.18,.02-.28,.03-.17,.09-.33,.19-.48-.06-.01-.14-.02-.21-.02-.35,0-.65,.12-.9,.34-.26,.23-.38,.51-.38,.85,0,.3,.09,.55,.27,.75,.18,.2,.41,.29,.72,.29,.06,0,.14,0,.22-.03,.04-.14,.1-.25,.19-.35,.09-.1,.17-.15,.24-.15,.08,0,.12,.03,.12,.1,0,.06-.04,.13-.13,.21-.09,.08-.2,.14-.35,.19-.01,.05-.01,.09-.01,.11,0,.22,.05,.4,.15,.53,.09-.14,.2-.26,.35-.34,.08-.05,.18-.08,.29-.11,.06-.02,.12-.02,.16-.03,.03,0,.08,0,.14,0h.03c.09,0,.13,0,.13,.02h-.11s-.07,0-.07,0c-.03,0-.08,0-.13,.01l-.13,.02c-.11,.02-.21,.06-.31,.11-.15,.09-.26,.21-.32,.37,.07,.08,.15,.13,.25,.17h.03c.13,.07,.28,.1,.44,.09h.15c.07,0,.13-.02,.19-.05,.09-.04,.19-.1,.29-.19v.02c-.1,.09-.2,.15-.29,.19-.05,.02-.11,.04-.18,.05-.06,.01-.12,.02-.15,.02-.17,0-.32-.03-.47-.08l-.03-.02c-.09-.04-.16-.09-.23-.15-.02,.05-.04,.14-.06,.26v.03s0,.07,0,.13c0,.28,.12,.52,.35,.73,.23,.21,.54,.31,.91,.31,.27,0,.51-.05,.73-.17-.59-.12-.92-.42-1.01-.9-.04-.21,0-.4,.11-.55,.05-.06,.08-.09,.11-.09-.05,.06-.08,.09-.09,.12-.09,.14-.12,.31-.09,.5,.08,.5,.43,.79,1.06,.88,.19-.13,.29-.29,.3-.49-.16-.06-.24-.14-.24-.24,0-.07,.03-.1,.09-.1,.05,0,.09,.03,.12,.08,.03,.05,.05,.13,.05,.23,.08,.02,.16,.03,.25,.03,.33,0,.52-.16,.56-.47,0-.09,0-.16,0-.23-.02-.15-.1-.25-.22-.32-.1-.06-.22-.08-.35-.07-.02,0-.07,0-.14,.02,0-.02,.05-.04,.14-.04,.13-.01,.25,0,.34,.06,.15,.07,.24,.2,.26,.38,0,.05,0,.12,0,.19Zm.38-.54c-.1-.19-.24-.33-.42-.43,.01,.24,.15,.38,.42,.43Zm-3.7-.49c.13-.05,.24-.11,.32-.18,.08-.07,.12-.14,.12-.2,0-.05-.03-.08-.09-.08-.06,0-.13,.05-.2,.13-.07,.09-.12,.19-.15,.32Zm1.95-.87c.01,.08,.05,.15,.12,.22,.07,.07,.11,.11,.12,.13l.02,.02c.06,.09,.1,.2,.1,.31,0,.15-.04,.27-.12,.38-.08,.11-.13,.16-.16,.16v-.02c.02-.07,.04-.13,.04-.18,0-.07-.01-.13-.03-.2-.02-.07-.08-.17-.18-.29l-.03-.03c-.08-.12-.13-.25-.13-.38v-.03c.01-.18,.09-.31,.21-.4,.13-.09,.22-.13,.26-.13h.01s-.03,.03-.03,.03c-.15,.07-.22,.18-.22,.31,0,.04,0,.07,0,.09v.02Zm-.75,.12c.01,.07,.02,.14,.02,.22,0,.05,0,.12-.01,.2,0,.02,0,.04,0,.05-.03,.17-.07,.32-.13,.47v.02s-.06,.1-.1,.17c-.04,.08-.12,.18-.22,.28-.1,.1-.2,.18-.3,.25l-.03,.02c-.12,.06-.22,.1-.33,.13l-.08,.02c-.07,0-.13,.01-.17,.01-.13,0-.24-.03-.33-.1-.09-.07-.13-.15-.13-.24,0-.06,.02-.11,.06-.15,.04-.04,.1-.06,.17-.06,.05,0,.1,.02,.13,.05,.04,.03,.05,.08,.05,.13,0,.05-.02,.08-.04,.12-.03,.03-.06,.05-.1,.05-.06,0-.1-.02-.12-.06,0,.07,.03,.12,.09,.17,.06,.04,.14,.06,.22,.06,.04,0,.1,0,.17-.02l.07-.02c.09-.02,.19-.05,.29-.11l.03-.02c.11-.06,.21-.15,.3-.26,.07-.09,.13-.19,.17-.31l.03-.1v-.03c.04-.12,.06-.25,.06-.37,0-.06,0-.11,0-.13,0-.02,0-.04,0-.05-.03-.31-.13-.56-.29-.75-.17-.19-.38-.29-.63-.3h-.03c-.22,0-.39,.06-.5,.17-.12,.11-.17,.23-.17,.37,0,.03-.01,.05-.04,.05-.02,0-.04-.02-.04-.05,0-.2,.07-.38,.21-.53,.14-.16,.33-.25,.56-.27h.03s.06,0,.06,0c.15,0,.3,.03,.43,.1h.02c.33,.17,.54,.44,.62,.82v.04Zm.51-.02c-.09,.03-.19,.04-.28,.04-.09,0-.16-.01-.22-.03-.03,0-.05-.02-.05-.03,0-.01,0-.02,.04,0,.08,.02,.16,.03,.23,.03,.1,0,.19-.01,.28-.03,.08-.02,.16-.05,.24-.1,.1-.06,.19-.15,.26-.25v-.02s.03,0,.03,0c-.1,.13-.19,.22-.28,.28-.08,.05-.17,.09-.25,.11Zm1.45-.41h.13c.1,0,.19-.02,.28-.08,.09-.06,.14-.14,.15-.23l.02-.04v.03c0,.09-.05,.2-.17,.32-.12,.12-.31,.19-.57,.2h-.04c-.08,0-.17-.01-.26-.05-.09-.03-.21-.1-.37-.22-.16-.12-.29-.19-.37-.22-.09-.03-.17-.05-.25-.05-.24,0-.41,.09-.51,.26v.02s-.02-.01-.02-.01c0-.06,.07-.16,.22-.27,.15-.12,.34-.18,.59-.18,.1,0,.19,.01,.29,.05,.1,.03,.24,.11,.41,.25,.17,.13,.32,.21,.45,.23h.02Zm-.16,.2c-.07,.06-.11,.08-.13,.08h-.01s.1-.08,.1-.08c.06-.05,.12-.11,.18-.2,.07-.11,.11-.23,.11-.36,0-.24-.09-.47-.29-.67-.2,.07-.35,.2-.46,.39l-.02,.03h-.01s.04-.1,.12-.2c.08-.1,.2-.17,.36-.24-.07-.07-.16-.14-.25-.2-.05,.04-.1,.06-.17,.06-.1,0-.18-.03-.26-.08-.08-.06-.13-.13-.15-.21-.2-.04-.37-.06-.52-.06h-.02v.07c0,.09,.02,.17,.05,.25,.13,.02,.23,.05,.32,.11,.08,.05,.12,.11,.12,.17,0,.05-.03,.07-.09,.07-.07,0-.15-.03-.22-.09-.07-.06-.13-.14-.17-.24-.02,0-.05,0-.1,0-.11,0-.23,.03-.36,.09,0,.03-.01,.04-.04,.04h-.04s.03,.05,.03,.06c0,.02,0,.03-.03,.03,0,0-.03-.02-.05-.06l-.02,.03s-.02,.04-.05,.04h-.02c-.06,.05-.11,.09-.14,.13,.12,.07,.25,.18,.39,.34h-.01s-.02,0-.02,0c-.12-.12-.24-.23-.38-.31-.1,.13-.14,.27-.14,.42v.05s-.02-.05-.02-.05c0-.15,.06-.29,.15-.42-.14-.08-.28-.13-.43-.15-.11,.14-.19,.3-.22,.48-.02,.09-.02,.19-.02,.29,.01,.27,.09,.5,.24,.68,.01-.02,.02-.05,.02-.07v-.02s.03,.02,.03,.02c0,.03,0,.06-.03,.09,.16,.17,.38,.29,.67,.35,.07,.02,.15,.02,.24,.03,.11,0,.19,.01,.26,.01,.11,0,.24-.02,.36-.05,.13-.04,.26-.09,.36-.15,.1-.05,.18-.12,.23-.19-.04-.02-.07-.05-.09-.07h.01s.07,.04,.09,.06c.05-.06,.08-.13,.08-.2l.02-.06,.02,.06c0,.07-.03,.15-.08,.22,.12,.08,.24,.13,.38,.16,.07,.02,.13,.02,.2,.03,.08,0,.15,.01,.2,.01,.33,0,.62-.1,.87-.29-.11-.08-.21-.12-.31-.12l-.06-.02,.06-.02c.1,0,.21,.04,.33,.12,.17-.15,.26-.33,.26-.54,0-.26-.11-.48-.32-.65-.21-.18-.46-.26-.74-.26-.12,0-.23,.02-.34,.05,.19,.22,.28,.45,.28,.69,0,.13-.04,.25-.12,.36-.05,.08-.11,.14-.16,.19Zm-.98-1.14c0-.05-.04-.1-.11-.15-.07-.05-.17-.08-.28-.1,.04,.09,.1,.16,.16,.22,.06,.06,.12,.08,.17,.08,.04,0,.06-.02,.06-.04Zm.65-.33c-.15-.09-.32-.16-.52-.21,.02,.08,.06,.14,.13,.19,.07,.05,.15,.07,.24,.07,.06,0,.11-.02,.15-.05Zm-1.1,.04c-.03-.07-.04-.15-.04-.24,0-.03,0-.05,0-.07-.54,.03-.94,.2-1.22,.52,.16,.03,.3,.08,.43,.16,.05-.06,.1-.11,.15-.15v-.02s.01-.04,.04-.04h.02s.02,0,.02,0l-.02-.05s.01-.03,.03-.03c.01,0,.03,.01,.05,.04h.01s.02-.05,.05-.05h.02c.13-.06,.25-.09,.37-.09,.04,0,.07,0,.09,0Zm1.14-.07c.06-.07,.09-.15,.09-.26,0-.15-.06-.27-.17-.38-.11-.11-.25-.16-.41-.16-.15,0-.29,.04-.41,.12-.12,.08-.19,.19-.23,.33,.17,0,.34,.02,.52,.07,.02-.09,.07-.13,.15-.13,.03,0,.06,0,.08,.02,.02,.02,.03,.03,.03,.05,0,.03,0,.04-.02,.04s-.02-.01-.02-.04c0-.03-.03-.04-.08-.04-.06,0-.1,.04-.11,.11,.21,.06,.4,.14,.57,.26Zm-2.67,3.52c.01-.12,.04-.22,.09-.32-.14-.14-.21-.33-.21-.56,0-.04,0-.07,0-.09-.09,.02-.16,.03-.23,.03-.3,0-.55-.1-.76-.3-.21-.2-.31-.45-.31-.77,0-.35,.14-.65,.42-.89,.28-.24,.61-.36,.97-.36,.08,0,.16,0,.24,.02,.3-.39,.73-.6,1.29-.62,.04-.15,.13-.27,.26-.36,.13-.09,.28-.13,.45-.13,.16,0,.3,.06,.42,.17,.12,.11,.18,.25,.18,.4,0,.11-.04,.21-.11,.28,.09,.06,.17,.13,.25,.22,.11-.04,.25-.06,.4-.06,.28,0,.53,.1,.76,.3,.23,.2,.34,.43,.34,.67,0,.2-.1,.39-.3,.55,.22,.17,.34,.38,.34,.62,0,.2-.07,.37-.21,.5-.14,.13-.3,.2-.48,.2h-.04c.07,.16,.11,.32,.11,.48,0,.32-.14,.58-.41,.78-.27,.2-.6,.3-.99,.3-.1,0-.23-.01-.37-.03-.22,.13-.48,.2-.78,.2-.38,0-.7-.11-.96-.32-.25-.21-.38-.47-.38-.77,0-.05,0-.08,0-.1v-.03Z"/>
    <path class="cls-9" d="M61.72,174.57s.05,.02,.09,.05c.04,.04,.06,.06,.06,.07l-.18,.17c-.07-.06-.11-.1-.13-.1l-.27,.24s-.03,0-.03-.02,.07-.09,.2-.22c.14-.13,.22-.19,.25-.19Zm-.1,2.09s.02,.1,.05,.14c.03,.05,.07,.07,.11,.07,.05,0,.09-.02,.13-.06v.02s-.03,.05-.12,.12c-.09,.07-.2,.16-.34,.29h-.01s.01-.05,.04-.07c.03-.02,.04-.04,.04-.07l-.04-.05c-.07-.08-.11-.16-.11-.23v-.87s-.02-.06-.06-.09c-.04-.03-.07-.04-.09-.04s-.05,.02-.1,.06v-.02c.21-.17,.35-.3,.42-.38l.02-.02s.02,0,.02,.02c0,.02-.04,.07-.11,.15,0,.02,.03,.05,.09,.09,.06,.04,.12,.07,.19,.09-.09,.04-.13,.08-.13,.13v.73Zm-1.25-.09h-.03s.04-.08,.12-.14,.14-.13,.18-.18c.04-.06,.05-.11,.05-.16,0-.08-.02-.15-.07-.21-.04-.06-.1-.09-.16-.09-.06,0-.14,.05-.22,.15v-.02s.02-.05,.08-.1c.06-.05,.13-.11,.23-.17,.09-.06,.17-.14,.23-.24l.02-.03h.01s-.04,.09-.11,.18l.04,.03c.15,.09,.23,.19,.23,.31,0,.1-.1,.23-.29,.39l-.07,.07,.04,.02c.11,.02,.19,.06,.23,.12,.04,.06,.06,.13,.06,.22,0,.06-.02,.12-.05,.18-.03,.06-.11,.16-.23,.3-.13,.13-.21,.24-.24,.33-.03,.09-.05,.17-.05,.25,0,.08,.02,.14,.06,.19,.04,.05,.09,.08,.15,.08,.03,0,.05,0,.06-.03,.02-.02,.02-.03,.02-.04l-.02-.02c-.06-.02-.09-.06-.09-.12,0-.04,.01-.08,.05-.1,.03-.03,.07-.04,.11-.04s.08,.01,.1,.04c.03,.03,.04,.07,.04,.11,0,.06-.03,.11-.08,.16-.06,.05-.12,.07-.18,.07-.08,0-.14-.03-.19-.09-.05-.06-.07-.13-.07-.22,0-.06,.01-.12,.03-.19,.01-.06,.06-.16,.13-.28,.07-.12,.12-.21,.13-.28,.02-.07,.03-.14,.03-.2,0-.08-.02-.14-.05-.18-.04-.04-.08-.06-.13-.06-.04,0-.07,0-.11,.02Zm-.38,.09s.02,.1,.05,.14c.04,.05,.07,.07,.11,.07,.05,0,.09-.02,.13-.06v.02s-.03,.05-.12,.12c-.08,.07-.2,.16-.34,.29h-.01s.01-.05,.04-.07c.02-.02,.04-.04,.04-.07l-.04-.05c-.07-.08-.11-.16-.11-.23v-.87s-.02-.06-.06-.09c-.04-.03-.07-.04-.09-.04-.01,0-.05,.02-.1,.06v-.03c.2-.17,.34-.3,.41-.38l.02-.02s.03,0,.03,.02c0,.02-.04,.07-.11,.15,0,.02,.03,.05,.08,.09,.06,.04,.12,.07,.18,.09-.09,.04-.13,.08-.13,.13v.73Zm-.19-2s.08,.02,.11,.05c.04,.03,.05,.07,.05,.11s-.02,.08-.05,.11c-.03,.03-.07,.05-.11,.05s-.08-.01-.11-.05c-.03-.03-.05-.07-.05-.11s.02-.08,.05-.11c.03-.03,.07-.05,.11-.05Zm-2.39,2.78c0-.07-.02-.13-.06-.18-.03-.05-.07-.08-.1-.08-.02,0-.04,.02-.04,.05,0,.09,.07,.16,.2,.2Zm.83-.43c-.13,.08-.23,.18-.28,.28l-.02,.03v-.02s.01-.07,.05-.12c.04-.05,.06-.08,.06-.09l-.02-.02c-.19-.12-.31-.35-.35-.68v-.02c-.01-.1-.02-.19-.02-.26,0-.08,0-.14,0-.18v-.02c.01-.16,.06-.31,.12-.45v-.02c.08-.15,.16-.26,.24-.33,.08-.07,.14-.11,.16-.11h.01s-.03,.06-.03,.06c-.09,.1-.15,.24-.18,.41v.02c-.03,.13-.04,.27-.04,.43v.03c0,.19,.02,.36,.07,.49v.04c.06,.14,.14,.24,.23,.32,.01,0,.02,.02,.03,.02,.05,.02,.09,.04,.14,.04,.02,0,.07-.03,.15-.1h0s-.1,.12-.3,.25l-.03,.02Zm-1.61-1.05c0,.06,.01,.11,.04,.17,.03,.05,.1,.12,.21,.21,.11,.08,.18,.16,.21,.22,.03,.06,.04,.13,.04,.19,0,.13-.06,.23-.18,.31-.12,.08-.2,.13-.24,.13v-.02s.02-.03,.02-.03c.1-.06,.15-.12,.15-.2,0-.05-.01-.1-.04-.15-.02-.05-.09-.12-.19-.2-.1-.08-.16-.15-.19-.21-.03-.06-.04-.11-.04-.17,0-.16,.04-.28,.12-.36,.08-.08,.14-.12,.19-.12h.01s-.01,.02-.01,.02c-.07,.05-.11,.12-.11,.21Zm-.49,.64c.03,.05,.04,.12,.04,.19,0,.02,0,.06-.01,.1v.02c-.03,.08-.07,.14-.12,.18l-.03,.03c-.06,.04-.09,.06-.12,.06v-.02s0-.02,0-.02c.05-.04,.08-.09,.08-.15v-.06c-.02-.08-.12-.18-.29-.32l-.03-.03c-.13-.1-.21-.2-.23-.28v-.03s-.01-.07-.01-.07c0-.16,.04-.28,.11-.36,.07-.08,.13-.12,.16-.12h.01s-.01,.02-.01,.02c-.07,.04-.11,.11-.11,.2,0,.07,.04,.14,.12,.22l.03,.02s.07,.06,.09,.08l.08,.06c.1,.08,.17,.15,.21,.24l.02,.02Zm2.13,.4c-.02,.18-.08,.31-.18,.4-.1,.09-.24,.13-.4,.13-.09,0-.17-.01-.25-.04-.01,.19-.11,.35-.28,.48,.12,0,.21,.01,.27,.01,.34,0,.65-.09,.93-.29,.28-.19,.41-.44,.41-.75,0-.17-.03-.32-.1-.46-.14-.02-.25-.08-.33-.17-.09-.09-.13-.19-.14-.32-.07-.03-.16-.05-.25-.08-.1-.02-.19-.03-.29,0-.04,0-.1,.02-.17,.05,0-.02,.06-.05,.17-.07,.06-.01,.16,0,.29,0,.09,.01,.18,.04,.25,.08,.01-.11,.05-.2,.11-.27,.07-.07,.15-.1,.24-.1s.17,.03,.24,.08c.07,.05,.1,.13,.1,.22,0,.04,0,.07,0,.08,0,.1,.04,.15,.11,.15,.03,0,.06-.01,.08-.04h.01s0,.04-.03,.06c-.02,.02-.04,.03-.07,.03-.06,0-.1-.03-.13-.09-.03-.06-.05-.11-.05-.17,0-.08-.02-.14-.07-.2-.04-.05-.1-.08-.19-.08s-.16,.03-.22,.09c-.07,.06-.1,.15-.11,.25,.2,.09,.36,.24,.47,.46,.02,0,.04,0,.07,0,.16,0,.3-.06,.42-.19,.12-.13,.18-.29,.18-.49,0-.23-.09-.42-.28-.58-.27,.19-.57,.29-.91,.29-.05,0-.12,0-.2-.01-.06,0-.12-.02-.2-.04-.13-.04-.26-.09-.39-.16-.06,.06-.14,.13-.24,.19-.1,.06-.22,.11-.36,.15-.15,.04-.3,.07-.43,.07-.1,0-.18,0-.23-.02l-.22-.03c-.29-.06-.52-.18-.69-.36-.11,.2-.29,.3-.53,.3-.14,0-.26-.05-.36-.15-.1-.1-.14-.22-.14-.37,0-.03,.01-.05,.04-.05,.03,0,.04,.02,.04,.05,0,.13,.04,.25,.13,.33,.09,.09,.19,.13,.31,.13,.23,0,.4-.09,.5-.28-.16-.2-.25-.43-.26-.71,0-.09,0-.18,.02-.28,.03-.17,.09-.33,.19-.48-.06-.01-.14-.02-.21-.02-.35,0-.65,.12-.9,.34-.26,.23-.38,.51-.38,.85,0,.3,.09,.55,.27,.75,.18,.2,.41,.29,.72,.29,.06,0,.14,0,.22-.03,.04-.14,.1-.25,.19-.35,.09-.1,.17-.15,.24-.15,.08,0,.12,.03,.12,.1,0,.06-.04,.13-.13,.21-.09,.08-.2,.14-.35,.19-.01,.05-.01,.09-.01,.11,0,.22,.05,.4,.15,.53,.09-.14,.2-.26,.35-.34,.08-.05,.18-.08,.29-.11,.06-.02,.12-.02,.16-.03,.03,0,.08,0,.14,0h.03c.09,0,.13,0,.13,.02h-.11s-.07,0-.07,0c-.03,0-.08,0-.13,.01l-.13,.02c-.11,.02-.21,.06-.31,.11-.15,.09-.26,.21-.32,.37,.07,.08,.15,.13,.25,.17h.03c.13,.07,.28,.1,.44,.09h.15c.07,0,.13-.02,.19-.05,.09-.04,.19-.1,.29-.19v.02c-.1,.09-.2,.15-.29,.19-.05,.02-.11,.04-.18,.05-.06,.01-.12,.02-.15,.02-.17,0-.32-.03-.47-.08l-.03-.02c-.09-.04-.16-.09-.23-.15-.02,.05-.04,.14-.06,.26v.03s0,.07,0,.13c0,.28,.12,.52,.35,.73,.23,.21,.54,.31,.91,.31,.27,0,.51-.05,.73-.17-.59-.12-.92-.42-1.01-.9-.04-.21,0-.4,.11-.55,.05-.06,.08-.09,.11-.09-.05,.06-.08,.09-.09,.12-.09,.14-.12,.31-.09,.5,.08,.5,.43,.79,1.06,.88,.19-.13,.29-.29,.3-.49-.16-.06-.24-.14-.24-.24,0-.07,.03-.1,.09-.1,.05,0,.09,.03,.12,.08,.03,.05,.05,.13,.05,.23,.08,.02,.16,.03,.25,.03,.33,0,.52-.16,.56-.47,0-.09,0-.16,0-.23-.02-.15-.1-.25-.22-.32-.1-.06-.22-.08-.35-.07-.02,0-.07,0-.14,.02,0-.02,.05-.04,.14-.04,.13-.01,.25,0,.34,.06,.15,.07,.24,.2,.26,.38,0,.05,0,.12,0,.19Zm.38-.54c-.1-.19-.24-.33-.42-.43,.01,.24,.15,.38,.42,.43Zm-3.7-.49c.13-.05,.24-.11,.32-.18,.08-.07,.12-.14,.12-.2,0-.05-.03-.08-.09-.08-.06,0-.13,.05-.2,.13-.07,.09-.12,.19-.15,.32Zm1.95-.87c.01,.08,.05,.15,.12,.22,.07,.07,.11,.11,.12,.13l.02,.02c.06,.09,.1,.2,.1,.31,0,.15-.04,.27-.12,.38-.08,.11-.13,.16-.16,.16v-.02c.02-.07,.04-.13,.04-.18,0-.07-.01-.13-.03-.2-.02-.07-.08-.17-.18-.29l-.03-.03c-.08-.12-.13-.25-.13-.38v-.03c.01-.18,.09-.31,.21-.4,.13-.09,.22-.13,.26-.13h.01s-.03,.03-.03,.03c-.15,.07-.22,.18-.22,.31,0,.04,0,.07,0,.09v.02Zm-.75,.12c.01,.07,.02,.14,.02,.22,0,.05,0,.12-.01,.2,0,.02,0,.04,0,.05-.03,.17-.07,.32-.13,.47v.02s-.06,.1-.1,.17c-.04,.08-.12,.18-.22,.28-.1,.1-.2,.18-.3,.25l-.03,.02c-.12,.06-.22,.1-.33,.13l-.08,.02c-.07,0-.13,.01-.17,.01-.13,0-.24-.03-.33-.1-.09-.07-.13-.15-.13-.24,0-.06,.02-.11,.06-.15,.04-.04,.1-.06,.17-.06,.05,0,.1,.02,.13,.05,.04,.03,.05,.08,.05,.13,0,.05-.02,.08-.04,.12-.03,.03-.06,.05-.1,.05-.06,0-.1-.02-.12-.06,0,.07,.03,.12,.09,.17,.06,.04,.14,.06,.22,.06,.04,0,.1,0,.17-.02l.07-.02c.09-.02,.19-.05,.29-.11l.03-.02c.11-.06,.21-.15,.3-.26,.07-.09,.13-.19,.17-.31l.03-.1v-.03c.04-.12,.06-.25,.06-.37,0-.06,0-.11,0-.13,0-.02,0-.04,0-.05-.03-.31-.13-.56-.29-.75-.17-.19-.38-.29-.63-.3h-.03c-.22,0-.39,.06-.5,.17-.12,.11-.17,.23-.17,.37,0,.03-.01,.05-.04,.05-.02,0-.04-.02-.04-.05,0-.2,.07-.38,.21-.53,.14-.16,.33-.25,.56-.27h.03s.06,0,.06,0c.15,0,.3,.03,.43,.1h.02c.33,.17,.54,.44,.62,.82v.04Zm.51-.02c-.09,.03-.19,.04-.28,.04-.09,0-.16-.01-.22-.03-.03,0-.05-.02-.05-.03,0-.01,0-.02,.04,0,.08,.02,.16,.03,.23,.03,.1,0,.19-.01,.28-.03,.08-.02,.16-.05,.24-.1,.1-.06,.19-.15,.26-.25v-.02s.03,0,.03,0c-.1,.13-.19,.22-.28,.28-.08,.05-.17,.09-.25,.11Zm1.45-.41h.13c.1,0,.19-.02,.28-.08,.09-.06,.14-.14,.15-.23l.02-.04v.03c0,.09-.05,.2-.17,.32-.12,.12-.31,.19-.57,.2h-.04c-.08,0-.17-.01-.26-.05-.09-.03-.21-.1-.37-.22-.16-.12-.29-.19-.37-.22-.09-.03-.17-.05-.25-.05-.24,0-.41,.09-.51,.26v.02s-.02-.01-.02-.01c0-.06,.07-.16,.22-.27,.15-.12,.34-.18,.59-.18,.1,0,.19,.01,.29,.05,.1,.03,.24,.11,.41,.25,.17,.13,.32,.21,.45,.23h.02Zm-.16,.2c-.07,.06-.11,.08-.13,.08h-.01s.1-.08,.1-.08c.06-.05,.12-.11,.18-.2,.07-.11,.11-.23,.11-.36,0-.24-.09-.47-.29-.67-.2,.07-.35,.2-.46,.39l-.02,.03h-.01s.04-.1,.12-.2c.08-.1,.2-.17,.36-.24-.07-.07-.16-.14-.25-.2-.05,.04-.1,.06-.17,.06-.1,0-.18-.03-.26-.08-.08-.06-.13-.13-.15-.21-.2-.04-.37-.06-.52-.06h-.02v.07c0,.09,.02,.17,.05,.25,.13,.02,.23,.05,.32,.11,.08,.05,.12,.11,.12,.17,0,.05-.03,.07-.09,.07-.07,0-.15-.03-.22-.09-.07-.06-.13-.14-.17-.24-.02,0-.05,0-.1,0-.11,0-.23,.03-.36,.09,0,.03-.01,.04-.04,.04h-.04s.03,.05,.03,.06c0,.02,0,.03-.03,.03,0,0-.03-.02-.05-.06l-.02,.03s-.02,.04-.05,.04h-.02c-.06,.05-.11,.09-.14,.13,.12,.07,.25,.18,.39,.34h-.01s-.02,0-.02,0c-.12-.12-.24-.23-.38-.31-.1,.13-.14,.27-.14,.42v.05s-.02-.05-.02-.05c0-.15,.06-.29,.15-.42-.14-.08-.28-.13-.43-.15-.11,.14-.19,.3-.22,.48-.02,.09-.02,.19-.02,.29,.01,.27,.09,.5,.24,.68,.01-.02,.02-.05,.02-.07v-.02s.03,.02,.03,.02c0,.03,0,.06-.03,.09,.16,.17,.38,.29,.67,.35,.07,.02,.15,.02,.24,.03,.11,0,.19,.01,.26,.01,.11,0,.24-.02,.36-.05,.13-.04,.26-.09,.36-.15,.1-.05,.18-.12,.23-.19-.04-.02-.07-.05-.09-.07h.01s.07,.04,.09,.06c.05-.06,.08-.13,.08-.2l.02-.06,.02,.06c0,.07-.03,.15-.08,.22,.12,.08,.24,.13,.38,.16,.07,.02,.13,.02,.2,.03,.08,0,.15,.01,.2,.01,.33,0,.62-.1,.87-.29-.11-.08-.21-.12-.31-.12l-.06-.02,.06-.02c.1,0,.21,.04,.33,.12,.17-.15,.26-.33,.26-.54,0-.26-.11-.48-.32-.65-.21-.18-.46-.26-.74-.26-.12,0-.23,.02-.34,.05,.19,.22,.28,.45,.28,.69,0,.13-.04,.25-.12,.36-.05,.08-.11,.14-.16,.19Zm-.98-1.14c0-.05-.04-.1-.11-.15-.07-.05-.17-.08-.28-.1,.04,.09,.1,.16,.16,.22,.06,.06,.12,.08,.17,.08,.04,0,.06-.02,.06-.04Zm.65-.33c-.15-.09-.32-.16-.52-.21,.02,.08,.06,.14,.13,.19,.07,.05,.15,.07,.24,.07,.06,0,.11-.02,.15-.05Zm-1.1,.04c-.03-.07-.04-.15-.04-.24,0-.03,0-.05,0-.07-.54,.03-.94,.2-1.22,.52,.16,.03,.3,.08,.43,.16,.05-.06,.1-.11,.15-.15v-.02s.01-.04,.04-.04h.02s.02,0,.02,0l-.02-.05s.01-.03,.03-.03c.01,0,.03,.01,.05,.04h.01s.02-.05,.05-.05h.02c.13-.06,.25-.09,.37-.09,.04,0,.07,0,.09,0Zm1.14-.07c.06-.07,.09-.15,.09-.26,0-.15-.06-.27-.17-.38-.11-.11-.25-.16-.41-.16-.15,0-.29,.04-.41,.12-.12,.08-.19,.19-.23,.33,.17,0,.34,.02,.52,.07,.02-.09,.07-.13,.15-.13,.03,0,.06,0,.08,.02,.02,.02,.03,.03,.03,.05,0,.03,0,.04-.02,.04s-.02-.01-.02-.04c0-.03-.03-.04-.08-.04-.06,0-.1,.04-.11,.11,.21,.06,.4,.14,.57,.26Zm-2.67,3.52c.01-.12,.04-.22,.09-.32-.14-.14-.21-.33-.21-.56,0-.04,0-.07,0-.09-.09,.02-.16,.03-.23,.03-.3,0-.55-.1-.76-.3-.21-.2-.31-.45-.31-.77,0-.35,.14-.65,.42-.89,.28-.24,.61-.36,.97-.36,.08,0,.16,0,.24,.02,.3-.39,.73-.6,1.29-.62,.04-.15,.13-.27,.26-.36,.13-.09,.28-.13,.45-.13,.16,0,.3,.06,.42,.17,.12,.11,.18,.25,.18,.4,0,.11-.04,.21-.11,.28,.09,.06,.17,.13,.25,.22,.11-.04,.25-.06,.4-.06,.28,0,.53,.1,.76,.3,.23,.2,.34,.43,.34,.67,0,.2-.1,.39-.3,.55,.22,.17,.34,.38,.34,.62,0,.2-.07,.37-.21,.5-.14,.13-.3,.2-.48,.2h-.04c.07,.16,.11,.32,.11,.48,0,.32-.14,.58-.41,.78-.27,.2-.6,.3-.99,.3-.1,0-.23-.01-.37-.03-.22,.13-.48,.2-.78,.2-.38,0-.7-.11-.96-.32-.25-.21-.38-.47-.38-.77,0-.05,0-.08,0-.1v-.03Z"/>
    <path class="cls-34" d="M67.04,229.17l2.97-4.09c14.24-16.75,38.41-20.63,56.81-7.33l5.57,5.13c2.55,2.84,1.36,.74,4.82,5.87,1.03,1.53,1.59,3.46,2.85,4.65,6.23,.43,6.07-1.24,9.99-2.73-.42-9.54,4.85-22.9,10.09-30.48,5.79-8.39,12.01-14,21.06-19.06,19.63-10.98,46.57-7.99,63.06,4.34l8.78,7.69c.64,.72,.94,1.27,1.58,2.01,8.61,10.15,7.42,12.29,11.94,21.81,5.14-52.29,9.7-84.05,4.89-136.26-1.32-14.4-4.33-28.67-6.13-42.95-31.29-.59-73.69-.48-103.62,8.84-5.6,1.74-23.31,7.74-27.57,10.39-.27,7.27,7.12,49.49,5.67,55.54-2.68,.82-24.86,.92-30.56,1.39-9.56,.79-19.22,1.88-28.54,3.71-12.21,2.4-29.45,9.37-39.04,17.11-1.68,1.35-2.82,2.48-4.29,3.74l-3.89,4.14c-3.69,4.86-6.78,8.53-9.09,15.01-3.21,9.01-2.52,18.98-.41,28.31,1.8,7.98,5.34,16.58,8.79,23.3,.91,1.76,10.9,19.2,12.71,19.92h21.56Z"/>
    <path class="cls-17" d="M66.87,117.64l-4.05,1.12c-2.08,1.07-5.49,2.08-7.78,3.1-2.55,1.13-5.01,2.57-7.41,3.43l-2.77,1.75-4.28,2.72c-4.11,2.97-7.59,6-10.84,10.02-2.68,3.33-6.57,8.68-7.96,13.07l-1.22,3.56c-1.71,7.68-2.94,12.43-2.12,20.95,.32,3.35,.8,6.73,1.54,9.94,.54,2.37,2.17,7.06,2.22,8.95l1.49,3.41c.46,2.42,3.54,8.42,4.81,11.2,2.22,4.85,8.05,14.21,11.2,18.67,.79,1.12,2.3,2.63,2.67,3.99l5.08,.05,17.28,.12c.81-1.81,1.39-2.78,2.31-4.52h-21.56c-1.81-.72-11.8-18.16-12.71-19.92-3.44-6.71-6.98-15.32-8.79-23.3-2.11-9.33-2.8-19.3,.41-28.31,2.31-6.48,5.4-10.15,9.09-15.01l3.89-4.14c1.47-1.25,2.61-2.38,4.29-3.74,9.59-7.75,26.84-14.72,39.04-17.11,9.33-1.83,18.98-2.93,28.54-3.71,5.7-.47,27.88-.57,30.56-1.39,1.44-6.05-5.94-48.27-5.67-55.54,4.26-2.65,21.97-8.65,27.57-10.39,29.93-9.33,72.33-9.44,103.62-8.84,1.79,14.28,4.8,28.55,6.13,42.95,4.81,52.21,.24,83.97-4.89,136.26,.76,5.61,2.12,9.31,2.25,15.68,.42-.62,.16,.09,.37-.99,.13-.66,.09-.99,.14-1.65l8.01-87.84c.02-2.08-.18-4.63,.05-6.64,.86-7.67,.67-23.6-.04-32.19-.18-2.12,.15-4.48-.09-6.6l-5.54-47.51c-.42-2.5-1.28-9.96-1.97-11.4,5.16,0,14.38,1.84,13.96-7.84-.44-10.37-6.82-13.25-15.6-18.16-29.56-16.55-74.99-13.65-104.08-3.93-13.47,4.5-26.47,10.04-38.29,17.89-9.17,6.09-16.94,12.68-24.18,20.85l-4.9,6.25c-3.18,5.06-3.16,14.62,.9,17.58,3.31,2.41,7.3,.07,12.14-2.32l15.47-7.27c1.34-.58,2.92-1.37,4.14-1.65l5.8,50.38c-18.05,0-36.31,.76-52.94,4.12-4.06,.82-12.02,2.3-15.27,3.92"/>
    <path class="cls-17" d="M151,51.39c-.7,4.64,3.98,41.19,5.05,50.65,.61,5.36,.98,12.25,2.12,17.12,3.33,1.69,27.54,5.57,33.46,6.54,15.39,2.54,36.88,6.83,51.94,8.19,11.25,1.02,9.7,1.2,10.13-9.58,.76-19.32,5.53-57.6-5.27-71.87-5.8-7.67-18.82-10.99-28.62-11.96-11.89-1.18-25.06,.37-36.79,2.46-6.22,1.11-28.33,6.02-32.02,8.46"/>
    <path class="cls-17" d="M384.72,211.93c-.96,.98-1.22,.84-2.74,1.46-.98,.4-1.67,.74-2.68,1.14-2.19,1.5-4.08,2.28-5.93,3.63-6.69,4.9-8.48,8.54-12.65,15.35-1.89,4.35-2.88,7.06-3.75,12.07-2.12,6.63,.84,20,4.94,26.84,7.31,12.19,19.76,19.68,32.8,20.86h7.29c4.76-.44,9.48-1.75,13.95-4.01,2.77-1.4,4.52-2.29,7.01-4.13,8.76-6.49,16.07-18.2,16.61-28.87,.1-1.97,.5-3.77,.35-5.2-.19-1.72-.34-3.27-.34-5.69-.07-.08-3.34-10.24-4.06-11.87-.82-1.35-1.17-2.42-1.97-3.74-4.38-7.23-12.15-13.72-20.19-16.79-.49-.19-.44-.14-1-.4-1.08-.5-.5-.19-1-.56-4.59-.88-8.24-1.98-13.24-1.98-5.26,0-9.01,1.59-13.4,1.89"/>
    <path class="cls-17" d="M491.92,212.02l-3.89,1.73c-1.33,.61-2.6,1.35-3.78,2.03-6.66,3.8-10.49,7.92-14.5,14.04-.97,1.47-1.23,2.66-1.97,3.65-1.84,4.62-2.82,6.74-3.74,12.1-1.64,4.19,.1,15.3,1.47,19.11,5.99,16.74,20.84,28.55,38.98,28.59h.34c15.08-.09,28.49-7.48,35.99-20.04,3.46-5.79,6.73-15.83,6.21-22.28-.16-2-.44-3-.44-5.67-.13-.16-2.96-9.72-4.01-11.77-4.07-8.13-5.19-7.99-10.03-13.15-2.28-2.43-5.49-3.78-8.55-5.88-1.68-.67-4.29-1.41-5.42-2.57-4.47-.34-8.14-1.9-13.44-1.89-5.24,0-8.51,1.29-13.2,1.98"/>
    <path class="cls-17" d="M346.85,167h207.76c5.55-3.04,4.46-3.09,4.46-12.82,0-13.35-.78-11.14-23.63-11.14-4.6,0-13.8-.5-17.83,.2l-3.7,.05-19.04,.04-3.57-.02c-2.61-.62-76.22-.73-79.8-.06l-3.72-.06-19.01,.14-3.57-.02c-4.77-1.13-28.96-.32-35.69-.29-3.16,.01-4.94,.78-6.16,2.75-1.49,2.4-1.14,15.13-.79,16.72,.62,2.79,2.21,3.39,4.3,4.51"/>
    <path class="cls-17" d="M346.41,190.6l208.65,.02c5.17-2.72,4.01-5.4,4.01-11.92s.69-9.95-4.46-11.69h-207.76c-5.14,1.78-4.46,5.3-4.46,11.69,0,2.2-.33,5.89,.18,7.85,.65,2.48,2.08,2.93,3.83,4.05"/>
    <path class="cls-40" d="M190.32,45.59c1.51,.98,.61-.42,.77,2.02l.07,7.16c.23,9.62,.52,64.17,1.37,67.51,7.25,1.72,52.33,9.26,57.43,8.26,.08-19.35,4.98-54.22-1.63-70.85-3.34-8.39-12.07-12.48-22.96-14.57-12.32-2.37-23.02-.63-35.06,.47"/>
    <path class="cls-34" d="M208.34,4.19c-28.06,.41-58.08,10.92-81.06,25.82l-13.2,10c-4.35,4.61-6.19,5.91-11.05,11.68-2.53,3.01-4.42,4.95-4.3,10.57,.17,7.75,3.58,4.37,7.88,2.38,31.17-14.39,57.07-26.54,92.77-29.24,23.47-1.78,50.36-2.01,74.35-1.82,2.65,.02,5.1,.65,5.55-2.18,1.18-7.41-4.95-10.84-8.99-13.35-18.3-11.32-40.13-14.19-61.96-13.87"/>
    <path class="cls-43" d="M170.14,219.84l6.58-3.32c.05-4.95,3.22-8.94,5.39-11.31,6.1-6.66,21.06-13.27,30.24-8.84,2.43,1.17,2.7,1.94,3.79,4.21,2.63,5.46-.5,8.88-2.66,11.96-1.15,1.63-.46,.98-1.99,2.43-5.24,4.97-9.86,8.47-18.59,9.91-9.23,1.53-10.33-1.43-13.74-2.14-2.01,.91-3.74,2.12-5.78,3.16-1.92,.97-4.16,2.04-5.92,3.07l.43,1.89c-.02,3.43-.32,2.72,.12,7.3,1.74,18.34,16,33.33,34,36.3,17.89,2.95,32.22-4.28,41.75-17.43,9.73-13.42,9.12-32.33,.55-46.23-11.76-19.08-39.24-24.1-56.02-13.26-7.91,5.11-15.93,12.47-18.15,22.28"/>
    <path class="cls-37" d="M346.71,145.98c-3.03,1.55-1.71,9.25-1.73,12.67-.04,6.96,2.48,5.85,8.56,5.85,30.16-.03,199.74,.57,201.59-.46,2.39-1.33,1.49-9.29,1.5-12.54,.03-7.02-1.64-5.91-8.26-5.9-30.23,.04-199.9-.51-201.66,.39"/>
    <path class="cls-12" d="M344.95,173.8c0,11.07-1.41,14.55,4.58,14.55h202.52c5.94,0,4.53-3.38,4.53-14.55,0-3.46-1.21-4.45-4.64-4.45h-202.18c-3.74,0-4.8,.77-4.8,4.45"/>
    <path class="cls-48" d="M393.58,216.8c-17.97,2.47-32.89,18.46-30.37,39.2,2.22,18.21,18.85,33.24,39.74,30.51,17.71-2.32,32.56-18.67,30.06-39.31-2.16-17.86-18.88-33.23-39.44-30.4"/>
    <path class="cls-48" d="M500.03,216.95c-17.83,2.58-32.58,18.9-29.68,39.77,1.16,8.35,6.32,17.58,12.75,22.46,6.55,4.98,16.74,8.97,27.63,7.22,17.58-2.82,32.25-19.19,29.23-40-.7-4.83-2.35-9.23-4.6-12.78-1.15-1.82-2.4-3.93-3.72-5.2l-4.59-4.33c-7.66-5.28-15.08-8.87-27.02-7.14"/>
    <path class="cls-15" d="M384.72,211.93c4.39-.3,8.14-1.89,13.4-1.89,5,0,8.65,1.1,13.24,1.98h80.56c4.69-.69,7.96-1.97,13.2-1.98,5.3,0,8.97,1.55,13.44,1.89,6.03-.47,22.46-.09,30.25-.08,3.12,0,6.76,.68,7.47-2.46,.4-1.79,.12-7.93,.13-10.19,.03-3.98-.17-5.77-4.45-5.87-6.74-.16-13.76,.02-20.54,.02-17.87,0-179.44-.43-183.23,.07-3.79,.5-3.01,3.33-3,7.13,0,2.05-.36,8.27,.38,9.73,1.29,2.52,5.87,1.57,8.41,1.57,8.17,0,24.24-.41,30.74,.08"/>
    <path class="cls-48" d="M136.67,245.57l-20.3,10.66c-1.21,6.67-9.82,11.42-17.31,9.8-6.9-1.49-12.19-7.33-11.74-15.56,.98-18,27.01-18.67,29.53-2.16,2.99-1.14,6.13-3.22,9.08-4.76,2.76-1.45,6.64-3.72,9.2-4.87-5.9-16.75-25.93-26.61-43.75-20.75-8.82,2.91-15.06,8.59-18.99,14.88-4.77,7.63-6.74,18.03-3.96,28.16,4.98,18.17,24.11,28.87,41.64,24.7,12.74-3.02,22.41-12.1,26.09-24.76,.86-2.94,2.38-13.09,.5-15.34"/>
    <path class="cls-17" d="M150.04,230.66l9.57-5.07-.2-1.16c0-.25,.13-.83,.19-1.09,2.67-12.22,8.47-21.19,17.67-29.19,13.91-12.09,38.8-15.35,56.58-5,7.82,4.55,8.35,5.69,13.74,11.24,18.57,19.1,16.21,56.62-7.54,73.47-3.91,2.77-7.04,4.94-11.94,6.79-13.69,5.16-27.44,4.74-40.68-1.38-4.43-2.05-11.55-6.89-14.57-10.4-4.2-4.9-7.23-8.35-10.06-14.9-1.86-4.31-5.06-15.21-3.97-20.3l-8.92,4.79,1,7.12c1.03,3.61,1.76,6.8,3.07,10.07,2.7,6.76,8,14.85,13.07,19.92,10.29,10.29,25.75,17.24,40.68,17.71h2.98c7.13-.25,15.22-2.32,20.35-4.32,11.79-4.61,22.42-13.39,28.87-24.19,3.59-6.02,6.47-11.85,7.72-19.19l1.11-12.04,.03-.89c-.13-6.38-1.49-10.08-2.25-15.68-4.52-9.52-3.33-11.66-11.94-21.81-.63-.75-.94-1.3-1.58-2.01l-8.78-7.69c-16.49-12.33-43.44-15.32-63.06-4.34-9.05,5.06-15.26,10.67-21.06,19.06-5.24,7.58-10.51,20.94-10.09,30.48Z"/>
    <path class="cls-4" d="M150.04,230.66l9.57-5.07-.2-1.16c0-.25,.13-.83,.19-1.09,2.67-12.22,8.47-21.19,17.67-29.19,13.91-12.09,38.8-15.35,56.58-5,7.82,4.55,8.35,5.69,13.74,11.24,18.57,19.1,16.21,56.62-7.54,73.47-3.91,2.77-7.04,4.94-11.94,6.79-13.69,5.16-27.44,4.74-40.68-1.38-4.43-2.05-11.55-6.89-14.57-10.4-4.2-4.9-7.23-8.35-10.06-14.9-1.86-4.31-5.06-15.21-3.97-20.3l-8.92,4.79,1,7.12c1.03,3.61,1.76,6.8,3.07,10.07,2.7,6.76,8,14.85,13.07,19.92,10.29,10.29,25.75,17.24,40.68,17.71h2.98c7.13-.25,15.22-2.32,20.35-4.32,11.79-4.61,22.42-13.39,28.87-24.19,3.59-6.02,6.47-11.85,7.72-19.19l1.11-12.04,.03-.89c-.13-6.38-1.49-10.08-2.25-15.68-4.52-9.52-3.33-11.66-11.94-21.81-.63-.75-.94-1.3-1.58-2.01l-8.78-7.69c-16.49-12.33-43.44-15.32-63.06-4.34-9.05,5.06-15.26,10.67-21.06,19.06-5.24,7.58-10.51,20.94-10.09,30.48Z"/>
    <path class="cls-48" d="M159.61,225.59c2.07-1.05,9.26-4.47,10.53-5.75,2.22-9.81,10.24-17.17,18.15-22.28,16.78-10.84,44.26-5.82,56.02,13.26,8.57,13.9,9.18,32.81-.55,46.23-9.53,13.15-23.86,20.39-41.75,17.43-18.01-2.97-32.26-17.96-34-36.3-.43-4.58-.13-3.87-.12-7.3l-.43-1.89-8.61,4.68c-1.09,5.09,2.11,15.99,3.97,20.3,2.83,6.55,5.85,10,10.06,14.9,3.02,3.51,10.14,8.35,14.57,10.4,13.24,6.12,26.99,6.54,40.68,1.38,4.9-1.85,8.03-4.01,11.94-6.79,23.76-16.85,26.11-54.37,7.54-73.47-5.39-5.55-5.92-6.69-13.74-11.24-17.78-10.35-42.67-7.09-56.58,5-9.21,8-15,16.98-17.67,29.19-.05,.25-.18,.84-.19,1.09l.2,1.16Z"/>
    <path class="cls-17" d="M169.43,411.15l-1.27-4.91c-2.07,.77-32.65-1.8-34.46-1.92-5.29-.34-31.69-1.57-34.03-2.45l2.16-10.91,5.36-24.77,58.62,20.41,.18-4.2c-8.97-2.9-19.36-7.25-29.45-10.44-2.73-.86-3.54-1.56-5.78-2.35-3.66-1.31-8.84-2.44-12.17-4.04-3.93-1.89-5.45-1.89-8.57-3.05-1.77-.66-1.81-.33-1.62-2,.14-1.24,2.52-6.78-2.26-9.12-1.9-.93-9.08-2.22-11.64-2.78-9.4-2.04-9.2,4.6-11.2,15.19-1.37,7.24-10.13,42.57-9.12,45.75,1.22,3.86,4.32,3.94,8.77,5.05,3.22,.8,8.47,2.22,10.94,1.31,3.91-1.44,3.52-5.44,4.92-9.76,2.5,.81,6.41,.76,8.98,.93l52.82,3.56c2.34,.16,6.78,.7,8.83,.51"/>
    <path class="cls-46" d="M86.25,123.29c-13.48,1.1-37.76,9.88-43.96,21.92-1.85,3.59-1.14,7.63,1.19,9.63,8.81,7.58,32.75,2.66,43.2-1.81,3.04-1.3,6.25-2.76,8.8-4.13,2.43-1.31,6.44-4.02,7.94-5.45,4.03-3.85,11.27-11.44,4.68-16.66-5.35-4.24-14.41-4.1-21.84-3.5"/>
    <path class="cls-17" d="M67.04,229.17c-.92,1.74-1.5,2.71-2.31,4.52-4.08,6.46-3.54,14.25-3.88,22.03l1.68,8.59c2.25,4.24,1.63,5.76,6.82,12.68,15.33,20.44,48.92,22.53,66.24-.58,2.73-3.64,5.35-8.04,6.63-12.99,1.69-6.49,2.22-10.08,1.29-17.84-.06-.58-.12-1.36-.26-1.89l-.59-1.46c-1.34,.63-5.3,2.63-5.99,3.35,1.88,2.26,.35,12.4-.5,15.34-3.69,12.66-13.36,21.74-26.09,24.76-17.53,4.16-36.66-6.53-41.64-24.7-2.78-10.14-.81-20.53,3.96-28.16,3.93-6.3,10.17-11.98,18.99-14.88,17.82-5.87,37.85,4,43.75,20.75l4.49-2.39c1.05-.72,.61-.34,1.15-1.09l-.71-1.8c-1.27-1.19-1.82-3.12-2.85-4.65-3.45-5.13-2.27-3.03-4.82-5.87l-5.57-5.13c-18.39-13.3-42.56-9.41-56.81,7.33l-2.97,4.09Z"/>
    <path class="cls-4" d="M67.04,229.17c-.92,1.74-1.5,2.71-2.31,4.52-4.08,6.46-3.54,14.25-3.88,22.03l1.68,8.59c2.25,4.24,1.63,5.76,6.82,12.68,15.33,20.44,48.92,22.53,66.24-.58,2.73-3.64,5.35-8.04,6.63-12.99,1.69-6.49,2.22-10.08,1.29-17.84-.06-.58-.12-1.36-.26-1.89l-.59-1.46c-1.34,.63-5.3,2.63-5.99,3.35,1.88,2.26,.35,12.4-.5,15.34-3.69,12.66-13.36,21.74-26.09,24.76-17.53,4.16-36.66-6.53-41.64-24.7-2.78-10.14-.81-20.53,3.96-28.16,3.93-6.3,10.17-11.98,18.99-14.88,17.82-5.87,37.85,4,43.75,20.75l4.49-2.39c1.05-.72,.61-.34,1.15-1.09l-.71-1.8c-1.27-1.19-1.82-3.12-2.85-4.65-3.45-5.13-2.27-3.03-4.82-5.87l-5.57-5.13c-18.39-13.3-42.56-9.41-56.81,7.33l-2.97,4.09Z"/>
    <path class="cls-43" d="M60.85,255.71c.34-7.78-.2-15.56,3.88-22.03l-17.28-.12-9.08,10.67c-.71,.76-.75,1.03-1.36,1.78-.73,.9-.54,.5-1.32,1.34-.71,.76-.74,1.03-1.36,1.78l-2.68,3.12c-.78,.96-.51,.47-1.32,1.33l-18.74,21.83c-.71,.76-.75,1.03-1.36,1.78l-5.24,6.15c2.52-.14,6.81-1.06,9.43-1.51,6.02-1.04,4.15-.4,7.17-4.42,1.53-2.03,3.28-4.61,4.76-6.83,1.7-2.56,3.08-4.24,4.77-6.82,1.45-2.21,3.25-4.8,4.76-6.83l13.6-19.42c.52-.6,.54-.58,.97-.97l-26.52,46.68c2.48-.48,13.48-3.75,14.5-5.45,.81-1.35,2.2-5.14,2.93-6.88l8.96-21.36c1.8-4.36,4.74-10.38,6.06-14.13l-15.9,47.93,16.7-4.62,3.67-23.01Z"/>
    <path class="cls-44" d="M169.43,49.72c1.15,3.43,1.62,13.14,2.03,17.14,.61,5.93,1.32,11.74,1.82,17.42,1.02,11.47,2.07,23.64,3.71,35.09l15.55,2.89c-.86-3.34-1.14-57.89-1.37-67.51l-.07-7.16c-.16-2.43,.74-1.04-.77-2.02l-20.88,4.14Z"/>
    <path class="cls-48" d="M101.83,390.96c1.65,.72,13.64,2.52,16.35,3l49.17,9.1c-.08-2.54-.7-5.33-.98-8.1-.26-2.5-.18-6.05-.55-8.36l-58.62-20.41-5.36,24.77Z"/>
    <path class="cls-36" d="M435.52,233.51l32.26-.03c.74-.99,1.01-2.18,1.97-3.65,4.01-6.12,7.84-10.24,14.5-14.04,1.18-.68,2.45-1.42,3.78-2.03l3.89-1.73h-80.56c.5,.37-.08,.06,1,.56,.56,.26,.51,.21,1,.4,8.04,3.07,15.81,9.56,20.19,16.79,.8,1.32,1.15,2.38,1.97,3.74"/>
    <path class="cls-40" d="M176.99,119.38c-1.64-11.45-2.69-23.63-3.71-35.09-.5-5.68-1.21-11.49-1.82-17.42-.41-4-.88-13.71-2.03-17.14-3.98,1.65-11.23,2.52-14.8,4.59l6.8,62.29,15.56,2.77Z"/>
    <path class="cls-33" d="M176.72,216.53c.12,1.3,.3,2.38,.88,3.5,.32,.61,.55,.8,.88,1.33,.88,1.42,.37,0,.68,1.4,3.42,.71,4.51,3.67,13.74,2.14,8.73-1.44,13.35-4.94,18.59-9.91,1.53-1.45,.84-.81,1.99-2.43,2.17-3.08,5.29-6.5,2.66-11.96-1.09-2.27-1.36-3.04-3.79-4.21-9.19-4.43-24.14,2.18-30.24,8.84-2.17,2.37-5.34,6.36-5.39,11.31"/>
    <path class="cls-17" d="M345.96,214.49l33.35,.03c1-.4,1.7-.74,2.68-1.14,1.52-.61,1.77-.48,2.74-1.46-6.49-.49-22.56-.08-30.74-.08-2.53,0-7.11,.95-8.41-1.57-.75-1.46-.38-7.69-.38-9.73,0-3.8-.8-6.63,3-7.13,3.79-.5,165.36-.07,183.23-.07,6.78,0,13.79-.18,20.54-.02,4.28,.1,4.48,1.89,4.45,5.87-.01,2.25,.27,8.39-.13,10.19-.71,3.14-4.34,2.47-7.47,2.46-7.79-.01-24.22-.39-30.25,.08,1.14,1.16,3.74,1.9,5.42,2.57l31.51-.02,1.99-1.7c.75-.73,1.16-1.42,1.42-2.59l-.02-15.27c-.72-2.74-2.81-3.23-3.83-4.31l-208.65-.02c-2.89,3.17-4.01-.21-4.01,11.73,0,9.96-.58,7.71,3.57,12.16"/>
    <path class="cls-17" d="M62.53,264.3l-1.68-8.59-3.67,23.01-16.7,4.62,15.9-47.93c-1.32,3.75-4.26,9.77-6.06,14.13l-8.96,21.36c-.73,1.75-2.12,5.53-2.93,6.88-1.02,1.7-12.03,4.98-14.5,5.45l26.52-46.68c-.44,.39-.45,.37-.97,.97l-13.6,19.42c-1.51,2.03-3.31,4.62-4.76,6.83-1.69,2.58-3.07,4.26-4.77,6.82-1.48,2.22-3.23,4.8-4.76,6.83-3.02,4.02-1.16,3.38-7.17,4.42-2.62,.45-6.91,1.37-9.43,1.51l5.24-6.15c.6-.75,.65-1.02,1.36-1.78l18.74-21.83c.81-.86,.55-.37,1.32-1.33l2.68-3.12c.61-.75,.65-1.02,1.36-1.78,.78-.84,.59-.44,1.32-1.34,.61-.75,.65-1.02,1.36-1.78l9.08-10.67-5.08-.05c-.42,1.59-1.43,2.13-2.42,3.4-7.43,9.47-16.53,19.75-23.88,29.18l-8.02,9.81c-1.44,1.85-7.52,8.34-8.03,10.25H52.16c1.68,0,3.8,.13,5.41,.06,2.66-.12,2.06-.48,2.39-2.96,.85-6.48,1.95-12.52,2.57-18.94"/>
    <path class="cls-36" d="M333.92,233.35l26.81,.15c4.17-6.81,5.96-10.45,12.65-15.35,1.84-1.35,3.74-2.13,5.93-3.63l-33.35-.03c-5.52-.61-13.84-1.38-16.43,4.4-2.3,5.15-1.57,11.09,4.39,14.46"/>
    <path class="cls-43" d="M503.16,236.74c-19.25,1.92-16.13,33.3,4.56,29.69,18.79-3.28,15.46-31.69-4.56-29.69"/>
    <path class="cls-43" d="M396.15,236.73c-13.19,1.27-17.31,18.78-7.66,26.52,2.83,2.27,7.11,3.96,11.83,3.24,19.03-2.91,16.02-31.7-4.17-29.76"/>
    <path class="cls-45" d="M101.91,374.72l-.07-1.2-16.15-3.79c-1.36,6.57-2.79,13.2-4.25,19.76-.92,4.16-4.53,17.05-3.36,19.9,1.92,1.4,13.11,3.8,15.09,2.89,1.96-1.98,7.12-32.04,8.74-37.57"/>
    <path class="cls-43" d="M285.79,233.54c-.52,2.66-.52,9.38,.04,12.04,2.65,5.86,7.79,4.9,15.99,4.9,4.31,0,10.83,.85,14.3-1.75,1.68-1.26,1.15-1.48,2.33-3.15,.36-3.74,.5-8.53-.07-12.04-.75-2.51-3.13-4.33-5.51-4.8h-21.2c-3.56,.58-4.47,2.03-5.87,4.8"/>
    <path class="cls-36" d="M542.57,233.53l15.16-.04c6.35,.24,12.33,.09,12.93-8.06v-2.87c-.58-8.38-7.99-8.83-15.16-8.07l-31.51,.02c3.06,2.1,6.26,3.45,8.55,5.88,4.84,5.16,5.97,5.02,10.03,13.15"/>
    <path class="cls-42" d="M170.14,219.84c-1.27,1.29-8.46,4.7-10.53,5.75l-9.57,5.07c-3.92,1.49-3.75,3.16-9.99,2.73l.71,1.8c-.54,.75-.1,.37-1.15,1.09l-4.49,2.39c-2.55,1.14-6.44,3.42-9.2,4.87-2.95,1.55-6.09,3.62-9.08,4.76l-7.78,4.44c2.01,1.55,4.2,1.26,2.7,5.72l4.61-2.24,20.3-10.66c.7-.72,4.66-2.72,5.99-3.35l.59,1.46c.14,.53,.2,1.31,.26,1.89h7.4l-1-7.12,8.92-4.79,8.61-4.68c1.76-1.04,4.01-2.1,5.92-3.07,2.05-1.04,3.77-2.26,5.78-3.16-.31-1.4,.21,.02-.68-1.4-.33-.53-.56-.72-.88-1.33-.58-1.12-.76-2.2-.88-3.5l-6.58,3.32Z"/>
    <path class="cls-43" d="M116.37,256.23l-4.61,2.24c-1.35,2.37-3.61,4.61-6.29,5.65-4.21,1.64-6.03,1.43-9.14-.98-.88-5.55,2.79-6.89,5.82-9.09-3.06-.51-4.54-5.55,1.72-5.26,.31,1.02,1.23,1.71,.86,3.36-.24,1.07,.1,.52-.61,1l4.94-.41,7.78-4.44c-2.52-16.51-28.55-15.84-29.53,2.16-.45,8.24,4.84,14.07,11.74,15.56,7.49,1.62,16.1-3.13,17.31-9.8"/>
    <path class="cls-39" d="M168.16,406.24l-.81-3.18-49.17-9.1c-2.71-.48-14.7-2.28-16.35-3l-2.16,10.91c2.33,.89,28.73,2.11,34.03,2.45,1.81,.12,32.4,2.69,34.46,1.92"/>
    <path class="cls-33" d="M318.45,245.58h38.53c.86-5.01,1.86-7.72,3.75-12.07l-26.81-.15-15.54,.19c.58,3.51,.43,8.3,.07,12.04"/>
    <path class="cls-48" d="M388.76,143.32l19.01-.14c-.34-6.3,1.37-17.84-2.19-20.57-1.72-1.32-4.84-1.03-7.02-1.03-12.04,0-9.81,3.83-9.81,21.73"/>
    <path class="cls-48" d="M494.87,143.33l19.04-.04c-.94-17.96,3.1-21.7-9.68-21.7-5.42,0-9.02,.59-9.36,6.26-.29,4.79,0,10.58,0,15.48"/>
    <path class="cls-33" d="M439.58,245.37l24.45,.2c.92-5.36,1.9-7.48,3.74-12.1l-32.26,.03c.73,1.63,4,11.78,4.06,11.87"/>
    <path class="cls-48" d="M85.69,369.73l16.15,3.79,.07,1.2c.93-4.75,4.03-16.22,4-19.61-2.84-1.26-13.21-4.31-15.8-3.31-1.45,1.4-4.08,14.96-4.42,17.93"/>
    <path class="cls-17" d="M491.3,143.31l3.57,.02c0-4.9-.28-10.69,0-15.48,.34-5.67,3.94-6.26,9.36-6.26,12.78,0,8.74,3.74,9.68,21.7l3.7-.05c0-5.72,.39-12.95,0-18.48-.45-6.33-6.39-5.35-12.93-5.35-15.91,0-13.38-.69-13.38,23.9"/>
    <path class="cls-17" d="M385.19,143.31l3.57,.02c0-17.9-2.23-21.73,9.81-21.73,2.17,0,5.29-.29,7.02,1.03,3.56,2.73,1.85,14.27,2.19,20.57l3.72,.06c0-5.98,.28-12.63,.02-18.52-.3-7.03-8.73-5.33-12.95-5.33-16.05,0-13.38-.38-13.38,23.9"/>
    <path class="cls-33" d="M267.66,245.58h18.17c-.55-2.66-.56-9.37-.04-12.04h-17.02l-1.11,12.04Z"/>
    <path class="cls-42" d="M206.53,226.25c-4.99,1.41-5.53,6.59-4.58,9.95,.68,2.42,1.36,3.42,3.34,4.26,14.4,6.13,16.45-18.52,1.23-14.21"/>
    <path class="cls-33" d="M546.58,245.3c2.21,.53,4.79,.26,7.14,.28,3.09,.03,4.08,.33,5.45-1.68,1.55-2.27,1.63-7.29-.73-9.76l-.72-.65-15.16,.04c1.06,2.05,3.89,11.6,4.01,11.77"/>
    <path class="cls-33" d="M111.76,258.47c1.5-4.46-.69-4.16-2.7-5.72l-4.94,.41c.72-.48,.37,.07,.61-1,.37-1.65-.55-2.34-.86-3.36-6.26-.29-4.79,4.75-1.72,5.26-3.04,2.21-6.71,3.54-5.82,9.09,3.11,2.41,4.93,2.62,9.14,.98,2.68-1.04,4.94-3.28,6.29-5.65"/>
    <path class="cls-17" d="M652.06,317.39l171.39,117.42c6.3,.62,5.43-.03,10.93-8.06,7.55-11.02,5.66-9.64-13.2-22.55-3.8-2.6-11.1-8.22-14.83-9.91l-3.08-2.04-15.73-10.73-2.93-2.03c-1.8-1.99-62.47-43.67-65.8-45.15l-3.03-2.16-15.76-10.63-2.94-2.03c-3.3-3.62-23.71-16.64-29.28-20.41-2.62-1.78-4.52-2.15-6.64-1.21-2.58,1.14-9.49,11.84-10.1,13.35-1.06,2.65-.09,4.05,1,6.15"/>
    <path class="cls-37" d="M663.82,299.96c-3.38-.44-6.64,6.67-8.59,9.48-3.97,5.72-1.26,6.23,3.76,9.66,24.9,17.02,164.46,113.35,166.57,113.54,2.72,.25,6.48-6.83,8.32-9.5,3.99-5.77,1.99-5.8-3.48-9.54-24.96-17.05-164.63-113.39-166.59-113.64"/>
    <path class="cls-48" d="M700.01,321.54l15.76,10.63c3.29-5.39,11.21-13.95,9.82-18.21-.68-2.06-3.42-3.58-5.21-4.81-9.93-6.81-10.25-2.38-20.37,12.39"/>
    <path class="cls-48" d="M787.55,381.51l15.73,10.73c9.37-15.35,14.82-16.15,4.28-23.38-4.47-3.06-7.77-4.62-11.26-.13-2.94,3.79-5.98,8.73-8.75,12.77"/>
    <path class="cls-17" d="M784.61,379.48l2.93,2.03c2.77-4.04,5.81-8.98,8.75-12.77,3.49-4.49,6.79-2.94,11.26,.13,10.54,7.23,5.09,8.03-4.28,23.38l3.08,2.04c3.23-4.72,7.64-10.46,10.44-15.25,3.2-5.48-2.24-8.02-7.64-11.72-13.12-8.99-10.64-8.13-24.54,12.16"/>
    <path class="cls-17" d="M697.08,319.51l2.94,2.03c10.12-14.77,10.44-19.19,20.37-12.39,1.79,1.23,4.53,2.75,5.21,4.81,1.4,4.26-6.53,12.82-9.82,18.21l3.03,2.16c3.38-4.93,7.37-10.26,10.49-15.26,3.72-5.97-4.19-9.33-7.68-11.71-13.24-9.07-10.82-7.88-24.54,12.16"/>
    <path class="cls-16" d="M642.2,178.85h79.6c2.79,0,5.05,2.26,5.05,5.05v11.69c0,2.79-2.26,5.05-5.05,5.05h-79.6c-2.79,0-5.05-2.26-5.05-5.05v-11.69c0-2.79,2.26-5.05,5.05-5.05Z"/>
    <path class="cls-17" d="M505.81,359.63l76.51-21.95c2.67-.77,5.48,.79,6.25,3.46l3.22,11.24c.77,2.67-.79,5.48-3.46,6.25l-76.51,21.95c-2.67,.77-5.48-.79-6.25-3.46l-3.22-11.24c-.77-2.67,.79-5.48,3.46-6.25Z"/>
    <path class="cls-16" d="M641.15,272.46h79.6c2.79,0,5.05,2.26,5.05,5.05v11.69c0,2.79-2.26,5.05-5.05,5.05h-79.6c-2.79,0-5.05-2.26-5.05-5.05v-11.69c0-2.79,2.26-5.05,5.05-5.05Z"/>
    <path class="cls-16" d="M768.76,271.48h79.6c2.79,0,5.05,2.26,5.05,5.05v11.69c0,2.79-2.26,5.05-5.05,5.05h-79.6c-2.79,0-5.05-2.26-5.05-5.05v-11.69c0-2.79,2.26-5.05,5.05-5.05Z"/>
    <path class="cls-14" d="M752.75,314.98h209.96c4.52,0,8.19,3.67,8.19,8.19v7.91c0,4.52-3.67,8.2-8.2,8.2h-209.96c-4.52,0-8.2-3.67-8.2-8.2v-7.91c0-4.52,3.67-8.2,8.2-8.2Z"/>
    <path class="cls-11" d="M861.61,290.68h209.96c4.52,0,8.2,3.67,8.2,8.2v7.91c0,4.52-3.67,8.2-8.2,8.2h-209.96c-4.52,0-8.2-3.67-8.2-8.2v-7.91c0-4.52,3.67-8.2,8.2-8.2Z"/>
    <path class="cls-17" d="M39.49,136.6c-.14,.56-4.38,22.06,.29,15.72,1.91-2.6,10.83-12.85,14.28-14.83,.39-2.45,4.07,3.79,13.65,3.79,22.97,0,4.63,.1-5.22-9.72,.29-2.47,11.37-1.31,16.95-12.07,3.86-7.44-28.11,5.95-30.72,7.09-4.5,1.96-7.78,4.37-9.23,10.03Z"/>
    <path class="cls-17" d="M209.18,75.57c-2.83-.86,2.52-9.12,3.92-12.11,4.51-9.63,4.58-18.93,4.58,1.97,0,1.33-.57,17.56,.42,17.59,.4,0,36.02-12.74,18.25-2.18-5.32,3.16-15.81,13.2-18.42,14.51-.01,.17,5.57,3.72,7,5,1.08,.96,13.61,15.53,13.61,15.86-3.64-1.81-9.82-3.02-16.31-6.28-19.62-9.87-15.71-2.2-37.36-.93-7.47,.44-17.84,3.85-4.16-3.92,2.5-1.42,20.37-8.53,19.64-9.48-.04-.05-11.36-8.48-13.72-10.78-11.42-11.13-10.42-8.01,4.38-5.96,15.66,2.17,15.94,7.34,13.61-.19-.02-.08-2.4-15.8-1.47-12.8,.39,1.28,4.67,9.29,6.05,9.7Z"/>
    <path class="cls-16" d="M806.02,184.02h11.8c.58,0,1.05,.47,1.05,1.05v4.5c0,.58-.47,1.05-1.05,1.05h-11.79c-.58,0-1.05-.47-1.05-1.05v-4.5c0-.58,.47-1.05,1.05-1.05Z"/>
    <path class="cls-44" d="M253.02,388.02c-2.83,.71,2.52,7.59,3.92,10.08,4.51,8.02,4.58,15.76,4.58-1.64,0-1.11-.57-14.62,.42-14.64,.4,0,36.02,10.61,18.25,1.81-5.32-2.63-15.81-10.99-18.42-12.08,0-.14,5.57-3.1,7-4.16,1.08-.8,13.6-12.93,13.6-13.21-3.64,1.51-9.82,2.51-16.3,5.23-19.62,8.22-15.71,1.83-37.36,.77-7.47-.36-17.84-3.2-4.16,3.27,2.5,1.18,20.37,7.1,19.64,7.89-.04,.04-11.36,7.06-13.72,8.97-11.42,9.26-10.42,6.67,4.37,4.96,15.66-1.81,15.94-6.11,13.62,.15-.02,.06-2.4,13.16-1.48,10.65,.39-1.06,4.67-7.73,6.05-8.08Z"/>
    <g class="cls-1">
      <rect class="cls-3" x="828.95" y="374.43" width="145.97" height="60.41"/>
    </g>
    <path class="cls-41" d="M890.1,384.57c5.17,.95,7.91,9.62,6.12,19.37-1.79,9.75-7.43,16.88-12.61,15.93l-54.69-10.04,6.48-35.3,54.69,10.04Z"/>
    <g class="cls-24">
      <rect class="cls-2" x="828.93" y="374.53" width="57.7" height="44.16"/>
    </g>
    <g class="cls-27">
      <rect class="cls-31" x="821.02" y="373.58" width="22.31" height="37.2"/>
    </g>
    <path class="cls-47" d="M828.46,391.5c.71-3.87,2.95-6.69,5-6.32,2.05,.38,3.14,3.81,2.43,7.68-.71,3.87-2.95,6.69-5,6.32-2.05-.38-3.14-3.82-2.43-7.68Z"/>
    <path class="cls-38" d="M827.09,391.25c.45-2.43,4.15-3.79,5.44-3.55,1.29,.24,1.97,2.4,1.53,4.83-.45,2.43-1.85,4.21-3.14,3.97-1.29-.24-4.27-2.82-3.82-5.25Z"/>
    <text class="cls-22" transform="translate(906.94 404.78) rotate(10.4)"><tspan x="0" y="0">Battery</tspan></text>
    <g class="cls-26">
      <rect class="cls-29" x="962.23" y="206.36" width="101.25" height="55.49"/>
    </g>
    <path class="cls-41" d="M999.07,225.46c3.48-1.2,8.14,3.15,10.4,9.71,2.26,6.56,1.27,12.86-2.21,14.06l-36.82,12.68-8.19-23.77,36.82-12.68Z"/>
    <g class="cls-25">
      <rect class="cls-32" x="962.25" y="226.96" width="41.81" height="34.96"/>
    </g>
    <g class="cls-28">
      <rect class="cls-30" x="957.78" y="236.95" width="17.13" height="26.17"/>
    </g>
    <path class="cls-47" d="M963.85,250.89c-.9-2.6-.5-5.1,.88-5.57,1.38-.48,3.23,1.25,4.12,3.85,.9,2.6,.5,5.1-.88,5.57-1.38,.48-3.23-1.25-4.12-3.85Z"/>
    <path class="cls-38" d="M962.92,251.21c-.56-1.64,1.23-3.74,2.1-4.04,.87-.3,2.03,.79,2.59,2.42,.56,1.64,.32,3.2-.55,3.5-.87,.3-3.58-.25-4.14-1.89Z"/>
    <text class="cls-21" transform="translate(1016.31 232.09) rotate(-19.01)"><tspan x="0" y="0">Battery</tspan></text>
  </g>
</svg>