<?xml version="1.0" encoding="UTF-8"?>
<svg id="Vrstva_1" data-name="Vrstva 1" xmlns="http://www.w3.org/2000/svg" viewBox="0 0 516.93 942.23">
  <defs>
    <style>
      .cls-1, .cls-2 {
        fill: #e6e6e6;
      }

      .cls-3, .cls-4 {
        fill: #fff;
      }

      .cls-5 {
        fill: red;
      }

      .cls-6 {
        fill: #131313;
      }

      .cls-4, .cls-2 {
        fill-rule: evenodd;
      }
    </style>
  </defs>
  <g id="bojler">
    <rect class="cls-3" x="184.34" y="835.03" width="152.87" height="107.2"/>
    <path class="cls-4" d="M469.57,44.42h0c27.43,9.08,47.36,35.01,47.36,65.38V766.2c0,31.17-21,57.68-49.56,66.06l2.2,.83c-140.73,59.04-280.91,59.22-420.55,.53l2.28-.88C21.86,824.95,0,798.01,0,766.2V109.8c0-30.99,20.75-57.35,49.03-65.91h0c139.64-58.69,279.82-58.52,420.55,.53Z"/>
    <path class="cls-2" d="M134,49.53l-76.28,23.07c-16.32,4.94-27.72,20.23-27.72,37.19V766.2c0,17.59,11.92,33.03,28.99,37.55l75.01,19.87V49.53Z"/>
    <g>
      <circle class="cls-1" cx="257.93" cy="184.78" r="69.93"/>
      <rect class="cls-6" x="206.19" y="146.64" width="103.96" height="76.25" rx="9.33" ry="9.33"/>
      <g>
        <path class="cls-5" d="M237.46,189.27c0,.84-.44,1.33-1.33,1.33h-.53c-.84,0-1.33,.44-1.33,1.33v7.98c0,.84-.44,1.33-1.33,1.33h-4.97c-.84,0-1.33-.49-1.33-1.33v-7.98c0-.89-.44-1.33-1.33-1.33h-11.22c-.84,0-1.33-.49-1.33-1.33v-6.21s.13-.4,.27-.89l3.81-7.58c.35-.71,.71-1.06,1.51-1.06h4.88c.98,0,1.55,.62,1.11,1.51l-3.72,7.45c-.09,.31,0,.49,.35,.49h4.35c.89,0,1.33-.49,1.33-1.33v-11c0-.89,.49-1.33,1.33-1.33h4.97c.89,0,1.33,.44,1.33,1.33v11c0,.84,.49,1.33,1.33,1.33h.53c.89,0,1.33,.44,1.33,1.33v4.97Z"/>
        <path class="cls-5" d="M251.82,202.04c-10.51,0-11.13-10.51-11.13-16.32s.35-16.32,11.13-16.32,11.13,10.51,11.13,16.32-.62,16.32-11.13,16.32Zm-3.5-16.32c0,4.48,.04,8.69,3.5,8.69,3.28,0,3.5-4.21,3.5-8.69s-.04-8.69-3.5-8.69c-3.28,0-3.5,4.21-3.5,8.69Z"/>
        <path class="cls-5" d="M265.57,172.78c0-3.28,2.71-5.94,5.94-5.94s5.94,2.66,5.94,5.94-2.66,5.94-5.94,5.94-5.94-2.7-5.94-5.94Zm8.03,0c0-1.11-.98-2.08-2.08-2.08s-2.08,.98-2.08,2.08,.98,2.08,2.08,2.08,2.08-.98,2.08-2.08Z"/>
        <path class="cls-5" d="M279.66,180.18c0-2.93,.62-10.77,11.13-10.77,9.45,0,10.91,6.34,11.09,9.75,.04,.62-.35,1.11-.98,1.24l-4.92,1.11c-.93,.18-1.64-.44-1.77-1.37-.22-1.95-1.02-3.1-3.42-3.1-3.28,0-3.5,2.08-3.5,5.5v6.39c0,3.41,.22,5.5,3.5,5.5,2.44,0,3.1-1.15,3.37-3.19,.13-.93,.84-1.51,1.73-1.29l5.01,1.11c.62,.13,1.02,.62,.98,1.29-.18,3.37-1.64,9.71-11.09,9.71-10.51,0-11.13-7.85-11.13-10.78v-11.09Z"/>
      </g>
    </g>
  </g>
</svg>