<?xml version="1.0" encoding="UTF-8"?>
<svg id="Vrstva_1" data-name="Vrstva 1" xmlns="http://www.w3.org/2000/svg" xmlns:xlink="http://www.w3.org/1999/xlink" viewBox="0 0 854.4 1470.93">
  <defs>
    <style>
      .cls-1, .cls-2, .cls-3, .cls-4, .cls-5, .cls-6, .cls-7, .cls-8 {
        fill: none;
      }

      .cls-2 {
        stroke: #447dc7;
        stroke-width: 123.26px;
      }

      .cls-2, .cls-3, .cls-4, .cls-5, .cls-6, .cls-7, .cls-8 {
        stroke-miterlimit: 10;
      }

      .cls-2, .cls-5, .cls-6, .cls-7 {
        stroke-linecap: round;
      }

      .cls-9 {
        clip-path: url(#clippath);
      }

      .cls-10 {
        fill: #00548f;
      }

      .cls-11 {
        fill: #e6e6e6;
      }

      .cls-12, .cls-13, .cls-14 {
        fill: #fff;
      }

      .cls-15 {
        fill: #fd821d;
      }

      .cls-16 {
        fill: #fcbc7f;
      }

      .cls-17 {
        fill: #ff5a19;
      }

      .cls-18 {
        fill: #437dc1;
      }

      .cls-19 {
        fill: #9ac4fd;
      }

      .cls-20, .cls-21 {
        fill: #4e90ef;
      }

      .cls-3, .cls-4 {
        stroke-width: 3.21px;
      }

      .cls-3, .cls-8 {
        stroke: #00548f;
      }

      .cls-4 {
        stroke: #4e90ef;
      }

      .cls-5 {
        stroke-width: 4.77px;
      }

      .cls-5, .cls-6 {
        stroke: #e09f6e;
      }

      .cls-13 {
        fill-rule: evenodd;
      }

      .cls-13, .cls-14 {
        opacity: .46;
      }

      .cls-6 {
        stroke-width: 6.41px;
      }

      .cls-7 {
        stroke: #fd7ba6;
        stroke-width: 9.62px;
      }

      .cls-8 {
        stroke-width: 160.3px;
      }

      .cls-21 {
        opacity: .3;
      }
    </style>
    <clipPath id="clippath">
      <rect class="cls-1" x="121.39" y="475.9" width="530.49" height="549.05" rx="202.7" ry="202.7"/>
    </clipPath>
  </defs>
  <g>
    <g>
      <line class="cls-8" x1="480.62" y1="1024.96" x2="480.62" y2="1377.5"/>
      <g>
        <path class="cls-10" d="M416.04,1377.5h130.15v93.43h-91.3c-21.44,0-38.85-17.41-38.85-38.85v-54.58h0Z"/>
        <path class="cls-10" d="M546.18,1414.63h5.26c31.07,0,56.3,25.23,56.3,56.3h-61.56v-56.3h0Z"/>
      </g>
    </g>
    <g>
      <line class="cls-8" x1="287.56" y1="1024.96" x2="287.56" y2="1377.5"/>
      <g>
        <path class="cls-10" d="M260.85,1377.5h91.3v93.43H222v-54.58c0-21.44,17.41-38.85,38.85-38.85Z" transform="translate(574.15 2848.43) rotate(-180)"/>
        <path class="cls-10" d="M160.44,1414.63h61.56c0,31.07-25.23,56.3-56.3,56.3h-5.26v-56.3h0Z" transform="translate(382.44 2885.56) rotate(-180)"/>
      </g>
    </g>
    <path class="cls-10" d="M191.22,962.41h380.19c0,94.65-76.84,171.5-171.5,171.5h-37.2c-94.65,0-171.5-76.84-171.5-171.5h0Z"/>
    <g>
      <rect class="cls-16" x="278.02" y="292.94" width="216.86" height="216.09"/>
      <rect class="cls-21" x="278.02" y="304.81" width="216.86" height="203.78"/>
    </g>
    <path class="cls-5" d="M409.18,547.38c-12.55-12.55-32.9-12.55-45.46,0"/>
    <path class="cls-19" d="M503.16,700.08h68.26v34.13c0,18.84-15.29,34.13-34.13,34.13h0c-18.84,0-34.13-15.29-34.13-34.13v-34.13h0Z"/>
    <rect class="cls-18" x="121.75" y="475.9" width="530.49" height="549.05" rx="202.7" ry="202.7"/>
    <g class="cls-9">
      <g>
        <g>
          <line class="cls-4" x1="427.88" y1="422.45" x2="56.76" y2="793.57"/>
          <line class="cls-4" x1="475.98" y1="469.92" x2="104.86" y2="841.04"/>
          <line class="cls-4" x1="524.09" y1="517.4" x2="152.97" y2="888.52"/>
          <line class="cls-4" x1="572.2" y1="564.87" x2="201.08" y2="935.99"/>
          <line class="cls-4" x1="620.3" y1="612.34" x2="249.18" y2="983.46"/>
          <line class="cls-4" x1="668.41" y1="659.82" x2="297.29" y2="1030.94"/>
          <line class="cls-4" x1="716.52" y1="707.29" x2="345.4" y2="1078.41"/>
        </g>
        <g>
          <line class="cls-4" x1="345.4" y1="422.45" x2="716.52" y2="793.57"/>
          <line class="cls-4" x1="297.29" y1="469.92" x2="668.41" y2="841.04"/>
          <line class="cls-4" x1="249.18" y1="517.4" x2="620.3" y2="888.52"/>
          <line class="cls-4" x1="201.08" y1="564.87" x2="572.2" y2="935.99"/>
          <line class="cls-4" x1="152.97" y1="612.34" x2="524.09" y2="983.46"/>
          <line class="cls-4" x1="104.86" y1="659.82" x2="475.98" y2="1030.94"/>
          <line class="cls-4" x1="56.76" y1="707.29" x2="427.88" y2="1078.41"/>
        </g>
      </g>
    </g>
    <g>
      <line class="cls-6" x1="407.09" y1="278.32" x2="449.35" y2="278.32"/>
      <line class="cls-6" x1="314.01" y1="278.32" x2="356.26" y2="278.32"/>
    </g>
    <polygon class="cls-20" points="284.37 611.69 378.07 888.92 463.11 610 284.37 611.69"/>
    <g>
      <path class="cls-2" d="M87.39,1015.16c-103-194.29,136.15-419.42,136.15-419.42"/>
      <g>
        <rect class="cls-16" x="95.95" y="992.82" width="149.58" height="46.03" rx="23.01" ry="23.01" transform="translate(129.89 2045.11) rotate(-168.19)"/>
        <rect class="cls-16" x="32.75" y="996.2" width="169.5" height="130.28" rx="60.39" ry="60.39" transform="translate(-706.42 1740.62) rotate(-123.19)"/>
      </g>
    </g>
    <path class="cls-2" d="M681.38,1010.47c103-194.29-136.15-419.42-136.15-419.42"/>
    <g>
      <path class="cls-11" d="M310.88,226.5h138.55c56.64,0,102.63,45.99,102.63,102.63v149.12c0,47.34-38.43,85.77-85.77,85.77H208.25v-234.89c0-56.64,45.99-102.63,102.63-102.63Z"/>
      <g>
        <circle class="cls-16" cx="518.17" cy="376.67" r="25.83"/>
        <circle class="cls-16" cx="242.05" cy="376.67" r="25.83"/>
      </g>
      <rect class="cls-16" x="242.94" y="203.34" width="274.34" height="431.11" rx="137.17" ry="137.17"/>
      <circle class="cls-10" cx="396.77" cy="395.46" r="11.31"/>
      <circle class="cls-10" cx="333.44" cy="395.46" r="11.31"/>
      <path class="cls-11" d="M298.13,466.99h130.9c58.76,0,106.46,47.7,106.46,106.46v14.41c0,50.44-40.95,91.4-91.4,91.4h-161.02c-50.44,0-91.4-40.95-91.4-91.4v-14.41c0-58.76,47.7-106.46,106.46-106.46Z"/>
      <path class="cls-7" d="M309.51,537.75c31.92,32.08,83.81,32.21,115.89,.28"/>
      <circle class="cls-16" cx="371.27" cy="475.01" r="40.08"/>
      <circle class="cls-3" cx="429.17" cy="379.7" r="56.12"/>
      <circle class="cls-3" cx="315.15" cy="379.7" r="56.12"/>
      <path class="cls-11" d="M480.28,244.52s-18.43-10.53-52.65-13.16c-23.64-1.82-80.02,1.29-80.02,1.29-38.78,0-70.22-31.44-70.22-70.22h0s144.97-10.05,144.97-10.05c38.78,0,78.98,34.23,58.37,80.27l-.45,11.88Z"/>
    </g>
    <g>
      <rect class="cls-16" x="523.24" y="988.14" width="149.58" height="46.03" rx="23.01" ry="23.01" transform="translate(-194.34 143.85) rotate(-11.81)"/>
      <rect class="cls-16" x="566.52" y="991.52" width="169.5" height="130.28" rx="60.39" ry="60.39" transform="translate(-589.52 1023.33) rotate(-56.81)"/>
    </g>
  </g>
  <g>
    <rect class="cls-12" x="440.88" y="528.62" width="17.84" height="100.38" transform="translate(-274.85 468.27) rotate(-43.48)"/>
    <polygon class="cls-17" points="477.86 621.37 470.32 613.43 483.26 601.16 490.81 609.1 477.86 621.37"/>
    <rect class="cls-15" x="418.97" y="537.36" width="17.84" height="36.69" transform="translate(-264.97 446.87) rotate(-43.48)"/>
    <rect class="cls-14" x="414.2" y="549.57" width="10.35" height="2.96" rx="1" ry="1" transform="translate(3.58 1104.81) rotate(-105.83)"/>
    <path class="cls-14" d="M424.18,547.44c-.25,.78,.19,1.61,.96,1.86,.78,.25,1.61-.19,1.86-.96l1.55-4.9-2.33-2.45-2.04,6.46Z"/>
    <rect class="cls-14" x="426.17" y="553.86" width="10.35" height="2.96" rx="1" ry="1" transform="translate(-223.32 298.69) rotate(-30.76)"/>
    <path class="cls-14" d="M440.04,561.89c-.45,.68-.27,1.6,.41,2.05,.68,.45,1.6,.27,2.05-.41l2.1-3.15-2.09-2.2-2.48,3.72Z"/>
    <path class="cls-14" d="M423.08,539.84c-.13-.8-.9-1.35-1.7-1.22l-2.59,.43-3.83,3.63,6.91-1.15c.8-.13,1.35-.9,1.22-1.7Z"/>
    <path class="cls-14" d="M432.04,565.13l-6.94,.59,2.61,2.75,4.59-.39c.81-.07,1.42-.79,1.35-1.6-.07-.81-.79-1.42-1.6-1.35Z"/>
  </g>
  <path class="cls-13" d="M668.74,190.86l-4.9-2.18c-.47-.27-1.76-.91-2.33-1.26l-10.53-7.82c-14.14-9.47-45.46-18.25-66.08-9.24-3.91,10.25-5.02,7.96-2.4,20.08,14.6,7.73,53.31,1.64,41.27,34.16-6.85,18.48-42.15,28.65-65.28,29.36-40.97,1.27-113.99-32.01-125.44-6.18-21.97,49.57,138.12,27.87,203.55-2.04,75.06-34.31,153.97-69.54,202.16-7.14,27.26,35.29,14.51,74.37-5.13,96.39-29.66,33.26-65.08,18.1-105.78,26.73-65.17,13.83-58.74,70.39-152.32,38.78-18.19-6.14-26.16-12.58-41.88-6.32-24.35,9.71,5.2,28.55,1.67,43.07-33.54,46.3-72.94,24.22,3.19,68.89,85.94,50.42-65.71,53.09-34.96,83.05l-8.94,15.43c-52.21-84.58,41.23-12.25,42-73.83-18.18-26.67-66.79-37.25-68.94-55.39-3.27-27.58,30.27-28.06,42.45-44.89-8.65-15.86-17.39-7.58-20.42-28.61-5-34.76,37.53-38.79,65.61-44.04,24.76-4.63,21.88,2.16,39.6,7.1,23.36-.41,42.8-52.47,75.81-38.32l7.82,4.08c32.12-15.81,84.7-21.18,68.67-57.2-35.11,.91-117.59,55-181.8,63.22-66.9,8.56-127.4,5.18-164.41-26.67-54.89-47.26-19.5-120.5,51.19-121.68,67.46-1.12,66.66,63.88,156.27,32.86l-6.62-1.64c-18.99-1.29-41.3,10.24-58.64-.13-17.35-10.37-16.55-39.2-9.33-55.73,24.8-56.77,80.11-4.1,103.17-41.41-2.32-21.39-19.95-25.63-39.41-22.78-30.91,4.53-64.73,40.34-99.81,43.87-31.58,3.18-26.03-9.08-37.39-28.41,1.18,41.64,23.39,44.1,63.81,35.79-36.22,24.7-85.79,30.27-104.07-7.39l-2.2,11.37c-1.91,7,1.28,2.03-3.73,9.98-49.45,3.23-35.38-70.08-14.28-57.03,8.27,5.12,11,24.56,13.73,35.04,.82-8.85,.52-33.75-1.1-43.31-2.48-14.65-13.37-19.57-10.58-40.99,4.28-32.73,34.1-39.94,68.48-34.58-2.06,12.88-5.27,17.92-2.32,32.22-31.8,8.27-19.17,5.21-38.62,18.73,17.95-10.12,21.73-9.24,41.55-9.56,2.88-10.58-2.85-52.99,38.75-63.42,30.15-7.56,56.69,8.67,65.31,36.46l-37.56,21.16c15.41,1.43,82-45.39,162.41,21.05,45.57,37.65,48.13,95.16,14,110.06-28.23,12.33-38.1,11.91-45.27,.27"/>
</svg>