<?xml version="1.0" encoding="UTF-8"?>
<svg id="Vrstva_1" data-name="Vrstva 1" xmlns="http://www.w3.org/2000/svg" viewBox="0 0 1114.58 951.48">
  <defs>
    <style>
      .cls-1, .cls-2 {
        fill: #fff;
      }

      .cls-3 {
        fill: #fd821d;
      }

      .cls-4 {
        fill: #e2e6fd;
      }

      .cls-4, .cls-5 {
        fill-rule: evenodd;
      }

      .cls-4, .cls-2 {
        opacity: .46;
      }

      .cls-5 {
        fill: #009ade;
      }
    </style>
  </defs>
  <g>
    <polygon class="cls-1" points="653.48 941.27 665.6 922.42 673.15 917.75 674.48 908.61 677.58 903.79 684.51 899.85 686.34 890.16 707.77 856.84 722.77 866.49 699.92 902.02 699.33 909.78 693.1 912.63 689.17 918.74 668.48 950.92 653.48 941.27"/>
    <rect class="cls-3" x="687" y="868.18" width="36.69" height="17.84" transform="translate(-413.88 996.01) rotate(-57.26)"/>
    <rect class="cls-2" x="702.66" y="866.24" width="10.35" height="2.96" rx="1" ry="1" transform="translate(-336.28 463.03) rotate(-29.61)"/>
    <path class="cls-2" d="M712.48,871.52c-.81-.05-1.52,.57-1.57,1.38-.05,.81,.57,1.52,1.38,1.57l5.13,.34,1.83-2.84-6.76-.44Z"/>
    <rect class="cls-2" x="701.35" y="878.89" width="10.35" height="2.96" rx="1" ry="1" transform="translate(838.49 -240.7) rotate(45.46)"/>
    <path class="cls-2" d="M702.23,890.37c-.76-.28-1.62,.12-1.89,.89-.28,.77,.12,1.62,.89,1.89l3.57,1.29,1.64-2.55-4.2-1.52Z"/>
    <path class="cls-2" d="M719.61,868.64c.75-.32,1.1-1.19,.78-1.94l-1.04-2.42-4.44-2.86,2.76,6.44c.32,.75,1.19,1.1,1.94,.78Z"/>
    <path class="cls-2" d="M697.18,883.37l-2.23-6.6-2.05,3.18,1.47,4.36c.26,.77,1.1,1.19,1.87,.93,.77-.26,1.19-1.1,.93-1.87Z"/>
    <polygon class="cls-1" points="662.06 951.48 645.56 936.3 642.25 928.06 633.48 925.19 629.26 921.31 626.57 913.8 617.34 910.33 588.18 883.51 600.26 870.39 631.35 898.99 638.9 900.91 640.64 907.53 645.98 912.45 674.14 938.35 662.06 951.48"/>
    <rect class="cls-3" x="598.8" y="871.03" width="17.84" height="36.69" transform="translate(-458.26 734.5) rotate(-47.39)"/>
    <rect class="cls-2" x="593.73" y="883.83" width="10.35" height="2.96" rx="1" ry="1" transform="translate(-32.13 1748.02) rotate(-109.74)"/>
    <path class="cls-2" d="M603.46,881.38c-.19,.79,.3,1.59,1.09,1.79,.79,.19,1.59-.3,1.79-1.09l1.21-4.99-2.49-2.29-1.6,6.59Z"/>
    <rect class="cls-2" x="605.97" y="887.3" width="10.35" height="2.96" rx="1" ry="1" transform="translate(-397.04 505.41) rotate(-34.67)"/>
    <path class="cls-2" d="M620.27,894.71c-.4,.71-.16,1.61,.55,2.02,.71,.4,1.61,.16,2.02-.55l1.88-3.29-2.23-2.05-2.22,3.88Z"/>
    <path class="cls-2" d="M601.84,873.87c-.19-.79-.99-1.29-1.78-1.1l-2.56,.61-3.58,3.89,6.82-1.62c.79-.19,1.29-.99,1.1-1.78Z"/>
    <path class="cls-2" d="M612.51,898.49l-6.89,1.06,2.79,2.56,4.55-.7c.8-.12,1.36-.88,1.24-1.69-.12-.8-.88-1.36-1.69-1.24Z"/>
    <g>
      <rect class="cls-3" x="647.66" y="892.2" width="17.84" height="36.69" transform="translate(-365.11 445.42) rotate(-29.73)"/>
      <rect class="cls-2" x="644.23" y="902.52" width="10.35" height="2.96" rx="1" ry="1" transform="translate(-230.46 1585.75) rotate(-92.08)"/>
      <path class="cls-2" d="M654.93,901.64c-.42,.7-.2,1.61,.5,2.03,.7,.42,1.61,.2,2.03-.5l2.67-4.39-1.68-2.94-3.52,5.79Z"/>
      <rect class="cls-2" x="654.85" y="909.53" width="10.35" height="2.96" rx="1" ry="1" transform="translate(-237.59 232.88) rotate(-17.01)"/>
      <path class="cls-2" d="M666.91,919.44c-.6,.55-.64,1.49-.09,2.09,.55,.6,1.49,.64,2.09,.09l2.79-2.56-1.5-2.63-3.29,3.02Z"/>
      <path class="cls-2" d="M655.67,893.99c.06-.81-.55-1.52-1.36-1.59l-2.62-.2-4.59,2.62,6.99,.53c.81,.06,1.52-.55,1.59-1.36Z"/>
      <path class="cls-2" d="M658.37,920.68l-6.88-1.08,1.88,3.29,4.55,.71c.8,.13,1.56-.43,1.69-1.23,.13-.8-.43-1.56-1.23-1.69Z"/>
    </g>
    <g>
      <rect class="cls-3" x="705.66" y="902.01" width="36.69" height="17.84" transform="translate(-349.13 1360.79) rotate(-74.27)"/>
      <rect class="cls-2" x="718.46" y="899.76" width="10.35" height="2.96" rx="1" ry="1" transform="translate(-428.4 808.09) rotate(-46.62)"/>
      <path class="cls-2" d="M729.2,903.52c-.79,.19-1.29,.99-1.1,1.78,.19,.79,.99,1.29,1.78,1.1l5-1.18,.92-3.26-6.6,1.56Z"/>
      <rect class="cls-2" x="720.91" y="912.24" width="10.35" height="2.96" rx="1" ry="1" transform="translate(523.08 -235.57) rotate(28.46)"/>
      <path class="cls-2" d="M724.91,924.54c-.81-.04-1.51,.59-1.55,1.4-.04,.81,.59,1.51,1.4,1.55l3.79,.19,.82-2.92-4.46-.23Z"/>
      <path class="cls-2" d="M735.17,898.68c.62-.53,.7-1.46,.17-2.08l-1.7-2.01-5.08-1.43,4.52,5.35c.53,.62,1.46,.7,2.08,.17Z"/>
      <path class="cls-2" d="M718.03,919.33l-4.06-5.66-1.03,3.64,2.68,3.74c.47,.66,1.4,.81,2.06,.34,.66-.47,.81-1.4,.34-2.06Z"/>
    </g>
    <path class="cls-5" d="M591.06,913.97h21.87c-.05,.39-.08,.78-.08,1.18,0,4.64,3.76,8.41,8.41,8.41s8.41-3.76,8.41-8.41c0-.4-.03-.8-.08-1.18h108.27v37.51h-146.8v-37.51Z"/>
  </g>
  <path class="cls-4" d="M139.13,296.07l3.54-4.86c.3-.52,1.21-1.87,1.56-2.52l5.89-13.5c8.47-17.11,33.94-43.1,58.84-45.74,9.42,7.85,9.23,4.99,13.35,18.3-9.87,15.67-50.66,31.22-21.14,56.32,16.78,14.27,56.51,4.59,79.28-7.56,40.32-21.52,92.66-94.62,117.92-75.73,48.5,36.25-118.27,103.98-197.99,111.09C108.93,340.01,13.23,349.42,.92,437.19c-6.96,49.65,26.84,80.77,57.94,91.39,46.98,16.04,72.9-18.47,117-32.63,70.64-22.69,95.51,36.18,168.64-46.71,14.22-16.11,18.39-26.83,37.03-29.44,28.89-4.04,10.67,30.8,22.06,43.03,57.89,26.62,78.53-19.73,34.78,69.12-36.86,74.88,62.46,35.63,93.03,85.22,12.42,20.14-31.84,18.47-21.78,42.26,8.95,21.17,71.87,21.6,86.93,44.56,33.12,50.51,49.44,158.59,63.36,185.5l-35.06-142.02c-23.2-107.52-104.02-75.68-82.69-111.47,39.39-66.1-53.81-21.25-88.4-81.02,2.93-36.17,44.12-73.52,36.23-92.45-11.99-28.78-44.7-10.62-65.73-20.31-.35-20.31,12.66-17.07,4.02-39.32-14.26-36.76-57.62-17.07-87.66-6.61-26.49,9.23-19.98,14.27-34.4,28.93-22.82,12.57-70.24-27.52-94.39,4.65l-5.33,8.33c-39.76,2.39-93.56,26.35-97.85-17.77,34.46-18.62,143.97-11.56,210.59-39.2,69.41-28.8,126.08-65.71,144.35-117.42,27.11-76.7-47.36-128.64-116.39-90.52-65.87,36.38-29.36,99.49-133.09,118.94l5.5-5.28c17.66-11.81,45.57-12.93,56.65-32.7,11.08-19.78-5.54-47.51-21.61-59.66-55.19-41.72-79.74,40.5-122.54,16.83-9.52-22.2,5.21-36.14,25.6-44.17,32.39-12.75,84.78,3.48,120.65-12.56,32.29-14.44,20.18-23.34,20.55-48.55,21.75,41.37,1.62,56.11-42.05,70.44,48.61,4.03,99.62-18.07,96.59-65.04l8.37,9.89c5.7,5.78-.11,2.7,9.1,7.69,49.6-24.31-4.3-88.17-17.53-63.69-5.19,9.6,2.86,30.12,5.98,41.89-5.66-8.2-19.05-32.71-22.74-42.95-5.65-15.7,2.17-26.56-12.3-45.95-22.12-29.62-54.93-20.11-85.24,4.24,9.08,11.45,14.95,14.59,19.95,30.22,35.3-9.58,21.4-5.55,47.65-3.14-22.92,.08-26.1,3.04-45.44,13.74-8.6-8.74-26.37-53.39-72.34-40.48-33.31,9.36-50.06,39.97-43.12,71.93l47.95-.18c-14.12,9.96-104.26,1.18-145.52,110.81-23.38,62.13,5.76,119.76,46.95,115.38,34.08-3.63,43.4-9.52,43.93-24.89"/>
  <path class="cls-4" d="M946.37,278.37l-4.45-2.99c-.41-.35-1.58-1.2-2.08-1.64l-9.04-9.51c-12.31-11.75-41.66-25.78-63.52-20.43-5.62,9.43-6.31,6.98-5.8,19.37,13.06,10.12,52.24,10.76,34.8,40.73-9.91,17.04-46.44,21-69.34,17.74-40.58-5.78-106.81-51.07-122.52-27.6-30.15,45.07,131.29,51.14,200.88,32.89,79.83-20.94,163.61-42.12,200.39,27.62,20.8,39.44,1.54,75.76-21.58,94.09-34.93,27.69-67.22,6.67-108.79,8.2-66.58,2.45-69.94,59.28-156.71,12.1-16.87-9.17-23.62-16.88-40.18-13.4-25.66,5.39,.23,29.02-5.74,42.72-40.98,39.86-72.37,7.32-8.67,68.42,53.67,51.49-42.14,48.79-53.12,99.58-4.46,20.63,32.49,5.8,31.12,28.76-1.22,20.44-54.32,39.9-60.16,63.69-12.85,52.33,5.8,147.76,2.1,174.52l-12.99-129.53c-12.66-97.04,65.28-94.93,36.48-118.41-53.18-43.37,39.14-34.12,50.46-94.66-13.34-29.39-59.41-48.15-58.42-66.39,1.5-27.73,34.63-22.46,49.52-36.95-5.8-17.11-15.84-10.45-15.21-31.69,1.03-35.1,43.63-31.78,72.18-32.14,25.19-.32,21.19,5.88,37.79,13.78,23.08,3.6,51.16-44.36,81.26-24.76l7.01,5.36c34.35-10.07,87.07-6.35,77.46-44.58-34.75-5.12-125.28,34.03-189.95,31.12-67.37-3.04-126.41-16.73-157.4-54.46-45.97-55.97,1.44-122.06,71.29-111.1,66.66,10.46,54.72,74.36,148.33,59.16l-6.24-2.75c-18.49-4.52-42.44,3.01-57.75-10.18-15.32-13.2-9.58-41.46,.37-56.5,34.17-51.68,79.63,9.7,108.74-23.11,1.38-21.47-15.26-28.67-34.93-29.2-31.23-.84-70.69,28.65-105.85,26.11-31.66-2.28-24.09-13.41-31.97-34.4-5.98,41.23,15.48,47.46,56.73,46.19-39.92,18.13-89.71,15.12-101.26-25.12l-4.11,10.82c-3.09,6.57,.91,2.23-5.39,9.2-49.27-5.29-22.84-75.11-4.3-58.63,7.27,6.46,6.63,26.08,7.52,36.88,2.32-8.58,6.3-33.17,6.34-42.86,.07-14.86-9.82-21.57-3.39-42.2,9.82-31.51,40.44-33.51,73.39-22.33-4.24,12.34-8.27,16.75-7.81,31.35-32.75,2.7-19.78,1.85-41.26,11.84,19.42-6.89,22.99-5.37,42.57-2.3,4.65-9.93,6.27-52.69,49.05-55.84,31-2.28,54.36,18.26,58.09,47.12l-40.63,14.41c14.94,4.05,88.57-30.66,156.4,48.58,38.44,44.91,31.1,102-5.08,110.83-29.92,7.31-39.58,5.2-44.65-7.5"/>
</svg>