<?xml version="1.0" encoding="UTF-8"?>
<svg id="Vrstva_1" data-name="Vrstva 1" xmlns="http://www.w3.org/2000/svg" viewBox="0 0 405.27 317.96">
  <defs>
    <style>
      .cls-1 {
        fill: #5d96cc;
      }

      .cls-1, .cls-2, .cls-3, .cls-4, .cls-5, .cls-6, .cls-7, .cls-8, .cls-9, .cls-10, .cls-11, .cls-12, .cls-13, .cls-14 {
        fill-rule: evenodd;
      }

      .cls-2 {
        fill: #0ab5e2;
      }

      .cls-3 {
        fill: #0ab5e5;
      }

      .cls-4 {
        fill: #0cabdb;
      }

      .cls-5 {
        fill: #0ac5f4;
      }

      .cls-6 {
        fill: #3f81bd;
      }

      .cls-7 {
        fill: #dd5785;
      }

      .cls-8 {
        fill: #cacafd;
      }

      .cls-9 {
        fill: #c4e3ee;
      }

      .cls-10 {
        fill: #b1d9d9;
      }

      .cls-11 {
        fill: #a6d6e6;
      }

      .cls-12 {
        fill: #cdebeb;
      }

      .cls-13 {
        fill: #b0b0b0;
      }

      .cls-14 {
        fill: #fd7aae;
      }
    </style>
  </defs>
  <g>
    <g>
      <path class="cls-13" d="M48.88,24.18S7.59,220.63,17.91,251.81c10.32,31.18,37.85,66.15,37.85,66.15H230.13s27.53-34.97,37.85-66.15c10.32-31.18-30.97-227.63-30.97-227.63H48.88Z"/>
      <path class="cls-13" d="M256.91,129.49c-80.66,31.31-165.23,5.73-235.97,52.5-4.31,32.39-6.37,59.74-3.03,69.82,5.58,16.86,16.19,34.83,24.76,47.78h-11.71c-5.05,0-9.19,4.14-9.19,9.19h0c0,5.05,4.13,9.19,9.19,9.19h227.65c5.05,0,9.19-4.14,9.19-9.19h0c0-5.05-4.14-9.19-9.19-9.19h-15.4c8.57-12.95,19.18-30.92,24.76-47.78,5.06-15.28-2.28-70.24-11.07-122.32Z"/>
      <path class="cls-13" d="M16.99,247.81c30.3-19.38,74.53-45.24,193.9-39.65,17.32,.81,37.02-4.75,55.75-12.64-2.37-20.22-5.92-43.39-9.74-66.02-80.66,31.31-165.23,5.73-235.97,52.5-3.83,28.78-5.88,53.58-3.95,65.82Z"/>
      <path class="cls-13" d="M176.66,7.15c4.14,0,7.53,3.39,7.53,7.53s-3.39,7.53-7.53,7.53H102.82c-4.14,0-7.53-3.39-7.53-7.53s3.39-7.53,7.53-7.53h73.84ZM223.08,0H61.04c-8.36,0-15.2,6.84-15.2,15.2v15.2H238.28V15.2c0-8.36-6.84-15.2-15.2-15.2Z"/>
      <polygon class="cls-13" points="47.97 105 232.06 71.24 232.06 119.41 47.97 153.17 47.97 105"/>
    </g>
    <path class="cls-12" d="M32.63,24.18S-8.67,220.63,1.66,251.81c10.32,31.18,37.85,66.15,37.85,66.15H213.88s27.53-34.97,37.85-66.15c10.32-31.18-30.97-227.63-30.97-227.63H32.63Z"/>
    <path class="cls-3" d="M240.65,129.49c-80.65,31.31-165.22,5.73-235.97,52.5C.38,214.39-1.68,241.73,1.66,251.81c5.58,16.86,16.19,34.83,24.76,47.78H14.71c-5.05,0-9.19,4.14-9.19,9.19h0c0,5.05,4.13,9.19,9.19,9.19H242.36c5.05,0,9.19-4.14,9.19-9.19h0c0-5.05-4.14-9.19-9.19-9.19h-15.4c8.57-12.95,19.18-30.92,24.77-47.78,5.06-15.28-2.28-70.24-11.07-122.32Z"/>
    <path class="cls-5" d="M.74,247.81c30.3-19.38,74.53-45.24,193.9-39.65,17.32,.81,37.02-4.75,55.75-12.64-2.37-20.22-5.92-43.39-9.74-66.02-80.65,31.31-165.22,5.73-235.97,52.5C.86,210.77-1.19,235.57,.74,247.81Z"/>
    <path class="cls-14" d="M160.4,7.15c4.14,0,7.53,3.39,7.53,7.53s-3.39,7.53-7.53,7.53H86.56c-4.14,0-7.53-3.39-7.53-7.53s3.39-7.53,7.53-7.53h73.84ZM206.82,0H44.79c-8.36,0-15.2,6.84-15.2,15.2v15.2H222.02V15.2c0-8.36-6.84-15.2-15.2-15.2Z"/>
    <polygon class="cls-8" points="31.71 105 215.8 71.24 215.8 119.41 31.71 153.17 31.71 105"/>
    <path class="cls-4" d="M250.39,195.51c-15,6.32-30.62,11.15-45.14,12.4-3.62,.31-7.16,.4-10.61,.24-11.91,44.98-29.11,81.11-29.11,81.11,0,0,44.3,4.06,35.91,28.7h40.92c5.05,0,9.19-4.14,9.19-9.19,0-4.77-3.69-8.73-8.36-9.15-.27-.03-.55-.04-.83-.04h-15.4c8.57-12.95,19.18-30.92,24.76-47.78,2.64-7.99,1.9-26.82-.67-50.4-.21-1.94-.43-3.9-.67-5.9Z"/>
    <path class="cls-2" d="M241.54,134.79c-.29-1.77-.59-3.53-.89-5.3,.3,1.76,.6,3.53,.89,5.3h0Zm-36.28,73.12c14.52-1.26,30.14-6.08,45.14-12.4-2.19-18.65-5.37-39.8-8.85-60.72-.29-1.77-.59-3.53-.89-5.3-14.62,5.67-29.37,9.48-44.14,12.19,.05,.86,.09,1.71,.14,2.55,1.42,27.45,1.26,50.85-1.86,63.35-.05,.19-.1,.39-.15,.58,3.45,.16,7,.07,10.61-.24Z"/>
    <path class="cls-10" d="M196.52,141.68c14.77-2.71,29.52-6.51,44.14-12.19-2.84-16.79-5.82-33.29-8.6-48.05-.64-3.38-1.26-6.67-1.87-9.86-3.52-18.45-6.52-33.29-8.14-41.18h-36.1c1.72,14.07,3.5,29.54,5.13,45.37l24.73-4.53v48.17l-20.48,3.76c.07,.98,.14,1.96,.21,2.94,.37,5.29,.71,10.49,.98,15.57Z"/>
    <path class="cls-7" d="M185.94,30.4h36.08V15.2c0-8.36-6.84-15.2-15.2-15.2h-24.75c.49,3.7,1.01,7.65,1.54,11.8,.17,1.29,.33,2.59,.5,3.92,.35,2.74,.7,5.57,1.06,8.46,.25,2.04,.51,4.11,.77,6.22Z"/>
  </g>
  <path class="cls-9" d="M282.01,146.28c23.36-3.11,24.92,0,24.92,5.45v61.52s0,24.14,17.91,24.91c17.91,.78,21.8-1.56,22.58,10.13,.78,11.68,2.34,25.69-8.57,25.69h-69.3s-12.46-1.56-10.9-11.68v-102.79s0-10.12,23.36-13.24h0Zm36.6,71.64s4.67,10.9,12.46,10.9,9.34-2.33,9.34-17.13v-27.26c0-23.99-18.82-32.05-21.8-17.13v50.62h0Zm-37.96-117.19s1.56,12.46-18.69,16.35c-20.25,3.89-17.13,16.35-16.35,35.82,.78,19.47,0,147.17,0,147.17,0,0-.78,18.69,13.24,17.13,14.02-1.56,83.32-.78,83.32-.78,0,0,15.57,6.23,15.57-28.03V134.99s4.67-11.68-18.69-18.69c-23.36-7.01-29.59-5.45-30.37-12.46-.15-1.34-.24-2.28-.28-2.91l-27.76-.2Z"/>
  <path class="cls-1" d="M305.7,151.73c0-5.45-1.56-8.57-24.92-5.45-23.36,3.12-23.36,13.24-23.36,13.24v102.79c-1.56,10.12,10.9,11.68,10.9,11.68h69.3c10.9,0,9.34-14.02,8.57-25.69-.78-11.68-4.67-9.34-22.58-10.13-17.91-.78-17.91-24.91-17.91-24.91v-61.52Z"/>
  <polygon class="cls-1" points="368.58 285.25 366.11 312.97 403.08 314.94 405.27 290.29 368.58 285.25"/>
  <polygon class="cls-6" points="367.29 299.79 366.12 312.89 366.11 312.97 367.1 313.03 403.08 314.94 404.13 303.07 367.29 299.79"/>
  <path class="cls-11" d="M295.25,145.06c10.78-.28,11.68,2.51,11.68,6.67v61.52s0,24.14,17.91,24.91c17.91,.78,21.8-1.56,22.58,10.13,.78,11.68,2.34,25.69-8.57,25.69h-43.61v42.27c22.7-.1,46.92,.17,46.92,.17,0,0,15.57,6.23,15.57-28.03V134.99s4.67-11.68-18.69-18.69c-23.36-7.01-29.59-5.45-30.37-12.46-.15-1.34-.24-2.28-.28-2.91l-13.16-.1v44.23h0Zm23.36,22.24c2.98-14.92,21.8-6.86,21.8,17.13v27.26c0,14.8-1.56,17.13-9.34,17.13s-12.46-10.9-12.46-10.9v-50.62Z"/>
  <path class="cls-14" d="M295.25,261.52h-37.83v.78c-1.61,10.12,11.27,11.68,11.27,11.68h26.56v-12.46Z"/>
</svg>