<?xml version="1.0" encoding="UTF-8"?>
<svg xmlns="http://www.w3.org/2000/svg" viewBox="0 0 645.04 1150.04">
  <defs>
    <style>
      .cls-1 {
        stroke: #ffbe7d;
        stroke-width: 52.74px;
      }

      .cls-1, .cls-2, .cls-3, .cls-4, .cls-5 {
        fill: none;
      }

      .cls-1, .cls-2, .cls-4 {
        stroke-miterlimit: 10;
      }

      .cls-2 {
        stroke: #00716f;
        stroke-width: 75.34px;
      }

      .cls-6 {
        fill: #00548f;
      }

      .cls-7 {
        fill: #00aa9d;
      }

      .cls-8 {
        fill: #00716f;
      }

      .cls-9 {
        fill: #fff;
      }

      .cls-10 {
        fill: #ffbe7d;
      }

      .cls-11 {
        fill: #736357;
      }

      .cls-12, .cls-13 {
        fill: #ccc;
      }

      .cls-14, .cls-15 {
        fill: #1a1a18;
      }

      .cls-3 {
        stroke: #00548f;
        stroke-linejoin: round;
        stroke-width: 5.31px;
      }

      .cls-3, .cls-4 {
        stroke-linecap: round;
      }

      .cls-4 {
        stroke: #00aa9d;
        stroke-width: 60.72px;
      }

      .cls-15, .cls-13, .cls-16, .cls-17 {
        fill-rule: evenodd;
      }

      .cls-16 {
        fill: #b3b3b3;
      }

      .cls-18 {
        isolation: isolate;
      }

      .cls-17 {
        fill: #f1f1f1;
        mix-blend-mode: overlay;
      }

      .cls-5 {
        stroke: #1a1a18;
        stroke-miterlimit: 22.93;
        stroke-width: 7px;
      }
    </style>
  </defs>
  <g class="cls-18">
    <g id="Vrstva_1" data-name="Vrstva 1">
      <g>
        <rect class="cls-11" y="391.79" width="556.01" height="19.07"/>
        <g>
          <path class="cls-15" d="M387.12,391.79c-1.85-9.16-2.78-13.74-2.78-13.74h-114.35c-2.16,8.98-3.17,13.56-3.04,13.74h120.17Z"/>
          <path class="cls-16" d="M360.05,212.68c18.29,39.91,26.39,95.03,24.29,165.37h-114.35c-2.36-79.38,5.98-134.51,25.05-165.37,21.29-4.39,42.96-4.39,65.02,0Z"/>
          <path class="cls-13" d="M275.28,272.09c3.77-20.87,8.32-36.84,13.65-47.91-7.9,0-15.18,.97-21.85,2.92,5.47,29.99,8.21,44.99,8.21,44.99Z"/>
          <path class="cls-12" d="M350.28,199.65c-26.47-2.35-44.42,.89-53.85,9.74,22.62-3.22,42.77-3.22,60.46,0-.79-1.69-3-4.94-6.61-9.74Z"/>
          <path class="cls-12" d="M377,353.92c.72-48.75-7.64-81.15-25.11-97.21,8.95,40.94,11.67,77.82,8.19,110.63,2.99-1.68,8.63-6.15,16.92-13.41Z"/>
          <path class="cls-15" d="M384.66,262.01c3.07,45.76,4.84,84.84,2.46,108.13-.37,3.6-2.21,2.38-2.71,5.45,1.01-96.28-15.18-152.36-34.13-175.94,63.24,2.6,94.62,48.01,94.14,136.23-7.29,6.58-14.04,3.89-20.24-8.1-2.53-62.58-15.7-91.25-39.52-86.02-1.8,2.59-1.8,9.34,0,20.24Z"/>
          <path class="cls-9" d="M485.13,195.81h32.65c3.19,0,5.78,2.59,5.78,5.78v32.64c0,3.19-2.59,5.78-5.78,5.78h-32.65c-3.19,0-5.78-2.59-5.78-5.78v-32.65c0-3.19,2.59-5.78,5.78-5.78Z"/>
          <circle class="cls-14" cx="501.45" cy="217.91" r="13.96"/>
          <path class="cls-17" d="M137.97,0c11.99,12.57,23.06,28.59,41.11,28.98,32.66,.72,56.55,10.84,63.56,43.73,3.19,14.96,30.15,.48,16.21,42.68-8.75,26.5,43.81,47.62,18.01,65.89-8.6,6.09-10.43,45.54-8.23,45.29,5.14-.59,12.74-2.24,17.79-2.35,2.14-.04,8.12-10.92,5.25-25.04-6.52-32.13,30.85-25.45,6.06-88.65-7.47-19.05,19.76-34.77,.55-52.13-7.24-6.55,18.19-16.31,28.22-16.31,29.34,0,17.04-.92,41.79,6.81,11.43,3.57,48.6,.05,59.39-4.12,21.66-8.36,150.34-23.47,157.58-23.47,38,0,26.24-2.25,56.49-15.61,3.08-1.36,2.14,1.19,3.29-3.6L137.97,0Z"/>
          <path class="cls-5" d="M387.46,366.29c27.71,7.53,47.75,6.66,49.68,46.97,.72,14.97-1.4,39.52-22.42,28.77-7.19-3.68-30.96-50.48,31.77-50.48,74.02,0,20.82-25.79,33.23-60.74,7.6-21.4,63.74-56.41,25.37-104.67"/>
        </g>
        <g>
          <g>
            <rect class="cls-10" x="133.14" y="981.94" width="52.12" height="16.04" rx="8.02" ry="8.02" transform="translate(-609.95 1633.2) rotate(-120.77)"/>
            <rect class="cls-10" x="98.85" y="969.46" width="69.65" height="45.4" rx="22.7" ry="22.7" transform="translate(-860.9 877.84) rotate(-75.77)"/>
          </g>
          <line class="cls-1" x1="222.29" y1="915.41" x2="222.29" y2="1099.96"/>
          <line class="cls-1" x1="295.48" y1="916.82" x2="295.48" y2="1099.96"/>
          <path class="cls-7" d="M359.62,840.06c7.75,56.23-31.55,108.09-87.78,115.84-56.23,7.75-108.09-31.55-115.84-87.78-7.75-56.23,27.96-134.11,84.19-141.86,56.23-7.75,111.68,57.57,119.43,113.8Z"/>
          <g>
            <line class="cls-2" x1="294.69" y1="922.01" x2="294.69" y2="1002.93"/>
            <line class="cls-2" x1="218.61" y1="922.01" x2="218.61" y2="1002.93"/>
          </g>
          <path class="cls-4" d="M136.76,957.13c-12.55-99.25,62.93-175.82,62.93-175.82"/>
          <g>
            <rect class="cls-10" x="424.72" y="521.92" width="52.12" height="16.04" rx="8.02" ry="8.02" transform="translate(1145.4 490.7) rotate(127.15)"/>
            <rect class="cls-10" x="390.83" y="502.21" width="69.65" height="45.4" rx="22.7" ry="22.7" transform="translate(887.53 31.57) rotate(82.15)"/>
          </g>
          <path class="cls-4" d="M435.5,570.08c-11.85,131.65-135.54,189.27-135.54,189.27"/>
          <path class="cls-10" d="M257.89,684.91l-55.52,9.53,6.11,35.56h0c2.68,15.26,17.2,25.5,32.49,22.87,15.29-2.62,25.56-17.12,23-32.4h.03s-6.11-35.57-6.11-35.57Z"/>
          <path class="cls-8" d="M271.85,955.9c43.81-6.04,77.33-38.85,86.34-79.64l-191.01,26.33c19.71,36.83,60.86,59.35,104.67,53.32Z"/>
          <rect class="cls-6" x="89.51" y="506.06" width="268.36" height="215.68" rx="107.84" ry="107.84" transform="translate(-100.65 46.7) rotate(-9.74)"/>
          <path class="cls-6" d="M120.5,470.94h101.72c64.46,0,116.8,52.33,116.8,116.8v26.48h-101.72c-64.46,0-116.8-52.33-116.8-116.8v-26.48h0Z" transform="translate(-88.5 46.7) rotate(-9.74)"/>
          <polyline class="cls-3" points="281.91 447.21 264.36 504.3 295.06 479.31"/>
          <rect class="cls-8" x="265.19" y="1082.1" width="86.41" height="57.22" rx="28.61" ry="28.61" transform="translate(875.72 107.25) rotate(45)"/>
          <rect class="cls-8" x="165.35" y="1082.1" width="86.41" height="57.22" rx="28.61" ry="28.61" transform="translate(-748.38 509.51) rotate(-47.23)"/>
        </g>
      </g>
    </g>
  </g>
</svg>