<?xml version="1.0" encoding="UTF-8"?>
<svg id="Vrstva_1" data-name="Vrstva 1" xmlns="http://www.w3.org/2000/svg" viewBox="0 0 1190.96 384.52">
  <defs>
    <style>
      .cls-1 {
        fill: #ee5a24;
      }

      .cls-2 {
        fill: #ffa66e;
      }

      .cls-3 {
        fill: red;
      }

      .cls-4 {
        fill: #303030;
      }

      .cls-5 {
        fill: #fff;
        stroke-width: 4px;
      }

      .cls-5, .cls-6 {
        stroke: #000;
        stroke-miterlimit: 10;
      }

      .cls-6 {
        fill: none;
        stroke-width: 10px;
      }
    </style>
  </defs>
  <g>
    <path class="cls-3" d="M42.24,290.29c-.96,.11-1.97-.12-2.83-.71-1.89-1.3-2.36-3.89-1.05-5.78,4.04-5.85,8.25-7.6,11.62-9.01,2.98-1.25,5.34-2.23,8-6.08,2.66-3.85,2.75-6.4,2.87-9.63,.13-3.66,.29-8.21,4.34-14.06,4.05-5.85,8.25-7.6,11.62-9.02,2.98-1.25,5.34-2.23,8-6.08,1.3-1.89,3.89-2.36,5.78-1.05,1.89,1.3,2.36,3.89,1.05,5.78-4.05,5.85-8.25,7.6-11.62,9.02-2.98,1.25-5.34,2.23-8,6.08-2.66,3.85-2.75,6.4-2.87,9.63-.13,3.66-.29,8.21-4.34,14.06-4.04,5.85-8.25,7.6-11.62,9.02-2.98,1.25-5.34,2.23-8,6.08-.71,1.02-1.8,1.63-2.94,1.76Z"/>
    <path class="cls-3" d="M21.67,343.78c-.96,.11-1.97-.12-2.83-.71-1.89-1.3-2.36-3.89-1.05-5.78,4.05-5.85,8.25-7.6,11.62-9.02,2.98-1.25,5.34-2.23,8-6.08,2.66-3.85,2.75-6.4,2.87-9.63,.13-3.66,.29-8.21,4.34-14.06,4.04-5.85,8.25-7.6,11.62-9.01,2.98-1.25,5.34-2.23,8-6.08,1.3-1.89,3.89-2.36,5.78-1.05,1.89,1.3,2.36,3.89,1.05,5.78-4.04,5.85-8.25,7.6-11.62,9.01-2.98,1.25-5.34,2.23-8,6.08-2.66,3.85-2.75,6.4-2.87,9.63-.13,3.66-.29,8.21-4.34,14.06-4.05,5.85-8.25,7.6-11.62,9.02-2.98,1.25-5.34,2.23-8,6.08-.71,1.02-1.8,1.63-2.94,1.76Z"/>
    <path class="cls-3" d="M4.62,315.67c-.96,.11-1.97-.12-2.83-.71-1.89-1.3-2.36-3.89-1.05-5.78,4.04-5.85,8.25-7.6,11.62-9.01,2.98-1.25,5.34-2.23,8-6.08,2.66-3.85,2.75-6.4,2.87-9.63,.13-3.66,.29-8.21,4.34-14.06,4.05-5.85,8.25-7.6,11.62-9.02,2.98-1.25,5.34-2.23,8-6.08,1.3-1.89,3.89-2.36,5.78-1.05,1.89,1.3,2.36,3.89,1.05,5.78-4.05,5.85-8.25,7.6-11.62,9.02-2.98,1.25-5.34,2.23-8,6.08-2.66,3.85-2.75,6.4-2.87,9.63-.13,3.66-.29,8.21-4.34,14.06-4.04,5.85-8.25,7.6-11.62,9.01-2.98,1.25-5.34,2.23-8,6.08-.71,1.02-1.8,1.63-2.94,1.76Z"/>
  </g>
  <g>
    <rect class="cls-5" x="1126.99" y="2" width="61.97" height="61.97" rx="10.36" ry="10.36"/>
    <path class="cls-6" d="M378.26,176.12s62.28,23.25,85.7,62.25c23.42,38.99,55.19,176.82,124.39,132.46,69.2-44.37,13.34-247.39,93.88-249.02,80.54-1.62,273.19,14.27,372.94-27.84,99.75-42.11,94.61-58.86,94.61-58.86"/>
    <rect class="cls-4" x="64.73" y="205.98" width="46.8" height="53.21" transform="translate(-147.74 153.65) rotate(-50.74)"/>
    <rect class="cls-4" x="269.75" y="145.35" width="46.17" height="34.59" rx="12" ry="12" transform="translate(26.02 365.17) rotate(-66.25)"/>
    <path class="cls-1" d="M390.54,152.36l-111.55-64.54c-12.9-7.46-29.42-2.52-36.09,10.8l-6.9,13.76c-6.68,13.32-.76,29.51,12.94,35.38l118.45,50.78c12.58,5.39,27.19,.05,33.33-12.19h0c6.14-12.24,1.68-27.14-10.17-34Z"/>
    <circle class="cls-2" cx="217.54" cy="117.39" r="73.35"/>
    <polygon class="cls-2" points="106.69 259.79 231.74 128.99 160.75 70.98 57.48 219.57 106.69 259.79"/>
    <circle class="cls-1" cx="217.54" cy="117.39" r="37.52"/>
    <rect class="cls-2" x="184.44" y="103.04" width="43.97" height="9.24" rx="4.62" ry="4.62" transform="translate(-7.56 199.37) rotate(-50.74)"/>
    <rect class="cls-2" x="195.88" y="112.39" width="43.97" height="9.24" rx="4.62" ry="4.62" transform="translate(-10.6 211.66) rotate(-50.74)"/>
    <rect class="cls-2" x="207.32" y="121.74" width="43.97" height="9.24" rx="4.62" ry="4.62" transform="translate(-13.64 223.95) rotate(-50.74)"/>
    <circle cx="1157.98" cy="32.99" r="19.68"/>
    <rect x="1129.76" y="34.76" width="28.93" height="18.71" rx="9.35" ry="9.35" transform="translate(303.95 822.01) rotate(-45)"/>
  </g>
</svg>