<?xml version="1.0" encoding="UTF-8"?>
<svg id="Vrstva_1" data-name="Vrstva 1" xmlns="http://www.w3.org/2000/svg" viewBox="0 0 286.4 353.61">
  <defs>
    <style>
      .cls-1, .cls-2 {
        fill: #eb7c00;
      }

      .cls-3, .cls-4 {
        fill: #efefef;
      }

      .cls-5, .cls-6 {
        fill: #5c6c8c;
      }

      .cls-6, .cls-7, .cls-8, .cls-9, .cls-4, .cls-10, .cls-2 {
        fill-rule: evenodd;
      }

      .cls-7 {
        fill: #1a1a18;
      }

      .cls-8 {
        fill: #8085a2;
      }

      .cls-9 {
        fill: #b6bdd7;
      }

      .cls-10 {
        fill: #fff;
      }
    </style>
  </defs>
  <path class="cls-3" d="M225.76,245.52c-9.91,5.85-6.51,21.08-5.41,34.47,.71,8.7-1.86,72.83,10.07,45.68,5.3-12.05-1.89-52.08-6.57-62.5-2.22-4.94,6.4-20.31,1.91-17.65Z"/>
  <path class="cls-6" d="M93.3,0c21.06,0,38.14,16.41,38.14,36.66,0,.75-.03,1.5-.07,2.24h.14v93.72l-76.35,12.56,.07-106.27h0c-.05-.74-.07-1.49-.07-2.24C55.16,16.41,72.23,0,93.3,0Z"/>
  <path class="cls-10" d="M72.79,28.89c6.35,0,11.5,5.15,11.5,11.5s-5.15,11.5-11.5,11.5-11.5-5.15-11.5-11.5,5.15-11.5,11.5-11.5Z"/>
  <path class="cls-7" d="M72.79,34.86c3.05,0,5.52,2.47,5.52,5.53s-2.47,5.52-5.52,5.52-5.52-2.47-5.52-5.52,2.47-5.53,5.52-5.53Z"/>
  <path class="cls-2" d="M104.5,58.23c0-5.58-4.52-10.11-10.11-10.11s-10.11,4.52-10.11,10.11l10.11,15.51,10.11-15.51Z"/>
  <path class="cls-8" d="M119.08,204.6H255.47c-61.54-78.89-107.01-118.51-136.4-118.83-35.3,0-63.92,26.6-63.92,59.42s28.62,59.42,63.92,59.42Z"/>
  <path class="cls-9" d="M255.47,185.28h-96.86c-23.89,0-43.25-19.36-43.25-43.25s19.37-43.25,43.25-43.25c28.7,0,82.17,62.46,96.86,86.5Z"/>
  <path class="cls-6" d="M255.47,204.6h-36.67c21,33.35,39.99,49.28,56.96,47.79,19.18-1.3,12.41-17.23-20.29-47.79Z"/>
  <rect class="cls-1" x="113.39" y="204.36" width="11.79" height="56.86"/>
  <rect class="cls-1" x="136.63" y="204.6" width="11.79" height="56.86"/>
  <path class="cls-10" d="M113.68,28.89c6.35,0,11.5,5.15,11.5,11.5s-5.15,11.5-11.5,11.5-11.5-5.15-11.5-11.5,5.15-11.5,11.5-11.5Z"/>
  <path class="cls-7" d="M113.68,34.86c3.05,0,5.52,2.47,5.52,5.53s-2.47,5.52-5.52,5.52-5.52-2.47-5.52-5.52,2.47-5.53,5.52-5.53Z"/>
  <rect class="cls-5" x="146.06" y="139.55" width="74.77" height="11.27" rx="5.63" ry="5.63"/>
  <path class="cls-5" d="M168.88,158.54h63.51c3.11,0,5.63,2.52,5.63,5.63h0c0,3.11-2.52,5.63-5.63,5.63h-63.51c-3.11,0-5.63-2.52-5.63-5.63h0c0-3.11,2.52-5.63,5.63-5.63Z"/>
  <path class="cls-4" d="M125.86,279.19c23.75,3.29,8.93,65.29,2.66,61.3-13.44-8.56,2.37-45.22-22.85-42.84-13.82,1.31-29.53-7.72-34.77,3.09-27.81,3.34-8.11,2.63-16.93,40.54-6.04,25.95-17.25,6.79-17.25-19.49,0-41.95-9.98-10.73-19.84-29.47-2.09-3.97-35.28,1.19-2.47-19.14,2.46-1.52,52.12-.37,55.38-8.25,5.16-.99,81.33-14.04,81.41-12.89,2.08,29.07-17.82,28.19-25.33,27.15Z"/>
</svg>