<?xml version="1.0" encoding="UTF-8"?>
<svg xmlns="http://www.w3.org/2000/svg" xmlns:xlink="http://www.w3.org/1999/xlink" viewBox="0 0 545.92 565.55">
  <defs>
    <style>
      .cls-1 {
        fill: url(#linear-gradient);
      }

      .cls-2, .cls-3 {
        fill: #fff;
      }

      .cls-4 {
        fill: #be3333;
      }

      .cls-5 {
        fill: #1a1a1a;
      }

      .cls-3 {
        mix-blend-mode: lighten;
        opacity: .2;
      }

      .cls-6 {
        fill: #a66a69;
        mix-blend-mode: multiply;
        opacity: .5;
      }

      .cls-7 {
        fill: url(#linear-gradient-3);
      }

      .cls-8 {
        fill: url(#linear-gradient-2);
      }

      .cls-9 {
        isolation: isolate;
      }
    </style>
    <linearGradient id="linear-gradient" x1="62.23" y1="519.29" x2="62.23" y2="413.04" gradientUnits="userSpaceOnUse">
      <stop offset="0" stop-color="#fdd3b6"/>
      <stop offset=".32" stop-color="#fdceae"/>
      <stop offset=".97" stop-color="#fdc7a2"/>
    </linearGradient>
    <linearGradient id="linear-gradient-2" x1="115.43" y1="300.4" x2="109.15" y2="559.23" gradientUnits="userSpaceOnUse">
      <stop offset="0" stop-color="#992b4e"/>
      <stop offset=".14" stop-color="#b23146"/>
      <stop offset=".3" stop-color="#c83640"/>
      <stop offset=".45" stop-color="#d6393c"/>
      <stop offset=".58" stop-color="#db3b3b"/>
      <stop offset=".79" stop-color="#d93a3b"/>
      <stop offset=".86" stop-color="#d2383d"/>
      <stop offset=".91" stop-color="#c63640"/>
      <stop offset=".95" stop-color="#b53145"/>
      <stop offset=".99" stop-color="#9f2c4c"/>
      <stop offset="1" stop-color="#992b4e"/>
    </linearGradient>
    <linearGradient id="linear-gradient-3" x1="114.59" y1="344.11" x2="114.59" y2="277.38" xlink:href="#linear-gradient"/>
  </defs>
  <g class="cls-9">
    <g id="Vrstva_1" data-name="Vrstva 1">
      <g>
        <polygon class="cls-1" points="103.22 506.23 23.91 519.29 21.23 413.04 103.22 413.04 103.22 506.23"/>
        <polygon class="cls-8" points="19.45 303.21 20.03 329.04 20.43 342.11 21.31 378.87 22.62 431.11 51.19 431.11 50.7 442.67 50.42 443.31 35.1 432.22 44.02 450.25 31.25 450.77 47.48 458.8 23.32 458.8 23.42 462.75 61.89 462.75 64.39 466.53 46.7 473.25 66.67 475.69 60.09 486.64 71.64 479.88 71.19 490.43 24.12 490.43 25.91 561.56 200 565.55 205.88 427 207.05 399.32 207.94 379.17 209.5 343.95 210.09 329.34 211.37 299.81 19.45 303.21"/>
        <polygon class="cls-7" points="12.63 277.38 16.94 283.46 8.53 283.46 15.66 298.45 7.25 295.89 8.17 303.57 2.5 294.61 0 302.02 5.11 336.72 5.88 341.96 20.38 342.13 48.74 342.39 108.03 342.99 209.47 343.94 214.8 344.03 222.55 344.11 229.18 277.69 12.63 277.38"/>
        <rect class="cls-4" x="42.58" y="367.02" width="117.62" height="27.68"/>
        <polygon class="cls-6" points="214.84 329.34 214.8 344.03 209.47 343.94 207.96 379.15 21.28 378.89 20.38 342.13 5.88 341.96 5.11 336.72 5.13 329.04 214.84 329.34"/>
        <polygon class="cls-3" points="108.03 342.99 48.74 342.39 30.14 277.4 88.22 277.49 108.03 342.99"/>
        <polygon class="cls-4" points="207.05 399.32 205.88 427 108.74 427 108.74 399.32 207.05 399.32"/>
        <g>
          <path class="cls-2" d="M46.51,259.28c-.62,1.46-4.82,11.58-4.36,10.96,37.47-50.42,70.24-69.4,130.66-48.82,55.84,19.02,76.89-67.62,120.41-45.06,33.39,17.31,31.89,60.11,91.51,70.59,51.36,9.03,193.58-111.59,154.46-192.11-39.12-80.52-180.45-69.08-160.24,12.69,33.01,133.59-14.44,177.49-45.2,120.33-22.51-41.83-60.88-76.73-87.45-36.79-15.42,23.18-36.17,71.21-67.96,58.19-54.17-22.18-109.68-2.02-131.83,50.01Z"/>
          <path class="cls-5" d="M455.15,116.88c-14.84-24.95-37.52-8.88-34.64-29.3,2.88-20.42,26.63-3.74,36.23,5.24,9.6,8.99,23.39-.63,37.4,12.74,14.02,13.37-21.2,41.24-38.99,11.32Z"/>
          <path class="cls-5" d="M445.32,66.85c-7.53-10.23-15.53-19.25-5.88-31.14,9.65-11.89,22.51-20.49,28-4.78,5.49,15.71-11.51,50.33-22.12,35.92Z"/>
          <path class="cls-5" d="M489.27,76.84c-12.68,.78-19.78-12.26-10.12-24.15,9.65-11.89,22.51-20.49,28-4.78,5.49,15.71-1.27,27.92-17.88,28.94Z"/>
          <path class="cls-2" d="M520.09,163.14c1.93,13.87,8.72,17.92,13.09,40.13,4.37,22.21-5.54,23.81-13.88,15.52-10.58-10.51-3.49-20.24-4.29-37.54-.75-16.2,4.02-25.75,5.08-18.11Z"/>
          <path class="cls-2" d="M380.82,88.43c2.14,13.21,1.78,23.46-5.74,39.03-9.86,20.38-35.82,10.59-27.83-2,8-12.59,13.84-6.25,23.47-19.3,9.63-13.04,8.86-25.34,10.1-17.73Z"/>
        </g>
      </g>
    </g>
  </g>
</svg>