<?xml version="1.0" encoding="UTF-8"?>
<svg id="Vrstva_1" data-name="Vrstva 1" xmlns="http://www.w3.org/2000/svg" xmlns:xlink="http://www.w3.org/1999/xlink" viewBox="0 0 1107.02 580.63">
  <defs>
    <style>
      .cls-1 {
        clip-path: url(#clippath);
      }

      .cls-2 {
        fill: url(#Nepojmenovaný_přechod_14);
      }

      .cls-3 {
        mask: url(#mask);
      }

      .cls-4 {
        fill: #efefef;
      }

      .cls-5 {
        fill: #bce5dc;
      }

      .cls-6 {
        fill: url(#Nepojmenovaný_přechod_2);
      }

      .cls-7 {
        clip-rule: evenodd;
        fill: none;
      }
    </style>
    <clipPath id="clippath">
      <path class="cls-7" d="M1107.02,580.63H67.63c53.18-27.16,465.28-7.83,566.73-30.48,88.56-19.78,209.81,31.67,244.89-33.73,14.18-26.44-37.66-24.02,78.22-47.69,24.61-5.03-4.06-29.88,38.11-41.68,28.71-8.03-44.02-37.13,28.47-80.12,88.57-52.52-13.01-143.31,39.05-228.74,12.11-19.88-3.23-54.69,42.58-91.82,1.49-1.21,1.06-24.04,1.33-26.36V580.63Z"/>
    </clipPath>
    <linearGradient id="Nepojmenovaný_přechod_2" data-name="Nepojmenovaný přechod 2" x1="-3900.72" y1="-3470.28" x2="-3623.34" y2="-3165.43" gradientTransform="translate(-2952.99 -2783.86) rotate(-180)" gradientUnits="userSpaceOnUse">
      <stop offset="0" stop-color="#fff"/>
      <stop offset="1" stop-color="#000"/>
    </linearGradient>
    <mask id="mask" x="67.63" width="1039.38" height="580.63" maskUnits="userSpaceOnUse">
      <rect class="cls-6" x="67.63" y="0" width="1039.38" height="580.63"/>
    </mask>
    <linearGradient id="Nepojmenovaný_přechod_14" data-name="Nepojmenovaný přechod 14" x1="-3067.77" y1="-4511.74" x2="-2790.26" y2="-4206.74" gradientTransform="translate(-2118.44 -3826.04) rotate(-180)" gradientUnits="userSpaceOnUse">
      <stop offset="0" stop-color="#1a1a19"/>
      <stop offset="1" stop-color="#fbfbfb"/>
    </linearGradient>
  </defs>
  <polygon class="cls-5" points="871.7 170.65 565.43 170.65 496.39 23.59 787.33 23.59 871.7 170.65"/>
  <polygon class="cls-5" points="408.78 580.4 59.78 580.4 0 351.28 325.11 351.28 408.78 580.4"/>
  <polygon class="cls-4" points="757.79 580.4 408.78 580.4 325.11 351.28 650.23 351.28 757.79 580.4"/>
  <polygon class="cls-5" points="1106.79 580.4 757.79 580.4 650.23 351.28 975.34 351.28 1106.79 580.4"/>
  <polygon class="cls-4" points="1106.79 23.59 1106.79 170.65 871.7 170.65 787.33 23.59 1106.79 23.59"/>
  <polygon class="cls-5" points="650.23 351.28 325.11 351.28 259.14 170.65 565.43 170.65 650.23 351.28"/>
  <polygon class="cls-4" points="975.34 351.28 650.23 351.28 565.43 170.65 871.7 170.65 975.34 351.28"/>
  <polygon class="cls-5" points="1106.79 170.65 1106.79 351.28 975.34 351.28 871.7 170.65 1106.79 170.65"/>
  <polygon class="cls-4" points="1106.79 351.28 1106.79 580.4 975.34 351.28 1106.79 351.28"/>
  <g class="cls-1">
    <g class="cls-3">
      <rect class="cls-2" x="67.63" y="0" width="1044.99" height="581.81"/>
    </g>
  </g>
</svg>