<?xml version="1.0" encoding="UTF-8"?>
<svg id="Vrstva_1" data-name="Vrstva 1" xmlns="http://www.w3.org/2000/svg" viewBox="0 0 319.6 493.14">
  <defs>
    <style>
      .cls-1 {
        fill: #f9702e;
      }

      .cls-2, .cls-3, .cls-4 {
        fill: #00548f;
      }

      .cls-5 {
        fill: #e9672b;
      }

      .cls-6 {
        fill: #e9672a;
      }

      .cls-7 {
        fill: #ebc4bf;
      }

      .cls-8 {
        fill: #ef7234;
      }

      .cls-9 {
        fill: #fff;
      }

      .cls-10 {
        fill: #f43c27;
      }

      .cls-11 {
        fill: #ee7434;
      }

      .cls-12, .cls-13 {
        fill: #fcbc7f;
      }

      .cls-14 {
        fill: #ff7935;
      }

      .cls-15 {
        fill: #ff803a;
      }

      .cls-16 {
        fill: #ff7e3a;
      }

      .cls-17 {
        fill: #ff7230;
      }

      .cls-18 {
        fill: #80200f;
      }

      .cls-19 {
        fill: #a22816;
      }

      .cls-20 {
        fill: #ba5c27;
      }

      .cls-21 {
        fill: #ba5c29;
      }

      .cls-22 {
        fill: #c35e3c;
      }

      .cls-23 {
        fill: #c35723;
      }

      .cls-24 {
        fill: #b55020;
      }

      .cls-25 {
        fill: #bb602c;
      }

      .cls-26 {
        fill: #cf642d;
      }

      .cls-27 {
        fill: #d0652d;
      }

      .cls-28 {
        fill: #bf5622;
      }

      .cls-29 {
        fill: #cd632c;
      }

      .cls-30 {
        fill: #ca942a;
      }

      .cls-31 {
        fill: #d1662d;
      }

      .cls-32 {
        fill: #d2672d;
      }

      .cls-33 {
        fill: #d5672d;
      }

      .cls-34 {
        fill: #c96024;
      }

      .cls-35 {
        fill: #197070;
      }

      .cls-36 {
        fill: #9ac4fd;
      }

      .cls-37 {
        fill: #292d95;
      }

      .cls-3, .cls-13, .cls-38, .cls-39, .cls-40, .cls-41, .cls-42, .cls-43 {
        stroke-miterlimit: 10;
      }

      .cls-3, .cls-42 {
        stroke: #00548f;
        stroke-width: 1.01px;
      }

      .cls-13, .cls-39 {
        stroke-width: 2.02px;
      }

      .cls-13, .cls-39, .cls-40, .cls-41, .cls-43 {
        stroke-linecap: round;
      }

      .cls-13, .cls-39, .cls-41 {
        stroke: #e09f6e;
      }

      .cls-38 {
        stroke: #197070;
        stroke-width: 24px;
      }

      .cls-38, .cls-39, .cls-40, .cls-41, .cls-42, .cls-43 {
        fill: none;
      }

      .cls-40 {
        stroke: #292d95;
        stroke-width: 34.92px;
      }

      .cls-41 {
        stroke-width: 4.04px;
      }

      .cls-43 {
        stroke: #9ac4fd;
        stroke-width: 1.82px;
      }

      .cls-4 {
        opacity: .3;
      }
    </style>
  </defs>
  <g>
    <path class="cls-2" d="M95.78,74.12l1.56-2.4c12.71-19.58,14.79-38.16,5.55-59.59L95.91,0h0c-.02,13.81-11.22,14.88-25.03,14.86l-30.77-.06c-14.51-.03-26.29,11.71-26.32,26.22l-.07,37.93,82.05-4.84Z"/>
    <g>
      <path class="cls-2" d="M139.16,462.15h14.71v29.43h-7.38c-4.05,0-7.33-3.28-7.33-7.33v-22.1h0Z"/>
      <path class="cls-2" d="M153.88,473.84h1.66c9.79,0,17.73,7.95,17.73,17.73h-19.39v-17.73h0Z"/>
    </g>
    <g>
      <path class="cls-2" d="M74.75,456.11h14.71v29.43h-7.38c-4.05,0-7.33-3.28-7.33-7.33v-22.1h0Z" transform="translate(150.77 -2.15) rotate(18.15)"/>
      <path class="cls-2" d="M86.8,472.83h1.66c9.79,0,17.73,7.95,17.73,17.73h-19.39v-17.73h0Z" transform="translate(154.87 -6.09) rotate(18.15)"/>
    </g>
    <polyline class="cls-38" points="125.42 329.89 147.66 400.59 146.52 468.65"/>
    <polyline class="cls-38" points="100.15 333.81 103.8 405.02 85.3 460.99"/>
    <rect class="cls-2" x=".02" y="43.44" width="116.86" height="73.78" rx="27.67" ry="27.67" transform="translate(116.75 160.76) rotate(-179.9)"/>
    <path class="cls-37" d="M66,334.07l75.6-26.75-5.25-96.2c-1.13-20.79-21.93-34.65-41.55-27.71l-70.33,24.88c-19.63,6.94-27.07,30.8-14.88,47.68l56.42,78.1Z"/>
    <path class="cls-35" d="M113.19,347.24c-17.34,6.13-36.02,.32-47.19-13.16l75.6-26.75c-.2,17.5-11.07,33.78-28.41,39.91Z"/>
    <circle class="cls-36" cx="61.18" cy="193.99" r="32.24"/>
    <g>
      <rect class="cls-12" x="38.72" y="145.54" width="47.46" height="47.63" transform="translate(-107.01 231.49) rotate(-89.9)"/>
      <circle class="cls-12" cx="62.42" cy="192.98" r="23.8"/>
      <rect class="cls-4" x="38.63" y="148.23" width="47.63" height="44.75" transform="translate(124.58 341.32) rotate(-179.9)"/>
    </g>
    <line class="cls-43" x1="93.05" y1="222.91" x2="121.9" y2="304.47"/>
    <circle class="cls-12" cx="61.1" cy="92.05" r="8.29"/>
    <rect class="cls-12" x="-14.06" y="71.24" width="144.21" height="82.04" rx="41.02" ry="41.02" transform="translate(-54.32 170.11) rotate(-89.9)"/>
    <g>
      <circle class="cls-3" cx="46.06" cy="99.5" r="2.94"/>
      <circle class="cls-3" cx="71.73" cy="99.55" r="2.94"/>
    </g>
    <path class="cls-36" d="M82.2,246.29h0c5.34,0,9.67,4.33,9.67,9.67v9.67h-19.33v-9.67c0-5.34,4.33-9.67,9.67-9.67Z" transform="translate(245.05 469.83) rotate(160.52)"/>
    <g>
      <line class="cls-41" x1="48.89" y1="77.99" x2="33.56" y2="77.96"/>
      <line class="cls-41" x1="83.26" y1="78.05" x2="67.93" y2="78.02"/>
    </g>
    <path class="cls-2" d="M47.67,69.96l26.94,.05c12.06,.02,21.85-9.73,21.87-21.79v-6.15c.04-13.46-11.34-23.2-22.79-19.52l-39.14,12.59c-5.12,1.65-8.65,6.93-8.67,12.95h0c-.02,12.06,9.73,21.85,21.79,21.87Z"/>
    <path class="cls-9" d="M58.79,145.34c-8.67-.02-15.69-7.06-15.68-15.74l31.41,.06c-.02,8.67-7.06,15.69-15.74,15.68Z"/>
    <g>
      <circle class="cls-2" cx="83.91" cy="127.42" r="5.02"/>
      <circle class="cls-2" cx="73.87" cy="127.4" r="5.02"/>
      <circle class="cls-2" cx="63.84" cy="127.38" r="5.02"/>
      <circle class="cls-2" cx="53.8" cy="127.36" r="5.02"/>
      <circle class="cls-2" cx="43.76" cy="127.34" r="5.02"/>
      <circle class="cls-2" cx="33.72" cy="127.33" r="5.02"/>
      <path class="cls-2" d="M28.72,116.03h60.23v2.04c0,5.13-4.17,9.3-9.3,9.3H38.02c-5.13,0-9.3-4.17-9.3-9.3v-2.04h0Z" transform="translate(117.44 243.51) rotate(-179.9)"/>
    </g>
    <path class="cls-13" d="M46.09,112.3c-.01,6.77,5.47,12.27,12.24,12.28,6.77,.01,12.27-5.47,12.28-12.24"/>
    <path class="cls-39" d="M48.06,156.13c5.65-5.63,14.79-5.61,20.42,.04"/>
    <g>
      <circle class="cls-42" cx="42.42" cy="100.29" r="12.22"/>
      <circle class="cls-42" cx="75.32" cy="100.35" r="12.22"/>
      <line class="cls-42" x1="63.1" y1="100.33" x2="54.63" y2="100.31"/>
    </g>
  </g>
  <g>
    <path class="cls-1" d="M105.75,217.33c-.43-1.83-.9-3.66-1.27-5.51-2.16-10.7-3.37-21.5-3.47-32.42-.08-8.12,.46-16.21,1.64-24.25,.14-.99,.41-1.92,.83-2.84,3.31-7.28,7.81-13.76,13.28-19.58,3.49-3.72,7.31-7.08,11.4-10.13,.26-.2,.56-.35,.84-.52,.11,.45,.13,.95,.34,1.35,.81,1.57,2.2,2.49,3.77,3.18,.03,.01,.09-.03,.21-.08-.25-.39-.5-.77-.75-1.15-.86-1.33-1.72-2.67-2.58-4,.99-.7,1.96-1.42,2.96-2.1,.66-.44,1.36-.81,2.05-1.21,.33,.39,.63,.82,1.01,1.16,1.16,1.04,2.35,2.04,3.52,3.06,.35,.31,.69,.64,1.03,.96,.74,.69,1.05,1.55,1.02,2.54,0,.37-.04,.75-.12,1.12-.25,1.2-.51,2.39-.79,3.58-.27,1.13-.32,2.2,.25,3.29,.41,.79,.87,1.56,1.28,2.35,.52,1.01,1.14,1.94,1.74,2.89,.71,1.16,1.43,2.31,2.13,3.47,.07,.12,.12,.26,.14,.4,.13,.95,.08,1.9-.41,2.74-.85,1.46-1.74,2.9-2.88,4.17-1.32,1.47-2.6,2.99-3.89,4.49-.68,.78-1.38,1.55-2.03,2.35-.83,1.02-1.31,2.16-1.1,3.53,.13,.88,.15,1.78,.31,2.66,.23,1.21,.29,2.42,.15,3.65-.15,1.36,.2,2.68,.33,4.34,.65-1.29,1.1-2.32,1.38-3.41,.37-1.45,.24-2.89,.04-4.35-.13-.98-.21-1.96-.35-2.94-.14-1,.16-1.84,.81-2.6,1.74-2.04,3.48-4.1,5.17-6.17,1.52-1.86,3.01-3.75,3.8-6.07,.06-.17,.17-.32,.3-.56,.27,.18,.51,.3,.71,.48,.52,.48,1.02,.97,1.52,1.47,.73,.73,1.48,1.45,2.17,2.22,.27,.3,.48,.71,.57,1.11,.18,.82,.26,1.67,.38,2.5,.18,1.26,.31,2.52,.54,3.77,.23,1.22,.82,2.19,2.12,2.58,.54,.16,1.09,.36,1.56,.67,1.32,.87,2.82,1.3,4.24,1.92,.19,.08,.42,.1,.63,.14,.02-.14,.05-.21,.03-.23-.25-.28-.51-.55-.76-.83-1.38-1.51-2.84-2.89-4.86-3.51-.55-.17-.87-.53-1.02-1.07-.09-.32-.18-.63-.23-.96-.31-1.76-.62-3.51-.92-5.27-.1-.57-.29-1.09-.71-1.51-.37-.36-.7-.76-1.09-1.1-1.37-1.15-2.76-2.28-4.13-3.43-.32-.27-.66-.58-.82-.95-.34-.78-.76-1.5-1.22-2.21-.92-1.42-1.82-2.84-2.66-4.3-.61-1.06-1.33-2.05-1.75-3.22-.23-.64-.35-1.25-.22-1.92,.26-1.29,.49-2.59,.71-3.89,.09-.56,.15-1.13,.14-1.69-.02-1.12-.4-2.16-1.21-2.92-1.24-1.15-2.58-2.21-3.87-3.3-.32-.27-.69-.51-.94-.84-.49-.64-1.05-.72-1.73-.39,.62-.67,1.49-.98,2.25-1.42,3.84-2.21,7.79-4.2,11.89-5.87,6.81-2.79,13.83-4.88,21.08-6.22,1.11-.21,2.22-.41,3.33-.6,.23-.04,.46-.01,.69-.01-.11,.11-.21,.22-.36,.37,.23,.11,.35,.2,.48,.23,1.64,.42,3.26,.89,4.81,1.57,2.84,1.25,5.81,2.2,8.54,3.73,.94,.53,1.96,.91,2.89,1.46,2.29,1.38,4.57,2.77,6.71,4.39,2.47,1.87,4.96,3.72,7.19,5.89,1.86,1.8,3.67,3.64,5.45,5.51,.64,.67,1.19,1.45,1.99,1.96,.49,1.32,1.23,2.55,1.38,3.98,.02,.23,.17,.44,.25,.66,.39,1.2,.82,2.4,1.14,3.62,.39,1.49,.68,3.01,1.01,4.52,.48,2.19,.97,4.39,1.44,6.58,.45,2.11,.86,4.22,1.73,6.22,.09,.21,.17,.44,.2,.67,.24,1.74,1.13,3.17,2.15,4.53,.33,.44,.8,.79,1.26,1.1,.73,.48,2.07,.32,2.76-.22,.58-.44,.99-.98,1.27-1.65,.68-1.6,.78-3.29,.71-4.99-.06-1.31-.25-2.61-.39-3.92,.44,.12,.71,.43,.94,.81,.24,.4,.5,.79,.74,1.19,.45,.77,.89,1.54,1.33,2.31,.59,1.01,1.18,2.02,1.77,3.03,.54,.93,1.13,1.85,1.57,2.82,.64,1.41,1.61,2.66,2.07,4.16,.04,.13,.16,.23,.23,.35,.26,.45,.54,.88,.75,1.35,.33,.73,.62,1.48,.94,2.22,.15,.34,.33,.67,.51,1,.25,.45,.55,.88,.75,1.34,.58,1.34,1.13,2.7,1.69,4.05,.11,.26,.28,.52,.29,.79,.09,1.26,.75,2.32,1.17,3.47,.16,.44,.41,.88,.46,1.33,.06,.63,.29,1.18,.52,1.75,.1,.26,.23,.52,.29,.8,.38,1.59,.71,3.2,1.13,4.78,.52,1.95,.88,3.93,1.24,5.91,.35,1.94,.6,3.9,.8,5.85,.21,2,.27,4.03,.26,6.05,0,2.35-.12,4.7-.23,7.05-.04,.84-.2,1.68-.28,2.52-.23,2.48-.73,4.92-1.23,7.37-.11,.54-.39,1.08-.18,1.66-.18,.07-.35,.16-.53,.2-2.06,.41-4.13,.82-6.19,1.23-2.16,.43-4.31,.86-6.47,1.29-2.11,.42-4.22,.84-6.33,1.25-1.93,.37-3.87,.69-5.79,1.08-2.25,.46-4.48,.97-6.72,1.45-1.83,.39-3.68,.66-5.51,1.08-2.37,.54-4.78,.91-7.17,1.37-2.48,.47-4.96,.96-7.44,1.44-.48,.09-.88,.32-1.14,.75-.06-.13-.14-.25-.18-.39-.29-1.15-1.19-1.55-2.21-1.67-.88-.11-1.79-.09-2.68-.05-1.03,.05-2.06,.21-3.09,.29-2.64,.2-5.17,.89-7.69,1.64-1.35,.4-2.67,.88-4.01,1.32-.09,.03-.18,.04-.28,.06-1.05,.26-2.1,.48-3.13,.78-1.22,.35-2.41,.77-3.62,1.16-.13,.04-.27,.07-.41,.11-.58,.17-1.18,.3-1.75,.52-.97,.37-1.92,.78-2.88,1.19-.3,.13-.65,.23-.87,.45-.47,.47-1.04,.6-1.6,.62-.2,.32-.35,.56-.5,.79-.31-.28-.64-.31-1.04-.2-.67,.18-1.36,.32-2.05,.47-3.24,.67-6.51,1.21-9.75,1.92-2.41,.52-4.85,.96-7.27,1.44-.56,.11-.92,.35-1.28,.73-.8,.85-1.64,1.66-2.46,2.49-.29-.22-.63-.41-.87-.68-.59-.67-1.12-1.38-1.7-2.06-2.5-2.98-5.01-5.96-7.51-8.94-2.32-2.76-4.65-5.53-6.98-8.29-1.78-2.11-3.58-4.21-5.37-6.32-1.21-1.43-2.42-2.86-3.62-4.31-.23-.28-.38-.64-.56-.97Zm38.75,.25c.54-.37,1.09-.72,1.61-1.11,1.6-1.19,2.82-2.77,4.17-4.21,2.26-2.4,4.41-4.91,6.59-7.38,1.46-1.66,2.91-3.34,4.35-5.03,.43-.5,.84-1.02,1.18-1.58,.51-.81,.76-1.69,.63-2.69-.12-.97-.46-1.81-1.02-2.59-1.1-1.54-2.41-2.88-3.81-4.14-1.69-1.51-3.49-2.87-5.29-4.23-1.65-1.25-3.31-2.48-4.97-3.71-.83-.61-1.68-1.21-2.54-1.78-1.02-.68-2.07-1.33-3.25-1.68-1.47-.43-2.92-.25-4.23,.5-1.97,1.15-3.48,2.83-4.94,4.56-1.58,1.87-3.13,3.76-4.59,5.73-1.09,1.47-2.27,2.88-3.38,4.34-1.26,1.64-2.47,3.32-3.98,4.75-.14,.13-.29,.24-.43,.37-.67,.6-.96,2.75-.35,3.45,.37,.42,.74,.86,1.17,1.22,2.14,1.77,4.3,3.52,6.45,5.28,1.46,1.19,2.9,2.4,4.38,3.57,1.55,1.22,3.12,2.42,4.7,3.61,1.31,.98,2.56,2.06,4.12,2.7,1.18,.48,2.26,.54,3.45,.05Zm91.37,2.82c-1.14-.24-2.26-.64-3.42-.5-1.7,.21-3.36,.05-5.04-.26-1.6-.29-3.16-.18-4.68,.56-1.52,.74-3.13,1.31-4.68,1.98-.69,.3-1.35,.3-2.06,.06-.66-.23-1.34-.45-2.02-.6-.64-.14-1.3-.25-1.95-.03-1.58,.54-2.91,1.5-4.17,2.56-.18,.15-.29,.38,.03,.63,.31-.11,.67-.22,1.01-.35,.79-.32,1.56-.66,2.35-.97,.86-.34,1.71-.37,2.6,0,.73,.31,1.5,.54,2.28,.73,.88,.22,1.75,.23,2.62-.17,1.28-.58,2.6-1.11,3.91-1.64,2.9-1.18,2.24-1.27,5.84-.71,2.56,.4,5.05,.09,7.39-1.3Z"/>
    <path class="cls-15" d="M105.75,217.33c.18,.32,.33,.68,.56,.97,1.19,1.45,2.4,2.88,3.62,4.31,1.79,2.11,3.58,4.21,5.37,6.32,2.33,2.76,4.65,5.52,6.98,8.29,2.51,2.98,5.01,5.96,7.51,8.94,.57,.68,1.11,1.4,1.7,2.06,.24,.27,.58,.45,.87,.68-.14,.24-.28,.48-.41,.73-.15,.3-.19,.61-.12,.95,.33,1.51,.65,3.02,.95,4.53,.44,2.25,.87,4.5,1.29,6.75,.25,1.33,.49,2.67,.75,4,.19,.96,.38,1.93,.58,2.89,.31,1.51,.63,3.02,.95,4.53,.04,.33,.06,.65,.13,.98,.45,2.3,.92,4.59,1.36,6.88,.13,.66,.44,1.09,1.09,1.34,.96,.37,1.91,.77,2.8,1.33,.59,.38,1.29,.6,2.03,.46,1.47-.29,2.94-.56,4.4-.9,2.64-.62,5.32-1.08,7.97-1.66,2.33-.51,4.68-.96,7.02-1.4,2.76-.53,5.52-1.06,8.27-1.62,3.53-.71,7.09-1.31,10.61-2.07,3.07-.66,6.16-1.18,9.22-1.87,3.06-.69,6.17-1.14,9.23-1.81,2.61-.57,5.24-1,7.85-1.57,1.83-.4,3.67-.71,5.5-1.11,2.88-.63,5.8-1.09,8.69-1.65,2.11-.41,4.22-.85,6.33-1.29,1.24-.25,2.47-.54,3.71-.78,2.53-.5,5.06-.97,7.58-1.46,1.47-.29,2.93-.61,4.4-.9,2.3-.45,4.6-.89,6.89-1.34,2.11-.42,4.22-.85,6.34-1.26,2.02-.4,4.05-.76,6.06-1.18,.59-.12,1.16-.36,1.59-.86,.82-.97,1.66-1.93,2.5-2.89,.27-.31,.37-.62,.28-1.03-.2-.91-.36-1.84-.54-2.76-.36-1.84-.71-3.68-1.07-5.51-.16-.73-.33-1.46-.47-2.19-.52-2.61-1.03-5.22-1.55-7.84-.45-2.29-.89-4.59-1.34-6.88-.31-1.6-.7-3.2-.93-4.82-.13-.92-.46-1.6-1.28-2.03,.39-.16,.54-.5,.66-.87,.43-1.39,.87-2.78,1.31-4.16,.32-.98,.72-1.95,.96-2.95,.5-2.11,1.32-4.11,1.95-6.18,.3-.99,.66-1.96,.97-2.95,.67-2.1,1.32-4.21,1.98-6.32,.31-.99,.66-1.96,.97-2.95,.38-1.21,.69-2.44,1.12-3.63,.38-1.06,.62-2.14,.79-3.25,.18-.32,.41-.62,.52-.97,.43-1.25,.79-2.51,1.22-3.76,1.82-5.26,5.07-9.41,9.78-12.38,3.11-1.96,6.5-3.16,10.17-3.55,.23-.02,.47,.01,.7,.02,.13,.3,.21,.66,.42,.89,.61,.69,.9,1.54,1.24,2.35,.4,.95,.75,1.93,1.2,2.86,.56,1.16,.74,2.42,1.09,3.63,.39,1.34,.62,2.73,.87,4.11,.34,1.89,.65,3.78,.92,5.68,.31,2.22,.6,4.45,.83,6.69,.1,.96,.39,1.94,.02,2.92-1.45-.75-2.92-.85-4.48-.3-2.31,.83-4.34,2.25-6.63,3.1-.09,.03-.18,.08-.24,.14-.55,.55-1.29,.75-1.98,1.06-.6,.27-1.23,.47-1.73,.94-.2,.19-.49,.28-.75,.39-1.39,.59-2.63,1.43-3.88,2.26-.74,.49-1.47,1-2.18,1.54-1.58,1.2-2.56,2.97-1.95,5.05,.33,1.12,.78,2.25,1.39,3.24,.55,.89,.95,1.83,1.38,2.77,.14,.3,.23,.64,.43,.89,.94,1.19,1.34,2.67,2.15,3.95,.81,1.27,1.54,2.59,2.57,3.68,1.49,1.58,3.28,2.2,5.79,1.26,1.94-.72,3.72-1.76,5.49-2.83,.96-.58,1.97-1.08,2.96-1.61,.14-.15,.29-.3,.43-.45l.13-.05s.13-.05,.13-.05c0,.23,.06,.47,.02,.69-.15,.88-.32,1.76-.51,2.63-.44,2.02-.86,4.05-1.37,6.05-.38,1.5-.9,2.96-1.35,4.45-.61,2.02-1.26,4.04-2.06,5.99-.79,1.91-1.79,3.72-2.7,5.58-1.02,2.08-2.24,4.02-3.54,5.92-.9,1.32-1.83,2.62-2.72,3.95-1.23,1.84-2.73,3.47-4.14,5.17-1.51,1.8-3.14,3.49-4.82,5.13-2.12,2.07-4.35,4.02-6.73,5.79-1.88,1.4-3.78,2.77-5.72,4.09-1.66,1.13-3.35,2.23-5.12,3.2-.78,.43-1.56,.86-2.32,1.31-1.37,.81-2.7,1.68-4.19,2.29-.17,.07-.37,.12-.51,.25-.72,.66-1.63,.92-2.49,1.3-.3,.13-.65,.22-.88,.43-.61,.56-1.38,.8-2.11,1.11-1,.43-2,.83-3,1.26-.34,.15-.66,.35-.99,.53-.41,.23-.8,.5-1.23,.68-2.78,1.17-5.57,2.32-8.36,3.48-.3,.13-.62,.31-.93,.32-.74,.02-1.36,.35-2.02,.61-.92,.37-1.85,.71-2.74,1.15-1.07,.53-2.24,.75-3.38,.96-1.29,.24-2.57,.53-3.85,.79-1.79,.36-3.58,.71-5.37,1.07-1.93,.39-3.86,.75-5.79,1.16-2.75,.59-5.48,1.24-8.24,1.79-.7,.14-1.37,.31-2.02,.6-1.59-.5-2.97-1.37-4.27-2.38-1.53-1.18-2.77-2.67-4.17-3.99-.78-.74-1.59-1.47-2.48-2.07-1.37-.92-2.91-1.25-4.57-1.07-1.46,.16-2.66,.91-3.8,1.7-1.42,1-2.66,2.24-3.71,3.64-.48,.64-.88,1.33-1.34,1.98-.98,1.38-1.93,2.76-3.4,3.71-.76,.5-1.6,.78-2.4,1.16-1.31-.42-2.63-.6-4.02-.58-1.7,.03-3.35,.37-5.01,.66-1.15,.2-2.3,.48-3.48,.52-1.38,.05-2.74-.1-3.99-.68-.93-.43-1.84-.94-2.7-1.51-.92-.61-1.92-1.01-2.94-1.35-2.02-.67-4.03-.33-5.88,.56-1.51,.73-2.9,1.71-4.28,2.68-1.27,.9-2.57,1.73-4.05,2.25-1.93-1.23-3.92-2.36-5.75-3.74-.65-.49-1.28-1.11-2.15-1.26h0c-.29-.3-.55-.64-.88-.88-2.6-1.83-5.05-3.86-7.49-5.89-1.65-1.38-3.21-2.87-4.81-4.3,.47-.86,.96-1.72,1.4-2.6,.78-1.57,1.27-3.24,1.55-4.96,.06-.37,.15-.74,.2-1.11,.33-2.15,1.36-3.88,3.06-5.22,.33-.26,.66-.53,.97-.82,.2-.19,.39-.41,.54-.65,.24-.38-.03-.96-.47-.96-.51,0-1.03,.07-1.53,.16-1.34,.24-2.63,.68-4,.74-2.82,.12-5.63,.24-8.45,.37-1.6,.07-3.2,.1-4.69,.79-.47-.29-.89,.26-1.44,.05-.87-1.01-1.68-2.15-2.46-3.33-1.81-2.73-3.62-5.46-4.99-8.45-.1-.21-.25-.4-.37-.6-.23-.41-.5-.8-.68-1.23-1.4-3.35-2.79-6.7-4.18-10.05-.16-.39-.27-.8-.39-1.2-.15-.49-.27-.99-.43-1.48-.39-1.25-.83-2.49-1.19-3.75-.31-1.08-.54-2.18-.81-3.27-.37-1.5-.8-2.98-1.11-4.49-.53-2.66-1.04-5.33-1.36-8.03-.36-2.99-.61-5.98-.63-8.99-.01-2.35-.08-4.7,.35-7.03,.22-1.2,.45-2.4,.66-3.6,.05-.27,.04-.55,.05-.82,1.09-.61,2.3-.86,3.49-1.08,7.64-1.38,14.46,.38,20.39,5.44,.37,.32,.63,.86,1.25,.79Zm-9.29,14.71c1.26,.68,1.94,1.99,3.32,2.71-.64-1.44-1.98-2.23-2.35-3.68,1.54-1.76,3.47-3.1,4.94-4.91-2.16,1.03-4.07,2.48-6.26,3.56-.6-.85-1.42-1.49-1.87-2.54,.3-.31,.6-.6,.88-.9,.32-.34,.64-.69,.94-1.05,.24-.29,.58-.53,.7-1.11-.87,.6-1.61,1.09-2.33,1.6q-1.14,.8-2.11-.08c-.14-.13-.27-.26-.41-.39-.68-.58-1.35-1.16-2.04-1.72-.12-.09-.31-.09-.56-.15,.41,1.67,1.67,2.7,2.46,4.1-1.21,.87-2.18,1.95-3.41,2.73-.28-.24-.53-.39-.7-.61-.47-.62-1.1-1.02-1.72-1.44-.2-.13-.47-.27-.61-.03-.09,.15-.02,.47,.1,.63,.47,.65,.99,1.25,1.47,1.89,.19,.25,.32,.54,.45,.77-.43,.93-1.39,1.39-1.63,2.46,.3,.01,.55,.09,.74,.02,.47-.2,.93-.44,1.36-.72,.81-.53,1.06-.53,1.71,.1,.38,.37,.56,.75,.2,1.24-.08,.11-.13,.26-.15,.39-.1,.8,.55,1.37,1.31,1.14,.4-.12,.79-.26,1.09-.37,.84,.43,1.15,1.32,2.15,1.63-.54-.77-.99-1.41-1.48-2.1,1.04-.89,2.04-1.74,3.04-2.59,.25-.21,.51-.39,.77-.6Zm184.88,11.99c.72,.29,1.44,.66,2.19,.88,1.41,.41,2.79,.31,4.08-.46,.53-.31,.83-.76,.72-1.4-.04-.21-.12-.4-.18-.58,.49-.32,1.12,.05,1.46-.57-.55-.18-1.09-.31-1.59-.53-.5-.21-1.14-.05-1.54-.55,.06-.09,.11-.2,.17-.21,1.41-.24,2.83-.47,4.25-.69q.07-.58,.9-1.08c-.34-.27-.64-.71-.98-.74-1.28-.13-2.47-.53-3.68-.9-.6-.18-1.33-.36-1.92,.05-.4,.28-.74,.32-1.17,.21-.22-.06-.47-.05-.7-.04-.29,.01-.48,.35-.38,.62,.2,.52,.63,.79,1.08,1.06,.3,.18,.76,.14,.87,.62-.78,.48-1.59,.76-2.54,.68-.34-.03-.76,.12-1.05,.32-.24,.16-.34,.52-.43,.68,.27,.85,1.02,.74,1.68,1.07-.67,.39-1.1,.83-1.26,1.57Zm-151.32,50.9c-.41-1.03-.94-1.42-1.63-1.46-.86-.05-1.47,.3-1.76,1.09-.12,.33-.09,.73-.09,1.1-.02,.94,.69,1.25,1.39,1.55,.65,.28,1.19,.03,1.65-.43,.61-.61,.64-1.32,.44-1.85Zm.68,3.84c.24,.53,.61,1,1.2,1.06,.69,.07,1.43,.06,1.84-.69,1.04-1.91,.93-2.18-1.18-2.76-.67-.18-1.19,.12-1.54,.69-.32,.52-.63,1.06-.33,1.7Zm73.65-11.74c-1.02,.41-1.39,1.19-1.01,2.12,.3,.73,1.36,1.1,2.17,.76,.71-.31,1.18-1.3,.95-2-.25-.75-1.31-1.2-2.1-.88Zm7.33,3.09c-.78,.33-1.22,1.37-.89,2.1,.26,.57,1.22,1.01,1.78,.82,.67-.23,1.21-1.61,.89-2.3-.31-.66-1.06-.92-1.78-.61Zm80.28-102.95c-.77,.34-.99,.75-.91,1.51,.07,.63,.56,1.34,1.03,1.39,.57,.05,.95-.31,1.3-.71,.34-.39,.37-.86,.32-1.33-.06-.61-.7-1.08-1.32-.99-.18,.03-.36,.11-.43,.13Zm-154,106.93c-.29-.71-1.03-1.06-1.71-.79-.7,.28-1.15,1.31-.87,2,.3,.73,.94,.99,1.73,.68,.92-.36,1.21-1,.85-1.89Zm76.59-8.22c.76-.32,1.06-1.05,.75-1.84-.22-.56-1.22-.94-1.81-.7-.64,.27-.98,1.38-.65,2.08,.27,.57,.98,.76,1.7,.46Zm70.96-92.03c.68-.29,1.01-1.08,.72-1.71-.3-.66-1.02-.89-1.76-.64-.86,.3-1.09,1.21-.81,1.66,.44,.72,1.05,1.12,1.85,.69Z"/>
    <path class="cls-6" d="M271.75,190.37c-.17,1.11-.41,2.19-.79,3.25-.43,1.19-.74,2.42-1.12,3.63-.31,.99-.65,1.96-.97,2.95-.67,2.1-1.32,4.21-1.98,6.32-.31,.99-.67,1.96-.97,2.95-.63,2.07-1.45,4.07-1.95,6.18-.24,1-.64,1.96-.96,2.95-.44,1.39-.88,2.78-1.31,4.16-.12,.37-.26,.71-.66,.87-1-.52-1.99-1.04-3-1.55-.55-.28-1.1-.39-1.76-.24-1.5,.36-3.03,.59-4.55,.89-2.16,.43-4.31,.87-6.47,1.31-.32-.22-.6-.04-.89,.08h0c-.22-.58,.07-1.12,.18-1.66,.5-2.44,.99-4.88,1.23-7.37,.08-.84,.24-1.68,.28-2.52,.11-2.35,.23-4.7,.23-7.05,0-2.02-.06-4.04-.26-6.05-.2-1.96-.45-3.91-.8-5.85-.36-1.98-.72-3.96-1.24-5.91-.42-1.58-.75-3.19-1.13-4.78-.07-.27-.19-.53-.29-.8-.23-.57-.46-1.12-.52-1.75-.04-.45-.3-.89-.46-1.33-.42-1.14-1.08-2.2-1.17-3.47-.02-.27-.19-.53-.29-.79-.56-1.35-1.11-2.71-1.69-4.05-.2-.47-.51-.89-.75-1.34-.18-.33-.36-.66-.51-1-.32-.74-.6-1.49-.94-2.22-.21-.47-.49-.9-.75-1.35-.07-.12-.19-.22-.23-.35-.46-1.5-1.44-2.74-2.07-4.16-.44-.98-1.03-1.89-1.57-2.82-.58-1.01-1.18-2.02-1.77-3.03-.45-.77-.88-1.54-1.33-2.31-.24-.4-.5-.79-.74-1.19-.22-.38-.5-.68-.94-.81-.28-2.47-.94-4.87-1.54-7.28-.5-2-1.07-3.97-1.54-5.98-.59-2.53-.72-5.11-.9-7.69-.03-.42,.02-.85,.09-1.27,.05-.25,.21-.48,.36-.79,.51,.33,.95,.59,1.37,.88,1.14,.78,2.33,.9,3.62,.37,.58-.24,1.09-.55,1.55-.96,.31-.28,.66-.5,.97-.73,.95,.35,1.6,.95,2.24,1.58,.64,.62,1.27,1.27,1.98,1.81,1.19,.9,2.5,1.29,3.95,.59,.15,.39,.36,.78,.45,1.19,.36,1.55,.72,3.1,1.32,4.58,.05,.13,.11,.26,.13,.4,.25,1.82,1.11,3.38,2.09,4.87,.78,1.18,2.34,1.59,3.44,.87,.64-.42,1.04-1.08,1.23-1.83,.23-.91,.41-1.83,.6-2.75,.26-1.29,.5-2.58,.77-3.86,.39-1.81,1.16-3.45,2.2-4.98,.1-.15,.27-.25,.41-.38,.7,1.22,1.44,2.42,2.1,3.67,2.89,5.45,5.43,11.05,7.67,16.8,.03,.09,.04,.18,.06,.28-.16,.17-.35,.32-.47,.51-.71,1.12-1.23,2.33-1.69,3.57-.29,.76-.7,1.42-1.23,2.04-.8,.92-1.53,1.9-2.24,2.8,.03,.25,.07,.39,.05,.53-.34,1.95-.67,3.89-1.06,5.83-.11,.55-.34,1.09-.62,1.57-.52,.86-1.13,1.55-2.28,1.69-.76,.09-1.49,.54-2.22,.84-.05,.02-.05,.16-.08,.24,.06,.06,.13,.17,.19,.17,.89-.05,1.8-.02,2.68-.18,1.25-.23,2.34-.82,2.92-2.01,.45-.93,.86-1.9,1.12-2.89,.36-1.36,.56-2.76,.83-4.14,.02-.09,.02-.19,.05-.28,.2-.69,.45-.87,1.09-.86,2.04,.05,4.01-.42,5.98-.85,.53,1.6,1.14,3.18,1.58,4.81,.99,3.67,1.96,7.35,2.83,11.05,1.14,4.85,1.96,9.76,2.64,14.69,.03,.18,0,.38,.01,.56-.16,.24-.09,.45,.07,.65,.04,.16,.08,.32,.13,.48Z"/>
    <path class="cls-11" d="M198.59,303.54c.65-.29,1.32-.46,2.02-.6,2.75-.55,5.49-1.2,8.24-1.79,1.92-.41,3.86-.78,5.79-1.16,1.79-.36,3.58-.71,5.37-1.07,1.29-.26,2.56-.55,3.85-.79,1.14-.21,2.3-.43,3.38-.96,.89-.44,1.82-.78,2.74-1.15,.65-.26,1.28-.59,2.02-.61,.31-.01,.63-.19,.93-.32,2.79-1.15,5.58-2.31,8.36-3.48,.43-.18,.82-.45,1.23-.68,.33-.18,.65-.38,.99-.53,1-.43,2-.83,3-1.26,.73-.31,1.5-.55,2.11-1.11,.23-.21,.58-.3,.88-.43,.86-.38,1.77-.64,2.49-1.3,.13-.12,.33-.18,.51-.25,1.48-.61,2.81-1.48,4.19-2.29,.77-.45,1.54-.89,2.32-1.31,1.77-.97,3.46-2.06,5.12-3.2,1.93-1.32,3.84-2.69,5.72-4.09,2.37-1.78,4.6-3.72,6.73-5.79,1.68-1.64,3.32-3.33,4.82-5.13,1.42-1.69,2.91-3.33,4.14-5.17,.89-1.33,1.82-2.63,2.72-3.95,1.3-1.9,2.52-3.85,3.54-5.92,.91-1.85,1.91-3.66,2.7-5.58,.81-1.96,1.45-3.97,2.06-5.99,.45-1.48,.97-2.95,1.35-4.45,.51-2,.92-4.03,1.37-6.05,.19-.87,.36-1.75,.51-2.63,.04-.22-.01-.46-.02-.69,1.47-.87,2.94-1.74,4.41-2.61,.91-.54,1.83-1.07,2.75-1.61-.14,.7-.44,1.32-.82,1.92-.62,.99-1.28,1.97-1.75,3.03-1.12,2.5-1.15,5.07-.18,7.64,.23,.61,.47,1.23,.76,1.81,.47,.97,1.04,1.86,1.95,2.49-.77,2.47-1.53,4.95-2.32,7.42-2.86,8.99-5.73,17.97-8.59,26.95-.61,1.93-1.16,3.88-1.8,5.81-1.26,3.78-3.32,7.07-6.29,9.75-.32,.31-.63,.62-.95,.93-.51,.23-1.02,.47-1.53,.69-3.97,1.66-7.94,3.31-11.92,4.96-.21,.09-.44,.14-.67,.21-.18-.01-.38-.06-.55-.02-2.81,.54-5.62,1.09-8.43,1.64-3.09,.61-6.17,1.23-9.25,1.84-3.04,.6-6.08,1.21-9.11,1.81-3.08,.61-6.17,1.23-9.25,1.85-3.08,.62-6.17,1.23-9.25,1.84-3.04,.61-6.08,1.21-9.11,1.82-3.08,.61-6.17,1.23-9.25,1.83-1.84,.36-3.69,.7-5.53,1.06-.52-.46-1-.98-1.56-1.38-.94-.68-1.93-1.3-2.91-1.95Z"/>
    <path class="cls-34" d="M238.99,130.69c-1.45,.7-2.76,.31-3.95-.59-.71-.54-1.34-1.19-1.98-1.81-.64-.62-1.29-1.23-2.24-1.58-.31,.23-.66,.45-.97,.73-.46,.41-.97,.72-1.55,.96-1.28,.53-2.48,.41-3.62-.37-.42-.29-.86-.55-1.37-.88-.15,.31-.31,.54-.36,.79-.08,.41-.12,.85-.09,1.27,.18,2.58,.31,5.15,.9,7.69,.47,2.01,1.04,3.98,1.54,5.98,.6,2.4,1.26,4.8,1.54,7.28,.14,1.31,.33,2.61,.39,3.92,.07,1.7-.04,3.38-.71,4.99-.28,.67-.69,1.21-1.27,1.65-.7,.54-2.03,.7-2.76,.22-.46-.3-.94-.66-1.26-1.1-1.02-1.36-1.91-2.79-2.15-4.53-.03-.23-.11-.46-.2-.67-.87-1.99-1.28-4.11-1.73-6.22-.47-2.2-.96-4.39-1.44-6.58-.33-1.51-.62-3.03-1.01-4.52-.32-1.22-.75-2.42-1.14-3.62-.07-.22-.22-.43-.25-.66-.15-1.44-.89-2.67-1.38-3.98-.2-.72-.33-1.47-.61-2.16-1-2.49-2.05-4.97-3.08-7.45-.13-.3-.22-.64-.42-.89-.94-1.14-1.15-2.68-2.12-3.79-.41-1.29-.96-2.56-1.19-3.89-.37-2.17-.53-4.38-.76-6.57-.02-.22,.03-.46,.05-.68,.33,.01,.66,0,.97,.04,8.66,1.34,17.01,3.7,24.94,7.47,.63,.3,1.24,.65,1.86,.98,.14,.59,.25,1.19,.44,1.76,.61,1.78,1.56,3.38,2.54,4.97,.66,1.07,1.39,2.1,1.82,3.31,.34,.97,.82,1.9,1.16,2.87,.36,1.01,.73,2.03,.94,3.07,.17,.86,.59,1.68,.51,2.59Z"/>
    <path class="cls-19" d="M203.05,306.87c1.84-.35,3.69-.7,5.53-1.06,3.09-.6,6.17-1.22,9.25-1.83,3.04-.6,6.08-1.21,9.11-1.82,3.08-.61,6.17-1.23,9.25-1.84,3.08-.62,6.17-1.23,9.25-1.85,3.04-.61,6.08-1.21,9.11-1.81,3.08-.61,6.17-1.23,9.25-1.84,2.81-.55,5.62-1.1,8.43-1.64,.18-.03,.37,.01,.55,.02-.34,.16-.68,.34-1.02,.48-4.35,1.81-8.71,3.61-13.06,5.44-.97,.41-1.99,.56-3.01,.76-7.81,1.56-15.62,3.1-23.43,4.65-7.21,1.43-14.42,2.86-21.63,4.29-7.3,1.45-14.61,2.89-21.91,4.33-7.35,1.45-14.7,2.91-22.04,4.37-1.34,.27-2.67,.55-4.08,.83,0,.42-.02,.79,.02,1.15,.33,3.28,.68,6.56,1.01,9.84,.02,.23,0,.46,0,.69-.45-.26-.94-.12-1.38-.03-3.31,.64-6.61,1.31-9.92,1.96-4.09,.8-8.18,1.6-12.27,2.38-.57,.11-.77,.46-.92,.91-.08-.17-.19-.33-.25-.5-1.82-5.28-3.64-10.56-5.45-15.85-.09-.27-.15-.54-.22-.81,.28,.01,.56,0,.83,.04,.92,.16,1.84,.35,2.76,.52,2.72,.5,5.43,.3,8.12-.22,2.57-.5,5.13-1.08,7.71-1.58,3.45-.67,6.9-1.3,10.35-1.95,.23-.04,.44-.16,.66-.24h0c.2,0,.41,0,.61,0,.82-.18,1.65-.38,2.47-.55,2.62-.53,5.25-1.04,7.87-1.56,3.04-.6,6.07-1.21,9.11-1.82,3.08-.61,6.17-1.22,9.25-1.83,2.53-.49,5.07-.96,7.6-1.46,.83-.16,1.64-.39,2.46-.59Z"/>
    <path class="cls-11" d="M80.62,212.17c-.02,.27,0,.55-.05,.82-.21,1.2-.43,2.4-.66,3.6-.43,2.33-.37,4.68-.35,7.03,.02,3.01,.27,6,.63,8.99,.32,2.7,.83,5.37,1.36,8.03,.3,1.51,.74,3,1.11,4.49,.27,1.09,.5,2.19,.81,3.27,.36,1.26,.8,2.5,1.19,3.75,.15,.49,.28,.99,.43,1.48,.12,.4,.23,.81,.39,1.2,1.39,3.35,2.78,6.71,4.18,10.05,.18,.43,.45,.82,.68,1.23,.12,.2,.27,.39,.37,.6,1.37,2.99,3.17,5.72,4.99,8.45,.78,1.17,1.58,2.32,2.46,3.33,.54,.21,.97-.35,1.44-.05-.35,.16-.7,.31-1.05,.47-.71,.29-1.42,.58-2.13,.87-.62-.7-1.26-1.39-1.86-2.11-7.08-8.39-14.16-16.78-21.23-25.16-.85-1.01-1.71-2.01-2.55-3.02-9.02-10.82-6.83-26.99,5.06-34.95,1.49-1,3.07-1.85,4.81-2.35Z"/>
    <path class="cls-11" d="M300.74,198.86c.37-.97,.08-1.95-.02-2.92-.23-2.23-.52-4.46-.83-6.69-.27-1.9-.58-3.79-.92-5.68-.25-1.38-.47-2.77-.87-4.11-.36-1.21-.53-2.47-1.09-3.63-.45-.93-.8-1.91-1.2-2.86-.35-.82-.63-1.67-1.24-2.35-.21-.23-.28-.59-.42-.89,.46-.05,.93-.15,1.39-.14,8.75,.11,15.66,3.7,20.37,11.11,3.68,5.77,4.61,12.11,2.78,18.7-1.29,4.62-2.9,9.15-4.37,13.71-.82-.23-1.57,.05-2.31,.35-.37-.81-.62-1.7-1.12-2.42-1.81-2.61-3.65-5.19-5.56-7.72-1.29-1.71-2.68-3.37-4.59-4.47Zm9.86-8.75c.25,.24,.38,.37,.52,.49,.85,.77,2.17,.43,2.44-1.11,.11-.63-.42-1.32-1.05-1.44-.63-.12-1.51,.33-1.71,.93-.12,.34-.13,.72-.2,1.12Z"/>
    <path class="cls-34" d="M163.67,314.68c-.22,.08-.44,.2-.66,.24-3.45,.65-6.91,1.28-10.35,1.95-2.57,.5-5.13,1.08-7.71,1.58-2.69,.52-5.4,.72-8.12,.22-.92-.17-1.84-.36-2.76-.52-.27-.05-.55-.03-.83-.04-.37-.2-.72-.43-1.11-.58-4.39-1.64-7.99-4.33-10.87-8.04-1.61-2.08-3.38-4.05-5.07-6.07-.12-.14-.21-.31-.31-.46-.05-.21-.11-.43-.16-.63,2.25-.78,5.56-.21,7.74,1.14,.23,.14,.5,.22,.75,.32h0c.11,.15,.2,.32,.33,.44,1.3,1.14,2.6,2.27,3.91,3.39,.39,.33,.81,.63,1.25,.89,.75,.44,1.54,.67,2.4,.29,1.48-.51,2.77-1.34,4.05-2.25,1.38-.97,2.77-1.95,4.28-2.68,1.84-.9,3.85-1.24,5.88-.56,1.02,.34,2.02,.74,2.94,1.35,.86,.57,1.77,1.08,2.7,1.51,1.26,.58,2.61,.73,3.99,.68,1.18-.04,2.32-.31,3.48-.52,1.66-.29,3.31-.63,5.01-.66,1.38-.03,2.71,.16,4.02,.58-.71,.44-1.5,.78-2.1,1.34-1.09,1.02-2.07,2.17-2.44,3.67-.28,1.12-.65,2.25-.23,3.42Z"/>
    <path class="cls-6" d="M203.81,103.63c-.02,.23-.07,.46-.05,.68,.23,2.19,.39,4.4,.76,6.57,.23,1.33,.78,2.6,1.19,3.89,.97,1.12,1.18,2.66,2.12,3.79,.2,.25,.3,.59,.42,.89,1.03,2.48,2.08,4.95,3.08,7.45,.28,.69,.41,1.44,.61,2.16-.8-.52-1.35-1.29-1.99-1.96-1.78-1.87-3.59-3.71-5.45-5.51-2.24-2.17-4.72-4.01-7.19-5.89-2.14-1.62-4.42-3.02-6.71-4.39-.92-.55-1.95-.94-2.89-1.46-2.72-1.53-5.7-2.48-8.54-3.73-1.55-.68-3.18-1.15-4.81-1.57-.13-.03-.25-.12-.48-.23,.14-.15,.25-.26,.36-.37,.92-.16,1.84-.36,2.77-.47,8.85-1.09,17.7-1.08,26.54,.07,.09,.01,.18,.06,.26,.09Z"/>
    <path class="cls-30" d="M238.99,130.69c.08-.91-.34-1.73-.51-2.59-.2-1.05-.57-2.06-.94-3.07-.35-.97-.82-1.9-1.16-2.87-.43-1.21-1.16-2.24-1.82-3.31-.98-1.59-1.93-3.2-2.54-4.97-.2-.57-.3-1.17-.44-1.76,.43,.18,.87,.34,1.27,.55,5.54,2.94,10.63,6.53,15.22,10.8,.73,.68,1.4,1.38,1.88,2.25,.56,1.03,1.34,1.93,1.69,3.07-.14,.12-.31,.23-.41,.38-1.04,1.52-1.82,3.17-2.2,4.98-.27,1.28-.51,2.58-.77,3.86-.19,.92-.37,1.84-.6,2.75-.19,.75-.59,1.41-1.23,1.83-1.1,.72-2.66,.3-3.44-.87-.99-1.5-1.84-3.05-2.09-4.87-.02-.14-.08-.27-.13-.4-.6-1.48-.96-3.03-1.32-4.58-.09-.41-.3-.79-.45-1.19Z"/>
    <path class="cls-18" d="M139.16,335.26c.15-.46,.35-.81,.92-.91,4.1-.77,8.18-1.57,12.27-2.38,3.31-.65,6.61-1.33,9.92-1.96,.44-.09,.93-.23,1.38,.03,.06,.37,.15,.74,.19,1.11,.22,2.01,.42,4.03,.63,6.04,.03,.33,.03,.65,.05,1-1.12,.58-2.24,1-3.46,1.23-6.2,1.2-12.38,2.45-18.58,3.67-.14,.03-.28,.04-.49,.07-.11-.17-.28-.34-.35-.54-.83-2.45-1.65-4.91-2.48-7.37Z"/>
    <path class="cls-30" d="M312.01,213.47c.74-.3,1.49-.58,2.31-.35-.16,.63-.3,1.28-.5,1.9-1.94,6.1-3.89,12.19-5.85,18.29-.34,1.07-.74,2.12-1.11,3.18-.91-.63-1.48-1.53-1.95-2.49-.29-.59-.53-1.2-.76-1.81-.97-2.57-.94-5.14,.18-7.64,.47-1.06,1.13-2.04,1.75-3.03,.38-.6,.68-1.22,.82-1.92,.86-.56,1.71-1.13,2.57-1.69,1.13-.75,1.95-1.74,2.29-3.07,.11-.45,.17-.91,.25-1.37Z"/>
    <path class="cls-8" d="M124.2,303.79c-.25-.11-.52-.18-.75-.32-2.18-1.35-5.48-1.92-7.74-1.14,.05,.2,.1,.42,.16,.63-.42-.49-.85-.97-1.27-1.47-1.69-2-3.37-3.99-5.05-6-.18-.21-.32-.45-.49-.68,.68-.57,1.29-1.19,1.7-1.99,.09-.04,.17-.07,.26-.11,1.6,1.44,3.16,2.93,4.81,4.3,2.44,2.04,4.89,4.06,7.49,5.89,.33,.24,.59,.58,.88,.88Z"/>
    <path class="cls-24" d="M264.49,158.12c-1.97,.43-3.94,.91-5.98,.85-.64-.02-.89,.17-1.09,.86-.03,.09-.03,.19-.05,.28-.27,1.38-.47,2.78-.83,4.14-.26,1-.67,1.97-1.12,2.89-.58,1.19-1.68,1.78-2.92,2.01-.87,.16-1.78,.14-2.68,.18-.06,0-.13-.11-.19-.17,.02-.08,.03-.22,.08-.24,.74-.3,1.46-.75,2.22-.84,1.15-.14,1.76-.83,2.28-1.69,.29-.48,.51-1.03,.62-1.57,.39-1.94,.71-3.89,1.06-5.83,.02-.13-.02-.28-.05-.53,.71-.9,1.44-1.88,2.24-2.8,.54-.62,.95-1.28,1.23-2.04,.46-1.24,.98-2.45,1.69-3.57,.12-.19,.31-.34,.47-.51,.15,.37,.3,.74,.45,1.11,.07,1.17,.03,1.16-.43,2.41-.54,1.47-1.25,2.83-2.39,3.93-.12,.11-.16,.3-.27,.52,1.77-.06,3.38-.65,5.06-.56,.2,.35,.36,.63,.53,.91,.08,.07,.1,.16,.06,.25Z"/>
    <path class="cls-8" d="M107.9,293.4c-.11-.08-.25-.14-.34-.24-3.37-4-6.74-8-10.11-12.01-.12-.14-.2-.32-.3-.48,.6-.25,1.19-.5,1.79-.75,.47-.19,.93-.41,1.42-.57,.25-.08,.53-.04,.8-.05-.39,.17-.78,.32-1.16,.51-.19,.09-.34,.25-.55,.41,.36,.49,.63,.92,.96,1.31,2.49,2.98,5.11,5.84,7.83,8.6,.41,.42,.8,.94,1.49,.98-.11,.24-.23,.48-.34,.72-.19,.2-.37,.4-.56,.59-.31,.33-.63,.66-.95,.98Z"/>
    <path class="cls-5" d="M264.43,157.86c-.16-.28-.33-.56-.53-.91-1.67-.09-3.28,.5-5.06,.56,.11-.22,.15-.41,.27-.52,1.14-1.11,1.85-2.46,2.39-3.93,.46-1.25,.5-1.23,.43-2.41,.12,.25,.26,.49,.35,.75,.67,1.88,1.34,3.76,2,5.65,.09,.26,.1,.54,.15,.81Z"/>
    <path class="cls-23" d="M129.97,121.39c.86,1.33,1.72,2.67,2.58,4,.25,.38,.49,.76,.75,1.15-.12,.05-.18,.1-.21,.08-1.57-.69-2.95-1.62-3.77-3.18-.21-.4-.23-.9-.34-1.35,.21-.4,.59-.56,.98-.71Z"/>
    <path class="cls-21" d="M107.9,293.4c.32-.33,.63-.65,.95-.98,.19-.2,.37-.39,.56-.59,.79-.13,1.09,.4,1.35,.99-.4,.8-1.02,1.42-1.7,1.99-.5-.37-.9-.83-1.15-1.41Z"/>
    <path class="cls-25" d="M98.95,279.93c-.6,.25-1.19,.5-1.79,.75-.26-.3-.51-.6-.77-.9,.71-.29,1.42-.58,2.13-.87,.14,.34,.29,.68,.43,1.02Z"/>
    <path class="cls-22" d="M286.92,287.35c.32-.31,.63-.62,.95-.93q-.05,.68-.95,.93Z"/>
    <path class="cls-7" d="M283.96,295.67c-.05-.1-.1-.2-.15-.29,.06-.09,.11-.19,.17-.28,.06,.09,.17,.18,.16,.26-.01,.11-.12,.21-.18,.32Z"/>
    <path class="cls-15" d="M271.63,189.89c-.15-.2-.23-.42-.07-.65,.02,.22,.04,.44,.07,.65Z"/>
    <path class="cls-14" d="M245.28,224.04c2.16-.44,4.31-.88,6.47-1.31,1.51-.3,3.05-.53,4.55-.89,.66-.16,1.21-.04,1.76,.24,1,.51,2,1.03,3,1.55,.82,.43,1.15,1.11,1.28,2.03,.23,1.62,.62,3.21,.93,4.82,.45,2.29,.89,4.59,1.34,6.88,.51,2.61,1.03,5.23,1.55,7.84,.15,.73,.31,1.46,.47,2.19-1.32,.29-2.64,.59-3.97,.86-1.56,.31-3.13,.59-4.69,.9-2.11,.41-4.22,.84-6.34,1.25-2.11,.42-4.22,.84-6.34,1.26-2.16,.43-4.32,.85-6.47,1.28-2.57,.51-5.14,1.03-7.71,1.54-2.16,.43-4.32,.85-6.47,1.28-2.07,.41-4.13,.82-6.2,1.24-2.66,.53-5.33,1.05-7.99,1.58-2.11,.42-4.22,.87-6.33,1.29-1.74,.35-3.49,.66-5.24,1-1.93,.37-3.86,.75-5.79,1.14-1.51,.3-3.02,.63-4.54,.93-1.33,.27-2.67,.51-4,.77-1.24,.25-2.47,.53-3.71,.78-2.53,.5-5.06,.97-7.58,1.46-2.11,.41-4.22,.83-6.34,1.25-2.11,.42-4.22,.84-6.34,1.26-2.11,.42-4.22,.85-6.33,1.27-2.16,.43-4.32,.85-6.47,1.28-2.11,.42-4.22,.83-6.34,1.26-1.7,.34-3.39,.69-5.09,1.04-.32-1.51-.64-3.02-.95-4.53-.2-.96-.4-1.92-.58-2.89-.26-1.33-.5-2.67-.75-4-.43-2.25-.85-4.5-1.29-6.75-.3-1.51-.62-3.02-.95-4.53-.08-.35-.03-.65,.12-.95,.13-.25,.27-.49,.41-.73,.82-.83,1.66-1.65,2.46-2.49,.36-.38,.72-.62,1.28-.73,2.42-.48,4.86-.91,7.27-1.44,3.24-.7,6.5-1.25,9.75-1.92,.69-.14,1.37-.28,2.05-.47,.4-.11,.74-.08,1.04,.2-.03,2.21,.79,4.01,2.53,5.42,.75,.61,1.62,.96,2.48,1.33,1.5,.64,2.81,1.49,3.69,2.93,.66,1.08,1.42,2.1,2.13,3.15,.82,1.21,1.6,2.44,2.47,3.61,.44,.6,.99,1.15,1.57,1.61,.96,.76,1.92,.62,2.74-.28,.56-.61,.87-1.34,1.07-2.13,.2-.82,.38-1.65,.56-2.48,.32-1.41,.9-2.66,2.08-3.59,.89-.7,1.77-1.41,2.57-2.21,1.09-1.1,2.22-2.21,3.1-3.47,.96-1.37,2.04-2.58,3.32-3.63,.44-.36,.86-.74,1.28-1.12,.99-.89,1.85-1.9,2.52-3.03,.53-.89,1-1.83,.77-2.94,.26-.43,.66-.66,1.14-.75,2.48-.48,4.96-.97,7.44-1.44,2.39-.45,4.8-.82,7.17-1.37,1.83-.42,3.68-.69,5.51-1.08,2.24-.48,4.47-.99,6.72-1.45,1.93-.39,3.86-.71,5.79-1.08,2.11-.4,4.22-.83,6.33-1.25,2.16-.43,4.31-.86,6.47-1.29,2.06-.41,4.13-.81,6.19-1.23,.18-.04,.35-.13,.53-.2h0c.32,.22,.6,.05,.89-.08Z"/>
    <path class="cls-10" d="M144.5,217.58c-1.18,.49-2.27,.43-3.45-.05-1.56-.64-2.8-1.71-4.12-2.7-1.58-1.18-3.15-2.38-4.7-3.61-1.48-1.17-2.92-2.38-4.38-3.57-2.15-1.76-4.31-3.5-6.45-5.28-.43-.36-.8-.8-1.17-1.22-.61-.7-.32-2.85,.35-3.45,.14-.13,.29-.24,.43-.37,1.52-1.43,2.73-3.1,3.98-4.75,1.11-1.46,2.29-2.87,3.38-4.34,1.46-1.97,3.01-3.86,4.59-5.73,1.46-1.73,2.96-3.42,4.94-4.56,1.3-.76,2.76-.93,4.23-.5,1.18,.35,2.23,1,3.25,1.68,.86,.57,1.71,1.17,2.54,1.78,1.67,1.23,3.32,2.46,4.97,3.71,1.8,1.36,3.61,2.72,5.29,4.23,1.41,1.26,2.71,2.61,3.81,4.14,.56,.78,.9,1.62,1.02,2.59,.13,1-.12,1.88-.63,2.69-.35,.56-.76,1.08-1.18,1.58-1.44,1.69-2.88,3.37-4.35,5.03-2.18,2.48-4.33,4.98-6.59,7.38-1.35,1.43-2.57,3.02-4.17,4.21-.52,.39-1.07,.74-1.61,1.11Z"/>
    <path class="cls-34" d="M191.09,235.23c.23,1.11-.24,2.05-.77,2.94-.68,1.14-1.54,2.14-2.52,3.03-.42,.38-.84,.76-1.28,1.12-1.29,1.05-2.37,2.25-3.32,3.63-.88,1.26-2.01,2.37-3.1,3.47-.79,.8-1.68,1.52-2.57,2.21-1.18,.93-1.76,2.18-2.08,3.59-.19,.83-.36,1.66-.56,2.48-.19,.79-.51,1.51-1.07,2.13-.82,.9-1.78,1.05-2.74,.28-.58-.46-1.13-1.01-1.57-1.61-.87-1.17-1.65-2.4-2.47-3.61-.71-1.05-1.47-2.07-2.13-3.15-.88-1.44-2.2-2.29-3.69-2.93-.86-.37-1.73-.72-2.48-1.33-1.74-1.4-2.55-3.21-2.53-5.42,.15-.24,.3-.48,.5-.79,.56-.01,1.13-.15,1.6-.62,.22-.22,.57-.32,.87-.45,.96-.41,1.91-.82,2.88-1.19,.57-.22,1.16-.35,1.75-.52,.14-.04,.28-.06,.41-.11,1.21-.39,2.4-.81,3.62-1.16,1.03-.3,2.09-.52,3.13-.78,.09-.02,.19-.04,.28-.06,1.34-.44,2.66-.92,4.01-1.32,2.52-.75,5.05-1.44,7.69-1.64,1.03-.08,2.06-.24,3.09-.29,.89-.04,1.79-.06,2.68,.05,1.02,.12,1.92,.52,2.21,1.67,.03,.13,.12,.26,.18,.39Z"/>
    <path class="cls-28" d="M135,118.06c.68-.33,1.24-.25,1.73,.39,.25,.33,.62,.57,.94,.84,1.29,1.1,2.63,2.15,3.87,3.3,.81,.76,1.19,1.8,1.21,2.92,0,.56-.05,1.13-.14,1.69-.21,1.3-.44,2.6-.71,3.89-.14,.68-.02,1.28,.22,1.92,.42,1.17,1.14,2.16,1.75,3.22,.84,1.46,1.74,2.89,2.66,4.3,.46,.71,.89,1.43,1.22,2.21,.16,.37,.5,.68,.82,.95,1.37,1.16,2.76,2.28,4.13,3.43,.39,.33,.73,.73,1.09,1.1,.42,.42,.61,.94,.71,1.51,.31,1.76,.61,3.51,.92,5.27,.06,.32,.15,.64,.23,.96,.15,.54,.47,.91,1.02,1.07,2.02,.62,3.48,2,4.86,3.51,.25,.28,.51,.55,.76,.83,.02,.02,0,.09-.03,.23-.22-.05-.44-.06-.63-.14-1.42-.62-2.92-1.06-4.24-1.92-.47-.31-1.02-.5-1.56-.67-1.3-.39-1.89-1.36-2.12-2.58-.23-1.24-.36-2.51-.54-3.77-.12-.84-.2-1.68-.38-2.5-.09-.39-.3-.8-.57-1.11-.69-.77-1.44-1.49-2.17-2.22-.5-.5-1-.99-1.52-1.47-.2-.18-.44-.3-.71-.48-.13,.23-.24,.38-.3,.56-.79,2.32-2.28,4.21-3.8,6.07-1.7,2.08-3.43,4.13-5.17,6.17-.65,.77-.95,1.6-.81,2.6,.13,.98,.22,1.96,.35,2.94,.19,1.45,.32,2.9-.04,4.35-.28,1.1-.73,2.12-1.38,3.41-.14-1.66-.49-2.97-.33-4.34,.14-1.23,.08-2.43-.15-3.65-.17-.87-.18-1.78-.31-2.66-.2-1.36,.27-2.51,1.1-3.53,.65-.8,1.36-1.57,2.03-2.35,1.3-1.5,2.57-3.02,3.89-4.49,1.14-1.27,2.03-2.71,2.88-4.17,.49-.84,.54-1.79,.41-2.74-.02-.14-.07-.28-.14-.4-.71-1.16-1.42-2.32-2.13-3.47-.59-.96-1.22-1.89-1.74-2.89-.41-.79-.87-1.55-1.28-2.35-.57-1.09-.52-2.16-.25-3.29,.28-1.19,.54-2.38,.79-3.58,.08-.37,.11-.75,.12-1.12,.02-.99-.28-1.85-1.02-2.54-.35-.32-.68-.65-1.03-.96-1.17-1.02-2.36-2.02-3.52-3.06-.38-.34-.67-.77-1.01-1.16,0,0,.02-.02,.02-.02Z"/>
    <path class="cls-28" d="M235.86,220.4c-2.33,1.39-4.82,1.7-7.39,1.3-3.6-.56-2.94-.47-5.84,.71-1.31,.53-2.62,1.06-3.91,1.64-.87,.4-1.74,.39-2.62,.17-.77-.19-1.54-.42-2.28-.73-.89-.38-1.73-.35-2.6,0-.79,.31-1.56,.65-2.35,.97-.34,.14-.7,.25-1.01,.35-.33-.25-.21-.48-.03-.63,1.26-1.06,2.59-2.02,4.17-2.56,.65-.22,1.31-.11,1.95,.03,.69,.15,1.36,.36,2.02,.6,.7,.25,1.36,.24,2.06-.06,1.56-.67,3.16-1.24,4.68-1.98,1.52-.74,3.08-.85,4.68-.56,1.67,.31,3.34,.46,5.04,.26,1.17-.14,2.28,.26,3.42,.5Z"/>
    <path class="cls-17" d="M136.36,273.28c1.7-.35,3.39-.7,5.09-1.04,2.11-.42,4.22-.84,6.34-1.26,2.16-.43,4.32-.85,6.47-1.28,2.11-.42,4.22-.85,6.33-1.27,2.11-.42,4.22-.84,6.34-1.26,2.11-.42,4.22-.84,6.34-1.25,2.53-.49,5.06-.97,7.58-1.46,1.24-.24,2.47-.53,3.71-.78,1.33-.27,2.67-.51,4-.77,1.51-.3,3.02-.63,4.54-.93,1.93-.39,3.86-.77,5.79-1.14,1.75-.34,3.5-.65,5.24-1,2.11-.42,4.22-.86,6.33-1.29,2.66-.53,5.33-1.05,7.99-1.58,2.07-.41,4.13-.83,6.2-1.24,2.16-.43,4.32-.85,6.47-1.28,2.57-.51,5.14-1.03,7.71-1.54,2.16-.43,4.32-.85,6.47-1.28,2.11-.42,4.22-.84,6.34-1.26,2.11-.42,4.22-.84,6.34-1.25,1.56-.3,3.13-.58,4.69-.9,1.33-.27,2.65-.57,3.97-.86,.36,1.84,.71,3.68,1.07,5.51,.18,.92,.34,1.84,.54,2.76,.09,.41-.02,.73-.28,1.03-.84,.96-1.68,1.91-2.5,2.89-.42,.5-.99,.74-1.59,.86-2.02,.42-4.04,.78-6.06,1.18-2.11,.41-4.22,.84-6.34,1.26-2.3,.45-4.6,.89-6.89,1.34-1.47,.29-2.93,.61-4.4,.9-2.53,.49-5.06,.97-7.58,1.46-1.24,.24-2.47,.52-3.71,.78-2.11,.43-4.22,.88-6.33,1.29-2.9,.56-5.81,1.02-8.69,1.65-1.83,.4-3.68,.71-5.5,1.11-2.61,.57-5.24,1-7.85,1.57-3.06,.67-6.17,1.12-9.23,1.81-3.06,.69-6.16,1.21-9.22,1.87-3.52,.76-7.08,1.36-10.61,2.07-2.75,.55-5.51,1.09-8.27,1.62-2.34,.45-4.69,.89-7.02,1.4-2.65,.58-5.33,1.04-7.97,1.66-1.46,.34-2.93,.61-4.4,.9-.74,.14-1.43-.08-2.03-.46-.88-.57-1.83-.97-2.8-1.33-.65-.25-.96-.68-1.09-1.34-.44-2.3-.91-4.59-1.36-6.88-.06-.32-.09-.65-.13-.98Z"/>
    <path class="cls-10" d="M312.01,213.47c-.08,.46-.13,.92-.25,1.37-.34,1.33-1.16,2.32-2.29,3.07-.86,.56-1.71,1.13-2.57,1.69-.92,.54-1.83,1.07-2.75,1.61-1.47,.87-2.94,1.74-4.41,2.61,0,0-.13,.05-.13,.05,0,0-.13,.05-.13,.05-.14,.15-.29,.3-.43,.45-.99,.53-2,1.03-2.96,1.61-1.76,1.08-3.54,2.11-5.49,2.83-2.51,.94-4.3,.32-5.79-1.26-1.02-1.09-1.76-2.41-2.57-3.68-.81-1.27-1.2-2.76-2.15-3.95-.2-.25-.29-.59-.43-.89-.43-.94-.83-1.87-1.38-2.77-.61-.99-1.06-2.12-1.39-3.24-.61-2.08,.36-3.85,1.95-5.05,.71-.54,1.44-1.05,2.18-1.54,1.25-.82,2.49-1.67,3.88-2.26,.26-.11,.55-.2,.75-.39,.5-.47,1.13-.67,1.73-.94,.68-.31,1.42-.51,1.98-1.06,.06-.06,.16-.11,.24-.14,2.3-.85,4.32-2.27,6.63-3.1,1.56-.56,3.03-.45,4.48,.3,1.91,1.1,3.29,2.76,4.59,4.47,1.91,2.53,3.76,5.12,5.56,7.72,.5,.72,.75,1.61,1.12,2.42Z"/>
    <path class="cls-30" d="M163.67,314.68c-.42-1.17-.05-2.3,.23-3.42,.38-1.51,1.35-2.66,2.44-3.67,.6-.56,1.39-.9,2.1-1.34,.8-.38,1.64-.67,2.4-1.16,1.47-.95,2.42-2.34,3.4-3.71,.46-.65,.86-1.35,1.34-1.98,1.05-1.4,2.28-2.65,3.71-3.64,1.13-.79,2.34-1.55,3.8-1.7,1.66-.18,3.2,.15,4.57,1.07,.89,.6,1.7,1.33,2.48,2.07,1.4,1.32,2.64,2.81,4.17,3.99,1.3,1.01,2.69,1.88,4.27,2.38,.97,.65,1.96,1.26,2.91,1.95,.56,.41,1.04,.92,1.56,1.38-.82,.2-1.63,.43-2.46,.59-2.53,.5-5.07,.97-7.6,1.46-3.09,.6-6.17,1.21-9.25,1.83-3.04,.6-6.07,1.21-9.11,1.82-2.62,.52-5.25,1.03-7.87,1.56-.83,.17-1.65,.37-2.47,.55-.2,0-.41,0-.61,0h0Z"/>
    <path class="cls-29" d="M96.46,232.04c-.26,.2-.53,.39-.77,.6-1,.84-1.99,1.7-3.04,2.59,.49,.69,.94,1.33,1.48,2.1-.99-.31-1.31-1.2-2.15-1.63-.31,.1-.7,.25-1.09,.37-.76,.23-1.41-.34-1.31-1.14,.02-.14,.07-.28,.15-.39,.36-.49,.17-.87-.2-1.24-.64-.63-.9-.63-1.71-.1-.43,.28-.89,.52-1.36,.72-.18,.08-.43,0-.74-.02,.23-1.07,1.2-1.53,1.63-2.46-.13-.23-.27-.52-.45-.77-.48-.64-1-1.24-1.47-1.89-.12-.16-.18-.48-.1-.63,.14-.25,.42-.11,.61,.03,.62,.43,1.26,.82,1.72,1.44,.16,.22,.42,.37,.7,.61,1.24-.79,2.2-1.86,3.41-2.73-.79-1.4-2.05-2.43-2.46-4.1,.25,.06,.44,.06,.56,.15,.69,.56,1.37,1.14,2.04,1.72,.14,.12,.27,.26,.41,.39q.97,.89,2.11,.08c.72-.51,1.45-1,2.33-1.6-.12,.58-.46,.82-.7,1.11-.3,.36-.62,.71-.94,1.05-.28,.3-.58,.59-.88,.9,.44,1.05,1.27,1.69,1.87,2.54,2.2-1.08,4.1-2.53,6.26-3.56-1.47,1.81-3.4,3.15-4.94,4.91,.37,1.45,1.71,2.24,2.35,3.68-1.38-.72-2.05-2.03-3.32-2.71Zm-5.27,1.11c1.14-.82,2.29-1.66,3.44-2.5-.32-.56-1.18-1.59-1.48-1.69-.19-.06-.51-.05-.64,.07-.91,.86-1.79,1.75-2.68,2.63,.37,.62,.59,1.26,1.36,1.48Z"/>
    <path class="cls-29" d="M98.95,279.93c-.14-.34-.29-.68-.43-1.02,.35-.16,.7-.31,1.05-.47,1.49-.69,3.1-.72,4.69-.79,2.82-.12,5.63-.25,8.45-.37,1.37-.06,2.67-.5,4-.74,.5-.09,1.02-.16,1.53-.16,.44,0,.71,.58,.47,.96-.15,.24-.33,.46-.54,.65-.31,.29-.64,.56-.97,.82-1.7,1.34-2.73,3.07-3.06,5.22-.06,.37-.14,.74-.2,1.11-.28,1.73-.76,3.4-1.55,4.96-.44,.88-.93,1.73-1.4,2.6-.09,.04-.17,.07-.26,.11-.26-.59-.56-1.12-1.35-.99,.11-.24,.23-.48,.34-.72,.83-1.1,1.5-2.28,1.95-3.58,.34-.97,.61-1.98,.82-2.99,.23-1.12,.69-2.15,1.12-3.19,.38-.92,.92-1.74,1.69-2.41,.2-.17,.35-.4,.64-.75-2.88,.6-5.61,.7-8.34,.73-1.6,.02-3.2,.08-4.8,.16-.56,.03-1.11,.15-1.67,.24-.27,.01-.55-.02-.8,.05-.48,.15-.95,.37-1.42,.57Z"/>
    <path class="cls-29" d="M281.34,244.03c.16-.74,.59-1.18,1.26-1.57-.66-.32-1.41-.21-1.68-1.07,.1-.16,.2-.52,.43-.68,.29-.2,.7-.35,1.05-.32,.94,.08,1.75-.21,2.54-.68-.11-.48-.57-.44-.87-.62-.45-.26-.88-.54-1.08-1.06-.1-.27,.09-.61,.38-.62,.23,0,.48-.02,.7,.04,.43,.11,.77,.06,1.17-.21,.58-.41,1.31-.23,1.92-.05,1.21,.37,2.41,.77,3.68,.9,.34,.04,.63,.47,.98,.74q-.83,.5-.9,1.08c-1.42,.23-2.83,.46-4.25,.69-.06,.01-.1,.13-.17,.21,.4,.5,1.04,.34,1.54,.55,.5,.22,1.04,.35,1.59,.53-.34,.62-.98,.25-1.46,.57,.06,.17,.14,.37,.18,.58,.12,.64-.19,1.09-.72,1.4-1.29,.77-2.67,.87-4.08,.46-.76-.22-1.47-.59-2.19-.88Z"/>
    <path class="cls-32" d="M130.02,294.93c.2,.53,.17,1.24-.44,1.85-.47,.46-1,.71-1.65,.43-.7-.3-1.41-.61-1.39-1.55,0-.37-.03-.76,.09-1.1,.29-.79,.9-1.14,1.76-1.09,.68,.04,1.21,.43,1.63,1.46Z"/>
    <path class="cls-27" d="M130.7,298.77c-.3-.65,.01-1.19,.33-1.7,.35-.57,.87-.87,1.54-.69,2.11,.58,2.22,.85,1.18,2.76-.41,.75-1.15,.76-1.84,.69-.59-.06-.96-.53-1.2-1.06Z"/>
    <path class="cls-26" d="M204.36,287.03c.79-.32,1.86,.13,2.1,.88,.23,.7-.24,1.69-.95,2-.8,.35-1.87-.02-2.17-.76-.38-.93,0-1.72,1.01-2.12Z"/>
    <path class="cls-27" d="M211.69,290.12c.72-.31,1.47-.05,1.78,.61,.32,.69-.21,2.07-.89,2.3-.56,.19-1.52-.25-1.78-.82-.33-.73,.11-1.76,.89-2.1Z"/>
    <path class="cls-26" d="M291.97,187.16c.07-.02,.24-.1,.43-.13,.61-.1,1.26,.38,1.32,.99,.04,.47,.02,.94-.32,1.33-.35,.4-.73,.76-1.3,.71-.47-.04-.97-.76-1.03-1.39-.08-.77,.14-1.18,.91-1.51Z"/>
    <path class="cls-26" d="M137.96,294.09c.36,.89,.07,1.53-.85,1.89-.79,.31-1.43,.05-1.73-.68-.28-.69,.17-1.72,.87-2,.67-.27,1.42,.08,1.71,.79Z"/>
    <path class="cls-8" d="M132.1,308.79c-.86,.38-1.65,.15-2.4-.29-.44-.26-.86-.56-1.25-.89-1.32-1.12-2.62-2.25-3.91-3.39-.14-.12-.22-.29-.33-.44,.87,.15,1.5,.77,2.15,1.26,1.83,1.38,3.82,2.52,5.75,3.74Z"/>
    <path class="cls-31" d="M214.56,285.87c-.72,.3-1.43,.11-1.7-.46-.34-.7,0-1.81,.65-2.08,.59-.25,1.58,.14,1.81,.7,.31,.78,0,1.52-.75,1.84Z"/>
    <path class="cls-33" d="M285.51,193.84c-.8,.43-1.41,.02-1.85-.69-.27-.45-.04-1.36,.81-1.66,.73-.25,1.46-.03,1.76,.64,.29,.63-.05,1.42-.72,1.71Z"/>
    <path class="cls-11" d="M299.06,224.37c.14-.15,.29-.3,.43-.45-.14,.15-.29,.3-.43,.45Z"/>
    <path class="cls-1" d="M245.28,224.04c-.29,.12-.57,.3-.89,.08,.29-.11,.57-.29,.89-.08Z"/>
    <path class="cls-34" d="M163.67,314.67c.2,0,.41,0,.61,0-.2,0-.41,0-.61,0Z"/>
    <path class="cls-20" d="M310.59,190.1c.07-.4,.08-.78,.2-1.12,.2-.6,1.08-1.05,1.71-.93,.63,.12,1.16,.81,1.05,1.44-.26,1.54-1.59,1.88-2.44,1.11-.14-.12-.27-.26-.52-.49Z"/>
    <path class="cls-15" d="M101.17,279.31c.56-.08,1.11-.21,1.67-.24,1.6-.08,3.2-.14,4.8-.16,2.73-.03,5.45-.13,8.34-.73-.29,.35-.44,.58-.64,.75-.77,.66-1.31,1.48-1.69,2.41-.43,1.04-.9,2.07-1.12,3.19-.21,1.01-.48,2.02-.82,2.99-.45,1.29-1.12,2.48-1.95,3.58-.69-.03-1.08-.56-1.49-.98-2.73-2.76-5.35-5.62-7.83-8.6-.33-.39-.6-.82-.96-1.31,.21-.16,.36-.32,.55-.41,.38-.19,.77-.34,1.16-.51Z"/>
    <path class="cls-16" d="M91.19,233.15c-.77-.22-.99-.86-1.36-1.48,.89-.88,1.77-1.78,2.68-2.63,.13-.12,.45-.13,.64-.07,.3,.1,1.16,1.14,1.48,1.69-1.15,.83-2.3,1.67-3.44,2.5Z"/>
  </g>
  <g>
    <g>
      <rect class="cls-12" x="182.69" y="242.03" width="36.94" height="11.37" rx="5.68" ry="5.68" transform="translate(513.51 182.37) rotate(117.26)"/>
      <rect class="cls-12" x="187.56" y="247.29" width="41.86" height="32.17" rx="14.91" ry="14.91" transform="translate(487.31 450.72) rotate(162.26)"/>
    </g>
    <path class="cls-40" d="M182.92,271.59C60.13,315.63,23.62,229.48,23.62,229.48"/>
  </g>
</svg>