<?xml version="1.0" encoding="UTF-8"?>
<svg id="Vrstva_1" data-name="Vrstva 1" xmlns="http://www.w3.org/2000/svg" viewBox="0 0 485.97 431.04">
  <defs>
    <style>
      .cls-1 {
        stroke-width: 3.38px;
      }

      .cls-1, .cls-2, .cls-3, .cls-4, .cls-5 {
        fill: none;
      }

      .cls-1, .cls-2, .cls-3, .cls-4, .cls-5, .cls-6, .cls-7 {
        stroke-miterlimit: 10;
      }

      .cls-1, .cls-3, .cls-4, .cls-6 {
        stroke-linecap: round;
      }

      .cls-1, .cls-3, .cls-6 {
        stroke: #f49f6c;
      }

      .cls-2 {
        stroke: #05716f;
        stroke-width: 15.69px;
      }

      .cls-3 {
        stroke-width: 1.13px;
      }

      .cls-8, .cls-7 {
        fill: #00548f;
      }

      .cls-9 {
        fill: #00716f;
      }

      .cls-10 {
        fill: #fff;
      }

      .cls-11, .cls-6 {
        fill: #fcbc7e;
      }

      .cls-12, .cls-13 {
        fill: #848483;
      }

      .cls-14 {
        fill: #8ecbff;
      }

      .cls-15, .cls-16 {
        fill: #afafb0;
      }

      .cls-17, .cls-18 {
        fill: #df000f;
      }

      .cls-19 {
        fill: #05716f;
      }

      .cls-20, .cls-21 {
        fill: #1a1a18;
      }

      .cls-4 {
        stroke: #fcbc7e;
        stroke-width: 17.39px;
      }

      .cls-5 {
        stroke-width: 1.24px;
      }

      .cls-5, .cls-7 {
        stroke: #00548f;
      }

      .cls-6 {
        stroke-width: 1.44px;
      }

      .cls-21, .cls-18, .cls-16, .cls-22, .cls-13, .cls-23 {
        fill-rule: evenodd;
      }

      .cls-22 {
        fill: #999;
      }

      .cls-23 {
        fill: #9bc885;
      }

      .cls-7 {
        stroke-width: 1.07px;
      }

      .cls-24 {
        fill: #1a1a1a;
        font-family: Cubano-Regular, Cubano;
        font-size: 45.92px;
      }

      .cls-25 {
        fill: #ffc37d;
        opacity: .3;
      }
    </style>
  </defs>
  <g>
    <g>
      <path class="cls-2" d="M224.08,272.33s8.76,29.06,0,63.45c-8.45,27.52-24.71,59.61-24.71,59.61"/>
      <path class="cls-2" d="M253.32,279.3s10.54,9.99,14.41,50.61c3.87,40.62,0,81.78,0,81.78"/>
      <g>
        <path class="cls-8" d="M260.62,394.29h14.22v28.45h-6.46c-4.28,0-7.76-3.48-7.76-7.76v-20.68h0Z"/>
        <path class="cls-8" d="M274.84,405.59h1.6c9.46,0,17.14,7.68,17.14,17.14h-18.74v-17.14h0Z"/>
      </g>
      <g>
        <path class="cls-8" d="M190.76,383.17h14.22v28.45h-6.46c-4.28,0-7.76-3.48-7.76-7.76v-20.68h0Z" transform="translate(218.11 -46.08) rotate(29.08)"/>
        <path class="cls-8" d="M200.16,401.78h1.6c9.46,0,17.14,7.68,17.14,17.14h-18.74v-17.14h0Z" transform="translate(225.88 -50.11) rotate(29.08)"/>
      </g>
      <path class="cls-10" d="M282.56,261.18h-77.51l-13.98-88.26c-1.59-10.06,6.18-19.17,16.37-19.17h72.72c10.19,0,17.97,9.11,16.37,19.17l-13.98,88.26Z"/>
      <path class="cls-19" d="M243.81,288.39c17.78,0,32.93-11.32,38.76-27.21h-77.51c5.83,15.89,20.98,27.21,38.76,27.21Z"/>
      <g>
        <rect class="cls-11" x="224.08" y="123" width="39.8" height="39.66"/>
        <circle class="cls-11" cx="243.97" cy="162.58" r="19.89"/>
        <rect class="cls-25" x="224.08" y="125.18" width="39.8" height="37.4"/>
      </g>
      <g>
        <rect class="cls-8" x="183.49" y="43.68" width="112.96" height="59.44" rx="26.75" ry="26.75" transform="translate(479.93 146.79) rotate(-180)"/>
        <circle class="cls-11" cx="242.55" cy="78.78" r="8.01"/>
        <rect class="cls-11" x="199.98" y="28.62" width="79.31" height="119.4" rx="39.65" ry="39.65"/>
        <g>
          <circle class="cls-7" cx="236.87" cy="86.01" r="2.84"/>
          <circle class="cls-7" cx="261.69" cy="86.01" r="2.84"/>
        </g>
        <g>
          <line class="cls-1" x1="230.73" y1="65.21" x2="215.91" y2="65.21"/>
          <line class="cls-1" x1="263.95" y1="65.21" x2="249.13" y2="65.21"/>
        </g>
        <rect class="cls-11" x="190.11" y="66.97" width="19.79" height="21.52" rx="9.82" ry="9.82" transform="translate(400 155.47) rotate(-180)"/>
        <rect class="cls-11" x="269.4" y="66.97" width="19.79" height="21.52" rx="9.82" ry="9.82" transform="translate(558.58 155.47) rotate(-180)"/>
        <path class="cls-10" d="M252.02,127.83c-9.9,0-17.92-8.02-17.92-17.92h35.85c0,9.9-8.02,17.92-17.92,17.92Z"/>
        <path class="cls-6" d="M239.93,98.38c0,4.4,3.56,7.96,7.96,7.96,4.4,0,7.96-3.56,7.96-7.96"/>
        <path class="cls-3" d="M240.69,136.63c5.45-5.45,14.29-5.45,19.74,0"/>
        <g>
          <circle class="cls-5" cx="230.81" cy="84.55" r="13.69"/>
          <circle class="cls-5" cx="267.69" cy="84.55" r="13.69"/>
          <line class="cls-5" x1="254" y1="84.55" x2="244.51" y2="84.55"/>
        </g>
        <path class="cls-9" d="M200.83,0h83.91V22.55c0,11.66-9.47,21.13-21.13,21.13h-41.65c-11.66,0-21.13-9.47-21.13-21.13V0h0Z" transform="translate(485.57 43.68) rotate(-180)"/>
        <path class="cls-14" d="M238.33,74.51h50.54c10.33,0,15.32-12.66,7.77-19.71l-11.91-11.12h-83.91s29.73,27.77,29.73,27.77c2.11,1.97,4.89,3.06,7.77,3.06Z"/>
      </g>
    </g>
    <g>
      <path class="cls-21" d="M126.52,147.93c-10.45,28.4-15.68,42.6-15.68,42.6-14.26,1.02-22.4-5.17-24.41-18.59-.87-15.57,3.66-24.6,13.58-27.1h22.95c2.37,2.06,3.56,3.09,3.56,3.09Z"/>
      <path class="cls-23" d="M401.63,405.83c2.15-.6,7.8-2.65,4.61,.13-8.61,7.5-52.46,2.32-41.46-9.05,13.85-14.32,84.83-8.31,75.91,9.28-9.15,18.06-90.79,19.15-106.8-.54-18.29-22.49,73.6-37.92,121.65-18.23,47.27,19.37-7.86,48.95-90.27,42.24-4.02-.33,11.25,.97,12.33,1.03,81.75,4.15,131.15-29.31,71.29-47.12-60-17.85-148.26,3.96-116.12,26.71,11.83,8.37,36.28,11.33,36.6,11.53,1.65,1.01-18.35-2.63-21.64-3.48-60.64-15.74-9.04-50.17,73.55-42.7,55.14,4.98,76.98,25.02,53.57,41.9-1.67,1.2,3.66-2.37,3.88-2.54,33.07-26.31-53.68-51.95-124.45-36.93-68.13,14.46-34.81,49,40.63,47.14,67.34-1.66,84.62-31.17,28.12-40.04-54.87-8.61-102.02,13.94-62.97,26.46,34.22,10.98,84.8-2.15,64.07-13.88-19.47-11.03-64.82-1.71-47.29,6.72,5.76,2.77,16.69,3.47,24.79,1.38Z"/>
      <path class="cls-18" d="M406.31,375.36c-6.36-8.51-26.21-16.89-52.06-12.89-21.73,2.84-33.05,17.56-34.38,31.52,61.35-18.11,79.84-16.46,86.44-18.63Z"/>
      <path class="cls-22" d="M414.64,380.8c4.08,2.84,6.12,4.27,6.12,4.27-6.74,2.92-9.51,13.64-4.38,20.94-6.89,2.32-10.33,3.48-10.33,3.48-8.82-8.61-23.24-13.98-43.27-16.11,2.66-4.64,3.99-6.96,3.99-6.96,24.03,4.85,41.91-.57,47.88-5.61Z"/>
      <path class="cls-12" d="M400.23,388.03L130.29,182.41l-3.77,5.03,269.93,205.63c6.25,1.61,8.67,.71,3.77-5.03Z"/>
      <path class="cls-20" d="M281.08,258.1c-1.41-5.73-3.49-7.66-6.34-5.95-3.89,2.33-9,8.81-15.41,19.29,4.88,.35,9,.32,12.37-.07,3.45-.4,6-1.17,7.65-2.3,1.1-.76,1.68-1.65,1.74-2.69,.01-.22,.27-3.07,.24-3.35l5.58,4.83c-.39,3.18-1.92,5.69-4.59,7.54-2.35,1.62-5.67,2.68-9.94,3.17-4.87,.57-11.14,.42-18.8-.43l-5.21-.58,3-5.16c8.46-14.53,15.29-23.53,20.71-26.77,7.07-4.24,12.25,.21,15.05,11.56l-6.03,.91Z"/>
      <path class="cls-18" d="M138.01,190.53c-.67-22.51-1.93-33.87-3.78-34.07-5.14-5.69-7.7-8.53-7.7-8.53-16.7,0-25.06,0-25.06,0-2.56,2.08-3.27,5.2-2.13,9.37,10.08,8.65,13.92,19.73,11.51,33.23,18.11,0,27.17,0,27.17,0Z"/>
      <path class="cls-13" d="M136.81,174.21c3.33,5.47,10.36,20.63,4.89,17.92-2.46-1.22-5.37,.64-4.85,3.16,1.72,8.43-12.76-5.1-12.76-5.1-1.5-5.19-1.5-10.47,0-15.83,3.48-1.61,7.72-1.67,12.72-.16Z"/>
      <path class="cls-16" d="M95.37,164.34c3-1.44,7.68,2.06,10.46,7.83,2.78,5.77,2.59,11.62-.41,13.06-3,1.44-7.68-2.06-10.46-7.83-2.78-5.77-2.59-11.62,.41-13.06Z"/>
      <path class="cls-15" d="M98.08,148.71h1.46c.74,0,1.35,.6,1.35,1.35v8.87c0,.74-.6,1.35-1.35,1.35h-1.46c-.74,0-1.35-.6-1.35-1.35v-8.87c0-.74,.6-1.35,1.35-1.35Z" transform="translate(-81.67 121.96) rotate(-47.18)"/>
      <rect class="cls-17" x="246.22" y="272.85" width="8.32" height="11.19" transform="translate(-122.61 311.65) rotate(-53.12)"/>
    </g>
    <g>
      <path class="cls-4" d="M187.92,249c-79.91-9.67,12.92-84.03,12.92-84.03"/>
      <g>
        <path class="cls-11" d="M191.36,232.58h14.84c2.9,0,5.26,2.36,5.26,5.26h0c0,2.9-2.36,5.26-5.26,5.26h-14.84c-2.9,0-5.26-2.36-5.26-5.26h0c0-2.9,2.36-5.26,5.26-5.26Z" transform="translate(504.88 286.74) rotate(138.97)"/>
        <rect class="cls-11" x="183.68" y="236.03" width="38.75" height="29.79" rx="14.89" ry="14.89" transform="translate(388.28 515.29) rotate(-176.03)"/>
      </g>
    </g>
    <g>
      <path class="cls-4" d="M293.59,251.9c52.93-36.84-9.42-86.94-9.42-86.94"/>
      <g>
        <rect class="cls-11" x="258.64" y="240.6" width="34.2" height="10.52" rx="5.26" ry="5.26" transform="translate(16.36 -17.21) rotate(3.68)"/>
        <rect class="cls-11" x="265.31" y="244.25" width="38.75" height="29.79" rx="14.89" ry="14.89" transform="translate(-100.22 252.46) rotate(-41.32)"/>
      </g>
    </g>
  </g>
  <text class="cls-24" transform="translate(13.8 160.15) rotate(-20.71)"><tspan x="0" y="0">VRRRR...</tspan></text>
</svg>