<?xml version="1.0" encoding="UTF-8"?>
<svg id="Vrstva_1" data-name="Vrstva 1" xmlns="http://www.w3.org/2000/svg" viewBox="0 0 2092.64 1184.18">
  <defs>
    <style>
      .cls-1 {
        fill: #1a1a19;
      }

      .cls-1, .cls-2, .cls-3 {
        fill-rule: evenodd;
      }

      .cls-2 {
        fill: #989999;
      }

      .cls-3 {
        fill: #fbfbfb;
      }
    </style>
  </defs>
  <path class="cls-2" d="M380.02,1155.07C65.2,649.6-46.57,382.03,44.75,352.36L1334.07,26.67c86.88-36.3,149.14-31.51,186.79,14.37,125.21,200.12,284.53,353.7,477.99,460.74,125.59,42.74,116.97,84.88-25.86,126.44-888.29,314.18-1332.43,471.27-1332.43,471.27-147.06,66.26-233.9,84.78-260.54,55.57"/>
  <path class="cls-3" d="M389.6,331.27c42.33,0,76.63,30.87,76.63,68.97s-34.31,68.97-76.63,68.97-76.63-30.87-76.63-68.97,34.31-68.97,76.63-68.97"/>
  <path class="cls-3" d="M649.19,262.3c42.32,0,76.63,30.87,76.63,68.97s-34.31,68.97-76.63,68.97-76.63-30.88-76.63-68.97,34.3-68.97,76.63-68.97"/>
  <path class="cls-3" d="M898.24,193.33c42.33,0,76.63,30.88,76.63,68.97s-34.31,68.97-76.63,68.97-76.63-30.88-76.63-68.97,34.32-68.97,76.63-68.97"/>
  <path class="cls-3" d="M1135.8,124.36c42.32,0,76.63,30.88,76.63,68.97s-34.31,68.97-76.63,68.97-76.63-30.88-76.63-68.97,34.3-68.97,76.63-68.97"/>
  <path class="cls-3" d="M1373.36,55.4c42.32,0,76.63,30.87,76.63,68.97s-34.31,68.97-76.63,68.97-76.63-30.87-76.63-68.97,34.31-68.97,76.63-68.97"/>
  <path class="cls-3" d="M1352.29,230.68c42.32,0,76.63,30.87,76.63,68.97s-34.31,68.97-76.63,68.97-76.63-30.87-76.63-68.97,34.31-68.97,76.63-68.97"/>
  <path class="cls-3" d="M1125.26,299.65c42.33,0,76.64,30.88,76.64,68.97s-34.31,68.97-76.64,68.97-76.63-30.88-76.63-68.97,34.31-68.97,76.63-68.97"/>
  <path class="cls-3" d="M863.76,368.62c42.33,0,76.63,30.89,76.63,68.97s-34.3,68.97-76.63,68.97-76.63-30.88-76.63-68.97,34.31-68.97,76.63-68.97"/>
  <path class="cls-3" d="M607.04,437.59c42.33,0,76.63,30.88,76.63,68.97s-34.31,68.97-76.63,68.97-76.63-30.87-76.63-68.97,34.31-68.97,76.63-68.97"/>
  <path class="cls-3" d="M335,516.57c42.33,0,76.63,30.89,76.63,68.97s-34.31,68.97-76.63,68.97-76.63-30.88-76.63-68.97,34.32-68.97,76.63-68.97"/>
  <path class="cls-3" d="M545.44,612.98c43.9,0,79.5,26.7,79.5,59.63s-35.6,59.63-79.5,59.63-79.51-26.7-79.51-59.63,35.59-59.63,79.51-59.63"/>
  <path class="cls-3" d="M458.18,803.11c41.91-5.92,79.48,14.74,83.93,46.17,4.45,31.43-25.92,61.71-67.82,67.65-41.91,5.92-79.49-14.74-83.93-46.17-4.45-31.43,25.92-61.71,67.82-67.65"/>
  <path class="cls-3" d="M821.61,543.92c43.92,0,79.5,26.7,79.5,59.62s-35.58,59.63-79.5,59.63-79.5-26.7-79.5-59.63,35.6-59.62,79.5-59.62"/>
  <path class="cls-3" d="M1096.52,469.2c43.91,0,79.51,26.7,79.51,59.63s-35.6,59.63-79.51,59.63-79.5-26.71-79.5-59.63,35.59-59.63,79.5-59.63"/>
  <path class="cls-3" d="M1355.16,397.32c43.91,0,79.5,26.7,79.5,59.63s-35.59,59.62-79.5,59.62-79.5-26.7-79.5-59.62,35.59-59.63,79.5-59.63"/>
  <path class="cls-3" d="M1582.17,309c43.92,0,79.51,26.7,79.51,59.62s-35.59,59.63-79.51,59.63-79.5-26.7-79.5-59.63,35.6-59.62,79.5-59.62"/>
  <path class="cls-3" d="M766.14,714.98c41.91-5.93,79.48,14.74,83.93,46.17,4.45,31.43-25.92,61.71-67.83,67.65-41.9,5.93-79.48-14.74-83.93-46.17-4.45-31.43,25.92-61.71,67.82-67.65"/>
  <path class="cls-3" d="M1067.4,621.09c41.9-5.93,79.48,14.74,83.93,46.17,4.45,31.42-25.92,61.71-67.82,67.65-41.91,5.93-79.48-14.74-83.93-46.17-4.45-31.43,25.92-61.71,67.83-67.65"/>
  <path class="cls-3" d="M1343.91,544.94c41.9-5.94,79.48,14.74,83.92,46.16,4.45,31.43-25.92,61.71-67.82,67.65-41.91,5.93-79.48-14.74-83.93-46.16-4.45-31.44,25.91-61.72,67.83-67.65"/>
  <path class="cls-3" d="M1596.16,470.22c41.91-5.92,79.48,14.74,83.93,46.17,4.45,31.43-25.91,61.71-67.83,67.65-41.9,5.92-79.48-14.74-83.92-46.17-4.45-31.43,25.92-61.71,67.82-67.65"/>
  <path class="cls-3" d="M717.77,881.62c41.9-5.92,79.49,14.74,83.93,46.17,4.46,31.43-25.91,61.71-67.82,67.65-41.91,5.92-79.48-14.74-83.93-46.17-4.45-31.43,25.91-61.71,67.82-67.65"/>
  <path class="cls-3" d="M1040.57,772.91c41.91-5.93,79.48,14.74,83.93,46.16,4.45,31.43-25.92,61.71-67.82,67.65-41.91,5.92-79.49-14.74-83.93-46.17-4.45-31.43,25.92-61.72,67.82-67.65"/>
  <path class="cls-3" d="M1303.05,687.26c41.9-5.93,79.48,14.74,83.93,46.17,4.45,31.43-25.91,61.72-67.82,67.65-41.9,5.93-79.48-14.74-83.93-46.16-4.45-31.44,25.91-61.72,67.82-67.65"/>
  <path class="cls-3" d="M1548.27,603.38c41.9-5.93,79.48,14.74,83.92,46.17,4.45,31.43-25.92,61.71-67.82,67.65-41.91,5.93-79.48-14.74-83.93-46.17-4.45-31.43,25.91-61.71,67.83-67.65"/>
  <path class="cls-3" d="M1848.41,505.25c41.9-5.94,79.48,14.74,83.93,46.16,4.44,31.43-25.92,61.72-67.82,67.65-41.91,5.94-79.48-14.74-83.93-46.16-4.45-31.43,25.92-61.71,67.83-67.65"/>
  <path class="cls-1" d="M109.91,336.51c-64.86,38.42-124.66,4.38-66.78,149.14,12.12,30.32,41.43,112.55,41.87,143.98-4.52-7.8-80.64-181.11-80.83-181.75-20.74-68.54,39.3-123.46,105.74-111.37"/>
  <path class="cls-1" d="M88.66,636.08c62.78,112.67,91.52,183.65,166.46,294.16,42.77,63.07,102.34,214.4,168.5,235.19,40.69,12.78,142.78-44.6,185.64-61.12,431.94-166.57,874.75-305.99,1309.43-470.42,27.19-10.28,170.94-40.77,167.37-68.69-2.63-20.69-72.85-55.07-87.2-63.42,18.41,8.14,89.46,36.06,93.61,62.47,5.82,37.15-134.71,65.48-169.54,79.38-289.06,115.31-577.36,217.69-870.27,321.62-46.85,16.62-596.34,220.77-613.85,218.92-91.28-9.67-143.34-171.74-193.06-247.74-74.67-114.13-100.73-177.96-157.08-300.34"/>
  <path class="cls-1" d="M110.4,330.27C530.2,255.87,923.42,96.9,1332.34,19.93c138.18-26.02,153.42-44.47,216.67,64.47-4.52-5.96-34.34-45.74-42.43-54.83-39.7-44.73-172.83,2.5-226.75,15.61C981.14,117.8,387.73,319.04,110.4,330.27"/>
  <path class="cls-1" d="M1554.9,90.79c103.32,121.02,282.54,292.87,406.95,391.99-129.59-69.36-336.4-262.87-406.95-391.99"/>
  <path class="cls-1" d="M477.29,708.14c12.61-2.36,93.12,53.25,139.04-18.98l15.17-25.08c-15.74,107.91-107.56,97.9-154.21,44.06"/>
  <path class="cls-1" d="M754.87,640.28c12.63-2.35,93.13,53.24,139.05-18.98l15.17-25.07c-15.75,107.95-107.63,97.85-154.22,44.05"/>
  <path class="cls-1" d="M1025.48,563.05c12.63-2.36,93.13,53.25,139.06-18.98l15.17-25.07c-15.75,107.9-107.54,97.91-154.23,44.06"/>
  <path class="cls-1" d="M1280.21,498.36c12.62-2.36,93.12,53.23,139.04-18.98l15.16-25.08c-15.75,107.92-107.56,97.88-154.21,44.06"/>
  <path class="cls-1" d="M1505.07,399.69c12.63-2.35,93.12,53.24,139.04-18.98l15.17-25.07c-15.75,107.92-107.57,97.88-154.21,44.06"/>
  <path class="cls-1" d="M393.88,912.31c13.03-2.35,96.03,53.24,143.38-18.98l15.64-25.07c-16.24,107.96-110.98,97.85-159.01,44.06"/>
  <path class="cls-1" d="M705.91,821.73c13.01-2.35,96.02,53.24,143.37-18.98l15.64-25.07c-16.24,107.9-110.89,97.89-159.01,44.06"/>
  <path class="cls-1" d="M999.13,727.83c13.02-2.36,96.01,53.25,143.37-18.97l15.65-25.08c-16.25,107.92-110.91,97.9-159.02,44.06"/>
  <path class="cls-1" d="M1280.21,657.05c13.01-2.35,96.01,53.25,143.37-18.99l15.64-25.08c-16.25,107.91-110.9,97.89-159.01,44.07"/>
  <path class="cls-1" d="M1539.71,577.91c13.01-2.36,96.01,53.24,143.37-18.98l15.63-25.08c-16.23,107.93-110.9,97.89-159,44.06"/>
  <path class="cls-1" d="M653.46,992.94c13.01-2.36,96.02,53.25,143.36-18.98l15.64-25.07c-16.24,107.91-110.89,97.9-159,44.06"/>
  <path class="cls-1" d="M977.78,881.57c13.02-2.36,96.03,53.24,143.37-18.98l15.64-25.07c-16.23,107.92-110.91,97.87-159.01,44.05"/>
  <path class="cls-1" d="M1246.34,797.61c13.02-2.36,96.03,53.23,143.36-18.99l15.64-25.07c-16.23,107.91-110.91,97.88-159.01,44.07"/>
  <path class="cls-1" d="M1482.9,718.46c13.02-2.36,96.02,53.23,143.37-18.99l15.64-25.07c-16.24,107.92-110.91,97.89-159.01,44.07"/>
  <path class="cls-1" d="M1783.91,616.53c13.01-2.36,96.02,53.23,143.36-18.98l15.64-25.08c-16.24,107.93-110.89,97.89-159,44.07"/>
</svg>