<?xml version="1.0" encoding="UTF-8"?>
<svg id="Vrstva_1" data-name="Vrstva 1" xmlns="http://www.w3.org/2000/svg" viewBox="0 0 434.04 203.82">
  <defs>
    <style>
      .cls-1 {
        stroke: #bc8053;
      }

      .cls-1, .cls-2 {
        fill: none;
        stroke-miterlimit: 22.93;
        stroke-width: .35px;
      }

      .cls-2 {
        stroke: #1a1a18;
      }

      .cls-3 {
        fill: #616e6e;
      }

      .cls-3, .cls-4, .cls-5, .cls-6, .cls-7, .cls-8, .cls-9, .cls-10, .cls-11 {
        fill-rule: evenodd;
      }

      .cls-4 {
        fill: #1a1a18;
      }

      .cls-5 {
        fill: #cab07c;
      }

      .cls-6 {
        fill: #c59867;
      }

      .cls-7 {
        fill: #c17c7f;
      }

      .cls-8 {
        fill: #bc8053;
      }

      .cls-9 {
        fill: #6b3e19;
      }

      .cls-10 {
        fill: #bb6900;
      }

      .cls-11 {
        fill: #fff;
      }
    </style>
  </defs>
  <path class="cls-2" d="M363.54,175.17c-1.97-3.7-4.36-12.08-10.43-11.08-4.03,.66,13.62,17.07,10.43,11.08Z"/>
  <path class="cls-9" d="M334.77,98.83l1.3,.25c2.99,.62,5.55,2,6.39,1.86,12.6-2.08,16.29-2.92,29.5,.43,5.52,1.4,8.01,2.52,9,7.61,7.8-.94,12.95-.27,19.47,2.69,7.52,3.41,11.37,6.63,17.02,11.64,2.51,2.22,6.07,6.21,8.15,8.92,2.46,3.19,4.96,6.71,6.74,10.34,.49,1.01,1.2,3.07,1.7,3.88v9.55c-2.71,3.4-2.24,10.06-7.58,15.25-3.15,3.06-10.07,5.92-15.51,7.24-9.79,2.37-30.68,3.95-41.25,4.47-26.86,1.29-54.57,1.92-80.63-2.63v-3.77s-.69,0-.69,0l-1.37-5.48-3.26-3.26h8.74s0-.68,0-.68h1.37s.68-2.06,.68-2.06h.69s0-20.71,0-20.71l-4.11-1.37-.68-8.9-.11-.45,22.72-8.29,5.48-4.8,.69-2.74h.68s10.96-17.13,10.96-17.13l3.91-1.85Z"/>
  <path class="cls-8" d="M423.65,156.45c-3.92,4.6-12.26,7.53-17.54,9.2-7.2,2.28-16.05,2.52-23.5,3.51-18.75,2.49-31.94,3.14-50.8,2.66-11.94-.3-21.1,.05-31.09-.87v-7.93s.69-.68,.69-.68l-.69-22.77h-1.37v-.52h.68s.68-1.37,.68-1.37h.69s.68-1.37,.68-1.37h.69s2.74-3.42,2.74-3.42l2.05-1.37,2.05-2.06,2.06-2.06,3.42-2.05v-7.83c1.97,3.96-.22,13.11,1.61,21.19,.62,2.71,2.38,7.97,5.67,5.6,1.7-1.21,3.52-4.97,4.75-7.7,2.67-5.94,4.07-8.91,8.04-14.09,1.54-2.01,2.59-3.17,4.55-4.73,1.13-.9,2.18-1.78,3.84-2.47,5.51-2.31,12.07-.16,15.87,4.03,4.85,5.35-1.07,17.24,2.75,24.03,.45,.8,.77,.96,1.91,1.26,3.07,.81,4.44-.1,6.67-2.11,5.11-4.61,7.17-15.28,14.81-16.58,6.2-1.05,15.77,6.83,20.74,10.59,.49,.37,.46,.28,.95,.74,.45,.42,.33,.31,.81,.67,1.92,1.4,4.53,4.4,6.32,6.12,.36,.35,.55,.42,.89,.78,.28,.3,.4,.51,.65,.83l2.78,3.33c1.72,2.13,2.95,4.26,4.32,6.64l.31,.49c.3,.39-.16-.02,.29,.3"/>
  <path class="cls-6" d="M247.13,135.88c-.79,.78-1.58,1.62-2.44,2.6-.79,.89-3.92,3.68-4.92,4.97-.69,.89-.04,.42-.86,.71-.56,.36-1.18,1.58-1.54,2.19,.1,.06,.42,.11,.55,.14,3.46,.47,4.35,4.07,6.29,5.31,.41-.42,.33-1.72,2.27-3.96l.65-11.02v-.95Zm12.33-6.58l1.37-.68,.68-3.42,1.37-.69v-.49c-3.52,1.94-6.84,4.22-9.85,6.65h6.08s.34-1.37,.34-1.37Zm65.54-18.33h-.99s-.68,.69-.68,.69h-.68s0,.68,0,.68l-2.06,.68-.68,2.05-2.74,2.74-1.31,2.62c.52,4.63-.6,11.8,.87,18.27,.62,2.71,2.38,7.97,5.67,5.6,1.7-1.21,3.52-4.97,4.75-7.7,2.67-5.94,4.07-8.91,8.04-14.09,1.54-2.01,2.59-3.17,4.55-4.73,1.13-.9,2.18-1.78,3.84-2.47,5.51-2.31,12.07-.16,15.87,4.03,4.85,5.35-1.07,17.24,2.75,24.03,.45,.8,.77,.96,1.91,1.26,3.07,.81,4.44-.1,6.67-2.11,5.11-4.61,7.17-15.28,14.81-16.58,6.2-1.05,15.77,6.83,20.74,10.59,.49,.37,.46,.28,.95,.74,.45,.42,.33,.31,.81,.67,1.92,1.4,4.53,4.4,6.32,6.12,.36,.35,.55,.42,.89,.78,.28,.3,.4,.51,.65,.83l2.78,3.33c1.72,2.13,2.95,4.26,4.32,6.64l.31,.49c.3,.39-.16-.02,.29,.3l6.33-5.69c-.34-.4-.16,.09-.26-1.4-.03-.47-.09-.91-.25-1.37-.6-1.86-2.94-4.94-4.25-6.3-.67-.7-.54-.22-1.7-1.67-2.62-3.27-6.58-6.69-8.54-8.96l-3.74-3.22c-2.46-2.06-5.25-3.83-8.4-5.73-7.9-4.77-18-5.22-24.26,1.66-.47,.52-.38,.42-.95,.94-1.51,1.38-4.88,7.31-7.75,9.75-.54,.45-1.78,1-2.09,1.4-.47-.4-.1,.18-.28-.45-.48,.42-.57,.67-1.36,.23-2.17-1.23-.73-7.99-.38-9.75,1.16-5.76,1.58-5.96,3.09-10.75-.83,0,.25-.24-.13-2.09-.65-3.21-9.31-5.21-11.93-5.85-7.23-1.75-14.8-.3-20.35,4.15-.39,.32-.31,.29-.64,.63l-1.82,1.97c-5.97,7.13-8.62,20.95-12.36,17.84-.25-.2-.41-.06-.58-1.22-.47-3.11,.07-6.61,.73-9.64,.98-4.55,1.76-5.76,3.29-9.36-.43,0-.38-.19-.08-.61Z"/>
  <path class="cls-5" d="M325.07,111.57c-.54,0-.32-.3,.22-.99,.4-.52,1.01-1.1,1.09-1.98l.37-1.05h.68s.69-2.05,.69-2.05h.68s0-4.44,0-4.44c1.94,.17,3.97,.34,6.2,.41l-2.52,2.55c-2.17,1.95-4.55,3.94-6.35,6.3-.36,.47-.56,1.06-1.06,1.26"/>
  <path class="cls-5" d="M430.64,150.51l-.67,.25c-.34-.4-.16,.09-.26-1.4-.03-.47-.1-.91-.25-1.37-.6-1.86-2.94-4.94-4.25-6.3-.67-.7-.54-.22-1.7-1.66-2.62-3.27-6.58-6.69-8.54-8.97l-3.74-3.22c-2.45-2.06-5.25-3.83-8.4-5.73-7.9-4.77-18-5.22-24.26,1.66-.47,.52-.38,.42-.95,.94-1.51,1.38-4.88,7.31-7.75,9.75-.54,.45-1.78,1-2.09,1.4-.47-.4-.1,.18-.28-.45-.01-1.82,3.93-8.96,4.89-10.66,1.51-2.67,6.14-9.03,8.73-10.89,2.86-2.06,5.79-2.61,9.39-1.79,10.48,2.39,22.44,11.12,28.98,18.26,.36,.39,.6,.53,.97,.91,1.19,1.22,5.03,6.42,5.87,7.84,1.7,2.86,4.39,7.17,4.3,11.42"/>
  <path class="cls-5" d="M368.87,115.15c-.83,0,.25-.24-.13-2.09-.65-3.21-9.31-5.21-11.93-5.85-7.23-1.75-14.8-.3-20.34,4.15-.39,.32-.31,.29-.64,.63l-1.82,1.97c-5.97,7.13-8.62,20.95-12.36,17.84,2.9-3.94,3.29-9.5,7.45-15.16,2.85-3.88,3.77-4.45,6.59-7.53l4.8-3.84c5.57-3.89,10.98-4.17,18.88-3.3,6.11,.68,14.76,1.42,17.53,5.39-1.05,.94-3.3,1-6.52,5.45-.39,.53-1.05,1.87-1.5,2.35"/>
  <path class="cls-8" d="M282.41,139.21c24.39,14.51-11.38,28.35-14.55,23.97-17.95-24.78,5.01-3.77,6.3-18.08,1.03-11.5,17.67-.3,8.26-5.89"/>
  <path class="cls-8" d="M278.83,171.27c.62,.63,6.03,9.5,4.72,10.12-3.35,1.59-21.92-1.45-21.93,4.55,0,.65-5.96-.69-7.03-1.98-.38-.45-6.27-2.21-4.05-6.12,.1-.17,3.85-1.96,4.56-2.7,1.84-1.93,.35-7.15,6.27-1.89,.54,.48,4.47-4.3,7.19-5.24,3.02-1.05,4.88-2.57,7.89,1.15,.58,.72,1.74,1.46,2.38,2.12"/>
  <path class="cls-6" d="M271.33,169.99c1.58,1.05,4.4,3.87,5.16,5.8-.49,.87-12.07-2.27-17.48,5.3-4.46,6.24,.83-5.45,5.08-7.11,2.15-.84,4.66-3.57,6.96-3.8l.29-.19Z"/>
  <path class="cls-6" d="M226.03,175.56c-1.68-1.85-14.41-15.32-14.86-15.02-3.33,2.27,.17,9.15-12.75,12-1.42,.31,1.01,3.03-.74,7.64-1.24,3.26,1.32,1.87,7.14,1.62,6.19-.26,6.48-8.56,12.78-6.85,4.05,1.1,8.43,4.22,8.43-.08v.69Z"/>
  <path class="cls-6" d="M238.33,174.64c6.76,10.14,3.25,7.32-9.81,7.32,2.16,.47,7.97-10.07,9.81-7.32"/>
  <path class="cls-8" d="M321.73,177.17c8.58,2.69,6.52,9.96-.22,6.2-4.49-2.51-1.81-6.83,.22-6.2"/>
  <path class="cls-6" d="M193.45,169.73c-3.42,5.44,7.01,12.19-14.94,9.63-3.51-.41-4.92-10.51,.6-10.51,9.92,0,2.86-11.41,14.04-2.61,.55,.43,.57,3.05,.3,3.48"/>
  <path class="cls-8" d="M167.81,166.79c0,6.59,1.26,6.02-3.29,6.02-3.82-4.91,3.29-3.75,3.29-6.02"/>
  <path class="cls-8" d="M234.32,157.08c2.38-4.58,2.08-1.85,7.37,3.43-2.6,0-19.18,.5-8.59-2.69,.73-.22,.84-.02,1.22-.74Z"/>
  <path class="cls-1" d="M234.32,157.08c2.38-4.58,2.08-1.85,7.37,3.43-2.6,0-19.18,.5-8.59-2.69,.73-.22,.84-.02,1.22-.74Z"/>
  <path class="cls-11" d="M102.87,185.02s-44.25-35.55-56.07-36.55c0,0,0-16.16,4.23-17.28,0,0,9.82,2.24,15.17-36.42,0,0,20.39-42.02,68.87-37.67,0,0,33.44,8.58,45.13,29.09,0,0,11.93,6.46,16.16,3.23,0,0-4.23-15.04,5.34-21.51,0,0,4.35-7.58,12.93-3.23,0,0,15.04,2.11,22.62,13.92,0,0,27.97,18.4,29.09,32.2,0,0,0,5.47-4.35,8.7,0,0-20.51,3.23-30.21-1.12l-6.47-1.12s-1.99,6.46-6.34,8.58c0,0-2.24,5.35,13.92,9.7l6.47-1.12-2.11,5.34s-21.51-3.11-32.2,11.93c0,0-44.01,4.23-51.59-8.7,0,0,0,22.75-42.02,33.44,0,0-4.35,2.11-3.23,8.58h-5.35Z"/>
  <path class="cls-3" d="M98.89,183.92s-44.13-35.55-56.07-36.55c0,0,0-16.04,4.35-17.16,0,0,9.69,2.24,15.04-36.55,0,0,20.51-41.89,68.99-37.54,0,0,33.32,8.58,45.25,29.09,0,0,11.69,6.34,16.04,3.11,0,0-4.35-15.04,5.35-21.51,0,0,4.35-7.58,12.93-3.23,0,0,15.04,2.11,22.5,14.05,0,0,28.09,18.27,29.09,32.32,0,0,0,5.35-4.23,8.45,0,0-20.64,3.23-30.21-.99l-6.46-.99s-2.11,6.22-6.46,8.45c0,0-2.11,5.34,14.05,9.57l6.46-.99-2.24,5.35s-23.62,5.34-34.31,7.58c0,0-41.89,8.58-49.48-4.35,0,0,0,22.62-42.02,33.44,0,0-4.23,1.99-3.23,8.45h-5.35Z"/>
  <path class="cls-7" d="M43.23,146.46S-8.49,128.31,1.21,102.58c0,0,11.93-34.56,37.79-50.6,0,0,3.23-8.7-11.93-17.28,0,0-20.39-15.04,3.23-30.21,0,0,30.21-10.82,41.02,1.12,0,0,13.92,2.11,18.15,26.85,0,0-17.15-24.74-23.62-25.86,0,0-21.51-3.23-27.97,7.58,0,0-11.93,4.35-8.7,11.81,0,0,25.86,8.7,27.97,20.51,0,0-6.46,15.04-24.74,25.86,0,0-25.73,18.27-16.04,38.79,0,0,19.27,18.15,30.08,20.26l-3.23,15.04Z"/>
  <path class="cls-3" d="M203.81,72.98s-2.11,11.81-11.81,12.93c0,0-22.5-2.24-21.51-19.39,0,0,8.58-9.69,18.27-4.35,0,0,13.92,3.23,15.04,10.82"/>
  <path class="cls-7" d="M203.81,75.87s-1.64,9.16-9.16,10.03c0,0-17.46-1.74-16.69-15.05,0,0,6.66-7.52,14.18-3.38,0,0,10.81,2.51,11.67,8.39"/>
  <path class="cls-11" d="M257.64,147.98s-21.01-1.49-10.94-17.53c0,0,4.6-.99,5.22,.75,0,0,6.96,.5,8.2,4.1,0,0,3.73,5.97,.25,11.69,0,0-1.99,1.24-2.74,.99"/>
  <path class="cls-10" d="M253.41,142.63s-21.01-1.49-11.06-17.53c0,0,4.6-.99,5.22,.75,0,0,7.09,.37,8.21,4.1,0,0,3.85,5.97,.25,11.69,0,0-1.99,1.12-2.61,.99"/>
  <path class="cls-4" d="M217.11,111.31s-12.56-8.58-8.7-19.14c0,0-9.82,11.44,8.7,19.14"/>
  <path class="cls-4" d="M239.24,95.27s-2.74-7.58-9.07-7.95l-4.35,2.74s.75,8.83,11.06,5.97l2.36-.75Z"/>
  <path class="cls-4" d="M238.99,134.43s6.84-2.86,8.33-.99c1.37,1.74-2.98,.62-3.6,2.49-.75,1.74,7.09-.37,8.58,.99,1.49,1.49-4.97,1.12-6.84,2.49-1.74,1.49,5.1,.37,6.47,2.24,1.49,1.87-3.61,.25-6.09,.75-2.49,.37,1.74-.5,2.86,2.11,1.12,2.49-3.23,1.74-4.97-.37-1.86-2.24-3.23-4.72-5.72-4.72-2.61,0-.74-4.6,.99-4.97"/>
  <path class="cls-4" d="M257.27,131.57l-3.23,2.11s0,1.86,2.98,.75c2.73-.99,2.11,.37,.62,2.24-1.37,1.74-1.37,2.74,.5,2.74,1.62,0,3.85-.75,2.11,1.49-1.86,2.11-2.11,4.35,.37,2.61,2.49-1.87,4.6-11.19-3.36-11.94"/>
  <path class="cls-4" d="M252.29,130.82s-2.11-1.37-3.61-2.49c-1.37-1.12-.37,.25-1.74,1.37-1.49,1.12-.5,1.86,.62,1.49,1.12-.37,5.1,1.74,5.1,1.74l-.37-2.11Z"/>
  <path class="cls-11" d="M230.17,91.67s.37,1.99,2.24,2.36c0,0-2.61,.74-2.24-2.36"/>
  <path class="cls-4" d="M244.34,109.32s-13.43-6.96-19.39-6.96c0,0,17.4,5.47,19.39,6.96"/>
  <path class="cls-4" d="M243.59,111.68s-15.79-2.74-18.65-2.36c0,0,11.06,3.61,18.65,2.36"/>
  <path class="cls-4" d="M245.95,114.04s-8.7,1.24-11.94,2.11c0,0,6.46,1.49,11.94-2.11"/>
  <path class="cls-4" d="M262.98,100s5.84-1.99,11.44-6.34c0,0-8.33,3.23-11.44,6.34"/>
  <path class="cls-4" d="M265.35,104.35s11.31-9.45,10.57-7.09c-.37,1.12-6.71,5.1-10.57,7.09"/>
  <path class="cls-4" d="M266.47,106.33s14.42-1.24,10.69,0c-1.24,.37-8.33,1.12-10.69,0"/>
  <path class="cls-4" d="M112.94,185.02s8.45-.62,11.81,1.74c3.36,2.36,12.31-2.49,14.54-1.74,2.36,.75,8.83,1.87,9.7,4.1,.74,2.24-5.84-.5-8.21,0-2.36,.25-6.71,2.36-2.86,2.98,3.73,.62,7.09,0,8.45,2.49,1.49,2.61-9.45,1.99-11.94,.87-2.36-1.24-6.34-.75-4.1,.99,2.11,1.74,7.21,1.86,8.08,4.23,.74,2.11-8.45,.37-11.56-2.49-3.11-2.98-4.6-1.49-4.6-1.49,0,0,.87,5.35-.12,6.71-.99,1.49-4.1-1.49-3.98-5.22,.25-3.61-10.82-7.58-10.82-7.58,0,0-6.96-3.61-8.08-5.34-.99-1.62,5.1-6.96,7.21-3.61,2.36,3.36,6.46,3.36,6.46,3.36"/>
</svg>