<?xml version="1.0" encoding="UTF-8"?>
<svg xmlns="http://www.w3.org/2000/svg" xmlns:xlink="http://www.w3.org/1999/xlink" viewBox="0 0 3062.73 976.82">
  <defs>
    <style>
      .cls-1 {
        fill: url(#_ŃŚÁŻž_ŪŪŻť_ūŗšŤŚŪÚ_36-2);
      }

      .cls-1, .cls-2, .cls-3, .cls-4, .cls-5, .cls-6, .cls-7, .cls-8, .cls-9, .cls-10, .cls-11, .cls-12, .cls-13 {
        mix-blend-mode: color-dodge;
      }

      .cls-1, .cls-7 {
        opacity: .61;
      }

      .cls-14 {
        fill: url(#_ŃŚÁŻž_ŪŪŻť_ūŗšŤŚŪÚ_7);
      }

      .cls-14, .cls-15, .cls-16, .cls-17, .cls-18, .cls-19, .cls-20, .cls-21, .cls-22, .cls-23, .cls-24, .cls-25, .cls-26 {
        mix-blend-mode: multiply;
      }

      .cls-14, .cls-27, .cls-28 {
        opacity: .2;
      }

      .cls-15 {
        fill: url(#_ŃŚÁŻž_ŪŪŻť_ūŗšŤŚŪÚ_8);
      }

      .cls-15, .cls-18, .cls-29, .cls-30 {
        opacity: .3;
      }

      .cls-2 {
        fill: url(#_ŃŚÁŻž_ŪŪŻť_ūŗšŤŚŪÚ_18-3);
      }

      .cls-2, .cls-3, .cls-6 {
        opacity: .73;
      }

      .cls-3 {
        fill: url(#_ŃŚÁŻž_ŪŪŻť_ūŗšŤŚŪÚ_18-2);
      }

      .cls-31 {
        fill: url(#linear-gradient);
      }

      .cls-4 {
        fill: url(#_ŃŚÁŻž_ŪŪŻť_ūŗšŤŚŪÚ_50-2);
      }

      .cls-4, .cls-5 {
        opacity: .21;
      }

      .cls-5 {
        fill: url(#_ŃŚÁŻž_ŪŪŻť_ūŗšŤŚŪÚ_50);
      }

      .cls-16 {
        fill: url(#_ŃŚÁŻž_ŪŪŻť_ūŗšŤŚŪÚ_228);
      }

      .cls-16, .cls-24, .cls-25, .cls-26, .cls-32, .cls-33 {
        opacity: .5;
      }

      .cls-6 {
        fill: url(#_ŃŚÁŻž_ŪŪŻť_ūŗšŤŚŪÚ_18);
      }

      .cls-34 {
        fill: url(#_ŃŚÁŻž_ŪŪŻť_ūŗšŤŚŪÚ_175);
      }

      .cls-35 {
        fill: url(#_ŃŚÁŻž_ŪŪŻť_ūŗšŤŚŪÚ_164);
      }

      .cls-36 {
        fill: url(#_ŃŚÁŻž_ŪŪŻť_ūŗšŤŚŪÚ_101);
      }

      .cls-37 {
        fill: url(#_ŃŚÁŻž_ŪŪŻť_ūŗšŤŚŪÚ_297);
      }

      .cls-38 {
        fill: url(#_ŃŚÁŻž_ŪŪŻť_ūŗšŤŚŪÚ_2-3);
      }

      .cls-39 {
        fill: url(#_ŃŚÁŻž_ŪŪŻť_ūŗšŤŚŪÚ_2-2);
      }

      .cls-17 {
        fill: url(#_ŃŚÁŻž_ŪŪŻť_ūŗšŤŚŪÚ_8-3);
      }

      .cls-17, .cls-40, .cls-41 {
        opacity: .4;
      }

      .cls-42 {
        fill: #ebe6e2;
      }

      .cls-43 {
        fill: #f4efeb;
      }

      .cls-44 {
        fill: #e7e2df;
      }

      .cls-45, .cls-27, .cls-46, .cls-30 {
        fill: #fff;
      }

      .cls-47, .cls-21 {
        fill: #e4e4e4;
      }

      .cls-48 {
        fill: #6b558c;
      }

      .cls-49 {
        fill: #6c695f;
      }

      .cls-50 {
        fill: #7d6d8b;
      }

      .cls-51 {
        fill: #a32b2b;
      }

      .cls-52 {
        fill: #8b6451;
      }

      .cls-53 {
        fill: #b8c9d6;
      }

      .cls-54 {
        fill: #9d9ea3;
      }

      .cls-55 {
        fill: #9e8dc7;
      }

      .cls-56 {
        fill: #666a74;
      }

      .cls-57 {
        fill: #bababe;
      }

      .cls-58 {
        fill: #333b46;
      }

      .cls-59 {
        fill: #acacac;
      }

      .cls-60 {
        fill: #b3a7c7;
      }

      .cls-61 {
        fill: #a5a4a2;
      }

      .cls-62 {
        fill: #dedede;
      }

      .cls-63 {
        fill: #c4b420;
      }

      .cls-64 {
        fill: #c5c5c5;
      }

      .cls-65 {
        fill: #c8c9cb;
      }

      .cls-66 {
        fill: #1d1b29;
      }

      .cls-67 {
        fill: #9c5b77;
      }

      .cls-68 {
        fill: #545253;
      }

      .cls-69 {
        fill: #535359;
      }

      .cls-70 {
        fill: #292929;
      }

      .cls-71 {
        fill: #59595b;
      }

      .cls-72 {
        fill: #593232;
      }

      .cls-73 {
        fill: #582733;
      }

      .cls-74 {
        fill: #57453f;
      }

      .cls-75 {
        fill: #7482a3;
      }

      .cls-76 {
        fill: #72706c;
      }

      .cls-18 {
        fill: url(#_ŃŚÁŻž_ŪŪŻť_ūŗšŤŚŪÚ_8-2);
      }

      .cls-7 {
        fill: url(#_ŃŚÁŻž_ŪŪŻť_ūŗšŤŚŪÚ_36);
      }

      .cls-19 {
        fill: #4d4d4d;
        opacity: .19;
      }

      .cls-20 {
        fill: #cacaca;
      }

      .cls-8, .cls-10 {
        fill: #d4ccc1;
      }

      .cls-9, .cls-11 {
        fill: #f6e6d0;
      }

      .cls-77, .cls-78 {
        mix-blend-mode: overlay;
      }

      .cls-79 {
        fill: url(#_ŃŚÁŻž_ŪŪŻť_ūŗšŤŚŪÚ_54-2);
      }

      .cls-80 {
        fill: url(#_ŃŚÁŻž_ŪŪŻť_ūŗšŤŚŪÚ_51-2);
      }

      .cls-81 {
        fill: url(#_ŃŚÁŻž_ŪŪŻť_ūŗšŤŚŪÚ_52-3);
      }

      .cls-82 {
        fill: url(#_ŃŚÁŻž_ŪŪŻť_ūŗšŤŚŪÚ_52-2);
      }

      .cls-83 {
        fill: url(#_ŃŚÁŻž_ŪŪŻť_ūŗšŤŚŪÚ_53-9);
      }

      .cls-84 {
        fill: url(#_ŃŚÁŻž_ŪŪŻť_ūŗšŤŚŪÚ_53-2);
      }

      .cls-85 {
        fill: url(#_ŃŚÁŻž_ŪŪŻť_ūŗšŤŚŪÚ_53-8);
      }

      .cls-86 {
        fill: url(#_ŃŚÁŻž_ŪŪŻť_ūŗšŤŚŪÚ_53-7);
      }

      .cls-87 {
        fill: url(#_ŃŚÁŻž_ŪŪŻť_ūŗšŤŚŪÚ_53-6);
      }

      .cls-88 {
        fill: url(#_ŃŚÁŻž_ŪŪŻť_ūŗšŤŚŪÚ_53-5);
      }

      .cls-89 {
        fill: url(#_ŃŚÁŻž_ŪŪŻť_ūŗšŤŚŪÚ_53-4);
      }

      .cls-90 {
        fill: url(#_ŃŚÁŻž_ŪŪŻť_ūŗšŤŚŪÚ_53-3);
      }

      .cls-91 {
        fill: url(#_ŃŚÁŻž_ŪŪŻť_ūŗšŤŚŪÚ_44-2);
      }

      .cls-92 {
        fill: url(#_ŃŚÁŻž_ŪŪŻť_ūŗšŤŚŪÚ_20-3);
      }

      .cls-93 {
        fill: url(#_ŃŚÁŻž_ŪŪŻť_ūŗšŤŚŪÚ_20-4);
      }

      .cls-94 {
        fill: url(#_ŃŚÁŻž_ŪŪŻť_ūŗšŤŚŪÚ_20-5);
      }

      .cls-95 {
        fill: url(#_ŃŚÁŻž_ŪŪŻť_ūŗšŤŚŪÚ_20-2);
      }

      .cls-96 {
        fill: url(#_ŃŚÁŻž_ŪŪŻť_ūŗšŤŚŪÚ_19-2);
      }

      .cls-97 {
        fill: url(#_ŃŚÁŻž_ŪŪŻť_ūŗšŤŚŪÚ_16-2);
      }

      .cls-98 {
        fill: url(#_ŃŚÁŻž_ŪŪŻť_ūŗšŤŚŪÚ_16-3);
      }

      .cls-99 {
        fill: url(#_ŃŚÁŻž_ŪŪŻť_ūŗšŤŚŪÚ_15-2);
      }

      .cls-100 {
        fill: url(#_ŃŚÁŻž_ŪŪŻť_ūŗšŤŚŪÚ_17-2);
      }

      .cls-23 {
        fill: #6b0a36;
      }

      .cls-23, .cls-46 {
        opacity: .6;
      }

      .cls-24 {
        fill: #656b24;
      }

      .cls-25 {
        fill: #505634;
      }

      .cls-10, .cls-11 {
        opacity: .46;
      }

      .cls-26 {
        fill: url(#_ŃŚÁŻž_ŪŪŻť_ūŗšŤŚŪÚ_228-2);
      }

      .cls-101 {
        fill: url(#_ŃŚÁŻž_ŪŪŻť_ūŗšŤŚŪÚ_53-11);
      }

      .cls-102 {
        fill: url(#_ŃŚÁŻž_ŪŪŻť_ūŗšŤŚŪÚ_53-10);
      }

      .cls-103 {
        fill: url(#_ŃŚÁŻž_ŪŪŻť_ūŗšŤŚŪÚ_175-3);
      }

      .cls-104 {
        fill: url(#_ŃŚÁŻž_ŪŪŻť_ūŗšŤŚŪÚ_175-2);
      }

      .cls-105 {
        fill: url(#_ŃŚÁŻž_ŪŪŻť_ūŗšŤŚŪÚ_101-2);
      }

      .cls-106 {
        fill: url(#linear-gradient-3);
      }

      .cls-107 {
        fill: url(#linear-gradient-4);
      }

      .cls-108 {
        fill: url(#linear-gradient-2);
      }

      .cls-109 {
        fill: url(#linear-gradient-5);
      }

      .cls-12 {
        fill: url(#_ŃŚÁŻž_ŪŪŻť_ūŗšŤŚŪÚ_8-5);
      }

      .cls-12, .cls-13 {
        opacity: .12;
      }

      .cls-13 {
        fill: url(#_ŃŚÁŻž_ŪŪŻť_ūŗšŤŚŪÚ_8-4);
      }

      .cls-110 {
        opacity: .95;
      }

      .cls-40 {
        fill: url(#_ŃŚÁŻž_ŪŪŻť_ūŗšŤŚŪÚ_6-2);
      }

      .cls-40, .cls-41, .cls-33, .cls-28 {
        mix-blend-mode: screen;
      }

      .cls-41 {
        fill: url(#_ŃŚÁŻž_ŪŪŻť_ūŗšŤŚŪÚ_6);
      }

      .cls-111 {
        isolation: isolate;
      }

      .cls-78 {
        fill: #b4ae7a;
        fill-rule: evenodd;
      }

      .cls-33 {
        fill: url(#_ŃŚÁŻž_ŪŪŻť_ūŗšŤŚŪÚ_21);
      }

      .cls-112 {
        fill: url(#_ŃŚÁŻž_ŪŪŻť_ūŗšŤŚŪÚ_2);
      }

      .cls-113 {
        fill: url(#_ŃŚÁŻž_ŪŪŻť_ūŗšŤŚŪÚ_4);
      }

      .cls-114 {
        fill: url(#_ŃŚÁŻž_ŪŪŻť_ūŗšŤŚŪÚ_19);
      }

      .cls-115 {
        fill: url(#_ŃŚÁŻž_ŪŪŻť_ūŗšŤŚŪÚ_11);
      }

      .cls-116 {
        fill: url(#_ŃŚÁŻž_ŪŪŻť_ūŗšŤŚŪÚ_14);
      }

      .cls-117 {
        fill: url(#_ŃŚÁŻž_ŪŪŻť_ūŗšŤŚŪÚ_13);
      }

      .cls-118 {
        fill: url(#_ŃŚÁŻž_ŪŪŻť_ūŗšŤŚŪÚ_12);
      }

      .cls-119 {
        fill: url(#_ŃŚÁŻž_ŪŪŻť_ūŗšŤŚŪÚ_17);
      }

      .cls-120 {
        fill: url(#_ŃŚÁŻž_ŪŪŻť_ūŗšŤŚŪÚ_16);
      }

      .cls-121 {
        fill: url(#_ŃŚÁŻž_ŪŪŻť_ūŗšŤŚŪÚ_15);
      }

      .cls-122 {
        fill: url(#_ŃŚÁŻž_ŪŪŻť_ūŗšŤŚŪÚ_22);
      }

      .cls-123 {
        fill: url(#_ŃŚÁŻž_ŪŪŻť_ūŗšŤŚŪÚ_23);
      }

      .cls-124 {
        fill: url(#_ŃŚÁŻž_ŪŪŻť_ūŗšŤŚŪÚ_20);
      }

      .cls-125 {
        fill: url(#_ŃŚÁŻž_ŪŪŻť_ūŗšŤŚŪÚ_72);
      }

      .cls-126 {
        fill: url(#_ŃŚÁŻž_ŪŪŻť_ūŗšŤŚŪÚ_54);
      }

      .cls-127 {
        fill: url(#_ŃŚÁŻž_ŪŪŻť_ūŗšŤŚŪÚ_53);
      }

      .cls-128 {
        fill: url(#_ŃŚÁŻž_ŪŪŻť_ūŗšŤŚŪÚ_52);
      }

      .cls-129 {
        fill: url(#_ŃŚÁŻž_ŪŪŻť_ūŗšŤŚŪÚ_51);
      }

      .cls-130 {
        fill: url(#_ŃŚÁŻž_ŪŪŻť_ūŗšŤŚŪÚ_94);
      }

      .cls-131 {
        fill: url(#_ŃŚÁŻž_ŪŪŻť_ūŗšŤŚŪÚ_49);
      }

      .cls-132 {
        fill: url(#_ŃŚÁŻž_ŪŪŻť_ūŗšŤŚŪÚ_31);
      }

      .cls-133 {
        fill: url(#_ŃŚÁŻž_ŪŪŻť_ūŗšŤŚŪÚ_44);
      }

      .cls-134 {
        fill: url(#_ŃŚÁŻž_ŪŪŻť_ūŗšŤŚŪÚ_46);
      }

      .cls-135 {
        fill: url(#_ŃŚÁŻž_ŪŪŻť_ūŗšŤŚŪÚ_45);
      }

      .cls-28 {
        fill: url(#_ŃŚÁŻž_ŪŪŻť_ūŗšŤŚŪÚ_97);
      }
    </style>
    <linearGradient id="linear-gradient" x1="2732.69" y1="366.31" x2="2757.71" y2="414.5" gradientUnits="userSpaceOnUse">
      <stop offset="0" stop-color="#7482a3"/>
      <stop offset=".93" stop-color="#677292"/>
    </linearGradient>
    <linearGradient id="linear-gradient-2" x1="2595.36" y1="276.39" x2="2824.2" y2="276.39" gradientUnits="userSpaceOnUse">
      <stop offset=".42" stop-color="#7482a3"/>
      <stop offset="1" stop-color="#677292"/>
    </linearGradient>
    <linearGradient id="linear-gradient-3" x1="2595.36" y1="254.31" x2="2733.35" y2="254.31" gradientUnits="userSpaceOnUse">
      <stop offset=".42" stop-color="#7482a3"/>
      <stop offset="1" stop-color="#677292"/>
    </linearGradient>
    <linearGradient id="linear-gradient-4" x1="2535.1" y1="253.6" x2="2639.61" y2="253.6" gradientUnits="userSpaceOnUse">
      <stop offset=".3" stop-color="#7482a3"/>
      <stop offset="1" stop-color="#677292"/>
    </linearGradient>
    <linearGradient id="linear-gradient-5" x1="2217.48" y1="478.1" x2="2873.02" y2="478.1" xlink:href="#linear-gradient-4"/>
    <linearGradient id="_ŃŚÁŻž_ŪŪŻť_ūŗšŤŚŪÚ_52" data-name="ŃŚÁŻžˇŪŪŻť „ūŗšŤŚŪÚ 52" x1="1749.53" y1="740.32" x2="2015.74" y2="891.47" gradientUnits="userSpaceOnUse">
      <stop offset=".05" stop-color="#e9b497"/>
      <stop offset="1" stop-color="#f1d8bd"/>
    </linearGradient>
    <linearGradient id="_ŃŚÁŻž_ŪŪŻť_ūŗšŤŚŪÚ_8" data-name="ŃŚÁŻžˇŪŪŻť „ūŗšŤŚŪÚ 8" x1="1800.03" y1="846.39" x2="1853.96" y2="928.46" gradientUnits="userSpaceOnUse">
      <stop offset="0" stop-color="#750050"/>
      <stop offset="1" stop-color="#fff"/>
    </linearGradient>
    <linearGradient id="_ŃŚÁŻž_ŪŪŻť_ūŗšŤŚŪÚ_8-2" data-name="ŃŚÁŻžˇŪŪŻť „ūŗšŤŚŪÚ 8" x1="803.52" y1="225.22" x2="830.95" y2="157.83" xlink:href="#_ŃŚÁŻž_ŪŪŻť_ūŗšŤŚŪÚ_8"/>
    <radialGradient id="_ŃŚÁŻž_ŪŪŻť_ūŗšŤŚŪÚ_23" data-name="ŃŚÁŻžˇŪŪŻť „ūŗšŤŚŪÚ 23" cx="810.98" cy="-180.12" fx="810.98" fy="-180.12" r="775.89" gradientUnits="userSpaceOnUse">
      <stop offset=".02" stop-color="#675775"/>
      <stop offset=".99" stop-color="#523853"/>
    </radialGradient>
    <linearGradient id="_ŃŚÁŻž_ŪŪŻť_ūŗšŤŚŪÚ_15" data-name="ŃŚÁŻžˇŪŪŻť „ūŗšŤŚŪÚ 15" x1="688.11" y1="298.36" x2="752.28" y2="298.36" gradientUnits="userSpaceOnUse">
      <stop offset=".02" stop-color="#291c32"/>
      <stop offset=".99" stop-color="#2b2232"/>
    </linearGradient>
    <linearGradient id="_ŃŚÁŻž_ŪŪŻť_ūŗšŤŚŪÚ_20" data-name="ŃŚÁŻžˇŪŪŻť „ūŗšŤŚŪÚ 20" x1="531.59" y1="441.29" x2="1210.46" y2="441.29" gradientUnits="userSpaceOnUse">
      <stop offset="0" stop-color="#422b40"/>
      <stop offset=".99" stop-color="#2b2232"/>
    </linearGradient>
    <linearGradient id="_ŃŚÁŻž_ŪŪŻť_ūŗšŤŚŪÚ_20-2" data-name="ŃŚÁŻžˇŪŪŻť „ūŗšŤŚŪÚ 20" x1="1212.13" y1="205.28" x2="1421.83" y2="646.47" xlink:href="#_ŃŚÁŻž_ŪŪŻť_ūŗšŤŚŪÚ_20"/>
    <radialGradient id="_ŃŚÁŻž_ŪŪŻť_ūŗšŤŚŪÚ_16" data-name="ŃŚÁŻžˇŪŪŻť „ūŗšŤŚŪÚ 16" cx="854.8" cy="697.42" fx="854.8" fy="697.42" r="391.88" gradientUnits="userSpaceOnUse">
      <stop offset=".02" stop-color="#9c6b4b"/>
      <stop offset=".99" stop-color="#955f5a"/>
    </radialGradient>
    <linearGradient id="_ŃŚÁŻž_ŪŪŻť_ūŗšŤŚŪÚ_19" data-name="ŃŚÁŻžˇŪŪŻť „ūŗšŤŚŪÚ 19" x1="1606.53" y1="249.56" x2="1568.3" y2="730.79" gradientUnits="userSpaceOnUse">
      <stop offset=".02" stop-color="#594f62"/>
      <stop offset=".99" stop-color="#402e41"/>
    </linearGradient>
    <linearGradient id="_ŃŚÁŻž_ŪŪŻť_ūŗšŤŚŪÚ_17" data-name="ŃŚÁŻžˇŪŪŻť „ūŗšŤŚŪÚ 17" x1="1599.17" y1="222.37" x2="1592.65" y2="385.24" gradientUnits="userSpaceOnUse">
      <stop offset=".02" stop-color="#eeb962"/>
      <stop offset=".99" stop-color="#955f5a"/>
    </linearGradient>
    <radialGradient id="_ŃŚÁŻž_ŪŪŻť_ūŗšŤŚŪÚ_16-2" data-name="ŃŚÁŻžˇŪŪŻť „ūŗšŤŚŪÚ 16" cx="1575.44" cy="536.38" fx="1575.44" fy="536.38" r="188.1" xlink:href="#_ŃŚÁŻž_ŪŪŻť_ūŗšŤŚŪÚ_16"/>
    <radialGradient id="_ŃŚÁŻž_ŪŪŻť_ūŗšŤŚŪÚ_22" data-name="ŃŚÁŻžˇŪŪŻť „ūŗšŤŚŪÚ 22" cx="977.75" cy="281.57" fx="977.75" fy="281.57" r="924.3" gradientUnits="userSpaceOnUse">
      <stop offset=".02" stop-color="#594f62"/>
      <stop offset=".99" stop-color="#402e41"/>
    </radialGradient>
    <linearGradient id="_ŃŚÁŻž_ŪŪŻť_ūŗšŤŚŪÚ_20-3" data-name="ŃŚÁŻžˇŪŪŻť „ūŗšŤŚŪÚ 20" x1="320.86" y1="171.73" x2="181.87" y2="267.29" xlink:href="#_ŃŚÁŻž_ŪŪŻť_ūŗšŤŚŪÚ_20"/>
    <linearGradient id="_ŃŚÁŻž_ŪŪŻť_ūŗšŤŚŪÚ_21" data-name="ŃŚÁŻžˇŪŪŻť „ūŗšŤŚŪÚ 21" x1="998.75" y1="604.21" x2="1118.63" y2="481.73" gradientUnits="userSpaceOnUse">
      <stop offset="0" stop-color="#000"/>
      <stop offset="1" stop-color="#a59fb0"/>
    </linearGradient>
    <linearGradient id="_ŃŚÁŻž_ŪŪŻť_ūŗšŤŚŪÚ_20-4" data-name="ŃŚÁŻžˇŪŪŻť „ūŗšŤŚŪÚ 20" x1="307.68" y1="181.63" x2="286.84" y2="402.26" xlink:href="#_ŃŚÁŻž_ŪŪŻť_ūŗšŤŚŪÚ_20"/>
    <linearGradient id="_ŃŚÁŻž_ŪŪŻť_ūŗšŤŚŪÚ_20-5" data-name="ŃŚÁŻžˇŪŪŻť „ūŗšŤŚŪÚ 20" x1="281.26" y1="179.13" x2="260.41" y2="399.77" xlink:href="#_ŃŚÁŻž_ŪŪŻť_ūŗšŤŚŪÚ_20"/>
    <linearGradient id="_ŃŚÁŻž_ŪŪŻť_ūŗšŤŚŪÚ_19-2" data-name="ŃŚÁŻžˇŪŪŻť „ūŗšŤŚŪÚ 19" x1="593.21" y1="236.98" x2="476.27" y2="613.65" xlink:href="#_ŃŚÁŻž_ŪŪŻť_ūŗšŤŚŪÚ_19"/>
    <linearGradient id="_ŃŚÁŻž_ŪŪŻť_ūŗšŤŚŪÚ_17-2" data-name="ŃŚÁŻžˇŪŪŻť „ūŗšŤŚŪÚ 17" x1="502.94" y1="178.52" x2="496.42" y2="341.4" xlink:href="#_ŃŚÁŻž_ŪŪŻť_ūŗšŤŚŪÚ_17"/>
    <radialGradient id="_ŃŚÁŻž_ŪŪŻť_ūŗšŤŚŪÚ_16-3" data-name="ŃŚÁŻžˇŪŪŻť „ūŗšŤŚŪÚ 16" cx="505.07" cy="539.99" fx="505.07" fy="539.99" r="187.46" xlink:href="#_ŃŚÁŻž_ŪŪŻť_ūŗšŤŚŪÚ_16"/>
    <linearGradient id="_ŃŚÁŻž_ŪŪŻť_ūŗšŤŚŪÚ_15-2" data-name="ŃŚÁŻžˇŪŪŻť „ūŗšŤŚŪÚ 15" x1="955.44" y1="559.89" x2="1109.74" y2="559.89" xlink:href="#_ŃŚÁŻž_ŪŪŻť_ūŗšŤŚŪÚ_15"/>
    <linearGradient id="_ŃŚÁŻž_ŪŪŻť_ūŗšŤŚŪÚ_97" data-name="ŃŚÁŻžˇŪŪŻť „ūŗšŤŚŪÚ 97" x1="547.39" y1="296.23" x2="735.02" y2="103.39" gradientUnits="userSpaceOnUse">
      <stop offset="0" stop-color="#000"/>
      <stop offset="1" stop-color="#9993b1"/>
    </linearGradient>
    <linearGradient id="_ŃŚÁŻž_ŪŪŻť_ūŗšŤŚŪÚ_44" data-name="ŃŚÁŻžˇŪŪŻť „ūŗšŤŚŪÚ 44" x1="806.56" y1="452.56" x2="794.32" y2="461.4" gradientUnits="userSpaceOnUse">
      <stop offset=".02" stop-color="#4f4062"/>
      <stop offset=".99" stop-color="#3a2141"/>
    </linearGradient>
    <linearGradient id="_ŃŚÁŻž_ŪŪŻť_ūŗšŤŚŪÚ_44-2" data-name="ŃŚÁŻžˇŪŪŻť „ūŗšŤŚŪÚ 44" x1="826.74" y1="395.25" x2="800.4" y2="493.53" xlink:href="#_ŃŚÁŻž_ŪŪŻť_ūŗšŤŚŪÚ_44"/>
    <linearGradient id="_ŃŚÁŻž_ŪŪŻť_ūŗšŤŚŪÚ_7" data-name="ŃŚÁŻžˇŪŪŻť „ūŗšŤŚŪÚ 7" x1="1389.34" y1="529.35" x2="1238.19" y2="795.16" gradientUnits="userSpaceOnUse">
      <stop offset="0" stop-color="#9c3c56"/>
      <stop offset="1" stop-color="#cf9db2"/>
    </linearGradient>
    <linearGradient id="_ŃŚÁŻž_ŪŪŻť_ūŗšŤŚŪÚ_6" data-name="ŃŚÁŻžˇŪŪŻť „ūŗšŤŚŪÚ 6" x1="473.13" y1="639.95" x2="591.27" y2="469.69" gradientUnits="userSpaceOnUse">
      <stop offset="0" stop-color="#000"/>
      <stop offset="1" stop-color="#7f5f23"/>
    </linearGradient>
    <linearGradient id="_ŃŚÁŻž_ŪŪŻť_ūŗšŤŚŪÚ_6-2" data-name="ŃŚÁŻžˇŪŪŻť „ūŗšŤŚŪÚ 6" x1="406.42" y1="593.66" x2="524.55" y2="423.4" xlink:href="#_ŃŚÁŻž_ŪŪŻť_ūŗšŤŚŪÚ_6"/>
    <linearGradient id="_ŃŚÁŻž_ŪŪŻť_ūŗšŤŚŪÚ_101" data-name="ŃŚÁŻžˇŪŪŻť „ūŗšŤŚŪÚ 101" x1="975.02" y1="488.38" x2="1465.78" y2="488.38" gradientUnits="userSpaceOnUse">
      <stop offset="0" stop-color="#3d1b40"/>
      <stop offset=".99" stop-color="#231433"/>
    </linearGradient>
    <linearGradient id="_ŃŚÁŻž_ŪŪŻť_ūŗšŤŚŪÚ_101-2" data-name="ŃŚÁŻžˇŪŪŻť „ūŗšŤŚŪÚ 101" x1="929.59" y1="467.43" x2="780.52" y2="152.93" xlink:href="#_ŃŚÁŻž_ŪŪŻť_ūŗšŤŚŪÚ_101"/>
    <linearGradient id="_ŃŚÁŻž_ŪŪŻť_ūŗšŤŚŪÚ_52-2" data-name="ŃŚÁŻžˇŪŪŻť „ūŗšŤŚŪÚ 52" x1="793.06" y1="262.69" x2="847.14" y2="101.12" xlink:href="#_ŃŚÁŻž_ŪŪŻť_ūŗšŤŚŪÚ_52"/>
    <linearGradient id="_ŃŚÁŻž_ŪŪŻť_ūŗšŤŚŪÚ_49" data-name="ŃŚÁŻžˇŪŪŻť „ūŗšŤŚŪÚ 49" x1="-236.62" y1="2280.45" x2="-293.87" y2="2750.17" gradientTransform="translate(-119.2 -1790.43) rotate(-27.66)" gradientUnits="userSpaceOnUse">
      <stop offset="0" stop-color="#b78a55"/>
      <stop offset="1" stop-color="#9b5653"/>
    </linearGradient>
    <linearGradient id="_ŃŚÁŻž_ŪŪŻť_ūŗšŤŚŪÚ_18" data-name="ŃŚÁŻžˇŪŪŻť „ūŗšŤŚŪÚ 18" x1="-38.7" y1="2440.02" x2="-235.38" y2="2591.03" gradientTransform="translate(-119.2 -1790.43) rotate(-27.66)" gradientUnits="userSpaceOnUse">
      <stop offset="0" stop-color="#7d6e5d"/>
      <stop offset="1" stop-color="#000"/>
    </linearGradient>
    <linearGradient id="_ŃŚÁŻž_ŪŪŻť_ūŗšŤŚŪÚ_18-2" data-name="ŃŚÁŻžˇŪŪŻť „ūŗšŤŚŪÚ 18" x1="-342.22" y1="2260.96" x2="-317.19" y2="2361.69" xlink:href="#_ŃŚÁŻž_ŪŪŻť_ūŗšŤŚŪÚ_18"/>
    <linearGradient id="_ŃŚÁŻž_ŪŪŻť_ūŗšŤŚŪÚ_18-3" data-name="ŃŚÁŻžˇŪŪŻť „ūŗšŤŚŪÚ 18" x1="-296.41" y1="2297.14" x2="-282.37" y2="2353.63" xlink:href="#_ŃŚÁŻž_ŪŪŻť_ūŗšŤŚŪÚ_18"/>
    <linearGradient id="_ŃŚÁŻž_ŪŪŻť_ūŗšŤŚŪÚ_2" data-name="ŃŚÁŻžˇŪŪŻť „ūŗšŤŚŪÚ 2" x1="563.98" y1="538.04" x2="598.89" y2="499.06" gradientUnits="userSpaceOnUse">
      <stop offset="0" stop-color="#404627"/>
      <stop offset="1" stop-color="#747642"/>
    </linearGradient>
    <linearGradient id="_ŃŚÁŻž_ŪŪŻť_ūŗšŤŚŪÚ_12" data-name="ŃŚÁŻžˇŪŪŻť „ūŗšŤŚŪÚ 12" x1="-8957.54" y1="-9186.52" x2="-8910.61" y2="-9163.64" gradientTransform="translate(-12108.42 -1252.66) rotate(-126.53) scale(1 -1)" gradientUnits="userSpaceOnUse">
      <stop offset="0" stop-color="#653d2f"/>
      <stop offset="1" stop-color="#372731"/>
    </linearGradient>
    <linearGradient id="_ŃŚÁŻž_ŪŪŻť_ūŗšŤŚŪÚ_11" data-name="ŃŚÁŻžˇŪŪŻť „ūŗšŤŚŪÚ 11" x1="858.16" y1="603.07" x2="1094.91" y2="554.69" gradientUnits="userSpaceOnUse">
      <stop offset="0" stop-color="#747642"/>
      <stop offset="1" stop-color="#404627"/>
    </linearGradient>
    <linearGradient id="_ŃŚÁŻž_ŪŪŻť_ūŗšŤŚŪÚ_2-2" data-name="ŃŚÁŻžˇŪŪŻť „ūŗšŤŚŪÚ 2" x1="635.57" y1="657.18" x2="728.04" y2="604.14" xlink:href="#_ŃŚÁŻž_ŪŪŻť_ūŗšŤŚŪÚ_2"/>
    <linearGradient id="_ŃŚÁŻž_ŪŪŻť_ūŗšŤŚŪÚ_4" data-name="ŃŚÁŻžˇŪŪŻť „ūŗšŤŚŪÚ 4" x1="11908.92" y1="3756.61" x2="11908.71" y2="3757.14" gradientTransform="translate(-11548.88 3164.48) rotate(-29.49)" gradientUnits="userSpaceOnUse">
      <stop offset="0" stop-color="#69363e"/>
      <stop offset=".98" stop-color="#7c4a49"/>
    </linearGradient>
    <linearGradient id="_ŃŚÁŻž_ŪŪŻť_ūŗšŤŚŪÚ_2-3" data-name="ŃŚÁŻžˇŪŪŻť „ūŗšŤŚŪÚ 2" x1="543.62" y1="480.39" x2="580.33" y2="456.82" xlink:href="#_ŃŚÁŻž_ŪŪŻť_ūŗšŤŚŪÚ_2"/>
    <radialGradient id="_ŃŚÁŻž_ŪŪŻť_ūŗšŤŚŪÚ_14" data-name="ŃŚÁŻžˇŪŪŻť „ūŗšŤŚŪÚ 14" cx="1359.06" cy="599.97" fx="1359.06" fy="599.97" r="292.64" gradientUnits="userSpaceOnUse">
      <stop offset=".02" stop-color="#9b7252"/>
      <stop offset=".99" stop-color="#946560"/>
    </radialGradient>
    <linearGradient id="_ŃŚÁŻž_ŪŪŻť_ūŗšŤŚŪÚ_13" data-name="ŃŚÁŻžˇŪŪŻť „ūŗšŤŚŪÚ 13" x1="744.23" y1="521.8" x2="869.31" y2="685.11" gradientUnits="userSpaceOnUse">
      <stop offset=".02" stop-color="#ecbf6b"/>
      <stop offset=".99" stop-color="#946560"/>
    </linearGradient>
    <linearGradient id="_ŃŚÁŻž_ŪŪŻť_ūŗšŤŚŪÚ_72" data-name="ŃŚÁŻžˇŪŪŻť „ūŗšŤŚŪÚ 72" x1="1134.83" y1="371.91" x2="1391.54" y2="867.86" gradientUnits="userSpaceOnUse">
      <stop offset=".02" stop-color="#f59e0f"/>
      <stop offset=".99" stop-color="#9c3633"/>
    </linearGradient>
    <linearGradient id="_ŃŚÁŻž_ŪŪŻť_ūŗšŤŚŪÚ_31" data-name="ŃŚÁŻžˇŪŪŻť „ūŗšŤŚŪÚ 31" x1="738.76" y1="133.91" x2="801.95" y2="63.55" gradientUnits="userSpaceOnUse">
      <stop offset="0" stop-color="#29315f"/>
      <stop offset="1" stop-color="#798c9e"/>
    </linearGradient>
    <linearGradient id="_ŃŚÁŻž_ŪŪŻť_ūŗšŤŚŪÚ_53" data-name="ŃŚÁŻžˇŪŪŻť „ūŗšŤŚŪÚ 53" x1="2117.57" y1="958.63" x2="2158.14" y2="1065.59" gradientTransform="translate(3824.88) rotate(-180) scale(1 -1)" gradientUnits="userSpaceOnUse">
      <stop offset="0" stop-color="#3c525e"/>
      <stop offset="1" stop-color="#859d9d"/>
    </linearGradient>
    <linearGradient id="_ŃŚÁŻž_ŪŪŻť_ūŗšŤŚŪÚ_53-2" data-name="ŃŚÁŻžˇŪŪŻť „ūŗšŤŚŪÚ 53" x1="1864.43" y1="797.17" x2="1976.09" y2="858.45" gradientTransform="matrix(1, 0, 0, 1, 0, 0)" xlink:href="#_ŃŚÁŻž_ŪŪŻť_ūŗšŤŚŪÚ_53"/>
    <linearGradient id="_ŃŚÁŻž_ŪŪŻť_ūŗšŤŚŪÚ_53-3" data-name="ŃŚÁŻžˇŪŪŻť „ūŗšŤŚŪÚ 53" x1="1686.05" y1="675.29" x2="1683.77" y2="757.25" gradientTransform="matrix(1, 0, 0, 1, 0, 0)" xlink:href="#_ŃŚÁŻž_ŪŪŻť_ūŗšŤŚŪÚ_53"/>
    <linearGradient id="_ŃŚÁŻž_ŪŪŻť_ūŗšŤŚŪÚ_53-4" data-name="ŃŚÁŻžˇŪŪŻť „ūŗšŤŚŪÚ 53" x1="1881.08" y1="480.43" x2="1892.8" y2="481.88" gradientTransform="matrix(1, 0, 0, 1, 0, 0)" xlink:href="#_ŃŚÁŻž_ŪŪŻť_ūŗšŤŚŪÚ_53"/>
    <linearGradient id="_ŃŚÁŻž_ŪŪŻť_ūŗšŤŚŪÚ_53-5" data-name="ŃŚÁŻžˇŪŪŻť „ūŗšŤŚŪÚ 53" x1="1881.19" y1="482.49" x2="1892.95" y2="483.95" gradientTransform="matrix(1, 0, 0, 1, 0, 0)" xlink:href="#_ŃŚÁŻž_ŪŪŻť_ūŗšŤŚŪÚ_53"/>
    <linearGradient id="_ŃŚÁŻž_ŪŪŻť_ūŗšŤŚŪÚ_53-6" data-name="ŃŚÁŻžˇŪŪŻť „ūŗšŤŚŪÚ 53" x1="1813.35" y1="399.8" x2="1808.57" y2="497.48" gradientTransform="matrix(1, 0, 0, 1, 0, 0)" xlink:href="#_ŃŚÁŻž_ŪŪŻť_ūŗšŤŚŪÚ_53"/>
    <linearGradient id="_ŃŚÁŻž_ŪŪŻť_ūŗšŤŚŪÚ_54" data-name="ŃŚÁŻžˇŪŪŻť „ūŗšŤŚŪÚ 54" x1="1357.81" y1="518.13" x2="1845.56" y2="518.13" gradientUnits="userSpaceOnUse">
      <stop offset="0" stop-color="#dd9271"/>
      <stop offset="1" stop-color="#bb6d87"/>
    </linearGradient>
    <linearGradient id="_ŃŚÁŻž_ŪŪŻť_ūŗšŤŚŪÚ_54-2" data-name="ŃŚÁŻžˇŪŪŻť „ūŗšŤŚŪÚ 54" x1="1743.37" y1="239.67" x2="1853.34" y2="482.15" xlink:href="#_ŃŚÁŻž_ŪŪŻť_ūŗšŤŚŪÚ_54"/>
    <linearGradient id="_ŃŚÁŻž_ŪŪŻť_ūŗšŤŚŪÚ_53-7" data-name="ŃŚÁŻžˇŪŪŻť „ūŗšŤŚŪÚ 53" x1="1788.65" y1="762.1" x2="1829.5" y2="728.74" gradientTransform="matrix(1, 0, 0, 1, 0, 0)" xlink:href="#_ŃŚÁŻž_ŪŪŻť_ūŗšŤŚŪÚ_53"/>
    <linearGradient id="_ŃŚÁŻž_ŪŪŻť_ūŗšŤŚŪÚ_53-8" data-name="ŃŚÁŻžˇŪŪŻť „ūŗšŤŚŪÚ 53" x1="1617.76" y1="964.89" x2="1658.33" y2="1071.85" gradientTransform="matrix(1, 0, 0, 1, 0, 0)" xlink:href="#_ŃŚÁŻž_ŪŪŻť_ūŗšŤŚŪÚ_53"/>
    <linearGradient id="_ŃŚÁŻž_ŪŪŻť_ūŗšŤŚŪÚ_53-9" data-name="ŃŚÁŻžˇŪŪŻť „ūŗšŤŚŪÚ 53" x1="1537.65" y1="913.19" x2="1624.57" y2="806.31" gradientTransform="matrix(1, 0, 0, 1, 0, 0)" xlink:href="#_ŃŚÁŻž_ŪŪŻť_ūŗšŤŚŪÚ_53"/>
    <linearGradient id="_ŃŚÁŻž_ŪŪŻť_ūŗšŤŚŪÚ_50" data-name="ŃŚÁŻžˇŪŪŻť „ūŗšŤŚŪÚ 50" x1="1607.34" y1="870.42" x2="1550.31" y2="847.73" gradientUnits="userSpaceOnUse">
      <stop offset="0" stop-color="#000"/>
      <stop offset="1" stop-color="#fffdf1"/>
    </linearGradient>
    <linearGradient id="_ŃŚÁŻž_ŪŪŻť_ūŗšŤŚŪÚ_53-10" data-name="ŃŚÁŻžˇŪŪŻť „ūŗšŤŚŪÚ 53" x1="2035.98" y1="958.63" x2="2076.55" y2="1065.59" xlink:href="#_ŃŚÁŻž_ŪŪŻť_ūŗšŤŚŪÚ_53"/>
    <linearGradient id="_ŃŚÁŻž_ŪŪŻť_ūŗšŤŚŪÚ_53-11" data-name="ŃŚÁŻžˇŪŪŻť „ūŗšŤŚŪÚ 53" x1="1955.86" y1="906.93" x2="2042.78" y2="800.04" xlink:href="#_ŃŚÁŻž_ŪŪŻť_ūŗšŤŚŪÚ_53"/>
    <linearGradient id="_ŃŚÁŻž_ŪŪŻť_ūŗšŤŚŪÚ_50-2" data-name="ŃŚÁŻžˇŪŪŻť „ūŗšŤŚŪÚ 50" x1="2025.56" y1="864.16" x2="1968.52" y2="841.46" gradientTransform="translate(3824.88) rotate(-180) scale(1 -1)" xlink:href="#_ŃŚÁŻž_ŪŪŻť_ūŗšŤŚŪÚ_50"/>
    <linearGradient id="_ŃŚÁŻž_ŪŪŻť_ūŗšŤŚŪÚ_52-3" data-name="ŃŚÁŻžˇŪŪŻť „ūŗšŤŚŪÚ 52" x1="1729.81" y1="579.78" x2="1754.42" y2="495.93" xlink:href="#_ŃŚÁŻž_ŪŪŻť_ūŗšŤŚŪÚ_52"/>
    <linearGradient id="_ŃŚÁŻž_ŪŪŻť_ūŗšŤŚŪÚ_228" data-name="ŃŚÁŻžˇŪŪŻť „ūŗšŤŚŪÚ 228" x1="1786.28" y1="524.77" x2="1730.72" y2="561.39" gradientUnits="userSpaceOnUse">
      <stop offset="0" stop-color="#a96c53"/>
      <stop offset="1" stop-color="#780040"/>
    </linearGradient>
    <linearGradient id="_ŃŚÁŻž_ŪŪŻť_ūŗšŤŚŪÚ_228-2" data-name="ŃŚÁŻžˇŪŪŻť „ūŗšŤŚŪÚ 228" x1="1666.57" y1="472.93" x2="1663.04" y2="484.39" xlink:href="#_ŃŚÁŻž_ŪŪŻť_ūŗšŤŚŪÚ_228"/>
    <linearGradient id="_ŃŚÁŻž_ŪŪŻť_ūŗšŤŚŪÚ_175" data-name="ŃŚÁŻžˇŪŪŻť „ūŗšŤŚŪÚ 175" x1="-5942.06" y1="3175.07" x2="-5907.16" y2="3136.09" gradientTransform="translate(-3713.4 1028.98) rotate(149.04) scale(1 -1)" gradientUnits="userSpaceOnUse">
      <stop offset="0" stop-color="#515915"/>
      <stop offset="1" stop-color="#918f22"/>
    </linearGradient>
    <linearGradient id="_ŃŚÁŻž_ŪŪŻť_ūŗšŤŚŪÚ_94" data-name="ŃŚÁŻžˇŪŪŻť „ūŗšŤŚŪÚ 94" x1="-7203.87" y1="-2389.13" x2="-7156.95" y2="-2366.25" gradientTransform="translate(6024.74 -6275.77) rotate(-84.43)" gradientUnits="userSpaceOnUse">
      <stop offset="0" stop-color="#813418"/>
      <stop offset="1" stop-color="#472840"/>
    </linearGradient>
    <linearGradient id="_ŃŚÁŻž_ŪŪŻť_ūŗšŤŚŪÚ_297" data-name="ŃŚÁŻžˇŪŪŻť „ūŗšŤŚŪÚ 297" x1="-5647.89" y1="3240.1" x2="-5411.15" y2="3191.72" gradientTransform="translate(-3713.4 1028.98) rotate(149.04) scale(1 -1)" gradientUnits="userSpaceOnUse">
      <stop offset="0" stop-color="#918f22"/>
      <stop offset="1" stop-color="#515915"/>
    </linearGradient>
    <linearGradient id="_ŃŚÁŻž_ŪŪŻť_ūŗšŤŚŪÚ_175-2" data-name="ŃŚÁŻžˇŪŪŻť „ūŗšŤŚŪÚ 175" x1="-5870.47" y1="3294.21" x2="-5778" y2="3241.17" xlink:href="#_ŃŚÁŻž_ŪŪŻť_ūŗšŤŚŪÚ_175"/>
    <linearGradient id="_ŃŚÁŻž_ŪŪŻť_ūŗšŤŚŪÚ_164" data-name="ŃŚÁŻžˇŪŪŻť „ūŗšŤŚŪÚ 164" x1="4947.02" y1="2848.28" x2="4946.81" y2="2848.82" gradientTransform="translate(7817.53 -2198.99) rotate(178.53) scale(1 -1)" gradientUnits="userSpaceOnUse">
      <stop offset="0" stop-color="#862338"/>
      <stop offset=".98" stop-color="#9e393c"/>
    </linearGradient>
    <linearGradient id="_ŃŚÁŻž_ŪŪŻť_ūŗšŤŚŪÚ_175-3" data-name="ŃŚÁŻžˇŪŪŻť „ūŗšŤŚŪÚ 175" x1="-5962.42" y1="3117.42" x2="-5925.71" y2="3093.85" xlink:href="#_ŃŚÁŻž_ŪŪŻť_ūŗšŤŚŪÚ_175"/>
    <linearGradient id="_ŃŚÁŻž_ŪŪŻť_ūŗšŤŚŪÚ_51" data-name="ŃŚÁŻžˇŪŪŻť „ūŗšŤŚŪÚ 51" x1="518.74" y1="457.6" x2="712.14" y2="27.38" gradientTransform="translate(-29.35 268.6) rotate(6.51)" gradientUnits="userSpaceOnUse">
      <stop offset="0" stop-color="#7a6907"/>
      <stop offset="1" stop-color="#99930a"/>
    </linearGradient>
    <linearGradient id="_ŃŚÁŻž_ŪŪŻť_ūŗšŤŚŪÚ_46" data-name="ŃŚÁŻžˇŪŪŻť „ūŗšŤŚŪÚ 46" x1="282.72" y1="397.54" x2="1453.64" y2="-3.73" gradientTransform="translate(-29.35 268.6) rotate(6.51)" gradientUnits="userSpaceOnUse">
      <stop offset=".02" stop-color="#c9957e"/>
      <stop offset=".33" stop-color="#b47760"/>
      <stop offset=".64" stop-color="#a35f48"/>
      <stop offset=".83" stop-color="#9e5740"/>
    </linearGradient>
    <linearGradient id="_ŃŚÁŻž_ŪŪŻť_ūŗšŤŚŪÚ_45" data-name="ŃŚÁŻžˇŪŪŻť „ūŗšŤŚŪÚ 45" x1="698.05" y1="247.74" x2="495.45" y2="316.15" gradientTransform="translate(-29.35 268.6) rotate(6.51)" gradientUnits="userSpaceOnUse">
      <stop offset="0" stop-color="#476a8f"/>
      <stop offset="1" stop-color="#6d8e9c"/>
    </linearGradient>
    <linearGradient id="_ŃŚÁŻž_ŪŪŻť_ūŗšŤŚŪÚ_51-2" data-name="ŃŚÁŻžˇŪŪŻť „ūŗšŤŚŪÚ 51" x1="563.82" y1="338.05" x2="598.03" y2="697.2" xlink:href="#_ŃŚÁŻž_ŪŪŻť_ūŗšŤŚŪÚ_51"/>
    <linearGradient id="_ŃŚÁŻž_ŪŪŻť_ūŗšŤŚŪÚ_36" data-name="ŃŚÁŻžˇŪŪŻť „ūŗšŤŚŪÚ 36" x1="1221.98" y1="-5421.23" x2="1218.86" y2="-5291.07" gradientTransform="translate(-4905.7 1262.23) rotate(-83.44) scale(1 -1)" gradientUnits="userSpaceOnUse">
      <stop offset="0" stop-color="#b98828"/>
      <stop offset=".11" stop-color="#a17622"/>
      <stop offset=".55" stop-color="#4b3710"/>
      <stop offset=".85" stop-color="#140f04"/>
      <stop offset="1" stop-color="#000"/>
    </linearGradient>
    <linearGradient id="_ŃŚÁŻž_ŪŪŻť_ūŗšŤŚŪÚ_36-2" data-name="ŃŚÁŻžˇŪŪŻť „ūŗšŤŚŪÚ 36" x1="1333.12" y1="-5414.07" x2="1330.66" y2="-5311.4" xlink:href="#_ŃŚÁŻž_ŪŪŻť_ūŗšŤŚŪÚ_36"/>
    <linearGradient id="_ŃŚÁŻž_ŪŪŻť_ūŗšŤŚŪÚ_8-3" data-name="ŃŚÁŻžˇŪŪŻť „ūŗšŤŚŪÚ 8" x1="899.72" y1="-93.06" x2="218.88" y2="751.58" gradientTransform="translate(-29.35 268.6) rotate(6.51)" xlink:href="#_ŃŚÁŻž_ŪŪŻť_ūŗšŤŚŪÚ_8"/>
    <linearGradient id="_ŃŚÁŻž_ŪŪŻť_ūŗšŤŚŪÚ_8-4" data-name="ŃŚÁŻžˇŪŪŻť „ūŗšŤŚŪÚ 8" x1="592.1" y1="111.72" x2="469.78" y2="-47.36" gradientTransform="translate(-29.35 268.6) rotate(6.51)" xlink:href="#_ŃŚÁŻž_ŪŪŻť_ūŗšŤŚŪÚ_8"/>
    <linearGradient id="_ŃŚÁŻž_ŪŪŻť_ūŗšŤŚŪÚ_8-5" data-name="ŃŚÁŻžˇŪŪŻť „ūŗšŤŚŪÚ 8" x1="516.9" y1="610.08" x2="613.31" y2="131.77" gradientTransform="translate(-29.35 268.6) rotate(6.51)" xlink:href="#_ŃŚÁŻž_ŪŪŻť_ūŗšŤŚŪÚ_8"/>
  </defs>
  <g class="cls-111">
    <g id="Vrstva_1" data-name="Vrstva 1">
      <g id="bordel">
        <g>
          <path class="cls-52" d="M2306.4,346.4c26.71-.6,53.24,4.78,79.95,4.82,39.72,.05,78.53-11.68,118.15-14.56,19.38-1.41,38.85-.7,58.28,.02,35.6,1.31,71.21,2.62,106.81,3.93,9.06,.33,18.34,.71,26.72,4.16,17.58,7.24,27.13,25.9,35.2,43.12-38.59,4.5-77.11-9.58-115.96-8.72-15.66,.35-31.15,3.12-46.68,5.15-70.14,9.17-141.44,3.2-211.9,9.4-38.87,3.42-79.09,10.39-116.1-1.98-4.71-19.81-.97-25.75,18.21-35.04,14.62-7.08,31.19-9.92,47.32-10.28Z"/>
          <g>
            <g>
              <g>
                <path class="cls-75" d="M2871.34,381.93c-6.75-48.18-6.74-96.41,0-144.66l-275.98,144.82,275.98-.16Z"/>
                <path class="cls-31" d="M2824.2,381.96c-5.6-39.86-5.59-79.75,0-119.66l-228.84,119.8,228.84-.13Z"/>
                <path class="cls-75" d="M2758.89,126.52l-163.53,255.58,275.98-144.82c-47.42-36.5-85.5-73.4-112.45-110.76Z"/>
                <path class="cls-108" d="M2730.96,170.68l-135.6,211.42,228.84-119.8c-39.32-30.2-70.9-60.72-93.24-91.62Z"/>
                <path class="cls-75" d="M2649.87,73.06c28.19,22.64,64.76,40.32,109.02,53.46l-163.53,255.58,54.51-309.04Z"/>
                <path class="cls-106" d="M2641.36,126.52c23.79,18.72,54.64,33.35,91.99,44.21l-137.99,211.37,46-255.58Z"/>
                <path class="cls-75" d="M2649.87,73.06c-42.02,12-84.04,19.37-126.06,22.12l71.55,286.91,54.51-309.04Z"/>
                <path class="cls-107" d="M2639.61,125.1c-42.02,10.04-62.5,13.04-104.51,15.34l60.26,241.65,44.26-257Z"/>
                <path class="cls-66" d="M2595.35,389.69c-3.4,0-6.5-2.3-7.36-5.76l-71.55-286.91c-1.01-4.07,1.46-8.19,5.53-9.2,4.07-1.01,8.19,1.46,9.2,5.53l71.55,286.91c1.01,4.07-1.46,8.19-5.53,9.2-.62,.15-1.23,.23-1.84,.23Z"/>
                <g>
                  <path class="cls-66" d="M2595.36,385.02c-.8,0-1.58-.33-2.15-.95-.9-.98-1.02-2.43-.31-3.55l163.53-255.58c.87-1.36,2.67-1.76,4.03-.89,1.36,.87,1.75,2.68,.89,4.03l-157.6,246.3,266.23-139.71c1.43-.75,3.19-.2,3.94,1.23,.75,1.43,.2,3.19-1.23,3.94l-275.98,144.82c-.43,.22-.89,.33-1.36,.33Z"/>
                  <path class="cls-66" d="M2595.36,385.02c-.17,0-.34-.01-.51-.04-1.59-.28-2.65-1.79-2.37-3.38l54.51-309.04c.28-1.59,1.8-2.65,3.38-2.37,1.59,.28,2.65,1.79,2.37,3.38l-54.51,309.04c-.25,1.42-1.48,2.41-2.87,2.41Z"/>
                </g>
              </g>
              <g>
                <g>
                  <g>
                    <path class="cls-109" d="M2217.48,381.51h655.53v67.64c0,69.28-56.25,125.53-125.53,125.53h-404.48c-69.28,0-125.53-56.25-125.53-125.53v-67.64h0Z"/>
                    <path class="cls-75" d="M2673.43,538.43c69.33,0,125.53-56.2,125.53-125.53v-31.39h-581.47v67.64c0,34.46,13.89,65.68,36.38,88.36,4.95,.59,9.98,.91,15.09,.91h404.48Z"/>
                  </g>
                  <rect class="cls-66" x="2202.01" y="367.68" width="686.48" height="28" rx="14" ry="14"/>
                  <path class="cls-66" d="M2788.54,586.05h-474.81c-5.73,0-10.42-4.69-10.42-10.42h0c0-5.73,4.69-10.42,10.42-10.42h474.81c5.73,0,10.42,4.69,10.42,10.42h0c0,5.73-4.69,10.42-10.42,10.42Z"/>
                </g>
                <circle cx="2595.15" cy="381.46" r="14.21" transform="translate(51.56 1022.16) rotate(-22.5)"/>
              </g>
            </g>
            <g>
              <path class="cls-45" d="M2722.01,777.53h-299.25c-40.82,0-78.96-37.61-80.56-39.21-3.65-3.65-3.66-9.56-.01-13.21,3.64-3.65,9.56-3.66,13.21-.02h0c.34,.34,34.33,33.76,67.36,33.76h297.71c6.07-2.14,32.72-12.44,41.42-31.09,2.18-4.68,7.74-6.7,12.42-4.52,4.68,2.18,6.7,7.74,4.52,12.42-13.31,28.53-52.39,40.94-54.05,41.46-.9,.28-1.83,.42-2.77,.42Z"/>
              <rect class="cls-57" x="2504.75" y="495.59" width="22.44" height="379.29" transform="translate(1614.21 -1761.49) rotate(54.53)"/>
              <rect class="cls-57" x="2443.02" y="168.57" width="25.02" height="791.85" transform="translate(570.99 2236.86) rotate(-54.53)"/>
              <g>
                <g>
                  <circle cx="2668.42" cy="575.63" r="19.64"/>
                  <circle class="cls-75" cx="2668.42" cy="575.63" r="13.88"/>
                </g>
                <g>
                  <circle cx="2469.82" cy="575.63" r="19.64"/>
                  <circle class="cls-75" cx="2469.82" cy="575.63" r="13.88"/>
                </g>
              </g>
              <g>
                <g>
                  <polygon class="cls-56" points="2822.62 841.79 2769.01 779.46 2850.99 785.63 2851.3 781.57 2769.31 775.4 2831.65 721.79 2828.99 718.7 2766.66 772.32 2772.83 690.33 2768.77 690.02 2762.6 772.01 2708.99 709.68 2705.9 712.33 2759.51 774.66 2677.53 768.5 2677.22 772.55 2759.21 778.72 2696.88 832.33 2699.53 835.42 2761.86 781.81 2755.7 863.79 2759.75 864.1 2765.92 782.11 2819.53 844.45 2822.62 841.79"/>
                  <path class="cls-54" d="M2686.35,844.07c-37.2-43.25-32.28-108.71,10.98-145.91,43.25-37.2,108.71-32.28,145.91,10.98,37.2,43.25,32.28,108.71-10.98,145.91-43.25,37.2-108.71,32.28-145.91-10.98Zm140.01-120.42c-29.2-33.95-80.57-37.81-114.52-8.61-33.95,29.2-37.81,80.57-8.62,114.51,29.2,33.95,80.57,37.81,114.52,8.62,33.95-29.2,37.81-80.57,8.62-114.52Z"/>
                  <path d="M2781.57,798.62c-11.57,9.95-29.02,8.64-38.97-2.93-9.95-11.57-8.64-29.02,2.93-38.97,11.57-9.95,29.02-8.64,38.97,2.93,9.95,11.57,8.64,29.02-2.93,38.97Z"/>
                  <path d="M2676.8,852.28c-41.73-48.52-36.21-121.94,12.31-163.67,48.52-41.73,121.94-36.21,163.67,12.31,41.73,48.52,36.2,121.94-12.31,163.67-48.52,41.73-121.94,36.2-163.67-12.31Zm157.05-135.07c-32.75-38.08-90.37-42.41-128.45-9.66-38.08,32.75-42.41,90.37-9.66,128.45,32.75,38.08,90.38,42.42,128.45,9.66,38.08-32.75,42.41-90.37,9.66-128.45Z"/>
                  <path class="cls-57" d="M2777.06,793.38c-8.68,7.46-21.76,6.48-29.22-2.2-7.46-8.67-6.48-21.76,2.2-29.22,8.67-7.46,21.76-6.48,29.22,2.2,7.46,8.67,6.48,21.76-2.2,29.22Z"/>
                </g>
                <g>
                  <polygon class="cls-56" points="2455.64 794.4 2381.22 786.19 2439.65 739.37 2437.33 736.48 2378.9 783.29 2387.11 708.87 2383.43 708.46 2375.21 782.89 2328.4 724.45 2325.51 726.77 2372.32 785.21 2297.9 776.99 2297.49 780.67 2371.92 788.89 2313.48 835.71 2315.8 838.6 2374.23 791.78 2366.02 866.21 2369.7 866.61 2377.92 792.19 2424.73 850.62 2427.63 848.31 2380.81 789.87 2455.23 798.09 2455.64 794.4"/>
                  <path class="cls-54" d="M2366.3,880.57c-51.64-5.7-89.02-52.35-83.32-104,5.7-51.64,52.35-89.02,104-83.32,51.64,5.7,89.02,52.35,83.32,104-5.7,51.64-52.35,89.02-104,83.32Zm18.45-167.16c-40.53-4.47-77.15,24.86-81.62,65.39-4.47,40.53,24.86,77.15,65.39,81.62,40.53,4.47,77.15-24.86,81.62-65.39,4.47-40.53-24.86-77.14-65.39-81.62Z"/>
                  <path d="M2401.48,791.15c-1.52,13.82-13.96,23.78-27.77,22.25-13.81-1.53-23.78-13.96-22.25-27.77,1.53-13.81,13.96-23.77,27.77-22.25,13.81,1.52,23.78,13.96,22.25,27.77Z"/>
                  <path d="M2365.04,891.97c-57.93-6.39-99.86-58.73-93.46-116.66,6.39-57.93,58.73-99.86,116.66-93.46,57.93,6.39,99.86,58.73,93.46,116.66-6.39,57.93-58.73,99.86-116.66,93.46Zm20.7-187.51c-45.47-5.02-86.54,27.89-91.55,73.35-5.02,45.47,27.89,86.54,73.35,91.56,45.46,5.02,86.54-27.89,91.55-73.35,5.02-45.47-27.89-86.54-73.35-91.56Z"/>
                  <path class="cls-57" d="M2395.23,790.46c-1.14,10.36-10.47,17.83-20.82,16.68-10.36-1.14-17.83-10.47-16.68-20.82,1.14-10.36,10.47-17.83,20.82-16.68,10.36,1.14,17.83,10.47,16.68,20.82Z"/>
                </g>
              </g>
              <path d="M2189.51,393.56c-3.72,0-7.47-1.11-10.74-3.41l-75.06-52.86h-53.44c-10.32,0-18.69-8.37-18.69-18.69s8.37-18.69,18.69-18.69h59.35c3.85,0,7.61,1.19,10.76,3.41l79.9,56.27c8.44,5.94,10.46,17.6,4.52,26.04-3.64,5.17-9.42,7.93-15.29,7.93Z"/>
            </g>
          </g>
        </g>
        <g>
          <path class="cls-77" d="M2168.01,786.27c0,19.25-147.85,34.86-330.22,34.86s-330.22-15.61-330.22-34.86,147.85-34.86,330.22-34.86,330.22,15.61,330.22,34.86Z"/>
          <g>
            <path class="cls-42" d="M2094.23,183.41c-1.17,1.17-1.15,1.72,0,2.49V782.13c0,3.57-2.89,6.46-6.46,6.46h-499.97c-1.87,0-3.54-.8-4.71-2.05-1.07-1.12-1.75-2.69-1.75-4.42V185.91c.12-.1,.22-.22,.32-.32,.12-.17,.22-.32,.32-.47,.03-.15,.07-.3,.07-.42,0-.17-.05-.3-.07-.45-.1-.15-.2-.3-.32-.47-.1-.1-.2-.22-.32-.35V76.02c0-3.59,2.87-6.46,6.46-6.46h499.97c3.57,0,6.46,2.87,6.46,6.46v107.39Z"/>
            <g class="cls-22">
              <path class="cls-42" d="M2094.22,76.01c0-3.57-2.88-6.45-6.45-6.45h-.55v106.86c-1.17,1.17-1.14,1.72,0,2.49V775.13c0,3.57-2.88,6.45-6.45,6.45h-499.42v.55c0,1.72,.69,3.3,1.74,4.42,1.19,1.26,2.86,2.04,4.71,2.04h499.97c3.57,0,6.45-2.88,6.45-6.45V185.92c-1.14-.78-1.17-1.33,0-2.49V76.01Z"/>
            </g>
            <g>
              <path class="cls-42" d="M2072.76,719.4c0,29.94-24.17,54.23-54.07,54.43h-.36c-30.06,0-54.43-24.37-54.43-54.43,0-25.72,17.82-47.28,41.8-52.96,.62-.15,1.24-.29,1.86-.41v7.31h21.53v-7.31c.62,.12,1.24,.26,1.86,.41,23.98,5.69,41.8,27.25,41.8,52.96Z"/>
              <path class="cls-68" d="M2030.95,664.1c-.61-.15-1.23-.27-1.86-.38v2.31c.62,.12,1.24,.26,1.86,.41,23.98,5.69,41.8,27.25,41.8,52.96,0,30.06-24.36,54.43-54.43,54.43s-54.43-24.37-54.43-54.43c0-25.72,17.82-47.28,41.8-52.96,.62-.15,1.24-.29,1.86-.41v-2.31c-.63,.11-1.25,.24-1.86,.38-25.25,5.74-44.09,28.33-44.09,55.3,0,31.32,25.4,56.7,56.72,56.7s56.72-25.38,56.72-56.7c0-26.97-18.84-49.56-44.09-55.3Z"/>
              <path class="cls-68" d="M2029.09,663.71v9.62h-21.53v-9.62c-.63,.11-1.25,.24-1.86,.38v11.1h25.26v-11.1c-.61-.15-1.23-.27-1.86-.38Z"/>
              <rect class="cls-68" x="2013.25" y="663.71" width="10.87" height="3.32"/>
            </g>
            <path class="cls-30" d="M2094.22,183.42c-1.17,1.17-1.14,1.72,0,2.49l-511.14,600.63c-1.05-1.12-1.74-2.7-1.74-4.42V185.92c.11-.11,.23-.23,.32-.34,.14-.16,.23-.32,.32-.46,.05-.16,.09-.3,.09-.44,0-.16-.05-.3-.09-.43-.09-.16-.18-.32-.32-.48-.09-.11-.21-.23-.32-.34V76.01c0-3.57,2.88-6.45,6.45-6.45h499.97c3.57,0,6.45,2.88,6.45,6.45v107.41Z"/>
            <g>
              <circle class="cls-62" cx="1838.14" cy="403.88" r="210.93" transform="translate(252.79 1418.05) rotate(-45)"/>
              <circle class="cls-49" cx="1838.14" cy="403.88" r="196.56" transform="translate(252.79 1418.05) rotate(-45)"/>
              <path class="cls-47" d="M2030.35,403.87c0,106.19-86.05,192.21-192.21,192.21s-192.21-86.02-192.21-192.21c0-2.98,.07-5.92,.21-8.86,4.62-102.02,88.82-183.35,192-183.35s187.37,81.33,192,183.35c.14,2.94,.21,5.88,.21,8.86Z"/>
              <path class="cls-30" d="M2030.14,395.01c-44.5,57.14-113.96,93.9-192,93.9s-147.5-36.76-192-93.9c4.62-102.02,88.82-183.35,192-183.35s187.37,81.33,192,183.35Z"/>
              <g class="cls-32">
                <path class="cls-45" d="M1838.14,234.28c57.3,0,109.45,25.97,148.54,57.46-35.25-42.87-88.7-70.22-148.54-70.22s-113.28,27.35-148.54,70.22c39.09-31.48,91.24-57.46,148.54-57.46Z"/>
              </g>
              <g class="cls-22">
                <path class="cls-47" d="M1838.14,572.67c57.3,0,109.45-25.98,148.54-57.46-35.25,42.87-88.7,70.22-148.54,70.22s-113.28-27.35-148.54-70.22c39.09,31.48,91.24,57.46,148.54,57.46Z"/>
              </g>
              <circle class="cls-43" cx="1838.14" cy="403.88" r="158.23" transform="translate(252.79 1418.05) rotate(-45)"/>
              <circle class="cls-64" cx="1838.14" cy="403.88" r="152.07" transform="translate(252.79 1418.05) rotate(-45)"/>
              <circle class="cls-69" cx="1838.14" cy="403.88" r="135.89" transform="translate(1188.34 2170.14) rotate(-82.19)"/>
            </g>
            <g>
              <g>
                <path class="cls-70" d="M2054.53,107.23c0,12.69-10.29,22.97-22.97,22.97s-22.97-10.29-22.97-22.97,10.29-22.97,22.97-22.97,22.97,10.29,22.97,22.97Z"/>
                <path class="cls-44" d="M2052.27,107.23c0,11.45-9.28,20.71-20.71,20.71s-20.71-9.26-20.71-20.71,9.28-20.71,20.71-20.71,20.71,9.28,20.71,20.71Z"/>
                <path class="cls-20" d="M2045.55,91.99c3.39,3.69,5.48,8.59,5.48,14,0,11.45-9.28,20.71-20.71,20.71-5.4,0-10.31-2.09-14-5.47,3.79,4.12,9.2,6.72,15.24,6.72,11.44,0,20.71-9.26,20.71-20.71,0-6.03-2.6-11.45-6.72-15.24Z"/>
                <path class="cls-46" d="M2012.08,108.47c0-11.44,9.28-20.71,20.71-20.71,5.4,0,10.31,2.09,14,5.48-3.79-4.12-9.2-6.72-15.24-6.72-11.44,0-20.71,9.28-20.71,20.71,0,6.04,2.6,11.45,6.72,15.24-3.39-3.69-5.47-8.59-5.47-14Z"/>
                <rect class="cls-70" x="2039.36" y="91.08" width="7.17" height="3.34" transform="translate(532.92 1471.9) rotate(-45.01)"/>
              </g>
              <rect class="cls-59" x="2061.1" y="141.28" width="30.58" height="3.73"/>
              <rect class="cls-59" x="2061.1" y="132.07" width="30.58" height="3.73"/>
              <rect class="cls-59" x="2056.35" y="124.22" width="35.34" height="3.73"/>
              <rect class="cls-59" x="2062.19" y="112.12" width="29.49" height="3.73"/>
              <rect class="cls-59" x="2067.31" y="102.09" width="24.37" height="3.73"/>
              <rect class="cls-59" x="2063.84" y="91.62" width="27.84" height="3.73"/>
              <rect class="cls-59" x="2074.97" y="80.44" width="16.71" height="3.73"/>
              <g>
                <path class="cls-76" d="M2091.68,147.02h-50.09c-2.25,0-4.09-1.83-4.09-4.09v-9.82c0-.34,.28-.62,.62-.62s.62,.28,.62,.62v9.82c0,1.57,1.28,2.85,2.85,2.85h50.09c.34,0,.62,.28,.62,.62s-.28,.62-.62,.62Z"/>
                <path class="cls-76" d="M2091.68,137.71h-41.05c-2.95,0-5.7-1.59-7.16-4.16l-1.06-1.86c-.17-.3-.07-.68,.23-.85,.3-.17,.68-.07,.85,.23l1.06,1.86c1.24,2.18,3.57,3.53,6.08,3.53h41.05c.34,0,.62,.28,.62,.62s-.28,.62-.62,.62Z"/>
                <path class="cls-76" d="M2091.68,130.83h-33.58c-2.42,0-4.7-1.29-5.96-3.36l-1.26-2.08c-.18-.29-.08-.68,.21-.85,.29-.17,.67-.08,.85,.21l1.26,2.08c1.03,1.7,2.91,2.76,4.9,2.76h33.58c.34,0,.62,.28,.62,.62s-.28,.62-.62,.62Z"/>
                <path class="cls-76" d="M2091.68,117.77h-35.34c-.34,0-.62-.28-.62-.62s.28-.62,.62-.62h35.34c.34,0,.62,.28,.62,.62s-.28,.62-.62,.62Z"/>
                <path class="cls-76" d="M2091.68,107.85h-33.43c-.34,0-.62-.28-.62-.62s.28-.62,.62-.62h33.43c.34,0,.62,.28,.62,.62s-.28,.62-.62,.62Z"/>
                <path class="cls-76" d="M2057.44,101.29c-.15,0-.29-.05-.41-.16-.26-.23-.28-.62-.05-.88l.99-1.11c1.81-2.03,4.41-3.19,7.13-3.19h26.58c.34,0,.62,.28,.62,.62s-.28,.62-.62,.62h-26.58c-2.37,0-4.63,1.01-6.21,2.78l-.99,1.11c-.12,.14-.29,.21-.46,.21Z"/>
                <path class="cls-76" d="M2052.27,91.01c-.14,0-.28-.04-.39-.14-.27-.22-.31-.61-.09-.87l1.24-1.52c1.92-2.35,4.76-3.7,7.79-3.7h30.85c.34,0,.62,.28,.62,.62s-.28,.62-.62,.62h-30.85c-2.66,0-5.15,1.18-6.83,3.24l-1.24,1.52c-.12,.15-.3,.23-.48,.23Z"/>
                <path class="cls-76" d="M2019.84,147.02h-48.35v-1.24h48.35c2.53,0,4.58-2.05,4.58-4.58v-8.08h1.24v8.08c0,3.21-2.61,5.82-5.82,5.82Z"/>
                <path class="cls-76" d="M2013.39,137.71h-41.9c-.34,0-.62-.28-.62-.62s.28-.62,.62-.62h41.9c1.99,0,3.83-1.07,4.81-2.8l1.48-2.6c.17-.3,.55-.4,.85-.23,.3,.17,.4,.55,.23,.85l-1.48,2.6c-1.2,2.11-3.46,3.42-5.89,3.42Z"/>
                <path class="cls-76" d="M2004.35,130.83h-32.86c-.34,0-.62-.28-.62-.62s.28-.62,.62-.62h32.86c2.43,0,4.72-1.29,5.98-3.37l.89-1.47c.18-.29,.56-.38,.85-.21,.29,.18,.39,.56,.21,.85l-.89,1.47c-1.48,2.45-4.18,3.97-7.04,3.97Z"/>
                <path class="cls-76" d="M2006.82,117.77h-35.34c-.34,0-.62-.28-.62-.62s.28-.62,.62-.62h35.34c.34,0,.62,.28,.62,.62s-.28,.62-.62,.62Z"/>
                <path class="cls-76" d="M2004.91,107.85h-33.43c-.34,0-.62-.28-.62-.62s.28-.62,.62-.62h33.43c.34,0,.62,.28,.62,.62s-.28,.62-.62,.62Z"/>
                <path class="cls-76" d="M2005.73,101.29c-.17,0-.34-.07-.46-.21l-1.3-1.46c-1.38-1.54-3.36-2.43-5.43-2.43h-27.04c-.34,0-.62-.28-.62-.62s.28-.62,.62-.62h27.04c2.42,0,4.74,1.04,6.36,2.84l1.3,1.46c.23,.26,.21,.65-.05,.88-.12,.11-.27,.16-.41,.16Z"/>
                <path class="cls-76" d="M2010.89,91.01c-.18,0-.36-.08-.48-.23l-1.43-1.76c-1.56-1.91-3.87-3.01-6.34-3.01h-31.16c-.34,0-.62-.28-.62-.62s.28-.62,.62-.62h31.16c2.84,0,5.51,1.26,7.31,3.47l1.43,1.76c.22,.27,.18,.66-.09,.87-.11,.09-.25,.14-.39,.14Z"/>
              </g>
              <rect class="cls-59" x="1971.48" y="141.28" width="41.18" height="3.73"/>
              <rect class="cls-59" x="1971.48" y="132.07" width="24.37" height="3.73"/>
              <rect class="cls-59" x="1971.48" y="124.22" width="20.13" height="3.73"/>
              <rect class="cls-59" x="1971.48" y="112.12" width="23.02" height="3.73"/>
              <rect class="cls-59" x="1971.48" y="102.09" width="20.13" height="3.73"/>
              <rect class="cls-59" x="1971.48" y="91.62" width="22.97" height="3.73"/>
              <rect class="cls-59" x="1971.48" y="80.44" width="21.63" height="3.73"/>
            </g>
            <g>
              <path class="cls-61" d="M1769.21,77.51v74.09c0,10.42-4.71,19.77-12.12,26.02-1.84,1.55-3.84,2.91-5.97,4.04-6.21,1.47-12.56,2.68-19.32,3.43-1.93,.22-3.89,.4-5.9,.53h-109.49c-4.22,0-8.26-.77-11.98-2.19-12.85-4.86-22.02-17.3-22.02-31.83V77.51h186.81Z"/>
              <path class="cls-42" d="M1735.21,183.13h-118.8c-17.41,0-31.52-14.11-31.52-31.52V80h181.84v71.6c0,17.41-14.11,31.52-31.52,31.52Z"/>
              <path class="cls-65" d="M1727.28,139.07v10.89c0,11.2-9.29,20.27-20.77,20.27h-65.39c-2.25,0-4.38-.34-6.42-.99-1.19-.38-2.32-.84-3.4-1.41-6.52-3.41-10.95-10.14-10.95-17.87v-10.89h106.94Z"/>
              <path class="cls-21" d="M1634.7,139.07v30.17c-1.19-.38-2.32-.84-3.4-1.41-6.52-3.41-10.95-10.14-10.95-17.87v-10.89h14.36Z"/>
              <path class="cls-21" d="M1712.92,139.07v30.17c1.18-.38,2.32-.84,3.4-1.41,6.52-3.41,10.95-10.14,10.95-17.87v-10.89h-14.36Z"/>
              <path class="cls-58" d="M1673.81,139.07h-53.47l9.27,9.6c2.18,2.26,5.22,3.54,8.41,3.54h71.58c3.18,0,6.22-1.28,8.41-3.54l9.27-9.6h-53.47Z"/>
            </g>
            <path class="cls-61" d="M2094.22,185.91l-135.55,1.25c-39.56,0-68.81-19.18-120.53-19.18-19.97,0-42.14,2.89-71.26,10.8-40.03,10.87-26.93,7.13-185.55,7.13,.5-.48,.75-.86,.75-1.24s-.25-.76-.75-1.24c166.8,0,145.19,2.38,189.94-9.61,97.33-26.1,136.44,9.61,187.59,9.61h135.35c-1.15,1.15-1.14,1.71,0,2.48Z"/>
            <g class="cls-110">
              <path class="cls-45" d="M2093.4,184.92l-134.37,1.24c-39.56,0-68.81-19.18-120.53-19.18-19.97,0-42.14,2.88-71.26,10.8-40.01,10.86-26.95,7.14-185.24,7.13-.08,.31-.27,.62-.67,1,158.62,0,145.51,3.73,185.55-7.13,29.12-7.92,51.29-10.8,71.26-10.8,51.72,0,80.97,19.18,120.53,19.18l135.55-1.25c-.51-.35-.77-.65-.82-.99Z"/>
              <path class="cls-45" d="M2093.77,183.95c.13-.17,.25-.33,.44-.53h-.37c-.08,.18-.11,.36-.08,.53Z"/>
              <path class="cls-45" d="M1582.44,183.67c0-.08-.06-.16-.08-.24h-1.03c.43,.42,.64,.76,.7,1.09,.24-.3,.41-.58,.41-.85Z"/>
            </g>
            <path class="cls-30" d="M2018.69,673.34v100.49h-.36c-30.06,0-54.43-24.37-54.43-54.43,0-25.72,17.82-47.28,41.8-52.96,.62-.15,1.24-.29,1.86-.41v7.31h11.13Z"/>
            <g>
              <g>
                <rect class="cls-59" x="1613.2" y="788.59" width="30.76" height="4.86"/>
                <rect class="cls-71" x="1602.19" y="793.46" width="52.78" height="7.21"/>
              </g>
              <g>
                <rect class="cls-59" x="2031.59" y="788.59" width="30.76" height="4.86"/>
                <rect class="cls-71" x="2020.58" y="793.46" width="52.78" height="7.21"/>
              </g>
            </g>
            <g class="cls-29">
              <path class="cls-45" d="M1588.34,192.92c.11-.11,.23-.23,.32-.34,.14-.16,.23-.32,.32-.46,.05-.16,.09-.3,.09-.43,0-.16-.05-.3-.09-.43-.09-.16-.18-.32-.32-.48-.09-.11-.21-.23-.32-.34V83.02c0-3.57,2.88-6.45,6.45-6.45h499.42v-.55c0-3.57-2.88-6.45-6.45-6.45h-499.97c-3.57,0-6.45,2.88-6.45,6.45v107.41c.11,.11,.23,.23,.32,.34,.14,.16,.23,.32,.32,.48,.05,.14,.09,.27,.09,.43,0,.14-.05,.27-.09,.44-.09,.14-.18,.3-.32,.46-.09,.11-.21,.23-.32,.34V782.13c0,1.72,.69,3.3,1.74,4.42,1.19,1.26,2.86,2.04,4.71,2.04h.55V192.92Z"/>
            </g>
            <g>
              <path class="cls-21" d="M1707.26,752.16h261.04s-79.46,4.88-130.52,4.88-130.52-4.88-130.52-4.88Z"/>
              <path class="cls-27" d="M1707.26,752.16h261.04s-79.46-4.88-130.52-4.88-130.52,4.88-130.52,4.88Z"/>
            </g>
          </g>
        </g>
        <g>
          <g>
            <ellipse class="cls-23" cx="1615.96" cy="899.66" rx="252" ry="24"/>
            <polygon class="cls-128" points="1771.96 843.66 1675.96 843.66 1675.96 859.66 1587.96 859.66 1603.96 523.66 1640.28 525.74 1670.36 527.5 1716.84 530.14 1754.2 532.3 1754.92 532.3 1771.96 843.66"/>
            <path class="cls-15" d="M1736.44,843.66h-60.48v16h-.48c-1.12-85.28-4.72-310-5.12-332.16v-1.76l45.6-10.08,.64,10.08,.24,4.4,19.6,313.52Z"/>
            <path class="cls-18" d="M845.32,268.25c-3.97,9.46-8.09,18.75-8.09,18.75,0,0-22.96-107.17-57.41-149.27,0,0,6.11-13.74,14.46-21.94-2.27,15.62,1.53,22.28,8.5,25.77,7.66,3.83,15.31,0,15.31,0,0,0-15.31,30.62-3.83,42.1,6.26,6.26,11.39,6.83,14.75,6.06,2.69-.62,4.26-2.1,4.38-2.22-.18,.25-3.42,4.61-6.41,10.36-2.63,5.04-5.06,11.14-5.06,16.42,0,11.48,19.14,26.79,19.14,26.79,0,0-15.31,22.96,0,26.79,1.54,.38,2.96,.5,4.27,.39Z"/>
            <path class="cls-55" d="M1147.26,229.59s432.51-45.93,505.23-3.83c72.72,42.1,26.79,137.79,26.79,137.79l-532.02-133.96Z"/>
            <g>
              <path class="cls-60" d="M188.85,794.36l912.01,5.61,6.18-294.98s-12.76-235.82,47.69-275.96c0,0-1.87-5.93-1.86-5.95,0-.84,0-1.83-.05-2.95-.86-24.48-13.5-117.04-55.32-136-58.36-22.09-378.83,10.13-388.93,9.9-2.23-.05-4.69-.11-7.29-.17-.91-.02-1.84-.05-2.79-.07-5.05-.12-327.73-35.74-488.27-4.28-5.11,1-8.98,3.47-12.2,5.1-110.79,56.25-9.17,699.73-9.17,699.73Z"/>
              <path class="cls-123" d="M179.07,796.2l912.01,5.61,6.17-294.98s-12.76-235.82,47.69-275.96c0,0-1.87-5.93-1.86-5.95,0-.84,0-1.83-.05-2.95-.86-24.48-9.33-108.51-51.15-127.46-58.36-22.09-382.99,1.6-393.09,1.37-2.23-.05-4.69-.11-7.29-.17-.91-.02-1.84-.05-2.79-.07-5.05-.12-327.73-35.74-488.27-4.28-5.11,1-8.98,3.47-12.2,5.11-110.79,56.25-9.17,699.73-9.17,699.73Z"/>
              <path class="cls-121" d="M704.02,95.58c-5.04,.23-10.51,.49-15.91,.73,41.66,19.25,55.12,314.77,57.5,391.1,0,.16,0,.31,0,.47,.18,5.79,.3,10.28,.35,13.26l6.31-1.81s-3.45-368.08-48.26-403.75Z"/>
              <path class="cls-124" d="M1136.98,235.34c-6.88,6.88-584.2,411.91-584.2,411.91l-21.19-129.91h678.88l-73.48-282Z"/>
              <path class="cls-95" d="M1084.76,805.47l331.54-.26h6.02s24.28-.02,24.28-.02l81.53,2.38,4.46,.12,29.42-150.44,17.03-253.97s50.04,12.52,74.39-52.96c17.91-71.57-3.97-105.01-32.44-120.5-4.25-2.32-8.64-4.22-13.06-5.8-.44-.15-.89-.3-1.33-.45-.42-.15-.83-.29-1.25-.43-7.55-2.48-15.16-4.01-22.26-4.96-.72-.09-1.43-.19-2.15-.28-23.86-3.03-54.09-4.45-87.52-4.75-147.35-1.3-356.73,19.16-356.73,19.16,0,0-18.63,16.24-25.06,32.97-.95,2.48-2.07,6.1-3.25,10.33,0,.01,0,.04-.02,.05-4.66,16.83-10.28,43.28-10.93,47.4-1.15,7.5-2.17,15.18-3.02,22.94-8.71,78.08-3.47,164.48-3.47,164.48l-.57,27.02-.56,27.48-5.04,240.48Z"/>
              <polygon class="cls-120" points="1427.8 805.37 1441.22 646.64 348.29 620.75 359.12 801.42 1427.8 805.37"/>
              <path class="cls-114" d="M1481.37,805.31l46.76,2.26,4.45,.21,.02-.09,29.42-150.44,47.98-245.34c7.02,.38,13.88-.43,20.44-2.28,4.68-1.32,9.24-3.16,13.58-5.5,25.83-13.86,44.68-44.7,46.59-81.52,2.7-51.86-29.2-95.96-71.25-98.53h-.25c-4.34-.41-8.5-.57-12.49-.51-94.7,1.1-97.33,119.53-97.33,119.53l-27.91,462.22Z"/>
              <g>
                <path class="cls-119" d="M1537.08,328.39c7.31-23.2,24.65-50.97,65.67-47.29h.16c27.18,1.66,47.81,30.18,46.07,63.71-.1,1.88-.26,3.74-.49,5.56,2.38-6.53,3.86-13.67,4.25-21.2,1.74-33.52-18.88-62.04-46.07-63.69h-.16c-51.03-4.59-65.41,39.5-69.43,62.91Z"/>
                <path class="cls-97" d="M1648.98,344.8c-.1,1.88-.26,3.73-.5,5.56-5.15,14.12-14.46,25.37-25.87,31.5-.57,.31-1.16,.6-1.74,.88-2.27,1.1-4.63,2-7.04,2.67-.54,.15-1.07,.29-1.61,.42-3.74,.9-7.63,1.27-11.59,1.05l-1.72,8.64-1.4,7.02-8.25,41.4-7.54,37.79-32.87,164.81-29.01,145.45h-.64s-17.4-.1-17.4-.1l33.73-449.5s.12-5.7,1.56-14.01c7.31-23.2,24.65-50.97,65.67-47.29h.17c27.18,1.66,47.81,30.18,46.07,63.71Z"/>
              </g>
              <path class="cls-122" d="M1448.51,646.35l-1126.57,7.46,2.02-154.57s.17-.04,.51-.11h.01c6.58-1.37,76.95-15.09,287.99-22.71,60.5-2.19,132.56-3.87,218-4.61,60.4-.53,116.9-.57,169.32-.21,259.3,1.73,418.74,12.93,456.07,20.98,5.01,1.08,7.83,2.11,8.39,3.04,.03,.04,.05,.08,.08,.14,0,.02,.01,.03,.03,.05,.52,1.03,1,3.16,1.42,6.18,.96,6.8,1.65,18.1,1.86,31.49h0c.7,43.38-3.5,108.57-19.13,112.87Z"/>
              <path class="cls-50" d="M324.49,499.14l249.75-.73,513.86-1.5,9.12-.03,367.11-1.13-8.46-3.18c-37.15-8-195.15-19.13-452.12-20.95,0,0-.01,0-.01,0-2.91-.02-5.84-.04-8.77-.06-51.06-.31-105.94-.27-164.5,.24-85.44,.75-157.5,2.43-217.99,4.61-211.04,7.62-281.42,21.34-287.99,22.71Z"/>
              <path class="cls-92" d="M256.24,394.93s8.34-205.59-57.88-303.72c-156.45,20.88-41.15,284.87-41.15,284.87l99.04,18.85Z"/>
              <path class="cls-33" d="M1080.06,648.2l9.14,.09s13.6-119.14,8.02-151.4c-.38-2.17-.84-3.94-1.4-5.27-3.81-9.02-45.62-15.51-92.08-19.99,0,0-.01,0-.01,0-2.91-.02-5.84-.04-8.77-.06,46.31,4.48,87.92,10.96,91.72,19.96,.57,1.35,1.04,3.16,1.42,5.38,5.53,32.44-8.04,151.29-8.04,151.29Z"/>
              <g>
                <path class="cls-93" d="M.03,339.16c.22,11.05,1.74,21.59,4.34,31.32,6.05,22.71,17.96,40.98,32.94,51.01,3.6,2.41,7.38,4.34,11.3,5.74,2.09,.75,4.22,1.35,6.39,1.79,3.5,.71,7.09,1.01,10.74,.85l.07,.46,55.98,381.02v.09s52.27-.17,52.27-.17l367.92-1.17s-4.72-225.99-15.79-397.21c-6.59-101.85-14.38-181.82-25.81-185.82-30.38-10.64-419.26,9.42-437.28,14.8-.2,.02-.39,.03-.59,.05h-.21C26.86,243.72-1.02,287.27,.03,339.16Z"/>
                <path class="cls-94" d="M.03,339.16c.22,11.05,1.74,21.59,4.33,31.31,6.05,22.71,17.96,40.99,32.95,51.01,3.6,2.41,7.38,4.34,11.3,5.74,2.09,.75,4.22,1.35,6.39,1.79,3.5,.71,7.09,1.01,10.74,.85l.07,.46,423.48-17.78,36.91,.34c-5.79-89.54-13.32-164.11-22.82-183.55-1.31-2.67-41.2-7.72-62.96-7.57-.43,0-.87,.01-1.32,.02h-.14c-6.84,.05-14.12,.15-21.76,.29-1.01,.02-2.02,.04-3.03,.06-1.12,.02-2.24,.05-3.36,.07-.54,.01-1.09,.03-1.63,.03-1.81,.04-3.65,.09-5.5,.13-.5,0-1,.02-1.51,.04-2.08,.05-4.19,.11-6.31,.16-.81,.02-1.61,.04-2.43,.06-.59,.02-1.17,.04-1.77,.05-.89,.02-1.78,.05-2.68,.07-2.31,.07-4.64,.13-7,.21-.59,.01-1.18,.04-1.77,.05-2.85,.09-5.72,.18-8.61,.27-1.24,.05-2.49,.08-3.74,.13-.68,.02-1.36,.05-2.04,.07-.61,.01-1.22,.04-1.83,.06-.69,.02-1.4,.05-2.09,.07-1.14,.04-2.28,.09-3.43,.12-2.46,.08-4.95,.18-7.44,.27-1.24,.05-2.5,.09-3.75,.14-2.73,.1-5.48,.2-8.25,.31-3.91,.15-7.86,.31-11.83,.47-.36,.02-.74,.03-1.1,.05-.96,.03-1.91,.07-2.87,.12-8.59,.36-17.27,.73-25.97,1.13-4.74,.22-9.5,.44-14.26,.66-4.39,.21-8.77,.42-13.14,.64-2.36,.11-4.71,.24-7.06,.35-7.09,.36-14.16,.72-21.17,1.09-2.24,.12-4.47,.24-6.7,.36-2.7,.15-5.38,.29-8.04,.44-4.95,.27-9.85,.54-14.7,.82-5.6,.32-11.12,.64-16.56,.94-1.83,.11-3.65,.22-5.45,.33-1.75,.1-3.5,.21-5.23,.31-1.22,.08-2.44,.14-3.66,.22-20.64,1.26-39.75,2.51-56.36,3.68-.9,.07-1.78,.13-2.66,.19-.47,.04-.93,.08-1.39,.1-.92,.07-1.84,.13-2.74,.2-1.06,.09-2.11,.16-3.14,.23-.46,.03-.91,.07-1.37,.1-2.46,.18-4.85,.36-7.17,.54-.66,.05-1.32,.1-1.96,.16-.97,.08-1.93,.15-2.86,.23-.68,.05-1.35,.1-2.02,.16-2.03,.17-3.97,.32-5.86,.48-.54,.04-1.07,.1-1.6,.14-.48,.03-.96,.08-1.42,.12-3.57,.3-6.84,.6-9.79,.87-.29,.03-.58,.05-.87,.09-.28,.03-.57,.05-.84,.08-.44,.04-.87,.09-1.29,.12-.26,.02-.52,.04-.77,.08-.13,0-.25,.03-.37,.04-.24,.03-.48,.05-.71,.07-.88,.09-1.72,.18-2.52,.27-.13,.02-.27,.04-.39,.04-.01,0-.03,0-.04,0-.21,.02-.42,.04-.63,.06-.01,0-.03,0-.04,0-.1,0-.2,.03-.3,.04-.12,0-.24,.03-.35,.04-.2,.03-.4,.04-.59,.07-.01,0-.02,0-.04,0-.2,.02-.39,.04-.58,.06-.02,0-.02,0-.04,0-.15,.02-.3,.04-.44,.05-.05,0-.1,0-.14,.02-.04,0-.07,0-.11,0-.32,.04-.64,.07-.95,.12-.05,0-.09,0-.14,.02-.26,.04-.5,.06-.75,.1-.15,.02-.29,.04-.44,.05-.09,0-.17,.03-.26,.04h-.02c-.14,.02-.28,.05-.42,.06-.01,0-.02,0-.04,0-.14,.02-.27,.04-.4,.05-.01,0-.03,0-.04,0-.13,.02-.26,.04-.38,.05-.26,.04-.52,.08-.75,.12h0c-.37,.06-.71,.12-1,.18-.06,0-.11,.02-.16,.03-.32,.06-.59,.13-.82,.19-.09,.03-.16,.05-.23,.07-.19,.02-.39,.04-.59,.04l-.21,.02c-11.59,.59-22.37,5.64-31.6,14C11.72,273.09-.68,304.24,.03,339.16Z"/>
                <path class="cls-50" d="M65.33,241.38l417.53-11.67,15.76-2.15c14.58,7.55,19.3,3.59-6.66-1.01-10.41-1.84-29.77-4.94-51.53-4.79-.48,0-.97,.01-1.46,.02-6.84,.05-14.12,.15-21.76,.29-1.01,.02-2.02,.04-3.03,.06-1.12,.02-2.24,.05-3.36,.07-.54,.01-1.09,.03-1.63,.03-1.81,.04-3.65,.09-5.5,.13-.5,0-1,.02-1.51,.04-2.08,.05-4.19,.11-6.31,.16-.81,.02-1.61,.04-2.43,.06-.59,.02-1.17,.04-1.77,.05-.89,.02-1.78,.05-2.68,.07-2.31,.07-4.64,.13-7,.21-.59,.01-1.18,.04-1.77,.05-2.85,.09-5.72,.18-8.61,.27-1.24,.05-2.49,.08-3.74,.13-.68,.02-1.36,.05-2.04,.07-.61,.01-1.22,.04-1.83,.06-.69,.02-1.4,.05-2.09,.07-1.14,.04-2.28,.09-3.43,.12-2.46,.08-4.95,.18-7.44,.27-1.24,.05-2.5,.09-3.75,.14-2.73,.1-5.48,.2-8.25,.31-3.91,.15-7.86,.31-11.83,.47-.36,.02-.74,.03-1.1,.05-.96,.03-1.91,.07-2.87,.12-8.59,.36-17.27,.73-25.97,1.13-4.74,.22-9.5,.44-14.26,.66-4.39,.21-8.77,.42-13.14,.64-2.36,.11-4.71,.24-7.06,.35-7.09,.36-14.16,.72-21.17,1.09-2.24,.12-4.47,.24-6.7,.36-2.7,.15-5.38,.29-8.04,.44-4.95,.27-9.85,.54-14.7,.82-5.6,.32-11.12,.64-16.56,.94-1.83,.11-3.65,.22-5.45,.33-1.75,.1-3.5,.21-5.23,.31-1.22,.08-2.44,.14-3.66,.22-20.64,1.26-39.75,2.51-56.36,3.68-.9,.07-1.78,.13-2.66,.19-.47,.04-.93,.08-1.39,.1-.92,.07-1.84,.13-2.74,.2-1.06,.09-2.11,.16-3.14,.23-.46,.03-.91,.07-1.37,.1-2.46,.18-4.85,.36-7.17,.54-.66,.05-1.32,.1-1.96,.16-.97,.08-1.93,.15-2.86,.23-.68,.05-1.35,.1-2.02,.16-2.03,.17-3.97,.32-5.86,.48-.54,.04-1.07,.1-1.6,.14-.48,.03-.96,.08-1.42,.12-3.57,.3-6.84,.6-9.79,.87-.55,.05-1.09,.11-1.62,.15-.47,.04-.93,.09-1.38,.14-.26,.02-.52,.04-.77,.08-.13,0-.25,.03-.37,.04-.24,.03-.48,.05-.71,.07-.88,.09-1.72,.18-2.52,.27-.13,.02-.27,.04-.39,.04-.01,0-.03,0-.04,0-.08,0-.16,0-.24,.02-.14,.02-.26,.04-.39,.04-.01,0-.03,0-.04,0-.07,0-.14,.02-.21,.02-.03,0-.06,0-.09,.02-.12,0-.24,.03-.35,.04-.2,.03-.4,.04-.59,.07-.01,0-.02,0-.04,0-.05,0-.11,0-.16,0-.14,.02-.29,.04-.42,.05-.02,0-.02,0-.04,0-.04,0-.09,0-.13,0-.11,.02-.21,.03-.32,.05-.04,0-.07,0-.11,0-.04,0-.09,0-.14,.02-.32,.04-.64,.07-.95,.12-.05,0-.09,0-.14,.02-.26,.03-.5,.06-.75,.1-.15,.02-.29,.04-.44,.05-.09,0-.17,.03-.26,.04-.08,0-.16,.03-.23,.04-.07,0-.14,.02-.2,.03h-.04c-.14,.03-.27,.05-.4,.06h-.02s0,0-.01,0c-.13,.02-.26,.04-.38,.05-.26,.04-.52,.08-.75,.12Z"/>
                <path class="cls-96" d="M397.49,320.7c.48,36.87,18.11,68.37,43.38,83.16,4.25,2.49,8.72,4.5,13.36,5.99,6.48,2.09,13.3,3.14,20.32,3.02l61.91,398.41,54.12-.17-12.71-463.34s1.14-67.58-39.07-102.6c-13.73-11.96-32.3-20.14-57.38-20.5-2.8-.04-5.67,0-8.64,.17h-.25c-22.26,.55-42.13,12.78-55.83,31.85,0,0,0,.01,0,.01-12.23,17.03-19.53,39.52-19.22,64Z"/>
                <g>
                  <path class="cls-100" d="M554.68,332.86c-6.21-23.52-22.21-52.08-63.36-50.33h-.16c-27.23,.37-49.18,27.88-49.03,61.45,0,1.88,.09,3.74,.23,5.58-2.06-6.64-3.21-13.84-3.25-21.38-.16-33.57,21.79-61.08,49.03-61.45h.16c51.19-2.18,63.46,42.55,66.38,66.12Z"/>
                  <path class="cls-98" d="M568.01,797.52l-17.38-.72-.64-.03-21.61-143.4-2.98-19.76-23.49-155.88-3.54-23.45-3.86-25.66-3.7-24.54-2.38-15.79c-4.54,.04-8.93-.69-13.12-2.09-2.98-.98-5.87-2.32-8.6-3.97-11.12-6.66-19.88-18.33-24.35-32.69-.15-1.82-.23-3.69-.23-5.57-.16-33.58,21.78-61.09,49.02-61.45h.16c41.14-1.76,57.15,26.8,63.36,50.32,1.04,8.38,.89,14.07,.89,14.07l.19,7.14,1.66,60.01,1.23,44.15,4.66,168.94,.09,3.4,4.61,166.95Z"/>
                </g>
                <path class="cls-50" d="M416.71,256.68c11.66-12.27,27.48-20.54,48.87-21.49,96.04-4.28,107.82,108.84,107.82,108.84l17.18,467.09-12.71-463.34s1.14-67.58-39.07-102.6c-13.73-11.96-32.3-20.14-57.38-20.5-2.8-.04-5.67,0-8.64,.17h-.25c-22.26,.55-42.13,12.78-55.83,31.85Z"/>
              </g>
              <path class="cls-99" d="M955.44,471.41c64.59,3.03,135.61,8.92,140.38,20.21,8.87,20.98-6.62,156.67-6.62,156.67l9.14,.09s20.26-151.31,6.76-167.12c-3.65-4.27-23.97-7.18-51.71-9.15l-97.95-.71Z"/>
              <g>
                <path class="cls-78" d="M865.18,197.5c-2.52-16.31-47.33,1.47-55.85,4.51-13.32,4.76-37.27,19.77-49.79,6.52-6.88-7.29-8.02-13.1-18.83-17.13-22.96-8.57-45.73-21.99-71.07-18.39-23.07,3.28-63.72,22.48-67.81,48.73-1.38,8.86,.59,20.24,3.97,28.59,3.67,9.08,7.52,11.01,16.18,14.12,12.59,4.52,18.5,19.52,32.11,22.86,6.66,1.63,16.53,1.12,23.61,1.56,6.46,.4,10.34-2.28,15.57-6.49,5.32-4.28,27.12-29.82,32.64-13.2-6.68,7.76-17.24,9.26-17.31,20.66-.08,12.72,2.55,33.94,13.16,42.23,6.27,4.9,15.22,5.77,22.15,9.52,8.91,4.82,13.13,13.75,20.74,19.96,21.56,17.59,47.76,9.32,71.52,2.08,12.86-3.92,23.81-3.03,36.93-1.09,11.3,1.67,21.78,2.49,28.37-8.39,6.27-10.34,5.21-23.13,7-34.61,1.75-11.18,7.29-20.16,10.71-30.72,1.89-5.84,1.46-13.6,5.03-18.7,2.55-3.66,7.63-4.44,9.57-8.6,7.24-15.59-16.63-24.81-24.37-32.37-9.47-9.24,.45-22.81-15.22-27.96-9.34-3.07-19.72-3.57-28.99-3.71Z"/>
                <path class="cls-78" d="M599.47,121.31c-14.01,13.68-16.06,24.24-4.35,39.84,4.75,6.33,9.45,17.04,17.33,20.1,9.59,3.72,22.84-4.54,30.21-10.08,25.18-18.93,18.73-60-12.46-69.08-13.92-4.05-19.74,3.3-26.84,13.39-2.59,3.67-8.72,7.53-3.88,5.83Z"/>
                <path class="cls-78" d="M890.39,407.04c1.43-18.26,26.85,3.09,10.6,10.17-12.35,5.38-17.3-7.22-6.67-14.9l-3.94,4.73Z"/>
                <path class="cls-78" d="M940.8,442.48c2.04,10.91,7.59,16.79,20.38,14.22,8.23-1.66,13.04-8.76,11.57-17.44-1.49-8.79-10.48-16.05-19.45-14.91-9.28,1.18-14,13.13-12.5,18.12Z"/>
                <g>
                  <path class="cls-78" d="M1310.17,528.87c-13.56,.21-26.28,2.37-38.14,6.85-1.34-13.94-30.03-20.82-45.62-4.96,.95-.52,1.88-1,2.79-1.37l-4.73,3.54c.62-.77,1.27-1.49,1.94-2.17-10.92,6.03-23.39,21.33-8.21,28.02,3.81,1.68,10.99,1.71,18.56,.75-17.08,18.6-28.33,45.82-15.53,69.86,14.47,23.97,38.91-3.94,56.98-.88,20.08,3.4,30.58,5.21,50.56-3.56,10.95-4.8,31.4-11.54,35.51-24.22,2.69-8.33,1.29-28.13-.26-36.57-4.7-25.6-30.21-35.66-53.84-35.29Z"/>
                  <path class="cls-78" d="M1363.1,527.45c13.27-11.16-7.06-33.5-18.2-13.93l-2.27,4.28c1.27,9.52,11.58,17.13,20.47,9.65Z"/>
                  <path class="cls-78" d="M927.23,578.36l-2.27,4.28c1.27,9.51,11.58,17.13,20.47,9.65,13.27-11.16-7.06-33.5-18.2-13.93Z"/>
                </g>
              </g>
            </g>
            <path class="cls-28" d="M420.03,95.62s222-11.48,264.1,15.31c42.1,26.79,42.1,332.99,42.1,332.99,0,0-80.38-352.13-306.2-348.3Z"/>
            <polygon class="cls-133" points="572.85 500.19 668.71 500.19 692.68 655.97 584.83 643.98 572.85 500.19"/>
            <path class="cls-91" d="M668.71,476.22s179.75,0,191.73,23.97c11.98,23.97,47.93,143.8,47.93,143.8h-47.93s-23.97-131.82-35.95-143.8c-11.98-11.98-167.77-23.97-167.77-23.97h11.98Z"/>
            <path class="cls-14" d="M1323.71,639.22l26.67,.61c-59.17,48.19-117.08,122.82-118.87,125.12l92.2-125.73Z"/>
            <polygon class="cls-41" points="563.41 630.56 552.35 631.46 525.41 633.61 503.18 486.15 501.92 477.74 541.78 464.04 558.65 458.23 559.4 485.5 561.78 571.87 562.35 592.36 563.41 630.56"/>
            <path class="cls-40" d="M557.43,414.08c-23.55,15.54-48.24,32.08-59.05,40.21l-3.87-25.65,61.25-74.57,1.66,60.02Z"/>
            <path class="cls-36" d="M1465.78,501.99l-199.87,3.17s-206.69-30.62-290.89-30.62l24.77-2.94c259.3,1.73,423.07,3.26,460.41,11.31,5.01,1.08,3.49,11.78,4.05,12.71,.03,.04,.05,.08,.08,.14,0,.02,.01,.03,.03,.05,.52,1.03,1,3.16,1.42,6.18Z"/>
            <path class="cls-48" d="M753.02,114.76s38.28,26.79,61.24,88.03c22.96,61.24,38.28,206.68,38.28,206.68,0,0-7.66-206.68,7.66-233.48-3.83-34.45-107.17-61.24-107.17-61.24Z"/>
            <path class="cls-105" d="M749.2,110.93s38.28,42.1,61.24,103.34c22.96,61.24,42.1,202.86,42.1,202.86,0,0,0-195.2-3.83-229.65-3.83-34.45-99.52-76.55-99.52-76.55Z"/>
            <path class="cls-82" d="M844.88,241.07s7.66,3.83,7.66,7.65c0,1.84-3.54,10.76-7.22,19.53-3.97,9.46-8.09,18.75-8.09,18.75,0,0-22.96-107.17-57.41-149.27,0,0,6.11-13.74,14.46-21.94,4.87-4.78,10.52-7.67,16.16-4.85,15.31,7.66,15.31,26.79,15.31,26.79,0,0,3.83-3.83,7.66,0,3.83,3.83,0,15.31,0,15.31l3.83,3.83-8.21,32.85-2.03,8.14-1.24,4.94s30.62,26.79,30.62,30.62-11.48,7.66-11.48,7.66Z"/>
            <g>
              <path class="cls-73" d="M747.4,720.38c-3.72-14.12-69.2-280.93-69.2-280.93l200.99-49.27-5.5-17.24-228.28,54.48,80.99,271.27,21,21.7Z"/>
              <path class="cls-131" d="M885.86,357.24l-174.52,36.23-19.32,4.01-3.95,.82-61.35,12.74-.25,.05,100.7,326.29,225.39-57.24,4.12-1.05-66.69-322.71-4.12,.86Zm43.98,315.85l-189.95,45.01-81.36-287.76,1-.22,39.24-8.88,4.19-.95,13.71-3.1,147.5-33.37,65.67,289.28Z"/>
              <polygon class="cls-6" points="889.98 356.39 956.66 679.09 952.54 680.14 948.56 678.99 880.31 361.79 885.86 357.24 889.98 356.39"/>
              <polygon class="cls-3" points="688.06 398.3 698.77 421.23 659.52 430.11 626.71 411.04 688.06 398.3"/>
              <polygon class="cls-2" points="711.33 393.47 716.67 417.18 702.96 420.28 692.01 397.48 711.33 393.47"/>
            </g>
            <g>
              <polygon class="cls-112" points="625.27 527.92 617.6 531.01 616.29 531.54 616.28 531.56 601.03 537.69 599.38 535.28 597.97 533.22 571.82 495.23 570.29 493.01 564.58 484.73 563.92 483.77 562.38 481.5 589.38 466.23 594.52 463.33 595.71 465.79 595.88 466.17 595.88 466.18 596.2 466.85 598 470.63 599.17 473.12 616.53 509.55 621.75 520.5 624.99 527.33 625.27 527.92"/>
              <polygon class="cls-10" points="586.92 479.1 615.75 526.37 620.42 523.73 596.08 473.91 586.92 479.1"/>
              <path class="cls-118" d="M561,449.67c-9.83,7.36-16.07,15.67-13.95,18.56,2.12,2.89,11.81-.73,21.63-8.09,9.83-7.36,16.07-15.67,13.95-18.56-2.12-2.89-11.81,.73-21.63,8.09Z"/>
              <path class="cls-115" d="M748.83,738.84l-43.9,24.83c-.91-.39-1.86-.89-2.85-1.46-6.23-3.66-13.78-10.88-22.01-20.34-2.92-3.36-5.91-6.99-8.99-10.85-1.49-1.9-3.02-3.86-4.54-5.87-3.4-4.43-6.84-9.09-10.29-13.93-1.26-1.74-2.52-3.53-3.8-5.33-1.37-1.97-2.77-3.94-4.14-5.95-8.96-12.98-17.85-26.63-26.02-39.62-2.44-3.89-4.82-7.72-7.11-11.46-3.34-5.43-6.5-10.68-9.45-15.6-.73-1.25-1.45-2.45-2.17-3.65-.73-1.25-1.46-2.49-2.17-3.69-2.22-3.79-4.29-7.34-6.14-10.58-1.33-2.32-2.56-4.49-3.66-6.46-.79-1.4-1.53-2.7-2.2-3.91-.37-.67-.72-1.32-1.06-1.97l-.13-.23c-1.28-2.28-2.44-4.47-3.53-6.58-1.13-2.52-2.08-5.07-2.8-7.66-.04-.11-.07-.23-.08-.32-.12-.37-.21-.75-.29-1.13-.12-.47-.24-.93-.33-1.4-.69-3.04-1.11-6.1-1.24-9.16-.11-2.16-.07-4.3,.09-6.43,.51-7.35,2.53-14.55,5.9-21.14,2.98-5.85,7.02-11.17,12.05-15.71,2.97-2.72,6.32-5.15,9.99-7.23,.99-.55,1.97-1.06,2.97-1.54,.21-.08,.41-.19,.63-.27-4.7,3.16-8.77,6.91-12.17,11.1-4.15,5.11-7.32,10.86-9.4,16.94-2.46,7.26-3.42,14.97-2.7,22.62,.24,2.54,.67,5.06,1.26,7.56,.15,.56,.29,1.13,.47,1.7,.44,1.65,1,3.3,1.64,4.91,.25,.67,.51,1.33,.81,1.96,.08,.21,.16,.44,.27,.64,.27,.51,.53,1.01,.8,1.53,.85,1.61,1.74,3.25,2.7,4.98l.13,.24c.33,.65,.68,1.29,1.04,1.94,.79,1.42,1.65,2.97,2.61,4.66,2.21,3.91,4.85,8.51,7.82,13.58,1.94,3.33,4.03,6.87,6.24,10.59,1.52,2.52,3.09,5.11,4.7,7.79,2.78,4.58,5.7,9.35,8.75,14.21,2.3,3.7,4.67,7.46,7.08,11.24,3.76,5.9,7.64,11.89,11.58,17.83,3.14,4.71,6.31,9.41,9.51,14.03,4.41,6.36,8.83,12.58,13.2,18.48,16.42,22.12,32.02,39.74,42.87,44.54,.08,.05,.17,.08,.25,.13l37.81-18.55Z"/>
              <path class="cls-39" d="M769.09,727.38l-20.26,11.46-37.81,18.55c-.08-.05-.17-.08-.25-.13-10.85-4.79-26.46-22.42-42.87-44.54-4.37-5.9-8.79-12.12-13.2-18.48-3.2-4.62-6.36-9.32-9.51-14.03-3.94-5.94-7.83-11.93-11.58-17.83-2.41-3.78-4.78-7.54-7.08-11.24-3.05-4.86-5.96-9.63-8.75-14.21-1.61-2.68-3.18-5.27-4.7-7.79-2.21-3.72-4.3-7.26-6.24-10.59-2.97-5.07-5.6-9.67-7.82-13.58-.96-1.69-1.82-3.24-2.61-4.66-.36-.65-.7-1.29-1.04-1.94l-.13-.24c-.96-1.73-1.85-3.37-2.7-4.98-.27-.52-.53-1.03-.8-1.53-.11-.2-.19-.43-.27-.64-.31-.63-.56-1.29-.81-1.96-.64-1.61-1.2-3.26-1.64-4.91-.17-.57-.32-1.15-.47-1.7-.6-2.5-1.03-5.02-1.26-7.56-.72-7.66,.24-15.37,2.7-22.62,2.08-6.07,5.25-11.82,9.4-16.94,3.4-4.19,7.47-7.95,12.17-11.1,.73-.35,1.48-.69,2.24-1,.56-.24,1.1-.47,1.66-.68,1.24-.48,2.49-.92,3.74-1.29,.85-.27,1.7-.49,2.56-.71,21.2-5.38,43.94,2.33,57.2,20.08,1.21,1.82,2.46,3.77,3.78,5.78l.04,.09c1.29,1.97,2.61,4.06,3.98,6.2,.23,.37,.48,.75,.72,1.13,9.55,15.1,25.04,41.67,39.98,69.98,20.17,38.24,39.33,79.65,41.44,100.37,.12,1.16,.19,2.24,.2,3.24Z"/>
              <path class="cls-8" d="M671.51,539.11l-20.49,11.59c-14.64-14.43-25.02-16.37-36.35-19.62,19.25-9.42,41.82-5.76,56.85,8.03Z"/>
              <path class="cls-113" d="M666.33,571.52s-.2,.13-.56,.39c.32-.33,.56-.39,.56-.39Z"/>
              <polygon class="cls-25" points="599.33 472.98 599.17 473.12 597.74 474.26 596.68 475.13 590.18 480.39 588.53 481.73 571.82 495.23 571.63 495.38 564.38 484.83 563.73 483.89 563.92 483.77 590.73 468.6 595.71 465.79 595.87 465.7 596.04 466.07 596.04 466.09 596.36 466.75 599.33 472.98"/>
              <polygon class="cls-38" points="600.53 464.4 596.36 466.75 596.2 466.85 564.58 484.73 564.38 484.83 559.86 487.39 540.92 461.59 547.55 457.78 549.23 456.81 558.08 451.72 559.09 451.15 568.33 445.84 576.36 441.23 576.39 441.21 576.99 440.87 579.78 439.26 588.01 434.53 600.53 464.4"/>
              <polygon class="cls-10" points="553.67 455.95 576.82 444 590.93 468.97 599.86 463.92 586.71 436.12 553.67 455.95"/>
              <path class="cls-19" d="M705.12,691.97c2.81,4.98,7.51,7.64,10.5,5.95s3.12-7.09,.31-12.06c-2.52-4.46-6.56-7.06-9.51-6.33-1.95-4.68-6.17-12.99-11.41-22.25-7.88-13.93-15.07-24.76-16.06-24.2-1,.56,4.58,12.31,12.46,26.24,5.24,9.26,10.18,17.16,13.19,21.25-2.14,2.16-1.99,6.96,.53,11.42Z"/>
            </g>
            <g>
              <polygon class="cls-116" points="1598.9 642.96 1595.83 810.03 1319.1 809.54 1241.84 808.82 1216.26 808.58 929.92 805.9 919.91 805.81 695.61 803.71 764.51 623.82 1005.21 629.34 1047.73 630.31 1120.85 631.99 1147.52 632.6 1290.27 635.88 1297.9 636.05 1598.9 642.96"/>
              <polygon class="cls-72" points="764.51 623.82 584.61 639.13 586.82 813.01 756.85 803.71 764.51 623.82"/>
              <polygon class="cls-117" points="764.51 631.47 902.3 627.65 745.37 623.82 764.51 631.47"/>
            </g>
            <polygon class="cls-125" points="943.43 627.65 1591.25 639.13 1598.9 642.96 947.68 632.75 943.43 627.65"/>
            <g>
              <path class="cls-132" d="M829.14,81.83c-.28-2.5-.93-4.9-1.95-7.19-2.35-5.28-6.66-9.98-12.89-14.04-.31-.21-.63-.41-.96-.62-7.73-4.81-16.63-7.71-23.9-9.43,13.03-6.26,26.17-15.7,29.3-25.62,.56-1.79,.8-3.59,.65-5.4-.11-1.36-.43-2.67-.96-3.93-2.75-6.52-11.13-11.76-24.97-15.6l-.91,3.27c14.8,4.11,22.91,9.83,23.46,16.53,.8,9.8-14.23,21.3-29.48,28.35-.91,.42-1.82,.82-2.7,1.21-13.58-2.47-29.02-2.54-31.53,2.21-.47,.88-.93,2.68,1.23,4.84,4.61,4.61,18.14,1.72,30.68-3.53,9.64,1.85,18.54,4.92,25.43,8.83,9.81,5.55,15.23,12.44,16.12,20.47,1.91,17.14-12.75,33.82-22.97,44.04-11.48,11.48-22.85,15.23-22.96,15.31l6.47,6.94c.48-.32,11.78-7.91,22.79-19.88,14.74-16.02,21.68-32.2,20.06-46.79Zm-73.21-27.81c-.56-.55-.62-.85-.63-.85,.51-1.18,7.84-3.18,22.24-1.33-11.16,3.94-19.38,4.41-21.61,2.18Z"/>
              <path class="cls-53" d="M818.74,24.93c-.39-1.86-.65-3.86-.65-5.86,0-1.4,.13-2.54,.34-3.47,.53,1.26,.85,2.57,.96,3.93,.14,1.8-.09,3.61-.65,5.4Z"/>
              <path class="cls-53" d="M827.19,74.64c-4.31-3.41-12.92-10.59-12.92-13.46,0-.16,.01-.36,.04-.58,6.23,4.06,10.54,8.76,12.89,14.04Z"/>
            </g>
            <g>
              <path class="cls-127" d="M1717.39,852.16c0,22.11,13.57,40.04,30.3,40.04s30.3-17.92,30.3-40.04-13.57-40.04-30.3-40.04-30.3,17.92-30.3,40.04Z"/>
              <polygon class="cls-84" points="1674.33 606.86 1693.73 805.86 1705.77 805.86 1705.77 607.74 1674.33 606.86"/>
              <polygon class="cls-90" points="1657.62 533.73 1668.13 637.07 1714.38 637.07 1722.27 536.42 1657.62 533.73"/>
              <polygon class="cls-89" points="1836.28 492.27 1837.82 458.86 1847.11 458.86 1841.44 492.27 1836.28 492.27"/>
              <polygon class="cls-88" points="1806.09 473.65 1839.07 471.05 1840.14 481.63 1806.69 479.53 1806.09 473.65"/>
              <polygon class="cls-87" points="1825.26 430.74 1817.68 514.12 1815.06 514.05 1801.63 513.67 1799.67 460.13 1798.51 428.51 1825.26 430.74"/>
              <path class="cls-126" d="M1881.13,520.66h0c-1.9,9.44-10.15,16.26-19.78,16.34l-21.24,.18-153.2,1.28-175.28,1.5c-11.84,.1-21.47-9.53-21.37-21.37h0c.1-11.6,9.51-20.97,21.11-21.01l125.07-.48,88.4-.32,136.27-.47c12.88-.04,22.55,11.73,20.02,24.35Z"/>
              <path class="cls-67" d="M1684.37,433.86c-9.81-10.26,4.01-140.89,11.15-145.35,7.13-4.46,247.9-4.9,255.93,4.46,8.03,9.36-.89,138.22-12.93,146.24-12.04,8.03-244.34,4.9-254.15-5.35Z"/>
              <path class="cls-79" d="M1665.2,432.08c-9.81-10.26,4.01-140.9,11.15-145.35,7.13-4.46,247.9-4.9,255.93,4.46,8.03,9.36-.89,138.22-12.93,146.25-12.04,8.03-244.34,4.9-254.15-5.35Z"/>
              <polygon class="cls-86" points="1810.55 825.99 1714.24 804.07 1714.24 779.47 1683.03 779.47 1685.71 805.86 1593.86 833.15 1601.88 838.96 1697.75 818.39 1810.55 832.25 1810.55 825.99"/>
              <g>
                <path class="cls-85" d="M1607.68,858.42c0,22.11-13.57,40.04-30.3,40.04s-30.3-17.92-30.3-40.04,13.57-40.04,30.3-40.04,30.3,17.92,30.3,40.04Z"/>
                <path class="cls-83" d="M1596.25,855.5c0,8.53-5.23,15.44-11.69,15.44s-11.69-6.91-11.69-15.44,5.23-15.44,11.69-15.44,11.69,6.91,11.69,15.44Z"/>
                <path class="cls-5" d="M1604.3,858.42c0,19.78-12.14,35.82-27.11,35.82s-27.11-16.04-27.11-35.82,12.14-35.82,27.11-35.82c9.34,0,17.58,6.24,22.45,15.74-4.07-6.95-10.45-11.43-17.62-11.43-12.31,0-22.28,13.18-22.28,29.44s9.98,29.44,22.28,29.44,21.85-12.62,22.27-28.39c.01,.34,.02,.68,.02,1.02Z"/>
              </g>
              <g>
                <path class="cls-102" d="M1798.99,852.16c0,22.11,13.57,40.04,30.3,40.04s30.3-17.92,30.3-40.04-13.57-40.04-30.3-40.04-30.3,17.92-30.3,40.04Z"/>
                <path class="cls-101" d="M1810.42,849.24c0,8.53,5.23,15.44,11.69,15.44s11.69-6.91,11.69-15.44-5.23-15.44-11.69-15.44-11.69,6.91-11.69,15.44Z"/>
                <path class="cls-4" d="M1802.37,852.16c0,19.79,12.14,35.82,27.11,35.82s27.11-16.04,27.11-35.82-12.14-35.82-27.11-35.82c-9.34,0-17.58,6.24-22.45,15.74,4.07-6.95,10.45-11.43,17.62-11.43,12.31,0,22.28,13.18,22.28,29.44s-9.98,29.44-22.28,29.44-21.85-12.62-22.27-28.39c-.01,.34-.02,.68-.02,1.02Z"/>
              </g>
            </g>
            <g>
              <polygon class="cls-51" points="1840.12 535.66 1840.12 537.18 1686.92 538.46 1685.24 503.66 1614.92 498.3 1636.44 497.1 1713.4 492.94 1724.84 496.78 1840.12 535.66"/>
              <g>
                <path class="cls-81" d="M1859.85,621.19h-2.82s-6.69-1.63-16.72-4.12c-30.62-7.6-107.1-30.97-104.98-32.98,2.82-2.67,2.82-58.78,2.82-58.78l-33.79-5.34-2.82-19.59-2.19-.04-87.91-1.74,2.82-5.34s22.55-12.04,38.74-20.03c6.69-3.3,12.29-5.91,14.76-6.69,8.45-2.67,42.24,8.01,42.24,8.01h19.71s59.13,13.36,73.21,13.36h28.16s19.71,18.7,22.53,18.7c.15,0,.33,.74,.52,2.1,2.19,15.58,6.58,112.48,5.74,112.48Z"/>
                <path class="cls-16" d="M1859.85,621.19h-2.82s-6.69-1.63-16.72-4.12c-30.62-7.6-107.1-30.97-104.98-32.98,2.82-2.67,2.82-58.78,2.82-58.78l-33.79-5.34-2.82-19.59-7.51-.15-77.08-1.52-5.51-.11,2.82-5.34s22.55-12.04,38.74-20.03l18.2-4.32s28.16,10.69,30.97,13.36c2.82,2.67,5.63,37.4,5.63,37.4l30.97,2.67v-26.72l-16.89-18.7c.39,.29,25.36,18.74,28.15,24.04,2.82,5.34,8.45,72.13,11.26,77.48,2.82,5.34,99.47,42.74,98.55,42.74Z"/>
              </g>
              <path class="cls-26" d="M1702.03,500.22l-85.08-1.52-2.07-.41s71-22.65,85.07-14.64c0,0,.13,10.85,2.08,16.56Z"/>
            </g>
            <ellipse class="cls-23" cx="2982.73" cy="968.82" rx="80" ry="8"/>
            <g>
              <polygon class="cls-34" points="2957.74 717.27 2965.9 715.97 2967.29 715.76 2967.31 715.76 2983.54 713.18 2983.72 710.26 2983.87 707.77 2986.75 661.74 2986.91 659.05 2987.55 649.01 2987.62 647.85 2987.78 645.11 2956.77 645.91 2950.87 646.07 2951.12 648.79 2951.16 649.2 2951.17 649.21 2951.24 649.94 2951.64 654.11 2951.92 656.85 2955.77 697.02 2956.93 709.1 2957.67 716.62 2957.74 717.27"/>
              <path class="cls-130" d="M2972.59,617.1c12.21,1.25,21.84,5.17,21.51,8.74-.33,3.57-10.5,5.45-22.71,4.2-12.21-1.25-21.84-5.16-21.51-8.74,.33-3.57,10.5-5.45,22.71-4.2Z"/>
              <path class="cls-37" d="M2960.3,961.7l50.42-1.29c.58-.8,1.14-1.72,1.69-2.72,3.46-6.35,6.22-16.42,8.4-28.77,.77-4.38,1.47-9.04,2.12-13.93,.3-2.4,.61-4.87,.87-7.37,.63-5.55,1.19-11.32,1.66-17.24,.19-2.15,.34-4.32,.51-6.52,.16-2.4,.35-4.8,.49-7.23,1-15.74,1.61-32.02,1.92-47.36,.09-4.59,.16-9.1,.2-13.49,.07-6.38,.08-12.5,.08-18.24-.02-1.45-.02-2.85-.02-4.24-.02-1.45-.02-2.89-.04-4.28-.05-4.4-.1-8.5-.18-12.23-.05-2.67-.12-5.16-.18-7.42-.05-1.6-.08-3.11-.13-4.49-.02-.76-.06-1.5-.1-2.24v-.26c-.08-2.61-.21-5.09-.36-7.46-.32-2.74-.83-5.42-1.54-8-.02-.11-.06-.23-.1-.32-.09-.38-.2-.75-.33-1.12-.14-.46-.27-.92-.43-1.37-.97-2.96-2.19-5.8-3.65-8.49-1.02-1.9-2.16-3.72-3.39-5.47-4.22-6.04-9.66-11.18-15.94-15.1-5.56-3.48-11.76-5.97-18.42-7.27-3.94-.8-8.07-1.16-12.28-1.06-1.13,.04-2.24,.1-3.34,.2-.22,.04-.45,.05-.67,.09,5.65,.29,11.08,1.41,16.15,3.26,6.19,2.25,11.87,5.55,16.77,9.69,5.85,4.96,10.63,11.07,13.96,18.01,1.1,2.3,2.03,4.68,2.81,7.14,.16,.55,.33,1.12,.48,1.7,.47,1.64,.84,3.35,1.12,5.06,.13,.7,.25,1.4,.31,2.1,.04,.22,.09,.46,.1,.68,.03,.57,.06,1.14,.1,1.72,.1,1.82,.18,3.68,.24,5.66v.27c.06,.73,.09,1.46,.12,2.2,.06,1.63,.11,3.4,.16,5.34,.12,4.49,.22,9.79,.29,15.67,.05,3.85,.08,7.97,.09,12.29,0,2.94-.02,5.97-.02,9.1-.03,5.36-.08,10.95-.19,16.68-.07,4.36-.17,8.8-.29,13.28-.18,6.99-.44,14.13-.76,21.25-.27,5.66-.57,11.32-.93,16.92-.5,7.72-1.1,15.33-1.81,22.64-2.7,27.41-7.01,50.56-13.85,60.25-.04,.09-.11,.16-.15,.24l-41.97,3.55Z"/>
              <path class="cls-104" d="M2937.03,962.3l23.28-.6,41.97-3.55c.04-.09,.11-.16,.15-.24,6.84-9.69,11.15-32.84,13.85-60.25,.71-7.3,1.3-14.91,1.81-22.64,.36-5.61,.66-11.27,.93-16.92,.32-7.12,.58-14.26,.76-21.25,.12-4.48,.22-8.92,.29-13.28,.11-5.74,.16-11.32,.19-16.68,0-3.12,.02-6.16,.02-9.1-.02-4.32-.05-8.44-.09-12.29-.06-5.88-.17-11.17-.29-15.67-.05-1.94-.1-3.71-.16-5.34-.03-.74-.06-1.47-.11-2.2v-.27c-.08-1.98-.16-3.84-.25-5.66-.04-.58-.07-1.15-.1-1.72-.01-.23-.06-.46-.1-.68-.06-.69-.18-1.4-.31-2.1-.28-1.71-.65-3.41-1.12-5.06-.15-.58-.32-1.15-.48-1.7-.77-2.46-1.7-4.83-2.81-7.14-3.32-6.94-8.11-13.05-13.96-18.01-4.9-4.14-10.58-7.44-16.77-9.69-5.07-1.85-10.5-2.97-16.15-3.26-.81,.08-1.62,.17-2.43,.29-.6,.08-1.19,.17-1.78,.27-1.31,.23-2.61,.49-3.87,.82-.87,.21-1.71,.45-2.55,.71-20.94,6.29-36.48,24.6-38.72,46.65-.1,2.19-.17,4.5-.27,6.9v.1c-.08,2.35-.14,4.82-.21,7.37,0,.44-.03,.89-.03,1.34-.42,17.86-.03,48.62,1.72,80.58,2.38,43.17,7.25,88.53,16.11,107.38,.49,1.06,.99,2.01,1.49,2.88Z"/>
              <path class="cls-9" d="M2923.84,750.66l23.54-.61c5.13-19.91,13.03-26.9,21.08-35.52-21.35,1.82-38.82,16.57-44.62,36.13Z"/>
              <path class="cls-35" d="M2944.95,775.78s.24,0,.68,.05c-.45-.11-.68-.05-.68-.05Z"/>
              <polygon class="cls-24" points="2951.71 656.82 2951.92 656.85 2953.73 657.1 2955.09 657.29 2963.36 658.46 2965.47 658.76 2986.75 661.74 2986.98 661.77 2987.78 648.99 2987.85 647.85 2987.62 647.85 2956.83 648.63 2951.12 648.79 2950.93 648.79 2950.98 649.2 2950.98 649.21 2951.05 649.94 2951.71 656.82"/>
              <polygon class="cls-103" points="2946.26 650.07 2951.05 649.94 2951.24 649.94 2987.55 649.01 2987.78 648.99 2992.96 648.86 2995.93 616.99 2988.29 617.13 2986.35 617.17 2976.14 617.36 2974.98 617.39 2964.32 617.59 2955.07 617.77 2955.04 617.77 2954.35 617.78 2951.12 617.84 2941.63 618.02 2946.26 650.07"/>
              <polygon class="cls-11" points="2982.1 618.72 2956.11 620.38 2956.84 649.05 2946.59 649.31 2943.57 618.71 2982.1 618.72"/>
            </g>
          </g>
          <g>
            <g>
              <path class="cls-63" d="M689.57,920.95l40.3-557.23-17.61-20.6-330.65,.73s-67.53,520.28-67.02,513.93c.44-5.52,348.73,63.1,348.73,63.1l26.25,.08Z"/>
              <g>
                <polygon class="cls-129" points="663.73 922.6 313.05 863.45 312.73 863.41 381.43 344.01 466.97 345.37 528.06 346.35 538.28 346.51 562.47 346.89 705.22 349.16 663.73 922.6"/>
                <polygon class="cls-134" points="637.35 868.65 627.98 867.06 350.22 819.83 406.59 392.17 407.73 383.51 670.99 387.01 672.71 387.03 672.7 387.16 637.35 868.65"/>
                <polygon class="cls-135" points="619.85 459.54 575.04 458.93 443.19 457.2 404.85 748.08 405.9 748.25 596.28 780.63 619.85 459.54"/>
                <polygon class="cls-80" points="349.51 826.04 313.05 863.45 663.73 922.6 636.83 873.22 349.51 826.04"/>
                <path class="cls-74" d="M575.04,458.93l-131.84-1.73-38.34,290.88,1.05,.17,3.93-3.11s17.07-109.04,28.84-130.81c11.77-21.77,61.17-6.79,61.17-6.79l7.28-63.92,22.41,7.22,1.04-9.13,18.34,2.13-.42-37.06,33.66-9.98-7.11-37.88Z"/>
                <path class="cls-7" d="M555.08,765.5s-12.63-28.42-6.37-34.2c6.26-5.78-11.03-58.9-11.03-58.9l2.76,.32-9.4-97.75,.68-30.59s22.42,89.96,26.8,100.7c4.38,10.73,28.44,53.49,27.78,75.72-.67,22.23-14.95,.13-14.95,.13l8.37,57.66-21.19-2.46-3.46-10.62Z"/>
                <path class="cls-1" d="M564.05,563.92l11.61,29.23s-6.37-34.2-7.48-40.83c-1.11-6.64,6.87-2.92,1.88-16.51-4.99-13.59-9.99-18.82-9.99-18.82l-3.67-8.79,.19,6.53,.59,11.22s.07,15.81-.14,17.64c-.21,1.84,7.02,20.33,7.02,20.33Z"/>
              </g>
              <polygon class="cls-17" points="637.35 868.65 627.98 867.06 660.3 409.98 406.59 392.17 407.73 383.51 481.25 384.49 535.34 385.21 544.13 385.33 558.06 385.51 670.99 387.01 672.71 387.03 672.7 387.16 637.35 868.65"/>
              <polygon class="cls-13" points="535.34 385.21 465.12 381.89 446.02 344.7 528.06 346.35 535.34 385.21"/>
            </g>
            <path class="cls-12" d="M552.79,406.15l64.31,459.54s-268.42-51.03-265.21-53.58c3.21-2.55,55.92-413.74,55.92-413.74l144.98,7.78Z"/>
          </g>
        </g>
      </g>
    </g>
  </g>
</svg>