<?xml version="1.0" encoding="UTF-8"?>
<svg xmlns="http://www.w3.org/2000/svg" xmlns:xlink="http://www.w3.org/1999/xlink" viewBox="0 0 1328.17 1580.53">
  <defs>
    <style>
      .cls-1, .cls-2, .cls-3, .cls-4, .cls-5, .cls-6, .cls-7, .cls-8, .cls-9, .cls-10, .cls-11 {
        fill: none;
      }

      .cls-2 {
        stroke: #447dc7;
        stroke-width: 123.26px;
      }

      .cls-2, .cls-3, .cls-4, .cls-5, .cls-6, .cls-7, .cls-8, .cls-9, .cls-10, .cls-11 {
        stroke-miterlimit: 10;
      }

      .cls-2, .cls-7, .cls-8, .cls-9, .cls-10 {
        stroke-linecap: round;
      }

      .cls-12 {
        clip-path: url(#clippath);
      }

      .cls-13 {
        fill: #f8b98b;
      }

      .cls-14 {
        fill: #00548f;
      }

      .cls-15 {
        fill: #e6e6e6;
      }

      .cls-16 {
        fill: #e6fbfc;
      }

      .cls-17 {
        fill: #ea644b;
      }

      .cls-18 {
        fill: #f2b051;
      }

      .cls-19 {
        fill: #fcbc7f;
      }

      .cls-20 {
        fill: #b4dee1;
      }

      .cls-21 {
        fill: #89bdca;
      }

      .cls-22 {
        fill: #c2dde3;
      }

      .cls-23 {
        fill: #b0b0b0;
      }

      .cls-24 {
        fill: #ca806a;
      }

      .cls-25 {
        fill: #d44541;
      }

      .cls-26 {
        fill: #d1d6f0;
      }

      .cls-27 {
        fill: #433f47;
      }

      .cls-28 {
        fill: #413935;
      }

      .cls-29 {
        fill: #437dc1;
      }

      .cls-30 {
        fill: #9ac4fd;
      }

      .cls-31 {
        fill: #544e59;
      }

      .cls-32 {
        fill: #635d69;
      }

      .cls-33 {
        fill: #47444d;
      }

      .cls-34 {
        fill: #3c3940;
      }

      .cls-35 {
        fill: #4f4b54;
      }

      .cls-36, .cls-37 {
        fill: #4e90ef;
      }

      .cls-3 {
        stroke-width: 6.16px;
      }

      .cls-3, .cls-4 {
        stroke: #809d9f;
      }

      .cls-4 {
        stroke-width: 6.32px;
      }

      .cls-38 {
        fill: #f0f0f0;
        mix-blend-mode: multiply;
      }

      .cls-5, .cls-6 {
        stroke-width: 3.21px;
      }

      .cls-5, .cls-11 {
        stroke: #00548f;
      }

      .cls-6 {
        stroke: #4e90ef;
      }

      .cls-7 {
        stroke-width: 4.77px;
      }

      .cls-7, .cls-8 {
        stroke: #e09f6e;
      }

      .cls-8 {
        stroke-width: 6.41px;
      }

      .cls-9 {
        stroke: #4f4b54;
        stroke-width: 10px;
      }

      .cls-39 {
        isolation: isolate;
      }

      .cls-10 {
        stroke: #fd7ba6;
        stroke-width: 9.62px;
      }

      .cls-11 {
        stroke-width: 160.3px;
      }

      .cls-37 {
        opacity: .3;
      }
    </style>
    <clipPath id="clippath">
      <rect class="cls-1" x="797.33" y="585.51" width="530.49" height="549.05" rx="202.7" ry="202.7"/>
    </clipPath>
  </defs>
  <g class="cls-39">
    <g id="Vrstva_1" data-name="Vrstva 1">
      <g>
        <g>
          <g>
            <g>
              <path class="cls-24" d="M301.1,1460.68l-37.21-24.97,33.83,29.4,5.86,5.09c-9.66,11.08-23.84,18.07-39.69,18.07-29.02,0-52.56-23.52-52.56-52.56s23.54-52.56,52.56-52.56,52.56,23.54,52.56,52.56c0,10.85-3.28,20.92-8.91,29.3l-6.44-4.32Z"/>
              <path class="cls-13" d="M301.1,1460.68l-37.21-24.97,33.83,29.4c-8.22,9.45-20.32,15.42-33.83,15.42-24.75,0-44.8-20.07-44.8-44.82s20.05-44.8,44.8-44.8,44.82,20.07,44.82,44.8c0,9.25-2.8,17.85-7.61,24.97Z"/>
            </g>
            <g>
              <circle class="cls-24" cx="362.31" cy="1443.84" r="44.44"/>
              <circle class="cls-13" cx="362.31" cy="1443.84" r="37.89" transform="translate(-914.83 679.08) rotate(-45)"/>
            </g>
            <g>
              <circle class="cls-24" cx="448.18" cy="1448.86" r="39.42"/>
              <circle class="cls-13" cx="448.18" cy="1448.86" r="33.61"/>
            </g>
            <g>
              <path class="cls-24" d="M587.48,1439.59c0,26.89-21.79,48.68-48.68,48.68s-48.68-21.79-48.68-48.68,21.11-48,47.42-48.65l.19,7.18,1.08,41.47,9.73-40.36,1.68-6.96c21.38,5.11,37.28,24.36,37.28,47.31Z"/>
              <path class="cls-13" d="M580.3,1439.59c0,22.92-18.58,41.5-41.5,41.5s-41.52-18.58-41.52-41.5,18.02-40.92,40.44-41.47l1.08,41.47,9.73-40.36c18.24,4.38,31.78,20.79,31.78,40.36Z"/>
            </g>
            <g>
              <path class="cls-24" d="M205.32,1485.28c-20.5,3.85-41.94-5.95-51.98-25.45-7.34-14.27-6.91-30.51-.24-43.84l6.87,2.26,48.32,15.83-2.54,43.81-.43,7.39Z"/>
              <path class="cls-13" d="M205.75,1477.89c-17.99,4.21-37.22-4.14-46.06-21.32-6.44-12.51-5.86-26.78,.28-38.32l48.32,15.83-2.54,43.81Z"/>
            </g>
            <g>
              <path class="cls-24" d="M285.52,1380.51c10.62-9.55,25.03-14.77,40.35-13.25,15.6,1.54,28.92,9.77,37.44,21.55l-6.29,4.53-36.33,26.22-29.99-33.3-5.18-5.75Z"/>
              <path class="cls-13" d="M290.71,1386.26c9.05-8.14,21.34-12.59,34.41-11.3,13.3,1.32,24.66,8.33,31.91,18.38l-36.33,26.22-29.99-33.3Z"/>
            </g>
            <g>
              <path class="cls-24" d="M435.72,1410.19c-11.37,5.58-25.02,6.31-37.51,.84-12.43-5.45-21.12-15.9-24.73-27.96l6.3-1.89,36.28-10.85,16.75,33.98,2.91,5.88Z"/>
              <path class="cls-13" d="M432.81,1404.31c-9.67,4.77-21.31,5.4-31.97,.73-10.6-4.65-18.01-13.57-21.07-23.85l36.28-10.85,16.75,33.98Z"/>
            </g>
            <g>
              <path class="cls-24" d="M492.02,1367.26c6.15,8.06,9.59,18.25,9.04,29.16-.59,11.71-5.65,22.12-13.48,29.68-2.01-1.13-4.01-2.24-6.01-3.37-24.27-13.57-46.42-26.08-46.42-26.08,0,0,24.45-12.68,50.95-26.35,1.97-1.01,3.94-2.03,5.92-3.04Z"/>
              <path class="cls-13" d="M486.1,1370.3c5.69,7,8.91,16.06,8.42,25.79-.54,10.69-5.47,20.12-12.95,26.64-24.27-13.57-46.42-26.08-46.42-26.08,0,0,24.45-12.68,50.95-26.35Z"/>
            </g>
          </g>
          <g>
            <g>
              <path class="cls-27" d="M199.35,1423.33c0-8.5-15.38-30.48-15.38-30.48,0,0-15.38,21.99-15.38,30.48,0,4.95,2.35,9.34,5.98,12.16v52.8h18.8v-52.8c3.63-2.81,5.98-7.21,5.98-12.16Z"/>
              <path class="cls-27" d="M236.1,1423.33c0-8.5-15.38-30.48-15.38-30.48,0,0-15.38,21.99-15.38,30.48,0,4.95,2.35,9.34,5.98,12.16v52.8h18.8v-52.8c3.63-2.81,5.98-7.21,5.98-12.16Z"/>
              <path class="cls-27" d="M272.85,1423.33c0-8.5-15.38-30.48-15.38-30.48,0,0-15.38,21.99-15.38,30.48,0,4.95,2.35,9.34,5.98,12.16v52.8h18.8v-52.8c3.63-2.81,5.98-7.21,5.98-12.16Z"/>
              <path class="cls-27" d="M309.6,1423.33c0-8.5-15.38-30.48-15.38-30.48,0,0-15.38,21.99-15.38,30.48,0,4.95,2.35,9.34,5.98,12.16v52.8h18.8v-52.8c3.63-2.81,5.98-7.21,5.98-12.16Z"/>
              <path class="cls-27" d="M346.35,1423.33c0-8.5-15.38-30.48-15.38-30.48,0,0-15.38,21.99-15.38,30.48,0,4.95,2.35,9.34,5.98,12.16v52.8h18.8v-52.8c3.63-2.81,5.98-7.21,5.98-12.16Z"/>
              <path class="cls-27" d="M383.1,1423.33c0-8.5-15.38-30.48-15.38-30.48,0,0-15.38,21.99-15.38,30.48,0,4.95,2.35,9.34,5.98,12.16v52.8h18.8v-52.8c3.63-2.81,5.98-7.21,5.98-12.16Z"/>
              <path class="cls-27" d="M419.85,1423.33c0-8.5-15.38-30.48-15.38-30.48,0,0-15.38,21.99-15.38,30.48,0,4.95,2.35,9.34,5.98,12.16v52.8h18.8v-52.8c3.63-2.81,5.98-7.21,5.98-12.16Z"/>
              <path class="cls-27" d="M456.6,1423.33c0-8.5-15.38-30.48-15.38-30.48,0,0-15.38,21.99-15.38,30.48,0,4.95,2.35,9.34,5.98,12.16v52.8h18.8v-52.8c3.63-2.81,5.98-7.21,5.98-12.16Z"/>
              <path class="cls-27" d="M493.36,1423.33c0-8.5-15.38-30.48-15.38-30.48,0,0-15.38,21.99-15.38,30.48,0,4.95,2.35,9.34,5.98,12.16v52.8h18.8v-52.8c3.63-2.81,5.98-7.21,5.98-12.16Z"/>
              <path class="cls-27" d="M530.11,1423.33c0-8.5-15.38-30.48-15.38-30.48,0,0-15.38,21.99-15.38,30.48,0,4.95,2.35,9.34,5.98,12.16v52.8h18.8v-52.8c3.63-2.81,5.98-7.21,5.98-12.16Z"/>
              <path class="cls-27" d="M566.86,1423.33c0-8.5-15.38-30.48-15.38-30.48,0,0-15.38,21.99-15.38,30.48,0,4.95,2.35,9.34,5.98,12.16v52.8h18.8v-52.8c3.63-2.81,5.98-7.21,5.98-12.16Z"/>
            </g>
            <rect class="cls-27" x="162.18" y="1473.67" width="411.09" height="5.97"/>
            <rect class="cls-27" x="162.18" y="1440.56" width="411.09" height="5.97"/>
          </g>
          <g id="Fireplace_07">
            <rect class="cls-35" x="88.16" y="736.44" width="559.13" height="579.12"/>
            <path class="cls-35" d="M655,711.88H80.44c-13.56,0-24.55,10.99-24.55,24.55H679.55c0-13.56-10.99-24.55-24.55-24.55Z"/>
            <path class="cls-32" d="M80.8,1315.55H654.64c13.75,0,24.92,11.16,24.92,24.92v.37H55.89v-.37c0-13.75,11.16-24.92,24.92-24.92Z"/>
            <path class="cls-32" d="M139.92,736.44h455.61v49.57c0,8.26-6.71,14.97-14.97,14.97H154.89c-8.26,0-14.97-6.71-14.97-14.97v-49.57h0Z"/>
            <g>
              <g>
                <path class="cls-34" d="M238.01,788.12c-4.35,0-7.88-3.53-7.88-7.88v-23.07c0-4.35,3.53-7.88,7.88-7.88s7.88,3.53,7.88,7.88v23.07c0,4.35-3.53,7.88-7.88,7.88Z"/>
                <path class="cls-34" d="M265.16,788.12c-4.35,0-7.88-3.53-7.88-7.88v-23.07c0-4.35,3.53-7.88,7.88-7.88s7.88,3.53,7.88,7.88v23.07c0,4.35-3.53,7.88-7.88,7.88Z"/>
                <path class="cls-34" d="M292.32,788.12c-4.35,0-7.88-3.53-7.88-7.88v-23.07c0-4.35,3.53-7.88,7.88-7.88s7.88,3.53,7.88,7.88v23.07c0,4.35-3.53,7.88-7.88,7.88Z"/>
                <path class="cls-34" d="M319.47,788.12c-4.35,0-7.88-3.53-7.88-7.88v-23.07c0-4.35,3.53-7.88,7.88-7.88s7.88,3.53,7.88,7.88v23.07c0,4.35-3.53,7.88-7.88,7.88Z"/>
              </g>
              <g>
                <path class="cls-34" d="M415.97,788.12c-4.35,0-7.88-3.53-7.88-7.88v-23.07c0-4.35,3.53-7.88,7.88-7.88s7.88,3.53,7.88,7.88v23.07c0,4.35-3.53,7.88-7.88,7.88Z"/>
                <path class="cls-34" d="M443.12,788.12c-4.35,0-7.88-3.53-7.88-7.88v-23.07c0-4.35,3.53-7.88,7.88-7.88s7.88,3.53,7.88,7.88v23.07c0,4.35-3.53,7.88-7.88,7.88Z"/>
                <path class="cls-34" d="M470.28,788.12c-4.35,0-7.88-3.53-7.88-7.88v-23.07c0-4.35,3.53-7.88,7.88-7.88s7.88,3.53,7.88,7.88v23.07c0,4.35-3.53,7.88-7.88,7.88Z"/>
                <path class="cls-34" d="M497.43,788.12c-4.35,0-7.88-3.53-7.88-7.88v-23.07c0-4.35,3.53-7.88,7.88-7.88s7.88,3.53,7.88,7.88v23.07c0,4.35-3.53,7.88-7.88,7.88Z"/>
              </g>
              <g>
                <circle class="cls-33" cx="367.72" cy="768.71" r="19.73" transform="translate(-266.18 199.23) rotate(-22.5)"/>
                <path class="cls-31" d="M383.36,784.34c-2.92,2.92-7.65,2.92-10.58,0l-20.7-20.7c-2.92-2.92-2.92-7.65,0-10.57,2.92-2.92,7.65-2.92,10.58,0l20.7,20.7c2.92,2.92,2.92,7.65,0,10.58Z"/>
              </g>
            </g>
            <rect class="cls-38" x="88.16" y="736.44" width="559.13" height="28.26"/>
            <rect class="cls-32" x="139.92" y="812.86" width="455.61" height="477.29" rx="9.28" ry="9.28"/>
            <path class="cls-35" d="M586.24,816.67H149.2c-3.01,0-5.46,2.45-5.46,5.46v458.73c0,3.01,2.45,5.46,5.46,5.46h437.05c3.01,0,5.46-2.45,5.46-5.46v-458.73c0-3.01-2.45-5.46-5.46-5.46Zm1.64,464.19c0,.91-.74,1.64-1.64,1.64H149.2c-.91,0-1.64-.74-1.64-1.64v-458.73c0-.91,.74-1.64,1.64-1.64h437.05c.91,0,1.64,.74,1.64,1.64v458.73Z"/>
            <g>
              <g>
                <path class="cls-34" d="M238.01,1267.53c-4.35,0-7.88-3.53-7.88-7.88v-23.07c0-4.35,3.53-7.88,7.88-7.88s7.88,3.53,7.88,7.88v23.07c0,4.35-3.53,7.88-7.88,7.88Z"/>
                <path class="cls-34" d="M265.16,1267.53c-4.35,0-7.88-3.53-7.88-7.88v-23.07c0-4.35,3.53-7.88,7.88-7.88s7.88,3.53,7.88,7.88v23.07c0,4.35-3.53,7.88-7.88,7.88Z"/>
                <path class="cls-34" d="M292.32,1267.53c-4.35,0-7.88-3.53-7.88-7.88v-23.07c0-4.35,3.53-7.88,7.88-7.88s7.88,3.53,7.88,7.88v23.07c0,4.35-3.53,7.88-7.88,7.88Z"/>
                <path class="cls-34" d="M319.47,1267.53c-4.35,0-7.88-3.53-7.88-7.88v-23.07c0-4.35,3.53-7.88,7.88-7.88s7.88,3.53,7.88,7.88v23.07c0,4.35-3.53,7.88-7.88,7.88Z"/>
              </g>
              <g>
                <path class="cls-34" d="M415.97,1267.53c-4.35,0-7.88-3.53-7.88-7.88v-23.07c0-4.35,3.53-7.88,7.88-7.88s7.88,3.53,7.88,7.88v23.07c0,4.35-3.53,7.88-7.88,7.88Z"/>
                <path class="cls-34" d="M443.12,1267.53c-4.35,0-7.88-3.53-7.88-7.88v-23.07c0-4.35,3.53-7.88,7.88-7.88s7.88,3.53,7.88,7.88v23.07c0,4.35-3.53,7.88-7.88,7.88Z"/>
                <path class="cls-34" d="M470.28,1267.53c-4.35,0-7.88-3.53-7.88-7.88v-23.07c0-4.35,3.53-7.88,7.88-7.88s7.88,3.53,7.88,7.88v23.07c0,4.35-3.53,7.88-7.88,7.88Z"/>
                <path class="cls-34" d="M497.43,1267.53c-4.35,0-7.88-3.53-7.88-7.88v-23.07c0-4.35,3.53-7.88,7.88-7.88s7.88,3.53,7.88,7.88v23.07c0,4.35-3.53,7.88-7.88,7.88Z"/>
              </g>
              <g>
                <circle class="cls-33" cx="367.72" cy="1248.12" r="19.73" transform="translate(-449.64 235.73) rotate(-22.5)"/>
                <path class="cls-31" d="M383.36,1263.76c-2.92,2.92-7.65,2.92-10.58,0l-20.7-20.7c-2.92-2.92-2.92-7.65,0-10.57,2.92-2.92,7.65-2.92,10.58,0l20.7,20.7c2.92,2.92,2.92,7.65,0,10.58Z"/>
              </g>
            </g>
            <rect class="cls-35" x="194.86" y="827.94" width="345.73" height="388.58" rx="9.62" ry="9.62" transform="translate(1389.95 654.51) rotate(90)"/>
            <rect class="cls-32" x="211.4" y="844.49" width="312.63" height="355.48" transform="translate(1389.95 654.51) rotate(90)"/>
            <rect class="cls-28" x="197.61" y="873.55" width="340.21" height="297.35"/>
            <path class="cls-23" d="M579.78,1017.44c13.42,13.42,20.47,28.13,15.75,32.85-4.72,4.72-19.43-2.33-32.85-15.75-13.42-13.42-20.47-28.13-15.75-32.85s19.43,2.33,32.85,15.75Z"/>
            <rect class="cls-32" x="105.88" y="884.45" width="34.04" height="18.77"/>
            <rect class="cls-32" x="105.88" y="1201.85" width="34.04" height="18.77"/>
            <g>
              <g>
                <path class="cls-22" d="M275.73,1056.04c-4.53-11-6.8-16.5-8.37-20.28-1.09-2.62-4.14-9.96-4.14-9.96-1.09-2.64-1.11-5.25-.04-7.76,2.69-6.34,11.35-9.82,11.72-9.97,.45-.19,46.59-18.98,52.16-21.6,4.3-2.02,25.64-5.41,37.98-7.25,3.75-.56,7.44-1.58,10.94-3.03l9.98-4.13c2.93-1.21,5.59-2.91,7.92-5.06l2.29-2.11c3.74-3.45,8-6.22,12.66-8.25,16.81-7.32,45.66-19.72,50.02-20.53,5.64-1.06,32.82,9.22,37.69,11.09l6.16-2.55,12.3,29.69-6.16,2.55c-2.12,4.77-14.08,31.26-18.81,34.49-3.67,2.51-32.83,14.14-49.89,20.85-4.73,1.86-9.71,2.91-14.79,3.12l-3.11,.13c-3.17,.13-6.26,.81-9.18,2.02l-9.98,4.13c-3.5,1.45-6.83,3.33-9.88,5.59-10.03,7.43-27.52,20.13-31.98,21.73-5.79,2.08-51.7,21.42-52.17,21.61-.35,.15-8.94,3.82-15.32,1.24-2.53-1.02-4.36-2.87-5.45-5.5,0,0-2.4-5.8-3.64-8.81-4.44-10.72-8.9-21.44-8.9-21.44Z"/>
                <path class="cls-21" d="M513.44,973.69l-5.5,2.28s-13.82,31.17-18.59,34.43c-3.68,2.52-35.34,15.09-49.65,20.72-4.6,1.81-9.46,2.83-14.4,3.03l-3.11,.13c-3.3,.13-6.54,.85-9.59,2.11l-9.98,4.13c-3.6,1.49-7,3.42-10.13,5.74-8.76,6.49-27.23,19.97-31.68,21.57-5.89,2.12-52.23,21.63-52.23,21.63,0,0-15.01,6.51-19.21-3.63,0,0,0,0,0-.01-1.14-2.77-2.38-5.76-3.62-8.76-4.45-10.73-8.91-21.47-8.91-21.47-4.53-10.99-6.8-16.49-8.36-20.27-1.57-3.78-2.43-5.85-4.15-9.98,0,0,0,0,0-.01-4.2-10.14,11.02-16.15,11.02-16.15,0,0,46.57-18.97,52.23-21.63,4.28-2.01,26.87-5.54,37.65-7.14,3.86-.57,7.62-1.62,11.22-3.11l9.98-4.13c3.05-1.26,5.85-3.05,8.27-5.29l2.29-2.11c3.63-3.35,7.8-6.06,12.33-8.04,14.1-6.14,45.38-19.64,49.76-20.46,5.68-1.06,37.49,11.2,37.49,11.2l5.5-2.28,5.69,13.74,5.69,13.74m3.11,1.29l-.91-2.2-5.69-13.74-5.69-13.74-.91-2.2-2.2,.91-4.62,1.91c-7.01-2.68-32.14-12.06-37.89-10.98-4.25,.8-29.68,11.65-50.27,20.61-4.78,2.08-9.15,4.93-12.99,8.47l-2.29,2.11c-2.23,2.05-4.77,3.68-7.57,4.84l-9.98,4.13c-3.41,1.41-7,2.41-10.66,2.95-15.15,2.26-34.1,5.36-38.32,7.35-5.54,2.61-51.65,21.39-52.11,21.58-.36,.14-9.48,3.81-12.35,10.6-1.19,2.82-1.18,5.73,.03,8.67l1.4,3.36c.92,2.22,1.67,4.01,2.75,6.63,1.57,3.78,3.83,9.27,8.36,20.26,0,0,4.47,10.74,8.92,21.47,1.24,3,2.48,6,3.62,8.76,1.22,2.95,3.28,5.02,6.11,6.17,6.84,2.77,15.87-1.09,16.25-1.25,.44-.18,46.33-19.51,52.08-21.58,4.38-1.57,19.97-12.78,32.29-21.9,2.97-2.2,6.21-4.04,9.62-5.45l9.98-4.13c2.8-1.16,5.75-1.81,8.77-1.93l3.11-.13c5.21-.21,10.32-1.29,15.17-3.2,20.89-8.22,46.55-18.53,50.12-20.97,4.83-3.31,15.97-27.7,19.03-34.56l4.62-1.91,2.2-.91h0Z"/>
              </g>
              <g>
                <path class="cls-20" d="M264.87,1026.66c2.89,7,3.31,8.04,3.31,8.04,0,0,1.41,3.38,3.43,8.24-2.42-5.85-3.9-9.44-6.74-16.28Z"/>
                <path class="cls-20" d="M282.54,1069.33s0,.02,.01,.03c-.19-.45-.37-.9-.56-1.34,.18,.44,.37,.89,.54,1.31Z"/>
                <path class="cls-21" d="M308.59,1089.46s46.34-19.52,52.23-21.63c4.45-1.6,22.92-15.08,31.68-21.57,3.13-2.32,6.53-4.24,10.13-5.74l9.98-4.13c3.05-1.26,6.29-1.98,9.59-2.11l3.11-.13c4.94-.2,9.8-1.23,14.4-3.03,14.31-5.63,45.98-18.21,49.65-20.72,4.77-3.26,18.59-34.43,18.59-34.43l5.5-2.28-2.05-4.95s-22.28,26.3-27.05,29.56c-3.68,2.52-35.34,15.09-49.65,20.72-4.6,1.81-9.46,2.83-14.4,3.03l-3.11,.13c-3.3,.13-6.54,.85-9.59,2.11l-9.98,4.13c-3.6,1.49-7,3.42-10.13,5.74-8.76,6.49-27.23,19.97-31.68,21.57-5.89,2.12-52.23,21.63-52.23,21.63,0,0-15,6.5-19.21-3.61,2.19,5.29,2.86,6.88,5,12.07,4.19,10.16,19.22,3.64,19.22,3.64Z"/>
                <path class="cls-20" d="M264.32,1025.35c.18,.43,.36,.87,.55,1.31-.18-.44-.37-.89-.55-1.34,0,0,0,.02,0,.03Z"/>
                <path class="cls-20" d="M271.6,1042.94c2.01,4.87,5.23,12.65,5.23,12.65,0,0,2.26,5.43,5.16,12.42-2.83-6.84-7.96-19.22-10.39-25.07Z"/>
              </g>
              <g>
                <path class="cls-20" d="M269.33,1037.44c.18,.43,.36,.87,.55,1.31-.18-.44-.37-.89-.55-1.34,0,0,0,.02,0,.03Z"/>
                <path class="cls-20" d="M280.26,1063.83c2.01,4.87,3.4,8.25,3.4,8.25,0,0,2.26,5.43,5.16,12.43-2.83-6.84-6.14-14.83-8.57-20.68Z"/>
                <path class="cls-20" d="M289.37,1085.82s0,.02,.01,.03c-.19-.45-.37-.9-.56-1.34,.18,.44,.37,.89,.54,1.31Z"/>
                <path class="cls-16" d="M280.35,1021.28s46.57-18.97,52.23-21.63c4.28-2.01,26.87-5.54,37.65-7.14,3.86-.57,7.62-1.62,11.22-3.11l9.98-4.13c3.05-1.26,5.85-3.05,8.27-5.29l2.29-2.11c3.63-3.35,7.8-6.06,12.33-8.04,14.1-6.14,45.38-19.64,49.76-20.46,5.68-1.06,41.85,6.18,41.85,6.18l-3.87-9.35-5.5,2.28s-31.81-12.27-37.49-11.2c-4.38,.82-35.66,14.32-49.76,20.46-4.53,1.97-8.69,4.69-12.33,8.04l-2.29,2.11c-2.43,2.23-5.23,4.02-8.27,5.29l-9.98,4.13c-3.6,1.49-7.36,2.53-11.22,3.11-10.78,1.61-33.38,5.13-37.65,7.14-5.66,2.67-52.23,21.63-52.23,21.63,0,0-15.24,6.02-11.02,16.16,2.15,5.18,2.81,6.78,5,12.07-4.18-10.13,11.03-16.14,11.03-16.14Z"/>
              </g>
              <path class="cls-26" d="M520.07,973.9l8.99-3.73c4.97-2.06,7.33-7.75,5.27-12.72l-6.03-14.57c-2.06-4.97-7.75-7.33-12.72-5.27l-8.99,3.73-1.36-3.27-3.13,1.3,16.2,39.1,3.13-1.3-1.36-3.28Z"/>
              <line class="cls-4" x1="445.13" y1="942.5" x2="475.81" y2="1016.55"/>
              <line class="cls-4" x1="430.56" y1="948.53" x2="461.24" y2="1022.59"/>
              <line class="cls-4" x1="415.99" y1="954.57" x2="446.66" y2="1028.62"/>
            </g>
            <g>
              <g>
                <path class="cls-25" d="M442.54,1109.14c0,49.42-31.71,59.26-70.83,59.26s-70.83-9.85-70.83-59.26,70.83-128.1,70.83-128.1c0,0,70.83,78.68,70.83,128.1Z"/>
                <path class="cls-17" d="M371.7,1162.88c-45.68,0-63.48-17.79-63.48-53.74,0-34.11,42.29-84.79,63.48-106.64,21.19,21.86,63.48,72.53,63.48,106.64,0,35.96-17.8,53.74-63.48,53.74Z"/>
                <path class="cls-18" d="M371.7,1157.28c-37.03,0-37.03-29.11-37.03-42.01,0-14.5,15.64-45.53,37.03-74.62,21.39,29.09,37.03,60.12,37.03,74.62,0,12.9,0,42.01-37.03,42.01Z"/>
              </g>
              <polygon class="cls-18" points="239.22 1085.56 248.88 1099.64 250.03 1092.6 239.22 1085.56"/>
              <polygon class="cls-17" points="275.62 1035.65 288.13 1050.37 295.22 1046.78 275.62 1035.65"/>
              <polygon class="cls-18" points="283.67 984.82 275.62 970.94 289.65 979.74 283.67 984.82"/>
              <polygon class="cls-17" points="323.91 961.15 331.42 977.88 337.16 974.25 323.91 961.15"/>
              <polygon class="cls-18" points="275.62 921.26 280.22 932.99 286.66 930.27 275.62 921.26"/>
              <polygon class="cls-18" points="382.28 918.76 371.7 948 382.28 949.26 382.28 918.76"/>
              <polygon class="cls-18" points="414.86 1019.42 431.11 1009.38 419.46 1026.36 414.86 1019.42"/>
              <polygon class="cls-17" points="412.48 968.85 430.35 961.15 417.47 972.88 412.48 968.85"/>
              <polygon class="cls-18" points="462.02 1043.85 477.97 1043.01 467.85 1049.04 462.02 1043.85"/>
              <polygon class="cls-18" points="220.31 1024.28 211.19 1009.97 224.5 1018.13 220.31 1024.28"/>
              <polygon class="cls-25" points="334.48 921.26 334.52 907.22 339.84 919.31 334.48 921.26"/>
              <polygon class="cls-18" points="456 1109.92 453.36 1101.81 475.62 1099.64 456 1109.92"/>
              <polygon class="cls-17" points="480.33 1003.24 498.73 997.8 484.62 1010.18 480.33 1003.24"/>
            </g>
            <g>
              <path class="cls-35" d="M419.15,1170.9h-21.65l-2.3-2.3-14.59-14.57c20.82-20.84,44.27-15.11,44.27-15.11,0,0,3.72,15.2-5.73,31.98Z"/>
              <path class="cls-35" d="M354.82,1154.03l-16.88,16.88h-21.66c-9.43-16.79-5.73-31.98-5.73-31.98,0,0,23.44-5.73,44.27,15.11Z"/>
              <path class="cls-32" d="M367.72,1108.99s-30.42,18.48-30.42,61.92h60.83c0-43.44-30.42-61.92-30.42-61.92Z"/>
            </g>
            <path class="cls-35" d="M468.06,1143.25h-12.8c-.94,0-1.72,.71-1.81,1.65l-2.39,26.01h21.2l-2.39-26.01c-.09-.93-.87-1.65-1.81-1.65Z"/>
            <path class="cls-35" d="M505.13,1143.25h-12.8c-.94,0-1.72,.71-1.81,1.65l-2.39,26.01h21.2l-2.39-26.01c-.09-.93-.87-1.65-1.81-1.65Z"/>
            <path class="cls-35" d="M267.38,1143.25h12.8c.94,0,1.72,.71,1.81,1.65l2.39,26.01h-21.2l2.39-26.01c.09-.93,.87-1.65,1.81-1.65Z"/>
            <path class="cls-35" d="M230.31,1143.25h12.8c.94,0,1.72,.71,1.81,1.65l2.39,26.01h-21.2l2.39-26.01c.09-.93,.87-1.65,1.81-1.65Z"/>
            <path class="cls-35" d="M672.11,1348.27H63.33c-4.11,0-7.44-3.33-7.44-7.44H679.55c0,4.11-3.33,7.44-7.44,7.44Z"/>
            <g>
              <rect class="cls-35" x="547.9" y="1348.27" width="107.87" height="9.1"/>
              <path class="cls-32" d="M552.52,1357.37s0,7.95,9.89,18.1c9.89,10.15,58.7,15.72,58.7,100.87h30.63v-40.28c0-24.56-6.38-32.09-5.42-53.38,.96-21.29,4.15-25.31,4.15-25.31h-97.94Z"/>
              <rect class="cls-35" x="618.56" y="1476.35" width="35.62" height="11.93"/>
            </g>
            <g>
              <rect class="cls-35" x="79.67" y="1348.27" width="107.87" height="9.1" transform="translate(267.2 2705.65) rotate(180)"/>
              <path class="cls-32" d="M182.92,1357.37s0,7.95-9.89,18.1c-9.89,10.15-58.7,15.72-58.7,100.87h-30.63v-40.28c0-24.56,6.38-32.09,5.42-53.38-.96-21.29-4.15-25.31-4.15-25.31h97.94Z"/>
              <rect class="cls-35" x="81.25" y="1476.35" width="35.62" height="11.93" transform="translate(198.13 2964.63) rotate(180)"/>
            </g>
            <path class="cls-32" d="M0,0V174.23H260.66c11.01,0,19.94,8.93,19.94,19.94V711.88h174.23V158.52h0C454.84,70.97,383.86,0,296.32,0H0Z"/>
            <line class="cls-9" x1="289.65" y1="162.8" x2="387.68" y2="64.76"/>
            <line class="cls-9" x1="289.65" y1="162.8" x2="412.87" y2="100.8"/>
            <line class="cls-9" x1="289.65" y1="162.8" x2="423.06" y2="142.95"/>
            <line class="cls-9" x1="289.65" y1="162.8" x2="305.03" y2="26.54"/>
          </g>
        </g>
        <g>
          <g>
            <line class="cls-11" x1="1156.56" y1="1134.56" x2="1156.56" y2="1487.1"/>
            <g>
              <path class="cls-14" d="M1091.97,1487.1h130.15v93.43h-91.3c-21.44,0-38.85-17.41-38.85-38.85v-54.58h0Z"/>
              <path class="cls-14" d="M1222.12,1524.24h5.26c31.07,0,56.3,25.23,56.3,56.3h-61.56v-56.3h0Z"/>
            </g>
          </g>
          <g>
            <line class="cls-11" x1="963.5" y1="1134.56" x2="963.5" y2="1487.1"/>
            <g>
              <path class="cls-14" d="M936.79,1487.1h91.3v93.43h-130.15v-54.58c0-21.44,17.41-38.85,38.85-38.85Z" transform="translate(1926.02 3067.64) rotate(-180)"/>
              <path class="cls-14" d="M836.38,1524.24h61.56c0,31.07-25.23,56.3-56.3,56.3h-5.26v-56.3h0Z" transform="translate(1734.31 3104.77) rotate(-180)"/>
            </g>
          </g>
          <path class="cls-14" d="M867.16,1072.02h380.19c0,94.65-76.84,171.5-171.5,171.5h-37.2c-94.65,0-171.5-76.84-171.5-171.5h0Z"/>
          <path class="cls-2" d="M650.25,890.01c314.6-44.04,253.73-189.35,253.73-189.35"/>
          <g>
            <rect class="cls-19" x="953.96" y="402.55" width="216.86" height="216.09"/>
            <rect class="cls-37" x="953.96" y="414.41" width="216.86" height="203.78"/>
          </g>
          <path class="cls-7" d="M1085.12,656.98c-12.55-12.55-32.9-12.55-45.46,0"/>
          <path class="cls-30" d="M1179.09,809.69h68.26v34.13c0,18.84-15.29,34.13-34.13,34.13h0c-18.84,0-34.13-15.29-34.13-34.13v-34.13h0Z"/>
          <rect class="cls-29" x="797.68" y="585.51" width="530.49" height="549.05" rx="202.7" ry="202.7"/>
          <g class="cls-12">
            <g>
              <g>
                <line class="cls-6" x1="1103.81" y1="532.05" x2="732.69" y2="903.17"/>
                <line class="cls-6" x1="1151.92" y1="579.53" x2="780.8" y2="950.65"/>
                <line class="cls-6" x1="1200.03" y1="627" x2="828.9" y2="998.12"/>
                <line class="cls-6" x1="1248.13" y1="674.47" x2="877.01" y2="1045.59"/>
                <line class="cls-6" x1="1296.24" y1="721.95" x2="925.12" y2="1093.07"/>
                <line class="cls-6" x1="1344.35" y1="769.42" x2="973.23" y2="1140.54"/>
                <line class="cls-6" x1="1392.45" y1="816.89" x2="1021.33" y2="1188.01"/>
              </g>
              <g>
                <line class="cls-6" x1="1021.33" y1="532.05" x2="1392.45" y2="903.17"/>
                <line class="cls-6" x1="973.23" y1="579.53" x2="1344.35" y2="950.65"/>
                <line class="cls-6" x1="925.12" y1="627" x2="1296.24" y2="998.12"/>
                <line class="cls-6" x1="877.01" y1="674.47" x2="1248.13" y2="1045.59"/>
                <line class="cls-6" x1="828.9" y1="721.95" x2="1200.03" y2="1093.07"/>
                <line class="cls-6" x1="780.8" y1="769.42" x2="1151.92" y2="1140.54"/>
                <line class="cls-6" x1="732.69" y1="816.89" x2="1103.81" y2="1188.01"/>
              </g>
            </g>
          </g>
          <g>
            <line class="cls-8" x1="1083.03" y1="387.93" x2="1125.28" y2="387.93"/>
            <line class="cls-8" x1="989.94" y1="387.93" x2="1032.2" y2="387.93"/>
          </g>
          <polygon class="cls-36" points="901.97 721.29 995.67 998.52 1080.71 719.6 901.97 721.29"/>
          <path class="cls-2" d="M875.88,1099.64c355.05-157.96,345.29-398.98,345.29-398.98"/>
          <g>
            <path class="cls-15" d="M1021.8,336.1h138.55c56.64,0,102.63,45.99,102.63,102.63v149.12c0,47.34-38.43,85.77-85.77,85.77h-258.05v-234.89c0-56.64,45.99-102.63,102.63-102.63Z"/>
            <g>
              <circle class="cls-19" cx="1194.11" cy="486.28" r="25.83"/>
              <circle class="cls-19" cx="917.98" cy="486.28" r="25.83"/>
            </g>
            <rect class="cls-19" x="918.87" y="312.94" width="274.34" height="431.11" rx="137.17" ry="137.17"/>
            <circle class="cls-14" cx="1007.12" cy="505.07" r="11.31"/>
            <circle class="cls-14" cx="943.78" cy="505.07" r="11.31"/>
            <path class="cls-15" d="M974.06,576.6h130.9c58.76,0,106.46,47.7,106.46,106.46v14.41c0,50.44-40.95,91.4-91.4,91.4h-161.02c-50.44,0-91.4-40.95-91.4-91.4v-14.41c0-58.76,47.7-106.46,106.46-106.46Z"/>
            <path class="cls-10" d="M937.27,663c39.4,22.27,89.39,8.39,111.66-31.01"/>
            <circle class="cls-19" cx="981.61" cy="584.61" r="40.08"/>
            <circle class="cls-5" cx="1039.51" cy="489.31" r="56.12"/>
            <circle class="cls-5" cx="925.5" cy="489.31" r="56.12"/>
            <path class="cls-15" d="M1156.21,354.13s-18.43-10.53-52.65-13.16c-23.64-1.82-80.02,1.29-80.02,1.29-38.78,0-70.22-31.44-70.22-70.22h0s144.97-10.05,144.97-10.05c38.78,0,78.98,34.23,58.37,80.27l-.45,11.88Z"/>
          </g>
          <g>
            <rect class="cls-19" x="723.08" y="1038.71" width="149.58" height="46.03" rx="23.01" ry="23.01" transform="translate(818.51 -266.22) rotate(37.81)"/>
            <g>
              <g>
                <path class="cls-22" d="M778.49,1070.52c4.82,10.55,7.23,15.82,8.89,19.45,1.15,2.52,4.4,9.56,4.4,9.56,1.16,2.53,1.27,5.07,.32,7.56-2.39,6.27-10.7,9.98-11.06,10.14-.44,.2-44.7,20.19-50.03,22.95-4.11,2.13-24.79,6.2-36.74,8.44-3.64,.68-7.19,1.81-10.55,3.35l-9.57,4.39c-2.81,1.29-5.34,3.04-7.53,5.22l-2.15,2.14c-3.52,3.49-7.57,6.35-12.03,8.5-16.11,7.74-43.76,20.87-47.98,21.83-5.45,1.23-32.31-7.79-37.13-9.43l-5.91,2.71-13.06-28.48,5.91-2.71c1.9-4.72,12.58-30.96,17.07-34.29,3.48-2.58,31.47-14.97,47.85-22.13,4.54-1.99,9.35-3.19,14.29-3.57l3.03-.24c3.08-.24,6.07-1.02,8.87-2.3l9.57-4.39c3.36-1.54,6.53-3.5,9.42-5.81,9.5-7.6,26.08-20.61,30.37-22.34,5.57-2.24,49.6-22.75,50.04-22.95,.34-.16,8.57-4.04,14.88-1.76,2.5,.91,4.36,2.64,5.51,5.16,0,0,2.54,5.56,3.87,8.45,4.72,10.29,9.46,20.57,9.46,20.57Z"/>
                <path class="cls-21" d="M549.89,1159.4l5.27-2.42s12.33-30.87,16.86-34.22c3.49-2.58,33.88-15.99,47.62-22,4.42-1.93,9.12-3.11,13.92-3.48l3.03-.24c3.21-.25,6.34-1.06,9.26-2.41l9.57-4.39c3.45-1.58,6.69-3.58,9.66-5.96,8.3-6.64,25.8-20.45,30.08-22.17,5.66-2.28,50.1-22.98,50.1-22.98,0,0,14.39-6.89,18.85,2.83,0,0,0,0,0,.01,1.21,2.65,2.53,5.53,3.85,8.41,4.72,10.3,9.47,20.59,9.47,20.59,4.81,10.54,7.22,15.82,8.89,19.44,1.66,3.63,2.58,5.61,4.4,9.57,0,0,0,0,0,.01,4.46,9.72-10.15,16.14-10.15,16.14,0,0-44.68,20.17-50.1,22.98-4.09,2.12-25.98,6.37-36.42,8.33-3.74,.7-7.36,1.85-10.82,3.44l-9.57,4.39c-2.92,1.34-5.59,3.19-7.87,5.45l-2.15,2.14c-3.42,3.4-7.38,6.19-11.72,8.28-13.52,6.5-43.5,20.78-47.74,21.74-5.49,1.24-36.93-9.55-36.93-9.55l-5.27,2.42-6.05-13.18-6.05-13.18m-3.08-1.14l.97,2.11,6.05,13.18,6.05,13.18,.97,2.11,2.11-.97,4.43-2.03c6.93,2.36,31.75,10.58,37.32,9.32,4.11-.93,28.5-12.43,48.23-21.91,4.58-2.2,8.74-5.14,12.35-8.72l2.15-2.14c2.1-2.08,4.52-3.76,7.2-4.99l9.57-4.39c3.27-1.5,6.73-2.6,10.28-3.26,14.68-2.75,33.03-6.46,37.06-8.55,5.3-2.74,49.54-22.72,49.99-22.92,.35-.15,9.09-4.05,11.65-10.78,1.06-2.79,.94-5.63-.35-8.44l-1.48-3.22c-.98-2.13-1.77-3.85-2.92-6.36-1.66-3.62-4.07-8.9-8.88-19.44,0,0-4.75-10.3-9.47-20.59-1.32-2.88-2.64-5.75-3.85-8.4-1.3-2.83-3.38-4.77-6.18-5.79-6.76-2.45-15.42,1.64-15.79,1.81-.42,.2-44.42,20.69-49.96,22.92-4.21,1.69-19,13.18-30.66,22.51-2.82,2.25-5.9,4.16-9.18,5.66l-9.57,4.39c-2.68,1.23-5.53,1.97-8.48,2.2l-3.03,.24c-5.07,.4-10.01,1.63-14.67,3.67-20.06,8.77-44.68,19.74-48.07,22.26-4.59,3.4-14.55,27.57-17.28,34.36l-4.43,2.03-2.11,.97h0Z"/>
              </g>
              <g>
                <path class="cls-20" d="M790.15,1098.75c-3.07-6.71-3.52-7.71-3.52-7.71,0,0-1.49-3.24-3.64-7.91,2.57,5.62,4.14,9.06,7.16,15.62Z"/>
                <path class="cls-20" d="M771.38,1057.82s0-.02-.01-.02c.2,.43,.4,.86,.59,1.28-.19-.42-.39-.85-.58-1.26Z"/>
                <path class="cls-21" d="M745.26,1039.15s-44.44,20.7-50.1,22.98c-4.28,1.72-21.78,15.53-30.08,22.17-2.97,2.37-6.21,4.37-9.66,5.96l-9.57,4.39c-2.92,1.34-6.06,2.15-9.26,2.41l-3.03,.24c-4.8,.38-9.5,1.55-13.92,3.48-13.74,6.01-44.13,19.41-47.62,22-4.53,3.35-16.86,34.22-16.86,34.22l-5.27,2.42,2.18,4.75s20.75-26.43,25.27-29.78c3.49-2.58,33.88-15.99,47.62-22,4.42-1.93,9.12-3.11,13.92-3.48l3.03-.24c3.21-.25,6.34-1.06,9.26-2.41l9.57-4.39c3.45-1.58,6.69-3.58,9.66-5.96,8.3-6.64,25.8-20.45,30.08-22.17,5.66-2.28,50.1-22.98,50.1-22.98,0,0,14.38-6.88,18.84,2.82-2.33-5.07-3.03-6.6-5.31-11.58-4.45-9.75-18.86-2.85-18.86-2.85Z"/>
                <path class="cls-20" d="M790.73,1100.01c-.19-.41-.39-.84-.58-1.26,.19,.42,.39,.85,.59,1.29,0,0,0-.02,0-.03Z"/>
                <path class="cls-20" d="M782.99,1083.13c-2.13-4.67-5.55-12.13-5.55-12.13,0,0-2.4-5.21-5.48-11.92,3,6.56,8.45,18.44,11.04,24.05Z"/>
              </g>
              <g>
                <path class="cls-20" d="M785.4,1088.41c-.19-.41-.39-.84-.58-1.26,.19,.42,.39,.85,.59,1.29,0,0,0-.02,0-.03Z"/>
                <path class="cls-20" d="M773.8,1063.09c-2.13-4.67-3.62-7.92-3.62-7.92,0,0-2.4-5.21-5.48-11.92,3,6.56,6.52,14.22,9.1,19.83Z"/>
                <path class="cls-20" d="M764.12,1042s0-.02-.01-.02c.2,.43,.4,.86,.59,1.28-.19-.42-.39-.85-.58-1.26Z"/>
                <path class="cls-16" d="M775.26,1104.56s-44.68,20.17-50.1,22.98c-4.09,2.12-25.98,6.37-36.42,8.33-3.74,.7-7.36,1.85-10.82,3.44l-9.57,4.39c-2.92,1.34-5.59,3.19-7.87,5.45l-2.15,2.14c-3.42,3.4-7.38,6.19-11.72,8.28-13.52,6.5-43.5,20.78-47.74,21.74-5.49,1.24-41-4.49-41-4.49l4.11,8.96,5.27-2.42s31.44,10.79,36.93,9.55c4.24-.96,34.22-15.24,47.74-21.74,4.34-2.09,8.3-4.88,11.72-8.28l2.15-2.14c2.28-2.27,4.94-4.11,7.87-5.45l9.57-4.39c3.45-1.58,7.08-2.74,10.82-3.44,10.45-1.96,32.33-6.21,36.42-8.33,5.42-2.8,50.1-22.98,50.1-22.98,0,0,14.63-6.42,10.15-16.15-2.29-4.97-2.99-6.5-5.31-11.58,4.44,9.72-10.16,16.12-10.16,16.12Z"/>
              </g>
              <path class="cls-26" d="M543.43,1159.43l-8.63,3.96c-4.76,2.19-6.85,7.82-4.67,12.58l6.41,13.97c2.19,4.76,7.82,6.86,12.58,4.67l8.63-3.96,1.44,3.14,3-1.38-17.2-37.51-3,1.38,1.44,3.14Z"/>
              <line class="cls-3" x1="617.58" y1="1187.31" x2="585" y2="1116.27"/>
              <line class="cls-3" x1="631.55" y1="1180.9" x2="598.97" y2="1109.86"/>
              <line class="cls-3" x1="645.53" y1="1174.48" x2="612.95" y2="1103.45"/>
            </g>
            <rect class="cls-19" x="712.93" y="1066.62" width="169.5" height="130.28" rx="60.39" ry="60.39" transform="translate(-135.3 108.66) rotate(-7.19)"/>
          </g>
          <rect class="cls-19" x="529.12" y="838.62" width="133.42" height="130.28" rx="54.04" ry="54.04" transform="translate(-476.07 1054.91) rotate(-64.63)"/>
        </g>
      </g>
    </g>
  </g>
</svg>