<?xml version="1.0" encoding="UTF-8"?>
<svg id="Vrstva_1" data-name="Vrstva 1" xmlns="http://www.w3.org/2000/svg" viewBox="0 0 350.56 426.5">
  <defs>
    <style>
      .cls-1 {
        fill: #f8cc94;
      }

      .cls-2 {
        fill: #006985;
      }

      .cls-3 {
        fill: #007b94;
      }

      .cls-4 {
        fill: #ffdda4;
      }

      .cls-5 {
        fill: #ff2718;
      }

      .cls-6 {
        fill: #e6e4b2;
      }

      .cls-7 {
        fill: #e9ba84;
      }

      .cls-8 {
        fill: #ffc700;
      }

      .cls-9 {
        fill: #ffac21;
      }

      .cls-10 {
        fill: #ff9816;
      }

      .cls-11 {
        fill: #95d847;
      }

      .cls-12 {
        fill: #8c5433;
      }

      .cls-13 {
        fill: #ae7652;
      }

      .cls-14 {
        fill: #a86843;
      }

      .cls-15 {
        fill: #d0ca99;
      }

      .cls-16 {
        fill: #deb46f;
      }

      .cls-17 {
        fill: #d3a15c;
      }

      .cls-18 {
        fill: #db2718;
      }

      .cls-19 {
        fill: #d4946a;
      }

      .cls-20 {
        fill: #606060;
      }

      .cls-21 {
        fill: #77c826;
      }

      .cls-22 {
        fill: #5cddd5;
      }

      .cls-23 {
        fill: #4dccc7;
      }

      .cls-24 {
        fill: #4f4c4c;
      }
    </style>
  </defs>
  <g>
    <path class="cls-20" d="M189.62,41.08c-88.88,0-160.94,14.49-160.94,32.36v21.57c0,5.92,7.9,11.46,21.69,16.23,7.2,89.34,22.38,271.52,23.41,273.21-3.71,1.56-6.92,4.49-8.82,8.43-.05,.1-.09,.19-.14,.29-4.13,8.53,1.34,15.53,9.1,20.94,20.24,14.11,193.38,18.75,233.74,0,8.58-3.99,13.23-12.41,9.1-20.94-.05-.1-.09-.19-.14-.29-2.22-4.61-6.24-7.85-10.75-9.12,.79-1.47,15.8-183.18,23-272.52,13.79-4.77,21.69-10.32,21.69-16.23v-21.57c0-17.87-72.05-32.36-160.94-32.36Z"/>
    <ellipse class="cls-24" cx="189.62" cy="72.47" rx="137.61" ry="23.75"/>
    <path class="cls-24" d="M57.84,113s47.82,15.58,138.78,15.58c81.64,0,122.45-10.79,122.45-10.79,0,0-72.31,50.34-159.77,59.93-87.47,9.59-92.13-8.39-101.46-64.72Z"/>
    <path class="cls-24" d="M96.21,389.68h0c-6.45,.36-11.96-4.55-12.31-10.97l-12.44-232.94c-.34-6.38,4.57-11.84,10.99-12.2h0c6.45-.36,11.96,4.55,12.31,10.97l12.44,232.94c.34,6.38-4.57,11.84-10.99,12.2Z"/>
    <path class="cls-24" d="M131.48,394.61h0c-6.45,.19-11.83-4.86-12.01-11.27l-6.62-233.2c-.18-6.4,4.88-11.73,11.31-11.92h0c6.45-.19,11.83,4.86,12.01,11.27l6.62,233.2c.18,6.4-4.88,11.73-11.31,11.92Z"/>
    <rect class="cls-24" x="155.96" y="139.37" width="23.32" height="256.5" rx="3.57" ry="3.57"/>
    <rect class="cls-24" x="195.45" y="138.17" width="23.32" height="256.5" rx="3.57" ry="3.57"/>
    <path class="cls-24" d="M245.73,392.22h0c-6.43-.18-11.5-5.5-11.33-11.9l6.1-233.21c.17-6.41,5.54-11.47,11.98-11.29h0c6.43,.18,11.5,5.5,11.33,11.9l-6.1,233.21c-.17,6.41-5.54,11.47-11.98,11.3Z"/>
    <path class="cls-24" d="M283.1,388.49h0c-5.77-.38-10.15-5.33-9.8-11.07l15.07-243.24c.36-5.78,5.37-10.16,11.17-9.78h0c5.77,.38,10.15,5.33,9.8,11.07l-15.07,243.24c-.36,5.78-5.37,10.16-11.17,9.78Z"/>
  </g>
  <path class="cls-19" d="M74.07,22.66c.69-5.84,6.17-12.28,13.8-12.28s10.17,1.81,10.17,1.81c0,0,4.36-3.61,9.44-1.81,5.08,1.81,5.45,5.06,5.45,5.06l22.87,28.89s3.99-5.78,12.71-5.78,12.71,1.44,12.71,1.44c0,0,.98-7.11,7.62-9.75,5.45-2.17,10.53,0,10.53,0l50.83-1.44s1.45-2.53,5.81-4.33c4.36-1.81,8.71,0,8.71,0,0,0,3.99-8.67,14.52-7.95,10.53,.72,13.07,8.67,13.07,8.67l32.31,18.06s2.9-5.06,10.89-2.17,9.08,10.11,5.45,15.53c-3.63,5.42-166.29,29.26-205.51,24.56-39.21-4.7-42.12-52.37-41.39-58.51Z"/>
  <path class="cls-13" d="M327.14,63.29s1.09-10.84-10.89-13.54c-11.98-2.71-20.7,8.13-20.7,8.13l-40.3-17.88s-8.71-13.54-26.51-11.56c-17.79,1.99-27.96,12.1-27.96,12.1,0,0-15.79-8.13-25.05-3.25-9.26,4.88-4.36,13-4.36,13,0,0-7.99-1.26-14.16,4.15-1.75,1.54-3.16,3.85-4.26,6.29-6.5-6.7-17.53-2.32-17.53-2.32l7.08-18.96s.54-12.46-4.36-16.79c-4.9-4.33-11.98-1.08-11.98-1.08,0,0-8.71-13.54-26.69-7.04-17.97,6.5-23.42,30.88-23.42,30.88,0,0-22.87,.54-26.14,13-3.27,12.46,7.62,16.25,13.25,21.31,0,0,77.16,20.41,125.08,18.24,47.93-2.17,120.36-17.34,120.36-17.34,0,0,26.14-6.5,25.6-13-.54-6.5-7.08-4.33-7.08-4.33Z"/>
  <path class="cls-19" d="M155.76,60.22s1.09-3.97,5.45-6.5c4.36-2.53,7.62-1.81,7.62-1.81,0,0-9.8,2.53-13.07,8.31Z"/>
  <path class="cls-19" d="M95.86,19.41s3.99-5.06,13.43-5.06,14.16,7.58,14.16,7.58c0,0-11.98-10.84-27.59-2.53Z"/>
  <path class="cls-19" d="M235.64,30.6s9.8-1.08,16.34,8.67c6.54,9.75,4.36,14.45,4.36,14.45,0,0-3.27-18.06-20.7-23.12Z"/>
  <path class="cls-19" d="M307.9,51.91s5.08-3.61,11.26,1.81c6.17,5.42,5.45,11.56,5.45,11.56,0,0,5.81-1.81,6.54,1.44,.73,3.25-3.9,5.75-3.9,5.75,0,0,2.81-3.22,.99-4.66-1.82-1.44-5.45,.36-5.45,.36,0,0-.36-16.61-14.89-16.25Z"/>
  <g>
    <g>
      <path class="cls-23" d="M244,53.72c-2.98-12.84,16.7-33.23,41.39-29.62,24.69,3.61,31.95,38.28,24.69,44.06-4.32,3.44-63.9-5.06-66.08-14.45Z"/>
      <path class="cls-23" d="M249.08,53.72s10.89,10.84-3.63,10.84c-8.28,0-11.62,19.5-7.99,23.12,3.63,3.61,41.39,5.06,61,0,19.61-5.06,10.17-12.28,5.81-13.72-4.36-1.44,.73-7.95,3.63-10.84,2.9-2.89-58.82-9.39-58.82-9.39Z"/>
      <polygon class="cls-23" points="295.49 39 274.12 34.82 278.19 14.26 299.56 18.45 295.49 39"/>
      <path class="cls-2" d="M299.69,22.17l-22.22-3.61c-1.19-.19-1.99-1.31-1.8-2.49l2.34-14.26c.19-1.18,1.31-1.98,2.5-1.79l22.22,3.61c1.19,.19,1.99,1.31,1.8,2.49l-2.34,14.26c-.19,1.18-1.31,1.98-2.5,1.79Z"/>
      <path class="cls-3" d="M277.58,14.53s1.36-8.4,2.45-11.92c.54-1.76,22.15,1.81,22.51,3.61,.36,1.81-1.82,11.2-1.82,11.2,0,0,.73-7.95-.73-8.67-1.45-.72-2.9,3.61-10.17,2.89s-11.1-1.9-12.25,2.89Z"/>
      <path class="cls-22" d="M292.65,29.52s-9.8-.36-14.52-3.25c-4.72-2.89-18.88,1.81-25.42,10.47-6.54,8.67-7.62,16.25-1.45,19.14,6.17,2.89,16.34-.36,21.42,3.25,5.08,3.61,16.7,6.5,23.6,7.58,6.9,1.08,10.53,0,10.53,0,0,0-12.34-1.44-18.88-3.61-6.54-2.17-7.62-7.22-11.26-10.11-3.63-2.89-7.26,1.08-9.8-2.17-2.54-3.25-1.45-6.5-9.8-3.97-8.35,2.53,5.81-10.47,10.89-13.72,5.08-3.25,5.45-.36,9.08,0,3.63,.36,7.99-3.61,15.61-3.61Z"/>
      <path class="cls-22" d="M253.44,54.44s3.27,2.17,2.9,6.86c-.36,4.7-3.27,4.7-8.35,5.42-5.08,.72-6.54,5.42-6.9,7.22-.36,1.81-.36,6.14-.36,6.14,0,0,12.34-1.44,23.6,2.53,11.26,3.97,17.07,3.61,17.79,3.25,.73-.36-7.26-3.61-10.89-5.42-3.63-1.81,4.36,1.08,15.25,1.81,10.89,.72,15.61-2.53,15.61-2.53,0,0-6.54,1.44-18.88-.72-12.35-2.17-23.24-7.95-28.68-8.67-5.45-.72,1.45-1.08,3.27-4.33,1.82-3.25,1.45-11.2-4.36-11.56Z"/>
    </g>
    <g>
      <polygon class="cls-7" points="22.51 32.77 2.9 37.11 0 74.67 13.8 60.94 26.14 62.39 63.9 48.66 58.09 13.99 22.51 32.77"/>
      <path class="cls-1" d="M115.46,89.12l-13.8-53.45h-15.25s14.84-8.46,12.34-10.11c-2.18-1.44-12.34-5.06-12.34-5.06l-28.32-9.39L2.9,37.11l28.32,13.72-.73,4.33,21.06-2.89-6.54,6.5,13.07,7.95,5.08,13,52.28,9.39Z"/>
      <polygon class="cls-4" points="58.09 13.99 12.34 36.38 33.4 46.5 34.86 51.55 54.46 49.39 39.94 47.94 39.94 42.16 25.42 36.38 58.09 19.05 85.69 28.44 68.99 43.61 65.28 56.91 53.74 58.05 68.99 59.5 71.89 47.94 91.5 43.61 98.03 63.11 91.5 67.45 107.47 74.67 98.76 40 81.33 37.11 93.68 26.99 58.09 13.99"/>
    </g>
    <g>
      <polygon class="cls-17" points="153.95 96.34 167.02 54.44 180.09 50.11 174.28 40 177.91 21.21 228.02 19.05 233.83 28.44 227.29 63.11 219.31 68.89 224.39 78.28 225.16 87.94 172.83 99.95 153.95 96.34"/>
      <path class="cls-17" d="M183.72,22.66l.65-9.08c.04-.58,.52-1.04,1.11-1.05l40.01-.69c.6-.01,1.11,.45,1.15,1.05l.65,9.05-43.57,.72Z"/>
      <polygon class="cls-16" points="180.82 25.55 196.07 32.77 228.75 28.44 225.84 55.89 223.66 36.38 198.25 38.55 196.07 54.44 182.27 60.94 193.16 73.22 183 86.95 186.63 73.95 169.93 58.05 184.45 52.28 178.64 39.27 180.82 25.55"/>
      <polygon class="cls-16" points="221.48 61.67 212.04 68.89 217.85 76.84 198.97 65.28 221.48 61.67"/>
      <path class="cls-16" d="M187.17,20.49v-2.44c0-1.65,1.34-2.98,3-2.98h32.41l-35.4,5.42Z"/>
    </g>
    <g>
      <path class="cls-15" d="M163.21,75.75c-.23-2.18-3.04-3.59-6.91-4.34-.69-.13-1.2-.73-1.22-1.43l-.16-4.54c-.1-2.7-1.37-4.86-5.09-4.71l-7.04,.12c-3.68,.41-4.57,2.49-4.47,5.19l.16,4.48c.03,.71-.45,1.34-1.14,1.52-3.37,.86-5.82,2.12-6.26,3.72-1.29,4.7,0,16.25,0,16.25,8.17,9.21,34.31,5.42,34.31,5.42,0,0-1.09-11.38-2.18-21.67Z"/>
      <path class="cls-6" d="M156.94,72.77s4.36,.54,4.9,3.79c.54,3.25,1.36,15.71,1.36,15.71,0,0-1.76-10.45-2.45-11.65-2.18-3.79-8.71-2.44-10.89-1.35-7.07,3.52-4.36,8.13-5.17,9.75s-12.25-1.08-12.53-4.33c-.27-3.25-.27-7.58,.54-8.94,.82-1.35,5.99-2.71,5.99-2.71,0,0-2.45,2.17,3.81,3.52,6.26,1.35,18.52,.27,14.43-3.79Z"/>
      <path class="cls-6" d="M139.11,65.59v5.69c0,1.49,4.36,2.98,9.53,2.98s6.94-1.76,6.13-2.3c-.82-.54-.82-6.23-.82-6.23,0,0-5.99,2.57-14.84-.14Z"/>
      <path class="cls-6" d="M140.47,73.59s3.54,1.9,8.99,1.49c5.45-.41,5.99-1.76,5.99-1.76,0,0,.82,2.44-5.72,2.98-6.54,.54-9.26-2.71-9.26-2.71Z"/>
      <path class="cls-6" d="M152.32,64.65s-3.81,.95-8.85,.14c-5.04-.81-4.08-2.44-.54-3.12,3.54-.68,7.76-.14,7.76-.14,0,0-3.68,.14-3.95,1.22-.27,1.08,3.13,1.76,5.58,1.9Z"/>
    </g>
    <g>
      <path class="cls-18" d="M62.01,74.79s-26.14,13,11.44,27.63c15.29,5.95,27.77,24.38,27.77,53.63s11.44,21.13,14.7,47.13c3.27,26,11.44,37.38,13.07-8.13,1.63-45.51,13.07-52.01,16.34-35.75,3.27,16.25,24.51-8.13,26.14-30.88,1.63-22.75,22.87-26,57.18-26s52.28-11.38,52.28-11.38c0,0-31.04-14.63-57.18-6.5-26.14,8.13-57.18,13-81.69,6.5-24.51-6.5-58.82-29.25-80.06-16.25Z"/>
      <path class="cls-5" d="M266.51,89.84c-3.63-2.89-23.96-6.5-37.76-2.89-13.8,3.61-47.93,11.56-74.07,13-26.14,1.44-36.31-2.89-36.31-2.89,0,0,18.15,1.44,22.51-.72s-43.57-20.23-56.64-20.23-21.79,7.22-9.44,16.61c12.34,9.39,24.69,26,27.59,36.12,2.9,10.11,6.54-1.44,5.08-8.67-1.45-7.22-3.63-10.84-3.63-10.84,0,0,7.99,3.61,5.81,23.12-2.18,19.5-3.63,33.23-1.45,38.28,2.18,5.06,8.71,13,10.89,23.84,2.18,10.84,6.54-.72,6.54-14.45s3.63-32.51,10.89-35.4c7.26-2.89,10.17,1.44,10.17,1.44,0,0-4.36-6.5-10.89-5.78-6.54,.72-7.99,3.61-7.99,3.61,0,0,5.81-11.56,15.25-6.5,9.44,5.06,13.8,14.45,17.43,6.5,3.63-7.95,2.9-19.5,10.89-31.78,7.99-12.28,29.05-12.28,41.39-13,12.34-.72,61.34-3.34,53.74-9.39Z"/>
      <path class="cls-5" d="M118.37,205.78s1.09,11.92,3.63,15.53c2.54,3.61,3.63-10.47,3.63-10.47,0,0-.36,5.78-2.9,5.42-2.54-.36-4.36-10.47-4.36-10.47Z"/>
      <path class="cls-5" d="M145.96,154.13s0,8.67,3.99,8.67,6.9-5.42,6.9-5.42c0,0-6.9,6.14-10.89-3.25Z"/>
      <path class="cls-5" d="M99.85,132.46s2.18,5.78,2.54,15.89c.36,10.11-.73,17.34,1.09,22.03,1.82,4.7,3.63,7.22,3.63,7.22,0,0-3.27-6.5-2.9-15.89,.36-9.39-.36-26.37-4.36-29.26Z"/>
      <path class="cls-5" d="M61.73,76.84s-6.9,3.61-6.54,9.39c.36,5.78,9.08,9.75,9.08,9.75,0,0-9.8-6.86-2.54-19.14Z"/>
    </g>
    <g>
      <g>
        <path class="cls-12" d="M135.93,33.82s3.14-6.35,10.71-11.22c8.84-5.69,16.03,2.11,16.58,3.95l.56,1.84s-3.4-4.46-13.06-2.39c-9.66,2.07-13.14,9.29-13.14,9.29l-1.65-1.46Z"/>
        <path class="cls-14" d="M159.85,24.43s-2-2.95-7.19-3.21c-5.2-.26-12.46,8.22-10.73,7.16,1.73-1.05,10.71-6.11,17.92-3.96Z"/>
        <path class="cls-15" d="M126.02,98.18c-10.22,4.31-44.09-18.08-44.65-29.11,8.77,3.76,23.51-2.25,28.23-9.68,4.72-7.43,3.92-25.69-.58-31.48,10.02-4.23,42.76,18.74,43.3,29.55-9.66,.37-23.37,3.62-28.03,11.08-4.67,7.46-10.76,15.46,1.73,29.64Z"/>
        <path class="cls-21" d="M108.4,27.52s9.78-3.28,20.01-1.16c7.08,1.47,5.96,7.55,10.61,8.32,4.98,.82,8.15,2.16,11.15,9.51,3.03,7.43,2.6,13.56,2.6,13.56,0,0-6.19-1.73-9.35-2.84-3.15-1.11-2.46-4.94-6.42-6.13-3.96-1.19-8.27-.47-14.12-4.11s-14.49-17.13-14.49-17.13Z"/>
        <path class="cls-21" d="M80.37,65.89s.18,9.92,4.52,17.31c4.34,7.39,17.18,16.25,25.69,17.72,8.5,1.47,17.75-3,17.75-3,0,0-5.73-6.55-8.07-7.59-2.35-1.04-3.5,.8-6.08-1.23-2.58-2.03-3.73-3.6-6.07-4.64-2.35-1.04-7.58-.89-10.39-3.92-2.81-3.03-2.76-5.13-5.53-6.86-2.77-1.73-4.58-1.58-6.73-2.92-2.15-1.34-5.07-4.87-5.07-4.87Z"/>
        <path class="cls-6" d="M114.47,38.98s.29,10.41-1.33,17.07c-1.62,6.66,4.23,3.49,7.58,.89,3.35-2.6,3.93-.11,2.61,3.33-1.31,3.44,5.66,.54,9.74-1.17s6.43-4.09,5.7-4.97c-.73-.88-.3-3.6-2.42-3.64-2.12-.04-7.16,3.21-11.86,1.13-2.12-.94-3.31-4.82-5.15-7.47-2.22-3.21-4.88-5.17-4.88-5.17Z"/>
        <path class="cls-6" d="M109.82,63.36s-4.39,4.93-11.29,7.03c-6.89,2.1-.39,.61,.03,4.71,.42,4.1,2.42,7.05,6.08,4.64,3.66-2.41,8.71-5.66,7.89-2.33-.81,3.33-.32,6.62,1.76,8.77,2.08,2.15,1.77-1.45,2.39-4.48,.62-3.02,2.36-9.19,4.87-13.16,2.51-3.98,.66-5.13-4.58-1.58-5.24,3.55-6.08,2.17-4.27-1.38,1.81-3.56-1.61-3.56-2.88-2.22Z"/>
        <path class="cls-11" d="M134.85,34.85c-3.09-1.57-1.03-6.18-7.46-7.21-6.43-1.02-14.16-.31-15.38,1.28-1.21,1.59,4.78,8.73,6.16,9.6,1.38,.86,3.44,.66,4.25,2.44,.81,1.78,.26,4,6.84,5.12,6.58,1.12,9.31-9.33,5.58-11.23Z"/>
        <path class="cls-11" d="M138.59,36.75c2.1-2.63,6.46,.62,9.1,4.61,2.63,3.98,4.6,13.1,3.47,13.88-1.14,.78-6.16-.43-7.27-2.4-1.11-1.97-2.55-8.2-3.61-8.22-1.06-.02-1.14,2.49-3.1,2.54-1.96,.06,.4-9.13,1.42-10.41Z"/>
        <path class="cls-11" d="M83.25,71.52c-1.01-1.05,1.39,10.03,3.7,13.17,2.31,3.14,2.73,.42,4.71,1.02,1.98,.6,.38,4.5,3.84,5.8,3.46,1.31,9.61-4.03,9.92-5.54,.31-1.51-3.89-.29-7.85-3.19-3.96-2.9-3.97-6.95-6.32-7.99-2.35-1.04-6.44-1.67-8-3.28Z"/>
        <path class="cls-11" d="M108.87,86.63c-2.07,.03-9.55,5.98-9.15,7.72,.4,1.74,6.31,.52,7.56,1.94,1.25,1.42-.89,2.43,4.83,3.22,5.71,.79,12.16-.94,13.09-2.07,.93-1.13-4.02-4.85-5.59-5.41-1.58-.56-6.24,2.08-7.1,.05-.86-2.03,.05-5.51-3.63-5.46Z"/>
      </g>
      <path class="cls-12" d="M115.28,69.25s-.01-14.33,5.44-12.31c5.45,2.02-.54,9.06-5.44,12.31Z"/>
      <path class="cls-14" d="M116.73,65.28s0-5.6,2.18-7.22c2.18-1.63,2.18,1.81-2.18,7.22Z"/>
    </g>
    <g>
      <path class="cls-10" d="M181.91,93.45s12.2-13.94,31.23-11.2c22.51,3.25,31.95,27.45,22.15,56.71-5.97,17.82-33.04,22.75-33.77,12.64-.73-10.11,36.67-13.36,43.21,3.25,6.54,16.61-19.24,33.95-24.69,25.64-3.74-5.71,17.43-14.81,23.96-1.81,6.54,13-10.17,25.28-15.25,26.73-5.08,1.44-10.89-3.61-10.89-3.61,0,0,13.8-5.06,18.88-15.89,5.08-10.84-3.27-13-6.54-11.92-3.27,1.08-2.9,3.61,.73,2.17,3.63-1.44,11.26-10.11,6.54-19.5-4.72-9.39-20.33-11.92-23.96-9.39-3.63,2.53,.36,4.7,6.17,1.08,5.81-3.61,18.15-24.92,7.62-45.87-9.8-19.5-33.77-10.11-33.77-10.11l-11.62,1.08Z"/>
      <path class="cls-9" d="M188.26,89.57s11.71-10.02,27.5-5.42c15.79,4.61,22.6,16.79,22.06,34.13-.54,17.34-8.17,26-6.81,20.32,1.36-5.69,5.17-27.63-3-40.9-8.17-13.27-29.41-13.27-39.76-8.13Z"/>
      <path class="cls-9" d="M213.86,144.83s-9.53,1.08-11.17,5.42c-1.63,4.33,5.72,6.77,12.8,4.33,7.08-2.44,8.44-4.6,8.44-4.6,0,0-10.35,3.79-14.71,1.63-4.36-2.17,4.63-6.77,4.63-6.77Z"/>
      <path class="cls-9" d="M232.92,146.45s11.17,2.98,11.17,12.46-5.17,13.82-5.99,14.36c-.82,.54,4.9-6.23,3-14.09-1.91-7.86-8.17-12.73-8.17-12.73Z"/>
      <path class="cls-9" d="M226.39,174.62s-4.36,1.9-5.17,4.06c-.82,2.17,4.08,3.52,7.9,1.9l3.81-1.63s-9.53,1.63-6.54-4.33Z"/>
      <path class="cls-9" d="M240.82,176.79s5.99,5.69,1.36,14.9c-4.63,9.21-12.25,12.73-15.79,11.92s-4.63-1.35-4.63-1.35c0,0,21.24-8.67,19.06-25.46Z"/>
      <path class="cls-8" d="M198.88,84.01s14.7-4.61,26.28,3.93c11.57,8.53,12.25,21.13,12.25,21.13,0,0-7.9-16.12-17.7-21.54-9.8-5.42-20.83-3.52-20.83-3.52Z"/>
      <path class="cls-8" d="M232.92,146.45s7.49,1.9,10.35,7.86c2.86,5.96-.41,12.6-.41,12.6,0,0,1.36-7.99-2.18-13.54-3.54-5.55-7.76-6.91-7.76-6.91Z"/>
      <path class="cls-8" d="M240.82,176.79s5.99,3.79,2.45,13c-3.54,9.21-10.21,12.19-10.21,12.19,0,0,8.17-6.91,9.12-14.9,.95-7.99-1.36-10.29-1.36-10.29Z"/>
    </g>
  </g>
  <path class="cls-19" d="M151.77,29.97c-1.61,1.12-1.91,4.33-1.09,5.42,.82,1.08,5.45,2.71,6.81,1.08,1.36-1.63-3-8.4-5.72-6.5Z"/>
  <path class="cls-19" d="M157.22,28.89c-.73,.97,0,3.52,1.36,3.79,1.36,.27,3.54-.54,2.72-2.44-.82-1.9-3.27-2.44-4.08-1.35Z"/>
  <path class="cls-19" d="M174.1,14.26c-1.36,0-2.72,2.98-2.45,4.06,.27,1.08,3.27,2.98,4.36,2.17s-.27-6.23-1.91-6.23Z"/>
  <path class="cls-19" d="M178.19,15.35c-.87,1.08-.82,2.98,.27,2.98s3.81-2.17,3.81-2.17c0,0-3-2.17-4.08-.81Z"/>
  <path class="cls-19" d="M234.56,15.07c-1.66,.47-1.36,4.61-.54,5.69,.82,1.08,4.36,1.63,5.17-.81,.82-2.44-2.72-5.42-4.63-4.88Z"/>
  <path class="cls-19" d="M243,15.89c-1.6-.32-2.72,3.52-1.36,4.33s3.54-.27,4.36-2.17c.82-1.9-1.63-1.9-3-2.17Z"/>
</svg>