<?xml version="1.0" encoding="UTF-8"?>
<svg id="Vrstva_1" data-name="Vrstva 1" xmlns="http://www.w3.org/2000/svg" xmlns:xlink="http://www.w3.org/1999/xlink" viewBox="0 0 948.69 1469.98">
  <defs>
    <style>
      .cls-1, .cls-2, .cls-3, .cls-4, .cls-5, .cls-6, .cls-7, .cls-8 {
        fill: none;
      }

      .cls-2 {
        stroke: #447dc7;
        stroke-width: 123.26px;
      }

      .cls-2, .cls-3, .cls-4, .cls-5, .cls-6, .cls-7, .cls-8 {
        stroke-miterlimit: 10;
      }

      .cls-2, .cls-5, .cls-6, .cls-7 {
        stroke-linecap: round;
      }

      .cls-9 {
        clip-path: url(#clippath);
      }

      .cls-10 {
        fill: #00548f;
      }

      .cls-11 {
        fill: #e6e6e6;
      }

      .cls-12, .cls-13, .cls-14 {
        fill: #fff;
      }

      .cls-15 {
        fill: #f0f4f6;
      }

      .cls-16 {
        fill: #fd821d;
      }

      .cls-17 {
        fill: #fcbc7f;
      }

      .cls-18 {
        fill: #ff5a19;
      }

      .cls-19 {
        fill: #30424f;
      }

      .cls-20 {
        fill: #bd361b;
      }

      .cls-21 {
        fill: #e04629;
      }

      .cls-22 {
        fill: #437dc1;
      }

      .cls-23 {
        fill: #9ac4fd;
      }

      .cls-24 {
        fill: #537f99;
      }

      .cls-25, .cls-26 {
        fill: #4e90ef;
      }

      .cls-3, .cls-4 {
        stroke-width: 3.21px;
      }

      .cls-3, .cls-8 {
        stroke: #00548f;
      }

      .cls-4 {
        stroke: #4e90ef;
      }

      .cls-5 {
        stroke-width: 4.77px;
      }

      .cls-5, .cls-6 {
        stroke: #e09f6e;
      }

      .cls-13, .cls-27 {
        fill-rule: evenodd;
      }

      .cls-13, .cls-14 {
        opacity: .46;
      }

      .cls-27 {
        fill: #ff161f;
        opacity: .5;
      }

      .cls-6 {
        stroke-width: 6.41px;
      }

      .cls-7 {
        stroke: #fd7ba6;
        stroke-width: 9.62px;
      }

      .cls-8 {
        stroke-width: 160.3px;
      }

      .cls-26 {
        opacity: .3;
      }
    </style>
    <clipPath id="clippath">
      <rect class="cls-1" x="271.01" y="474.95" width="530.49" height="549.05" rx="202.7" ry="202.7"/>
    </clipPath>
  </defs>
  <g>
    <g>
      <line class="cls-8" x1="630.24" y1="1024" x2="630.24" y2="1376.54"/>
      <g>
        <path class="cls-10" d="M565.66,1376.54h130.15v93.43h-91.3c-21.44,0-38.85-17.41-38.85-38.85v-54.58h0Z"/>
        <path class="cls-10" d="M695.8,1413.68h5.26c31.07,0,56.3,25.23,56.3,56.3h-61.56v-56.3h0Z"/>
      </g>
    </g>
    <g>
      <line class="cls-8" x1="437.18" y1="1024" x2="437.18" y2="1376.54"/>
      <g>
        <path class="cls-10" d="M410.47,1376.54h91.3v93.43h-130.15v-54.58c0-21.44,17.41-38.85,38.85-38.85Z" transform="translate(873.39 2846.52) rotate(-180)"/>
        <path class="cls-10" d="M310.06,1413.68h61.56c0,31.07-25.23,56.3-56.3,56.3h-5.26v-56.3h0Z" transform="translate(681.68 2883.65) rotate(-180)"/>
      </g>
    </g>
    <path class="cls-10" d="M340.84,961.46h380.19c0,94.65-76.84,171.5-171.5,171.5h-37.2c-94.65,0-171.5-76.84-171.5-171.5h0Z"/>
    <path class="cls-2" d="M123.93,779.45c314.6-44.04,253.73-189.35,253.73-189.35"/>
    <g>
      <rect class="cls-17" x="427.64" y="291.99" width="216.86" height="216.09"/>
      <rect class="cls-26" x="427.64" y="303.85" width="216.86" height="203.78"/>
    </g>
    <path class="cls-5" d="M558.8,546.43c-12.55-12.55-32.9-12.55-45.46,0"/>
    <path class="cls-23" d="M652.78,699.13h68.26v34.13c0,18.84-15.29,34.13-34.13,34.13h0c-18.84,0-34.13-15.29-34.13-34.13v-34.13h0Z"/>
    <rect class="cls-22" x="271.37" y="474.95" width="530.49" height="549.05" rx="202.7" ry="202.7"/>
    <g class="cls-9">
      <g>
        <g>
          <line class="cls-4" x1="577.5" y1="421.5" x2="206.38" y2="792.62"/>
          <line class="cls-4" x1="625.6" y1="468.97" x2="254.48" y2="840.09"/>
          <line class="cls-4" x1="673.71" y1="516.44" x2="302.59" y2="887.56"/>
          <line class="cls-4" x1="721.82" y1="563.92" x2="350.7" y2="935.04"/>
          <line class="cls-4" x1="769.92" y1="611.39" x2="398.8" y2="982.51"/>
          <line class="cls-4" x1="818.03" y1="658.86" x2="446.91" y2="1029.98"/>
          <line class="cls-4" x1="866.14" y1="706.34" x2="495.02" y2="1077.46"/>
        </g>
        <g>
          <line class="cls-4" x1="495.02" y1="421.5" x2="866.14" y2="792.62"/>
          <line class="cls-4" x1="446.91" y1="468.97" x2="818.03" y2="840.09"/>
          <line class="cls-4" x1="398.8" y1="516.44" x2="769.92" y2="887.56"/>
          <line class="cls-4" x1="350.7" y1="563.92" x2="721.82" y2="935.04"/>
          <line class="cls-4" x1="302.59" y1="611.39" x2="673.71" y2="982.51"/>
          <line class="cls-4" x1="254.48" y1="658.86" x2="625.6" y2="1029.98"/>
          <line class="cls-4" x1="206.38" y1="706.34" x2="577.5" y2="1077.46"/>
        </g>
      </g>
    </g>
    <g>
      <line class="cls-6" x1="556.71" y1="277.37" x2="598.97" y2="277.37"/>
      <line class="cls-6" x1="463.63" y1="277.37" x2="505.88" y2="277.37"/>
    </g>
    <polygon class="cls-25" points="375.66 610.74 469.35 887.96 554.4 609.04 375.66 610.74"/>
    <path class="cls-2" d="M349.56,989.08c355.05-157.96,345.29-398.98,345.29-398.98"/>
    <g>
      <path class="cls-11" d="M495.49,225.54h138.55c56.64,0,102.63,45.99,102.63,102.63v149.12c0,47.34-38.43,85.77-85.77,85.77H392.85v-234.89c0-56.64,45.99-102.63,102.63-102.63Z"/>
      <g>
        <circle class="cls-17" cx="667.79" cy="375.72" r="25.83"/>
        <circle class="cls-17" cx="391.67" cy="375.72" r="25.83"/>
      </g>
      <rect class="cls-17" x="392.56" y="202.39" width="274.34" height="431.11" rx="137.17" ry="137.17"/>
      <circle class="cls-10" cx="480.8" cy="394.51" r="11.31"/>
      <circle class="cls-10" cx="417.47" cy="394.51" r="11.31"/>
      <path class="cls-11" d="M447.75,466.04h130.9c58.76,0,106.46,47.7,106.46,106.46v14.41c0,50.44-40.95,91.4-91.4,91.4h-161.02c-50.44,0-91.4-40.95-91.4-91.4v-14.41c0-58.76,47.7-106.46,106.46-106.46Z"/>
      <path class="cls-7" d="M410.96,552.44c39.4,22.27,89.39,8.39,111.66-31.01"/>
      <circle class="cls-17" cx="455.3" cy="474.06" r="40.08"/>
      <circle class="cls-3" cx="513.2" cy="378.75" r="56.12"/>
      <circle class="cls-3" cx="399.18" cy="378.75" r="56.12"/>
      <path class="cls-11" d="M629.9,243.57s-18.43-10.53-52.65-13.16c-23.64-1.82-80.02,1.29-80.02,1.29-38.78,0-70.22-31.44-70.22-70.22h0s144.97-10.05,144.97-10.05c38.78,0,78.98,34.23,58.37,80.27l-.45,11.88Z"/>
    </g>
    <g>
      <rect class="cls-17" x="2.8" y="728.06" width="133.42" height="130.28" rx="54.04" ry="54.04" transform="translate(-676.98 516.16) rotate(-64.63)"/>
      <g>
        <path class="cls-27" d="M217.78,655.22l-1.9-2.7c-.16-.29-.65-1.04-.84-1.4l-3.16-7.51c-4.54-9.52-18.19-23.98-31.53-25.45-5.05,4.37-4.95,2.78-7.16,10.18,5.29,8.72,27.15,17.37,11.33,31.34-8.99,7.94-30.29,2.55-42.49-4.21-21.61-11.98-49.66-52.65-63.2-42.14-25.99,20.17,63.38,57.86,106.11,61.81,49.01,4.54,100.3,9.77,106.9,58.61,3.73,27.63-14.39,44.94-31.06,50.85-25.18,8.92-39.07-10.27-62.7-18.16-37.86-12.63-51.19,20.13-90.38-25.99-7.62-8.97-9.86-14.93-19.85-16.38-30.32-4.4,3.57,43.44,15.83,53.76,18.67,15.71,43.45,32.74,40.27,44.4-12.77-33.18-75.86-20.63-79.01-85.68,.19-11.3-6.78-9.5-2.16-21.88,7.64-20.45,30.88-9.5,46.98-3.68,14.2,5.13,10.71,7.94,18.44,16.1,12.23,7,37.64-15.31,50.59,2.59l2.85,4.63c21.31,1.33,50.14,14.66,52.44-9.89-18.47-10.36-77.16-6.43-112.86-21.81-37.2-16.02-67.57-36.56-77.37-65.33-14.53-42.68,25.38-71.58,62.38-50.37,35.3,20.24,15.74,55.36,71.33,66.18l-2.95-2.94c-9.46-6.57-24.42-7.2-30.36-18.2-5.94-11.01,2.97-26.44,11.58-33.2,29.58-23.22,42.73,22.54,65.68,9.36,5.1-12.35-2.79-20.11-13.72-24.58-17.36-7.1-45.44,1.93-64.66-6.99-17.31-8.03-10.82-12.99-11.01-27.01-11.65,23.02-.87,31.22,22.54,39.19-26.05,2.24-53.39-10.05-51.77-36.19l-4.49,5.5c-3.05,3.22,.06,1.5-4.88,4.28-26.58-13.53,2.31-49.06,9.39-35.44,2.78,5.34-1.53,16.76-3.2,23.31,3.03-4.56,10.21-18.2,12.19-23.9,3.03-8.74-1.17-14.78,6.59-25.57,11.86-16.48,29.44-11.19,45.68,2.36-4.86,6.37-8.01,8.12-10.69,16.81-18.92-5.33-11.47-3.09-25.54-1.75,12.29,.05,13.99,1.69,24.36,7.64,4.61-4.86,14.13-29.71,38.77-22.52,17.85,5.21,26.83,22.24,23.11,40.02l-25.7-.1c7.57,5.54,55.88,.66,77.99,61.66,12.53,34.57-3.09,66.64-25.16,64.2-18.26-2.02-23.26-5.3-23.55-13.85"/>
        <g>
          <path class="cls-20" d="M179.99,999.09c11.13-.3,22.25-.59,33.38-.89,.73-.02,1.5-.05,2.15-.38,.74-.38,1.23-1.1,1.83-1.67,3.54-3.38,10.61-1.74,12.94-6.04,1.82-3.36-1.28-7.59-4.93-8.71-3.65-1.12-7.57-.25-11.39-.11-4.17,.15-8.36-.58-12.23-2.15,3.22,.9,6.31,2.24,9.17,3.97,.04,1.13,.08,2.26,.12,3.39-18.28,1.24-36.56,2.48-54.85,3.72-1.28,.09-2.62,.19-3.7,.9-1.07,.7-1.73,2.21-1.07,3.31,.78,1.3,2.65,1.19,4.16,1.1,6.76-.37,13.18,3.05,19.93,3.53,1.49,.11,2.99,.07,4.48,.03Z"/>
          <path class="cls-15" d="M227.67,821.33c-.81,6.12-1.63,12.24-2.44,18.36-.54,4.1-1.21,8.48-3.91,11.53-1.04,1.17-2.38,2.16-2.88,3.67-.43,1.33-.11,2.78,.1,4.17,.84,5.54-.33,11.38-3.22,16.11-.45,.73-.97,1.47-1.73,1.81-3.3,1.48-7.49-5.13-9.66-2.16-.35,.48-.47,1.1-.56,1.7-.77,5.06-.28,10.32,1.39,15.14,1.29,3.72,3.31,7.31,3.36,11.26,.05,3.95-3.04,8.34-6.76,7.58-2.11-.43-3.68-2.33-5.73-2.99-4.38-1.4-8.53,3.66-8.69,8.42-.16,4.76,2.15,9.18,3.59,13.7,2.31,7.24,2.4,15.22,.26,22.52-.73,2.49-1.81,5.03-3.86,6.52-3.45,2.5-8.56,.94-11.24-2.42-2.69-3.37-3.42-7.98-3.47-12.36-.04-4.38,.5-8.78-.06-13.12-1.26-9.75-8-18.75-6.39-28.44,.52-3.13,1.64-7.04-.8-8.95-1.17-.92-2.75-.92-4.16-1.34-4.58-1.35-6.8-6.89-6.98-11.85-.19-4.96,.99-9.94,.28-14.85-.42-2.92-2.02-6.16-4.83-6.49-4.86-.56-6.22,7.1-10.3,9.9-3.65,2.5-8.91,.25-11.25-3.59-2.34-3.84-2.5-8.66-2.36-13.21,.23-7.79,1.07-15.85-1.52-23.17-.98-2.77-2.66-5.39-4.77-7.45h-36.99v93.83l-1.64,62.84c-.07,2.82,2.02,5.21,4.82,5.51,3.26,.35,7.63,.79,11.46,1.06,12.53,1.23,34.59,2.05,59.73,2.05,37.17,0,67.62-1.79,70.48-4.06,2.29-1.11,3.89-3.43,3.89-6.15v-155.09h-3.16Z"/>
          <g>
            <path class="cls-19" d="M75.16,840.46c-1.16,0-2.1,.94-2.1,2.1v1.88c0,1.16,.94,2.1,2.1,2.1h6.93v-6.08h-6.93Z"/>
            <path class="cls-19" d="M237.76,846.54c1.16,0,2.1-.94,2.1-2.1v-1.88c0-1.16-.94-2.1-2.1-2.1h-6.93v6.08s6.93,0,6.93,0Z"/>
          </g>
          <path class="cls-21" d="M123.85,828.78c2.59,7.31,1.75,15.38,1.52,23.17-.13,4.55,.02,9.37,2.36,13.21,2.34,3.84,7.6,6.1,11.25,3.59,4.08-2.8,5.44-10.47,10.3-9.9,2.82,.33,4.41,3.57,4.83,6.49,.7,4.9-.47,9.89-.28,14.85,.19,4.95,2.4,10.5,6.98,11.85,1.41,.42,2.99,.42,4.16,1.34,2.44,1.91,1.32,5.82,.8,8.95-1.61,9.69,5.13,18.7,6.39,28.44,.56,4.34,.02,8.74,.06,13.12,.04,4.38,.78,8.99,3.47,12.36,2.69,3.37,7.79,4.93,11.24,2.42,2.05-1.49,3.13-4.03,3.86-6.52,2.13-7.3,2.04-15.28-.26-22.52-1.44-4.52-3.75-8.94-3.59-13.7,.16-4.76,4.31-9.82,8.69-8.42,2.05,.66,3.62,2.56,5.73,2.99,3.73,.76,6.82-3.63,6.76-7.58-.05-3.95-2.07-7.54-3.36-11.26-1.68-4.82-2.16-10.08-1.39-15.14,.09-.6,.21-1.22,.56-1.7,2.17-2.98,6.36,3.63,9.66,2.16,.76-.34,1.29-1.08,1.73-1.81,2.89-4.73,4.06-10.57,3.22-16.11-.21-1.39-.54-2.84-.1-4.17,.49-1.51,1.84-2.5,2.88-3.67,2.7-3.05,3.36-7.43,3.91-11.53,.81-6.12,1.62-12.24,2.44-18.36H119.08c2.1,2.06,3.78,4.68,4.77,7.45Z"/>
          <path class="cls-20" d="M230.83,821.33c0,2.43-33.29,4.4-74.37,4.4s-74.37-1.97-74.37-4.4,33.29-4.4,74.37-4.4,74.37,1.97,74.37,4.4Z"/>
          <path class="cls-24" d="M156.46,970.24c-45.11,0-81.82-36.7-81.82-81.82v-50.28c0-1.54,1.25-2.79,2.79-2.79s2.79,1.25,2.79,2.79v50.28c0,42.04,34.2,76.25,76.25,76.25s76.25-34.2,76.25-76.25v-50.28c0-1.54,1.25-2.79,2.79-2.79s2.79,1.25,2.79,2.79v50.28c0,45.11-36.7,81.82-81.82,81.82Z"/>
        </g>
      </g>
      <rect class="cls-17" x="196.76" y="928.16" width="149.58" height="46.03" rx="23.01" ry="23.01" transform="translate(640.2 33.26) rotate(37.81)"/>
      <rect class="cls-17" x="186.61" y="956.07" width="169.5" height="130.28" rx="60.39" ry="60.39" transform="translate(-125.6 41.96) rotate(-7.19)"/>
    </g>
  </g>
  <path class="cls-13" d="M763.03,190.86l-4.9-2.18c-.47-.27-1.76-.91-2.33-1.26l-10.53-7.82c-14.14-9.47-45.46-18.25-66.08-9.24-3.91,10.25-5.02,7.96-2.4,20.08,14.6,7.73,53.31,1.64,41.27,34.16-6.85,18.48-42.15,28.65-65.28,29.36-40.97,1.27-113.99-32.01-125.44-6.18-21.97,49.57,138.12,27.87,203.55-2.04,75.06-34.31,153.97-69.54,202.16-7.14,27.26,35.29,14.51,74.37-5.13,96.39-29.66,33.26-65.08,18.1-105.78,26.73-65.17,13.83-58.74,70.39-152.32,38.78-18.19-6.14-26.16-12.58-41.88-6.32-24.35,9.71,5.2,28.55,1.67,43.07-33.54,46.3-72.94,24.22,3.19,68.89,85.94,50.42-65.71,53.09-34.96,83.05l-8.94,15.43c-52.21-84.58,41.23-12.25,42-73.83-18.18-26.67-66.79-37.25-68.94-55.39-3.27-27.58,30.27-28.06,42.45-44.89-8.65-15.86-17.39-7.58-20.42-28.61-5-34.76,37.53-38.79,65.61-44.04,24.76-4.63,21.88,2.16,39.6,7.1,23.36-.41,42.8-52.47,75.81-38.32l7.82,4.08c32.12-15.81,84.7-21.18,68.67-57.2-35.11,.91-117.59,55-181.8,63.22-66.9,8.56-127.4,5.18-164.41-26.67-54.89-47.26-19.5-120.5,51.19-121.68,67.46-1.12,66.66,63.88,156.27,32.86l-6.62-1.64c-18.99-1.29-41.3,10.24-58.64-.13-17.35-10.37-16.55-39.2-9.33-55.73,24.8-56.77,80.11-4.1,103.17-41.41-2.32-21.39-19.95-25.63-39.41-22.78-30.91,4.53-64.73,40.34-99.81,43.87-31.58,3.18-26.03-9.08-37.39-28.41,1.18,41.64,23.39,44.1,63.81,35.79-36.22,24.7-85.79,30.27-104.07-7.39l-2.2,11.37c-1.91,7,1.28,2.03-3.73,9.98-49.45,3.23-35.38-70.08-14.28-57.03,8.27,5.12,11,24.56,13.73,35.04,.82-8.85,.52-33.75-1.1-43.31-2.48-14.65-13.37-19.57-10.58-40.99,4.28-32.73,34.1-39.94,68.48-34.58-2.06,12.88-5.27,17.92-2.32,32.22-31.8,8.27-19.17,5.21-38.62,18.73,17.95-10.12,21.73-9.24,41.55-9.56,2.88-10.58-2.85-52.99,38.75-63.42,30.15-7.56,56.69,8.67,65.31,36.46l-37.56,21.16c15.41,1.43,82-45.39,162.41,21.05,45.57,37.65,48.13,95.16,14,110.06-28.23,12.33-38.1,11.91-45.27,.27"/>
  <g>
    <rect class="cls-12" x="541.53" y="516.8" width="17.84" height="100.38" transform="translate(-239.11 534.28) rotate(-43.48)"/>
    <polygon class="cls-18" points="578.51 609.55 570.97 601.61 583.91 589.34 591.46 597.28 578.51 609.55"/>
    <rect class="cls-16" x="519.62" y="525.54" width="17.84" height="36.69" transform="translate(-229.22 512.88) rotate(-43.48)"/>
    <rect class="cls-14" x="514.85" y="537.75" width="10.35" height="2.96" rx="1" ry="1" transform="translate(143.05 1186.6) rotate(-105.83)"/>
    <path class="cls-14" d="M524.83,535.62c-.25,.78,.19,1.61,.96,1.86,.78,.25,1.61-.19,1.86-.96l1.55-4.9-2.33-2.45-2.04,6.46Z"/>
    <rect class="cls-14" x="526.82" y="542.04" width="10.35" height="2.96" rx="1" ry="1" transform="translate(-203.12 348.49) rotate(-30.76)"/>
    <path class="cls-14" d="M540.7,550.07c-.45,.68-.27,1.6,.41,2.05,.68,.45,1.6,.27,2.05-.41l2.1-3.15-2.09-2.2-2.48,3.72Z"/>
    <path class="cls-14" d="M523.73,528.02c-.13-.8-.9-1.35-1.7-1.22l-2.59,.43-3.83,3.63,6.91-1.15c.8-.13,1.35-.9,1.22-1.7Z"/>
    <path class="cls-14" d="M532.69,553.31l-6.94,.59,2.61,2.75,4.59-.39c.81-.07,1.42-.79,1.35-1.6-.07-.81-.79-1.42-1.6-1.35Z"/>
  </g>
</svg>