<?xml version="1.0" encoding="UTF-8"?>
<svg id="Vrstva_1" data-name="Vrstva 1" xmlns="http://www.w3.org/2000/svg" viewBox="0 0 184.48 143.12">
  <defs>
    <style>
      .cls-1 {
        fill: #fff;
      }

      .cls-2 {
        fill: #491e00;
      }

      .cls-2, .cls-3, .cls-4, .cls-5, .cls-6, .cls-7, .cls-8, .cls-9, .cls-10, .cls-11, .cls-12 {
        fill-rule: evenodd;
      }

      .cls-3 {
        fill: #622905;
      }

      .cls-4 {
        fill: gray;
      }

      .cls-5 {
        fill: #da6a1f;
      }

      .cls-6 {
        fill: #cf9c88;
      }

      .cls-7 {
        fill: #ab4b0b;
      }

      .cls-8 {
        fill: #be5c19;
      }

      .cls-9 {
        fill: #803e17;
      }

      .cls-10 {
        fill: #743000;
      }

      .cls-11 {
        fill: #e4e4e4;
      }
    </style>
  </defs>
  <path class="cls-8" d="M62.27,53.13c-5.47,1.13-10.7,4.26-14.71,12.21-2.72,5.41-1.79,18.63,1.26,24.09l.26,.46c.83,1.48,3.6,5.61,5.01,6.45,.33,2.14,6.98,7.54,5.44,13.12-1.85,6.69-4.88,10.1,.06,13.29l.75,.74c1.99,1.97,2.96,1.97,3.79,4.78,3.44,4.32,7.9,5.49,12.63,5,2.45-.25,4.84-1.39,7.44-1.89,4.41-.85,2.66-4.76-1.62-6.3-4.83-1.74-10.34-5.1-10.82-7.33-1.12-5.14,.87-5.31,.8-10.34-.02-1.26,13.59-6.96,13.2-20.82-.03-1,.1-1.79,.36-2.39l-.05-.19h0s-.05-.18-.05-.18l-.03-.1-.03-.09-.06-.18h0s-.06-.18-.06-.18l-.06-.18-.05-.16v-.02s-.12-.35-.12-.35l-.05-.14v-.03s-.07-.17-.07-.17l-.02-.05-.04-.12-.05-.13v-.04s-.08-.16-.08-.16c-1.17-3.23-2-5-1.78-6.19l-21.24-22.44h0Z"/>
  <path class="cls-2" d="M11.82,69.55c-4.6-1.75-10.18-5.72-10.95-9.46-.04-.19-2.57-11.06,1.15-7.34,2.65,2.65-.16,1.52,7.22,7.67,6.42,5.34,8.82-4.04,10.42-4.11-3.4,14.01,1.73,15.98-.5,16.21-.69,.08-5.3-2.18-7.35-2.96h0Z"/>
  <path class="cls-4" d="M100.58,74.67c10.79-8.74-18.79,59.58,12.96,59.16,2.84,1.21,10.88-7.65,.08-11.38-7.03-2.42,.69-30.3,1.83-33.56,7.63-21.88,10.17-31.41-3.45-30.88-9.2,.36-.9-9.06-3.75-10.27-14.7-6.22-9.8,21.81-7.67,26.92h0Z"/>
  <path class="cls-10" d="M77.53,91.88c4.49-.32,10.17-1.19,14.29-4.52,5.87-4.76,2.65,16.39,2.95,31.76,2.19-7.84,8.42-30.48,2.37-33.73-.55-.29-7.58-3.36-5.35-.35-5.98,1.38-10.61,1.9-15.34,2.59l1.07,4.26h0Z"/>
  <path class="cls-5" d="M152.02,.03c-30.92-1.52-41.87,47.37-65.79,41.33-6.95-1.76-14.25-1.69-21.49-.25l7,27.79c.4,0,.13-.14,1.28,.41-.28,.47-.55,.93-.83,1.38l4.8,19.05c3.39-.19,8.21,3.88,11.12,1.53,10.79-8.75-11.53,52.71,20.2,51.3,2.72,.87,9.83-9.12-.1-10.72-7.34-1.18,4.22-40.52,5.52-43.73,5.3-13.2,17.63-22.78,22.04-36.54,.25-.79,11.33-7.77,12.38-8,26.8-5.9,25.79-2.51,35.82-20.98,3.75-6.91-17.81,.04-18.3-12.88-.3-7.93-10.75-9.55-13.65-9.69h0Z"/>
  <path class="cls-6" d="M175.62,18.35c-4.77-.82-9.72-2.55-9.95-8.62-.09-2.46-1.17-4.31-2.68-5.7,.4,.73,.82,1.74,1.31,3.18,.42,1.24,.95,5.52,1.92,7.1,1.9,3.08,12.52,7.86,5.94,10.18-4.79,1.69-6.25,10.35,.54,13.28,4.74-1.65,5.49-4.51,11.27-15.16,1.97-3.64-3.07-3.43-8.37-4.31v.05h.01Z"/>
  <path class="cls-6" d="M177.42,18.62c-.59-.08-1.19-.17-1.8-.28,.07,.28,.14,.57,.21,.85,.62-.08,1.15-.28,1.58-.57h0Z"/>
  <path class="cls-11" d="M66.36,93.26c5.97-3.54,18.44,.38,21.35-1.98,2.85-2.31,3.39,.28,3.23,5.33-.4,12.27-4.57,39.04,9.91,44.86,4.41,1.77,13.23,3.66,13.51-3.2,.15-3.75-1.59-8.09-5.96-7.07-7.24,1.69,4.05-39.86,5.34-43.07,1.59-3.95,3.81-7.58,6.26-11.1,4.06-5.82,8.75-11.33,12.23-17.48,4.8-8.48,6.35-12.32,14.8-14.44-4.75-3.22-5.51-7.32-16.17-10.24-6.22-1.71-40.72,14.21-63.2,17.79l4.09,16.24c.4,0,.13-.14,1.28,.41-.28,.47-.55,.93-.83,1.38l-5.84,22.57h0Z"/>
  <path class="cls-5" d="M71.32,85.82c3.39-.19,13.11,2.59,16.02,.23,5.36-4.34,3.31,13.86,3.02,27.85,.21-.17,.34-.29,.35-.29,11.41-4.43,6.4-12.4,9.11-15.32,8.19-8.8,4.79-15.85,6.97-23.78,5.22-19.02,23.71-25.91,31.67-37.61-2.23-.6-4.75-1.21-7.61-2.04-5.6-1.63-54.16,4.06-78.24,9.33-2.53,.55,5.25,6.35,3.09,6.75,5.8,23.04,16.96,11.59,15.63,34.86h0Z"/>
  <path class="cls-12" d="M179.97,29.46c1.09-1.95,2.39-4.22,4-6.85,1.23-2.01,.12-2.81-2.05-3.3-2.11,1.58-3.5,4.43-2.49,7.42,.09,.28,.28,1.42,.53,2.73h0Z"/>
  <path class="cls-10" d="M156.59,18.21c.17,.84,4.07,1.61,6.58,.65,1.32-.5,1.91-1.76,2.09-3.16-1.79-3.28-2.1-4.37-3.94-3.82-2.52,.75-5.21,4.05-4.74,6.33h0Z"/>
  <path class="cls-12" d="M162.3,13.41c.77,.03,1.36,.98,1.32,2.13-.04,1.15-.71,2.05-1.48,2.02-.77-.03-1.36-.98-1.32-2.13,.04-1.14,.71-2.05,1.47-2.02h0Z"/>
  <path class="cls-2" d="M173.76,34.23c-1.89,1.03-19.39,5.84-16.21,1.49,2.41-1.91,3.88,1.77,16.21-1.49h0Z"/>
  <path class="cls-1" d="M162.16,14.13c.24,.11,.41,.27,.52,.43,.17,.26,.21,.53,.21,.66h.27c0-.17-.05-.5-.26-.81-.13-.2-.34-.4-.63-.53l-.11,.25h0Z"/>
  <path class="cls-1" d="M162.92,15.56c.02,.09,.03,.17,.03,.25,0,.08-.02,.16-.07,.24l.24,.12c.06-.12,.08-.23,.09-.34,0-.11,0-.22-.04-.33l-.26,.07h0Z"/>
  <path class="cls-5" d="M56.49,33.21c-7.66,.14-22.47,7.64-28.08,18.54-1.54,2.99-13.43,10.46-12.75,14.96,2.58,17.07,15.59,23.28,25.95,28.8,3.41,1.81,6.16,8.8,4.67,12.66-3.06,7.88-11.29,10.94-5.7,15.42l.82,.99c2.17,2.63,4.94,6.85,5.6,10.36,3.64,5.66,8.31,6.35,14.1,6.33,3,0,1.4-.49,4.62-.78,5.45-.49,3.81-5.44-1.19-7.84-5.64-2.7-8.95-7.45-9.27-10.23-.73-6.38,3.54-5.16,4.07-11.27,.13-1.52,10.89-10.17,12.13-27.02,.09-1.22,.34-2.15,.73-2.86l-.04-.23h0s-.04-.23-.04-.23l-.02-.12-.02-.11-.04-.22h0s-.05-.23-.05-.23l-.05-.22-.04-.2v-.02s-.11-.43-.11-.43l-.04-.18v-.04s-.06-.21-.06-.21l-.02-.06-.04-.15-.04-.16v-.05s-.07-.21-.07-.21c-1-3.97-1.78-6.2-1.42-7.62l-13.58-37.4h0Z"/>
  <path class="cls-2" d="M116.08,17.52c-5.47,5.69-10.23,2.21-15.2,3.86-3.38,1.12-8.87,5.56-12.38,6.1-8.12,1.24-13.43-1.26-21.13-4.71C41.02,10.98,15.91,27.6,15.55,61.06c-.02,1.53-.9,4.22-.81,5.82l1.31,4.49c2.37,1.6,11.18-4.09,12.45-5.23,6.64-5.97,1.77-6.32,3.64-14.38,3.24-13.94,27.29-2.28,31.3,1.63,29.41,28.67,14.32-6.29,40.57,.91,4.95-18.02,18.77-2.38,21.01-10.56,2.64-9.61,10.46-.56,8.89-9.96-1.2-7.22,28.31,.12,19.23-20.63-3.43-7.83-14.78,2.18-13.91-6.76,.69-7.08-20.81,8.38-23.16,11.13h0Z"/>
  <path class="cls-7" d="M147.31,7.03c-8.61,.81-22.12,9.78-17.89,21.62,2.72,7.61,1.62,11.14,15.24,19.25,1.32,.78,2.42,.56,3.32-.41,4.7-5.01,7.77-30.84,4.69-37.82-1.7-3.85-3.08-2.86-5.36-2.65h0Z"/>
  <path class="cls-10" d="M145.03,8.57c-5.97,.56-15.34,6.78-12.41,14.99,1.89,5.28,1.12,7.73,10.57,13.35,.91,.55,1.68,.39,2.3-.28,3.26-3.48,5.39-21.39,3.25-26.23-1.18-2.67-2.14-1.98-3.71-1.83h0Z"/>
  <path class="cls-9" d="M14.42,134.07c-3.97-.29-3.92-5.15-.51-5.72-1.36-.29-3.08-3.27-.26-4.53,.46-.18,2.69-1.24,2.5-1.44-1.91-1.97-.66-3.27,2.1-4.08,.88-.26,2.65-3.3,2.66-3.28,.11,.45,1.43,2.54,2.02,2.71,.19,.05,.72,.69,1.56,.92,2.51,.67,3.55,2.19,1.33,3.38-.18,.1,2.71,.52,4.22,2.44,.66,.84,.91,1.81-.64,2.54-.04,.02-.55,.7,.47,.86,4.18,.64,2.8,6.03-.07,5.8-5.24,.52-10.4,.76-15.38,.38h0Z"/>
  <path class="cls-3" d="M16,122.96c-.3-.07-.05,.07,.02-.23,.07-.3,.37-.48,.67-.41,1.05,.25,7.65,.07,8.63-.22,1.51-.43,.3,.52,.26,.53-3.18,.91-6.34,1.09-9.58,.33h0Z"/>
  <path class="cls-3" d="M13.42,128.33c.03-.3,.3-.52,.6-.49,2.56,.28,5.07,.32,7.52,.18,2.45-.14,4.87-.47,7.26-.92,.3-.06,.59,.14,.64,.44,.23,1.24-6.85,1.53-7.84,1.58-1.01,.06-8.13,.18-8.18-.79h0Z"/>
</svg>