<?xml version="1.0" encoding="UTF-8"?>
<svg id="Vrstva_1" data-name="Vrstva 1" xmlns="http://www.w3.org/2000/svg" viewBox="0 0 422.77 843.79">
  <defs>
    <style>
      .cls-1 {
        fill: #f0f4f6;
      }

      .cls-2 {
        fill: #30424f;
      }

      .cls-3 {
        fill: #bd361b;
      }

      .cls-4 {
        fill: #c4c5c7;
      }

      .cls-5 {
        fill: #d9e0e3;
      }

      .cls-6 {
        fill: #e04629;
      }

      .cls-7 {
        fill: #537f99;
      }

      .cls-8 {
        fill: #ff161f;
        fill-rule: evenodd;
        opacity: .5;
      }
    </style>
  </defs>
  <path class="cls-8" d="M299.07,273.28l-3.14-4.48c-.27-.48-1.07-1.72-1.39-2.33l-5.24-12.46c-7.53-15.79-30.17-39.78-52.31-42.22-8.38,7.25-8.2,4.6-11.87,16.89,8.77,14.47,45.04,28.82,18.79,51.99-14.92,13.17-50.24,4.24-70.48-6.98-35.85-19.87-82.38-87.34-104.84-69.9-43.12,33.46,105.14,95.98,176.03,102.54,81.31,7.52,166.38,16.2,177.33,97.23,6.19,45.83-23.87,74.55-51.52,84.35-41.76,14.8-64.81-17.04-104.02-30.12-62.8-20.94-84.91,33.4-149.93-43.11-12.64-14.87-16.35-24.77-32.92-27.18-50.3-7.29,5.92,72.06,26.26,89.19,30.96,26.06,72.08,54.31,66.8,73.65-21.19-55.05-125.84-34.21-131.06-142.13,.31-18.75-11.25-15.76-3.58-36.29,12.68-33.93,51.23-15.75,77.93-6.1,23.55,8.52,17.76,13.17,30.58,26.71,20.29,11.61,62.44-25.4,83.92,4.29l4.73,7.69c35.34,2.21,83.18,24.32,87-16.4-30.64-17.19-128-10.67-187.23-36.18-61.71-26.58-112.09-60.66-128.34-108.38-24.1-70.79,42.11-118.74,103.48-83.55,58.56,33.58,26.1,91.83,118.32,109.79l-4.89-4.88c-15.7-10.9-40.52-11.94-50.36-30.18-9.85-18.26,4.93-43.86,19.21-55.07,49.07-38.51,70.89,37.39,108.95,15.53,8.46-20.49-4.63-33.36-22.76-40.77-28.79-11.77-75.38,3.21-107.26-11.59-28.71-13.33-17.94-21.54-18.27-44.81-19.33,38.18-1.44,51.79,37.38,65.01-43.22,3.72-88.57-16.68-85.88-60.04l-7.44,9.13c-5.07,5.34,.1,2.49-8.09,7.09-44.1-22.44,3.82-81.38,15.58-58.79,4.61,8.86-2.54,27.8-5.32,38.66,5.03-7.57,16.94-30.19,20.22-39.65,5.03-14.5-1.93-24.52,10.94-42.41,19.67-27.34,48.84-18.56,75.78,3.91-8.07,10.56-13.29,13.47-17.74,27.89-31.38-8.84-19.03-5.12-42.36-2.9,20.38,.08,23.2,2.81,40.4,12.68,7.64-8.07,23.44-49.28,64.31-37.36,29.62,8.64,44.51,36.9,38.34,66.39l-42.63-.17c12.55,9.2,92.69,1.09,129.37,102.28,20.79,57.35-5.12,110.55-41.74,106.5-30.3-3.35-38.58-8.79-39.06-22.97"/>
  <g>
    <path class="cls-3" d="M236.39,843.72c18.46-.49,36.91-.98,55.37-1.47,1.22-.03,2.48-.08,3.56-.63,1.23-.63,2.05-1.82,3.04-2.77,5.87-5.6,17.59-2.88,21.46-10.01,3.02-5.57-2.12-12.6-8.18-14.45-6.06-1.85-12.57-.41-18.9-.18-6.91,.26-13.87-.97-20.29-3.56,5.34,1.49,10.47,3.71,15.21,6.59,.06,1.87,.13,3.74,.19,5.62-30.33,2.06-60.65,4.12-90.98,6.18-2.12,.14-4.35,.32-6.13,1.49-1.78,1.16-2.88,3.67-1.78,5.49,1.3,2.15,4.4,1.97,6.91,1.83,11.22-.62,21.86,5.06,33.07,5.85,2.47,.17,4.96,.11,7.44,.04Z"/>
    <path class="cls-1" d="M315.47,548.83c-1.35,10.15-2.7,20.3-4.04,30.46-.9,6.81-2.01,14.07-6.49,19.13-1.72,1.94-3.95,3.58-4.77,6.09-.72,2.21-.18,4.61,.17,6.91,1.39,9.18-.55,18.87-5.34,26.72-.74,1.21-1.61,2.44-2.88,3.01-5.47,2.45-12.43-8.51-16.03-3.58-.58,.8-.78,1.83-.93,2.82-1.27,8.4-.47,17.13,2.31,25.12,2.14,6.17,5.49,12.12,5.57,18.68,.09,6.56-5.04,13.84-11.22,12.57-3.5-.72-6.1-3.87-9.5-4.96-7.26-2.32-14.15,6.07-14.41,13.97-.26,7.9,3.56,15.22,5.95,22.72,3.82,12.01,3.98,25.25,.44,37.35-1.21,4.13-3,8.34-6.4,10.81-5.72,4.16-14.2,1.57-18.65-4.02-4.45-5.59-5.67-13.24-5.75-20.5-.07-7.26,.82-14.57-.11-21.76-2.09-16.17-13.27-31.11-10.6-47.18,.86-5.19,2.73-11.68-1.32-14.84-1.94-1.52-4.57-1.53-6.9-2.22-7.6-2.24-11.27-11.44-11.59-19.66-.31-8.22,1.64-16.49,.47-24.63-.69-4.84-3.35-10.22-8.02-10.76-8.06-.93-10.31,11.78-17.09,16.43-6.05,4.15-14.78,.41-18.66-5.96-3.88-6.37-4.14-14.37-3.92-21.91,.38-12.93,1.77-26.3-2.53-38.43-1.63-4.6-4.42-8.94-7.91-12.36h-61.36v155.66l92.57-47.83s24.67,68.63-68.29,162.99c20.79,2.04,57.38,3.4,99.08,3.4,61.66,0,112.18-2.96,116.92-6.73,3.8-1.84,6.45-5.7,6.45-10.2v-257.28h-5.24Z"/>
    <path class="cls-4" d="M166.56,656.65l-92.57,47.83v101.62c0,4.51,2.65,8.37,6.45,10.2,1.53,1.22,7.88,2.35,17.83,3.33,92.96-94.36,68.29-162.99,68.29-162.99Z"/>
    <g>
      <path class="cls-2" d="M62.49,580.57c-1.92,0-3.48,1.56-3.48,3.48v3.12c0,1.92,1.56,3.48,3.48,3.48h11.5v-10.09h-11.5Z"/>
      <path class="cls-2" d="M332.21,590.65c1.92,0,3.48-1.56,3.48-3.48v-3.12c0-1.92-1.56-3.48-3.48-3.48h-11.5v10.09s11.5,0,11.5,0Z"/>
    </g>
    <path class="cls-6" d="M143.25,561.19c4.3,12.13,2.91,25.51,2.53,38.43-.22,7.54,.04,15.54,3.92,21.91,3.88,6.37,12.61,10.11,18.66,5.96,6.78-4.65,9.03-17.36,17.09-16.43,4.67,.54,7.32,5.92,8.02,10.76,1.17,8.14-.78,16.41-.47,24.63,.31,8.22,3.98,17.41,11.59,19.66,2.34,.69,4.96,.7,6.9,2.22,4.05,3.16,2.18,9.65,1.32,14.84-2.67,16.08,8.51,31.01,10.6,47.18,.93,7.2,.03,14.5,.11,21.76,.07,7.26,1.29,14.91,5.75,20.5,4.46,5.59,12.93,8.18,18.65,4.02,3.4-2.47,5.19-6.68,6.4-10.81,3.54-12.1,3.39-25.34-.44-37.35-2.39-7.5-6.22-14.82-5.95-22.72,.26-7.9,7.15-16.29,14.41-13.97,3.41,1.09,6.01,4.24,9.5,4.96,6.18,1.27,11.31-6.02,11.22-12.57-.09-6.56-3.43-12.51-5.57-18.68-2.78-7.99-3.58-16.72-2.31-25.12,.15-.99,.35-2.02,.93-2.82,3.6-4.94,10.56,6.03,16.03,3.58,1.27-.57,2.14-1.79,2.88-3.01,4.79-7.85,6.73-17.53,5.34-26.72-.35-2.3-.89-4.7-.17-6.91,.82-2.5,3.05-4.14,4.77-6.09,4.48-5.05,5.58-12.32,6.49-19.13,1.35-10.15,2.69-20.3,4.04-30.46H135.35c3.48,3.42,6.28,7.76,7.91,12.36Z"/>
    <path class="cls-3" d="M320.71,548.83c0,4.03-55.23,7.3-123.36,7.3s-123.36-3.27-123.36-7.3,55.23-7.3,123.36-7.3,123.36,3.27,123.36,7.3Z"/>
    <path class="cls-1" d="M149.26,645.37c-22.51-1.84-60.98,23.07-94.3,63.03-33.32,39.95-50.92,82.26-45.07,104.08l-2.53,3.04,8.76,7.31c18.43,15.37,65.71-10.93,105.59-58.75,39.88-47.82,57.27-99.05,38.84-114.43l-8.76-7.31-2.53,3.04Z"/>
    <ellipse class="cls-5" cx="79.58" cy="728.93" rx="112.75" ry="43.46" transform="translate(-531.18 323.17) rotate(-50.17)"/>
    <path class="cls-7" d="M197.35,795.85c-74.84,0-135.73-60.89-135.73-135.73v-83.41c0-2.55,2.07-4.62,4.62-4.62s4.62,2.07,4.62,4.62v83.41c0,69.74,56.74,126.48,126.48,126.48s126.48-56.74,126.48-126.48v-83.41c0-2.55,2.07-4.62,4.62-4.62s4.62,2.07,4.62,4.62v83.41c0,74.84-60.89,135.73-135.73,135.73Z"/>
  </g>
</svg>