<?xml version="1.0" encoding="UTF-8"?>
<svg xmlns="http://www.w3.org/2000/svg" viewBox="0 0 1631.1 1650.7">
  <defs>
    <style>
      .cls-1 {
        fill: #00c1fd;
      }

      .cls-2 {
        fill: #f0f0f0;
      }

      .cls-3 {
        fill: #e6e6e6;
      }

      .cls-4 {
        fill: #fff;
      }

      .cls-5 {
        fill: #7da6ad;
      }

      .cls-6 {
        fill: #92c7cf;
      }

      .cls-7 {
        fill: #858585;
      }

      .cls-8 {
        fill: #cf976b;
      }

      .cls-9 {
        fill: #cdf7ff;
      }

      .cls-10 {
        fill: #d8d8d8;
      }

      .cls-11 {
        fill: #ccc;
      }

      .cls-12 {
        fill: #c4c4c4;
      }

      .cls-13 {
        fill: #e0eaeb;
      }

      .cls-14 {
        fill: #c7dbe3;
      }

      .cls-15 {
        fill: #204b52;
      }

      .cls-16 {
        fill: #1c1c1b;
      }

      .cls-17 {
        fill: #9b9b9a;
      }

      .cls-18 {
        fill: #707070;
      }

      .cls-19 {
        fill: #57c6d7;
      }

      .cls-20 {
        fill: #262626;
      }

      .cls-21 {
        fill: #394e52;
      }

      .cls-22 {
        fill: #575756;
      }

      .cls-23 {
        fill: #3c3c3a;
      }

      .cls-24 {
        fill: #846044;
      }

      .cls-25 {
        fill: #846144;
      }

      .cls-26 {
        fill: #533c2a;
      }

      .cls-27 {
        fill: #527e83;
      }

      .cls-28 {
        fill: #f1f1f1;
        mix-blend-mode: overlay;
      }

      .cls-29 {
        opacity: .39;
      }

      .cls-30 {
        opacity: .36;
      }

      .cls-31 {
        opacity: .51;
      }

      .cls-32 {
        opacity: .48;
      }

      .cls-33 {
        opacity: .79;
      }

      .cls-34 {
        fill: #e1000f;
        fill-rule: evenodd;
      }

      .cls-35 {
        isolation: isolate;
      }
    </style>
  </defs>
  <g class="cls-35">
    <g id="Vrstva_1" data-name="Vrstva 1">
      <g>
        <g>
          <g>
            <g class="cls-30">
              <polygon class="cls-21" points="7.62 561.77 96.2 650.28 1625.74 650.28 1625.74 561.77 7.62 561.77"/>
            </g>
            <rect class="cls-23" x="419.98" y="42.3" width="186.13" height="519.47"/>
            <rect class="cls-23" x="606.12" y="42.3" width="186.13" height="519.47"/>
            <rect class="cls-23" x="792.25" y="42.3" width="208.37" height="519.58"/>
            <rect class="cls-23" x="7.62" y="42.3" width="412.36" height="262.06"/>
            <rect class="cls-2" x="7.62" width="1614.43" height="42.3"/>
            <rect class="cls-23" x="7.62" y="302.09" width="412.36" height="259.79"/>
            <rect class="cls-23" x="3.23" y="990.85" width="416.75" height="611.5"/>
            <rect class="cls-23" x="1209" y="42.3" width="413.06" height="262.06"/>
            <rect class="cls-23" x="1000.62" y="42.3" width="208.37" height="519.47"/>
            <rect class="cls-23" x="419.98" y="1462.21" width="372.26" height="140.14"/>
            <rect class="cls-23" x="792.25" y="987.56" width="416.75" height="614.79"/>
            <rect class="cls-23" x="1209" y="987.56" width="414.02" height="614.79"/>
            <rect class="cls-11" x="6.44" y="1602.35" width="1624.66" height="48.36"/>
            <g>
              <g>
                <rect class="cls-2" x="794.77" y="990.85" width="411.81" height="607.21"/>
                <g>
                  <g>
                    <polygon class="cls-12" points="1150.59 1045.93 850.26 1045.93 836.33 1032.01 1164.52 1032.01 1150.59 1045.93"/>
                    <polygon class="cls-18" points="1164.52 1558.38 836.33 1558.38 850.26 1544.46 1150.59 1544.46 1164.52 1558.38"/>
                    <polygon class="cls-10" points="836.33 1558.38 836.33 1032.02 850.26 1045.93 850.26 1544.46 836.33 1558.38"/>
                    <polygon class="cls-17" points="1150.59 1544.6 1150.59 1045.93 1164.52 1032.02 1164.52 1558.38 1150.59 1544.6"/>
                  </g>
                  <rect class="cls-2" x="863.8" y="1059.46" width="286.79" height="485"/>
                  <g>
                    <rect class="cls-4" x="850.26" y="1045.93" width="300.33" height="13.53"/>
                    <rect class="cls-4" x="607.77" y="1288.43" width="498.53" height="13.54" transform="translate(2152.23 438.17) rotate(90)"/>
                  </g>
                </g>
                <g>
                  <ellipse class="cls-23" cx="1184.72" cy="1039.35" rx="7.34" ry="7.34" transform="translate(142.61 2221.65) rotate(-89.87)"/>
                  <path class="cls-23" d="M1192.06,1137.49c0,4.05-3.29,7.34-7.34,7.34s-7.34-3.29-7.34-7.34,3.29-7.34,7.34-7.34,7.34,3.29,7.34,7.34Z"/>
                  <rect class="cls-23" x="1181.01" y="1037.33" width="7.41" height="100.16"/>
                </g>
              </g>
              <g>
                <rect class="cls-2" x="1211.04" y="991.06" width="411.97" height="606.88"/>
                <g>
                  <polygon class="cls-12" points="1567.26 1045.93 1266.93 1045.93 1253.01 1032.01 1581.19 1032.01 1567.26 1045.93"/>
                  <polygon class="cls-18" points="1581.19 1558.38 1253.01 1558.38 1266.93 1544.46 1567.26 1544.46 1581.19 1558.38"/>
                  <polygon class="cls-10" points="1253.01 1558.38 1253.01 1032.02 1266.93 1045.93 1266.93 1544.46 1253.01 1558.38"/>
                  <polygon class="cls-17" points="1567.26 1544.6 1567.26 1045.93 1581.19 1032.02 1581.19 1558.38 1567.26 1544.6"/>
                </g>
                <rect class="cls-2" x="1280.47" y="1059.46" width="286.79" height="485"/>
                <g>
                  <rect class="cls-4" x="1266.93" y="1045.93" width="300.33" height="13.53"/>
                  <rect class="cls-4" x="1024.44" y="1288.43" width="498.53" height="13.54" transform="translate(2568.9 21.49) rotate(90)"/>
                </g>
                <g>
                  <path class="cls-23" d="M1241.31,1039.35c0,4.05-3.29,7.34-7.34,7.34s-7.34-3.29-7.34-7.34c0-4.05,3.29-7.34,7.34-7.34s7.34,3.29,7.34,7.34Z"/>
                  <ellipse class="cls-23" cx="1233.97" cy="1137.49" rx="7.34" ry="7.34" transform="translate(-2.67 2.9) rotate(-.13)"/>
                  <rect class="cls-23" x="1230.26" y="1037.33" width="7.41" height="100.16"/>
                </g>
              </g>
              <g>
                <rect class="cls-2" x="5.43" y="1400" width="412.55" height="197.96"/>
                <g>
                  <g>
                    <polygon class="cls-12" points="362.36 1454.5 62.03 1454.5 48.1 1440.58 376.29 1440.58 362.36 1454.5"/>
                    <polygon class="cls-18" points="376.29 1556.84 48.1 1556.84 62.03 1542.92 362.36 1542.92 376.29 1556.84"/>
                    <polygon class="cls-10" points="48.1 1556.84 48.1 1440.58 62.03 1454.5 62.03 1542.92 48.1 1556.84"/>
                    <polygon class="cls-17" points="362.36 1543 362.36 1454.5 376.29 1440.58 376.29 1556.77 362.36 1543"/>
                  </g>
                  <rect class="cls-2" x="75.56" y="1468.03" width="286.79" height="74.89"/>
                  <g>
                    <rect class="cls-4" x="62.03" y="1454.5" width="300.33" height="13.53"/>
                    <rect class="cls-4" x="24.59" y="1491.94" width="88.42" height="13.54" transform="translate(1567.51 1429.91) rotate(90)"/>
                  </g>
                </g>
                <g>
                  <path class="cls-23" d="M163.1,1412.96c4.06,0,7.34,3.29,7.34,7.34s-3.29,7.34-7.34,7.34-7.34-3.29-7.34-7.34,3.29-7.34,7.34-7.34Z"/>
                  <path class="cls-23" d="M261.29,1412.96c4.06,0,7.34,3.29,7.34,7.34s-3.29,7.34-7.34,7.34-7.34-3.29-7.34-7.34,3.29-7.34,7.34-7.34Z"/>
                  <rect class="cls-23" x="207.48" y="1370.19" width="7.41" height="100.22" transform="translate(-1209.12 1631.48) rotate(-90)"/>
                </g>
              </g>
              <g>
                <rect class="cls-2" x="5.43" y="1196.19" width="411.82" height="199.42"/>
                <g>
                  <g>
                    <polygon class="cls-12" points="362.36 1250.69 62.03 1250.69 48.1 1236.77 376.29 1236.77 362.36 1250.69"/>
                    <polygon class="cls-18" points="376.29 1353.03 48.1 1353.03 62.03 1339.12 362.36 1339.12 376.29 1353.03"/>
                    <polygon class="cls-10" points="48.1 1353.03 48.1 1236.77 62.03 1250.69 62.03 1339.12 48.1 1353.03"/>
                    <polygon class="cls-17" points="362.36 1339.19 362.36 1250.69 376.29 1236.77 376.29 1352.96 362.36 1339.19"/>
                  </g>
                  <rect class="cls-2" x="75.56" y="1264.22" width="286.79" height="74.89"/>
                  <g>
                    <rect class="cls-4" x="62.03" y="1250.69" width="300.33" height="13.53"/>
                    <rect class="cls-4" x="24.59" y="1288.14" width="88.42" height="13.54" transform="translate(1363.7 1226.11) rotate(90)"/>
                  </g>
                </g>
                <g>
                  <path class="cls-23" d="M163.1,1209.16c4.06,0,7.34,3.29,7.34,7.34s-3.29,7.34-7.34,7.34-7.34-3.29-7.34-7.34,3.29-7.34,7.34-7.34Z"/>
                  <path class="cls-23" d="M261.29,1209.16c4.06,0,7.34,3.29,7.34,7.34s-3.29,7.34-7.34,7.34-7.34-3.29-7.34-7.34,3.29-7.34,7.34-7.34Z"/>
                  <rect class="cls-23" x="207.48" y="1166.39" width="7.41" height="100.22" transform="translate(-1005.32 1427.68) rotate(-90)"/>
                </g>
              </g>
              <g>
                <rect class="cls-2" x="5.43" y="990.85" width="411.82" height="200.74"/>
                <g>
                  <g>
                    <polygon class="cls-12" points="362.36 1045.71 62.03 1045.71 48.1 1031.7 376.29 1031.7 362.36 1045.71"/>
                    <polygon class="cls-18" points="376.29 1148.73 48.1 1148.73 62.03 1134.71 362.36 1134.71 376.29 1148.73"/>
                    <polygon class="cls-10" points="48.1 1148.73 48.1 1031.7 62.03 1045.71 62.03 1134.71 48.1 1148.73"/>
                    <polygon class="cls-17" points="362.36 1134.79 362.36 1045.71 376.29 1031.7 376.29 1148.65 362.36 1134.79"/>
                  </g>
                  <rect class="cls-2" x="75.56" y="1059.33" width="286.79" height="75.39"/>
                  <g>
                    <rect class="cls-4" x="62.03" y="1045.71" width="300.33" height="13.62"/>
                    <rect class="cls-4" x="24.29" y="1083.44" width="89.01" height="13.54" transform="translate(1159.01 1021.41) rotate(90)"/>
                  </g>
                </g>
                <g>
                  <path class="cls-23" d="M163.1,1003.9c4.06,0,7.34,3.31,7.34,7.39s-3.29,7.39-7.34,7.39-7.34-3.31-7.34-7.39,3.29-7.39,7.34-7.39Z"/>
                  <path class="cls-23" d="M261.29,1003.9c4.06,0,7.34,3.31,7.34,7.39s-3.29,7.39-7.34,7.39-7.34-3.31-7.34-7.39,3.29-7.39,7.34-7.39Z"/>
                  <rect class="cls-23" x="207.45" y="961.18" width="7.46" height="100.22" transform="translate(-800.11 1222.47) rotate(-90)"/>
                </g>
              </g>
              <g>
                <rect class="cls-2" x="422.37" y="1465.48" width="368.01" height="132.48"/>
                <g>
                  <ellipse class="cls-23" cx="560.41" cy="1484.39" rx="7.39" ry="7.34"/>
                  <ellipse class="cls-23" cx="659.28" cy="1484.39" rx="7.39" ry="7.34"/>
                  <rect class="cls-23" x="605.12" y="1433.93" width="7.41" height="100.92" transform="translate(-875.57 2093.21) rotate(-90)"/>
                </g>
              </g>
            </g>
            <g>
              <g>
                <rect class="cls-2" x="1003.48" y="46.42" width="204.34" height="515.35"/>
                <g>
                  <g>
                    <polygon class="cls-12" points="1151.17 100.77 1058.44 100.77 1044.52 86.85 1165.1 86.85 1151.17 100.77"/>
                    <polygon class="cls-18" points="1165.1 522.23 1044.52 522.23 1058.44 508.31 1151.17 508.31 1165.1 522.23"/>
                    <polygon class="cls-10" points="1044.52 522.23 1044.52 86.85 1058.44 100.77 1058.44 508.31 1044.52 522.23"/>
                    <polygon class="cls-17" points="1151.17 508.39 1151.17 100.77 1165.1 86.85 1165.1 522.16 1151.17 508.39"/>
                  </g>
                  <rect class="cls-2" x="1071.98" y="114.3" width="79.19" height="394.01"/>
                  <g>
                    <rect class="cls-4" x="1058.44" y="100.77" width="92.73" height="13.53"/>
                    <rect class="cls-4" x="861.44" y="297.78" width="407.54" height="13.54" transform="translate(1369.76 -760.67) rotate(90)"/>
                  </g>
                </g>
                <g>
                  <path class="cls-23" d="M1032.26,416.69c0,4.05-3.29,7.34-7.34,7.34s-7.34-3.29-7.34-7.34c0-4.05,3.29-7.34,7.34-7.34s7.34,3.29,7.34,7.34Z"/>
                  <path class="cls-23" d="M1032.26,514.82c0,4.05-3.29,7.34-7.34,7.34s-7.34-3.29-7.34-7.34,3.29-7.34,7.34-7.34,7.34,3.29,7.34,7.34Z"/>
                  <rect class="cls-23" x="1021.21" y="414.66" width="7.41" height="100.16"/>
                </g>
              </g>
              <g>
                <rect class="cls-2" x="794.44" y="46.42" width="204.65" height="515.35"/>
                <g>
                  <g>
                    <polygon class="cls-12" points="944.12 100.77 851.4 100.77 837.47 86.85 958.05 86.85 944.12 100.77"/>
                    <polygon class="cls-18" points="958.05 522.23 837.47 522.23 851.4 508.31 944.12 508.31 958.05 522.23"/>
                    <polygon class="cls-10" points="837.47 522.23 837.47 86.85 851.4 100.77 851.4 508.31 837.47 522.23"/>
                    <polygon class="cls-17" points="944.12 508.39 944.12 100.77 958.05 86.85 958.05 522.16 944.12 508.39"/>
                  </g>
                  <rect class="cls-2" x="864.93" y="114.3" width="79.19" height="394.01"/>
                  <g>
                    <rect class="cls-4" x="851.4" y="100.77" width="92.73" height="13.53"/>
                    <rect class="cls-4" x="654.39" y="297.78" width="407.54" height="13.54" transform="translate(1162.71 -553.62) rotate(90)"/>
                  </g>
                </g>
                <g>
                  <ellipse class="cls-23" cx="977.47" cy="416.69" rx="7.34" ry="7.34" transform="translate(558.5 1393.18) rotate(-89.87)"/>
                  <ellipse class="cls-23" cx="977.47" cy="514.82" rx="7.34" ry="7.34" transform="translate(-1.21 2.3) rotate(-.13)"/>
                  <rect class="cls-23" x="973.76" y="414.66" width="7.41" height="100.16"/>
                </g>
              </g>
              <g>
                <rect class="cls-2" x="421.95" y="46.74" width="181.29" height="515.03"/>
                <g>
                  <g>
                    <polygon class="cls-12" points="546.99 101.09 477.08 101.09 463.16 87.17 560.91 87.17 546.99 101.09"/>
                    <polygon class="cls-18" points="560.91 521.21 463.16 521.21 477.08 507.29 546.99 507.29 560.91 521.21"/>
                    <polygon class="cls-10" points="463.16 521.21 463.16 87.17 477.08 101.09 477.08 507.29 463.16 521.21"/>
                    <polygon class="cls-17" points="546.99 507.29 546.99 101.09 560.91 87.17 560.91 521.06 546.99 507.29"/>
                  </g>
                  <rect class="cls-2" x="490.62" y="114.07" width="56.37" height="393.22"/>
                  <g>
                    <rect class="cls-4" x="477.08" y="101.09" width="69.9" height="12.98"/>
                    <rect class="cls-4" x="280.75" y="297.42" width="406.2" height="13.54" transform="translate(788.04 -179.66) rotate(90)"/>
                  </g>
                </g>
                <g>
                  <path class="cls-23" d="M587.97,415.74c0,4.05-3.29,7.34-7.34,7.34s-7.34-3.29-7.34-7.34,3.29-7.34,7.34-7.34,7.34,3.29,7.34,7.34Z"/>
                  <ellipse class="cls-23" cx="580.62" cy="513.87" rx="7.34" ry="7.34" transform="translate(-1.21 1.37) rotate(-.14)"/>
                  <rect class="cls-23" x="576.92" y="413.71" width="7.41" height="100.16"/>
                </g>
              </g>
              <g>
                <rect class="cls-2" x="607.63" y="46.74" width="182.42" height="515.03"/>
                <g>
                  <g>
                    <polygon class="cls-12" points="734.47 101.09 664.57 101.09 650.64 87.17 748.4 87.17 734.47 101.09"/>
                    <polygon class="cls-18" points="748.4 521.21 650.64 521.21 664.57 507.29 734.47 507.29 748.4 521.21"/>
                    <polygon class="cls-10" points="650.64 521.21 650.64 87.17 664.57 101.09 664.57 507.29 650.64 521.21"/>
                    <polygon class="cls-17" points="734.47 507.29 734.47 101.09 748.4 87.17 748.4 521.06 734.47 507.29"/>
                  </g>
                  <rect class="cls-2" x="678.11" y="114.07" width="56.37" height="393.22"/>
                  <g>
                    <rect class="cls-4" x="664.57" y="101.09" width="69.9" height="12.98"/>
                    <rect class="cls-4" x="468.24" y="297.42" width="406.2" height="13.54" transform="translate(975.53 -367.15) rotate(90)"/>
                  </g>
                </g>
                <g>
                  <ellipse class="cls-23" cx="631.09" cy="415.74" rx="7.34" ry="7.34" transform="translate(213.89 1045.86) rotate(-89.87)"/>
                  <ellipse class="cls-23" cx="631.09" cy="513.87" rx="7.34" ry="7.34" transform="translate(-1.2 1.48) rotate(-.13)"/>
                  <rect class="cls-23" x="627.38" y="413.71" width="7.41" height="100.16"/>
                </g>
              </g>
              <g>
                <rect class="cls-2" x="7.62" y="46.42" width="409.84" height="255.48"/>
                <g>
                  <g>
                    <polygon class="cls-12" points="362.36 102.53 62.03 102.53 48.1 88.61 376.29 88.61 362.36 102.53"/>
                    <polygon class="cls-18" points="376.29 261.46 48.1 261.46 62.03 247.54 362.36 247.54 376.29 261.46"/>
                    <polygon class="cls-10" points="48.1 261.46 48.1 88.61 62.03 102.53 62.03 247.54 48.1 261.46"/>
                    <polygon class="cls-17" points="362.36 247.62 362.36 102.53 376.29 88.61 376.29 261.39 362.36 247.62"/>
                  </g>
                  <rect class="cls-2" x="62.03" y="102.53" width="300.33" height="145.02"/>
                </g>
                <g>
                  <ellipse class="cls-23" cx="163.1" cy="280.64" rx="7.34" ry="7.34"/>
                  <ellipse class="cls-23" cx="261.29" cy="280.64" rx="7.34" ry="7.34"/>
                  <rect class="cls-23" x="207.48" y="230.53" width="7.41" height="100.22" transform="translate(-69.46 491.82) rotate(-90)"/>
                </g>
                <g>
                  <rect class="cls-4" x="62.03" y="102.58" width="300.33" height="12.98"/>
                  <rect class="cls-4" x="-3.69" y="168.29" width="144.97" height="13.54" transform="translate(243.86 106.26) rotate(90)"/>
                </g>
              </g>
              <g>
                <rect class="cls-2" x="1212.21" y="46.42" width="409.84" height="255.48"/>
                <g>
                  <g>
                    <polygon class="cls-12" points="1566.94 102.53 1266.61 102.53 1252.68 88.61 1580.87 88.61 1566.94 102.53"/>
                    <polygon class="cls-18" points="1580.87 261.46 1252.68 261.46 1266.61 247.54 1566.94 247.54 1580.87 261.46"/>
                    <polygon class="cls-10" points="1252.68 261.46 1252.68 88.61 1266.61 102.53 1266.61 247.54 1252.68 261.46"/>
                    <polygon class="cls-17" points="1566.94 247.62 1566.94 102.53 1580.87 88.61 1580.87 261.39 1566.94 247.62"/>
                  </g>
                  <rect class="cls-2" x="1266.61" y="102.53" width="300.33" height="145.02"/>
                </g>
                <g>
                  <path class="cls-23" d="M1367.68,273.3c4.06,0,7.34,3.29,7.34,7.34s-3.29,7.34-7.34,7.34-7.34-3.29-7.34-7.34,3.29-7.34,7.34-7.34Z"/>
                  <path class="cls-23" d="M1465.87,273.3c4.06,0,7.34,3.29,7.34,7.34s-3.29,7.34-7.34,7.34-7.34-3.29-7.34-7.34,3.29-7.34,7.34-7.34Z"/>
                  <rect class="cls-23" x="1412.06" y="230.53" width="7.41" height="100.22" transform="translate(1135.12 1696.41) rotate(-90)"/>
                </g>
                <g>
                  <rect class="cls-4" x="1266.61" y="102.58" width="300.33" height="12.98"/>
                  <rect class="cls-4" x="1200.9" y="168.29" width="144.97" height="13.54" transform="translate(1448.44 -1098.32) rotate(90)"/>
                </g>
              </g>
              <g>
                <g>
                  <rect class="cls-2" x="7.62" y="306.29" width="409.84" height="255.48"/>
                  <g>
                    <g>
                      <polygon class="cls-12" points="362.36 362.39 62.03 362.39 48.1 348.48 376.29 348.48 362.36 362.39"/>
                      <polygon class="cls-18" points="376.29 521.33 48.1 521.33 62.03 507.41 362.36 507.41 376.29 521.33"/>
                      <polygon class="cls-10" points="48.1 521.33 48.1 348.48 62.03 362.39 62.03 507.41 48.1 521.33"/>
                      <polygon class="cls-17" points="362.36 507.48 362.36 362.39 376.29 348.48 376.29 521.26 362.36 507.48"/>
                    </g>
                    <rect class="cls-14" x="62.03" y="362.39" width="300.33" height="145.02"/>
                  </g>
                  <g>
                    <ellipse class="cls-23" cx="163.1" cy="540.51" rx="7.34" ry="7.34"/>
                    <ellipse class="cls-23" cx="261.29" cy="540.51" rx="7.34" ry="7.34"/>
                    <rect class="cls-23" x="207.48" y="490.4" width="7.41" height="100.22" transform="translate(-329.33 751.69) rotate(-90)"/>
                  </g>
                </g>
                <g class="cls-31">
                  <polygon class="cls-4" points="82.22 507.41 227.23 362.39 309.65 362.39 164.65 507.41 82.22 507.41"/>
                </g>
                <g class="cls-31">
                  <polygon class="cls-4" points="212.75 507.41 357.78 362.39 362.36 362.39 362.36 401.58 256.39 507.49 212.75 507.41"/>
                </g>
              </g>
            </g>
            <g>
              <rect class="cls-23" x="814.49" y="673.54" width="695.36" height="8.58" rx="3.81" ry="3.81"/>
              <ellipse class="cls-23" cx="843.74" cy="677.83" rx="13.04" ry="13.03" transform="translate(-.9 1.12) rotate(-.08)"/>
              <ellipse class="cls-23" cx="1478.91" cy="677.83" rx="13.04" ry="13.03" transform="translate(-.91 1.98) rotate(-.08)"/>
              <ellipse class="cls-16" cx="843.74" cy="677.83" rx="7.05" ry="7.04" transform="translate(-1.68 2.09) rotate(-.14)"/>
              <ellipse class="cls-16" cx="1478.91" cy="677.83" rx="7.05" ry="7.04" transform="translate(-1.68 3.68) rotate(-.14)"/>
              <rect class="cls-16" x="901.27" y="664.8" width="6.52" height="45.04"/>
              <g>
                <path class="cls-8" d="M933.76,916.16l-6.62-59.63c-.25-2.14-1.17-4.14-2.65-5.71l-10.27-10.3v-135.77c0-2.65-1.07-5.04-2.81-6.78-1.73-1.73-4.13-2.8-6.78-2.8-5.29,0-9.59,4.29-9.59,9.58v135.77l-10.45,10.4c-1.44,1.5-2.38,3.42-2.67,5.47l-8.38,59.48c-.83,5.92,3.76,11.21,9.76,11.21h40.69c5.86,0,10.42-5.09,9.78-10.93Zm-40.64-3.1c0,1.32-1.07,2.4-2.4,2.4s-2.4-1.08-2.4-2.4v-49.05c0-1.33,1.07-2.4,2.4-2.4,.66,0,1.26,.27,1.7,.7,.43,.44,.7,1.04,.7,1.7v49.05Zm13.9,0c0,1.32-1.07,2.4-2.4,2.4s-2.4-1.08-2.4-2.4v-49.05c0-1.33,1.07-2.4,2.4-2.4,.66,0,1.26,.27,1.7,.7,.43,.44,.7,1.04,.7,1.7v49.05Zm11.99,0c0,1.32-1.07,2.4-2.4,2.4s-2.4-1.08-2.4-2.4v-49.05c0-1.33,1.07-2.4,2.4-2.4,.66,0,1.26,.27,1.7,.7,.43,.44,.7,1.04,.7,1.7v49.05Z"/>
                <path class="cls-25" d="M914.22,704.75v47.33h-19.17v-47.33c0-5.29,4.29-9.58,9.59-9.58,2.65,0,5.05,1.07,6.78,2.8,1.73,1.73,2.81,4.13,2.81,6.78Z"/>
              </g>
              <path class="cls-16" d="M910.1,709.84c0,3.07-2.49,5.57-5.57,5.57s-5.57-2.49-5.57-5.57,2.49-5.57,5.57-5.57,5.57,2.49,5.57,5.57Z"/>
              <rect class="cls-16" x="988.39" y="664.8" width="6.52" height="45.04"/>
              <rect class="cls-16" x="1075.51" y="664.8" width="6.52" height="45.04"/>
              <rect class="cls-16" x="1162.63" y="664.8" width="6.52" height="45.04"/>
              <rect class="cls-16" x="1249.75" y="664.8" width="6.52" height="45.04"/>
              <g>
                <path class="cls-8" d="M1001.22,840.14h.11v-135.39c0-2.65-1.07-5.04-2.81-6.78-1.74-1.73-4.13-2.8-6.78-2.8-5.29,0-9.59,4.29-9.59,9.58v135.31c-8.74,6.88-14.87,22.97-14.87,41.73,0,25.02,10.91,45.29,24.36,45.29s24.36-20.28,24.36-45.29c0-18.69-6.09-34.74-14.78-41.66Z"/>
                <g class="cls-32">
                  <path class="cls-25" d="M1016,881.8c0,25.02-10.91,45.29-24.36,45.29-7.84,0-14.83-6.9-19.28-17.61,3,2.44,6.31,3.81,9.79,3.81,13.45,0,24.36-20.28,24.36-45.29,0-10.43-1.89-20.03-5.09-27.69,8.58,7,14.58,22.95,14.58,41.49Z"/>
                </g>
                <path class="cls-25" d="M1001.33,704.75v47.33h-19.17v-47.33c0-5.29,4.29-9.58,9.59-9.58,2.65,0,5.05,1.07,6.78,2.8,1.73,1.73,2.81,4.13,2.81,6.78Z"/>
              </g>
              <g>
                <path class="cls-8" d="M1175.57,844.88v-140.13c0-2.65-1.07-5.04-2.81-6.78-1.73-1.73-4.13-2.8-6.78-2.8-5.3,0-9.59,4.29-9.59,9.58v140.05c-13.36,5.02-23.09,20.34-23.09,38.48,0,22.21,14.58,40.22,32.57,40.22s32.57-18.01,32.57-40.22c0-18.05-9.63-33.32-22.88-38.41Zm13.91,30.53c0,2.43-1.97,4.41-4.41,4.41s-4.41-1.97-4.41-4.41,1.97-4.41,4.41-4.41,4.41,1.97,4.41,4.41Zm-25.93-7.88c1.49-1.93,4.26-2.29,6.19-.8,1.93,1.49,2.29,4.25,.8,6.18-1.49,1.93-4.26,2.29-6.19,.8-1.93-1.49-2.29-4.25-.8-6.18Zm-8.4-13.01c2.44,0,4.41,1.97,4.41,4.41s-1.97,4.41-4.41,4.41-4.41-1.97-4.41-4.41,1.97-4.41,4.41-4.41Zm-15.53,23.76c0-2.43,1.97-4.41,4.41-4.41s4.41,1.97,4.41,4.41-1.97,4.41-4.41,4.41-4.41-1.97-4.41-4.41Zm6.52,20.81c-2.44,0-4.41-1.97-4.41-4.41s1.97-4.41,4.41-4.41,4.41,1.97,4.41,4.41-1.97,4.41-4.41,4.41Zm9.01,15.33c-2.44,0-4.41-1.97-4.41-4.41s1.97-4.41,4.41-4.41,4.41,1.97,4.41,4.41-1.97,4.41-4.41,4.41Zm5.75-23.66c-2.44,0-4.41-1.97-4.41-4.41s1.97-4.41,4.41-4.41,4.41,1.97,4.41,4.41-1.97,4.41-4.41,4.41Zm8.82,12.74c-2.44,0-4.41-1.97-4.41-4.41s1.97-4.41,4.41-4.41,4.41,1.97,4.41,4.41-1.97,4.41-4.41,4.41Zm8.82-50.32c2.44,0,4.41,1.97,4.41,4.41s-1.97,4.41-4.41,4.41-4.41-1.97-4.41-4.41,1.97-4.41,4.41-4.41Zm.77,61.24c-2.44,0-4.41-1.97-4.41-4.41s1.97-4.41,4.41-4.41,4.41,1.97,4.41,4.41-1.97,4.41-4.41,4.41Zm4.99-19.26c-2.44,0-4.41-1.97-4.41-4.41s1.97-4.41,4.41-4.41,4.41,1.97,4.41,4.41-1.97,4.41-4.41,4.41Z"/>
                <path class="cls-25" d="M1175.57,704.75v47.33h-19.17v-47.33c0-5.29,4.29-9.58,9.59-9.58,2.65,0,5.05,1.07,6.78,2.8,1.73,1.73,2.81,4.13,2.81,6.78Z"/>
              </g>
              <circle class="cls-16" cx="991.65" cy="709.84" r="5.57"/>
              <circle class="cls-16" cx="1165.89" cy="709.84" r="5.57"/>
              <g>
                <path class="cls-8" d="M1103.38,916.02l-1.93-59.63c-.25-2.14-1.17-4.14-2.65-5.71l-10.27-10.3v-135.77c0-2.65-1.07-5.04-2.81-6.78-1.73-1.73-4.13-2.8-6.78-2.8-5.29,0-9.59,4.29-9.59,9.58v135.77l-10.45,10.4c-1.44,1.5-2.38,3.42-2.67,5.47l-2.87,59.48c-.83,5.92,3.76,11.21,9.76,11.21h30.49c5.86,0,10.42-5.09,9.78-10.93Z"/>
                <path class="cls-25" d="M1088.53,704.61v47.33h-19.17v-47.33c0-5.29,4.29-9.58,9.59-9.58,2.65,0,5.05,1.07,6.78,2.8,1.73,1.73,2.81,4.13,2.81,6.78Z"/>
                <g class="cls-32">
                  <path class="cls-25" d="M1103.38,916.01l-1.93-59.63c-.25-2.14-1.17-4.14-2.65-5.71l-4.92-4.93c.19,.59,.33,1.2,.39,1.82l1.93,59.63c.64,5.84-3.92,10.93-9.78,10.93h-30.49c-.92,0-1.81-.12-2.66-.36,.33,5.04,4.54,9.18,9.83,9.18h30.49c5.86,0,10.42-5.09,9.78-10.93Z"/>
                </g>
              </g>
              <path class="cls-16" d="M1084.34,709.84c0,3.07-2.49,5.57-5.57,5.57s-5.57-2.49-5.57-5.57,2.49-5.57,5.57-5.57,5.57,2.49,5.57,5.57Z"/>
              <g>
                <path class="cls-8" d="M1276.11,864.1c0-16.48-12.92-23.72-12.92-23.72v-135.77c0-2.65-1.07-5.04-2.81-6.78-1.74-1.73-4.13-2.8-6.78-2.8-5.29,0-9.59,4.29-9.59,9.58v135.77s-13.12,8.01-13.12,22.96c0,31.83,14.01,60.17,14.01,60.17,0,0-2.37-48.1,1.73-61.52,1.4-4.58,13.14-4.71,14,0,2.18,11.88,3.84,61.52,3.84,61.52,0,0,11.65-26.25,11.65-59.41Z"/>
                <path class="cls-25" d="M1263.19,704.61v47.33h-19.17v-47.33c0-5.29,4.29-9.58,9.59-9.58,2.65,0,5.05,1.07,6.78,2.8,1.73,1.73,2.81,4.13,2.81,6.78Z"/>
              </g>
              <path class="cls-16" d="M1258.58,709.84c0,3.07-2.49,5.57-5.57,5.57s-5.57-2.49-5.57-5.57,2.49-5.57,5.57-5.57,5.57,2.49,5.57,5.57Z"/>
            </g>
            <g>
              <rect class="cls-24" x="41.64" y="713.94" width="385.22" height="25.91"/>
              <g>
                <rect class="cls-7" x="88.29" y="638.3" width="45.29" height="8.49"/>
                <path class="cls-26" d="M87.87,629.91h46.31c2.2,0,3.98,1.78,3.98,3.98v.43c0,2.2-1.78,3.98-3.98,3.98h-46.31c-2.2,0-3.98-1.78-3.98-3.98v-.44c0-2.2,1.78-3.98,3.98-3.98Z"/>
                <path class="cls-18" d="M140.66,701.47c0,6.78-5.89,12.46-13.36,12.46h-32.56c-7.46,0-13.35-5.67-13.35-12.46,0-.5,.02-.99,.09-1.5l6.79-53.19h45.31l1.49,11.34,3.14,23.96,2.34,17.85c.07,.52,.1,1.02,.1,1.54Z"/>
                <polygon class="cls-12" points="138.22 682.09 101.06 682.09 101.06 658.13 135.07 658.13 138.22 682.09"/>
              </g>
              <g>
                <rect class="cls-27" x="153.87" y="638.3" width="45.29" height="8.49"/>
                <path class="cls-26" d="M153.45,629.91h46.31c2.2,0,3.98,1.78,3.98,3.98v.43c0,2.2-1.78,3.98-3.98,3.98h-46.31c-2.2,0-3.98-1.78-3.98-3.98v-.44c0-2.2,1.78-3.98,3.98-3.98Z"/>
                <path class="cls-15" d="M206.24,701.47c0,6.78-5.89,12.46-13.36,12.46h-32.56c-7.46,0-13.35-5.67-13.35-12.46,0-.5,.02-.99,.09-1.5l6.79-53.19h45.31l1.49,11.34,3.14,23.96,2.34,17.85c.07,.52,.1,1.02,.1,1.54Z"/>
                <polygon class="cls-6" points="203.8 682.09 166.64 682.09 166.64 658.13 200.65 658.13 203.8 682.09"/>
              </g>
              <g>
                <rect class="cls-27" x="257.71" y="638.3" width="45.29" height="8.49"/>
                <path class="cls-26" d="M257.29,629.91h46.31c2.2,0,3.98,1.78,3.98,3.98v.44c0,2.2-1.78,3.98-3.98,3.98h-46.31c-2.2,0-3.98-1.78-3.98-3.98v-.43c0-2.2,1.78-3.98,3.98-3.98Z"/>
                <path class="cls-15" d="M310.08,701.47c0,6.78-5.89,12.46-13.36,12.46h-32.56c-7.46,0-13.35-5.67-13.35-12.46,0-.5,.02-.99,.09-1.5l6.79-53.19h45.31l1.49,11.34,3.14,23.96,2.34,17.85c.07,.52,.1,1.02,.1,1.54Z"/>
                <polygon class="cls-6" points="307.63 682.09 270.48 682.09 270.48 658.13 304.49 658.13 307.63 682.09"/>
              </g>
              <g>
                <rect class="cls-7" x="330.81" y="638.3" width="45.29" height="8.49"/>
                <rect class="cls-26" x="326.41" y="629.91" width="54.27" height="8.39" rx="3.98" ry="3.98"/>
                <path class="cls-18" d="M383.18,701.47c0,6.78-5.89,12.46-13.36,12.46h-32.56c-7.46,0-13.35-5.67-13.35-12.46,0-.5,.02-.99,.09-1.5l6.79-53.19h45.31l1.49,11.34,3.14,23.96,2.34,17.85c.07,.52,.1,1.02,.1,1.54Z"/>
                <polygon class="cls-12" points="380.73 682.09 343.58 682.09 343.58 658.13 377.59 658.13 380.73 682.09"/>
              </g>
            </g>
            <g>
              <rect class="cls-20" x="430.81" y="942.29" width="346.8" height="11.11"/>
              <g>
                <g>
                  <rect class="cls-20" x="485.77" y="926.5" width="8.44" height="16.3"/>
                  <rect class="cls-20" x="497.25" y="915.01" width="7.14" height="30.11" transform="translate(1430.89 429.25) rotate(90)"/>
                  <rect class="cls-20" x="573.02" y="926.5" width="8.44" height="16.3" transform="translate(1154.47 1869.29) rotate(180)"/>
                  <rect class="cls-20" x="562.83" y="915.01" width="7.14" height="30.11" transform="translate(1496.47 363.67) rotate(90)"/>
                </g>
                <rect class="cls-20" x="528.24" y="926.5" width="9.92" height="16.3"/>
              </g>
              <g>
                <g>
                  <rect class="cls-20" x="632.98" y="926.5" width="8.44" height="16.3"/>
                  <rect class="cls-20" x="644.46" y="915.01" width="7.14" height="30.11" transform="translate(1578.1 282.03) rotate(90)"/>
                  <rect class="cls-20" x="720.23" y="926.5" width="8.44" height="16.3" transform="translate(1448.9 1869.29) rotate(180)"/>
                  <rect class="cls-20" x="710.04" y="915.01" width="7.14" height="30.11" transform="translate(1643.68 216.45) rotate(90)"/>
                </g>
                <rect class="cls-20" x="675.45" y="926.5" width="9.92" height="16.3"/>
              </g>
            </g>
            <g>
              <g>
                <path class="cls-19" d="M590.39,925.98h-127.24c-11.05,0-20.01-8.95-20.01-20v-86.28h167.25v86.28c0,11.04-8.96,20-20.01,20Z"/>
                <g>
                  <path class="cls-21" d="M522.97,778.31c-10.44,1.97-17.91,11.76-17.07,22.35,.28,3.57,1.43,6.83,3.21,9.63l10.14-1.34c-2.82-2.17-4.7-5.52-4.87-9.44-.25-5.85,3.77-11.23,9.46-12.65,7.42-1.85,14.56,3.16,15.53,10.51,.45,3.42-.51,6.69-2.45,9.24l10.14-1.34c.88-2.83,1.18-5.88,.77-9.02-1.58-11.93-12.85-20.21-24.85-17.94Z"/>
                  <path class="cls-19" d="M613.34,798.15l-165.8,21.94c-.38-2.87,.43-5.62,2.07-7.74,1.64-2.13,4.07-3.64,6.94-4.02l145.03-19.19c5.74-.76,11,3.28,11.76,9.02Z"/>
                </g>
                <rect class="cls-21" x="443.15" y="815.75" width="167.25" height="3.96"/>
                <g class="cls-29">
                  <path class="cls-27" d="M610.4,819.7v83.72c0,12.46-10.1,22.56-22.57,22.56h-31.17c12.47,0,22.57-10.1,22.57-22.56v-83.72h31.17Z"/>
                </g>
                <g class="cls-29">
                  <path class="cls-27" d="M613.3,798.25l-30.88,3.97-1.34-10.4,20.49-2.64c5.74-.74,10.99,3.32,11.73,9.06Z"/>
                </g>
              </g>
              <g class="cls-31">
                <path class="cls-9" d="M466.53,896.42h-1.32c-5.69,0-10.3-4.61-10.3-10.29v-66.42h11.62v76.71Z"/>
              </g>
            </g>
            <g>
              <rect class="cls-23" x="1302.12" y="758.46" width="301.75" height="8.58" rx="3.81" ry="3.81"/>
              <ellipse class="cls-23" cx="1331.37" cy="762.75" rx="13.04" ry="13.03" transform="translate(-1.01 1.77) rotate(-.08)"/>
              <ellipse class="cls-23" cx="1574.23" cy="762.75" rx="13.04" ry="13.03" transform="translate(-1.01 2.09) rotate(-.08)"/>
              <ellipse class="cls-16" cx="1331.37" cy="762.75" rx="7.05" ry="7.04"/>
              <ellipse class="cls-16" cx="1574.23" cy="762.75" rx="7.05" ry="7.04"/>
              <rect class="cls-16" x="1377.4" y="750.48" width="6.52" height="45.04"/>
              <g>
                <path class="cls-27" d="M1359.52,783.47l19.93,19.98c2.12,2.12,3.88,4.45,5.29,6.92,1.53,2.66,2.65,5.49,3.38,8.4,2.7,10.88-.21,22.86-8.73,31.35-12.92,12.87-33.83,12.84-46.7-.07l-19.93-19.98,46.77-46.6Z"/>
                <path class="cls-27" d="M1364.04,788l-.16,.16c-7.59,7.56-7.53,19.93,.14,27.62,6.57,6.58,16.58,7.6,24.1,3,1.27-.77,2.44-1.69,3.54-2.78,7.6-7.57,7.53-19.93-.14-27.62-7.62-7.63-19.87-7.79-27.48-.37Zm21.39,21.75c-.22,.22-.46,.44-.69,.62-1.41-2.47-3.17-4.8-5.29-6.92l-9.17-9.19c4.18-4.02,10.9-3.91,15.07,.27,4.22,4.23,4.26,11.06,.08,15.23Z"/>
                <path class="cls-27" d="M1370.28,794.25l9.17,9.19c2.12,2.12,3.88,4.45,5.29,6.92-4.21,3.54-10.55,3.26-14.55-.75-4.22-4.23-4.27-11.06-.08-15.23,.05-.05,.1-.1,.17-.15Z"/>
              </g>
              <path class="cls-16" d="M1386.23,795.52c0,3.07-2.49,5.57-5.57,5.57s-5.57-2.49-5.57-5.57,2.49-5.57,5.57-5.57,5.57,2.49,5.57,5.57Z"/>
              <rect class="cls-16" x="1459.8" y="750.48" width="6.52" height="45.04"/>
              <g>
                <path class="cls-26" d="M1442.49,783.47l19.93,19.98c2.12,2.12,3.88,4.45,5.29,6.92,1.53,2.66,2.65,5.49,3.38,8.4,2.7,10.88-.21,22.86-8.73,31.35-12.92,12.87-33.83,12.84-46.7-.07l-19.93-19.98,46.77-46.6Z"/>
                <path class="cls-26" d="M1447.02,788l-.16,.16c-7.59,7.56-7.53,19.93,.14,27.62,6.57,6.58,16.58,7.6,24.1,3,1.27-.77,2.44-1.69,3.54-2.78,7.6-7.57,7.53-19.93-.14-27.62-7.62-7.63-19.87-7.79-27.48-.37Zm21.39,21.75c-.22,.22-.46,.44-.69,.62-1.41-2.47-3.17-4.8-5.29-6.92l-9.17-9.19c4.18-4.02,10.9-3.91,15.07,.27,4.22,4.23,4.26,11.06,.08,15.23Z"/>
                <path class="cls-26" d="M1453.25,794.25l9.17,9.19c2.12,2.12,3.88,4.45,5.29,6.92-4.21,3.54-10.55,3.26-14.55-.75-4.22-4.23-4.27-11.06-.08-15.23,.05-.05,.1-.1,.17-.15Z"/>
              </g>
              <path class="cls-16" d="M1468.63,795.52c0,3.07-2.49,5.57-5.57,5.57s-5.57-2.49-5.57-5.57,2.49-5.57,5.57-5.57,5.57,2.49,5.57,5.57Z"/>
              <rect class="cls-16" x="1540.88" y="750.48" width="6.52" height="45.04"/>
              <g>
                <path class="cls-15" d="M1525.16,783.47l19.93,19.98c2.12,2.12,3.88,4.45,5.29,6.92,1.53,2.66,2.65,5.49,3.38,8.4,2.7,10.88-.21,22.86-8.73,31.35-12.92,12.87-33.83,12.84-46.7-.07l-19.93-19.98,46.77-46.6Z"/>
                <path class="cls-15" d="M1529.69,788l-.16,.16c-7.59,7.56-7.53,19.93,.14,27.62,6.57,6.58,16.58,7.6,24.1,3,1.27-.77,2.44-1.69,3.54-2.78,7.6-7.57,7.53-19.93-.14-27.62-7.62-7.63-19.87-7.79-27.48-.37Zm21.39,21.75c-.22,.22-.46,.44-.69,.62-1.41-2.47-3.17-4.8-5.29-6.92l-9.17-9.19c4.18-4.02,10.9-3.91,15.07,.27,4.22,4.23,4.26,11.06,.08,15.23Z"/>
                <path class="cls-15" d="M1535.92,794.25l9.17,9.19c2.12,2.12,3.88,4.45,5.29,6.92-4.21,3.54-10.55,3.26-14.55-.75-4.22-4.23-4.27-11.06-.08-15.23,.05-.05,.1-.1,.17-.15Z"/>
              </g>
              <path class="cls-16" d="M1549.71,795.52c0,3.07-2.49,5.57-5.57,5.57s-5.57-2.49-5.57-5.57,2.49-5.57,5.57-5.57,5.57,2.49,5.57,5.57Z"/>
            </g>
            <g>
              <rect class="cls-23" x="1209" y="304.36" width="413.06" height="257.41"/>
              <rect class="cls-20" x="1236.22" y="332.88" width="286.92" height="201.22"/>
              <rect class="cls-14" x="1240.99" y="339.58" width="277.39" height="189.34"/>
              <g class="cls-31">
                <polygon class="cls-4" points="1503.22 339.58 1314.34 528.92 1240.99 528.92 1240.99 494.1 1395.13 339.58 1503.22 339.58"/>
              </g>
              <g class="cls-31">
                <polygon class="cls-4" points="1518.39 387.64 1518.39 445.14 1434.76 528.92 1377.42 528.92 1518.39 387.64"/>
              </g>
              <rect class="cls-20" x="1546.39" y="304.36" width="3.76" height="257.41"/>
              <rect class="cls-20" x="1561.65" y="332.88" width="51.65" height="21.85"/>
              <ellipse class="cls-18" cx="1586.38" cy="511.96" rx="22.1" ry="22.13"/>
              <path class="cls-20" d="M1586.38,488.14c-13.11,0-23.78,10.69-23.78,23.82s10.67,23.82,23.78,23.82,23.78-10.69,23.78-23.82-10.67-23.82-23.78-23.82Zm0,44.27c-11.25,0-20.41-9.17-20.41-20.45,0-3.52,.89-6.84,2.47-9.73l15.15,11.1c.3,.22,.65,.33,.99,.33,.52,0,1.03-.24,1.36-.69,.55-.75,.39-1.81-.37-2.36l-15.27-11.19c3.74-4.79,9.55-7.89,16.08-7.89,11.25,0,20.41,9.17,20.41,20.45s-9.16,20.45-20.41,20.45Z"/>
              <g>
                <rect class="cls-18" x="1561.65" y="369.86" width="20.91" height="9.64"/>
                <rect class="cls-18" x="1561.65" y="388.49" width="20.91" height="9.64"/>
                <rect class="cls-18" x="1592.4" y="369.86" width="20.91" height="9.64"/>
                <rect class="cls-18" x="1592.4" y="388.49" width="20.91" height="9.64"/>
                <rect class="cls-18" x="1561.65" y="407.12" width="20.91" height="9.64"/>
                <rect class="cls-18" x="1561.65" y="425.75" width="20.91" height="9.64"/>
                <rect class="cls-18" x="1592.4" y="407.12" width="20.91" height="9.64"/>
                <rect class="cls-18" x="1592.4" y="425.75" width="20.91" height="9.64"/>
              </g>
            </g>
            <g>
              <rect class="cls-20" x="419.98" y="1094.16" width="372.26" height="368.05"/>
              <rect x="441.27" y="1142" width="326.76" height="285.6"/>
              <rect class="cls-23" x="446.62" y="1148.23" width="316.07" height="275.81"/>
              <g class="cls-33">
                <polygon class="cls-22" points="446.62 1365.58 664.62 1148.23 762.69 1148.23 486.05 1424.04 446.62 1424.04 446.62 1365.58"/>
              </g>
              <g class="cls-33">
                <polygon class="cls-22" points="563.28 1423.98 762.69 1225.17 762.69 1293.5 631.46 1424.04 563.28 1423.98"/>
              </g>
              <polygon class="cls-22" points="446.64 1256.25 554.22 1148.44 578.02 1148.44 446.62 1279.76 446.64 1256.25"/>
              <g class="cls-33">
                <rect class="cls-17" x="468.56" y="1113.1" width="271.3" height="13.09"/>
              </g>
              <polygon class="cls-22" points="608.07 1126.12 593.38 1126.12 578.79 1112.93 608.07 1112.93 608.07 1126.12"/>
              <rect class="cls-20" x="570.85" y="1126.16" width="136.72" height="237.72"/>
              <g>
                <polygon class="cls-5" points="578.43 1126.19 578.43 1349.41 710.6 1349.41 710.6 1126.12 578.43 1126.19"/>
                <path class="cls-6" d="M723.88,1357.88h-124.7c.19-4.58,.39-9.16,.6-13.75,4.54-103.29,10.56-207.14,6.63-217.45-.03-.09-.08-.19-.13-.29-2.4-6.05-6.96-9.34-11.69-11.12-9.27-3.49-19.15-1.2-14.68-2.61,3.4-1.08,7.85-2.05,13.07-2.91,4.34-.72,9.23-1.35,14.48-1.9,8.2-.86,17.31-1.5,26.73-1.92,4.92-.22,9.92-.38,14.91-.48,9.34-.17,18.67-.11,27.43,.18,5.38,.18,10.55,.46,15.35,.82,7.86,.61,14.79,1.48,20.21,2.62,3.74,.79,8.85,6.35,11.08,10.92,.01,.01,.01,.02,.01,.03,.3,.58,.53,1.16,.71,1.7,1.07,3.15,1.89,8.36,2.53,15.17,.02,.11,.03,.23,.05,.33,.77,8.6,1.27,19.7,1.54,32.34,0,.01-.01,.03,0,.05,1.49,70.37-4.12,188.27-4.12,188.27Z"/>
                <path class="cls-13" d="M656.87,1187.17c-3.83,39.92-8.72,98.18-16.01,170.71h-15.08c7.29-72.52,12.2-130.79,16.02-170.71,1.39-14.47,4.06-41.29-5.26-73.7-.76-2.62-1.55-5.13-2.36-7.54,4.92-.22,9.92-.38,14.91-.48,.87,2.55,1.72,5.22,2.52,8.02,9.32,32.42,6.66,59.24,5.26,73.7Z"/>
                <path class="cls-13" d="M699.31,1187.17c-3.83,39.92-8.72,98.18-16.01,170.71h-15.07c7.29-72.52,12.18-130.79,16.01-170.71,1.4-14.47,4.06-41.29-5.26-73.7-.78-2.73-1.6-5.34-2.46-7.84,5.38,.18,10.55,.46,15.35,.82,.76,2.25,1.49,4.58,2.19,7.01,9.32,32.42,6.66,59.24,5.26,73.7Z"/>
                <path class="cls-13" d="M723.88,1357.88h-13.2c7.29-72.52,12.18-130.79,16.01-170.71,.45-4.65,1.03-10.58,1.31-17.56,1.49,70.37-4.12,188.27-4.12,188.27Z"/>
                <path class="cls-13" d="M614.42,1187.17c-3.58,37.37-8.1,90.81-14.65,156.96,4.54-103.29,10.56-207.14,6.63-217.45-.03-.09-.08-.19-.13-.29-2.4-6.05-6.96-9.34-11.69-11.12-9.27-3.49-19.15-1.2-14.68-2.61,3.4-1.08,7.85-2.05,13.07-2.91,4.34-.72,9.23-1.35,14.48-1.9,.58,1.81,1.16,3.69,1.72,5.61,9.32,32.42,6.66,59.24,5.26,73.7Z"/>
              </g>
              <g>
                <rect class="cls-20" x="419.98" y="990.85" width="372.26" height="99.3"/>
                <rect x="570.85" y="1022.24" width="75.51" height="19.55"/>
                <rect class="cls-22" x="570.85" y="1056.22" width="20.54" height="5.81"/>
                <rect class="cls-22" x="598.38" y="1056.22" width="20.54" height="5.81"/>
                <rect class="cls-22" x="625.9" y="1056.22" width="20.54" height="5.81"/>
                <g>
                  <g class="cls-33">
                    <path class="cls-22" d="M510.62,1040.87c0,11.38-9.24,20.61-20.63,20.61s-20.64-9.23-20.64-20.61,8.34-19.69,18.95-20.56c.55-.05,1.12-.07,1.69-.07s1.14,.02,1.69,.07c10.6,.87,18.94,9.74,18.94,20.56Z"/>
                  </g>
                  <path d="M491.68,1020.31v17.42c0,.93-.75,1.69-1.69,1.69s-1.69-.75-1.69-1.69v-17.42c.55-.05,1.12-.07,1.69-.07s1.14,.02,1.69,.07Z"/>
                </g>
                <g>
                  <g class="cls-33">
                    <path class="cls-22" d="M749.29,1040.87c0,11.38-9.24,20.61-20.63,20.61s-20.63-9.23-20.63-20.61,8.33-19.69,18.94-20.56c.55-.05,1.12-.07,1.69-.07s1.14,.02,1.69,.07c10.6,.87,18.94,9.74,18.94,20.56Z"/>
                  </g>
                  <path d="M730.36,1020.31v17.42c0,.93-.75,1.69-1.69,1.69s-1.69-.75-1.69-1.69v-17.42c.55-.05,1.12-.07,1.69-.07s1.14,.02,1.69,.07Z"/>
                </g>
              </g>
              <rect x="419.98" y="1090.14" width="372.26" height="4.02"/>
            </g>
            <g>
              <rect class="cls-24" y="953.4" width="1625.74" height="37.45"/>
              <path class="cls-26" d="M1265.92,990.85h-249.34c9.13-4.79,19.45-9.07,21.58-9.95,17.05-7,37.71-12.52,78.91-12.92,20.35-.2,48.03-.31,86.57,6.95,22.28,4.2,44.75,10.23,62.27,15.91Z"/>
              <path class="cls-26" d="M524.24,990.85h-249.34c9.13-4.79,19.45-9.07,21.58-9.95,17.05-7,37.71-12.52,78.91-12.92,20.35-.2,48.03-.31,86.57,6.95,22.28,4.2,44.75,10.23,62.27,15.91Z"/>
              <path class="cls-26" d="M1625.74,965.29v6.17c-14.58-.97-41.42-3.31-77.83-2.73-27.15,.42-36.04,1.58-73.37,3.51-75.15,3.87-112.73,5.8-146.75,1.17-25.74-3.49-66.84-11.71-85.54-20.01h339.19c18.7,4.33,34.25,8.57,44.32,11.89Z"/>
              <path class="cls-26" d="M443.65,953.41h264.98c-9.7,5.17-20.67,9.79-22.93,10.74-18.12,7.56-40.07,13.51-83.87,13.95-21.63,.22-51.04,.34-92-7.5-23.68-4.54-47.56-11.05-66.18-17.18Z"/>
            </g>
          </g>
          <path class="cls-28" d="M598.94,709.84s19.75-78.6-44.99-89.71c-64.74-11.11-73.46,26.66-73.46,26.66,0,0,46.63,16.65,20.33,56.24-26.3,39.59-68.3,7.34-70.01-21.12-54.52,48-148.82-7.45-100-90.91,17.78-30.39,43.03-25.88,104.16-26.88,61.13-1,359.86,0,359.86,0,31.58,0,68.62,36.96,40.18,76.03-28.43,39.08-75.49,23.33-79.76-14.58-4.27,15.55-35.78,41.99-40.34-4.28s-8.45-44.38-26.53-40.46c-18.08,3.91-63.18,59.44-71.54,101.08-8.36,41.64-17.9,27.93-17.9,27.93Z"/>
          <path class="cls-28" d="M663.45,757.44c-10.57,.54-14.58,5.33-15.49,6.66,8.78-13.64,25.92-42.68,26.08-65.47,.34-48.34-74.72-50.38-79.08-8.13-5.64-14.34-27.84-6.32-20.84,10.42,7,16.74,18.62,15.03,24.42,37.75-13.49-11.61-21.62,8.22-9.05,13.32,17.41,7.07,37.69,43.69,23.8,46.28l-130.56,17.49h73.66s72.98-3.66,72.43-22.89c-.55-19.23-17.99-27.51-22.42-36.52-4.43-9.01-8.55-28.01,2.39-37.25,14.12-11.93,29.17,2.43,28.71,16.56-.46,14.12-1.92,32.49,1,42.3,5.36-4.56,23.13-13.08,23.86,1.29,.73,14.37-13.44,15.85-22.18,9.38-.95,17.15-6.25,23.19-29.77,27.14,0,0,35.32,10.3,37.63-8.75,.42-3.45-1.55-5.37-3.29-6.37,5.49,1.93,19.15,5.17,30.87-4.96,6.93-5.98,17.73-39.76-12.16-38.22Z"/>
          <g>
            <path class="cls-1" d="M434.94,765.18c.42,4.45-3.62,8.1-8.1,8.1s-8.1-3.62-8.1-8.1c0-6.88,8.1-25.33,8.1-25.33,0,0,7.45,18.46,8.1,25.33Z"/>
            <path class="cls-1" d="M838.43,589.45c.42,4.45-3.62,8.1-8.1,8.1s-8.1-3.62-8.1-8.1c0-6.88,8.1-25.33,8.1-25.33,0,0,7.45,18.46,8.1,25.33Z"/>
            <path class="cls-1" d="M834.98,707.24c.42,4.45-3.62,8.1-8.1,8.1s-8.1-3.62-8.1-8.1c0-6.88,8.1-25.33,8.1-25.33,0,0,7.45,18.46,8.1,25.33Z"/>
            <path class="cls-1" d="M858.34,775.66c.42,4.45-3.62,8.1-8.1,8.1s-8.1-3.62-8.1-8.1c0-6.88,8.1-25.33,8.1-25.33,0,0,7.45,18.46,8.1,25.33Z"/>
            <path class="cls-1" d="M672.65,589.45c.42,4.45-3.62,8.1-8.1,8.1s-8.1-3.62-8.1-8.1c0-6.88,8.1-25.33,8.1-25.33,0,0,7.45,18.46,8.1,25.33Z"/>
            <path class="cls-1" d="M447.29,589.45c.42,4.45-3.62,8.1-8.1,8.1s-8.1-3.62-8.1-8.1c0-6.88,8.1-25.33,8.1-25.33,0,0,7.45,18.46,8.1,25.33Z"/>
          </g>
        </g>
        <path class="cls-34" d="M558.29,905.35c.36,19.17-6.99,27.73-22.9,23.08-8.45-6.34-12.5-11.66-12.13-15.97-6.45,21.13-12.86,22.95-19.23,5.45-7.41,14.68-17.67,14.03-30.77-1.96,1.12,13.02-3.58,11.86-14.1-3.49-3.36,17.46,3.42,24.76,20.35,21.92,12.67,.87,22.74,3.67,30.2,8.4h30.91c31.35-2.12,19.68-9.86,46.87-11.3,11.97-.64,13.15-12.53,11.81-18.08-3.49,13.91-22.77,14.34-35.24,15.03,5.78-7.33,3.86-15.03-5.77-23.08Z"/>
        <path class="cls-3" d="M599.09,842.03c-7.88,.22,3.42-24.1-4.75-19.64-8.56,4.66-5.13,29.24-15.52,29.86-10.38,.64-9.57-9.98-15.02-27.35-1.83-5.83-7.74-6.98-11.33-.64-4.37,12.35,8.01,54.72-2.56,54.72s.99-40.87-.46-51.26c-.62-4.37-4.86-7.18-9.57-8.98-6.48-2.48-13.84-3.02-13.84-3.02,0,0,46.25-14.4,70.5-8.31,5.78,1.45,10.31,4.07,12.66,8.31-18,0-1.49,26.06-10.12,26.3Z"/>
      </g>
    </g>
  </g>
</svg>