<?xml version="1.0" encoding="UTF-8"?>
<svg id="Vrstva_1" data-name="Vrstva 1" xmlns="http://www.w3.org/2000/svg" viewBox="0 0 470.08 289">
  <defs>
    <style>
      .cls-1 {
        fill: #e4f3ff;
      }

      .cls-2 {
        fill: #64b4ec;
      }

      .cls-3 {
        fill: #989898;
      }

      .cls-4 {
        fill: #b4d9f6;
      }

      .cls-5 {
        fill: #cde6fa;
      }

      .cls-6 {
        fill: #bfbfbf;
      }

      .cls-7 {
        fill: #d9d9d9;
      }

      .cls-8 {
        fill: #9acdf3;
      }

      .cls-9 {
        fill: #81c0ef;
      }
    </style>
  </defs>
  <g id="POCITAC">
    <rect class="cls-6" x="53.64" width="367" height="228" rx="9.76" ry="9.76"/>
    <path class="cls-3" d="M465.39,289H4.69c-2.91,0-4.75-2.41-4.69-4.85,.03-1.25,.04-9.42,.04-9.42l47.74-31.92c3.79-3.11,8.53-4.82,13.44-4.82H412.56c5.2,0,10.22,1.92,14.1,5.39l43.42,31.11s-.03,8.49,0,9.68c.05,2.44-1.81,4.82-4.69,4.82Z"/>
    <path class="cls-7" d="M465.39,279H4.69c-4.39,0-6.36-5.5-2.97-8.29l46.07-37.89c3.79-3.11,8.53-4.82,13.44-4.82H412.56c5.2,0,10.22,1.92,14.1,5.39l41.85,37.45c3.2,2.86,1.17,8.16-3.12,8.16Z"/>
    <g>
      <rect class="cls-2" x="64.64" y="10" width="345" height="208"/>
      <path class="cls-9" d="M95.51,24.56H376.55c2.79,0,5.04,68.32,5.04,71.11v38.37c0,2.79-2.26,71.12-5.04,71.12H95.51c-2.79,0-5.04-68.32-5.04-71.11v-38.37c0-2.79,2.26-71.12,5.04-71.12Z"/>
      <path class="cls-8" d="M126.38,39.13h217.09c5.57,0,10.09,54.06,10.09,59.63v33.91c0,5.57-4.52,59.64-10.09,59.64H126.38c-5.57,0-10.09-54.06-10.09-59.63v-33.91c0-5.57,4.52-59.64,10.09-59.64Z"/>
      <path class="cls-4" d="M157.24,53.69h153.13c8.36,0,15.13,39.81,15.13,48.16v29.45c0,8.36-6.77,48.17-15.13,48.17H157.24c-8.36,0-15.13-39.81-15.13-48.16v-29.45c0-8.36,6.77-48.17,15.13-48.17Z"/>
      <path class="cls-5" d="M188.11,68.25h89.18c11.14,0,20.17,25.55,20.17,36.69v24.99c0,11.14-9.03,36.69-20.17,36.69h-89.18c-11.14,0-20.17-25.55-20.17-36.69v-24.99c0-11.14,9.03-36.69,20.17-36.69Z"/>
      <rect class="cls-1" x="193.77" y="82.82" width="75.66" height="70.97" rx="25.22" ry="25.22"/>
    </g>
    <polygon class="cls-3" points="177.78 249.44 163.94 272.28 310.33 272.28 298.22 249.44 177.78 249.44"/>
  </g>
</svg>