<?xml version="1.0" encoding="UTF-8"?>
<svg id="Vrstva_1" data-name="Vrstva 1" xmlns="http://www.w3.org/2000/svg" viewBox="0 0 758.58 225.08">
  <defs>
    <style>
      .cls-1 {
        fill: #f8ac68;
      }

      .cls-2 {
        fill: #fabf83;
      }

      .cls-3 {
        fill: #ea825d;
      }

      .cls-4 {
        fill: #ffb089;
      }

      .cls-5, .cls-6 {
        fill: #fff;
      }

      .cls-7 {
        fill: #ff9be6;
      }

      .cls-8 {
        fill: #e69456;
      }

      .cls-9 {
        fill: #ff8c5b;
      }

      .cls-10 {
        fill: #ff81e9;
      }

      .cls-11 {
        fill: #9883ef;
      }

      .cls-12 {
        fill: #89eceb;
      }

      .cls-13 {
        fill: #e26dd6;
      }

      .cls-14, .cls-15, .cls-16, .cls-17 {
        fill: #1a1a1a;
      }

      .cls-18 {
        fill: #53e6dc;
      }

      .cls-19 {
        fill: #5c56d7;
      }

      .cls-20 {
        fill: #2bd3c0;
      }

      .cls-21 {
        fill: #846044;
      }

      .cls-22 {
        fill: #7969e9;
      }

      .cls-15 {
        font-size: 28.81px;
      }

      .cls-15, .cls-16, .cls-17 {
        font-family: Cubano-Regular, Cubano;
      }

      .cls-23 {
        letter-spacing: -.05em;
      }

      .cls-24 {
        fill: #635b52;
      }

      .cls-24, .cls-25, .cls-26, .cls-6, .cls-27 {
        fill-rule: evenodd;
      }

      .cls-25 {
        fill: #bbb29c;
      }

      .cls-26 {
        fill: #9c7f5b;
      }

      .cls-27 {
        fill: #674a35;
      }

      .cls-28 {
        fill: none;
        stroke: #1a1a18;
        stroke-miterlimit: 22.93;
        stroke-width: .22px;
      }

      .cls-16 {
        font-size: 38.89px;
      }

      .cls-17 {
        font-size: 45.92px;
      }
    </style>
  </defs>
  <g>
    <rect class="cls-21" y="199.17" width="758.58" height="25.91"/>
    <g>
      <g>
        <path class="cls-10" d="M630.54,185.42l1.31,13.75h119.93l-6.03-18.33c-33.39,7.2-115.21,4.58-115.21,4.58Z"/>
        <polygon class="cls-13" points="626.05 180.45 605.76 184.37 601.83 199.17 631.85 199.17 630.63 186.34 626.05 180.45"/>
        <path class="cls-10" d="M626.05,180.45l4.58,5.89c3.93-73.97-7.2-163-7.2-163,0,0-10.97,102.91-16.11,147.73-.61,5.35-1.15,9.88-1.56,13.31l20.29-3.93Z"/>
        <path class="cls-7" d="M630.63,186.34s81.83,2.62,115.21-4.58c0,0,.26-4.28,.46-11.74,.62-23.81,.56-80.05-10.86-133.17-22.89,.22-104.81,3.51-104.81,3.51-2.18-9.6-7.2-17.02-7.2-17.02,0,0,11.13,89.03,7.2,163Z"/>
        <path class="cls-10" d="M735.44,36.85c2.11-.02,3.73-.02,4.73,.02,0,0-2.62-8.73-8.07-14.18,0,0-60.01-4.15-108.67,.65,0,0,5.02,7.42,7.2,17.02,0,0,81.92-3.29,104.81-3.51Z"/>
      </g>
      <g>
        <path class="cls-9" d="M48.22,185.42l1.31,13.75h119.93l-6.03-18.33c-33.39,7.2-115.21,4.58-115.21,4.58Z"/>
        <polygon class="cls-3" points="43.73 180.45 23.43 184.37 19.51 199.17 49.53 199.17 48.31 186.34 43.73 180.45"/>
        <path class="cls-9" d="M43.73,180.45l4.58,5.89c3.93-73.97-7.2-163-7.2-163,0,0-10.97,102.91-16.11,147.73-.61,5.35-1.15,9.88-1.56,13.31l20.29-3.93Z"/>
        <path class="cls-4" d="M48.31,186.34s81.83,2.62,115.21-4.58c0,0,.26-4.28,.46-11.74,.62-23.81,.56-80.05-10.86-133.17-22.89,.22-104.81,3.51-104.81,3.51-2.18-9.6-7.2-17.02-7.2-17.02,0,0,11.13,89.03,7.2,163Z"/>
        <path class="cls-9" d="M153.12,36.85c2.11-.02,3.73-.02,4.73,.02,0,0-2.62-8.73-8.07-14.18,0,0-60.01-4.15-108.67,.65,0,0,5.02,7.42,7.2,17.02,0,0,81.92-3.29,104.81-3.51Z"/>
      </g>
      <g>
        <path class="cls-1" d="M465.95,188.1l1.34,11.06h120.64l-4.02-14.75c-34.18,5.79-117.96,3.69-117.96,3.69Z"/>
        <polygon class="cls-8" points="461.26 183.36 440.48 186.52 435.08 199.17 467.29 199.17 465.95 188.1 461.26 183.36"/>
        <path class="cls-1" d="M461.26,183.36l4.69,4.74c4.02-59.53-7.37-131.17-7.37-131.17,0,0-11.38,83.94-16.6,119.61-.58,3.99-1.09,7.39-1.5,9.98l20.78-3.16Z"/>
        <path class="cls-2" d="M465.95,188.1s83.78,2.11,117.96-3.69c0,0,.2-2.64,.39-7.32,.73-18.44,1.14-68.65-12.54-114.55l.98-.11c20.55-21,1.79-43.34,1.79-43.34-50.49,2.68-110.81,15.19-110.81,15.19,8.49-1.34,21.45,19.66,16.98,38.87l87.1-10.15-88.66,14.17s-3.35-9.94-7.04-15.08c-3.8-5.29-13.52-5.17-13.52-5.17,0,0,11.39,71.64,7.37,131.17Z"/>
        <path class="cls-1" d="M472.1,62.1c3.69,5.14,7.04,15.08,7.04,15.08l88.66-14.17-87.1,10.15s-2.18-11.67-8.21-17.93c-6.77-7.02-13.91,1.7-13.91,1.7,0,0,9.72-.12,13.52,5.17Z"/>
        <path class="cls-8" d="M472.49,55.23c6.03,6.26,8.21,17.93,8.21,17.93,0,0-3.8-25.36-11.39-27.14-10.04-2.36-10.72,10.92-10.72,10.92,0,0,7.14-8.72,13.91-1.7Z"/>
        <path class="cls-1" d="M469.3,46.02c7.6,1.79,11.39,27.14,11.39,27.14,4.47-19.21-8.49-40.21-16.98-38.87-8.49,1.34-5.14,22.64-5.14,22.64,0,0,.68-13.28,10.72-10.92Z"/>
      </g>
      <g>
        <path class="cls-22" d="M379.12,179.89L375.64,0s-50.23,73.99-47.74,176.47c.03,1.16,.05,2.31,.1,3.48,3.29-1.48,27.67-.94,51.13-.05Z"/>
        <path class="cls-11" d="M379.12,179.89c23.24,.89,45.56,2.13,45.56,2.13,0,0,.04-1.98,.04-5.51-.04-24.68-2.51-125.48-39.27-163.01,0,0,11.56,1.21,22.42,16.26,0,0,1.4-21.45-32.23-29.76l3.48,179.89Z"/>
        <path class="cls-19" d="M379.12,179.89c-23.45-.89-47.83-1.42-51.13,.05,0,0-2.41,14.06-2.41,19.22h99.14s2.95-11.55-.04-17.15c0,0-22.33-1.24-45.56-2.13Z"/>
      </g>
      <g>
        <path class="cls-20" d="M309.1,35.24l-8.06-5.76,4.03-4.03c-35.71-2.88-110.58,.58-110.58,.58l1.73,5.18-7.49,2.3c48.38,6.91,120.37,1.73,120.37,1.73Z"/>
        <path class="cls-12" d="M311.11,182.16c-.79,5.72-1.34,9.22-1.42,9.68,.08-.52,1-6.23,2.17-15.34,4.12-31.92,11.43-105.35-2.76-141.26,0,0-71.99,5.18-120.37-1.73,0,0-19.77,85.39-5.9,144.02,.34,1.45,.7,2.89,1.08,4.3,15.15,4.06,63.68,14.33,127.19,.33Z"/>
        <path class="cls-18" d="M183.92,181.83h0s.01,.05,.02,.07c.52,1.92,1.08,3.8,1.69,5.65,.04,.11,.08,.22,.11,.33,.27,.82,.55,1.64,.83,2.44,.33,.92,1.82,7.94,2.17,8.84h118.9s2.04-7.3,2.05-7.33c1.42-2.74,.63-3.96,1.42-9.68-63.52,14-112.04,3.73-127.19-.33Z"/>
      </g>
    </g>
    <text class="cls-17" transform="translate(209.13 136.27)"><tspan x="0" y="0">SUL</tspan></text>
    <text class="cls-16" transform="translate(60.25 133.99)"><tspan class="cls-23" x="0" y="0">R</tspan><tspan x="21.12" y="0">YZE</tspan></text>
    <text class="cls-15" transform="translate(478.98 130.71)"><tspan x="0" y="0">MOUKA</tspan></text>
    <text class="cls-16" transform="translate(641.96 133.99)"><tspan x="0" y="0">CUKR</tspan></text>
    <circle class="cls-14" cx="248.92" cy="96.01" r="6.08"/>
    <rect class="cls-14" x="90.46" y="97.79" width="13.01" height="5.29" rx="1.9" ry="1.9" transform="translate(-42.62 97.98) rotate(-45)"/>
    <rect class="cls-14" x="114.3" y="97.51" width="11.82" height="4.81" rx="1.9" ry="1.9" transform="translate(-35.44 114.27) rotate(-45)"/>
    <rect class="cls-14" x="109.14" y="97.51" width="11.82" height="4.81" rx="1.9" ry="1.9" transform="translate(125.76 251.91) rotate(-135)"/>
  </g>
  <path class="cls-6" d="M649.56,199.87s-140.72-1.14-140.67-.42c14.93-8.23,34.36-19.4,52.17-41.12,10.96-13.36,15.67-18.47,24.06-6.75,25.97,36.3,49.52,47.84,64.44,48.28Z"/>
  <path class="cls-5" d="M582.32,87.13c.27,.21,3.87,6.14-.21,9.28-.49,.37-.67,.63-.84,.81l-.04,.05c-.46,.49-.87,.92-2.66,2.19l-.11,.08c-.38,.3-.68,.7-.89,1.15-.24,.52-.38,1.13-.41,1.75-.03,.67,.05,1.36,.23,2.02,.18,.63,.45,1.23,.81,1.74l.17,.22c1.91,2.49,2.45,5.14,2.31,7.88-.14,2.6-.9,5.22-1.66,7.83-1.35,4.63-2.71,9.33,.48,12.78,.9,.98,1.3,2.66,1.39,4.53,.11,2.31-.21,5.02-.55,6.86l-.25,1.11,.98,.94-1.34,.31-.21,.41c-.27,.44-.62,.78-1.03,.98-.49,.24-1.01,.28-1.54,.13-.23-.06-.45-.16-.66-.28l-.46-.35-1.06,.24,.57-.94-.17-.52-.29-1.29,.55-.13c.04-.4,.24-1.06,.33-1.48,.28-1.5,.57-3.64,.57-5.36,0-1.01-.07-1.79-.23-1.98-4.95-5.35-3.31-11.25-1.61-17.07l.06-.19c1.25-4.28,2.48-8.52,.13-11.57l-.23-.31c-.68-.97-1.2-2.06-1.52-3.19-.33-1.15-.47-2.36-.41-3.54,.06-1.26,.36-2.5,.89-3.6,.51-1.06,1.26-2.02,2.22-2.77l.21-.16c1.48-1.04,1.72-1.3,1.97-1.57,0,0,1.29-1.46,.41-4.88-5.79-17.19-25.9-19.61-27.21-23.52,5.36-.86,16.82-2.69,21.77-3.27-4.86,.57,9.57,24.69,9.57,24.69Z"/>
  <path class="cls-26" d="M583.04,179.2c2.24-8.8-.88-12.68-9.36-11.63,21.75-28.32,36.62-40.32,44.61-35.98,2.53,3.62,2.96,6.67,1.27,9.15,5.41,1.09,8.72,3.48,9.94,7.17-1.91,7.25-17.4,17.69-46.46,31.3Z"/>
  <path class="cls-28" d="M604.52,168.38c-2.23,1.21-3.35,1.82-3.35,1.82,2.07-4.67,.88-8.58-3.57-11.73-.02-4.16-3.72-6.36-11.08-6.63,1.66-1.86,2.49-2.78,2.49-2.78,7.01,.59,10.58,2.87,10.7,6.85,3.93,4.33,5.58,8.15,4.95,11.48-.1,.66-.15,1-.15,1Z"/>
  <path class="cls-28" d="M621.96,157.14c1.36-1.16,2.04-1.74,2.04-1.74-2.09-2.43-7.13-4.57-15.14-6.42,.57-4.42-.31-9.51-2.65-15.27,0,0-.79,.52-2.37,1.57,2.41,6.45,3.22,11.3,2.43,14.55,9.17,3.2,14.4,5.63,15.68,7.3Z"/>
  <path class="cls-24" d="M612.95,130.89c2.63,5.75,2.82,10.6,.58,14.55,8.6,.8,13.31,2.82,14.11,6.07,1.1-1.66,1.71-2.8,1.82-3.43-1.21-3.92-4.51-6.37-9.89-7.35,1.62-2.96,1.19-6.01-1.27-9.15-1.73-.85-3.51-1.08-5.34-.69Z"/>
  <path class="cls-25" d="M573.71,167.6c.17-.23,.26-.34,.26-.34,5.01-6.46,9.2-11.59,12.57-15.39,6.97-.03,10.57,2.11,10.81,6.43,4.82,3.91,6.09,7.89,3.84,11.93-8.87,4.56-14.91,7.56-18.12,9.01,2.11-8.95-1.01-12.82-9.36-11.63Z"/>
  <path class="cls-27" d="M583.07,179.23c2.03-9.03-1.09-12.91-9.36-11.63-2.5,2.4-3.47,4.51-2.93,6.33-1.21,.44-1.59,1.29-1.13,2.54-1.58,.09-2.2,1.02-1.86,2.77-1.24-3.46,1.91-15.85,9.46-37.17-8.98,23.67-12.97,36.73-11.97,39.19-3.08,3.78-2.36,4.67,2.15,2.67,15.01,1.11,26.95,3.84,35.82,8.18-9.6-5.38-19.92-8.46-30.95-9.24,1.59-.13,2.22-.55,1.88-1.24,1.33,.17,2.25-.14,2.77-.91,3.54-.44,5.58-.94,6.12-1.49Z"/>
  <path class="cls-28" d="M583.01,170.73c.53-2.16,11.38-10.11,31.14-25.52,.08-.06-.65,.25-.57,.19-23.63,17.79-29.78,22.96-32.28,23.23,1.02,.92,1.55,1.45,1.71,2.1Z"/>
  <path class="cls-26" d="M562.75,56.89c-9.04,.9-11.62,5.16-7.73,12.77-34.05-10.76-50.4-20.64-49.06-29.62,2.54-3.62,5.26-5.06,8.16-4.32-.83-5.46,.28-9.39,3.34-11.79,7.47-.69,22.57,10.3,45.3,32.97Z"/>
  <path class="cls-28" d="M545.24,40.41c1.9,1.68,2.85,2.53,2.85,2.53-5.1-.35-8.37,2.1-9.8,7.36-3.9,1.44-4.71,5.67-2.44,12.68-2.31-.93-3.47-1.39-3.47-1.39-1.85-6.79-.92-10.92,2.78-12.4,2.72-5.17,5.76-8.03,9.09-8.57,.66-.13,.99-.2,.99-.2Z"/>
  <path class="cls-28" d="M528.72,27.85c-1.55-.88-2.33-1.32-2.33-1.32-1.57,2.79-1.86,8.26-.86,16.42-4.35,.97-8.83,3.54-13.45,7.7,0,0,.76,.56,2.29,1.69,5.24-4.46,9.52-6.89,12.84-7.26-.13-9.71,.37-15.46,1.5-17.23Z"/>
  <path class="cls-24" d="M507.13,45.29c4.5-4.43,8.99-6.27,13.47-5.52-2.19-8.36-1.89-13.47,.88-15.33-1.93-.47-3.21-.65-3.84-.54-3.27,2.48-4.44,6.41-3.52,11.81-3.34-.51-6.06,.93-8.16,4.32-.21,1.92,.18,3.67,1.17,5.26Z"/>
  <path class="cls-25" d="M555.04,69.62c-.27-.09-.41-.13-.41-.13-7.79-2.5-14.04-4.69-18.76-6.56-2.41-6.54-1.63-10.66,2.35-12.35,2.03-5.86,5.33-8.42,9.9-7.68,7.31,6.78,12.2,11.43,14.66,13.95-9.13,1.07-11.71,5.33-7.73,12.77Z"/>
  <path class="cls-27" d="M562.77,56.85c-9.19,1.18-11.76,5.43-7.73,12.77,3.11,1.52,5.43,1.72,6.95,.59,.83,.99,1.76,1.05,2.78,.19,.63,1.45,1.71,1.72,3.24,.8-2.83,2.35-15.55,3.62-38.16,3.81,25.31,.35,38.95-.36,40.92-2.15,4.6,1.6,5.19,.62,1.78-2.94-4.09-14.49-5.6-26.64-4.55-36.46-1.78,10.86-1.15,21.61,1.9,32.25-.67-1.45-1.27-1.9-1.81-1.35-.3-1.3-.9-2.07-1.8-2.29-1.63-3.17-2.79-4.92-3.5-5.24Z"/>
  <path class="cls-28" d="M554.81,59.82c-2.21,.24-13.39-7.24-34.63-20.54-.08-.05,.46,.52,.37,.47,24.79,16.13,31.75,20.14,32.87,22.4,.52-1.27,.83-1.95,1.39-2.32Z"/>
  <path class="cls-26" d="M503.95,161.11c-5.5,7.23-4.15,12.02,4.07,14.36-31.08,17.58-49.46,22.82-55.11,15.71-.91-4.33-.12-7.3,2.4-8.92-4.56-3.11-6.68-6.61-6.36-10.48,4.59-5.93,22.92-9.49,55-10.67Z"/>
  <path class="cls-28" d="M479.95,162.69c2.53-.24,3.79-.37,3.79-.37-3.73,3.49-4.16,7.56-1.3,12.19-1.6,3.84,.94,7.31,7.61,10.43-2.25,1.06-3.38,1.59-3.38,1.59-6.22-3.28-8.62-6.77-7.18-10.48-1.93-5.52-1.95-9.69-.07-12.5,.35-.57,.53-.86,.53-.86Z"/>
  <path class="cls-28" d="M459.51,166.22c-1.7,.54-2.55,.8-2.55,.8,.97,3.05,4.78,6.99,11.43,11.82-2.25,3.85-3.43,8.88-3.53,15.09,0,0,.93-.17,2.8-.52,.3-6.88,1.45-11.66,3.44-14.35-7.2-6.52-11.06-10.81-11.59-12.85Z"/>
  <path class="cls-24" d="M457.55,193.9c-.18-6.32,1.54-10.86,5.14-13.62-7.61-4.1-11.15-7.79-10.62-11.09-1.66,1.1-2.66,1.91-3.01,2.44-.42,4.08,1.66,7.62,6.24,10.63-2.65,2.1-3.44,5.07-2.4,8.92,1.26,1.46,2.81,2.37,4.65,2.73Z"/>
  <path class="cls-25" d="M508.01,175.43c-.25,.14-.37,.21-.37,.21-7.14,3.99-13,7.08-17.59,9.26-6.43-2.7-8.91-6.07-7.44-10.13-2.91-5.48-2.53-9.64,1.13-12.48,9.94-.73,16.68-1.14,20.2-1.21-5.44,7.41-4.08,12.2,4.07,14.36Z"/>
  <path class="cls-27" d="M503.94,161.07c-5.4,7.52-4.04,12.31,4.07,14.36,3.24-1.24,4.96-2.8,5.17-4.68,1.29,.07,1.97-.57,2.03-1.9,1.49,.53,2.42-.08,2.79-1.82-.21,3.67-7.95,13.85-23.22,30.53,17.51-18.28,26.28-28.75,26.32-31.4,4.31-2.28,3.99-3.38-.94-3.3-13.39-6.88-23.32-14.06-29.78-21.52,6.74,8.7,15.03,15.57,24.89,20.59-1.51-.5-2.25-.36-2.22,.41-1.16-.67-2.12-.75-2.9-.24-3.43-.97-5.5-1.31-6.22-1.02Z"/>
  <path class="cls-28" d="M500.67,168.92c-1.33,1.78-14.42,4.86-38.63,11.34-.1,.03,.69,.02,.6,.05,28.7-7.15,36.38-9.51,38.79-8.78-.58-1.24-.86-1.94-.75-2.6Z"/>
</svg>