<?xml version="1.0" encoding="UTF-8"?>
<svg id="Vrstva_1" data-name="Vrstva 1" xmlns="http://www.w3.org/2000/svg" xmlns:xlink="http://www.w3.org/1999/xlink" viewBox="0 0 3842.95 772.51">
  <defs>
    <style>
      .cls-1 {
        fill: none;
        stroke: #724a01;
        stroke-miterlimit: 10;
        stroke-width: 3px;
      }

      .cls-2 {
        fill: #e87c7d;
      }

      .cls-3 {
        fill: #e8cc7c;
      }

      .cls-4 {
        fill: #e4ae79;
      }

      .cls-5 {
        fill: #e86d4c;
      }

      .cls-6 {
        fill: #edb09c;
      }

      .cls-7 {
        fill: #9db6e6;
      }

      .cls-8 {
        fill: #9d5986;
      }

      .cls-9 {
        fill: #de9d5c;
      }

      .cls-10 {
        fill: #e3512a;
      }

      .cls-11 {
        fill: #8a366f;
      }

      .cls-12 {
        fill: #604556;
      }

      .cls-13 {
        fill: #5e5979;
      }

      .cls-14 {
        fill: #82a2e0;
      }

      .cls-15 {
        fill: #4f3144;
      }

      .cls-16 {
        fill: url(#_ŃŚÁŻž_ŪŪŻť_ūŗšŤŚŪÚ_10-9);
      }

      .cls-17 {
        fill: url(#_ŃŚÁŻž_ŪŪŻť_ūŗšŤŚŪÚ_10-4);
      }

      .cls-18 {
        fill: url(#_ŃŚÁŻž_ŪŪŻť_ūŗšŤŚŪÚ_10-2);
      }

      .cls-19 {
        fill: url(#_ŃŚÁŻž_ŪŪŻť_ūŗšŤŚŪÚ_10-7);
      }

      .cls-20 {
        fill: url(#_ŃŚÁŻž_ŪŪŻť_ūŗšŤŚŪÚ_10-5);
      }

      .cls-21 {
        fill: url(#_ŃŚÁŻž_ŪŪŻť_ūŗšŤŚŪÚ_10-8);
      }

      .cls-22 {
        fill: url(#_ŃŚÁŻž_ŪŪŻť_ūŗšŤŚŪÚ_10-3);
      }

      .cls-23 {
        fill: url(#_ŃŚÁŻž_ŪŪŻť_ūŗšŤŚŪÚ_10-6);
      }

      .cls-24 {
        fill: url(#_ŃŚÁŻž_ŪŪŻť_ūŗšŤŚŪÚ_10-10);
      }

      .cls-25 {
        fill: url(#_ŃŚÁŻž_ŪŪŻť_ūŗšŤŚŪÚ_10-12);
      }

      .cls-26 {
        fill: url(#_ŃŚÁŻž_ŪŪŻť_ūŗšŤŚŪÚ_10-13);
      }

      .cls-27 {
        fill: url(#_ŃŚÁŻž_ŪŪŻť_ūŗšŤŚŪÚ_10-11);
      }

      .cls-28 {
        fill: url(#_ŃŚÁŻž_ŪŪŻť_ūŗšŤŚŪÚ_10);
      }
    </style>
    <linearGradient id="_ŃŚÁŻž_ŪŪŻť_ūŗšŤŚŪÚ_10" data-name="ŃŚÁŻžˇŪŪŻť „ūŗšŤŚŪÚ 10" x1="141.31" y1="13.68" x2="141.23" y2="-.98" gradientTransform="translate(138.88 98.98) rotate(90)" gradientUnits="userSpaceOnUse">
      <stop offset="0" stop-color="#de9d5c"/>
      <stop offset="1" stop-color="#d47f27"/>
    </linearGradient>
    <linearGradient id="_ŃŚÁŻž_ŪŪŻť_ūŗšŤŚŪÚ_10-2" data-name="ŃŚÁŻžˇŪŪŻť „ūŗšŤŚŪÚ 10" x1="339.55" y1="225.69" x2="339.47" y2="211.03" gradientTransform="translate(79.06 54.7)" xlink:href="#_ŃŚÁŻž_ŪŪŻť_ūŗšŤŚŪÚ_10"/>
    <linearGradient id="_ŃŚÁŻž_ŪŪŻť_ūŗšŤŚŪÚ_10-3" data-name="ŃŚÁŻžˇŪŪŻť „ūŗšŤŚŪÚ 10" x1="799.07" y1="-122.68" x2="798.98" y2="-137.34" gradientTransform="translate(686.85 -500.61) rotate(90)" xlink:href="#_ŃŚÁŻž_ŪŪŻť_ūŗšŤŚŪÚ_10"/>
    <linearGradient id="_ŃŚÁŻž_ŪŪŻť_ūŗšŤŚŪÚ_10-4" data-name="ŃŚÁŻžˇŪŪŻť „ūŗšŤŚŪÚ 10" x1="305.41" y1="320.8" x2="305.32" y2="306.14" gradientTransform="translate(242.42 -34.69)" xlink:href="#_ŃŚÁŻž_ŪŪŻť_ūŗšŤŚŪÚ_10"/>
    <linearGradient id="_ŃŚÁŻž_ŪŪŻť_ūŗšŤŚŪÚ_10-5" data-name="ŃŚÁŻžˇŪŪŻť „ūŗšŤŚŪÚ 10" x1="-9873.33" y1="3737.97" x2="-9873.41" y2="3723.31" gradientTransform="translate(-6661.39 -3633.88) rotate(-180) scale(1 -1)" xlink:href="#_ŃŚÁŻž_ŪŪŻť_ūŗšŤŚŪÚ_10"/>
    <linearGradient id="_ŃŚÁŻž_ŪŪŻť_ūŗšŤŚŪÚ_10-6" data-name="ŃŚÁŻžˇŪŪŻť „ūŗšŤŚŪÚ 10" x1="-10720.26" y1="-1987.02" x2="-10720.34" y2="-2001.67" gradientTransform="translate(1400.86 -10635.2) rotate(-90) scale(1 -1)" xlink:href="#_ŃŚÁŻž_ŪŪŻť_ūŗšŤŚŪÚ_10"/>
    <linearGradient id="_ŃŚÁŻž_ŪŪŻť_ūŗšŤŚŪÚ_10-7" data-name="ŃŚÁŻžˇŪŪŻť „ūŗšŤŚŪÚ 10" x1="2589.6" y1="24.43" x2="2589.52" y2="9.78" gradientTransform="translate(11.73 154.07)" xlink:href="#_ŃŚÁŻž_ŪŪŻť_ūŗšŤŚŪÚ_10"/>
    <linearGradient id="_ŃŚÁŻž_ŪŪŻť_ūŗšŤŚŪÚ_10-8" data-name="ŃŚÁŻžˇŪŪŻť „ūŗšŤŚŪÚ 10" x1="2267.7" y1="658.61" x2="2267.61" y2="643.95" gradientTransform="translate(268.82 -471.87)" xlink:href="#_ŃŚÁŻž_ŪŪŻť_ūŗšŤŚŪÚ_10"/>
    <linearGradient id="_ŃŚÁŻž_ŪŪŻť_ūŗšŤŚŪÚ_10-9" data-name="ŃŚÁŻžˇŪŪŻť „ūŗšŤŚŪÚ 10" x1="1028.42" y1="-210.71" x2="1028.33" y2="-225.37" gradientTransform="translate(844.35 -737.74) rotate(90)" xlink:href="#_ŃŚÁŻž_ŪŪŻť_ūŗšŤŚŪÚ_10"/>
    <linearGradient id="_ŃŚÁŻž_ŪŪŻť_ūŗšŤŚŪÚ_10-10" data-name="ŃŚÁŻžˇŪŪŻť „ūŗšŤŚŪÚ 10" x1="706.03" y1="436.69" x2="705.95" y2="422.03" gradientTransform="translate(258.07 -125.08)" xlink:href="#_ŃŚÁŻž_ŪŪŻť_ūŗšŤŚŪÚ_10"/>
    <linearGradient id="_ŃŚÁŻž_ŪŪŻť_ūŗšŤŚŪÚ_10-11" data-name="ŃŚÁŻžˇŪŪŻť „ūŗšŤŚŪÚ 10" x1="2233.31" y1="-726.83" x2="2233.23" y2="-741.49" gradientTransform="translate(1635.78 -2034.19) rotate(90)" xlink:href="#_ŃŚÁŻž_ŪŪŻť_ūŗšŤŚŪÚ_10"/>
    <linearGradient id="_ŃŚÁŻž_ŪŪŻť_ūŗšŤŚŪÚ_10-12" data-name="ŃŚÁŻžˇŪŪŻť „ūŗšŤŚŪÚ 10" x1="1868.09" y1="609.12" x2="1868" y2="594.46" gradientTransform="translate(267.66 -383.31)" xlink:href="#_ŃŚÁŻž_ŪŪŻť_ūŗšŤŚŪÚ_10"/>
    <linearGradient id="_ŃŚÁŻž_ŪŪŻť_ūŗšŤŚŪÚ_10-13" data-name="ŃŚÁŻžˇŪŪŻť „ūŗšŤŚŪÚ 10" x1="3518.95" y1="589.47" x2="3518.86" y2="574.82" gradientTransform="translate(5.26 -520.37)" xlink:href="#_ŃŚÁŻž_ŪŪŻť_ūŗšŤŚŪÚ_10"/>
  </defs>
  <path class="cls-1" d="M.59,198.48C417.67,377.85,2224.32,288.14,3842.69,1.48"/>
  <path class="cls-11" d="M631.2,278.38s21.7,88.25,44.85,83.91,72.34-81.02,72.34-81.02l-5.79,76.68-46.3,69.45-57.87-20.25-21.7-63.66,14.47-65.1Z"/>
  <path class="cls-7" d="M92.06,218.84l-51.46,212.31s122.76,38.48,163.8,43.55c43.69-36.88,61.46-37.6,89.54,11.05,43.52,5.37,165.56-11.63,165.56-11.63l-14.27-211.68s-174.62,44.04-353.17-43.6Z"/>
  <path class="cls-14" d="M447.13,290.59l-1.9-28.15s-174.62,44.04-353.17-43.6l-6.9,28.46c153.77,64.16,299.5,52.79,361.97,43.29Z"/>
  <g>
    <path class="cls-14" d="M222.51,280.14l-8.62-1.06s-27.84,135.51,16.73,176.24c4.25-2.48,8.23-4.35,11.99-5.56-43.52-29.41-20.11-169.61-20.11-169.61Z"/>
    <path class="cls-14" d="M334.51,293.97l-8.62-1.06s-6.73,145.74-56.91,160.92c3.13,2.29,6.23,5.27,9.39,8.98,54.51-25.64,56.13-168.84,56.13-168.84Z"/>
  </g>
  <g>
    <rect class="cls-9" x="130.13" y="201.64" width="11.61" height="59.83" transform="translate(79.81 -31.02) rotate(18.35)"/>
    <rect class="cls-12" x="130.85" y="228.15" width="11.61" height="2.46" transform="translate(79.17 -31.36) rotate(18.35)"/>
    <rect class="cls-15" x="129.71" y="229.48" width="13.02" height="2.46" transform="translate(79.57 -31.15) rotate(18.35)"/>
    <polygon class="cls-4" points="140.29 202.22 136.42 213.91 149.98 205.43 140.29 202.22"/>
    <rect class="cls-28" x="124.97" y="235.13" width="16.19" height="10.21" transform="translate(-136.85 290.9) rotate(-71.65)"/>
  </g>
  <g>
    <rect class="cls-9" x="411.92" y="233.51" width="11.61" height="59.83" transform="translate(-22.09 38.81) rotate(-5.18)"/>
    <rect class="cls-12" x="411.71" y="259.91" width="11.61" height="2.46" transform="translate(-21.88 38.78) rotate(-5.18)"/>
    <rect class="cls-15" x="411.14" y="261.31" width="13.02" height="2.46" transform="translate(-22.01 38.8) rotate(-5.18)"/>
    <polygon class="cls-4" points="410.01 234.79 411.12 247.06 420.17 233.87 410.01 234.79"/>
    <rect class="cls-18" x="413.45" y="264.44" width="10.21" height="16.19" transform="translate(-22.91 38.92) rotate(-5.18)"/>
  </g>
  <path class="cls-8" d="M631.2,278.38l-108,.98-46.56,157.14,49.02,25.77s-32.7,236.47-19.71,258.71c12.99,22.24,158.99,1.54,195.26,13.86,36.27,12.32,89.14,31.31,89.14,31.31l27.47-262.02,56.35-27.26-27.22-183.41-98.89-13.67s-51.39,128.72-83.85,99.41c-32.46-29.32-33.02-100.81-33.02-100.81Z"/>
  <g>
    <rect class="cls-9" x="814.64" y="259.88" width="11.61" height="59.83" transform="translate(140.81 -253.54) rotate(19.19)"/>
    <rect class="cls-12" x="815.39" y="286.4" width="11.61" height="2.46" transform="translate(140.14 -253.9) rotate(19.19)"/>
    <rect class="cls-15" x="814.22" y="287.73" width="13.02" height="2.46" transform="translate(140.55 -253.68) rotate(19.19)"/>
    <polygon class="cls-4" points="825.22 260.53 821.17 272.16 834.86 263.88 825.22 260.53"/>
    <rect class="cls-22" x="809.34" y="293.33" width="16.19" height="10.21" transform="translate(266.94 972.39) rotate(-70.81)"/>
  </g>
  <g>
    <rect class="cls-9" x="539.96" y="239.42" width="11.61" height="59.83" transform="translate(-45.68 125.84) rotate(-12.63)"/>
    <rect class="cls-12" x="539.46" y="265.87" width="11.61" height="2.46" transform="translate(-45.2 125.67) rotate(-12.63)"/>
    <rect class="cls-15" x="539.07" y="267.24" width="13.02" height="2.46" transform="translate(-45.5 125.78) rotate(-12.63)"/>
    <polygon class="cls-4" points="534.4 241.95 537.1 253.97 544.36 239.71 534.4 241.95"/>
    <rect class="cls-17" x="542.67" y="270.17" width="10.21" height="16.19" transform="translate(-47.58 126.49) rotate(-12.63)"/>
  </g>
  <path class="cls-13" d="M3406.97,65.54s19.43,85.83,31.32,90.94c11.89,5.11,8.64,351.65-2.39,411.7-11.04,60.05-10.16,175.93-10.16,175.93,0,0-50.5,28.99-72.22,4.16-21.72-24.84-43.9-485.84-43.9-485.84,0,0,4.72,434.48-.15,450.7-4.86,16.22-57.72,29.41-67.89,3.91-10.16-25.5-53.98-509.9-53.98-509.9,0,0,29.37-43.72,22.4-114.32,0,0,50.29,68.11,196.97-27.28Z"/>
  <g>
    <rect class="cls-9" x="3202.78" y="58.48" width="11.61" height="59.83" transform="translate(6207.15 -1056.78) rotate(157.52)"/>
    <rect class="cls-12" x="3201.9" y="85.04" width="11.61" height="2.46" transform="translate(6204.66 -1060.52) rotate(157.52)"/>
    <rect class="cls-15" x="3201.74" y="86.34" width="13.02" height="2.46" transform="translate(6206.19 -1058.22) rotate(157.52)"/>
    <polygon class="cls-4" points="3202.13 59.45 3206.84 70.83 3192.7 63.35 3202.13 59.45"/>
    <rect class="cls-20" x="3206.98" y="88.75" width="10.21" height="16.19" transform="translate(207.05 1235.53) rotate(-22.48)"/>
  </g>
  <g>
    <rect class="cls-9" x="3391.68" y="45.95" width="11.61" height="59.83" transform="translate(6737.68 701.83) rotate(-170.66)"/>
    <rect class="cls-12" x="3392.05" y="72.38" width="11.61" height="2.46" transform="translate(6738.79 697.37) rotate(-170.67)"/>
    <rect class="cls-15" x="3391.12" y="73.77" width="13.02" height="2.46" transform="translate(6738.1 700.12) rotate(-170.66)"/>
    <polygon class="cls-4" points="3407.26 47.87 3405.26 60.03 3397.19 46.22 3407.26 47.87"/>
    <rect class="cls-23" x="3387.91" y="79.79" width="16.19" height="10.21" transform="translate(2761.39 3422.16) rotate(-80.67)"/>
  </g>
  <g>
    <path class="cls-6" d="M2505.53,208.34s3.58,71.65,0,88.67c-3.58,17.02-51.05,99.42-26.87,116.44,24.18,17.02,71.65-76.13,74.34-113.75,2.69-37.62-14.33-129.87-14.33-129.87,0,0-17.91,30.45-33.14,38.51Z"/>
    <path class="cls-2" d="M2552.46,270.53c-6.6,7.72-16.74,25.07-11.1,55.14,.72,3.83,1.52,7.07,2.39,9.81,5.15-13.66,8.59-26.44,9.26-35.79,.56-7.81,.26-17.97-.55-29.17Z"/>
    <path class="cls-2" d="M2538.67,169.83s-17.91,30.45-33.14,38.51c0,0,.43,8.51,.84,20.36,10.28-2.85,25.52-9.7,37.79-26.11-2.96-19.03-5.49-32.76-5.49-32.76Z"/>
    <path class="cls-2" d="M2473.74,381.01c-3.22,14.68-2.87,26.95,4.92,32.43,9.35,6.58,22.18-3.32,34.56-20.1-10.47-16.02-27.6-15.11-39.48-12.33Z"/>
  </g>
  <g>
    <path class="cls-6" d="M2635.33,200s-3.58,71.65,0,88.67c3.58,17.02,51.05,99.42,26.87,116.44-24.18,17.02-71.65-76.13-74.34-113.75-2.69-37.62,14.33-129.87,14.33-129.87,0,0,17.91,30.45,33.14,38.51Z"/>
    <path class="cls-2" d="M2588.41,262.19c6.6,7.72,16.74,25.07,11.1,55.14-.72,3.83-1.52,7.07-2.39,9.81-5.15-13.66-8.59-26.44-9.26-35.79-.56-7.81-.26-17.97,.55-29.17Z"/>
    <path class="cls-2" d="M2602.19,161.49s17.91,30.45,33.14,38.51c0,0-.43,8.51-.84,20.36-10.28-2.85-25.52-9.7-37.79-26.11,2.96-19.03,5.49-32.76,5.49-32.76Z"/>
    <path class="cls-2" d="M2667.12,372.68c3.22,14.68,2.87,26.95-4.92,32.43-9.35,6.58-22.18-3.32-34.56-20.1,10.47-16.02,27.6-15.11,39.48-12.33Z"/>
  </g>
  <g>
    <rect class="cls-9" x="2594.95" y="131.62" width="11.61" height="59.83" transform="translate(-4.93 181.93) rotate(-4)"/>
    <rect class="cls-12" x="2594.79" y="158.02" width="11.61" height="2.46" transform="translate(-4.77 181.92) rotate(-4)"/>
    <rect class="cls-15" x="2594.18" y="159.42" width="13.02" height="2.46" transform="translate(-4.87 181.89) rotate(-4)"/>
    <polygon class="cls-4" points="2593.63 132.75 2594.48 145.03 2603.81 132.04 2593.63 132.75"/>
    <rect class="cls-19" x="2596.29" y="162.56" width="10.21" height="16.19" transform="translate(-5.57 181.99) rotate(-4)"/>
  </g>
  <g>
    <rect class="cls-9" x="2528.61" y="140.1" width="11.61" height="59.83" transform="translate(24.15 558.22) rotate(-12.63)"/>
    <rect class="cls-12" x="2528.11" y="166.54" width="11.61" height="2.46" transform="translate(24.62 558.04) rotate(-12.63)"/>
    <rect class="cls-15" x="2527.71" y="167.92" width="13.02" height="2.46" transform="translate(24.33 558.16) rotate(-12.63)"/>
    <polygon class="cls-4" points="2523.05 142.62 2525.74 154.64 2533.01 140.39 2523.05 142.62"/>
    <rect class="cls-21" x="2531.31" y="170.84" width="10.21" height="16.19" transform="translate(22.24 558.87) rotate(-12.63)"/>
  </g>
  <path class="cls-3" d="M966.59,276.38h13.76s-13.76,216.28,30.48,217.26c44.24,.98,31.46-217.26,31.46-217.26h18.68s-16.71,211.36,0,225.12c16.71,13.76,9.83-7.86,16.71,48.17,6.88,56.04,0,212.34,0,212.34,0,0-102.24,23.59-117.97,0-15.73-23.59-26.54-16.71-26.54-16.71l7.86-213.33s12.78-21.63,15.73-36.37c2.95-14.75,9.83-219.23,9.83-219.23Z"/>
  <g>
    <rect class="cls-9" x="1060.18" y="252.1" width="11.61" height="59.83" transform="translate(151.89 -334.66) rotate(19.19)"/>
    <rect class="cls-12" x="1060.93" y="278.62" width="11.61" height="2.46" transform="translate(151.22 -335.03) rotate(19.19)"/>
    <rect class="cls-15" x="1059.77" y="279.95" width="13.02" height="2.46" transform="translate(151.64 -334.81) rotate(19.19)"/>
    <polygon class="cls-4" points="1070.77 252.75 1066.72 264.38 1080.41 256.1 1070.77 252.75"/>
    <rect class="cls-16" x="1054.89" y="285.55" width="16.19" height="10.21" transform="translate(439.13 1199.07) rotate(-70.81)"/>
  </g>
  <g>
    <rect class="cls-9" x="956.23" y="264.93" width="11.61" height="59.83" transform="translate(-41.19 217.47) rotate(-12.63)"/>
    <rect class="cls-12" x="955.73" y="291.37" width="11.61" height="2.46" transform="translate(-40.71 217.29) rotate(-12.63)"/>
    <rect class="cls-15" x="955.33" y="292.75" width="13.02" height="2.46" transform="translate(-41 217.4) rotate(-12.63)"/>
    <polygon class="cls-4" points="950.67 267.45 953.36 279.47 960.63 265.22 950.67 267.45"/>
    <rect class="cls-24" x="958.93" y="295.67" width="10.21" height="16.19" transform="translate(-43.09 218.12) rotate(-12.63)"/>
  </g>
  <path class="cls-5" d="M3578.81,283.58c0-23.82-13.24-43.13-29.56-43.13-.47,0-.93,.02-1.39,.05-.87,.06-1.61-.6-1.65-1.47-.6-14.54-.92-27.98-.79-38.92,0-.29,0-.58,0-.87,0-.61,.37-1.17,.93-1.4,13.85-5.58,24.1-25.49,24.1-49.2,0-28.04-14.33-50.78-32-50.78h0c-.79,0-1.45-.58-1.56-1.36-2.38-16.98-4.5-29.62-5.17-33.54-.13-.74-.77-1.27-1.51-1.27h-8.69c-.96,0-1.68,.86-1.51,1.8,.87,4.83,3.35,18.97,6.04,37.29,.09,.58-.17,1.16-.65,1.5-11.16,7.93-18.94,25.7-18.94,46.36,0,25.55,11.89,46.68,27.37,50.24,.68,.16,1.16,.77,1.16,1.46,.08,11.95,.63,27.11,1.43,43.5,.03,.52-.22,1.01-.63,1.32-9.57,7.14-16.12,21.66-16.12,38.42,0,19.45,8.83,35.89,20.96,41.26,.53,.24,.9,.73,.94,1.31,1.76,24.36,3.3,43.35,3.72,48.53,.07,.8,.73,1.41,1.53,1.41h7.34c.9,0,1.61-.77,1.53-1.67-.49-5.4-2.09-23.34-3.89-46.45-.06-.78,.48-1.49,1.25-1.63,14.53-2.73,25.75-20.82,25.75-42.76Z"/>
  <path class="cls-5" d="M2124.25,230.35l8.22-9.12s137.62,27.62,224.79-23.28l12.16,10.96s-85.66,52.26-90.55,97.43l4.02,21.52s-9.66,9.19-19.85,8.28c-10.19-.92-17.49-1.99-17.49-1.99,0,0,.84-11.63-2.5-20.15-3.34-8.52-18.5-77.27-118.8-83.65Z"/>
  <g>
    <rect class="cls-9" x="2367.8" y="160.55" width="11.61" height="59.83" transform="translate(194.44 -769.49) rotate(19.19)"/>
    <rect class="cls-12" x="2368.56" y="187.07" width="11.61" height="2.46" transform="translate(193.77 -769.86) rotate(19.19)"/>
    <rect class="cls-15" x="2367.39" y="188.4" width="13.02" height="2.46" transform="translate(194.18 -769.63) rotate(19.19)"/>
    <polygon class="cls-4" points="2378.39 161.2 2374.34 172.83 2388.03 164.55 2378.39 161.2"/>
    <rect class="cls-27" x="2362.51" y="194" width="16.19" height="10.21" transform="translate(1403.48 2372.6) rotate(-70.81)"/>
  </g>
  <g>
    <rect class="cls-9" x="2127.85" y="179.16" width="11.61" height="59.83" transform="translate(5.91 471.55) rotate(-12.63)"/>
    <rect class="cls-12" x="2127.35" y="205.61" width="11.61" height="2.46" transform="translate(6.38 471.37) rotate(-12.63)"/>
    <rect class="cls-15" x="2126.96" y="206.98" width="13.02" height="2.46" transform="translate(6.09 471.49) rotate(-12.63)"/>
    <polygon class="cls-4" points="2122.29 181.68 2124.99 193.7 2132.25 179.45 2122.29 181.68"/>
    <rect class="cls-25" x="2130.56" y="209.91" width="10.21" height="16.19" transform="translate(4.01 472.19) rotate(-12.63)"/>
  </g>
  <g>
    <rect class="cls-9" x="3516.3" y="22.44" width="11.61" height="59.83" transform="translate(63.48 720.09) rotate(-11.78)"/>
    <rect class="cls-12" x="3515.83" y="48.88" width="11.61" height="2.46" transform="translate(63.93 719.95) rotate(-11.78)"/>
    <rect class="cls-15" x="3515.42" y="50.26" width="13.02" height="2.46" transform="translate(63.65 720.03) rotate(-11.78)"/>
    <polygon class="cls-4" points="3511.15 24.8 3513.66 36.86 3521.14 22.71 3511.15 24.8"/>
    <rect class="cls-26" x="3518.87" y="53.21" width="10.21" height="16.19" transform="translate(61.69 720.65) rotate(-11.78)"/>
  </g>
  <g>
    <path class="cls-10" d="M3553.06,326.33c12.03-2.26,21.79-15.07,24.79-31.86-13.57,10.43-36.07,13.96-52.18,15.11,3.72,7.16,8.94,12.58,14.97,15.25,.53,.24,.9,.73,.94,1.31,1.76,24.36,3.3,43.35,3.72,48.53,.06,.8,.73,1.41,1.53,1.41h7.34c.9,0,1.61-.77,1.53-1.67-.49-5.4-2.09-23.34-3.89-46.45-.06-.78,.48-1.49,1.25-1.63Z"/>
    <path class="cls-10" d="M3533.85,198.88c.68,.16,1.16,.77,1.16,1.46,.07,9.55,.43,21.17,.99,33.82l9.84-5.47c-.35-10.56-.51-20.29-.4-28.59,0-.29,0-.58,0-.87,0-.61,.37-1.17,.93-1.4,13.85-5.58,24.1-25.49,24.1-49.2,0-.32-.01-.64-.02-.97-15.11,22.67-42.99,30.99-56.39,33.78,4.93,9.22,11.88,15.62,19.78,17.43Z"/>
  </g>
</svg>