<?xml version="1.0" encoding="UTF-8"?>
<svg xmlns="http://www.w3.org/2000/svg" viewBox="0 0 831.48 1063.64">
  <defs>
    <style>
      .cls-1 {
        fill: #f56c78;
      }

      .cls-2 {
        fill: #685a74;
      }

      .cls-3 {
        fill: #99a2b3;
      }

      .cls-4 {
        fill: #c8d4e2;
      }

      .cls-5 {
        fill: #322c38;
      }

      .cls-6 {
        fill: #d5c8de;
      }

      .cls-6, .cls-7 {
        mix-blend-mode: multiply;
      }

      .cls-7 {
        fill: #c4b9cd;
      }

      .cls-8 {
        isolation: isolate;
      }
    </style>
  </defs>
  <g class="cls-8">
    <g id="Vrstva_1" data-name="Vrstva 1">
      <g>
        <g>
          <rect class="cls-3" x="70.94" y="308.05" width="22.23" height="755.59"/>
          <rect class="cls-7" x="70.94" y="308.05" width="22.23" height="467.92"/>
          <rect class="cls-2" width="164.12" height="755.59"/>
          <rect class="cls-5" x="-286.29" y="305.19" width="736.69" height="145.22" transform="translate(459.85 295.74) rotate(90)"/>
          <polygon class="cls-5" points="153.11 1048.79 11 1048.79 0 1063.64 164.12 1063.64 153.11 1048.79"/>
          <g>
            <g>
              <circle class="cls-1" cx="82.06" cy="377.79" r="64.25" transform="translate(-243.11 168.68) rotate(-45)"/>
              <circle class="cls-4" cx="82.06" cy="377.79" r="58.52" transform="translate(-134.6 57.61) rotate(-21.83)"/>
              <path class="cls-6" d="M138.76,363.63c-6.33-25.47-29.27-44.36-56.7-44.36s-50.37,18.89-56.7,44.36l56.7,27.52,56.7-27.52Z"/>
              <path class="cls-1" d="M105.44,377.79c0,12.91-10.47,23.38-23.39,23.38s-23.38-10.47-23.38-23.38,10.47-23.39,23.38-23.39,23.39,10.47,23.39,23.39Z"/>
            </g>
            <g>
              <circle class="cls-1" cx="82.06" cy="112.7" r="64.25" transform="translate(-55.66 91.03) rotate(-45)"/>
              <circle class="cls-4" cx="82.06" cy="112.7" r="58.52"/>
              <path class="cls-6" d="M138.76,98.53c-6.33-25.47-29.27-44.36-56.7-44.36s-50.37,18.89-56.7,44.36l56.7,27.52,56.7-27.52Z"/>
              <path class="cls-1" d="M105.44,112.7c0,12.91-10.47,23.39-23.39,23.39s-23.38-10.47-23.38-23.39,10.47-23.39,23.38-23.39,23.39,10.47,23.39,23.39Z"/>
            </g>
            <g>
              <circle class="cls-1" cx="82.06" cy="642.89" r="64.25" transform="translate(-327.91 140.93) rotate(-31.97)"/>
              <circle class="cls-4" cx="82.06" cy="642.89" r="58.52"/>
              <path class="cls-6" d="M138.76,628.72c-6.33-25.47-29.27-44.36-56.7-44.36s-50.37,18.89-56.7,44.36l56.7,27.52,56.7-27.52Z"/>
              <path class="cls-1" d="M105.44,642.89c0,12.92-10.47,23.39-23.39,23.39s-23.38-10.47-23.38-23.39,10.47-23.38,23.38-23.38,23.39,10.47,23.39,23.38Z"/>
            </g>
          </g>
        </g>
        <g>
          <rect class="cls-3" x="738.31" y="308.05" width="22.23" height="755.59"/>
          <rect class="cls-7" x="738.31" y="308.05" width="22.23" height="467.92"/>
          <rect class="cls-2" x="667.37" width="164.12" height="755.59"/>
          <rect class="cls-5" x="381.08" y="305.19" width="736.69" height="145.22" transform="translate(1127.22 -371.63) rotate(90)"/>
          <polygon class="cls-5" points="820.48 1048.79 678.37 1048.79 667.37 1063.64 831.48 1063.64 820.48 1048.79"/>
          <g>
            <g>
              <circle class="cls-1" cx="749.43" cy="377.79" r="64.25" transform="translate(-47.64 640.58) rotate(-45)"/>
              <circle class="cls-4" cx="749.43" cy="377.79" r="58.52" transform="translate(-87.53 315.55) rotate(-22.5)"/>
              <path class="cls-6" d="M806.13,363.63c-6.33-25.47-29.27-44.36-56.7-44.36s-50.37,18.89-56.7,44.36l56.7,27.52,56.7-27.52Z"/>
              <path class="cls-1" d="M772.81,377.79c0,12.91-10.47,23.38-23.39,23.38s-23.39-10.47-23.39-23.38,10.47-23.39,23.39-23.39,23.39,10.47,23.39,23.39Z"/>
            </g>
            <g>
              <circle class="cls-1" cx="749.43" cy="112.7" r="64.25" transform="translate(139.81 562.93) rotate(-45)"/>
              <circle class="cls-4" cx="749.43" cy="112.7" r="58.52"/>
              <path class="cls-6" d="M806.13,98.53c-6.33-25.47-29.27-44.36-56.7-44.36s-50.37,18.89-56.7,44.36l56.7,27.52,56.7-27.52Z"/>
              <circle class="cls-1" cx="749.43" cy="112.7" r="23.39"/>
            </g>
            <g>
              <circle class="cls-1" cx="749.43" cy="642.89" r="64.25" transform="translate(-221.44 463) rotate(-30.13)"/>
              <circle class="cls-4" cx="749.43" cy="642.89" r="58.52"/>
              <path class="cls-6" d="M806.13,628.72c-6.33-25.47-29.27-44.36-56.7-44.36s-50.37,18.89-56.7,44.36l56.7,27.52,56.7-27.52Z"/>
              <path class="cls-1" d="M772.81,642.89c0,12.92-10.47,23.39-23.39,23.39s-23.39-10.47-23.39-23.39,10.47-23.38,23.39-23.38,23.39,10.47,23.39,23.38Z"/>
            </g>
          </g>
        </g>
      </g>
    </g>
  </g>
</svg>