<?xml version="1.0" encoding="UTF-8"?>
<svg xmlns="http://www.w3.org/2000/svg" viewBox="0 0 1409.1 1618.09">
  <defs>
    <style>
      .cls-1 {
        stroke-width: 58.31px;
      }

      .cls-1, .cls-2, .cls-3, .cls-4, .cls-5 {
        fill: none;
      }

      .cls-1, .cls-3 {
        stroke: #ffbe7d;
      }

      .cls-1, .cls-3, .cls-4, .cls-5 {
        stroke-miterlimit: 10;
      }

      .cls-2 {
        stroke: #00548f;
        stroke-linejoin: round;
        stroke-width: 12.5px;
      }

      .cls-2, .cls-3, .cls-5 {
        stroke-linecap: round;
      }

      .cls-6 {
        fill: #00548f;
      }

      .cls-7, .cls-8, .cls-9 {
        fill: #ecbd33;
      }

      .cls-10 {
        fill: #e9315f;
      }

      .cls-11 {
        fill: #fff;
      }

      .cls-12 {
        fill: #ffa47f;
      }

      .cls-13 {
        fill: #ffbe7d;
      }

      .cls-14 {
        fill: #ffaa7f;
      }

      .cls-15 {
        fill: #999;
      }

      .cls-16 {
        fill: #ccc;
      }

      .cls-17 {
        fill: #d15548;
      }

      .cls-18 {
        fill: #d4d5db;
      }

      .cls-19 {
        fill: #1a1a18;
      }

      .cls-20, .cls-21 {
        fill: #595e61;
      }

      .cls-22 {
        fill: #4c4c4c;
      }

      .cls-8, .cls-23 {
        opacity: .2;
      }

      .cls-8, .cls-23, .cls-9, .cls-24, .cls-25, .cls-26 {
        mix-blend-mode: multiply;
      }

      .cls-23, .cls-24, .cls-25, .cls-26 {
        fill: #1c1c1b;
      }

      .cls-27 {
        fill: #ff5a19;
        mix-blend-mode: overlay;
      }

      .cls-3 {
        stroke-width: 37.49px;
      }

      .cls-24 {
        opacity: .3;
      }

      .cls-25 {
        opacity: .4;
      }

      .cls-4 {
        stroke: #000;
        stroke-width: 7px;
      }

      .cls-4, .cls-21, .cls-28 {
        fill-rule: evenodd;
      }

      .cls-5 {
        stroke: #f6a16c;
        stroke-width: 8.33px;
      }

      .cls-29 {
        opacity: .7;
      }

      .cls-28 {
        fill: #ff161f;
      }

      .cls-26 {
        opacity: .1;
      }

      .cls-30 {
        isolation: isolate;
      }
    </style>
  </defs>
  <g class="cls-30">
    <g id="Vrstva_1" data-name="Vrstva 1">
      <g>
        <path class="cls-26" d="M888.78,1528.5c0,11.36-118.9,20.58-276.5,20.58s-285.34-9.22-285.34-20.58,127.75-20.58,285.34-20.58,276.5,9.22,276.5,20.58Z"/>
        <g>
          <g>
            <circle class="cls-13" cx="774.35" cy="253.87" r="48.46"/>
            <circle class="cls-13" cx="425.99" cy="253.87" r="48.46"/>
          </g>
          <path class="cls-6" d="M532.96,79.44h138.03c69.17,0,125.32,56.15,125.32,125.32V717.14c0,107.26-87.08,194.34-194.34,194.34h0c-107.26,0-194.34-87.08-194.34-194.34V204.77c0-69.17,56.15-125.32,125.32-125.32Z"/>
          <line class="cls-1" x1="559.96" y1="955.42" x2="559.96" y2="1481.4"/>
          <line class="cls-1" x1="640.89" y1="956.97" x2="640.89" y2="1481.4"/>
          <path class="cls-11" d="M674.94,862.5h-145.94l-35.96-268.73c0-60.16,48.77-108.93,108.93-108.93h0c60.16,0,108.93,48.77,108.93,108.93l-35.96,268.73Z"/>
          <path class="cls-6" d="M358.97,6.25h247.28c60.76,0,110.08,49.33,110.08,110.08v20.22h-247.28c-60.76,0-110.08-49.33-110.08-110.08V6.25h0Z"/>
          <path class="cls-10" d="M744.86,1107.55H459.09v-231.07c0-59.59,48.31-107.9,107.9-107.9h69.98c59.59,0,107.9,48.31,107.9,107.9v231.07Z"/>
          <polyline class="cls-2" points="744.47 6.25 702.18 89.85 756.27 59.36"/>
          <g>
            <path class="cls-10" d="M611.32,1407.12h60.69v121.38h-30.45c-16.69,0-30.24-13.55-30.24-30.24v-91.14h0Z"/>
            <path class="cls-10" d="M672.01,1455.36h6.84c40.37,0,73.14,32.77,73.14,73.14h-79.98v-73.14h0Z"/>
          </g>
          <g>
            <path class="cls-10" d="M560.25,1407.12h30.45v121.38h-60.69v-91.14c0-16.69,13.55-30.24,30.24-30.24Z" transform="translate(1120.71 2935.62) rotate(-180)"/>
            <path class="cls-10" d="M450.03,1455.36h79.98c0,40.37-32.77,73.14-73.14,73.14h-6.84v-73.14h0Z" transform="translate(980.04 2983.87) rotate(-180)"/>
          </g>
          <g>
            <path class="cls-3" d="M273.34,594.72c202.38,151.62,230.75-55.88,230.75-55.88"/>
            <g>
              <rect class="cls-13" x="195.04" y="601.17" width="80.92" height="24.9" rx="12.45" ry="12.45" transform="translate(-64.21 28.67) rotate(-6.13)"/>
              <rect class="cls-13" x="194.85" y="540.93" width="108.14" height="70.48" rx="35.24" ry="35.24" transform="translate(416.66 -28.64) rotate(38.87)"/>
            </g>
          </g>
          <circle class="cls-11" cx="520.23" cy="628.96" r="66.16"/>
          <circle class="cls-11" cx="678.42" cy="628.96" r="66.16"/>
          <polygon class="cls-11" points="716.8 606.09 485.3 606.09 449.33 502.99 752.77 502.99 716.8 606.09"/>
          <g>
            <rect class="cls-13" x="448.16" y="107.08" width="307.62" height="327.88" rx="153.81" ry="153.81"/>
            <g>
              <g>
                <path class="cls-6" d="M652.14,219.21c-5.3,0-9.61-4.31-9.61-9.61s4.31-9.61,9.61-9.61,9.61,4.31,9.61,9.61-4.31,9.61-9.61,9.61Z"/>
                <path class="cls-6" d="M652.14,202.07c4.15,0,7.53,3.38,7.53,7.53s-3.38,7.53-7.53,7.53-7.53-3.38-7.53-7.53,3.38-7.53,7.53-7.53m0-4.17c-6.46,0-11.69,5.24-11.69,11.69s5.24,11.69,11.69,11.69,11.69-5.24,11.69-11.69-5.24-11.69-11.69-11.69h0Z"/>
              </g>
              <g>
                <path class="cls-6" d="M586.65,219.21c-5.3,0-9.61-4.31-9.61-9.61s4.31-9.61,9.61-9.61,9.61,4.31,9.61,9.61-4.31,9.61-9.61,9.61Z"/>
                <path class="cls-6" d="M586.65,202.07c4.15,0,7.53,3.38,7.53,7.53s-3.38,7.53-7.53,7.53-7.53-3.38-7.53-7.53,3.38-7.53,7.53-7.53m0-4.17c-6.46,0-11.69,5.24-11.69,11.69s5.24,11.69,11.69,11.69,11.69-5.24,11.69-11.69-5.24-11.69-11.69-11.69h0Z"/>
              </g>
            </g>
            <circle class="cls-14" cx="687.63" cy="260.89" r="43.29"/>
            <circle class="cls-12" cx="516.32" cy="260.89" r="43.29"/>
            <path class="cls-11" d="M626.61,367.1c35.31,0,63.93-28.62,63.93-63.93h-127.86c0,35.31,28.62,63.93,63.93,63.93Z"/>
          </g>
          <rect x="751.76" y="182.72" width="86.06" height="162.78" rx="19.14" ry="19.14"/>
          <circle class="cls-15" cx="769.49" cy="202.83" r="6.77"/>
          <circle class="cls-16" cx="769.49" cy="202.83" r="5.89"/>
          <circle class="cls-22" cx="794.79" cy="263.02" r="13.62"/>
          <g>
            <path class="cls-3" d="M840.7,265.62c37.69,343.53-147.26,273.23-147.26,273.23"/>
            <g>
              <rect class="cls-13" x="836.67" y="250.57" width="80.92" height="24.9" rx="12.45" ry="12.45" transform="translate(1592.57 -308.53) rotate(124.69)"/>
              <rect class="cls-13" x="783.75" y="221.66" width="108.14" height="70.48" rx="35.24" ry="35.24" transform="translate(940.58 -613.37) rotate(79.69)"/>
            </g>
          </g>
          <g>
            <rect class="cls-13" x="545.95" y="422.13" width="112.05" height="81.06"/>
            <path class="cls-13" d="M601.97,502.22h56.02c0,30.73-25.29,56.02-56.02,56.02s-56.02-25.29-56.02-56.02c0-.07,0-.15,0-.22l56.02,.22Z"/>
          </g>
          <g>
            <line class="cls-5" x1="639.55" y1="169.7" x2="681.95" y2="169.7"/>
            <line class="cls-5" x1="518.62" y1="169.7" x2="561.02" y2="169.7"/>
          </g>
        </g>
        <path class="cls-11" d="M929.98,510.92h32.65c3.19,0,5.78,2.59,5.78,5.78v32.65c0,3.19-2.59,5.78-5.78,5.78h-32.65c-3.19,0-5.78-2.59-5.78-5.78v-32.65c0-3.19,2.59-5.78,5.78-5.78Z"/>
        <circle class="cls-19" cx="946.3" cy="533.02" r="13.96"/>
        <path class="cls-4" d="M946.3,534.07s25.82,31.25-11.27,32.38c-37.09,1.13-102.02-.82,4.31,98.09,90.68,84.36,27.01,339.23-19.87,287.74s62.56-329.02-67.11-274.21"/>
        <g>
          <polygon class="cls-17" points="765 749.43 714.55 749.43 714.55 738.79 765 741.88 765 749.43"/>
          <path class="cls-20" d="M817.03,681.69l31.21-11.15,6.68,12.19-8.92,19.02,24.53,78.03-206.6-11.15,4.46-12.91-26.75-53.97,28.98-26.75,146.41,6.69Zm-126.34,20.07l-6.69,4.46,26.75,40.13,61.68,3.09,13.38-11.4-8.92-31.82-86.21-4.46Z"/>
          <polygon class="cls-25" points="828.79 692.79 846 701.75 850.8 717.13 828.79 692.79"/>
          <path class="cls-25" d="M868.76,774.17l1.76,5.61-206.6-11.15,4.46-12.91,200.38,18.45Z"/>
          <polygon class="cls-18" points="663.93 768.63 630.49 788.7 623.8 813.22 881.68 813.22 870.53 779.78 663.93 768.63"/>
          <polygon class="cls-25" points="630.49 788.7 623.8 813.22 881.68 813.22 877.64 801.2 630.49 788.7"/>
        </g>
        <g>
          <g>
            <rect class="cls-18" x="139.06" y="1214.63" width="857.82" height="30.44" transform="translate(-781.08 1106.62) rotate(-59.99)"/>
            <path class="cls-21" d="M339.13,1592.99c-11.06,19.17,17.69,35.77,28.76,16.6,4.61-7.98,9.22-15.97,13.83-23.96-9.58-5.54-19.17-11.07-28.76-16.6-4.61,7.98-9.23,15.98-13.84,23.96Z"/>
            <polygon class="cls-23" points="769.24 850.79 744.77 893.16 779.93 893.16 795.6 866.01 769.24 850.79"/>
          </g>
          <polygon class="cls-23" points="597.95 1147.46 582.57 1174.11 600.34 1204.21 617.26 1174.9 597.95 1147.46"/>
          <g>
            <rect class="cls-18" x="632.07" y="800.94" width="30.44" height="857.82" transform="translate(-528.21 488.43) rotate(-30)"/>
            <path class="cls-21" d="M876.12,1592.99c11.07,19.17-17.68,35.77-28.75,16.6-4.62-7.98-9.22-15.97-13.84-23.96,9.59-5.54,19.17-11.07,28.75-16.6,4.62,7.98,9.23,15.98,13.83,23.96Z"/>
            <path class="cls-21" d="M601.25,1160.88c0,3.82,3.09,6.92,6.92,6.93,3.82,0,6.92-3.1,6.92-6.93,0-3.81-3.1-6.91-6.92-6.91s-6.92,3.1-6.92,6.91Z"/>
            <polygon class="cls-23" points="446.02 850.79 470.48 893.16 435.33 893.16 419.66 866.01 446.02 850.79"/>
          </g>
          <g>
            <path class="cls-28" d="M1197.16,843.49H15.22c-20.29,0-20.29-30.44,0-30.44H1197.16v30.44Z"/>
            <path class="cls-24" d="M15.22,843.49H1197.16v-11.9H.34c1.27,6.35,6.22,11.9,14.88,11.9Z"/>
            <polygon class="cls-21" points="1381.43 810.28 1381.43 843.49 131.21 843.49 131.21 868.39 1381.43 868.39 1409.1 868.39 1409.1 843.49 1409.1 810.28 1381.43 810.28"/>
          </g>
        </g>
        <g>
          <polygon class="cls-7" points="909.02 813.05 900.8 813.05 683.44 813.05 672.11 813.05 661.29 809.96 649.45 813.05 641.97 813.05 624.21 813.05 606.18 808.35 584.04 809.96 514.32 813.05 441.89 809.38 399.15 813.05 296.83 809.96 282.82 860.8 241.48 890.13 235.25 931.58 225.92 982.43 222.14 1034.88 374.34 1061.15 370.65 1041.16 379.06 1011.79 379.88 970.14 388.91 956.69 565.86 984.54 606.43 991.02 625.47 992.42 756.86 1029.6 813.24 1036.72 868.89 1056.03 893.76 1061.89 909.02 813.05"/>
          <g class="cls-29">
            <polygon class="cls-8" points="514.54 813.49 547.99 813.49 602.57 889.8 514.54 813.49"/>
            <polygon class="cls-8" points="645.27 813.49 649.96 813.49 661.23 810.54 672.04 813.49 678.72 813.49 690.99 862.57 645.27 813.49"/>
            <polygon class="cls-8" points="670.15 853.18 691.58 876.07 697.15 897.49 670.15 853.18"/>
            <polygon class="cls-8" points="404 837.48 433.34 841 367.76 870.49 404 837.48"/>
            <polygon class="cls-8" points="338.54 1029.53 237.7 999.59 233.59 1016.61 338.54 1029.53"/>
            <polygon class="cls-8" points="286.77 873.61 269.31 897.09 244.66 909.41 272.24 908.23 286.77 873.61"/>
            <polygon class="cls-8" points="592.54 912.13 606.43 991.02 625.47 992.42 592.54 912.13"/>
            <polygon class="cls-8" points="759.66 998.91 813.24 1036.72 765.84 1030.84 759.66 998.91"/>
            <polygon class="cls-8" points="376.12 923.8 388.91 956.69 379.88 970.14 376.12 923.8"/>
          </g>
          <polygon class="cls-9" points="893.76 1061.89 909.02 813.05 904.47 813.05 890.74 898.22 876.05 1019.51 893.76 1061.89"/>
          <polygon class="cls-9" points="246.45 1025.11 374.34 1061.15 222.14 1034.88 246.45 1025.11"/>
          <polygon class="cls-9" points="294.71 862.06 253.54 889.5 241.48 890.13 282.82 860.8 296.83 809.96 300.42 810.14 294.71 862.06"/>
        </g>
        <path class="cls-27" d="M835.48,813.05c0,17.6-35.22,31.87-78.67,31.87s-78.67-14.27-78.67-31.87h157.34Z"/>
        <path class="cls-27" d="M886.41,813.05c0,29-58.02,52.5-129.6,52.5s-129.6-23.51-129.6-52.5h259.2Z"/>
        <path class="cls-27" d="M904.46,813.04l-7.92,51.84c-34.64,15.32-84.42,24.92-139.73,24.92-104.64,0-189.47-34.37-189.47-76.76h337.12Z"/>
        <path class="cls-27" d="M904.46,813.04l-14.2,92.96c-39.21,9.25-84.8,14.56-133.45,14.56-146.57,0-265.4-48.14-265.4-107.52h413.05Z"/>
      </g>
    </g>
  </g>
</svg>