<?xml version="1.0" encoding="UTF-8"?>
<svg id="Vrstva_1" data-name="Vrstva 1" xmlns="http://www.w3.org/2000/svg" viewBox="0 0 454.84 845.23">
  <defs>
    <style>
      .cls-1 {
        fill: #635d69;
      }

      .cls-2 {
        fill: #e2e6fd;
        fill-rule: evenodd;
        opacity: .46;
      }

      .cls-3 {
        fill: none;
        stroke: #4f4b54;
        stroke-linecap: round;
        stroke-miterlimit: 10;
        stroke-width: 10px;
      }
    </style>
  </defs>
  <g id="Fireplace_07">
    <path class="cls-1" d="M0,133.35v174.23H260.66c11.01,0,19.94,8.93,19.94,19.94V845.23h174.23V291.87h0c0-87.55-70.97-158.52-158.52-158.52H0Z"/>
    <line class="cls-3" x1="289.65" y1="296.15" x2="387.68" y2="198.11"/>
    <line class="cls-3" x1="289.65" y1="296.15" x2="412.87" y2="234.15"/>
    <line class="cls-3" x1="289.65" y1="296.15" x2="423.06" y2="276.3"/>
    <line class="cls-3" x1="289.65" y1="296.15" x2="305.03" y2="159.9"/>
  </g>
  <path class="cls-2" d="M337.22,122.64c4.14-3.06,1.53-.82,.52-2.92-9.77-.93-18.66-5.15-16.9-15.93,3.75-22.93,48.96-34.76,52.11-66.97,1.94-19.81-8.44-37.75-26.56-36.78-18.93,1.01-29.13,26.24-21.67,40.34,3.44-5.84,5.99-12.67,12.88-13.55,5.67-.73,11.51,4.2,11.37,11.05-.19,8.68-8.44,24.42-14.71,33.81-7.68,11.49-33.12,31.95-14.92,50.19,6.23,6.24,11.49,4.19,17.89,.77"/>
  <path class="cls-2" d="M335.48,189.1c3.98-15.22-1.15-13.76,10.58-27.87,7.97-9.6,13.11-14.12,17.6-24.31,9.9-22.47-8.08-48.17-35.44-31.75,7.18,2.03,14.79,2.02,20.62,9.13,7.51,9.17,4.14,18.16,.86,25.75-10.7,24.73-21.79,30.34-14.21,49.06"/>
</svg>