<?xml version="1.0" encoding="UTF-8"?>
<svg id="Vrstva_1" data-name="Vrstva 1" xmlns="http://www.w3.org/2000/svg" viewBox="0 0 125.43 311.65">
  <defs>
    <style>
      .cls-1, .cls-2 {
        fill: #1a1a19;
      }

      .cls-3 {
        fill: #5e3407;
      }

      .cls-3, .cls-4, .cls-2, .cls-5 {
        fill-rule: evenodd;
      }

      .cls-4 {
        fill: #886136;
      }

      .cls-5 {
        fill: #c46813;
      }
    </style>
  </defs>
  <g>
    <path class="cls-5" d="M84.72,288.79c-.85,.12-6.05,5.4-6.86,6.49-1.16,1.56-3.94,5.68-5.45,6.68-1.58,1.05-2.58,3.18-4.67,3.37-.01,0,.05,.45,.04,.52-.3,1.49-.84,2.78-1.5,4.14-.73,1.48-4.24,3.2-.91-.89,1.12-1.38,1.05-4.43,2.59-5.9,.19,.02,3.96-3.2,4.3-3.64,1.5-1.94,2.87-3.6,4.75-5.17,1.13-.95,1.34-2.01,3.26-3.3,1.22-.81,1.01-1.4,2.34-2.06,.8-.39,1.31-.84,2.13-.24Z"/>
    <g>
      <path class="cls-1" d="M82.6,289.02c-1.33,.66-1.12,1.25-2.34,2.06-1.92,1.28-2.13,2.35-3.26,3.3-1.88,1.58-3.25,3.24-4.75,5.17-.34,.44-4.11,3.66-4.3,3.64-1.54,1.48-1.46,4.52-2.59,5.9-3.32,4.1,.19,2.37,.91,.89,.66-1.35,1.21-2.65,1.5-4.14,.02-.07-.05-.52-.04-.52,2.09-.19,3.09-2.32,4.67-3.37,1.51-1,4.3-5.12,5.45-6.68,.81-1.09,6.01-6.37,6.86-6.49-.82-.6-1.33-.15-2.13,.24Z"/>
      <path class="cls-1" d="M59.55,260.28c-.59-.08-1.27-.16-1.99-.2-.31-.02-.62-.03-.94-.03-.21,0-.42,0-.64,.01-1.69,.08-3.37,.51-4.35,1.75-.25,.31-.45,.67-.59,1.09-.24,.69-1.1,2.54-2.17,4.73-.19,.4-.39,.81-.6,1.22-.2,.42-.41,.84-.62,1.26-.53,1.06-1.07,2.12-1.58,3.11-.92,1.78-1.75,3.34-2.27,4.21-.17,.29-.31,.5-.4,.63-.92,1.18-1.21,1.96-1.38,2.57-.32,1.16-.17,1.67-2.99,3.03-1.22,.59-1.73,1.42-2.14,1.91-.14,.16-.26,.28-.4,.34-.14,.06-.27,.15-.38,.24-.68,.59-.89,1.68-.55,1.72,.06,0,.13-.02,.21-.08,2.25-1.56,3.07-3.72,6.78-5.29,.19-.08,.45-.34,.76-.73,.08-.1,.16-.21,.24-.32,.17-.23,.35-.49,.53-.78,.38-.57,.79-1.25,1.21-1.99,2.25-3.89,4.98-9.51,5.47-10.84,.12-.33,.23-.63,.32-.91,.68-1.98,.82-2.88,1.22-3.22,.17-.15,.39-.19,.71-.18,.54,.03,1.38,.22,2.81,.4,.11,.01,.21,.02,.29,.02,.08,0,.15,0,.21-.02,.3-.06,.35-.23,.47-.23,.02,0,.05,0,.08,.02h0c.05-.07,.15-.17,.27-.3,.06-.06,.13-.13,.21-.21,.99-.98,2.98-2.81,2.17-2.92Z"/>
      <path class="cls-1" d="M64.63,248.62c.72-.41,1.41-.81,2.04-1.16,.63-.35,1.19-.66,1.65-.9,.57-.3,.98-.49,1.14-.51,.03,0,.05,0,.07,0,.75,.55,1.16,2,1.64,3.56,.04,.14,.09,.28,.13,.43,.09,.29,.18,.57,.28,.86,.15,.43,.31,.85,.49,1.24,.12,.26,.25,.52,.39,.76,.07,.12,.14,.23,.22,.35,.61,.89,1.42,1.5,2.58,1.52,.58,.01,1.25-.12,2.02-.44,.03-.01,.12-.02,.24-.01,.18,0,.42,.02,.62,.04,.07,0,.13,.02,.18,.03,.11,.02,.18,.04,.18,.06h0s0,0,0,0c-.41-1.36-2.3-4.1-3.99-6.14-.77-.93-1.49-1.71-2.01-2.16-1.22-1.04-1.51-1.89-2.24-2.02-.08-.01-.17-.02-.26-.01s-.19,.02-.3,.05c-.33,.08-.73,.25-1.27,.54-.36,.19-.77,.44-1.26,.74-.33,.2-.66,.38-1,.56-.17,.09-.34,.18-.5,.26-.34,.18-.67,.36-1.01,.57-.5,.31-.99,.67-1.47,1.15,0,0-.02,.01-.05,.03-.06,.04-.19,.12-.35,.22-.66,.41-1.98,1.24-3.02,1.96-.39,.27-.73,.52-.99,.73-.08,.07-.16,.13-.22,.19s-.11,.11-.15,.15c-.19,.23-1.74,.8-2.39,1.17-.07,.04-.13,.08-.18,.12-.19,.14-.15,.24,.31,.24,.23,0,.57-.02,1.04-.08,.45-.05,3.79-2,6.88-3.78,.18-.1,.36-.21,.54-.31Z"/>
      <path class="cls-1" d="M101.6,270.04c-.21-.17-.47-.35-.77-.54-.74-.47-1.68-.98-2.46-1.38-.77-.4-1.37-.69-1.43-.73-.86-.6-1.53-.95-2.11-1.21-.96-.44-1.66-.62-2.59-1.31t0,0s0,0,0,0c.67,.49,.42,1.4,.07,2.18-.27,.59,.05,1.13,.68,1.64,.31,.25,.71,.5,1.15,.74s.92,.47,1.42,.71c.25,.12,.5,.23,.75,.35,1.75,.8,3.46,1.59,3.69,2.47,.56,2.08,.24,4.65-.56,6.93-.16,.46-.34,.9-.53,1.33-.39,.86-.84,1.64-1.33,2.31,.8,.89,2.28,2.45,2.64,3.78,.05,.19,.08,.38,.08,.55,0,.5,.16,.86,.37,1.09,.07,.08,.14,.14,.22,.18,.15,.09,.3,.12,.41,.1,.06-.01,.11-.04,.15-.08,.04-.04,.06-.1,.07-.16,.15-1.38-.38-2.25-.97-2.85-.15-.15-.3-.28-.45-.4-.15-.12-.29-.23-.43-.32-.26-.19-.47-.35-.55-.5-.05-.1-.06-.31-.03-.62,.03-.3,.08-.69,.17-1.13,.08-.45,.19-.95,.31-1.48,.18-.8,.4-1.66,.62-2.48,.36-1.38,.73-2.65,.96-3.38,.09-.29,.16-.49,.2-.58,.94-2.22,.67-3.08,.38-3.51-.15-.22-.3-.32-.3-.44,0-.06,.03-.12,.12-.2s.23-.18,.45-.3c.06-.03,.09-.07,.09-.12,.02-.15-.16-.36-.47-.61Z"/>
      <path class="cls-1" d="M110.91,247.74c-.69-.43-1.41-.62-2.09-.63-.17,0-.34,.01-.5,.03-.82,.11-1.56,.52-2.11,1.15-.66,.76-1.03,1.85-.94,3.16,.03,.35-.19,1.42-.35,2.52-.04,.28-.08,.55-.11,.82-.09,.81-.1,1.55,.07,1.93,0,.01-.02,.02-.07,0-.6-.09-5.01-1.61-6.72-1.8-.14-.02-.27-.02-.37-.02-.2,0-.31,.06-.31,.17,.02,.33,.02,.62,0,.86-.02,.24-.05,.45-.1,.62-.09,.34-.22,.56-.32,.72-.13,.2-.22,.31-.15,.47,.04,.09,.15,.2,.34,.36h0c.22-.03,.43-.04,.63-.04,2.07,.05,3.71,1.7,5.57,1.57,.93-.07,1.91-.59,3.03-1.97,1.18-1.47,.26-9.62,2.61-9.72,.34-.01,.74,.14,1.22,.49,.86,.64,1.98,1.13,2.58,1.24,.17,.03,.3,.03,.37,0,.24-.12-.27-.69-2.31-1.94Z"/>
      <path class="cls-1" d="M82.61,246.89s0,0,0,0c0-.02,0-.03,.01-.04,.04-.09,.06-.16,.07-.22,0-.02,0-.03,0-.05,0-.04,.01-.07,0-.09,0,0,0-.01,0-.02,0-.01-.01-.02-.03-.01-.06,0-.16,.21-.08,.43h0s0,0,0,0Z"/>
      <path class="cls-1" d="M76.97,242.49c.36,1.06-.43,2.18-.59,3.48-.02,.16-.03,.33-.03,.5,.01,.51,.15,1.04,.49,1.62,.35,.57,.92,1.18,1.79,1.83,.18,.14,.35,.26,.5,.38,.76,.58,1.14,.88,1.39,.89,.05,0,.09,0,.14-.03,.04-.02,.08-.06,.12-.11,.07-.1,.14-.24,.22-.44,.23-.6,.56-1.67,1.4-3.28,.08-.16,.14-.29,.19-.4,.01,.01,.02,.03,.03,.04,.01,.02,.02,.03,.03,.04,0,0,0,0,0,0,0,0,0,0,0,0-.03-.04-.04-.08-.05-.12h0s0,0,0,0c0,0,0,.02-.01,.02,0,0,0,0,0,0-.75-.98-1.52-1.44-2.31-2.32,0,0,0,0,0,0-.07-.08-.14-.16-.21-.25-.01-.02-.03-.03-.04-.05-.06-.08-.13-.16-.19-.25-.02-.03-.04-.05-.06-.07-.06-.08-.11-.17-.17-.25-.02-.04-.05-.07-.07-.11-.05-.08-.11-.18-.16-.27-.03-.05-.05-.09-.08-.14-.06-.1-.12-.21-.18-.32-.02-.05-.05-.09-.07-.13-.08-.16-.17-.33-.25-.51-.21-.45-.66-.63-.88-1.15-.11-.26-.16-.62-.09-1.14,.07-.52,.25-1.21,.61-2.15,.09-.24,.21-.83,.33-1.64,.12-.8,.25-1.82,.35-2.93,.04-.37,.07-.75,.1-1.13,.02-.19,.03-.39,.04-.58,.03-.39,.05-.78,.07-1.17,.02-.39,.04-.78,.05-1.16,.07-2.48-.06-4.68-.63-5.31-.29-.32-.47-.94-.72-1.21-.05-.05-.1-.09-.16-.11-.11-.04-.25,0-.41,.16-.35,.35,.87,3.32,1,4.11,.03,.17,0,.46-.06,.84-.1,.63-.29,1.51-.49,2.46-.31,1.51-.63,3.19-.57,4.29,.04,.7-.39,1.76-.74,2.95-.45,1.53-.78,3.27,.16,4.72,.08,.13,.15,.26,.19,.39Z"/>
      <path class="cls-1" d="M92.31,239.47c.05-.3-.13-.76-.42-1.32-.23-.45-.52-.96-.8-1.52-.28-.56-.55-1.17-.74-1.79-.14-.47-.24-.95-.26-1.43-.06-1.3-.83-1.9-1.63-2.93-.18-.23-.35-.48-.53-.76-.43-.71-.81-1.62-1.04-2.94-.14-.81-.27-1.4-.39-1.82-.12-.42-.23-.67-.33-.8-.06-.08-.12-.11-.16-.09-.13,.05-.16,.49-.02,.98,.04,.16,.11,.33,.19,.49,.17,.32,.28,.6,.35,.85,.26,.87,.07,1.37,.16,2.02,.09,.66,.45,1.48,1.83,3,1.91,2.11,.41,4.59,2.63,6.55,.05,.05,.64,1.78,.64,3.03,0,.21-.02,.4-.05,.58-.04,.17-.1,.32-.18,.44-.03,.04,.03,.34,.06,.5,0,.05,.01,.09,.01,.09,.57-.56,.67-.92,.65-1.36-.01-.43-.13-.94,.01-1.77Z"/>
      <path class="cls-1" d="M123.24,243.07c-1.11-.04-2.67,.25-4.8,1.29-1.14,.56-3.3,.64-5.49,.66-.24,0-.49,0-.73,0-1.46,0-2.88,0-3.97,.11-3.06,.3-3.6,.54-6.46,1.09-.05,0-.45,.04-1.01,.08-.24,.02-.51,.04-.8,.07-.19,.02-.39,.04-.59,.06-.4,.04-.82,.09-1.21,.14-.59,.08-1.12,.17-1.5,.28-.62,.18-.79,.39,.02,.65,.41,.13,.74,.21,1.01,.25,.14,.02,.26,.03,.37,.03,.78,.02,1-.35,1.48-.64,.28-.17,.65-.31,1.26-.33,.31-.01,.67,0,1.12,.06,.4,.05,.79,.06,1.16,.06,1.11-.03,2.09-.28,3.02-.52,.93-.25,1.81-.49,2.75-.5,.31,0,.62,.02,.95,.07,.18,.03,.43,.04,.73,.04,1.49,0,4.26-.35,6.26-.65,.4-.06,.77-.12,1.09-.17,.32-.05,.59-.1,.8-.14,.58-.11,1.11-.25,1.63-.38,.77-.2,1.5-.39,2.3-.51,.53-.08,1.1-.12,1.73-.11,.32,0,.65,.03,1,.06h0c.27,.03-.28-.97-2.12-1.05Z"/>
    </g>
    <path class="cls-4" d="M53.54,291.71c-1.03-1.38-4.65-3.82-2.87-6.63,.02-.03-2.49-2.52-1.17-5.64,.54-1.29-.49-1.41,.28-4.24,.15-.56-.16-.86,.4-2.34,.38-3.04,1.88-4.57,2.92-5.19,.23-.89,1.77-3.76,2.75-3.74,.48,0,2.21-4.64,5.1-3.79,2.79-2.56,4.34-5.02,8.66-5.19,0,0,.79-1.19,1.1-1.39,2.73-1.73,2.43-1.95,5.62-.65,2.97,1.2,1.64-1.24,7.42,3.03,.95,.7,7.87,5.44,7.92,5.8,1.52,1.59,3.37,6.65,1.16,8.18-.3,.2,.37-.1,.28,.9-.21,2.43,.74,5.6-2.27,6.72-.12,.35,1.68,2.83-1.83,5.82-.52,.7-1.08,.64-1.28,.87,.25,1.37-2.08,4.31-4.04,4.37-.99,2.22-2.64,3.07-4.08,2.93-.44,.67-2.94,3.09-5.35,2.01-1.39,2.45-5.67,2.44-6.53,1.08-2.27,2.57-5.98,1.94-8.92,1.06-.99,.94-2.56-.13-3.4-.75-1.23-.91-1.56-1.67-1.88-3.09v-.11Z"/>
    <g>
      <path class="cls-3" d="M50.24,286.83v-.12s-.04-.04-.06-.06c0,.82,.37,1.59,.88,2.3-.41-.58-.62-1.22-.82-2.12Z"/>
      <path class="cls-3" d="M92.2,262.41c-.14,.65-.44,1.19-.96,1.55-.31,.21,.39-.1,.3,.94-.22,2.54,.77,5.84-2.36,7.01-.13,.36,1.76,2.96-1.91,6.07-.54,.73-1.13,.67-1.34,.91,.26,1.43-2.17,4.49-4.22,4.56-1.03,2.32-2.76,3.2-4.26,3.05-.46,.7-3.07,3.23-5.58,2.09-1.45,2.56-5.92,2.55-6.82,1.12-2.37,2.68-6.24,2.03-9.31,1.1-1.03,.98-2.67-.14-3.55-.78-.44-.33-.77-.64-1.03-.96,.8,1.06,1.87,1.96,2.36,2.61v.11c.32,1.42,.65,2.18,1.89,3.09,.84,.62,2.41,1.69,3.4,.75,2.94,.89,6.65,1.51,8.92-1.06,.86,1.37,5.14,1.37,6.53-1.08,2.4,1.09,4.91-1.34,5.35-2.01,1.44,.14,3.09-.71,4.08-2.93,1.96-.06,4.3-3,4.04-4.37,.2-.23,.76-.17,1.28-.87,3.51-2.98,1.71-5.47,1.83-5.82,3.01-1.12,2.05-4.29,2.27-6.72,.09-1-.58-.7-.28-.9,1.96-1.35,.74-5.47-.63-7.5Z"/>
    </g>
    <path class="cls-3" d="M95.24,252.21c1.94-1.55,5.46,1.91,1.97,5.91-1.55,1.78-7.8,4.4-10.43,3.76-2.82-.69-4.8,.88-4.27-2.43,.28-1.74-5.93-6.29,.28-14.69,2.22-3.01,6.56-1.23,4.69,.87-.62,.69,.28,1.86,.83,.74,.6-1.24-1.84-3.1,.93-3.4,1.01-.11,1.08,1.5,1.69-1.21,.76-3.36,2.41-1.51,1.71-.52-.43,.61-2.01,1.68-.15,2.67,.97,.52,1.1-4.17,4.35,.34,1.29,1.8-2.21,.66,0,2.53,1.46,1.24-2.48,.13,.45,2.16,.33,.23,1.67,2.83-1.29,2.05-.25-.07-2.45,1.31-.75,1.24Z"/>
    <path class="cls-2" d="M97.98,250.81c-.5,.68-1.41,.86-2.03,.4-.62-.46-.72-1.38-.21-2.05,.5-.68,1.41-.86,2.03-.4,.62,.46,.72,1.38,.22,2.05Z"/>
    <path class="cls-2" d="M90.15,244.69c-.5,.68-1.41,.85-2.03,.4-.62-.46-.72-1.38-.22-2.05,.5-.68,1.41-.86,2.03-.4,.62,.46,.72,1.38,.22,2.05Z"/>
  </g>
  <g>
    <path class="cls-5" d="M53.02,187.65c-.49,.7-.23,8.11,.01,9.45,.34,1.91,1.43,6.77,1.12,8.55-.32,1.87,.54,4.06-.75,5.71,0,.01,.37,.27,.4,.33,.88,1.24,1.45,2.52,1.98,3.93,.58,1.54-.58,5.28-1.28,.05-.24-1.77-2.5-3.8-2.52-5.93,.14-.12,.39-5.07,.31-5.62-.38-2.42-.65-4.56-.51-7.01,.09-1.47-.55-2.35-.16-4.64,.24-1.44-.33-1.7,.11-3.12,.26-.85,.29-1.53,1.29-1.71Z"/>
    <g>
      <path class="cls-1" d="M51.74,189.36c-.43,1.42,.14,1.67-.11,3.12-.39,2.28,.25,3.16,.16,4.64-.14,2.45,.13,4.58,.51,7.01,.09,.55-.16,5.5-.31,5.62,.02,2.13,2.28,4.17,2.52,5.93,.7,5.23,1.85,1.49,1.28-.05-.53-1.41-1.1-2.7-1.98-3.93-.04-.06-.41-.32-.4-.33,1.29-1.65,.43-3.84,.75-5.71,.31-1.79-.77-6.64-1.12-8.55-.24-1.34-.51-8.75-.01-9.45-1,.18-1.02,.86-1.29,1.71Z"/>
      <path class="cls-1" d="M15.01,186.39c-.46,.37-.99,.82-1.51,1.31-.22,.21-.45,.43-.66,.66-.14,.15-.29,.31-.43,.47-1.1,1.29-1.94,2.8-1.71,4.36,.06,.39,.18,.79,.38,1.18,.33,.65,1.09,2.55,1.95,4.82,.16,.41,.32,.84,.48,1.27,.16,.43,.32,.87,.49,1.32,.41,1.11,.81,2.23,1.18,3.28,.67,1.89,1.23,3.57,1.51,4.54,.09,.32,.15,.57,.18,.72,.23,1.48,.59,2.23,.92,2.76,.62,1.03,1.09,1.27,.15,4.26-.41,1.29-.15,2.23-.08,2.86,.02,.21,.03,.38-.02,.52-.05,.14-.08,.29-.08,.44-.04,.9,.61,1.8,.87,1.58,.04-.04,.07-.1,.09-.21,.41-2.71-.6-4.78,.8-8.56,.07-.19,.06-.56-.01-1.06-.02-.12-.04-.26-.07-.4-.05-.28-.12-.59-.2-.92-.16-.67-.37-1.43-.62-2.25-1.29-4.31-3.5-10.15-4.13-11.42-.16-.31-.3-.6-.44-.86-.97-1.85-1.53-2.57-1.51-3.1,0-.23,.12-.41,.36-.64,.39-.38,1.11-.85,2.22-1.77,.09-.07,.16-.14,.21-.2,.06-.06,.1-.12,.13-.17,.16-.26,.07-.41,.15-.5,.02-.02,.04-.03,.07-.05h0c-.02-.08-.03-.22-.03-.4,0-.09,0-.19,0-.3-.03-1.39,0-4.09-.63-3.58Z"/>
      <path class="cls-1" d="M10.02,174.7c.19-.8,.38-1.58,.56-2.28,.18-.7,.34-1.32,.48-1.82,.18-.62,.32-1.04,.41-1.18,.02-.03,.03-.04,.05-.04,.91-.16,2.25,.53,3.72,1.25,.13,.07,.27,.13,.4,.2,.27,.13,.54,.26,.82,.39,.41,.19,.83,.36,1.24,.5,.27,.09,.55,.17,.82,.24,.13,.03,.27,.06,.4,.08,1.06,.17,2.06,0,2.88-.83,.41-.41,.77-.99,1.07-1.77,.01-.03,.07-.1,.15-.18,.12-.13,.3-.29,.46-.42,.05-.04,.1-.08,.14-.12,.09-.07,.15-.1,.17-.1h0s0,0,0,0c-1.27-.64-4.56-1.14-7.2-1.32-1.2-.08-2.27-.09-2.95-.02-1.59,.17-2.42-.2-3,.24-.07,.05-.13,.11-.19,.18s-.12,.15-.17,.25c-.17,.29-.32,.7-.48,1.29-.11,.39-.21,.86-.33,1.42-.08,.38-.17,.74-.28,1.11-.05,.18-.1,.36-.15,.55-.1,.37-.2,.74-.28,1.12-.12,.58-.19,1.18-.17,1.85,0,0,0,.02-.01,.06-.01,.08-.04,.22-.08,.41-.15,.76-.46,2.3-.65,3.54-.07,.47-.13,.89-.15,1.22,0,.11-.01,.21-.01,.29s0,.16,.01,.21c.04,.3-.61,1.82-.79,2.55-.02,.08-.03,.15-.04,.21-.02,.24,.07,.27,.39-.06,.16-.17,.38-.43,.66-.81,.27-.36,1.15-4.13,1.97-7.6,.05-.2,.1-.41,.15-.61Z"/>
      <path class="cls-1" d="M50.97,162.51c-.26,.04-.58,.1-.92,.19-.85,.22-1.87,.55-2.69,.84-.82,.29-1.45,.52-1.52,.54-1.03,.22-1.74,.46-2.33,.7-.98,.4-1.59,.78-2.73,.99t0,0s0,0,0,0c.81-.15,1.31,.65,1.64,1.44,.25,.6,.85,.74,1.65,.63,.4-.05,.85-.17,1.32-.33s.98-.35,1.49-.55c.25-.1,.51-.2,.77-.31,1.79-.72,3.53-1.42,4.33-.99,1.89,1.02,3.54,3.02,4.66,5.17,.22,.43,.43,.87,.6,1.3,.36,.87,.62,1.74,.76,2.55,1.2,.03,3.35,.02,4.56,.67,.17,.09,.33,.2,.46,.32,.37,.34,.74,.47,1.05,.48,.1,0,.2-.01,.28-.03,.17-.05,.29-.13,.36-.23,.03-.05,.05-.11,.04-.16,0-.05-.03-.11-.07-.16-.9-1.06-1.89-1.27-2.74-1.25-.21,0-.41,.03-.6,.05-.19,.03-.37,.06-.53,.09-.32,.06-.58,.1-.74,.05-.11-.03-.27-.17-.47-.4-.2-.23-.44-.53-.71-.9-.27-.37-.56-.79-.86-1.24-.45-.68-.93-1.43-1.38-2.15-.75-1.21-1.43-2.35-1.8-3.02-.15-.27-.25-.45-.29-.54-.96-2.21-1.78-2.6-2.29-2.68-.26-.04-.44,0-.53-.09-.04-.04-.07-.11-.06-.23s.03-.29,.09-.54c.01-.06,0-.11-.03-.15-.09-.12-.37-.13-.77-.07Z"/>
      <path class="cls-1" d="M41.14,140.43c-.79,.21-1.42,.6-1.89,1.09-.12,.12-.22,.25-.32,.39-.48,.68-.69,1.49-.61,2.33,.1,1,.64,2.02,1.66,2.85,.27,.22,.9,1.11,1.59,1.98,.17,.22,.35,.44,.53,.64,.53,.62,1.06,1.14,1.46,1.27,.01,0,0,.02-.04,.05-.48,.37-4.61,2.54-5.92,3.65-.11,.09-.2,.18-.27,.25-.13,.15-.17,.27-.09,.34,.26,.21,.47,.41,.63,.59,.17,.18,.29,.35,.38,.5,.19,.3,.26,.55,.3,.73,.06,.23,.08,.37,.24,.43,.1,.03,.25,.03,.49,0h0c.13-.18,.26-.34,.41-.48,1.46-1.47,3.79-1.53,4.96-2.98,.59-.72,.89-1.79,.64-3.56-.26-1.87-6.82-6.79-5.28-8.57,.22-.25,.6-.44,1.2-.55,1.05-.19,2.18-.67,2.67-1.03,.14-.1,.23-.2,.25-.27,.07-.26-.69-.28-3,.35Z"/>
      <path class="cls-1" d="M21.1,160.44s0,0,0,0c0-.02-.01-.02-.02-.04-.04-.09-.08-.15-.11-.2-.01-.02-.02-.03-.03-.04-.03-.03-.05-.06-.06-.07,0,0-.01,0-.02,0-.01,0-.02,0-.03,0-.04,.05,.04,.26,.26,.35h0s0,0,0,0Z"/>
      <path class="cls-1" d="M14.03,161.52c1.02,.46,1.29,1.81,2.13,2.82,.11,.13,.22,.25,.35,.36,.38,.34,.86,.61,1.51,.75,.66,.14,1.48,.14,2.56-.05,.23-.04,.43-.08,.62-.11,.94-.16,1.43-.23,1.6-.4,.03-.04,.06-.08,.07-.12,.01-.05,.01-.1,0-.16-.02-.12-.08-.27-.17-.46-.28-.58-.83-1.55-1.42-3.26-.06-.17-.11-.3-.16-.41,.02,0,.04,0,.06,0,.02,0,.04,0,.06,0,0,0,0,0,0,0,0,0,0,0,0,0-.05,0-.08-.03-.12-.04h0s0,0,0,0c0,0,0,.02,0,.02,0,0,0,0,0,0-1.23-.13-2.09,.12-3.27,.08,0,0,0,0,0,0-.1,0-.21,0-.32-.02-.02,0-.04,0-.06,0-.1,0-.21-.02-.31-.03-.03,0-.06,0-.09,0-.1-.01-.2-.03-.3-.05-.04,0-.09-.01-.13-.02-.1-.02-.2-.04-.31-.07-.05-.01-.1-.02-.15-.03-.11-.03-.23-.06-.35-.09-.05-.01-.1-.02-.15-.04-.17-.05-.35-.11-.54-.17-.47-.16-.91,.05-1.44-.15-.27-.1-.56-.31-.89-.71-.33-.41-.71-1.01-1.14-1.92-.11-.24-.46-.73-.96-1.37-.5-.64-1.16-1.43-1.89-2.27-.24-.28-.5-.56-.76-.85-.13-.14-.26-.29-.39-.43-.26-.29-.53-.57-.8-.86-.27-.28-.54-.56-.81-.83-1.75-1.75-3.45-3.17-4.29-3.19-.43-.01-1.01-.31-1.37-.3-.07,0-.14,.01-.19,.04-.11,.06-.17,.18-.16,.41,.02,.5,3.01,1.65,3.68,2.09,.14,.09,.34,.31,.57,.62,.39,.51,.9,1.25,1.45,2.04,.88,1.26,1.89,2.64,2.73,3.36,.53,.45,1.01,1.49,1.64,2.57,.8,1.38,1.84,2.81,3.54,3.12,.15,.03,.29,.07,.42,.13Z"/>
      <path class="cls-1" d="M22.36,148.29c-.18-.25-.64-.42-1.24-.6-.48-.14-1.06-.29-1.65-.47-.6-.18-1.23-.4-1.81-.69-.44-.22-.86-.48-1.22-.8-.99-.85-1.96-.7-3.25-.83-.29-.03-.59-.07-.91-.14-.81-.17-1.74-.52-2.85-1.26-.68-.45-1.2-.76-1.59-.96-.39-.2-.65-.29-.8-.31-.1-.01-.16,0-.18,.05-.05,.13,.25,.45,.7,.69,.15,.08,.31,.15,.48,.2,.35,.1,.63,.21,.86,.33,.82,.41,1.04,.89,1.58,1.27,.54,.39,1.38,.68,3.44,.73,2.85,.06,3.62,2.85,6.57,2.58,.07,0,1.73,.76,2.64,1.62,.15,.14,.28,.29,.38,.43,.1,.15,.17,.29,.19,.43,0,.04,.27,.21,.4,.3,.04,.03,.07,.05,.07,.06-.01-.8-.22-1.12-.54-1.41-.32-.29-.77-.55-1.28-1.22Z"/>
      <path class="cls-1" d="M46.2,128.26c-.79,.77-1.66,2.11-2.36,4.38-.38,1.21-1.79,2.84-3.28,4.45-.17,.18-.33,.36-.5,.53-.99,1.06-1.97,2.1-2.64,2.97-1.88,2.43-2.08,2.99-3.64,5.45-.03,.04-.28,.35-.63,.79-.15,.19-.32,.4-.5,.63-.12,.15-.24,.31-.36,.47-.25,.32-.5,.65-.73,.97-.35,.48-.65,.94-.83,1.28-.3,.57-.26,.84,.48,.43,.37-.21,.66-.4,.87-.57,.11-.09,.2-.17,.28-.25,.55-.56,.43-.97,.55-1.52,.07-.32,.22-.68,.62-1.14,.2-.23,.46-.49,.81-.78,.31-.26,.59-.53,.84-.81,.74-.83,1.23-1.71,1.69-2.56,.46-.85,.89-1.66,1.52-2.34,.21-.23,.44-.44,.7-.64,.15-.11,.33-.28,.53-.5,1.02-1.09,2.67-3.34,3.82-5,.23-.33,.44-.64,.62-.91,.18-.27,.33-.5,.45-.68,.32-.5,.58-.98,.84-1.44,.39-.7,.75-1.36,1.21-2.02,.31-.44,.67-.88,1.11-1.33,.22-.23,.46-.45,.73-.68h0c.21-.18-.9-.46-2.22,.83Z"/>
    </g>
    <path class="cls-4" d="M33.75,212.34c-1.71-.2-5.97,.76-6.8-2.46,0-.04-3.54,.08-4.91-3.02-.56-1.28-1.36-.61-2.89-3.11-.3-.5-.74-.48-1.42-1.9-1.95-2.36-2.04-4.5-1.77-5.69-.49-.77-1.52-3.87-.84-4.57,.33-.34-1.86-4.79,.75-6.31,.05-3.78-.67-6.61,2.17-9.86,0,0-.32-1.39-.25-1.75,.61-3.18,.25-3.1,3.39-4.54,2.91-1.33,.22-2.04,7.29-3.32,1.17-.21,9.36-1.99,9.65-1.78,2.2-.01,7.15,2.11,6.75,4.78-.06,.36,.18-.34,.85,.41,1.62,1.82,4.58,3.3,3.33,6.26,.17,.33,3.22,.72,2.98,5.32,.15,.86-.28,1.23-.24,1.53,1.17,.76,1.71,4.47,.4,5.94,.94,2.24,.42,4.03-.67,4.98,.19,.78,.23,4.26-2.21,5.26,.83,2.69-2.11,5.8-3.7,5.49,.31,3.42-2.69,5.68-5.35,7.21,0,1.37-1.85,1.77-2.88,1.96-1.51,.27-2.29,0-3.54-.76l-.09-.07Z"/>
    <g>
      <path class="cls-3" d="M27.94,211.39l-.09-.08s-.05,0-.08,0c.6,.56,1.41,.82,2.27,.94-.71-.1-1.32-.38-2.1-.86Z"/>
      <path class="cls-3" d="M38.97,164.11c.37,.55,.57,1.14,.47,1.76-.06,.37,.19-.35,.89,.43,1.69,1.9,4.78,3.45,3.48,6.53,.18,.34,3.36,.75,3.11,5.56,.16,.9-.29,1.28-.26,1.6,1.22,.79,1.78,4.66,.42,6.2,.98,2.34,.43,4.2-.7,5.19,.2,.81,.24,4.45-2.31,5.49,.87,2.81-2.21,6.05-3.86,5.73,.32,3.57-2.81,5.93-5.59,7.53,0,1.43-1.93,1.85-3,2.04-.54,.1-.99,.12-1.41,.09,1.32,.14,2.71-.02,3.52,.08l.09,.07c1.25,.75,2.03,1.03,3.54,.76,1.02-.18,2.88-.59,2.88-1.96,2.66-1.53,5.66-3.8,5.35-7.21,1.59,.31,4.53-2.8,3.7-5.49,2.44-1,2.4-4.49,2.21-5.26,1.09-.95,1.61-2.73,.67-4.98,1.3-1.47,.77-5.18-.4-5.94-.03-.3,.4-.67,.25-1.53,.24-4.6-2.81-5-2.98-5.32,1.25-2.96-1.71-4.44-3.33-6.26-.67-.75-.91-.06-.85-.41,.36-2.35-3.47-4.29-5.89-4.69Z"/>
    </g>
    <path class="cls-3" d="M33.64,154.9c.21-2.48,5.14-2.65,5.65,2.62,.23,2.35-2.15,8.69-4.43,10.16-2.43,1.58-2.66,4.09-4.7,1.44-1.07-1.39-8.64,0-10.49-10.29-.66-3.68,3.61-5.62,3.85-2.81,.08,.92,1.55,1.07,1.11-.1-.49-1.29-3.51-.79-1.83-3.01,.61-.81,1.83,.25,.28-2.06-1.92-2.85,.56-2.79,.8-1.61,.15,.73-.15,2.62,1.84,1.94,1.05-.35-2.28-3.67,3.24-2.93,2.2,.29-1.03,2.06,1.84,1.74,1.91-.21-1.61,1.89,1.88,1.15,.39-.08,3.2,.73,.6,2.34-.22,.14-.73,2.68,.38,1.4Z"/>
    <path class="cls-2" d="M34.49,151.95c.15,.83-.34,1.61-1.1,1.75-.76,.14-1.49-.42-1.64-1.25-.15-.83,.34-1.61,1.1-1.75,.76-.14,1.49,.42,1.64,1.25Z"/>
    <path class="cls-2" d="M24.67,153.44c.15,.83-.35,1.61-1.1,1.75-.76,.14-1.49-.43-1.64-1.25-.15-.83,.34-1.61,1.1-1.75,.76-.14,1.49,.42,1.64,1.25Z"/>
  </g>
  <g>
    <path class="cls-5" d="M87.31,45.74c.45-.73,7.38-3.36,8.71-3.66,1.9-.43,6.79-1.32,8.31-2.3,1.6-1.02,3.95-1.08,4.97-2.91,0-.01,.39,.23,.46,.24,1.48,.33,2.89,.35,4.39,.29,1.65-.07,4.64-2.59-.45-1.2-1.72,.47-4.47-.83-6.45-.01-.06,.18-4.52,2.33-5.06,2.47-2.38,.59-4.45,1.18-6.65,2.26-1.32,.65-2.38,.41-4.33,1.66-1.23,.79-1.69,.36-2.83,1.31-.68,.57-1.3,.86-1.07,1.85Z"/>
    <g>
      <path class="cls-1" d="M88.38,43.89c1.14-.95,1.6-.52,2.83-1.31,1.95-1.24,3.01-1,4.33-1.66,2.2-1.08,4.27-1.67,6.65-2.26,.54-.13,5-2.29,5.06-2.47,1.97-.81,4.73,.48,6.45,.01,5.09-1.39,2.09,1.13,.45,1.2-1.51,.06-2.91,.03-4.39-.29-.07-.01-.45-.26-.46-.24-1.02,1.83-3.37,1.89-4.97,2.91-1.52,.98-6.42,1.87-8.31,2.3-1.33,.3-8.25,2.93-8.71,3.66-.22-.99,.39-1.28,1.07-1.85Z"/>
      <path class="cls-1" d="M71.36,11.21c.16-.57,.37-1.23,.62-1.9,.11-.29,.22-.58,.35-.87,.09-.19,.17-.39,.27-.58,.76-1.52,1.82-2.88,3.35-3.27,.38-.1,.79-.14,1.24-.11,.73,.05,2.77,.01,5.2-.08,.44-.02,.9-.04,1.36-.06,.46-.02,.93-.04,1.4-.06,1.18-.06,2.37-.12,3.48-.19,2-.12,3.76-.26,4.77-.38,.33-.04,.59-.08,.74-.12,1.45-.37,2.28-.32,2.9-.23,1.19,.17,1.59,.52,3.98-1.52,1.03-.88,2-1.01,2.61-1.19,.2-.06,.36-.12,.47-.22,.11-.1,.24-.18,.38-.25,.81-.39,1.9-.13,1.8,.19-.02,.05-.07,.11-.16,.16-2.34,1.43-4.64,1.31-7.57,4.07-.15,.14-.49,.28-.98,.4-.12,.03-.25,.06-.39,.09-.28,.06-.59,.12-.93,.17-.68,.11-1.46,.21-2.31,.31-4.47,.49-10.71,.72-12.13,.64-.35-.02-.67-.05-.97-.07-2.08-.18-2.96-.41-3.44-.18-.2,.1-.33,.28-.45,.58-.19,.51-.35,1.35-.77,2.73-.03,.11-.07,.2-.1,.27-.03,.08-.07,.14-.11,.19-.18,.25-.35,.22-.4,.33-.01,.02-.02,.05-.01,.09h0c-.08,.02-.22,.06-.38,.13-.08,.03-.18,.07-.28,.11-1.29,.51-3.77,1.59-3.55,.81Z"/>
      <path class="cls-1" d="M58.65,11.16c-.67,.49-1.31,.97-1.88,1.4-.58,.43-1.09,.82-1.49,1.15-.5,.4-.84,.7-.92,.83-.02,.03-.02,.05-.02,.06,.2,.91,1.36,1.87,2.6,2.94,.11,.1,.23,.19,.34,.29,.23,.2,.45,.4,.67,.6,.33,.31,.65,.62,.94,.95,.19,.22,.37,.44,.53,.66,.08,.11,.16,.23,.23,.34,.57,.92,.8,1.9,.35,2.97-.22,.54-.61,1.09-1.22,1.67-.02,.02-.06,.1-.11,.21-.07,.16-.15,.39-.21,.59-.02,.06-.04,.12-.05,.18-.03,.1-.04,.18-.02,.19h0s0,0,0,0c-1.08-.93-2.83-3.76-4.02-6.12-.54-1.08-.97-2.05-1.17-2.71-.46-1.53-1.12-2.15-.94-2.86,.02-.08,.05-.16,.09-.24s.1-.17,.16-.26c.2-.27,.52-.57,1-.94,.32-.25,.71-.53,1.18-.86,.32-.22,.62-.45,.91-.69,.15-.12,.3-.24,.44-.35,.3-.24,.6-.47,.92-.69,.48-.33,1.01-.64,1.64-.88,0,0,.02-.01,.05-.03,.06-.04,.18-.12,.34-.23,.64-.43,1.94-1.31,3.01-1.97,.4-.25,.77-.46,1.06-.61,.1-.05,.19-.09,.26-.13s.15-.06,.2-.07c.29-.08,1.43-1.27,2.04-1.72,.07-.05,.13-.09,.18-.12,.21-.11,.28-.04,.09,.39-.09,.21-.25,.51-.49,.92-.23,.39-3.36,2.66-6.23,4.77-.17,.12-.34,.25-.5,.37Z"/>
      <path class="cls-1" d="M63.35,53.63c-.07-.26-.13-.57-.18-.92-.13-.87-.22-1.93-.27-2.8-.06-.87-.08-1.54-.09-1.6-.2-1.03-.25-1.79-.26-2.42-.01-1.05,.1-1.77-.15-2.9t0,0s0,0,0,0c.18,.81,1.11,.95,1.97,.95,.65,0,1.01,.5,1.23,1.28,.11,.39,.17,.85,.21,1.35s.06,1.04,.07,1.58c0,.27,0,.55,.01,.83,.03,1.93,.06,3.8,.77,4.37,1.68,1.35,4.16,2.09,6.57,2.28,.48,.04,.96,.06,1.43,.05,.94-.01,1.84-.11,2.65-.29,.49,1.1,1.32,3.08,2.4,3.94,.15,.12,.31,.22,.47,.3,.46,.2,.72,.5,.85,.78,.04,.09,.07,.18,.08,.27,.02,.17,0,.32-.08,.42-.03,.05-.08,.08-.13,.1-.05,.02-.11,.02-.18,0-1.33-.42-1.91-1.25-2.21-2.04-.08-.2-.14-.39-.18-.58-.05-.19-.09-.36-.12-.52-.07-.32-.13-.57-.24-.7-.07-.09-.26-.18-.55-.28-.29-.1-.66-.2-1.11-.3-.44-.1-.94-.21-1.48-.31-.8-.15-1.68-.3-2.52-.44-1.4-.22-2.72-.4-3.48-.49-.3-.03-.52-.05-.61-.06-2.41-.03-3.08-.63-3.36-1.07-.14-.22-.18-.4-.29-.45-.05-.03-.12-.02-.23,.03s-.26,.14-.46,.29c-.05,.04-.1,.05-.15,.04-.14-.04-.27-.29-.37-.68Z"/>
      <path class="cls-1" d="M39.18,53.15c-.11-.81,0-1.54,.27-2.16,.07-.16,.15-.3,.23-.45,.44-.7,1.11-1.22,1.91-1.46,.96-.29,2.11-.2,3.27,.42,.31,.17,1.37,.4,2.45,.7,.27,.07,.54,.15,.8,.24,.78,.25,1.46,.53,1.74,.85,0,.01,.02-.01,.03-.06,.16-.59,.54-5.24,1.06-6.88,.04-.14,.09-.25,.13-.34,.09-.18,.18-.26,.28-.21,.3,.16,.56,.27,.79,.35,.23,.08,.43,.13,.61,.16,.35,.06,.6,.03,.79,0,.24-.04,.37-.08,.49,.06,.07,.08,.13,.22,.19,.45h0c-.11,.19-.21,.37-.29,.57-.78,1.91,.06,4.08-.81,5.73-.44,.82-1.31,1.51-3.03,1.98-1.82,.49-8.91-3.64-9.95-1.53-.15,.3-.17,.73-.04,1.32,.23,1.04,.23,2.27,.09,2.86-.04,.17-.09,.29-.15,.33-.21,.17-.53-.53-.85-2.9Z"/>
      <path class="cls-1" d="M49.82,26.91s0,0,0,0c-.02,0-.03,0-.04,0-.1,0-.17-.01-.23-.02-.02,0-.03,0-.05-.01-.04-.01-.07-.02-.09-.03,0,0-.01,0-.01-.01,0-.01,0-.02,0-.03,.03-.05,.26-.06,.42,.1h0s0,0,0,0Z"/>
      <path class="cls-1" d="M48.07,19.97c.82,.76,2.17,.48,3.43,.86,.16,.05,.31,.11,.47,.18,.46,.22,.9,.55,1.28,1.1,.38,.55,.71,1.31,.95,2.38,.05,.22,.1,.43,.14,.61,.22,.93,.35,1.4,.25,1.63-.02,.05-.05,.08-.09,.11-.04,.03-.09,.05-.14,.06-.12,.03-.28,.03-.49,.02-.64-.03-1.75-.17-3.56-.04-.18,.01-.32,.01-.44,.01,0,.02,.02,.03,.03,.05,0,.02,.02,.03,.03,.05,0,0,0,0,0,0,0,0,0,0,0,0-.02-.04-.06-.07-.09-.1h0s0,0,0,0c0,0,.02,0,.02,0,0,0,0,0,.01,0-.6-1.08-.71-1.97-1.19-3.05,0,0,0,0,0,0-.04-.1-.09-.19-.14-.29,0-.02-.02-.04-.03-.05-.05-.09-.1-.18-.15-.27-.02-.03-.03-.05-.04-.08-.05-.08-.11-.17-.16-.26-.02-.04-.04-.07-.07-.11-.06-.08-.12-.17-.18-.26-.03-.04-.06-.09-.09-.13-.07-.09-.15-.19-.22-.29-.03-.04-.06-.08-.09-.12-.11-.14-.24-.28-.37-.43-.33-.37-.31-.86-.7-1.27-.2-.21-.5-.4-1-.55-.5-.15-1.21-.26-2.21-.31-.26-.01-.85-.14-1.63-.35-.78-.21-1.77-.51-2.83-.86-.35-.12-.71-.24-1.08-.37-.18-.06-.37-.13-.55-.19-.37-.13-.74-.27-1.1-.41-.36-.14-.73-.28-1.08-.42-2.3-.93-4.26-1.95-4.61-2.71-.18-.39-.67-.81-.81-1.15-.03-.07-.04-.13-.04-.19,.01-.12,.1-.22,.31-.31,.46-.18,2.69,2.13,3.36,2.58,.14,.09,.42,.19,.79,.29,.62,.17,1.5,.34,2.44,.55,1.51,.32,3.17,.71,4.16,1.2,.63,.31,1.77,.35,3,.51,1.58,.2,3.31,.6,4.25,2.05,.09,.13,.18,.24,.28,.34Z"/>
      <path class="cls-1" d="M39.11,32.8c-.3-.07-.64-.43-1.04-.91-.32-.39-.67-.86-1.07-1.34-.4-.48-.84-.97-1.34-1.4-.37-.32-.77-.6-1.21-.81-1.17-.58-1.41-1.53-2.03-2.67-.14-.25-.29-.52-.49-.79-.48-.68-1.16-1.4-2.27-2.14-.68-.45-1.17-.81-1.51-1.09-.34-.28-.52-.49-.6-.62-.05-.09-.05-.15-.02-.18,.1-.1,.51,.06,.91,.37,.13,.11,.26,.23,.37,.37,.23,.28,.44,.5,.64,.67,.69,.59,1.22,.61,1.79,.96,.57,.34,1.17,1.01,2.01,2.89,1.16,2.6,4.03,2.23,4.93,5.05,.02,.07,1.37,1.3,2.52,1.81,.19,.08,.38,.15,.55,.18,.17,.03,.33,.04,.47,0,.04,0,.3,.17,.44,.25,.04,.03,.08,.05,.08,.05-.74,.3-1.11,.24-1.51,.05-.39-.19-.8-.5-1.62-.7Z"/>
      <path class="cls-1" d="M29.94,62.55c.41-1.03,1.3-2.35,3.12-3.88,.97-.82,1.92-2.76,2.82-4.75,.1-.22,.2-.44,.3-.67,.59-1.33,1.16-2.63,1.71-3.59,1.51-2.68,1.95-3.08,3.6-5.48,.03-.04,.21-.39,.48-.89,.11-.21,.24-.45,.38-.7,.09-.17,.19-.34,.29-.52,.2-.35,.41-.71,.62-1.05,.31-.51,.61-.96,.86-1.26,.41-.5,.68-.57,.58,.28-.05,.42-.11,.76-.18,1.03-.04,.13-.08,.25-.12,.36-.3,.73-.72,.77-1.18,1.1-.26,.19-.54,.47-.81,1.02-.14,.27-.27,.62-.4,1.05-.12,.39-.26,.75-.42,1.09-.47,1.01-1.1,1.8-1.7,2.55-.6,.75-1.18,1.46-1.57,2.31-.13,.28-.24,.58-.32,.9-.04,.18-.13,.41-.25,.68-.6,1.37-2.04,3.76-3.12,5.46-.22,.34-.42,.65-.6,.92-.18,.27-.33,.5-.45,.68-.34,.49-.67,.92-1,1.34-.49,.63-.96,1.22-1.39,1.9-.29,.46-.55,.96-.8,1.54-.12,.29-.24,.6-.34,.94h0c-.08,.26-.78-.65-.1-2.37Z"/>
    </g>
    <path class="cls-4" d="M102.55,18.38c-.85-1.5-1.62-5.79-4.91-5.3-.04,0-1.3-3.29-4.69-3.35-1.4-.02-1.09-1.01-3.99-1.45-.57-.08-.73-.49-2.3-.57-2.93-.88-4.94-.12-5.93,.58-.9-.15-4.16,.1-4.53,1.01-.18,.44-5.14,.15-5.52,3.14-3.46,1.52-6.35,1.95-8.24,5.84,0,0-1.4,.24-1.71,.45-2.69,1.8-2.76,1.44-2.86,4.88-.1,3.2-1.8,1-.22,8.01,.26,1.16,1.81,9.39,2.11,9.58,.84,2.03,4.73,5.77,7.02,4.36,.31-.19-.24,.3,.71,.63,2.31,.79,4.82,2.93,7.06,.64,.37,.03,1.92,2.68,6.06,.67,.85-.19,1.03-.73,1.31-.82,1.16,.78,4.78-.17,5.63-1.94,2.43,0,3.87-1.18,4.32-2.55,.79-.13,4.02-1.45,3.99-4.08,2.8-.28,4.52-4.2,3.62-5.54,3.27-1.04,4.19-4.69,4.56-7.74,1.26-.53,.91-2.4,.68-3.41-.34-1.5-.9-2.1-2.07-2.97l-.1-.05Z"/>
    <g>
      <path class="cls-3" d="M99.41,13.39l-.11-.06s-.02-.05-.04-.07c.75,.33,1.31,.98,1.75,1.73-.36-.61-.87-1.06-1.61-1.61Z"/>
      <path class="cls-3" d="M60.15,41.95c.65,.13,1.27,.08,1.81-.25,.32-.2-.25,.31,.74,.65,2.41,.82,5.04,3.06,7.37,.66,.38,.03,2,2.8,6.33,.7,.89-.2,1.07-.76,1.37-.86,1.21,.82,4.99-.17,5.88-2.02,2.54,0,4.04-1.23,4.51-2.67,.82-.14,4.19-1.51,4.16-4.26,2.92-.29,4.72-4.39,3.77-5.78,3.41-1.09,4.37-4.89,4.76-8.07,1.32-.55,.95-2.5,.71-3.56-.12-.54-.27-.96-.47-1.33,.65,1.16,1.04,2.5,1.44,3.21l.1,.05c1.18,.86,1.73,1.47,2.07,2.97,.23,1.02,.58,2.89-.68,3.41-.37,3.05-1.29,6.69-4.56,7.74,.9,1.34-.82,5.26-3.62,5.54,.03,2.64-3.2,3.95-3.99,4.08-.45,1.37-1.89,2.55-4.32,2.55-.85,1.77-4.47,2.72-5.63,1.94-.29,.09-.46,.63-1.31,.82-4.15,2.01-5.7-.64-6.06-.67-2.24,2.3-4.75,.15-7.06-.64-.95-.32-.41-.82-.71-.63-2.03,1.25-5.3-1.53-6.61-3.6Z"/>
    </g>
    <path class="cls-3" d="M49.59,40.61c-2.2,1.15-.45,5.76,4.61,4.18,2.25-.7,7.17-5.37,7.64-8.03,.51-2.86,2.74-4.04-.5-4.89-1.7-.45-3.37-7.96-13.56-5.67-3.65,.82-3.77,5.51-1.09,4.64,.88-.29,1.58,1.01,.34,1.06-1.38,.05-2.1-2.93-3.49-.52-.51,.88,.94,1.59-1.79,1.06-3.38-.66-2.35,1.6-1.17,1.36,.73-.15,2.35-1.16,2.5,.94,.08,1.1-4.27-.67-1.44,4.12,1.13,1.91,1.5-1.76,2.31,1.02,.54,1.84,1.12-2.22,1.79,1.28,.08,.39,1.92,2.67,2.39-.36,.04-.26,2.18-1.71,1.44-.19Z"/>
    <path class="cls-2" d="M47.21,42.55c.82-.19,1.35-.94,1.18-1.69-.17-.75-.97-1.21-1.79-1.02-.82,.18-1.35,.94-1.18,1.69,.17,.75,.97,1.21,1.79,1.03Z"/>
    <path class="cls-2" d="M44.76,32.93c.82-.19,1.35-.94,1.18-1.69-.17-.75-.97-1.21-1.79-1.03-.82,.19-1.35,.94-1.18,1.69,.17,.75,.97,1.21,1.79,1.03Z"/>
  </g>
</svg>