<?xml version="1.0" encoding="UTF-8"?>
<svg xmlns="http://www.w3.org/2000/svg" viewBox="0 0 1978 1769">
  <defs>
    <style>
      .cls-1 {
        fill: #fff;
      }

      .cls-2 {
        fill: #ffc851;
      }

      .cls-3 {
        fill: #ffaf3b;
      }

      .cls-4 {
        fill: #ff8673;
      }

      .cls-5 {
        fill: #d15548;
      }

      .cls-6 {
        fill: #948080;
      }

      .cls-7 {
        fill: #595e61;
      }

      .cls-8 {
        opacity: .4;
      }

      .cls-8, .cls-9 {
        fill: #1c1c1b;
        mix-blend-mode: multiply;
      }

      .cls-9 {
        opacity: .1;
      }

      .cls-10 {
        isolation: isolate;
      }
    </style>
  </defs>
  <g class="cls-10">
    <g id="Vrstva_1" data-name="Vrstva 1">
      <g id="SCHODY">
        <g>
          <g>
            <rect class="cls-6" x="968.08" y="643.39" width="152.19" height="17.12"/>
            <g>
              <rect class="cls-2" x="964.45" y="743.33" width="155.82" height="25.36"/>
              <rect class="cls-6" x="1077.98" y="745.81" width="25.89" height="20.58"/>
              <rect class="cls-6" x="998.73" y="745.93" width="2.23" height="19.91"/>
              <rect class="cls-6" x="1009.63" y="745.93" width="2.24" height="19.91"/>
            </g>
            <g>
              <rect class="cls-2" x="964.45" y="716.74" width="155.82" height="25.36"/>
              <rect class="cls-6" x="1077.98" y="719.22" width="25.89" height="20.58"/>
              <rect class="cls-6" x="998.73" y="719.33" width="2.23" height="19.91"/>
              <rect class="cls-6" x="1009.63" y="719.33" width="2.24" height="19.91"/>
            </g>
            <g>
              <rect class="cls-2" x="964.45" y="690.14" width="155.82" height="25.36"/>
              <rect class="cls-6" x="1077.98" y="692.62" width="25.89" height="20.58"/>
              <rect class="cls-6" x="998.73" y="692.74" width="2.23" height="19.91"/>
              <rect class="cls-6" x="1009.63" y="692.74" width="2.24" height="19.91"/>
            </g>
            <g>
              <rect class="cls-2" x="964.45" y="663.55" width="155.82" height="25.36"/>
              <rect class="cls-6" x="1077.98" y="666.02" width="25.89" height="20.58"/>
              <rect class="cls-6" x="998.73" y="666.14" width="2.23" height="19.91"/>
              <rect class="cls-6" x="1009.63" y="666.14" width="2.24" height="19.91"/>
            </g>
            <g>
              <rect class="cls-4" x="986.03" y="619.23" width="133.37" height="22.66"/>
              <rect class="cls-6" x="1004.57" y="623.16" width="2.73" height="14.79"/>
              <rect class="cls-6" x="1016.06" y="623.16" width="2.73" height="14.79"/>
              <rect class="cls-6" x="1090.15" y="622.23" width="22.75" height="16.89"/>
            </g>
          </g>
          <g>
            <rect class="cls-6" x="1341.76" y="315.64" width="10.52" height="144.96"/>
            <rect class="cls-3" x="1312.06" y="378.25" width="150.84" height="17.94" transform="translate(610.84 1600.42) rotate(-72.97)"/>
            <polygon class="cls-6" points="1392.33 458.27 1405.16 462.2 1443.92 335.49 1431.08 331.56 1392.33 458.27"/>
            <rect class="cls-4" x="1335.16" y="388.86" width="134.54" height="13.42" transform="translate(613.04 1620.38) rotate(-72.95)"/>
            <g>
              <rect class="cls-2" x="1288.04" y="312.47" width="24.16" height="148.41"/>
              <rect class="cls-6" x="1290.23" y="420.61" width="19.6" height="24.66"/>
              <rect class="cls-6" x="1290.76" y="345.13" width="18.96" height="2.13"/>
              <rect class="cls-6" x="1290.76" y="355.51" width="18.96" height="2.13"/>
            </g>
            <g>
              <rect class="cls-2" x="1315.27" y="312.47" width="24.16" height="148.41"/>
              <rect class="cls-6" x="1317.46" y="420.61" width="19.6" height="24.66"/>
              <rect class="cls-6" x="1317.99" y="345.13" width="18.96" height="2.13"/>
              <rect class="cls-6" x="1317.99" y="355.51" width="18.96" height="2.13"/>
            </g>
          </g>
          <g>
            <path class="cls-5" d="M896.11,884.88l-21.18-98.84h-38.77l-21.18,98.84c-1.04,4.87,.02,12.37,2.38,16.76l11.48,21.38h53.42l11.48-21.38c2.36-4.39,3.42-11.89,2.38-16.76Z"/>
            <path class="cls-9" d="M836.16,786.04l-21.18,98.84c-1.04,4.87,.02,12.37,2.38,16.76l11.48,21.38h25.73v-136.98h-18.4Z"/>
            <g>
              <polygon class="cls-7" points="903.21 790 897.74 790.96 885.05 750.94 895.98 749.02 903.21 790"/>
              <polygon class="cls-8" points="886.4 755.21 890.2 767.18 898.87 765.44 897.07 755.21 886.4 755.21"/>
            </g>
            <rect class="cls-7" x="843.59" y="759.22" width="24.97" height="26.82"/>
            <g>
              <rect class="cls-8" x="843.59" y="759.22" width="24.97" height="13.87"/>
              <path class="cls-7" d="M908.79,759.22c-29.78,3.44-51.79,8.21-72.13,8.32-11.36,0-15.75-10.47-13.15-18.55,1.63-5.07,6.01-9.2,13.15-9.2h72.13v19.42Z"/>
            </g>
          </g>
        </g>
        <polygon class="cls-1" points="1769.44 0 1769.44 153.78 1608.59 153.78 1608.59 307.57 1447.73 307.57 1447.73 461.35 1286.87 461.35 1286.87 615.14 1126.01 615.14 1126.01 768.92 965.15 768.92 965.15 922.71 804.29 922.71 804.29 1076.49 643.43 1076.49 643.43 1230.28 482.58 1230.28 482.58 1384.06 321.72 1384.06 321.72 1537.85 160.86 1537.85 160.86 1691.63 0 1691.63 0 1769 237.5 1768.5 1758.68 316.68 1978 111 1978 0 1769.44 0"/>
      </g>
    </g>
  </g>
</svg>