<?xml version="1.0" encoding="UTF-8"?>
<svg xmlns="http://www.w3.org/2000/svg" xmlns:xlink="http://www.w3.org/1999/xlink" viewBox="0 0 728.16 1531.06">
  <defs>
    <style>
      .cls-1, .cls-2, .cls-3, .cls-4, .cls-5, .cls-6, .cls-7, .cls-8, .cls-9, .cls-10 {
        fill: none;
      }

      .cls-2 {
        stroke: #76bfeb;
        stroke-width: 3px;
      }

      .cls-2, .cls-11, .cls-3, .cls-4, .cls-5, .cls-6, .cls-7, .cls-8, .cls-10 {
        stroke-miterlimit: 10;
      }

      .cls-2, .cls-11, .cls-3, .cls-4, .cls-6, .cls-7, .cls-9, .cls-10 {
        stroke-linecap: round;
      }

      .cls-11 {
        stroke: #e3633a;
        stroke-width: 7px;
      }

      .cls-11, .cls-12 {
        fill: #863d69;
      }

      .cls-13 {
        clip-path: url(#clippath);
      }

      .cls-14 {
        fill: #f92e2e;
      }

      .cls-15 {
        fill: #00deff;
      }

      .cls-16 {
        fill: #00dfff;
      }

      .cls-17 {
        fill: #00bde6;
      }

      .cls-18 {
        fill: #00a89d;
      }

      .cls-19 {
        fill: #00659a;
      }

      .cls-20 {
        fill: #00897d;
      }

      .cls-21 {
        fill: #69353e;
      }

      .cls-22 {
        fill: #007168;
      }

      .cls-23 {
        fill: #eafaff;
      }

      .cls-24 {
        fill: #f5477a;
      }

      .cls-25 {
        fill: #ff5283;
      }

      .cls-26 {
        fill: #ff565b;
      }

      .cls-27 {
        fill: #ff5786;
      }

      .cls-28 {
        fill: #ff491f;
      }

      .cls-29, .cls-30 {
        fill: #e7f2f6;
      }

      .cls-31 {
        fill: #ff9c1e;
      }

      .cls-32 {
        fill: #ffb031;
      }

      .cls-33 {
        fill: #ffa414;
      }

      .cls-34 {
        fill: #fff;
      }

      .cls-35 {
        fill: #ffe188;
      }

      .cls-36 {
        fill: #ff9f4e;
      }

      .cls-37 {
        fill: #ffda6c;
      }

      .cls-38, .cls-39 {
        fill: #f39015;
      }

      .cls-40 {
        fill: #ffc900;
      }

      .cls-41 {
        fill: #ffd753;
      }

      .cls-42 {
        fill: #ffbf9f;
      }

      .cls-43 {
        fill: #ff9a84;
      }

      .cls-44 {
        fill: #ffb7a6;
      }

      .cls-45 {
        fill: #ffc74c;
      }

      .cls-46 {
        fill: #ff3e1a;
      }

      .cls-47 {
        fill: #ff5031;
      }

      .cls-48 {
        fill: #ff928b;
      }

      .cls-49 {
        fill: #ff6080;
      }

      .cls-50 {
        fill: #ff5b7d;
      }

      .cls-51 {
        fill: #ff8025;
      }

      .cls-52 {
        fill: #ff7138;
      }

      .cls-53 {
        fill: #ff8d5d;
      }

      .cls-54 {
        fill: #ff85b9;
      }

      .cls-55 {
        fill: #f87;
      }

      .cls-56 {
        fill: #6b626c;
      }

      .cls-57 {
        fill: #7dbc00;
      }

      .cls-58 {
        fill: #737c8c;
      }

      .cls-59 {
        fill: #80eeff;
      }

      .cls-60 {
        fill: #80333a;
      }

      .cls-61 {
        fill: #7e777e;
      }

      .cls-62, .cls-63 {
        fill: #009dbc;
      }

      .cls-64 {
        fill: #009ccd;
      }

      .cls-65 {
        fill: #c43548;
      }

      .cls-66 {
        fill: #c34439;
      }

      .cls-67 {
        fill: #c1c3e4;
      }

      .cls-68 {
        fill: #b55214;
      }

      .cls-69 {
        fill: #bc3838;
      }

      .cls-70 {
        fill: #a82152;
      }

      .cls-71 {
        fill: #b45a41;
      }

      .cls-72 {
        fill: #b02c4f;
      }

      .cls-73 {
        fill: #cbe05e;
      }

      .cls-74 {
        fill: #d33269;
      }

      .cls-75 {
        fill: #c6444c;
      }

      .cls-76, .cls-77 {
        fill: #de3e2a;
      }

      .cls-78 {
        fill: #e22cc8;
      }

      .cls-79 {
        fill: #ae3c42;
      }

      .cls-80 {
        fill: #da4d45;
      }

      .cls-81 {
        fill: #d55b0a;
      }

      .cls-82 {
        fill: #dc7d60;
      }

      .cls-83 {
        fill: #e45d95;
      }

      .cls-84 {
        fill: #e3681b;
      }

      .cls-85 {
        fill: #e3633a;
      }

      .cls-86 {
        fill: #d6cbde;
      }

      .cls-87 {
        fill: #868e9a;
      }

      .cls-88 {
        fill: #635963;
      }

      .cls-89 {
        fill: #5f5f5f;
      }

      .cls-90 {
        fill: #60423f;
      }

      .cls-91 {
        fill: #5e394a;
      }

      .cls-92 {
        fill: #5d9b05;
      }

      .cls-93 {
        fill: #532c45;
      }

      .cls-3 {
        stroke-width: .39px;
      }

      .cls-3, .cls-4 {
        stroke: #ae3c42;
      }

      .cls-94, .cls-95, .cls-96 {
        fill: #7e2642;
      }

      .cls-94, .cls-95, .cls-96, .cls-63, .cls-97, .cls-98 {
        mix-blend-mode: multiply;
      }

      .cls-94, .cls-30 {
        opacity: .2;
      }

      .cls-99 {
        fill: #4c4c4c;
      }

      .cls-99, .cls-30 {
        mix-blend-mode: overlay;
      }

      .cls-4 {
        stroke-width: .41px;
      }

      .cls-100 {
        clip-path: url(#clippath-1);
      }

      .cls-5 {
        stroke-width: .11px;
      }

      .cls-5, .cls-10 {
        stroke: #ffb7a6;
      }

      .cls-95, .cls-101, .cls-98 {
        opacity: .3;
      }

      .cls-96 {
        opacity: .4;
      }

      .cls-6 {
        stroke-width: .5px;
      }

      .cls-6, .cls-7 {
        stroke: #c3443b;
      }

      .cls-7 {
        stroke-width: .51px;
      }

      .cls-63, .cls-97, .cls-102, .cls-77, .cls-103, .cls-39, .cls-104 {
        opacity: .5;
      }

      .cls-97 {
        fill: #9a5bb8;
      }

      .cls-8 {
        stroke: #e5d9dd;
        stroke-width: 2px;
      }

      .cls-105, .cls-101 {
        mix-blend-mode: screen;
      }

      .cls-105, .cls-106 {
        opacity: .6;
      }

      .cls-107 {
        opacity: .9;
      }

      .cls-9 {
        stroke: #ffbf9f;
        stroke-linejoin: round;
        stroke-width: 3.87px;
      }

      .cls-108 {
        isolation: isolate;
      }

      .cls-10 {
        stroke-width: 2.84px;
      }

      .cls-103 {
        fill: #c8301d;
      }

      .cls-104 {
        fill: #e57d00;
      }
    </style>
    <clipPath id="clippath">
      <polygon id="SVGID" class="cls-1" points="183.76 713.89 302.86 714.1 295.45 519.12 176.35 518.91 183.76 713.89"/>
    </clipPath>
    <clipPath id="clippath-1">
      <polygon id="SVGID-2" data-name="SVGID" class="cls-8" points="406.54 598.69 389.9 721.15 472.28 721.29 488.92 598.83 406.54 598.69"/>
    </clipPath>
  </defs>
  <g class="cls-108">
    <g id="Vrstva_1" data-name="Vrstva 1">
      <g id="skrin">
        <g>
          <g>
            <polygon class="cls-33" points="138.06 147.47 418.65 147.96 429.08 .5 148.49 .01 138.06 147.47"/>
            <polygon class="cls-33" points="139.11 36.78 435.1 37.29 437.7 .51 141.71 0 139.11 36.78"/>
            <path class="cls-70" d="M259.9,66.77c-.09,1.27,.88,2.32,2.16,2.32l43.73,.08c1.28,0,2.39-1.04,2.48-2.31l.73-10.26c.09-1.27-.88-2.32-2.16-2.32l-43.73-.08c-1.28,0-2.39,1.04-2.48,2.31l-.73,10.26Z"/>
          </g>
          <polygon class="cls-104" points="145.59 36.79 426.18 37.28 425.58 45.82 144.99 45.33 145.59 36.79"/>
        </g>
        <g>
          <polygon class="cls-29" points="543.57 1531.06 0 1530.12 98.36 139.29 641.93 140.24 543.57 1531.06"/>
          <g>
            <polygon class="cls-47" points="587.37 372.79 118.74 371.98 132.49 177.44 601.13 178.25 587.37 372.79"/>
            <polygon class="cls-47" points="549.54 907.83 80.9 907.02 91.12 762.42 559.76 763.23 549.54 907.83"/>
            <polygon class="cls-32" points="537.87 1072.76 69.23 1071.94 79.46 927.35 548.1 928.16 537.87 1072.76"/>
            <polygon class="cls-18" points="526.2 1237.82 57.56 1237.01 67.78 1092.41 536.42 1093.22 526.2 1237.82"/>
            <polygon class="cls-76" points="508.35 1490.15 39.71 1489.33 56.12 1257.33 524.76 1258.15 508.35 1490.15"/>
            <polygon class="cls-32" points="561.32 741.25 92.68 740.44 117.14 394.54 585.78 395.35 561.32 741.25"/>
            <polygon class="cls-38" points="284.35 740.2 92.72 739.87 108.35 518.79 299.98 519.13 284.35 740.2"/>
            <polygon class="cls-38" points="498.13 740.57 306.5 740.24 307.91 720.21 388.79 578.68 498.13 740.57"/>
          </g>
          <polygon class="cls-56" points="127.48 740.67 237.29 740.86 273.79 578.12 163.97 577.93 127.48 740.67"/>
          <polygon class="cls-20" points="272.13 1175.09 313.86 1218.09 325.78 1158.73 273.29 1158.64 272.13 1175.09"/>
        </g>
        <polygon class="cls-99" points="639.91 1526.34 540.18 1530.44 642.17 140.69 728.16 235.65 639.91 1526.34"/>
        <polygon class="cls-47" points="508.35 1490.15 39.71 1489.33 45.56 1406.62 514.2 1407.43 508.35 1490.15"/>
        <polygon class="cls-76" points="408.22 1404.69 45.74 1404.06 41.74 1460.68 63.22 1475.81 303.59 1463.63 323.29 1476.26 403.15 1476.4 408.22 1404.69"/>
        <polygon class="cls-20" points="536.42 1093.22 530.63 1175.14 62 1174.33 67.8 1092.4 536.42 1093.22"/>
        <polygon class="cls-38" points="541.53 1021.1 72.89 1020.28 79.46 927.35 548.1 928.16 541.53 1021.1"/>
        <polygon class="cls-76" points="551.39 881.57 356.81 881.24 340.26 896.01 303.47 881.14 127.49 880.84 116.47 896.33 82.75 880.76 91.12 762.42 559.76 763.23 551.39 881.57"/>
        <polygon class="cls-103" points="508.35 1490.15 437.93 1407.3 514.2 1407.43 508.35 1490.15"/>
        <polygon class="cls-20" points="526.05 1239.98 455.62 1157.13 531.9 1157.26 526.05 1239.98"/>
        <polygon class="cls-39" points="537.88 1072.71 467.45 989.86 543.73 989.99 537.88 1072.71"/>
        <polygon class="cls-77" points="549.73 905.12 479.31 822.27 555.58 822.4 549.73 905.12"/>
        <polygon class="cls-76" points="587.37 372.79 528.3 372.69 542.05 178.15 601.13 178.25 587.37 372.79"/>
        <polygon class="cls-76" points="597.79 225.5 477.81 225.29 499.27 372.64 360.48 372.4 129.15 224.68 132.49 177.44 601.13 178.25 597.79 225.5"/>
        <polygon class="cls-39" points="526.7 395.25 117.14 394.54 113.8 441.78 523.36 442.49 502.24 741.15 561.32 741.25 582.44 442.6 585.78 395.35 526.7 395.25"/>
        <g>
          <polygon class="cls-22" points="145.6 740.7 313.38 741 151 491.98 136.45 499.8 145.6 740.7"/>
          <polygon class="cls-18" points="160.45 740.73 328.22 741.02 318.77 492.28 151 491.98 160.45 740.73"/>
          <polygon class="cls-54" points="183.76 713.89 302.86 714.1 295.45 519.12 176.35 518.91 183.76 713.89"/>
          <polygon class="cls-88" points="381.87 741.12 505.18 741.33 526.51 584.35 512.1 578.89 381.87 741.12"/>
          <g>
            <polygon class="cls-18" points="378.31 731.12 397.67 588.68 500.51 588.86 481.15 731.3 378.31 731.12"/>
            <path class="cls-61" d="M488.92,598.83l-16.64,122.46-82.38-.14,16.64-122.46,82.38,.14m23.18-19.94l-123.31-.21-22.07,162.41,123.31,.21,22.07-162.41h0Z"/>
          </g>
        </g>
        <path class="cls-15" d="M308.1,890.68c-.23,3.29-3.12,5.98-6.42,5.97l-191.97-.33c-3.3,0-5.81-2.7-5.58-6l2.11-29.8c.23-3.29,3.12-5.98,6.42-5.97l191.97,.33c3.3,0,5.81,2.7,5.58,6l-2.11,29.8Z"/>
        <path class="cls-37" d="M313.81,809.96c-.23,3.29-3.12,5.98-6.42,5.97l-191.97-.33c-3.3,0-5.81-2.7-5.58-6l2.11-29.8c.23-3.29,3.12-5.98,6.42-5.97l191.97,.33c3.3,0,5.81,2.7,5.58,6l-2.11,29.8Z"/>
        <path class="cls-32" d="M512.8,1197.38c-.23,3.29-3.12,5.98-6.42,5.97l-191.97-.33c-3.3,0-5.81-2.7-5.58-6l3.47-49.13c.23-3.29,3.12-5.98,6.42-5.97l191.97,.33c3.3,0,5.81,2.7,5.58,6l-3.47,49.13Z"/>
        <path class="cls-20" d="M511.54,1215.28c-.23,3.29-3.12,5.98-6.42,5.97l-191.97-.33c-3.3,0-5.81-2.7-5.58-6l2.11-29.8c.23-3.29,3.12-5.98,6.42-5.97l191.97,.33c3.3,0,5.81,2.7,5.58,6l-2.11,29.8Z"/>
        <path class="cls-37" d="M511.8,1211.53c-.23,3.29-3.12,5.98-6.42,5.97l-191.97-.33c-3.3,0-5.81-2.7-5.58-6l2.11-29.8c.23-3.29,3.12-5.98,6.42-5.97l191.97,.33c3.3,0,5.81,2.7,5.58,6l-2.11,29.8Z"/>
        <path class="cls-54" d="M310.98,850.01c-.23,3.29-3.12,5.98-6.42,5.97l-191.97-.33c-3.3,0-5.81-2.7-5.58-6l2.11-29.8c.23-3.29,3.12-5.98,6.42-5.97l191.97,.33c3.3,0,5.81,2.7,5.58,6l-2.11,29.8Z"/>
        <path class="cls-73" d="M533.67,890.36c-.23,3.29-3.12,5.98-6.42,5.97l-191.97-.33c-3.3,0-5.81-2.7-5.58-6l2.11-29.8c.23-3.29,3.12-5.98,6.42-5.97l191.97,.33c3.3,0,5.81,2.7,5.58,6l-2.11,29.8Z"/>
        <path class="cls-84" d="M537.85,831.23c-.23,3.29-3.12,5.98-6.42,5.97l-191.97-.33c-3.3,0-5.81-2.7-5.58-6l2.28-32.3c.23-3.29,3.12-5.98,6.42-5.97l191.97,.33c3.3,0,5.81,2.7,5.58,6l-2.28,32.3Z"/>
        <path class="cls-51" d="M536.49,850.4c-.23,3.29-3.12,5.98-6.42,5.97l-191.97-.33c-3.3,0-5.81-2.7-5.58-6l2.11-29.8c.23-3.29,3.12-5.98,6.42-5.97l191.97,.33c3.3,0,5.81,2.7,5.58,6l-2.11,29.8Z"/>
        <g>
          <g>
            <polygon class="cls-16" points="76.12 1293.42 315.59 1293.84 318.16 1257.57 78.68 1257.15 76.12 1293.42"/>
            <polygon class="cls-17" points="63.22 1475.81 302.69 1476.23 315.86 1290.12 76.38 1289.71 63.22 1475.81"/>
            <polygon class="cls-20" points="60.29 1198.5 78.22 1222.46 230.34 1222.73 233.9 1172.37 93.94 1161.55 62.91 1161.49 60.29 1198.5"/>
            <polygon class="cls-53" points="81.41 1218.62 227.42 1218.88 231.46 1161.79 85.44 1161.53 81.41 1218.62"/>
            <g>
              <polygon class="cls-12" points="89.27 1161.62 91.85 1125.17 230.2 1125.41 227.62 1161.86 89.27 1161.62"/>
              <path class="cls-85" d="M226.11,1129.14l-2.05,28.96-130.69-.23,2.05-28.96,130.69,.23m8.19-7.48l-146.01-.25-3.11,43.94,146.01,.25,3.11-43.94h0Z"/>
            </g>
            <polygon class="cls-17" points="73.81 1325.97 313.29 1326.39 315.86 1290.12 76.38 1289.71 73.81 1325.97"/>
            <path class="cls-90" d="M157.96,1366.45c-.12,1.72,1.19,3.14,2.92,3.14l59.2,.1c1.73,0,3.24-1.4,3.36-3.13l.98-13.89c.12-1.72-1.19-3.14-2.92-3.14l-59.2-.1c-1.73,0-3.24,1.4-3.36,3.13l-.98,13.89Z"/>
            <polygon class="cls-29" points="137.19 1352.04 199.35 1326.19 78.71 1325.98 137.19 1352.04"/>
          </g>
          <polygon class="cls-63" points="73.81 1325.97 313.29 1326.39 312.47 1337.95 73 1337.54 73.81 1325.97"/>
        </g>
        <g>
          <g>
            <polygon class="cls-45" points="334.24 1321.56 494.91 1321.84 498.22 1275.08 337.54 1274.8 334.24 1321.56"/>
            <polygon class="cls-33" points="323.29 1476.26 483.01 1476.54 494.14 1319.1 334.43 1318.82 323.29 1476.26"/>
            <polygon class="cls-33" points="332.54 1345.61 493.21 1345.89 495.1 1319.1 334.43 1318.82 332.54 1345.61"/>
            <path class="cls-90" d="M385.57,1382.98c-.09,1.27,.88,2.32,2.16,2.32l43.73,.08c1.28,0,2.39-1.04,2.48-2.31l.9-12.76c.09-1.27-.88-2.32-2.16-2.32l-43.73-.08c-1.28,0-2.39,1.04-2.48,2.31l-.9,12.76Z"/>
          </g>
          <polygon class="cls-104" points="332.54 1345.61 491.95 1345.89 491.34 1354.43 331.93 1354.15 332.54 1345.61"/>
        </g>
        <polygon class="cls-62" points="77.11 1279.34 316.59 1279.75 318.16 1257.57 78.68 1257.15 77.11 1279.34"/>
        <polygon class="cls-104" points="335.62 1301.98 496.29 1302.25 498.22 1275.08 337.54 1274.8 335.62 1301.98"/>
        <g>
          <polygon class="cls-68" points="322.13 205.89 310.36 372.31 358.61 372.4 370.38 205.98 322.13 205.89"/>
          <polygon class="cls-81" points="345.9 205.93 334.13 372.35 358.61 372.4 370.38 205.98 345.9 205.93"/>
          <polygon class="cls-46" points="436.89 216.09 483.95 372.6 524.95 358.46 477.89 201.95 436.89 216.09"/>
          <polygon class="cls-58" points="321.75 221.98 278.6 221.9 267.97 372.24 311.12 372.31 321.75 221.98"/>
          <polygon class="cls-89" points="298.23 221.94 273.5 221.9 262.87 372.23 287.6 372.27 298.23 221.94"/>
          <polygon class="cls-52" points="438.96 222.18 406.38 222.13 395.74 372.46 428.33 372.52 438.96 222.18"/>
          <polygon class="cls-40" points="370.38 205.98 358.61 372.4 395.74 372.46 407.51 206.04 370.38 205.98"/>
          <g class="cls-101">
            <polygon class="cls-34" points="313.29 341.65 312.82 348.22 360.31 348.3 360.78 341.73 313.29 341.65"/>
          </g>
          <g class="cls-101">
            <polygon class="cls-34" points="321.54 224.99 321.07 231.56 368.56 231.65 369.03 225.07 321.54 224.99"/>
          </g>
          <g class="cls-105">
            <polygon class="cls-87" points="283.77 238.34 283.3 244.92 308.7 244.97 309.16 238.39 283.77 238.34"/>
          </g>
          <polygon class="cls-46" points="228.17 191.08 215.37 372.15 263.61 372.23 276.42 191.16 228.17 191.08"/>
          <polygon class="cls-92" points="227.27 191.08 179.02 190.99 166.21 372.06 214.46 372.14 227.27 191.08"/>
          <polygon class="cls-57" points="227.63 191.08 203.92 191.04 191.11 372.1 214.83 372.15 227.63 191.08"/>
          <g class="cls-102">
            <polygon class="cls-52" points="276.42 191.16 252.24 191.12 239.43 372.19 263.61 372.23 276.42 191.16"/>
          </g>
          <polygon class="cls-52" points="478.38 201.75 468.68 205.1 515.59 361.69 525.29 358.34 478.38 201.75"/>
          <polygon class="cls-54" points="130.5 205.56 118.74 371.98 166.98 372.06 178.75 205.64 130.5 205.56"/>
          <g class="cls-106">
            <polygon class="cls-83" points="130.5 205.56 118.74 371.98 143.95 372.02 155.72 205.6 130.5 205.56"/>
          </g>
        </g>
        <g class="cls-105">
          <polygon class="cls-87" points="129.62 218.1 129.15 224.67 176.63 224.76 177.1 218.18 129.62 218.1"/>
        </g>
        <g class="cls-105">
          <polygon class="cls-87" points="120.1 352.72 119.63 359.29 167.11 359.37 167.58 352.8 120.1 352.72"/>
        </g>
        <polygon class="cls-30" points="84.11 1180.44 230.12 1180.69 231.18 1165.69 85.17 1165.43 84.11 1180.44"/>
        <polygon class="cls-71" points="98.83 1114.8 80.81 1116.75 79.89 1129.65 96.17 1170.26 98.83 1114.8"/>
        <polyline class="cls-53" points="96.17 1170.26 239.15 1140.23 240.07 1127.22 213.31 1102.41 98.83 1114.8"/>
        <polygon class="cls-85" points="240.28 1127.32 97.08 1157.36 80.81 1116.75 198.94 1092.63 216.4 1092.66 240.28 1127.32"/>
        <polygon class="cls-96" points="232.89 1141.54 239.15 1140.23 240.06 1127.36 240.28 1127.32 216.4 1092.66 198.94 1092.63 80.81 1116.75 79.89 1129.65 85.84 1144.48 85.87 1144.44 87.03 1134.03 215.96 1134.26 215.19 1145.08 225.07 1143.85 224.65 1149.67 231.46 1149.68 232.37 1148.85 232.89 1141.54"/>
        <path class="cls-95" d="M501.38,1142.25l-173.34-.3c-8.42-.01-15.79,6.72-16.38,14.96l-1.32,18.65s0,.03,0,.04c.6-8.22,7.96-14.93,16.37-14.91l173.34,.3c8.41,.01,14.82,6.75,14.26,14.97,0-.01,0-.03,0-.04l1.32-18.65c.58-8.24-5.83-14.99-14.26-15.01Z"/>
        <path class="cls-32" d="M326.38,1192.7c-2.36,0-4.4,1.86-4.57,4.17-.16,2.31,1.62,4.18,3.98,4.19l186.69,.32,.8-11.25s-.47,2.89-3.64,2.89c-3.17,0-183.25-.32-183.25-.32Z"/>
        <g>
          <path class="cls-97" d="M180.99,1176.49c.27,0,.54-.02,.82-.05,1.89-.21,3.64-1.12,4.91-2.57,1.27-1.44,1.92-3.25,1.82-5.07-.19-3.74-3.47-6.5-7.41-6.05-3.9,.45-6.92,3.87-6.73,7.64,.18,3.47,3.01,6.09,6.59,6.1Z"/>
          <path class="cls-97" d="M179.77,1193.66c.27,0,.54-.02,.82-.05,1.89-.21,3.64-1.12,4.91-2.57,1.27-1.44,1.92-3.25,1.82-5.07-.19-3.74-3.47-6.5-7.41-6.05-3.9,.45-6.92,3.87-6.73,7.64,.18,3.47,3.01,6.09,6.59,6.1Z"/>
          <path class="cls-97" d="M178.38,1213.32c.27,0,.54-.02,.82-.05,1.89-.21,3.64-1.12,4.91-2.57,1.27-1.44,1.92-3.25,1.82-5.07-.19-3.74-3.47-6.5-7.41-6.05-3.9,.45-6.92,3.87-6.73,7.64,.18,3.47,3.01,6.09,6.59,6.1Z"/>
          <path class="cls-97" d="M183.91,1229.87c.27,0,.54,0,.82-.03,1.89-.14,3.61-.74,4.85-1.69,1.24-.95,1.84-2.14,1.7-3.34-.28-2.47-3.63-4.29-7.56-3.99-3.89,.29-6.83,2.55-6.55,5.03,.26,2.29,3.16,4.02,6.73,4.02Z"/>
          <path class="cls-35" d="M183.21,1172.12c.27,0,.54-.02,.82-.05,1.89-.21,3.64-1.12,4.91-2.57,1.27-1.44,1.92-3.25,1.82-5.07-.19-3.74-3.47-6.5-7.41-6.05-3.9,.45-6.92,3.87-6.73,7.64,.18,3.47,3.01,6.09,6.59,6.1Z"/>
          <path class="cls-35" d="M184.1,1191.17c.27,0,.54-.02,.82-.04,1.9-.21,3.64-1.12,4.91-2.57,1.27-1.44,1.92-3.24,1.82-5.07-.19-3.74-3.46-6.5-7.41-6.05-3.9,.45-6.92,3.87-6.73,7.64,.18,3.47,3.01,6.09,6.59,6.1Z"/>
          <path class="cls-35" d="M185.76,1210.79c1.9-.21,3.64-1.12,4.91-2.57,1.27-1.44,1.92-3.24,1.82-5.07-.19-3.74-3.47-6.5-7.41-6.05-3.9,.45-6.92,3.87-6.73,7.64,.18,3.47,3.01,6.09,6.59,6.1,.27,0,.54-.02,.82-.04Z"/>
          <path class="cls-35" d="M187.27,1215.83c-3.9,.45-6.92,3.87-6.73,7.64,.18,3.47,3.01,6.09,6.59,6.1,.27,0,.54-.02,.82-.04,1.9-.21,3.64-1.12,4.91-2.57,1.27-1.44,1.92-3.24,1.82-5.07-.19-3.74-3.46-6.5-7.41-6.05Z"/>
          <path class="cls-97" d="M204.57,1241.96c1.27-1.44,1.92-3.24,1.82-5.07-.19-3.74-3.47-6.5-7.41-6.05-3.9,.45-6.92,3.87-6.73,7.64,.18,3.47,3.01,6.09,6.59,6.1,.27,0,.54-.02,.82-.04,1.9-.21,3.64-1.12,4.91-2.57Z"/>
          <path class="cls-97" d="M299.22,1257.42c1.27-1.44,1.92-3.24,1.82-5.07-.19-3.74-3.47-6.5-7.41-6.05-3.9,.45-6.92,3.87-6.73,7.64,.18,3.47,3.01,6.09,6.59,6.1,.27,0,.54-.02,.82-.04,1.9-.21,3.64-1.12,4.91-2.57Z"/>
          <path class="cls-97" d="M297.63,1239.31c1.27-1.44,1.92-3.24,1.82-5.07-.19-3.74-3.47-6.5-7.41-6.05-3.9,.45-6.92,3.87-6.73,7.64,.18,3.47,3.01,6.09,6.59,6.1,.27,0,.54-.02,.82-.04,1.9-.21,3.64-1.12,4.91-2.57Z"/>
          <path class="cls-97" d="M286.01,1223.06c1.27-1.44,1.92-3.24,1.82-5.07-.19-3.74-3.47-6.5-7.41-6.05-3.9,.45-6.92,3.87-6.73,7.64,.18,3.47,3.01,6.09,6.59,6.1,.27,0,.54-.02,.82-.04,1.9-.21,3.64-1.12,4.91-2.57Z"/>
          <path class="cls-97" d="M270.84,1214.92c1.27-1.44,1.92-3.24,1.82-5.07-.19-3.74-3.47-6.5-7.41-6.05-3.9,.45-6.92,3.87-6.73,7.64,.18,3.47,3.01,6.09,6.59,6.1,.27,0,.54-.02,.82-.04,1.89-.21,3.64-1.12,4.91-2.57Z"/>
          <path class="cls-97" d="M251.5,1210.2c1.27-1.44,1.92-3.24,1.82-5.07-.19-3.74-3.47-6.5-7.41-6.05-3.9,.45-6.92,3.87-6.73,7.64,.18,3.47,3.01,6.09,6.59,6.1,.27,0,.54-.02,.82-.04,1.9-.21,3.64-1.12,4.91-2.57Z"/>
          <path class="cls-35" d="M207.77,1237.28c1.27-1.44,1.92-3.24,1.82-5.07-.19-3.74-3.47-6.5-7.41-6.05-3.9,.45-6.92,3.87-6.73,7.64,.18,3.47,3.01,6.09,6.59,6.1,.27,0,.54-.02,.82-.04,1.9-.21,3.64-1.12,4.91-2.57Z"/>
          <path class="cls-97" d="M216.25,1250.95c-.19-3.74-3.47-6.5-7.41-6.05-3.9,.45-6.92,3.87-6.73,7.64,.18,3.47,3.01,6.09,6.59,6.1,.27,0,.54-.02,.82-.04,1.9-.21,3.64-1.12,4.91-2.57,1.27-1.44,1.92-3.24,1.82-5.07Z"/>
          <path class="cls-35" d="M219.68,1247.52c-.19-3.74-3.47-6.5-7.41-6.05-3.9,.45-6.92,3.87-6.73,7.64,.18,3.47,3.01,6.09,6.59,6.1,.27,0,.54-.02,.82-.04,1.9-.21,3.64-1.12,4.91-2.57,1.27-1.44,1.92-3.24,1.82-5.07Z"/>
          <path class="cls-35" d="M224.34,1255.85c-3.9,.45-6.92,3.87-6.73,7.64,.18,3.47,3.01,6.09,6.59,6.1,.27,0,.54-.02,.82-.04,1.9-.21,3.64-1.12,4.91-2.57,1.27-1.44,1.92-3.24,1.82-5.07-.19-3.74-3.47-6.5-7.41-6.05Z"/>
          <path class="cls-35" d="M242.36,1262.75c-3.9,.45-6.92,3.87-6.73,7.64,.18,3.47,3.01,6.09,6.59,6.1,.27,0,.54-.02,.82-.04,1.9-.21,3.64-1.12,4.91-2.57,1.27-1.44,1.92-3.24,1.82-5.07-.19-3.74-3.47-6.5-7.41-6.05Z"/>
          <path class="cls-35" d="M262.08,1263.72c-3.9,.45-6.92,3.87-6.73,7.64,.18,3.47,3.01,6.09,6.59,6.1,.27,0,.54-.02,.82-.04,1.9-.21,3.64-1.12,4.91-2.57,1.27-1.44,1.92-3.24,1.82-5.07-.19-3.74-3.47-6.49-7.41-6.05Z"/>
          <path class="cls-35" d="M283.13,1259.39c-3.9,.45-6.92,3.87-6.73,7.64,.18,3.47,3.01,6.09,6.59,6.1,.27,0,.54-.02,.82-.04,1.9-.21,3.64-1.12,4.91-2.57,1.27-1.44,1.92-3.24,1.82-5.07-.19-3.74-3.47-6.5-7.41-6.05Z"/>
          <path class="cls-35" d="M303.12,1250.17c-.19-3.74-3.46-6.5-7.41-6.05-3.9,.45-6.92,3.87-6.73,7.64,.18,3.47,3.01,6.09,6.59,6.1,.27,0,.54-.02,.82-.04,1.9-.21,3.64-1.12,4.91-2.57,1.27-1.44,1.92-3.24,1.82-5.07Z"/>
          <path class="cls-35" d="M288.49,1231.46c.18,3.47,3.01,6.09,6.59,6.1,.27,0,.54-.02,.82-.04,1.9-.21,3.64-1.12,4.91-2.57,1.27-1.44,1.92-3.24,1.82-5.07-.19-3.74-3.46-6.5-7.41-6.05-3.9,.45-6.92,3.87-6.73,7.64Z"/>
          <path class="cls-35" d="M284.39,1221.62c.27,0,.54-.02,.82-.04,1.9-.21,3.64-1.12,4.91-2.57,1.27-1.44,1.92-3.24,1.82-5.07-.19-3.74-3.47-6.5-7.41-6.05-3.9,.45-6.92,3.87-6.73,7.64,.18,3.47,3.01,6.09,6.59,6.1Z"/>
          <path class="cls-35" d="M266.67,1198.8c-3.9,.45-6.92,3.87-6.73,7.64,.18,3.47,3.01,6.09,6.59,6.1,.27,0,.54-.02,.82-.04,1.9-.21,3.64-1.12,4.91-2.57,1.27-1.44,1.92-3.24,1.82-5.07-.19-3.74-3.47-6.5-7.41-6.05Z"/>
          <path class="cls-35" d="M248.11,1195.02c-3.9,.45-6.92,3.87-6.73,7.64,.18,3.47,3.01,6.09,6.59,6.1,.27,0,.54-.02,.82-.04,1.9-.21,3.64-1.12,4.91-2.57,1.27-1.44,1.92-3.24,1.82-5.07-.19-3.74-3.47-6.5-7.41-6.05Z"/>
          <path class="cls-35" d="M243.64,1188.57c-.19-3.74-3.46-6.5-7.41-6.05-3.9,.45-6.92,3.87-6.73,7.64,.18,3.47,3.01,6.09,6.59,6.1,.27,0,.54-.02,.82-.04,1.9-.21,3.64-1.12,4.91-2.57,1.27-1.44,1.92-3.24,1.82-5.07Z"/>
          <path class="cls-35" d="M232.12,1157.54c.27,0,.54-.02,.82-.05,1.89-.21,3.64-1.12,4.91-2.57,1.27-1.44,1.92-3.25,1.82-5.07-.19-3.74-3.47-6.5-7.41-6.05-3.9,.45-6.92,3.87-6.73,7.64,.18,3.47,3.01,6.09,6.59,6.1Z"/>
        </g>
        <path class="cls-35" d="M241.16,1169.52c-.19-3.74-3.46-6.5-7.41-6.05-.88,.1-1.7,.36-2.46,.73l-.11,1.49-.71,10.01-.05,.71c.94,.5,2.01,.8,3.17,.8,.27,0,.54-.02,.82-.04,1.9-.21,3.64-1.12,4.91-2.57,1.27-1.44,1.92-3.25,1.82-5.07Z"/>
        <g>
          <path class="cls-38" d="M286.45,1019.3c-3.19-19.38-128.4-1.68-128.4-1.68,2.21,4.79,7.3,16.09,31.44,24.72,12.09,4.32,23.79,5.87,32.89,6.3,1.25,3.26,7.12,23.74,7.12,23.74l22.02,.04-10.86-24.35c6.07-.75,49.39-6.88,45.79-28.76Z"/>
          <path class="cls-94" d="M229.5,1072.37s-4.26,9.05-5.71,11.54c-1.45,2.49,2.21,4.79,10.95,4.6,8.74-.19,9.79-3.1,12.76-8.93,2.97-5.82-6.43-7.19-6.43-7.19l-11.57-.02Z"/>
          <g class="cls-108">
            <g>
              <path class="cls-74" d="M235.46,1035.04c-27.09,1.96-53.28-8.31-58.39-22.91-5.1-14.58,12.77-28.06,39.87-30.02,27.09-1.96,53.29,8.33,58.39,22.91,5.11,14.6-12.77,28.06-39.87,30.03m-20.98-59.95c-34.27,2.48-56.89,19.52-50.43,37.98,5.72,16.35,32.38,28.42,62.21,29.24,0,0,6.55-.11,10.77-.31,4.22-.2,10.95-1.14,10.95-1.14,28.5-4.76,46.18-20.2,40.37-36.79-6.46-18.46-39.6-31.46-73.87-28.98"/>
              <path class="cls-15" d="M217.41,975.23c-27.09,1.96-44.97,15.44-39.87,30.02,5.11,14.6,31.3,24.87,58.39,22.91,27.09-1.96,44.97-15.43,39.87-30.03-5.1-14.58-31.3-24.87-58.39-22.91"/>
              <path class="cls-24" d="M235.94,1028.17c-27.09,1.96-53.28-8.31-58.39-22.91-5.1-14.58,12.77-28.06,39.87-30.02,27.09-1.96,53.29,8.33,58.39,22.91,5.11,14.6-12.77,28.06-39.87,30.03m-20.98-59.95c-34.27,2.48-56.89,19.52-50.43,37.98,5.72,16.35,32.38,28.42,62.21,29.24,0,0,7.33,.1,11.07-.1,3.74-.2,10.64-1.35,10.64-1.35,28.5-4.76,46.18-20.2,40.37-36.79-6.46-18.46-39.6-31.46-73.87-28.98"/>
            </g>
          </g>
          <path class="cls-59" d="M187.17,1016.89c8.91,6.37,22.56,10.63,37.43,11.37l45.02-38.95c-6.99-6.46-18.53-11.27-31.78-13.28l-50.66,40.86Z"/>
          <path class="cls-74" d="M217.06,980.23c27.09-1.96,53.29,8.33,58.39,22.91,.41,1.18,.62,2.35,.74,3.51,.7-2.74,.63-5.59-.39-8.5-5.1-14.58-31.3-24.87-58.39-22.91-24.91,1.8-41.97,13.35-40.61,26.53,2.81-11,18.56-19.96,40.25-21.53Z"/>
          <line class="cls-2" x1="241.47" y1="1047.57" x2="238.63" y2="1040.23"/>
          <line class="cls-11" x1="241.28" y1="1047.88" x2="252.29" y2="1079.59"/>
          <line class="cls-2" x1="254.33" y1="1083.75" x2="254.06" y2="1083.13"/>
          <path class="cls-94" d="M288.83,997.2c-6.46-18.46-39.6-31.46-73.87-28.98-29.78,2.16-50.75,15.31-51.5,30.83l13.46,.02-.11,2.68,98.05,.17,1.72-1.57,13.07,.02c-.18-1.05-.45-2.11-.82-3.18Z"/>
        </g>
        <g class="cls-108">
          <path class="cls-38" d="M418.28,1019.93c-17.92,1.31-35.83,2.61-53.75,3.92-17.91,1.28-35.84,2.58-53.75,3.87-.68,.05-1.33,.11-1.97,.19-5.39,.42-9.36,2.21-11.67,4.46-1.07,.92-1.83,1.95-2.28,3.06-.49,1.27-.21,2.55,.27,3.84,1.21,3.11,2.23,6.24,3.3,9.37,1.04,2.96,2.07,5.91,3.1,8.87v.04s.01,0,.01,0c.09,.33,.21,.66,.32,.98,.43,1.22,.74,2.46,2.42,3.48l.22,.09c.87,.17,1.7,.39,2.59,.48,.59,.07,1.16,.07,1.71,.03,1.28-.09,2.41-.45,3.19-.97l.19,.08c1.12-.83,1.18-1.78,.82-2.78-1.93-5.45-3.84-10.89-5.77-16.34-.1-.28-.15-.57-.19-.68,1.53-.15,2.92-.29,4.54-.46v.09c0,.21-.05,.46,.03,.7,1.89,5.48,3.81,10.96,5.7,16.42,.48,1.38,1.68,2.27,3.57,2.67,.94,.23,1.98,.33,3,.25,.51-.04,1.02-.12,1.51-.24,2.33-.61,3.22-1.76,2.63-3.43-1.92-5.48-3.85-10.94-5.77-16.42-.1-.28-.17-.56-.19-.67,1.46-.13,2.79-.24,4.28-.36,.07,.19,.17,.43,.26,.67,1.92,5.49,3.82,10.99,5.75,16.49,.51,1.46,1.83,2.36,3.97,2.71,.83,.17,1.74,.23,2.63,.17,.52-.04,1.03-.12,1.51-.25,2.3-.62,3.16-1.71,2.58-3.38-1.93-5.5-3.87-10.99-5.79-16.48-.09-.26-.16-.53-.24-.81,1.54-.06,2.86-.12,4.35-.19,.04,.11,.18,.39,.28,.66,1.93,5.5,3.82,10.99,5.75,16.5,.56,1.61,2.22,2.56,4.82,2.81h.17c.5,.06,1.02,.06,1.53,.03,.55-.04,1.09-.13,1.6-.26,2.23-.6,3.14-1.73,2.58-3.31-1.93-5.52-3.89-11.04-5.82-16.56-.09-.26-.16-.52-.23-.73,.53-.05,1.07-.09,1.63-.14,.92-.03,1.8-.07,2.72-.09,.04,.13,.16,.4,.27,.69,1.91,5.47,3.81,10.94,5.72,16.41,.6,1.71,2.17,2.64,4.85,2.9,.4,.04,.81,.04,1.21,.03,.19,0,.38-.01,.57-.02,.48-.03,.95-.11,1.41-.22,2.38-.61,3.27-1.75,2.69-3.41-1.93-5.5-3.87-10.99-5.8-16.49-.09-.25-.16-.52-.21-.73,.72-.05,1.4-.1,2.13-.15,.72-.05,1.43-.1,2.15-.16,.1,.21,.21,.47,.3,.73,1.9,5.5,3.82,10.99,5.75,16.5,.58,1.66,2.21,2.62,4.88,2.86,.51,.05,1.01,.05,1.49,.01,.19-.01,.37-.03,.56-.06,.37-.04,.75-.11,1.13-.2,2.35-.62,3.21-1.73,2.61-3.44-1.91-5.46-3.83-10.94-5.77-16.41-.1-.29-.18-.57-.2-.7,.9-.1,1.75-.19,2.65-.3,.54-.03,1.08-.07,1.62-.09,.1,.21,.21,.46,.3,.73,1.91,5.52,3.84,11.05,5.77,16.56,.56,1.59,2.18,2.53,4.71,2.78,.58,.06,1.15,.07,1.69,.03,.5-.04,.98-.11,1.43-.23l.18-.04c2.28-.6,3.22-1.74,2.66-3.36-1.93-5.5-3.87-10.99-5.8-16.49-.1-.28-.17-.56-.21-.67,1.46-.14,2.78-.28,4.28-.44,.1,.28,.21,.54,.31,.8,1.92,5.49,3.84,10.98,5.75,16.49,.58,1.66,2.15,2.58,4.78,2.84,.55,.06,1.09,.06,1.6,.02,.88-.06,1.7-.25,2.39-.53,1.79-.63,2.41-1.67,1.9-3.13-1.92-5.49-3.85-10.99-5.79-16.48-.08-.24-.14-.48-.19-.67,1.48-.09,2.84-.18,4.32-.26,.04,.11,.18,.39,.28,.66,1.89,5.48,3.81,10.94,5.72,16.42,.59,1.68,2.22,2.64,4.85,2.89,.54,.05,1.07,.06,1.59,.02,1.02-.07,1.95-.31,2.67-.66,1.52-.65,2.06-1.66,1.57-3.04-1.91-5.47-3.83-10.94-5.79-16.42-.08-.24-.28-.47-.45-.66l-.05-.09c1.65-.07,3.09-.13,4.65-.21,.04,.11,.16,.4,.26,.68,1.91,5.45,3.81,10.89,5.7,16.35,.35,1.01,1.05,1.9,2.68,2.53l.13-.1c1.08,.38,2.4,.57,3.69,.47,.55-.04,1.09-.13,1.61-.27,.77-.21,1.42-.54,2.11-.82l.15-.11c.92-1.2,.37-2.43-.08-3.65-.11-.33-.23-.66-.34-.98v-.04c-1.07-2.96-2.1-5.9-3.14-8.86-1.09-3.12-2.26-6.24-3.26-9.37-.41-1.3-1.01-2.55-2.37-3.69-1.16-.99-2.62-1.86-4.24-2.59-3.72-1.81-8.73-2.96-14.16-2.59-.64,0-1.33,.04-1.98,.09"/>
        </g>
        <g class="cls-108">
          <path class="cls-14" d="M421.2,1018.03c-17.24,1.26-34.47,2.51-51.71,3.77-17.23,1.24-34.47,2.48-51.7,3.72-.65,.05-1.28,.11-1.89,.19-5.19,.4-9.01,2.13-11.22,4.29-1.03,.88-1.76,1.88-2.2,2.94-.47,1.23-.2,2.45,.26,3.69,1.16,3,2.15,6,3.18,9.01,1,2.85,1.99,5.68,2.98,8.53v.04s.01,0,.01,0c.09,.32,.2,.63,.31,.95,.41,1.17,.71,2.37,2.32,3.35l.21,.08c.84,.16,1.63,.38,2.49,.47,.57,.06,1.12,.07,1.65,.03,1.23-.09,2.32-.43,3.07-.93l.19,.07c1.08-.8,1.13-1.71,.79-2.68-1.86-5.24-3.69-10.48-5.55-15.72-.09-.27-.15-.55-.18-.66,1.47-.14,2.81-.28,4.36-.44v.09c0,.2-.05,.44,.03,.67,1.82,5.27,3.67,10.54,5.48,15.8,.47,1.33,1.62,2.18,3.44,2.57,.91,.22,1.91,.31,2.89,.24,.49-.04,.98-.11,1.45-.23,2.24-.58,3.1-1.69,2.53-3.3-1.84-5.27-3.71-10.52-5.55-15.79-.09-.27-.16-.53-.18-.65,1.41-.13,2.69-.23,4.12-.35,.06,.18,.17,.41,.25,.64,1.85,5.28,3.68,10.58,5.53,15.86,.49,1.41,1.76,2.27,3.82,2.6,.8,.16,1.67,.22,2.53,.16,.5-.04,.99-.11,1.45-.24,2.21-.59,3.04-1.65,2.48-3.25-1.85-5.29-3.72-10.57-5.57-15.85-.09-.25-.16-.51-.23-.78,1.48-.06,2.75-.11,4.18-.18,.04,.11,.18,.37,.27,.64,1.85,5.29,3.68,10.58,5.53,15.87,.54,1.55,2.13,2.47,4.64,2.71h.17c.48,.06,.98,.06,1.47,.02,.53-.04,1.05-.12,1.54-.25,2.15-.58,3.02-1.66,2.48-3.19-1.86-5.31-3.74-10.62-5.6-15.93-.09-.25-.15-.5-.22-.7,.51-.05,1.03-.09,1.57-.14,.89-.03,1.73-.06,2.62-.09,.04,.12,.16,.39,.26,.66,1.84,5.26,3.66,10.53,5.5,15.79,.58,1.65,2.09,2.54,4.67,2.79,.38,.03,.78,.04,1.16,.03,.18,0,.36-.01,.55-.02,.46-.03,.91-.1,1.35-.21,2.28-.59,3.15-1.68,2.59-3.28-1.85-5.29-3.72-10.57-5.58-15.87-.08-.24-.15-.5-.2-.71,.7-.05,1.35-.1,2.05-.15s1.37-.1,2.07-.15c.09,.2,.21,.46,.29,.7,1.83,5.3,3.68,10.58,5.53,15.87,.56,1.6,2.13,2.52,4.7,2.75,.49,.04,.97,.05,1.43,.01,.18-.01,.36-.03,.54-.05,.36-.04,.72-.1,1.09-.19,2.26-.6,3.08-1.66,2.51-3.31-1.84-5.26-3.68-10.53-5.55-15.78-.1-.28-.17-.55-.19-.67,.86-.1,1.69-.18,2.55-.28,.52-.03,1.04-.06,1.56-.09,.09,.2,.2,.44,.29,.7,1.83,5.31,3.7,10.62,5.55,15.93,.53,1.53,2.1,2.43,4.53,2.68,.56,.06,1.1,.06,1.62,.03,.48-.04,.95-.11,1.38-.22l.17-.04c2.19-.58,3.1-1.68,2.56-3.23-1.85-5.29-3.72-10.57-5.58-15.87-.09-.27-.16-.53-.2-.64,1.4-.14,2.67-.27,4.12-.42,.09,.27,.2,.52,.29,.77,1.85,5.28,3.7,10.56,5.53,15.86,.56,1.6,2.07,2.48,4.6,2.73,.53,.05,1.05,.06,1.54,.02,.85-.06,1.64-.24,2.3-.51,1.72-.61,2.32-1.61,1.83-3.01-1.85-5.28-3.7-10.57-5.57-15.85-.08-.23-.14-.46-.18-.65,1.42-.09,2.73-.17,4.15-.25,.04,.11,.18,.37,.27,.64,1.82,5.27,3.66,10.53,5.51,15.8,.56,1.61,2.13,2.54,4.66,2.78,.52,.05,1.03,.05,1.53,.02,.98-.07,1.87-.3,2.57-.64,1.46-.63,1.98-1.6,1.51-2.93-1.84-5.26-3.68-10.53-5.57-15.79-.08-.23-.27-.45-.43-.64l-.05-.08c1.59-.07,2.98-.13,4.47-.2,.04,.11,.16,.39,.25,.65,1.84,5.25,3.67,10.48,5.48,15.72,.34,.97,1.01,1.83,2.58,2.43l.13-.1c1.03,.37,2.31,.54,3.55,.45,.53-.04,1.05-.12,1.55-.26,.74-.2,1.36-.52,2.03-.79l.15-.11c.89-1.16,.36-2.34-.08-3.51-.11-.32-.22-.63-.33-.95v-.04c-1.03-2.85-2.02-5.68-3.02-8.53-1.05-3-2.17-6-3.13-9.01-.39-1.25-.97-2.45-2.28-3.55-1.12-.95-2.52-1.79-4.08-2.49-3.58-1.74-8.4-2.84-13.62-2.49-.62,0-1.28,.04-1.91,.09"/>
        </g>
        <g class="cls-13">
          <g class="cls-107">
            <path class="cls-60" d="M179.3,563.14c-2.39,9.43-.22,21.56,.15,46.76,.37,25.2-2.9,19.98,28.08,21.56,30.98,1.57,33.83-2.98,33.46-4.19-.37-1.21-5.61-48.43-7.13-53.74-1.52-5.31-54.56-10.39-54.56-10.39Z"/>
            <g>
              <polyline class="cls-9" points="230.52 631.59 243.47 648.14 258.12 663.1"/>
              <g>
                <g>
                  <path class="cls-42" d="M221.46,750.95c-2.77,.14-5.22-2.15-5.64-4.87l-4.7-30c-.36-2.35-1.29-6.27-2.02-8.54l-10.54-32.69c-.9-2.78,.7-5.74,3.56-6.6,2.87-.86,5.91,.69,6.81,3.48l11.29,33.19c.9,2.79,1.82,7.73,2.27,10.62l3.83,29.33c.44,2.88-1.39,5.61-4.36,6.03-.17,.02-.34,.04-.5,.05Z"/>
                  <path class="cls-55" d="M205.59,693.91s12.19,3.12,12.37,4.34h0c.18,1.22,4.88,4.29,4.88,4.29l-2.1,4.04s-9.28,.81-10.75,4.27c-.21-.77-.69-2.71-.89-3.31l-4.37-13.54,.86-.09Z"/>
                </g>
                <path class="cls-23" d="M215.9,756.34c.38,.1,18.63,1.11,21.85,.01,.83-.28,.64-.99,.71-1.93,.1-1.39-.6-3.09-4.41-4.21-5.65-1.66-7.34-1.81-7.34-1.81,0,0-10.33-1.23-10.69,1.44-.39,2.9-.12,6.5-.12,6.5Z"/>
                <path class="cls-50" d="M215.8,754.63c.38,.1,19.02,.99,22.26-.05,.7-.23,1.71-3.98-3.82-5.33-5.72-1.4-7.42-2.52-7.42-2.52,0,0-10.33-1.23-10.69,1.44-.39,2.9-.33,6.47-.33,6.47Z"/>
                <path class="cls-34" d="M216.24,748.82s1.24,1.63,3.77,1.44c2.53-.19,3.33-1.84,4.25-2.53,1.42-1.07,2.55-1.01,2.55-1.01l-1.01-6.47s-1.08,1.55-5.19,2.22c-4.11,.67-5.54-.33-5.54-.33l1.17,6.68Z"/>
                <g>
                  <path class="cls-42" d="M250.73,749.76c-2.77,.14-5.94-5.45-6.46-8.16l-5.18-26.64c-.45-2.35-1.52-6.25-2.34-8.52l-11.76-32.63c-1-2.78,.49-5.73,3.33-6.59,2.84-.86,5.95,.69,6.95,3.47l12.53,33.13c1,2.79,2.11,7.72,2.66,10.6l4.22,24.37c.55,2.88-.5,10.51-3.46,10.93-.17,.02-.34,.04-.5,.05Z"/>
                  <path class="cls-55" d="M232.71,692.5s12.33,3.11,12.55,4.33h0c.22,1.22,1.2,3.17,1.2,3.17h0s-3.88,4.67-9.05,8.18c-.23-.77-.47-1.48-.68-2.08l-4.87-13.52,.85-.09Z"/>
                </g>
                <g>
                  <path class="cls-41" d="M227.11,615.93c3.97,2.63,9.29,11.2,13.65,16.76,0,0-5.37,8.74-9.01,7.82,0,0-4.1-.52-11.03-6.08-5.35-4.3-2.25-10.24-2.25-10.24l8.63-8.26Z"/>
                  <g>
                    <path class="cls-86" d="M232.78,624.02c-.07-.48-.15-.89-.23-1.18,0,0,.07,.47,.23,1.18Z"/>
                    <path class="cls-36" d="M230.82,640.54c2.19,1.05,5.56-1.72,7.15-3.98-.85-.61-4.52-3.7-4.92-7.93-.56-5.91-6.18-1.59-5.15-3.67-1.34,2.22-4.39,6.19-7.18,9.48,0,0,0,0,0,0,6.93,5.56,10.1,6.1,10.1,6.1Z"/>
                  </g>
                  <path class="cls-60" d="M223.94,545.8c7.28-.38,20.22,10.59,13.25,37.7l-3.44-.82-14.5-17.1,4.69-19.77Z"/>
                  <g>
                    <path class="cls-60" d="M235.81,584.92c-.13-1.35,.65-13.53,.65-13.53l-.16-1.71c-.82-8.66-.8-28.14-26.21-27.99-26.86,.16-34.02,19.65-30.95,33.87,5.15,23.81,20.59,24.98,34.29,24.48,16.98-.61,23.81-.05,22.38-15.12Z"/>
                    <path class="cls-41" d="M233.16,663.51s.12-22.98,.2-33.51c.08-10.66-.87-7.2-.87-7.2,0,0-4.81-7.63-13.95-9.12-7.48-1.22-8.27-1.53-17-1.79,0,0-3.83,3.64-3.92,15.05l-.27,34.99"/>
                    <path class="cls-78" d="M225.37,632.63h0c.52-5.98,1.24-13.9-1.47-16.95-.96-1.08-2.67-1.65-4.59-1.78l.32-.36c3.03,.21,6.63,1.18,8.34,3.1,3.54,3.96,2.32,8.94,2.47,16.1l-1-.28-4.08,.17Z"/>
                    <path class="cls-43" d="M210.69,613.64c3.71,2.21,4.31,4.14,8.36,4.3,1.6,.06,2.54-2.65,2.55-4.91l.04-11.21c.02-4.95-2.97-9.12-6.63-9.27l-1.26-.05c-3.67-.15-6.68,3.78-6.7,8.73l-.04,10.89c1.03,.18,2.08,.58,3.68,1.53Z"/>
                    <path class="cls-42" d="M240.57,581.05c.29,3.07-2.04,5.69-5.21,5.85-3.17,.16-2.64-2.36-2.93-5.43-.29-3.07-1.29-5.52,1.88-5.68,3.17-.16,5.97,2.19,6.26,5.26Z"/>
                    <path class="cls-42" d="M238.97,583.35c1.18,12.42-6.02,23.59-18.4,24.23-13.76,.71-29.37-9.27-30.55-21.69l-1.55-13.17c-1.18-12.42,8.71-19.26,21.52-19.92l2.65-.14c12.82-.67,23.9,5.09,25.08,17.5l1.25,13.18Z"/>
                    <path class="cls-43" d="M226.46,585.03c-.05-.47-.45-.52-1.58-.04-.52,.22-1.44,.49-2.54,.55-1.09,.05-2.06-.12-2.62-.28-1.21-.35-1.59-.26-1.55,.2,.06,.64,2.26,2.43,4.37,2.34h0s0,0,.01,0c0,0,0,0,.01,0h0c2.11-.12,3.95-2.13,3.88-2.76Z"/>
                    <path class="cls-7" d="M227.77,570.34c2.41-.63,4.25-.34,6.03,1.22"/>
                    <path class="cls-7" d="M210.96,571.21c-2.51-.37-4.27,.11-5.74,1.84"/>
                    <path class="cls-60" d="M220.57,548.36c-3.62,.52-10.97,1.57-17.81,2.55-2.84,.41-5.32,.81-6.49,2.64-3.8,5.89,.21,15.87,.21,15.87,0,0,3.81-2.46,15.57-4.15,12.3-1.76,20.14-4.42,19.53-13.39-.21-3.11-11.01-3.52-11.01-3.52Z"/>
                    <path class="cls-78" d="M230.12,670.44c0,.81-.68,1.46-1.49,1.43l-19.2-.67c-.81-.03-1.47-.72-1.47-1.53l.33-41.84c0-.81,.68-1.45,1.49-1.42l19.24,.85c.81,.04,1.47,.73,1.47,1.55l-.36,41.63Z"/>
                    <path class="cls-78" d="M246.95,698.79c1.5,15.41,44.32,19.67-25.74,16.77-8.5-.35-14.47-.18-19.68-1.6-3.67-1-12.05,2.79-14.79,1.54-8.9-4.05-16.86-7.89-15.55-10.33,.73-1.36,14.35-22.91,17.67-28.83,4.5-8.01,8-17.45,8.32-18.56l.15,.04,.12-8.71s4.07,.22,7.81,.32c1.98,.06,3.86,.08,5,.02,3.28-.17,2.99-2.87,2.79-4.91l-.87-9.18,4.59,18.21,13.54-2.84,2.91,.25-.04,6.86s13.49,40.38,13.76,40.93Z"/>
                  </g>
                  <path class="cls-34" d="M213.39,592.59s2.52,6.18,8.36,5.86c6.01-.33,5.8-6.52,5.8-6.52l-14.16,.66"/>
                  <path class="cls-60" d="M204.5,560.66c.16,1.68,3.28,5.38-1.88,6.3-11.49,2.05-8.97,15.95-9.2,14.59-.48-2.82-5.41-2.07-7.01-1.98s-1.7-12.32-.96-13.4c.74-1.08,4.18-5.89,5.3-6.68,1.12-.79,9.73-4.1,9.73-4.1,0,0,2.91-1.08,4.11,.33,1.2,1.41-.1,4.94-.1,4.94Z"/>
                  <g>
                    <path class="cls-42" d="M183.38,670.42c-.37,.02-.76,0-1.14-.07-2.72-.46-4.62-2.96-4.24-5.57l2.1-14.57c.39-2.73,1.23-6.29,2.49-10.28l4-11.33c1.02-2.43,4.96-3.08,7.51-2.01,2.55,1.08,2.74,3.48,1.72,5.9l-3.9,12.23c-.77,1.84-1.69,5.18-1.98,7.16l-2.1,14.57c-.32,2.24-2.22,3.84-4.46,3.96Z"/>
                    <polygon class="cls-43" points="183.73 636.76 194.07 637.88 195.26 634.26 186.03 630.17 183.73 636.76"/>
                  </g>
                  <path class="cls-41" d="M205.99,613.2c5.2,1.27,5.99,4.31,5.99,4.31-.19-1.75-7.26-4.47-8.03-4.77-.94-.36-.18-.76-.63-.8-9.18-.76-14.37,6.17-19.18,20.65l14.67,6.03,3.8-9.32"/>
                  <path class="cls-42" d="M185.89,583.79c-.29-3.07,2.04-5.69,5.21-5.85,3.17-.16,2.64,2.36,2.93,5.43,.29,3.07,1.29,5.52-1.88,5.68-3.17,.16-5.97-2.19-6.26-5.26Z"/>
                  <g>
                    <g>
                      <path class="cls-21" d="M230.42,580.08c-.87,0-1.61-.66-1.69-1.5-.04-.43,.09-.84,.38-1.17,.29-.32,.69-.51,1.13-.53h0c.96,0,1.7,.66,1.78,1.5,.04,.43-.09,.84-.38,1.17-.29,.32-.69,.51-1.13,.53h-.09Z"/>
                      <path class="cls-21" d="M230.32,577.03c.79,0,1.48,.6,1.55,1.38,.08,.8-.53,1.49-1.36,1.53-.03,0-.06,0-.08,0-.79,0-1.48-.6-1.55-1.38-.08-.8,.53-1.49,1.36-1.53,.03,0,.06,0,.08,0m.02-.29h-.1c-.48,.03-.92,.24-1.24,.59-.32,.35-.47,.81-.42,1.28,.09,.91,.89,1.62,1.83,1.62h.1c.48-.03,.92-.24,1.24-.59,.32-.35,.47-.81,.42-1.28-.09-.91-.89-1.62-1.83-1.62h0Z"/>
                    </g>
                    <g>
                      <path class="cls-21" d="M210.23,581.13c-.87,0-1.61-.66-1.69-1.5-.04-.43,.1-.85,.38-1.17,.29-.32,.69-.51,1.13-.53h0c.96,0,1.7,.66,1.78,1.5,.04,.43-.1,.84-.38,1.17-.29,.32-.69,.51-1.13,.53h-.09Z"/>
                      <path class="cls-21" d="M210.13,578.08c.79,0,1.48,.6,1.55,1.38,.08,.8-.53,1.49-1.36,1.53-.03,0-.06,0-.08,0-.79,0-1.48-.6-1.55-1.38-.08-.8,.53-1.49,1.36-1.53,.03,0,.06,0,.08,0m.02-.29h-.1c-.48,.03-.92,.24-1.24,.59-.32,.35-.47,.81-.42,1.28,.09,.91,.89,1.62,1.83,1.62h.1c.48-.03,.92-.24,1.24-.59,.32-.35,.47-.81,.42-1.28-.09-.91-.89-1.62-1.83-1.62h0Z"/>
                    </g>
                  </g>
                </g>
                <path class="cls-78" d="M208.27,630.58h0c-.16-7.05-2.16-14.85-5.71-17.42-1.26-.91-2.77-.93-4.78-.63l-.05-.35c3.74-.95,6.54-.57,8.77,1.04,5.04,3.65,5.11,8.33,6.17,15.53l-.25,.71-4.16,1.12Z"/>
                <path class="cls-23" d="M245.33,754.81c.38,.1,18.71,1.11,21.89,.01,.82-.28,.61-.99,.64-1.92,.05-1.39-.71-3.08-4.57-4.2-5.72-1.65-7.42-1.81-7.42-1.81,0,0-10.4-1.23-10.66,1.43-.28,2.89,.12,6.48,.12,6.48Z"/>
                <path class="cls-50" d="M245.17,753.1c.38,.1,19.1,.98,22.3-.06,.7-.23,1.57-3.97-4.02-5.32-5.79-1.4-7.53-2.51-7.53-2.51,0,0-10.4-1.23-10.66,1.43-.28,2.89-.09,6.46-.09,6.46Z"/>
                <path class="cls-34" d="M245.4,747.31s1.3,1.63,3.83,1.44c2.53-.19,3.27-1.83,4.17-2.52,1.39-1.07,2.52-1.01,2.52-1.01l-1.25-6.46s-1.03,1.55-5.12,2.22c-4.09,.67-5.57-.33-5.57-.33l1.42,6.67Z"/>
              </g>
              <path class="cls-78" d="M226.63,647.83c1.88-1.71,3.05-4.83,2.87-13.57-.18-8.74-1.65-17.33-3.78-18.74-2.13-1.41-2.44-1.57-.26-.78,2.18,.78,11.31,7.04,11.5,8.92s-1.41,19.98-4.04,23.25c-2.63,3.27-6.29,.93-6.29,.93Z"/>
            </g>
            <g>
              <g>
                <path class="cls-91" d="M248.87,761.69c6.71-.68,9.8,8.82,3.43,9.38-4.26,.37-2.34,.2-4.45,.39-6.09,.53-9.93-2.73-10.65-8.16-.41-3.09-.81-6.14-1.41-10.66-1.18-8.89,10.5-6.21,17.27-4.76l-2.16,8.21-2.04,5.6Z"/>
                <path class="cls-80" d="M249,761.68c6.71-.68,9.64,7.6,3.27,8.16-4.26,.37-1.09,.09-3.19,.28-6.09,.53-9.93-2.73-10.65-8.16-.41-3.09-.65-4.92-1.25-9.44-1.18-8.89,10.5-6.21,17.27-4.76l-2.16,8.21-3.3,5.71Z"/>
                <path class="cls-82" d="M250.41,763.36c-1.98-.22-3.39,.33-4.4-1.17-1.01-1.5-5.21-12.99,1.1-15.46,6.32-2.47,5.46,11.94,5.46,11.94l-2.17,4.69Z"/>
                <path class="cls-69" d="M243.07,761.83c1.66-.35,4.32-.6,6.26-.7l-.32,.56c2.88-.29,5.05,1.07,6.11,2.75-1.11-.88-3.05-.54-7.42-.25-4.37,.29-7.09-1.84-4.62-2.36Z"/>
                <path class="cls-19" d="M307.72,766.25c2.4-.21,4.58-1.19,6.33-2.76,6.07-5.41,3.35-14.82-3.95-20.62l-20.85-19.99-3-3.24c-3.69-2.87-15.37-4.12-18.2-.66-2.83,3.46-6.02,10.31-2.33,13.18l19.05,14.43-18.64,3.35c-4.62-.73-8.65,2.71-8.61,7.2,.04,4.98,1.66,1.75,6.28,2.47l41.02,6.52c.99,.16,1.96,.19,2.91,.11Z"/>
                <g>
                  <path class="cls-64" d="M296.07,765.38c2.43-2.18,4.26-5.38,2.77-10.94-.98-3.65-3.7-6.8-8.51-10.74l-29.07-24.6c-3.64-2.93-10.05-2.23-12.94,1.18-2.9,3.41-8.41,12,2.87,18.35l16.09,10.13-16.95-2.57c-4.62-.69-6.31,2.81-5.93,7.3,.43,5.04,1.78,9.25,6.4,9.95l31.04,4.19c6.51,.77,11.53,.18,14.23-2.24Z"/>
                  <path class="cls-19" d="M251.09,720.71l4.15,1.63,4.01,2.25c-5.59,1.43-9.41,12.89-3.65,16.51-15.46-7.15-11.69-14.16-9.13-18.31,.14-.1,.22-.16,.22-.16l4.41-1.92Z"/>
                </g>
              </g>
              <g>
                <path class="cls-66" d="M281.16,595.44c7.26,.27,19.06,12.22,9.57,38.31l-3.34-1.12-12.76-18.13,6.53-19.06Z"/>
                <g>
                  <path class="cls-66" d="M272.17,664.64c11.45,1.59,15.2-17.79,14.81-32.92-.03-1.35,1.58-13.58,1.58-13.58l-.04-1.72c-.22-8.69,1.15-28.24-24.18-28.09-26.77,.16-33.55,19.36-33.18,33.98l.04,1.72s.26,9.22,.3,10.57c.25,9.83-1.58,19.36-9.87,23.98l7.98,3.63s6.22-2.95,7.32-4.93c1.1-1.98-3.87,6.37-3.87,6.37,0,0,13.06,4.75,24.99,4.47,16.96-.39,14.12-3.49,14.12-3.49Z"/>
                  <g>
                    <path class="cls-42" d="M291.92,708.53c-.47,.02-.96-.02-1.43-.13-1.72-.4-3.13-1.63-3.71-3.25l-10.77-30.05c-.91-2.53,.45-5.22,3.04-6.01,2.59-.78,5.43,.64,6.34,3.17l8,22.31,13.86-14.33c1.84-1.9,4.98-1.94,7.02-.09,2.04,1.85,2.2,4.89,.36,6.79l-19.47,20.13c-.85,.88-2.01,1.38-3.24,1.45Z"/>
                    <path class="cls-43" d="M294.03,693.92l-.64,.66c.26-.22,.46-.44,.64-.66Z"/>
                    <path class="cls-43" d="M292.78,704.28c-3.51,.3-8.91-8.72-4.1-22.76l-1.82-5.11-.27,.04-6.08,1.79-.45,8.2,3.36,9.38h0l3.35,9.34c.06,.17,.14,.33,.22,.5h0c.67,1.37,1.96,2.4,3.5,2.76,.48,.11,.96,.15,1.43,.13,1.23-.06,2.39-.57,3.24-1.45l11.03-11.4,.08-.23s-7.56,8.31-13.48,8.82Z"/>
                  </g>
                  <path class="cls-66" d="M262.25,655.12c11.36,2.59,26.48-6.54,26.48-21.52,0-1.34,1.92-13.27,1.92-13.27v-1.7c0-8.61,1.88-27.79-23.35-29.89-26.66-2.22-33.91,16.14-33.92,30.62v1.7s.22,10.22,17.68,13.68c9.94,1.97,15.96-1.45,10.18,5.15,0,0-13.12-3.45,3.79-2.82,16.91,.63-2.79,18.05-2.79,18.05Z"/>
                  <path class="cls-28" d="M267.78,662.21c-6.96-.42-15.22-.58-15.22-.58,0,0-4.02,2.06-4.03,13.4l-3.71,36.4,.14,18.72s3.6-3.37,18.81-6.77c3.99-.89,5.1,2.28,9.2,1.97,3.43-.26,5.58-1.51,9.15-2.11,3.78-.63,7.22-.25,7.22-.25,0,0-4.12-34.54-4.11-45,0-10.59-4.32-12.71-4.32-12.71,0,0-3.98-2.51-13.12-3.07Z"/>
                  <path class="cls-42" d="M261.97,663.05c3.62,2.18,4.48,4.53,8.56,4.6,2.58,.04,2.66-2.85,2.66-5.1v-11.13c0-4.91-2.97-9.05-6.61-9.18l-1.25-.05c-3.64-.14-6.62,3.77-6.62,8.69v10.93c1.02,.18,1.68,.3,3.26,1.25Z"/>
                  <path class="cls-26" d="M294.87,744.66s0-.02-.01-.02c0,.02,.01,.03,.01,.02Z"/>
                  <path class="cls-42" d="M294.31,631.65c0,3.05-2.56,5.42-5.72,5.31-3.16-.12-2.4-2.56-2.39-5.61,0-3.05-.76-5.55,2.4-5.43,3.16,.12,5.72,2.69,5.71,5.73Z"/>
                  <path class="cls-42" d="M292.51,633.78c0,12.34-8.22,22.7-20.56,22.24-13.72-.52-28.26-11.73-28.25-24.07l-.29-13.11c0-12.34,10.47-18.2,23.25-17.72l2.64,.1c12.78,.48,23.23,7.13,23.23,19.47v13.1Z"/>
                  <path class="cls-43" d="M279.94,634.32c0-.46-.4-.55-1.56-.18-.53,.17-1.48,.35-2.57,.32-1.09-.04-2.03-.3-2.57-.51-1.16-.46-1.56-.4-1.56,.06,0,.63,2.01,2.6,4.11,2.69h0s0,0,.01,0c0,0,0,0,.01,0h0c2.1,.07,4.12-1.75,4.12-2.38Z"/>
                  <path class="cls-6" d="M283.17,619.89c2.46-.4,3.72,.12,5.33,1.82"/>
                  <path class="cls-6" d="M265.86,619.33c-2.45-.59-4.4-.54-6.02,1.04"/>
                  <path class="cls-66" d="M277.57,597.67c-3.64,.19-11.04,.58-17.91,.94-2.86,.15-5.35,.33-6.69,2.02-4.32,5.46-1.3,15.65-1.3,15.65,0,0,4.01-2.09,15.84-2.71,12.37-.65,20.41-2.57,20.65-11.46,.08-3.08-10.59-4.44-10.59-4.44Z"/>
                  <path class="cls-28" d="M276.88,663.69c4,1.34,7.15,.99,9.74,10.27,.9,3.22,1.52,5.31,1.52,5.31l-10.35,2.74-5.05-8.8,4.15-9.52Z"/>
                </g>
                <path class="cls-65" d="M264.33,639.67s2.45,8.08,9.91,8.36c7.67,.29,8.17-7.54,8.17-7.54l-18.08-.82"/>
                <path class="cls-49" d="M278.58,647.18c-2.08-2.75-7.37-2.87-11.51-2.75,1.56,1.8,3.88,3.45,7.18,3.6,1.84,.08,3.26-.25,4.37-.81-.01-.02-.02-.03-.03-.05Z"/>
                <path class="cls-66" d="M260.46,608.36c0,1.67,2.75,5.59-2.46,6.04-11.6,1.01-10.41,14.92-10.51,13.56-.21-2.82-5.17-2.51-6.77-2.57-1.6-.06-.52-12.29,.32-13.29,.83-1,4.71-5.43,5.89-6.11,1.18-.68,10.05-3.18,10.05-3.18,0,0,2.99-.8,4.04,.69,1.05,1.49-.56,4.86-.56,4.86Z"/>
                <g>
                  <path class="cls-42" d="M246.1,715.32c-.06,0-.12,0-.18,.01-1.68,.09-3.34-.54-4.58-1.74-3.2-3.11-3.48-9.14-1.42-30.73l.16-1.68c.8-8.5,5.25-14.25,12.89-16.62,2.58-.81,5.43,.59,6.36,3.12,.93,2.53-.41,5.23-2.99,6.03-2.66,.83-5.78,2.57-6.36,8.7l-.16,1.7c-.4,4.2-.18,25.07-.17,30.89"/>
                  <path class="cls-43" d="M249.97,682.79c.03-.33,.02-.13,.05-.41l-.03,.02c.04-.41,.09-.79,.15-1.16l-6.14-1.07-3.71-.63c-.08,.53-.15,1.08-.21,1.63l-.16,1.68c-.11,1.11-.2,2.17-.3,3.19,.31-2.98,8.5-3.26,10.35-3.25Z"/>
                </g>
                <path class="cls-28" d="M261.16,673.6c5.28,.2,1.82-8.77,1.82-8.77-.55-1.67-7.96-2.92-8.76-3.05-.98-.16-2.07-.1-2.51-.11-7.81-.26-10.64,4.29-11.56,19.22l12.99,1.51,1.2-7.73"/>
                <path class="cls-42" d="M239.8,629.51c0-3.05,2.56-5.42,5.72-5.31,3.16,.12,2.4,2.56,2.39,5.61,0,3.05,.76,5.55-2.4,5.43-3.16-.12-5.72-2.69-5.71-5.73Z"/>
                <g>
                  <g>
                    <path class="cls-21" d="M283.69,630.06c-.9-.03-1.63-.76-1.63-1.63,0-.41,.16-.8,.46-1.09,.3-.29,.7-.45,1.14-.45,.96,.04,1.69,.77,1.69,1.63,0,.41-.16,.8-.46,1.09-.3,.29-.7,.45-1.14,.45h-.06Z"/>
                    <path class="cls-21" d="M283.65,627.03s.04,0,.06,0c.82,.03,1.49,.7,1.49,1.5,0,.78-.64,1.39-1.44,1.39-.02,0-.04,0-.06,0-.82-.03-1.49-.7-1.49-1.5,0-.78,.64-1.39,1.44-1.39m.02-.29c-.47,0-.92,.18-1.25,.5-.33,.32-.51,.74-.51,1.2,0,.94,.79,1.73,1.76,1.77h0c.54,0,.98-.18,1.31-.5,.33-.32,.51-.74,.51-1.2,0-.94-.79-1.73-1.76-1.77h0s-.06,0-.06,0h0Z"/>
                  </g>
                  <g>
                    <path class="cls-21" d="M263.56,629.31c-.9-.03-1.63-.76-1.62-1.63,0-.41,.16-.8,.46-1.09,.3-.29,.7-.45,1.13-.45,.96,.03,1.69,.77,1.69,1.63,0,.41-.16,.8-.46,1.09-.3,.29-.7,.45-1.13,.45h-.06Z"/>
                    <path class="cls-21" d="M263.52,626.28s.04,0,.06,0c.82,.03,1.49,.7,1.49,1.5,0,.78-.64,1.39-1.44,1.39-.02,0-.04,0-.06,0-.82-.03-1.49-.7-1.49-1.5,0-.78,.64-1.39,1.44-1.39m.02-.29c-.47,0-.92,.18-1.25,.5-.33,.32-.51,.74-.51,1.2,0,.94,.79,1.73,1.76,1.77h0c.54,0,.98-.18,1.31-.5,.33-.32,.51-.74,.51-1.2,0-.94-.79-1.73-1.76-1.77h0s-.06,0-.06,0h0Z"/>
                  </g>
                </g>
              </g>
            </g>
          </g>
        </g>
        <path class="cls-34" d="M299.16,515.38l-126.8-.22,7.69,202.47,126.8,.22-7.69-202.47Zm-118.81,7.29l111.39,.19,7.12,187.49-111.39-.19-7.12-187.49Z"/>
        <g class="cls-98">
          <path class="cls-88" d="M289.27,525.35l6.93,182.49-106.26-.18-6.93-182.49,106.26,.18m2.47-2.49l-111.39-.19,7.12,187.49,111.39,.19-7.12-187.49h0Z"/>
        </g>
        <g>
          <g class="cls-100">
            <g>
              <g>
                <g class="cls-102">
                  <path class="cls-67" d="M470.18,690.08c0-.37,0-.69-.03-.92,0,0,0,.37,.03,.92Z"/>
                </g>
                <path class="cls-79" d="M473.41,629.25c5.6,0,14.08,9.02,5.31,29.69l-2.52-.78-8.88-13.82,6.1-15.09Z"/>
                <g>
                  <path class="cls-79" d="M463.69,684.82c8.65,1.7,12.96-13.12,13.79-24.83,.07-1.04,2.22-10.43,2.22-10.43l.09-1.33c.48-6.73,2.98-21.78-16.43-22.72-20.51-.99-27.13,13.57-27.93,24.89l-.09,1.33s-.48,7.14-.56,8.18c-.54,7.61-2.65,14.9-9.34,18.12l5.84,3.14s4.98-2.02,5.97-3.51c.99-1.49-3.44,4.77-3.44,4.77,0,0,9.65,4.21,18.8,4.49,13.02,.4,11.07-2.11,11.07-2.11Z"/>
                  <path class="cls-25" d="M467.6,710.99l1.34-7.65s8.52,6.74,9.23,2.67c1.42-8.24,3.77-11.23,3.77-11.23,0,0-10.23-10.32-21.3-13.29-5.48-1.47-6.11-1.53-12.74-2.09,0,0-3.39,2.66-4.91,11.47l-4.67,27.03"/>
                  <path class="cls-48" d="M454.65,681.14c2.55,1.86,2.76,3.38,5.83,3.67,1.21,.12,2.27-1.94,2.57-3.69l1.46-8.67c.64-3.82-1.1-7.17-3.88-7.44l-.95-.09c-2.78-.27-5.58,2.65-6.22,6.47l-1.42,8.41c.76,.18,1.52,.54,2.61,1.33Z"/>
                  <path class="cls-44" d="M481.6,657.19c-.17,2.38-2.28,4.31-4.72,4.31-2.44,0-1.71-1.94-1.54-4.32,.17-2.38-.28-4.32,2.16-4.31,2.44,0,4.28,1.94,4.11,4.32Z"/>
                  <path class="cls-44" d="M480.09,658.9c-.68,9.65-7.6,17.98-17.13,17.96-10.59-.02-21.23-8.38-20.54-18.03l.49-10.24c.68-9.65,9.1-14.52,18.96-14.51h2.04c9.86,.02,17.59,4.93,16.91,14.57l-.72,10.24Z"/>
                  <path class="cls-48" d="M470.33,659.68c.02-.36-.28-.42-1.2-.1-.42,.15-1.16,.32-2.01,.32-.84,0-1.56-.18-1.96-.33-.87-.32-1.18-.27-1.21,.09-.04,.49,1.41,1.97,3.04,1.99h0s0,0,.01,0c0,0,0,0,.01,0h0c1.62,0,3.28-1.48,3.32-1.98Z"/>
                  <path class="cls-3" d="M473.2,648.38c1.92-.38,3.29-.08,4.44,1.2"/>
                  <path class="cls-3" d="M460.26,648.36c-1.87-.39-3.28-.09-4.61,1.18"/>
                  <path class="cls-25" d="M443.51,697.97l-1.6-.81-2.2,12.76,.82,.2,3.21,.48s3.81-.09,4.46,0c.65,.1,.87-15.48,.82-17.99-.04-2.31-.41-3.32-1.28-1.64-.88,1.67-4.22,7-4.22,7Z"/>
                  <path class="cls-79" d="M470.51,631.09c-2.83,.25-8.57,.76-13.91,1.23-2.22,.2-4.16,.41-5.29,1.77-3.65,4.39-1.86,12.27-1.86,12.27,0,0,3.22-1.74,12.41-2.56,9.61-.85,15.93-2.58,16.61-9.54,.23-2.41-7.95-3.18-7.95-3.18Z"/>
                  <path class="cls-25" d="M462.24,725.86c-.11,.62-.71,1.08-1.33,1.02l-14.53-1.31c-.63-.06-1.05-.61-.94-1.23l5.59-32.36c.11-.62,.71-1.07,1.33-1.01l14.54,1.45c.63,.06,1.05,.62,.94,1.24l-5.59,32.2Z"/>
                  <path class="cls-25" d="M453.03,698l-.5,7.13c-.11,1.58-.24,3.68-2.76,3.67s-9.73-.8-9.73-.8l-2.2,12.34,17.04,.03-1.85-22.37Z"/>
                  <path class="cls-25" d="M466.69,717.15l.92-6.24-2.71-.28-24.21,3.71-.5,.8-1.46-.44c-.68,1.47-15.6,20.77-15.6,20.77,0,0,1.53,13.23,27.3,15.72,14.15,1.37,20.93-1.14,21.04-2.74-.14-.43-4.78-31.3-4.78-31.3Z"/>
                </g>
                <path class="cls-72" d="M457.96,664.3s1.45,6.25,7.21,6.26c5.92,.01,6.73-6.12,6.73-6.12l-13.94-.14"/>
                <path class="cls-27" d="M468.42,669.74c-1.43-2.06-5.45-2-8.61-1.79,1.09,1.34,2.76,2.54,5.26,2.57,1.39,.01,2.49-.28,3.36-.74,0-.01-.01-.02-.02-.03Z"/>
                <path class="cls-34" d="M457.98,664.38c.06,.22,.26,.87,.66,1.63,0,0-.34-.58-.12-.5,0,0,10.7,1.45,12.33-.18l.47-.9-13.35-.13"/>
                <path class="cls-79" d="M456.68,639.93c-.09,1.3,1.82,4.29-2.23,4.79-9.03,1.11-8.87,11.96-8.88,10.9-.01-2.2-3.86-1.82-5.1-1.82s.28-9.59,.97-10.4c.7-.81,3.94-4.38,4.9-4.94,.95-.57,7.95-2.77,7.95-2.77,0,0,2.36-.71,3.09,.43,.73,1.14-.7,3.81-.7,3.81Z"/>
                <path class="cls-10" d="M445.27,683.33c-5.06,3.74-12.28,19.66-13.13,22.8-1.56,5.83-1.71,11.81,1.88,19.97"/>
                <path class="cls-25" d="M451.12,680.61c3.8,1.2,4.02,3.58,4.02,3.58,.08-1.36-4.97-3.76-5.52-4.02-.67-.32-.04-.6-.38-.64-6.91-.97-10.64,2.19-16.16,13.19l10.42,5.27,2.38-7.12"/>
                <path class="cls-44" d="M439.54,657.04c.17-2.38,2.28-4.31,4.72-4.31,2.44,0,1.71,1.94,1.55,4.32-.17,2.38,.28,4.32-2.16,4.31-2.44,0-4.28-1.94-4.11-4.32Z"/>
                <g>
                  <g>
                    <path class="cls-93" d="M473.53,655.5c-.7,0-1.23-.56-1.18-1.24s.66-1.24,1.36-1.24,1.23,.56,1.18,1.24-.66,1.24-1.35,1.24Z"/>
                    <path class="cls-93" d="M473.7,653.13c.64,0,1.12,.51,1.07,1.13s-.6,1.13-1.23,1.13-1.12-.51-1.07-1.13,.6-1.13,1.23-1.13m.02-.22c-.76,0-1.42,.6-1.48,1.35s.52,1.35,1.29,1.35,1.42-.6,1.48-1.35-.52-1.35-1.29-1.35h0Z"/>
                  </g>
                  <g>
                    <path class="cls-93" d="M457.99,655.47c-.7,0-1.23-.56-1.18-1.24s.66-1.24,1.35-1.24,1.23,.56,1.18,1.24-.66,1.24-1.36,1.24Z"/>
                    <path class="cls-93" d="M458.16,653.11c.64,0,1.12,.51,1.07,1.13s-.6,1.13-1.23,1.13-1.12-.51-1.07-1.13,.6-1.13,1.23-1.13m.02-.22c-.76,0-1.42,.6-1.48,1.35s.52,1.35,1.29,1.35,1.42-.6,1.48-1.35-.52-1.35-1.29-1.35h0Z"/>
                  </g>
                </g>
              </g>
              <g>
                <g>
                  <g>
                    <path class="cls-75" d="M442.66,649.58c.98,11.72-9.75,23.06-21.82,24.9s-22.89-2.04-24.5-13.65l-1.39-11.44c-1.61-11.61,6.97-22.59,19.06-24.41l4.23-.63c12.1-1.81,22.79,6.29,23.77,18.01l.65,7.23Z"/>
                    <path class="cls-31" d="M431.2,680.58l-18.96,.2c-18.22,.19-22.94,26.54-24.08,46.31-.67,11.48,9.76,14.11,9.76,14.11,0,0,.28,2.2,18.84,2.01,18.57-.19,22.44-2.44,22.44-2.44l2.68-44.67c.18-3.03,1.69-15.65-10.68-15.52Z"/>
                    <path class="cls-34" d="M422.79,687.43h1.19c5.39-.07,6.1-4.55,6.28-6.84l-1.84,.02c-.24,2.92-1.07,4.98-4.33,5.01h-1.19s-.06,.01-.1,.01c-3.25,0-7.74-2-8.12-4.88l-1.86,.02c.12,1.88,1.34,3.6,3.51,4.88,1.87,1.11,4.24,1.77,6.34,1.78h.12Z"/>
                    <path class="cls-44" d="M402.96,662.21c.28,2.16-1.3,4.25-3.54,4.68h0c-2.24,.42-4.28-.99-4.57-3.15l-.44-3.32c-.28-2.16,1.3-4.25,3.54-4.68h0c2.24-.42,4.28,.99,4.57,3.15l.43,3.32Z"/>
                    <path class="cls-44" d="M428.45,680.03c-.19,3.22-.9,5.55-4.37,5.59h-1.19c-3.47,.05-8.42-2.22-8.24-5.44l.26-4.5c.19-3.22,3.18-5.89,6.64-5.92h1.19c3.47-.05,6.15,2.56,5.96,5.78l-.26,4.5Z"/>
                    <path class="cls-48" d="M414.84,677.09c-.11,1.93,4.75,4.23,7.28,4.38s6.23,.21,6.36-1.99l.65-11.17-13.74-.81-.56,9.59Z"/>
                    <path class="cls-44" d="M440.55,657.71c.51,10.67-5.35,17.82-16.27,19.46-10.92,1.64-23.96-5.82-25.35-16.36l-.97-6.31c-1.4-10.54,6.3-18.28,17.27-19.93l9.89-1.48c10.97-1.65,14.48,4.41,14.99,15.08l.45,9.54Z"/>
                  </g>
                  <g>
                    <path class="cls-93" d="M414.9,654.49c-.69,0-1.24-.49-1.31-1.16-.04-.36,.08-.73,.32-1.03,.24-.3,.58-.5,.95-.56h.05c.89,0,1.43,.48,1.49,1.14,.04,.36-.08,.73-.32,1.03-.24,.3-.58,.5-.96,.56l-.23,.02Z"/>
                    <path class="cls-93" d="M415.09,651.85c.62,0,1.13,.44,1.19,1.05,.07,.68-.45,1.33-1.16,1.44-.07,.01-.14,.02-.21,.02-.62,0-1.13-.44-1.19-1.05-.07-.68,.45-1.33,1.16-1.44,.07-.01,.14-.02,.21-.02m.02-.25c-.08,0-.17,0-.25,.02-.85,.13-1.47,.91-1.39,1.73,.07,.73,.67,1.26,1.43,1.26,.08,0,.17,0,.25-.02,.85-.13,1.47-.91,1.39-1.73-.07-.73-.67-1.26-1.43-1.26h0Z"/>
                  </g>
                  <path class="cls-75" d="M407.11,638.9c3.3-.5,17.43-2.62,23.67-3.55,2.59-.39,4.86-.77,6.24-2.34,4.46-5.05,2.79-13.47,2.79-13.47,0,0-1.9,1.86-12.62,3.47-11.21,1.68-20.15,1.46-27.4,10.71-1.81,2.31,7.33,5.18,7.33,5.18Z"/>
                  <path class="cls-75" d="M415.6,635.53c.15,1.63,2.06,1.73-1.57,2.28-3.74,.56-9.46,3.18-8.75,11.04,.29,3.27,.58,6.5,.71,7.95,.13,1.44-2.8,2.58-3.76,.6-1.27-2.63-4.07-1.69-4.28-1.65-1.55,.25-1.58-11.89-.86-13.02,.72-1.13,4.09-6.16,5.18-7.04,1.09-.88,9.46-4.94,9.46-4.94,0,0,2.83-1.33,3.98-.06,1.15,1.26-.12,4.84-.12,4.84Z"/>
                  <path class="cls-4" d="M416.79,647.8c-2.03-.1-3.45,.43-4.64,1.95"/>
                  <path class="cls-4" d="M436.81,646.44c-.92-1.32-3.06-1.38-4.84-.63"/>
                  <path class="cls-44" d="M435.06,657.12c.01,2.2,1.86,3.84,4.11,3.68h0c2.26-.16,4.07-2.07,4.06-4.27l-.02-3.37c-.02-2.2-1.86-3.84-4.11-3.68h0c-2.26,.16-4.07,2.07-4.06,4.27l.02,3.37Z"/>
                </g>
                <path class="cls-75" d="M399.98,631.98c-.75-2.18,2.92-7.48,2.92-7.48,0,0,2.53,3.13,1.66,5.14-.86,2.01-3.83,4.52-4.58,2.35Z"/>
                <path class="cls-75" d="M400.52,631.33c-2.76-.88-7.99,4.34-7.99,4.34,0,0,3.97,1.46,6.74-.13,2.05-1.17,3.62-3.45,1.25-4.21Z"/>
                <g>
                  <path class="cls-93" d="M433.81,652.15c-.61,0-1.12-.36-1.28-.9-.09-.32-.04-.68,.14-.98,.19-.33,.51-.57,.89-.69,.15-.05,.3-.07,.46-.07,.61,0,1.12,.36,1.28,.9,.09,.33,.04,.68-.14,.99-.19,.33-.51,.57-.89,.69-.15,.05-.3,.07-.46,.07Z"/>
                  <path class="cls-93" d="M434.01,649.63c.54,0,1.02,.32,1.16,.82,.18,.63-.24,1.31-.93,1.52-.14,.04-.28,.06-.42,.06-.54,0-1.02-.32-1.16-.82-.18-.63,.24-1.31,.93-1.52,.14-.04,.28-.06,.42-.06m.02-.25c-.17,0-.33,.02-.49,.07-.41,.12-.76,.39-.97,.75-.2,.34-.25,.73-.15,1.08,.17,.59,.73,.99,1.39,.99,.17,0,.33-.02,.49-.07,.41-.12,.76-.39,.97-.75,.2-.34,.25-.73,.15-1.08-.17-.59-.73-.99-1.39-.99h0Z"/>
                </g>
                <g>
                  <path class="cls-34" d="M418.39,664.75s2.42,5.41,8.21,4.59c6.41-.91,5.83-6.59,5.83-6.59l-14.03,2"/>
                  <path class="cls-48" d="M427.46,659.43c1.98-.3,3.57-1.63,3.39-2.73-.07-.4-.53-.82-1.27-.35-.34,.22-1.29,.55-2.31,.7-1.02,.15-1.6,.03-2.19-.05-1.29-.18-1.65,.36-1.64,.77,.01,1.12,2.05,1.93,4.04,1.66Z"/>
                  <path class="cls-5" d="M416.47,664.27s3.06,6.85,10.38,5.8c8.1-1.16,7.37-8.33,7.37-8.33l-17.75,2.53"/>
                </g>
                <path class="cls-48" d="M400.18,660.19c-.11-.85-.91-1.41-1.79-1.25-.05,0-.11,.03-.16,.04-.16-.02-.32-.02-.49,.01-.88,.16-1.51,.98-1.4,1.84l.26,2.01c.11,.85,.91,1.41,1.79,1.25,.05-.01,.11-.03,.16-.04,.16,.02,.32,.02,.49,0,.88-.16,1.51-.98,1.4-1.84l-.26-2.01Z"/>
              </g>
            </g>
          </g>
          <polygon id="SVGID-3" data-name="SVGID" class="cls-8" points="406.54 598.69 389.9 721.15 472.28 721.29 488.92 598.83 406.54 598.69"/>
        </g>
      </g>
    </g>
  </g>
</svg>