<?xml version="1.0" encoding="UTF-8"?>
<svg xmlns="http://www.w3.org/2000/svg" viewBox="0 0 379.68 883.29">
  <defs>
    <style>
      .cls-1 {
        fill: #f0f0f0;
      }

      .cls-2 {
        fill: #7da6ad;
      }

      .cls-3 {
        fill: #92c7cf;
      }

      .cls-4, .cls-5 {
        fill: #ccc;
      }

      .cls-6 {
        fill: #e0eaeb;
      }

      .cls-7 {
        fill: #9b9b9a;
      }

      .cls-8 {
        fill: #262626;
      }

      .cls-9 {
        fill: #575756;
      }

      .cls-10 {
        fill: #3c3c3a;
      }

      .cls-11 {
        fill: #846044;
      }

      .cls-12 {
        fill: #533c2a;
      }

      .cls-5 {
        mix-blend-mode: overlay;
      }

      .cls-13 {
        opacity: .79;
      }

      .cls-14 {
        fill: #e1000f;
        fill-rule: evenodd;
      }

      .cls-15 {
        isolation: isolate;
      }
    </style>
  </defs>
  <g class="cls-15">
    <g id="Vrstva_1" data-name="Vrstva 1">
      <g>
        <g>
          <g>
            <rect class="cls-10" x="3.43" y="694.8" width="372.26" height="140.14"/>
            <rect class="cls-4" x="3.6" y="834.94" width="371.63" height="48.36"/>
            <g>
              <rect class="cls-1" x="5.82" y="698.07" width="368.01" height="132.48"/>
              <g>
                <ellipse class="cls-10" cx="143.85" cy="716.98" rx="7.39" ry="7.34"/>
                <ellipse class="cls-10" cx="242.73" cy="716.98" rx="7.39" ry="7.34"/>
                <rect class="cls-10" x="188.57" y="666.52" width="7.41" height="100.92" transform="translate(-524.71 909.25) rotate(-90)"/>
              </g>
            </g>
            <g>
              <rect class="cls-8" x="14.26" y="174.88" width="346.8" height="11.11"/>
              <g>
                <g>
                  <rect class="cls-8" x="69.22" y="159.09" width="8.44" height="16.3"/>
                  <rect class="cls-8" x="80.7" y="147.6" width="7.14" height="30.11" transform="translate(246.93 78.39) rotate(90)"/>
                  <rect class="cls-8" x="156.47" y="159.09" width="8.44" height="16.3" transform="translate(321.37 334.47) rotate(180)"/>
                  <rect class="cls-8" x="146.28" y="147.6" width="7.14" height="30.11" transform="translate(312.51 12.81) rotate(90)"/>
                </g>
                <rect class="cls-8" x="111.69" y="159.09" width="9.92" height="16.3"/>
              </g>
              <g>
                <g>
                  <rect class="cls-8" x="216.43" y="159.09" width="8.44" height="16.3"/>
                  <rect class="cls-8" x="227.91" y="147.6" width="7.14" height="30.11" transform="translate(394.14 -68.82) rotate(90)"/>
                  <rect class="cls-8" x="303.68" y="159.09" width="8.44" height="16.3" transform="translate(615.79 334.47) rotate(180)"/>
                  <rect class="cls-8" x="293.49" y="147.6" width="7.14" height="30.11" transform="translate(459.72 -134.41) rotate(90)"/>
                </g>
                <rect class="cls-8" x="258.9" y="159.09" width="9.92" height="16.3"/>
              </g>
            </g>
            <g>
              <rect class="cls-8" x="3.43" y="326.75" width="372.26" height="368.05"/>
              <rect x="24.72" y="374.59" width="326.76" height="285.6"/>
              <rect class="cls-10" x="30.06" y="380.82" width="316.07" height="275.81"/>
              <g class="cls-13">
                <polygon class="cls-9" points="30.06 598.17 248.07 380.82 346.14 380.82 69.5 656.63 30.06 656.63 30.06 598.17"/>
              </g>
              <g class="cls-13">
                <polygon class="cls-9" points="146.73 656.57 346.14 457.76 346.14 526.09 214.91 656.63 146.73 656.57"/>
              </g>
              <polygon class="cls-9" points="30.08 488.84 137.67 381.03 161.47 381.03 30.06 512.35 30.08 488.84"/>
              <g class="cls-13">
                <rect class="cls-7" x="52.01" y="345.69" width="271.3" height="13.09"/>
              </g>
              <polygon class="cls-9" points="191.51 358.71 176.83 358.71 162.24 345.52 191.51 345.52 191.51 358.71"/>
              <rect class="cls-8" x="154.3" y="358.75" width="136.72" height="237.72"/>
              <g>
                <polygon class="cls-2" points="161.88 358.78 161.88 582 294.05 582 294.05 358.71 161.88 358.78"/>
                <path class="cls-3" d="M307.33,590.47h-124.7c.19-4.58,.39-9.16,.6-13.75,4.54-103.29,10.56-207.14,6.63-217.45-.03-.09-.08-.19-.13-.29-2.4-6.05-6.96-9.34-11.69-11.12-9.27-3.49-19.15-1.2-14.68-2.61,3.4-1.08,7.85-2.05,13.07-2.91,4.34-.72,9.23-1.35,14.48-1.9,8.2-.86,17.31-1.5,26.73-1.92,4.92-.22,9.92-.38,14.91-.48,9.34-.17,18.67-.11,27.43,.18,5.38,.18,10.55,.46,15.35,.82,7.86,.61,14.79,1.48,20.21,2.62,3.74,.79,8.85,6.35,11.08,10.92,.01,.01,.01,.02,.01,.03,.3,.58,.53,1.16,.71,1.7,1.07,3.15,1.89,8.36,2.53,15.17,.02,.11,.03,.23,.05,.33,.77,8.6,1.27,19.7,1.54,32.34,0,.01-.01,.03,0,.05,1.49,70.37-4.12,188.27-4.12,188.27Z"/>
                <path class="cls-6" d="M240.32,419.76c-3.83,39.92-8.72,98.18-16.01,170.71h-15.08c7.29-72.52,12.2-130.79,16.02-170.71,1.39-14.47,4.06-41.29-5.26-73.7-.76-2.62-1.55-5.13-2.36-7.54,4.92-.22,9.92-.38,14.91-.48,.87,2.55,1.72,5.22,2.52,8.02,9.32,32.42,6.66,59.24,5.26,73.7Z"/>
                <path class="cls-6" d="M282.76,419.76c-3.83,39.92-8.72,98.18-16.01,170.71h-15.07c7.29-72.52,12.18-130.79,16.01-170.71,1.4-14.47,4.06-41.29-5.26-73.7-.78-2.73-1.6-5.34-2.46-7.84,5.38,.18,10.55,.46,15.35,.82,.76,2.25,1.49,4.58,2.19,7.01,9.32,32.42,6.66,59.24,5.26,73.7Z"/>
                <path class="cls-6" d="M307.33,590.47h-13.2c7.29-72.52,12.18-130.79,16.01-170.71,.45-4.65,1.03-10.58,1.31-17.56,1.49,70.37-4.12,188.27-4.12,188.27Z"/>
                <path class="cls-6" d="M197.87,419.76c-3.58,37.37-8.1,90.81-14.65,156.96,4.54-103.29,10.56-207.14,6.63-217.45-.03-.09-.08-.19-.13-.29-2.4-6.05-6.96-9.34-11.69-11.12-9.27-3.49-19.15-1.2-14.68-2.61,3.4-1.08,7.85-2.05,13.07-2.91,4.34-.72,9.23-1.35,14.48-1.9,.58,1.81,1.16,3.69,1.72,5.61,9.32,32.42,6.66,59.24,5.26,73.7Z"/>
              </g>
              <g>
                <rect class="cls-8" x="3.43" y="223.44" width="372.26" height="99.3"/>
                <rect x="154.3" y="254.83" width="75.51" height="19.55"/>
                <rect class="cls-9" x="154.3" y="288.81" width="20.54" height="5.81"/>
                <rect class="cls-9" x="181.83" y="288.81" width="20.54" height="5.81"/>
                <rect class="cls-9" x="209.35" y="288.81" width="20.54" height="5.81"/>
                <g>
                  <g class="cls-13">
                    <path class="cls-9" d="M94.07,273.46c0,11.38-9.24,20.61-20.63,20.61s-20.64-9.23-20.64-20.61,8.34-19.69,18.95-20.56c.55-.05,1.12-.07,1.69-.07s1.14,.02,1.69,.07c10.6,.87,18.94,9.74,18.94,20.56Z"/>
                  </g>
                  <path d="M75.13,252.9v17.42c0,.93-.75,1.69-1.69,1.69s-1.69-.75-1.69-1.69v-17.42c.55-.05,1.12-.07,1.69-.07s1.14,.02,1.69,.07Z"/>
                </g>
                <g>
                  <g class="cls-13">
                    <path class="cls-9" d="M332.74,273.46c0,11.38-9.24,20.61-20.63,20.61s-20.63-9.23-20.63-20.61,8.33-19.69,18.94-20.56c.55-.05,1.12-.07,1.69-.07s1.14,.02,1.69,.07c10.6,.87,18.94,9.74,18.94,20.56Z"/>
                  </g>
                  <path d="M313.81,252.9v17.42c0,.93-.75,1.69-1.69,1.69s-1.69-.75-1.69-1.69v-17.42c.55-.05,1.12-.07,1.69-.07s1.14,.02,1.69,.07Z"/>
                </g>
              </g>
              <rect x="3.43" y="322.73" width="372.26" height="4.02"/>
            </g>
            <g>
              <rect class="cls-11" y="185.99" width="379.68" height="37.45"/>
              <path class="cls-12" d="M295.65,223.44h-58.23c2.13-4.79,4.54-9.07,5.04-9.95,3.98-7,8.81-12.52,18.43-12.92,4.75-.2,11.22-.31,20.22,6.95,5.2,4.2,10.45,10.23,14.54,15.91Z"/>
              <path class="cls-12" d="M122.43,223.44h-58.23c2.13-4.79,4.54-9.07,5.04-9.95,3.98-7,8.81-12.52,18.43-12.92,4.75-.2,11.22-.31,20.22,6.95,5.2,4.2,10.45,10.23,14.54,15.91Z"/>
              <path class="cls-12" d="M379.68,197.88v6.17c-3.41-.97-9.67-3.31-18.18-2.73-6.34,.42-8.42,1.58-17.14,3.51-17.55,3.87-26.33,5.8-34.27,1.17-6.01-3.49-15.61-11.71-19.98-20.01h79.22c4.37,4.33,8,8.57,10.35,11.89Z"/>
              <path class="cls-12" d="M103.61,186h61.88c-2.27,5.17-4.83,9.79-5.36,10.74-4.23,7.56-9.36,13.51-19.59,13.95-5.05,.22-11.92,.34-21.49-7.5-5.53-4.54-11.11-11.05-15.46-17.18Z"/>
            </g>
          </g>
          <path class="cls-5" d="M308.85,174.21s-22.14-23.59-9.49-61.91,50.26-28.13,52.02-57.3S321.51,.18,292.33,28.12c4.87-25.19-10.46-31.09-24.91-26.88s-23.09,27.54-5.06,54.89c18.03,27.35,20.49,110.39-30.83,118.08h77.33Z"/>
        </g>
        <path class="cls-14" d="M228.4,147.54c11.48,39.15,41.72,18.33,40.42,1.8,2.24,33.24,15.38,30.48,31.41,5.96,10.4,20.06-4.67,17.91-6.84,19.58h-57.29c-10.11-3.47-18.6-12.14-7.71-27.34Z"/>
      </g>
    </g>
  </g>
</svg>