<?xml version="1.0" encoding="UTF-8"?>
<svg xmlns="http://www.w3.org/2000/svg" xmlns:xlink="http://www.w3.org/1999/xlink" viewBox="0 0 1466.66 399.89">
  <defs>
    <style>
      .cls-1 {
        fill: #57453f;
      }

      .cls-2 {
        fill: url(#_ŃŚÁŻž_ŪŪŻť_ūŗšŤŚŪÚ_560);
      }

      .cls-2, .cls-3, .cls-4, .cls-5 {
        mix-blend-mode: multiply;
        opacity: .2;
      }

      .cls-6 {
        fill: url(#_ŃŚÁŻž_ŪŪŻť_ūŗšŤŚŪÚ_563-2);
      }

      .cls-6, .cls-7 {
        mix-blend-mode: screen;
        opacity: .3;
      }

      .cls-3 {
        fill: url(#_ŃŚÁŻž_ŪŪŻť_ūŗšŤŚŪÚ_560-4);
      }

      .cls-4 {
        fill: url(#_ŃŚÁŻž_ŪŪŻť_ūŗšŤŚŪÚ_560-3);
      }

      .cls-5 {
        fill: url(#_ŃŚÁŻž_ŪŪŻť_ūŗšŤŚŪÚ_560-2);
      }

      .cls-8 {
        fill: #a08675;
      }

      .cls-8, .cls-9 {
        fill-rule: evenodd;
      }

      .cls-9 {
        fill: #fff;
      }

      .cls-7 {
        fill: url(#_ŃŚÁŻž_ŪŪŻť_ūŗšŤŚŪÚ_563);
      }

      .cls-10 {
        isolation: isolate;
      }
    </style>
    <linearGradient id="_ŃŚÁŻž_ŪŪŻť_ūŗšŤŚŪÚ_560" data-name="ŃŚÁŻžˇŪŪŻť „ūŗšŤŚŪÚ 560" x1="1227.82" y1="293.92" x2="287.19" y2="301.99" gradientUnits="userSpaceOnUse">
      <stop offset="0" stop-color="#fbf9f9"/>
      <stop offset="1" stop-color="#750042"/>
    </linearGradient>
    <linearGradient id="_ŃŚÁŻž_ŪŪŻť_ūŗšŤŚŪÚ_560-2" data-name="ŃŚÁŻžˇŪŪŻť „ūŗšŤŚŪÚ 560" x1="1404.02" y1="210.78" x2="435.69" y2="214.23" xlink:href="#_ŃŚÁŻž_ŪŪŻť_ūŗšŤŚŪÚ_560"/>
    <linearGradient id="_ŃŚÁŻž_ŪŪŻť_ūŗšŤŚŪÚ_560-3" data-name="ŃŚÁŻžˇŪŪŻť „ūŗšŤŚŪÚ 560" x1="295.63" y1="-202.23" x2="348.24" y2="380.51" xlink:href="#_ŃŚÁŻž_ŪŪŻť_ūŗšŤŚŪÚ_560"/>
    <linearGradient id="_ŃŚÁŻž_ŪŪŻť_ūŗšŤŚŪÚ_560-4" data-name="ŃŚÁŻžˇŪŪŻť „ūŗšŤŚŪÚ 560" x1="937.2" y1="112.58" x2="1559.7" y2="159.84" xlink:href="#_ŃŚÁŻž_ŪŪŻť_ūŗšŤŚŪÚ_560"/>
    <linearGradient id="_ŃŚÁŻž_ŪŪŻť_ūŗšŤŚŪÚ_563" data-name="ŃŚÁŻžˇŪŪŻť „ūŗšŤŚŪÚ 563" x1="-1.12" y1="233.46" x2="1859.46" y2="269.77" gradientUnits="userSpaceOnUse">
      <stop offset="0" stop-color="#b04431"/>
      <stop offset="1" stop-color="#000"/>
    </linearGradient>
    <linearGradient id="_ŃŚÁŻž_ŪŪŻť_ūŗšŤŚŪÚ_563-2" data-name="ŃŚÁŻžˇŪŪŻť „ūŗšŤŚŪÚ 563" x1="-122.37" y1="93.05" x2="2240.1" y2="139.16" xlink:href="#_ŃŚÁŻž_ŪŪŻť_ūŗšŤŚŪÚ_563"/>
  </defs>
  <g class="cls-10">
    <g id="Vrstva_1" data-name="Vrstva 1">
      <g>
        <polygon class="cls-1" points="1466.66 0 1277.12 399.89 188.09 395.63 0 0 1466.66 0"/>
        <g>
          <polygon class="cls-2" points="250.04 281.86 1036.88 288.28 1029.43 316.08 262.16 317.17 250.04 281.86"/>
          <polygon class="cls-5" points="277.69 196.33 294.62 243.37 1252.92 243.37 1252.92 217.71 1263.08 179.22 277.69 196.33"/>
          <path class="cls-4" d="M189.65,131.19c3.39-4.28,257.35,0,257.35,0l19.91,56.59-244.88,3.29-32.39-59.87Z"/>
          <polygon class="cls-3" points="1418.57 106.82 1168.27 106.52 1168.27 172.43 1388.37 174.73 1418.57 106.82"/>
          <polygon class="cls-7" points="246.36 252.05 1212.29 247.65 1212.29 243.37 242.57 243.37 246.36 252.05"/>
          <polygon class="cls-6" points="189.65 122.13 1418.57 100.14 494.41 93.69 501.18 106.52 186.86 115.75 189.65 122.13"/>
        </g>
        <g>
          <polygon class="cls-8" points="596.22 249.14 534.73 186.53 338.37 202.12 337.4 209.45 269.59 208.25 324.28 187.78 401.98 169.43 416.93 154.44 118 197.21 171.93 208.39 148.34 216.06 196.79 253.48 596.22 249.14"/>
          <polygon class="cls-9" points="580.06 232.69 185.25 241.87 153.17 214.49 171.93 208.39 168.37 201.91 131.92 195.22 416.93 154.44 406.42 164.98 324.29 181.67 265.02 201.09 269.59 208.25 337.4 209.45 338.37 202.12 534.73 186.53 580.06 232.69"/>
        </g>
      </g>
    </g>
  </g>
</svg>