<?xml version="1.0" encoding="UTF-8"?>
<svg id="Vrstva_1" data-name="Vrstva 1" xmlns="http://www.w3.org/2000/svg" viewBox="0 0 278.19 89.27">
  <defs>
    <style>
      .cls-1 {
        fill: #482e15;
      }

      .cls-1, .cls-2, .cls-3, .cls-4, .cls-5, .cls-6, .cls-7 {
        fill-rule: evenodd;
      }

      .cls-2 {
        fill: #88682b;
      }

      .cls-3 {
        fill: #ad913f;
      }

      .cls-4 {
        fill: #805d1b;
      }

      .cls-5 {
        fill: #7d611c;
      }

      .cls-6 {
        fill: #8b6e1d;
      }

      .cls-7 {
        fill: #ead38f;
      }
    </style>
  </defs>
  <g>
    <g>
      <path class="cls-1" d="M242.64,37.68c-.23,1.04-.49,.88-.74,1.47-.27,.63-1.8,3.48-2.37,3.92-.25,.19-3.46,2.03-3.94,2.02-.75-.03-2.09,.24-2.75,.61-2.72,1.49-13.57-1.54-16.25-2.99-2.8-1.51-5.29-3.09-7.2-5.7-1.79-2.44-2.3-6.36-1.24-9.23,1.73-4.68,5.98-7.43,10.88-7.55,3.81-.09,8.91,1.39,12.45,2.81,4.68,1.87,10.55,8.66,11.12,13.74l.04,.9Z"/>
      <path class="cls-3" d="M242.47,37.67l-.04-.88c-.56-4.99-6.4-11.75-11.01-13.59-3.51-1.4-8.59-2.89-12.38-2.79-4.82,.12-9.01,2.83-10.72,7.44-1.04,2.8-.54,6.67,1.21,9.06,1.9,2.59,4.37,4.16,7.15,5.66,2.62,1.41,13.43,4.43,16.08,2.98,.67-.37,2.05-.65,2.81-.63,.48,0,3.61-1.78,3.85-1.97,.57-.45,2.01-3.19,2.32-3.86,.29-.62,.52-.48,.73-1.41Z"/>
      <path class="cls-2" d="M242.47,37.67l-.04-.88c-.15-1.33-.68-2.79-1.45-4.25,0,.45,.08,.98,.12,1.16,.16,.71,.18,1.69-.09,2.37-.25,.63-.31,.54-.69,.36-.76-.35-1.52-3.02-1.82-3.71-.85-1.93-1.21-1.14-.89-.8,0,.09,.37,.72,.4,.87,.21,.99,.3,1.03,.65,1.91,.02,.05,.5,1.15,.51,1.16,.61,1.02-.08,.9-.49,.2-.97-.96-1.54-3.19-2.15-3.54-1.66-.94,.01,1.85,.05,1.99,.16,.58,1.85,2.32,.58,2.56-1.36,.26-.7-1.56-1.14-1.41-.55,.19-1.07-.19-1.1,.53-.15,2.84-.51,1.05-1.07,.65-.55-.4-.61-1.23-.96-1.83-.98-1.71-5.11,.5-5,4.38,.04,1.36-.77,.53-.62-.56,.09-.61-.52-3.63-1.46-2.47-1.27,1.57-1.14,1.72-.63,3.47,.53,1.81,1.56,2.72,2.02,3.97,.3,.83-.01,.66-.18,.67-.84,.07-2.32-2.51-2.55-3.27-.24-.78-2.22-3.03-2.34-2.74,0,.01,.4,3.44-.07,3.79-.75,.56-1.43-3.13-2.53-3.33-.44-.08-1.47-2.32-1.76-2.47-1.08-.54-1.41,.76-1.54,.86-.96,.8-1.05-1.42-1.24-1.75-.87-1.53-.66,.64-1.73-1.18-.4-.68-.37-1.28-1.1-.86-1.13-.52-1.43-3.31-1.39-4.34,.09-2.31,2.34-3.69,2.8-5.21,.55-1.82-.49-.55-.8-.46-1.2,.38-2.92,1.96-3.93,3.09-.2,.39-.37,.79-.53,1.21-1.04,2.8-.54,6.67,1.21,9.06,1.9,2.59,4.37,4.16,7.15,5.66,2.62,1.41,13.43,4.43,16.08,2.98,.67-.37,2.05-.65,2.81-.63,.48,0,3.61-1.78,3.85-1.97,.57-.45,2.01-3.19,2.32-3.86,.29-.62,.52-.48,.73-1.41Z"/>
      <g>
        <path class="cls-1" d="M218.15,42.52c-1.76,1.33-2.12,.98-2.87,3.31-.46,1.43-1.46,1.81-1.8,3.25-.25,1.04-.19,1.11-.57,2.21-.26,.75-.17,1.95-.61,2.29-.79,.61-.13-4.09-.08-4.23,.29-.93-.67-1.34,.59-3.5,.43-.74,.14-.8,.72-1.75,.75-1.24,.15-.89,1.23-1.91,.63-.6,.94-2.46,2.87-1.7,.99,.39,1.29,1.23,.53,2.01,0,0,0,0-.01,.01,0,0-.01,0-.02,.01Z"/>
        <path class="cls-6" d="M218.18,42.32c.25-.25,.41-.57,.39-.85-.02-.31-.3-.83-.66-1.05-.68-.41-1.22-.21-1.64,.05-.7,.42-1.06,1.48-1.42,1.82-1.04,.99-.44,.62-1.22,1.89-.57,.93-.26,.96-.72,1.75-1.21,2.08-.25,2.54-.54,3.46-.15,.46-.43,3.81-.2,4.19,.29-.3,.39-1.67,.62-2.34,.38-1.1,.32-1.11,.57-2.16,.36-1.51,1.33-1.83,1.78-3.22,.78-2.43,1.22-2.13,3.03-3.51Z"/>
        <path class="cls-1" d="M217.44,42.83c-.1-.08-.65,.37-1.28-.3-.2-.22-.61-.19-.6-.19,.27,.03,.34,.27,.6,.43,.23,.14,.15,.31,.53,.44,.18,.07,.69-.1,.72-.34,0-.03,.03-.05,.03-.04Z"/>
        <path class="cls-1" d="M215.23,45.79c-.03,.17-.38,.27-.58,.19-.18-.07-1.07-.5-1.22-.32-.03,.04,.22,.07,.33,.14,.23,.15,.84,.24,1,.45,.22,.28,.49-.53,.48-.45Z"/>
        <path class="cls-1" d="M213.92,47.78c-.3,.21-.43,.51-.93,.59-.24,.04-.65-.83-.74-.66-.13,.24,.8,1.53,1.23,.76,0,0,.52-.32,.44-.68Z"/>
      </g>
      <g>
        <path class="cls-1" d="M217.91,40.49c-2.02,1.36-2.4,.96-3.37,3.48-.6,1.55-1.72,1.91-2.18,3.47-.33,1.13-.28,1.21-.76,2.4-.33,.81-.31,2.14-.81,2.49-.91,.62,.11-4.52,.17-4.67,.37-1.01-.66-1.52,.86-3.83,.52-.79,.21-.87,.91-1.89,.91-1.32,.22-.97,1.48-2.03,.73-.62,1.19-2.66,3.28-1.7,1.07,.49,1.35,1.43,.46,2.25,0,0,0,0-.01,.01,0,0-.01,0-.02,.01Z"/>
        <path class="cls-6" d="M217.96,40.26c.29-.26,.6-.63,.49-.92-.12-.31-.45-1.09-.71-1.4-.57-.67-1.29-.1-1.77,.15-.8,.42-1.26,1.57-1.67,1.92-1.21,1.03-.53,.65-1.46,2.01-.68,.99-.35,1.05-.9,1.88-1.47,2.22-.43,2.79-.81,3.78-.19,.5-.71,4.17-.48,4.61,.34-.31,.53-1.82,.83-2.54,.49-1.2,.43-1.21,.76-2.35,.49-1.65,1.58-1.94,2.16-3.45,1.01-2.63,1.48-2.28,3.56-3.69Z"/>
        <path class="cls-3" d="M216.78,37.97c-1.33-.21-1.93,1.57-2.48,2.04-1.21,1.03-.53,.65-1.46,2.01-.68,.99-.35,1.05-.9,1.88-1.47,2.22-.43,2.79-.81,3.78-.16,.42-.55,3.08-.53,4.18,.15-.44,.02-1.53,.41-2.14,.24-.38,.52-2.39,.47-2.83-.08-.76-.18-.82,.14-1.55,.21-.49,1.02-1.4,1.04-1.6,.1-.82,.14-.54,.36-1.2,.12-.37,1.29-1.93,1.65-2.01,1.04-.24,.44-.69,1.34-1.46,.36-.31,.69-.69,.78-1.09Z"/>
        <path class="cls-1" d="M217.11,40.78c-.1-.09-.74,.36-1.39-.41-.21-.26-.66-.25-.66-.25,.3,.04,.35,.32,.63,.51,.24,.17,.15,.35,.56,.52,.2,.08,.77-.07,.82-.33,0-.03,.03-.05,.04-.04Z"/>
        <path class="cls-1" d="M214.49,43.92c-.04,.18-.44,.28-.65,.18-.19-.09-1.14-.61-1.33-.43-.04,.04,.24,.09,.36,.17,.25,.18,.91,.32,1.08,.55,.23,.32,.57-.55,.56-.47Z"/>
        <path class="cls-1" d="M212.92,46.02c-.34,.21-.5,.53-1.06,.59-.27,.03-.66-.95-.77-.78-.16,.26,.79,1.73,1.31,.91,0,0,.59-.32,.53-.73Z"/>
      </g>
      <g>
        <path class="cls-1" d="M242.45,37.35c-.12-.22,.09-.2,.42,.07,2.18,1.78,.9,1.28,1.65,2.64,.35,.63,.38,.3,.83,1.32,.82,1.84,1.37,1.47,1.6,3.98,.09,.92,.3,4.4-.21,5.1-.4,.55-.63-.21-.68-.58-.18-1.44,.16-.07-.13-1.48-.43-2.07-1.02-2.65-1.67-4.38-.39-1.05-.73-1.33-1.17-2.31-.54-1.21-1.32-1.06-1.63-3.12-.11-.76,.44-1.52,.68-1.13,.18,.01,.18-.08,.3-.1Z"/>
        <path class="cls-6" d="M242.56,37.09c-.08,0-.23-.34-.3-.33-.32,.26-.5-.55-.57-.54-.11,.09-.36,.94-.42,1.07-.02,.33,.27,1.03,.3,1.4,.48,1.98,1.07,1.73,1.63,2.97,.44,.98,.77,1.22,1.16,2.28,.64,1.73,1.25,2.34,1.67,4.4,.08,.4,.19,2.03,.42,2.16,.77,.4,.54-4.66,.43-5.16-.44-2.03-.44-1.83-1.31-3.37-.52-.92-.18-.7-.9-1.6-.56-.69-.4-1.36-.71-1.83-.06-.1-1.01-1.14-1.4-1.46Z"/>
        <path class="cls-3" d="M242.56,37.09c-.08,0-.1-.53-.17-.52,0,.05-.06,.65-.05,.71,.07,.66,1.25,.63,1.56,1.78,.09,.34,0,.49,.27,.78,.22,.25,.91,1.57,.97,1.89,.02,.13,.71,.82,.86,1.2,.09,.24,.23,.4,.36,.49-.16-.37-.38-.71-.79-1.45-.52-.92-.18-.7-.9-1.6-.56-.69-.4-1.36-.71-1.83-.06-.1-1.01-1.14-1.4-1.46Z"/>
        <path class="cls-1" d="M244.24,40.02c-.77-.38-1.06-.49-1.91-.63,.89-.11,1.16,0,1.98,.33,.05,.05,.17,.28,.15,.34-.03,.08-.15,0-.22-.03Z"/>
        <path class="cls-1" d="M246.46,43.73c-.89-.28-1.28-.3-2.1-.81-.02-.01-.04,0-.03-.05h0s0,0,.02,0c.02,0,.04,0,.06,0,.86,.3,1.19,.23,2.04,.44,.03,.05,.16,.29,.18,.33,.03,.08-.09,.09-.16,.07Z"/>
      </g>
      <g>
        <path class="cls-1" d="M242.48,40c-.08-.23,.12-.18,.4,.14,1.86,2.12,.68,1.4,1.2,2.87,.24,.68,.33,.36,.61,1.44,.51,1.95,1.11,1.68,.93,4.18-.07,.92-.42,4.39-1.04,5-.48,.48-.59-.31-.58-.69,.06-1.45,.17-.04,.11-1.48-.09-2.11-.57-2.78-.93-4.6-.21-1.1-.5-1.43-.77-2.47-.33-1.28-1.13-1.27-1.1-3.35,.01-.77,.69-1.43,.85-1,.18,.04,.19-.05,.32-.05Z"/>
        <path class="cls-5" d="M242.58,39.85c-.84-.07-1.28,.3-1.2,1.33,.17,2.03,.77,1.88,1.12,3.2,.27,1.04,.56,1.33,.78,2.44,.35,1.81,.85,2.51,.93,4.62,.02,.41-.15,2.04,.07,2.2,.69,.52,1.29-4.5,1.27-5.02-.1-2.08-.14-1.88-.74-3.54-.36-.99-.06-.72-.63-1.72-.44-.77-.17-1.41-.4-1.92-.05-.11-.86-1.2-1.19-1.58Z"/>
        <path class="cls-3" d="M242.6,39.83c-.08,0-.12-.08-.19-.07-.01,.05-.02,.1-.03,.16-.04,.66,1.12,.83,1.25,2.01,.04,.36-.07,.48,.14,.81,.18,.28,.65,1.7,.65,2.02,0,.13,.56,.92,.65,1.33,.05,.25,.16,.43,.28,.54-.1-.4-.26-.76-.55-1.56-.36-.99-.06-.72-.63-1.72-.44-.77-.17-1.41-.4-1.92-.05-.11-.84-1.22-1.18-1.6Z"/>
        <path class="cls-1" d="M243.82,42.92c-.7-.51-.97-.65-1.78-.93,.9,.04,1.15,.18,1.9,.65,.04,.06,.12,.31,.1,.36-.04,.07-.15-.02-.22-.07Z"/>
        <path class="cls-1" d="M245.39,46.95c-.83-.43-1.22-.5-1.94-1.14-.02-.02-.04-.02-.02-.05h0s0,0,.02,.01c.02,0,.04,0,.05,.02,.8,.43,1.13,.42,1.94,.76,.02,.06,.11,.31,.12,.36,.01,.08-.1,.08-.17,.04Z"/>
      </g>
      <g>
        <path class="cls-1" d="M242.98,45.83h0c-.34,.46-.35,.26-.53,.8-.27,.84-.91-.95-1.03-1.16-.25-.46-1.44-1.27-1.78-1.42,.11,.3,.55,.57-.89,.64-.85,.04-2.12-.97-2.02-1.91,.07-.6,.99-.5,1.44-2.5,.13-.57-.14-1.05,.28-1.42,.54-.47,.93,.04,2.02-.95,.93-.85,1.62,1.18,1.86,1.78,.47,1.17,.72,.73,1.12,1.66,.59,1.38,.57,2.83-.42,3.96,.04,.14-.04,.43-.05,.52h0Z"/>
        <path class="cls-6" d="M242.81,45.79c.18-.89-.15-.15,.45-.93,.78-1.03,.53-3.33-.54-4.29-.44-.4-.93-2.71-1.87-2.93-.23-.05-.65,.51-1.33,.7-1.22,.35-1.42,.23-1.42,1.35,0,.64-.47,2.02-1.09,2.42-1.22,.78,.9,2.46,1.73,2.42,.06,0,.75-.04,.87-.15-.79-1.43,1.69,.59,1.85,.83,.15,.23,.65,1.35,.79,1.47,.03-.07,.11-.45,.56-.88h0Z"/>
        <path class="cls-3" d="M243.37,44.71c.61-1.1,.36-3.24-.65-4.15-.44-.4-.93-2.71-1.87-2.93-.17-.04-.45,.26-.86,.5,.11,.41,.66,.61,.55,.82-.14,.25,.15,.28,.19,.68,.04,.39,.08,.27-.15,.57-.25,.34,.56,.98,.63,1.2,0,0,.37,.48,.44,.66,.15,.39,.42,.71,.49,1.19,.04,.3,.17,.55,.23,.93,.05,.31,.09,.59,.18,.89,.05,.15,0,.71,.21,.52,.16-.14,.06-.73-.02-.92-.04-.08-.12-1.32-.23-1.67-.09-.28-.85-1.6-1.05-1.83-.08-.09-.34-.62-.26-.76,.12-.19,.06-.48,.34-.52,.33-.05,.37,.27,.65,.5,.1,.09,.42,.64,.64,.83,.24,.22,.76,1.66,.72,1.99-.03,.25,.04,.56-.05,.83-.04,.12-.23,.51-.13,.66Z"/>
        <path class="cls-1" d="M239.43,44.09c-.6-1.04-.52-.6-1.15-1.69l-.15-.29c.27,.23,.25,.19,.47,.46,.72,.88,.55,.38,1.19,1.34,.04,.09-.11,.07-.19,.13-.01,0,.09,.15,.07,.16-.1,.05-.2,0-.25-.11Z"/>
        <path class="cls-1" d="M241.41,40.67c0,.38,1.33,1.45,1.39,3.07,.03,.71,0,.98,.14,1.7,0,.03,0,.05-.01,.08-.28-.41-.31-1.28-.36-1.76-.18-1.73-1.87-2.66-1.5-3.3,.06-.09,.19-.12,.28-.05,.09,.06,.11,.18,.06,.27Z"/>
        <path class="cls-1" d="M238.46,41.57c.41-1.26,.87-1.47,2.14-1.15h0c-1.46,.16-1.25,0-2.14,1.15Z"/>
        <path class="cls-1" d="M241.7,40.2c.21-.39,.37-.8,.48-.66,.02,.02,.22,.25,.15,.26-.32,.03-.37,.17-.63,.4Z"/>
      </g>
      <g>
        <path class="cls-1" d="M234.07,39.58c1.14,.15,.86,1.05,1.75,1.89,.99,.94,.21,.74,1.36,1.51,.37,.25,.16,.65,.86,1.2,1.14,.91,2.2,1.1,2.51,2.4,.29,1.23,.19,.82,.77,1.9,.23,.42,.76,5.69,.7,6.03-.25,1.47-1.24-2.02-1.24-2.02-.35-1.01-.63-1.67-1.31-2.47-.81-.95,.32-1.44-1.37-2.68-1.24-.91-.49-1.29-1.74-1.26-.58,.02-2.61-2.92-3.32-3.57-1.19-1.07-.33-2.46,.85-2.9,.07-.03,.08-.02,.15-.03,0,0,.01,0,.02,0h0s0,0,.01,0Z"/>
        <path class="cls-6" d="M233.9,39.53h0s-.05,0-.09,.02c-1.28,.44-1.95,1.79-.68,2.82,.59,.47,2.7,3.67,3.2,3.59,1.39-.22,.64,.43,1.83,1.31,1.77,1.3,.62,1.81,1.35,2.67,.73,.86,.71,.77,1.14,1.74,.1,.22,.91,2.86,1.15,3.03l.05-.23c.05-.27-.48-5.54-.68-5.91-.6-1.09-.5-.7-.79-1.94-.29-1.22-1.34-1.42-2.44-2.29-.72-.57-.57-1.02-.86-1.2-1.21-.8-.45-.58-1.37-1.52-.85-.86-.78-1.96-1.81-2.08Z"/>
        <path class="cls-3" d="M241.66,52.09c-.16-1.55-.31-3.35-.43-3.56-.6-1.09-.49-.72-.78-1.97-.29-1.22-1.37-1.41-2.47-2.28-.72-.57-.62-.97-.91-1.16-.26-.17-.42-.29-.53-.4,.05,.09,.08,.22,.11,.38,.04,.23,.84,.21,.32,.67-.2,.17-.92-.1-.68,.39,.03,.07,.45-.15,.66-.04,.1,.05,.23-.24,.91,.36,.52,.46,0,.44,.69,.76,.23,.11,.71,.56,.89,.76,.31,.36,.36,.53,.5,.97,.15,.48,0,.36,.32,.85,.2,.3,.67,1.56,.62,1.87-.03,.15,.6,2.09,.73,2.31,.02,.03,.03,.05,.05,.08h0Zm-5.31-9.59c-.13-.21-.07-.35-.64-.9-.39-.37-.56-.74-.72-1.06-.09,.43,.56,1.27-.27,1.19,0,0-.7-.29-.25,.18,.28,.3,.64,.12,1.21,.45,.2,.12,.47,.01,.68,.13Z"/>
        <path class="cls-1" d="M236.83,45.84c1-.32,.86-.27,1.43-1.16-.03,.8-.55,1.11-1.21,1.37-.07,.03-.25,.05-.28-.02-.03-.07,0-.16,.07-.19Z"/>
        <path class="cls-1" d="M233.28,42.5c1.29,.35,1.93,.62,3.19,.77,.15,.02,.11,0,.21,.05-1.07,.16-2.21-.24-3.23-.5-.08,.01-.15-.04-.16-.12-.01-.08-.09-.19-.01-.21Z"/>
        <path class="cls-1" d="M236.4,42.6c-.97-.44-2.05-.13-2.56-1.16h0c1.04,.97,1.33,.42,2.56,.91,.07,.04,.2,.19,.16,.26-.04,.07-.09,.03-.16,0Z"/>
        <path class="cls-1" d="M238.88,47.66c.49,.2,1.1-.18,1.35-.59,.13,.13-.53,1.15-1.46,.85-.07-.03-.11-.12-.08-.19,.03-.07,.12-.11,.19-.08Z"/>
        <path class="cls-1" d="M239.56,49.94c.77,.06,.13,.52,1.47-.03h0c-.94,.9-.82,.33-1.23,.35-.08,0-.18-.04-.18-.12,0-.08-.14-.19-.06-.2Z"/>
      </g>
      <g>
        <path class="cls-1" d="M229.28,41.21c.27-1.68-.15-1.64,1.73-1.58h-.01c.79,.02,1.36,2.23,1.64,2.88,.33,.16,.73,1.4,.82,1.69,.43,.37,.45,1.45,.52,1.97,.86,1.13-.29,3.73-.48,5.2-.01,.11-.28,4.58-.78,2.49-.28-1.16-.17-3.18,.03-4.38h0c.14-.92-.62-1.12-.67-2.79-.33-.27-.94-1.59-.98-2-1.05-.76-1.83-2.15-1.82-3.46,0-.01,0-.02,0-.03Z"/>
        <path class="cls-6" d="M229.22,41.08c-.01,.92,.7,2.14,1.27,2.85,.37,.47,.78,.63,.7,.81,0-.02,0,0,.01-.02,0,.22,.78,1.76,.96,1.9,.06,.13,.11,.35,.12,.58,.06,.94,.65,1.43,.59,2.14-.13,1.64-.39,3.12,.12,4.78,.13-.42,.23-1.51,.26-1.81h0c.12-1.4,.34-1.83,.65-3.15-.02-.37,.65-1.97,.1-2.79-.4-.6-.12-1.41-.51-1.96-.35-.49-.62-1.62-.89-1.78,.01,0,.01,0,.02,0-.36,.02-.85-3.05-1.61-3.05-1.89,0-1.44-.23-1.8,1.49Z"/>
        <path class="cls-3" d="M233.14,53.27c.05-.39,.08-.79,.1-.95h0c.12-1.4,.34-1.83,.65-3.15-.02-.37,.65-1.97,.1-2.79-.4-.6-.12-1.41-.51-1.96-.35-.49-.62-1.62-.89-1.78,.01,0,.01,0,.02,0-.36,.02-.85-3.05-1.61-3.05-.99,0-1.34-.06-1.5,.13,.08,.15,.31,.33,.78,.51,.32,.13,.76,.26,1,.54,.48,.55,.28,.04,.64,.91,.06,.14-.01,.16,.17,.35,.19,.2-.33,.88-.03,.97,.61,.18,1.31,2.04,1.18,2.54-.02,.07,.35,.45,.4,.78,.04,.29,.14,.34,.15,.75,.02,.71,.21,.74-.21,1.48-.1,.17-.5,2.6-.45,2.87,.06,.3-.3,1.47-.02,1.85Z"/>
        <path class="cls-1" d="M231.09,44.66c-.07-.84,.44-1.74,1.32-1.72h0c-.74,.38-1.16,.95-1.03,1.82,.02,.08-.03,.25-.11,.27-.08,.02-.15-.29-.17-.37Z"/>
        <path class="cls-1" d="M232.13,46.75c.28-.84,.83-1.48,1.71-.94-.85-.08-1.16-.04-1.43,1.01-.02,.08-.11,.29-.19,.27-.08-.02-.11-.26-.09-.34Z"/>
        <path class="cls-1" d="M232.66,48.42c.48,.45,.9-.04,1.5-.37,0,.07,0,.24-.14,.33-.34,.2-.9,.63-1.22,.54-.07-.03-.11-.12-.08-.19,.03-.07-.14-.34-.06-.31Z"/>
        <path class="cls-1" d="M232.33,42.38c-.33-.59-1.27-.72-1.99-1.36-.19-.16-.24-.19-.44-.27,.15-.08,.4,.09,.52,.17,.83,.57,1.58,.4,2.02,1.11,.03,.07,.17,.37,.1,.41-.07,.03-.16,0-.19-.07Z"/>
      </g>
      <path class="cls-3" d="M241.28,37.26c-.26-.34-.57-.52-.7-1,0,0-.51-1.3-.52-1.31-.37-.63-.6-2.84-1.5-3.37-.26-.16,.71,1.39,.72,1.59,0,.11,.87,2.82,.99,3.35,0,.02,.52,1.53-.13,.91-.25-.24-1.63-2.82-1.74-3.18-.03-.1-1.17-1.93-1.07-1.36,.06,.36,1.6,2.58,1.86,3.42,.06,.19,.21,1.67,.86,1.92,.12-.09,.26-.19,.4-.33,.39-.35,.73-.21,1.02,.13,.05-.25-.33-.65-.21-.78Z"/>
      <path class="cls-3" d="M222.16,41.84c-.11,.32,.53,.54,.58-.26,.08-1.51-.02-1.34-.57-2.71-.39-.99-1.1-.96-.36,.64,.15,.32,.49,1.97,.36,2.33Z"/>
      <path class="cls-3" d="M224.17,41.23c-.08-.29-.78-1.97-.17-1.84,.81,.17,.7,.85,1.16,1.46,.64,.86,1.05,1.74,1.79,2.69,1.12,1.44-.27,1.3-.36,1.23-.1-.08-.78-.14-1.3-.73-.45-.5-1.33-2.13-1.17-2.79,.02-.07,.03-.08,.05-.02Z"/>
      <path class="cls-3" d="M229.68,38.59c.29-.5,1.4-.98,1.82-.25,.41,.7,.12,1.34,.2,2.11,.06,.63-.64-1.28-.82-1.38-.29-.17-.9,.17-1.1-.05-.06-.07-.16-.33-.1-.43Z"/>
      <path class="cls-3" d="M237.19,40.89c-.11,.31,.28-1.18,.35-1.4,.09-.32,.49-.85,.33-1.15-.28,.02-1.1,1.77-.99,2.39,.15,.86,.22,.42,.32,.16Z"/>
      <path class="cls-3" d="M213.31,38.85c-.58-.6-.93-1.16-1.6-1.73-1.03-.86-2.69-4.24-2.89-5.56-.11-.73-.06-2.61,.32-3.22,0,0,.93-2.2,.35-1.75-.12,.09-.48,1.09-.65,1.4-.42,.77-.91,2.94-.75,3.82,.07,.41,.2,1.59,.37,1.93,.1,.2,.26,1.05,.55,1.35,.23,.24,.53,.92,.98,1.26,.44,.33,.36,.87,1.18,1.29,.3,.16,.77,1.1,.97,.98,.19-.11,.79,.66,1.16,.81,.04,.02,.8,.69,.33-.2-.05-.09-.31-.37-.33-.39Z"/>
      <path class="cls-3" d="M216.84,38.01c.33-.56-.27-.85-.35-1.61-.03-.31-.46-.61-.55,.35-.06,.6,.09,.66-.12,1.16-.01,.03-.37,.43,.2,.28,0,0,.24-.17,.49-.23,.28-.07,.08-.03,.33,.05Z"/>
      <path class="cls-3" d="M214.4,35.55c.94,.15-.02-1.32-.37-.67-.04,.08-.07,.61,.37,.67Z"/>
      <path class="cls-3" d="M215.86,33.68c-.59-.19-.11,1.37,.51,.65,.3-.34-.49-.65-.51-.65Z"/>
      <path class="cls-3" d="M210.71,33.22c-.75,.7,.96,1.14,.41,.09-.06-.12-.34-.16-.41-.09Z"/>
      <path class="cls-4" d="M211.43,30.46c-.45,.18,.27,.61,.29,.1,0-.12-.24-.12-.29-.1Z"/>
      <path class="cls-4" d="M220.2,30.43c-.46,.79,.74,.7,.35-.1-.1-.21-.31,.03-.35,.1Z"/>
      <path class="cls-3" d="M234.18,34.47c-.68,.15,.19,1.32,.37,.35,.05-.26-.18-.39-.37-.35Z"/>
      <path class="cls-1" d="M227.45,45.71c-.14,.72-.21,.89-.28,1.9-.06,.79-.61,1.86-.34,2.34,.48,.87,1.72-3.71,1.73-3.86,0-.09,.03-.16,.05-.24-.38-.04-.76-.09-1.16-.15Z"/>
      <path class="cls-4" d="M231.22,32.22c-.46,.79,.74,.7,.35-.1-.1-.21-.31,.03-.35,.1Z"/>
      <path class="cls-3" d="M221.07,34.06c-.59-.19-.11,1.37,.51,.65,.3-.34-.49-.65-.51-.65Z"/>
      <path class="cls-4" d="M217.85,24.95c-.45,.18,.27,.61,.29,.1,0-.12-.24-.12-.29-.1Z"/>
      <path class="cls-4" d="M222.42,24.33c-.45,.18,.27,.61,.29,.1,0-.12-.24-.12-.29-.1Z"/>
    </g>
    <path class="cls-7" d="M230.3,33.07c-1.26-2.92-1.63-3.99-2.27-7.14-.44-2.17-1.19-3.06-1.8-5.02-.3-.94-.14-.74-.58-1.53-.26-.46-.17-.24-.3-.7,.2,.44,.07,.2,.36,.66,.53,.86,.74,1.9,1.19,2.92,.89,2.01,1,2.07,1.48,4.28,.61,2.79,1.07,3.88,2.19,6.42,.03,.07,0,.16-.07,.19s-.16,0-.19-.07Z"/>
    <path class="cls-7" d="M218.21,35.29c-2.42-.56-1.85-6.17-3.72-7.98l-.91-.73h0s.98,.66,.98,.66c1.91,1.64,1.58,7.31,3.7,7.77,.08,.01,.13,.09,.12,.17-.01,.08-.09,.13-.17,.12Z"/>
    <path class="cls-7" d="M222.22,24.92c-2.21-3.25-.23-4.06-1.46-7.27l-.27-.65h0c2.02,3.57-.38,4.42,1.96,7.74,.05,.06,.04,.15-.03,.2-.06,.05-.15,.04-.2-.03Z"/>
    <path class="cls-7" d="M235.42,27c.53-1.69,1.02-1.44,.78-3.27-.22-1.77-.28-1.79-.03-3.65,.05-.34,.25-2.1,.69-2.33-.37,.41-.5,1.89-.55,2.35-.2,1.88-.15,1.83,.11,3.6,.28,1.92-.23,1.66-.73,3.37-.02,.08-.1,.13-.17,.11-.08-.02-.13-.1-.11-.17Z"/>
    <path class="cls-7" d="M225.52,33.25c-1.52-.07-2.09-3.47-2.4-4.64,.5,1.02,1.15,4.32,2.38,4.35,.08,0,.15,.06,.15,.14,0,.08-.06,.15-.14,.15Z"/>
    <path class="cls-7" d="M215.29,22.74c-2.1-1.88-1.67-3.39-2.42-5.76-.23-.72-.09-.28-.24-.77,1.26,2.29,.45,4.26,2.82,6.29,.07,.05,.08,.14,.03,.2-.05,.07-.14,.08-.2,.03Z"/>
  </g>
  <g>
    <g>
      <path class="cls-1" d="M35.03,72.08c-.23,1.04-.49,.88-.74,1.47-.27,.63-1.8,3.48-2.37,3.92-.25,.19-3.46,2.03-3.94,2.02-.75-.03-2.09,.24-2.75,.61-2.72,1.49-13.57-1.54-16.25-2.99-2.8-1.51-5.29-3.09-7.2-5.7C0,68.97-.51,65.05,.55,62.19c1.73-4.68,5.98-7.43,10.88-7.55,3.81-.09,8.91,1.39,12.45,2.81,4.68,1.87,10.55,8.66,11.12,13.74l.04,.9Z"/>
      <path class="cls-3" d="M34.86,72.07l-.04-.88c-.56-4.99-6.4-11.75-11.01-13.59-3.51-1.4-8.59-2.89-12.38-2.79-4.82,.12-9.01,2.83-10.72,7.44-1.04,2.8-.54,6.67,1.21,9.06,1.9,2.59,4.37,4.16,7.15,5.66,2.62,1.41,13.43,4.43,16.08,2.98,.67-.37,2.05-.65,2.81-.63,.48,0,3.61-1.78,3.85-1.97,.57-.45,2.01-3.19,2.32-3.86,.29-.62,.52-.48,.73-1.41Z"/>
      <path class="cls-2" d="M34.86,72.07l-.04-.88c-.15-1.33-.68-2.79-1.45-4.25,0,.45,.08,.98,.12,1.16,.16,.71,.18,1.69-.09,2.37-.25,.63-.31,.54-.69,.36-.76-.35-1.52-3.02-1.82-3.71-.85-1.93-1.21-1.14-.89-.8,0,.09,.37,.72,.4,.87,.21,.99,.3,1.03,.65,1.91,.02,.05,.5,1.15,.51,1.16,.61,1.02-.08,.9-.49,.2-.97-.96-1.54-3.19-2.15-3.54-1.66-.94,.01,1.85,.05,1.99,.16,.58,1.85,2.32,.58,2.56-1.36,.26-.7-1.56-1.14-1.41-.55,.19-1.07-.19-1.1,.53-.15,2.84-.51,1.05-1.07,.65-.55-.4-.61-1.23-.96-1.83-.98-1.71-5.11,.5-5,4.38,.04,1.36-.77,.53-.62-.56,.09-.61-.52-3.63-1.46-2.47-1.27,1.57-1.14,1.72-.63,3.47,.53,1.81,1.56,2.72,2.02,3.97,.3,.83-.01,.66-.18,.67-.84,.07-2.32-2.51-2.55-3.27-.24-.78-2.22-3.03-2.34-2.74,0,.01,.4,3.44-.07,3.79-.75,.56-1.43-3.13-2.53-3.33-.44-.08-1.47-2.32-1.76-2.47-1.08-.54-1.41,.76-1.54,.86-.96,.8-1.05-1.42-1.24-1.75-.87-1.53-.66,.64-1.73-1.18-.4-.68-.37-1.28-1.1-.86-1.13-.52-1.43-3.31-1.39-4.34,.09-2.31,2.34-3.69,2.8-5.21,.55-1.82-.49-.55-.8-.46-1.2,.38-2.92,1.96-3.93,3.09-.2,.39-.37,.79-.53,1.21-1.04,2.8-.54,6.67,1.21,9.06,1.9,2.59,4.37,4.16,7.15,5.66,2.62,1.41,13.43,4.43,16.08,2.98,.67-.37,2.05-.65,2.81-.63,.48,0,3.61-1.78,3.85-1.97,.57-.45,2.01-3.19,2.32-3.86,.29-.62,.52-.48,.73-1.41Z"/>
      <g>
        <path class="cls-1" d="M10.54,76.93c-1.76,1.33-2.12,.98-2.87,3.31-.46,1.43-1.46,1.81-1.8,3.25-.25,1.04-.19,1.11-.57,2.21-.26,.75-.17,1.95-.61,2.29-.79,.61-.13-4.09-.08-4.23,.29-.93-.67-1.34,.59-3.5,.43-.74,.14-.8,.72-1.75,.75-1.24,.15-.89,1.23-1.91,.63-.6,.94-2.46,2.87-1.7,.99,.39,1.29,1.23,.53,2.01,0,0,0,0-.01,.01,0,0-.01,0-.02,.01Z"/>
        <path class="cls-6" d="M10.57,76.72c.25-.25,.41-.57,.39-.85-.02-.31-.3-.83-.66-1.05-.68-.41-1.22-.21-1.64,.05-.7,.42-1.06,1.48-1.42,1.82-1.04,.99-.44,.62-1.22,1.89-.57,.93-.26,.96-.72,1.75-1.21,2.08-.25,2.54-.54,3.46-.15,.46-.43,3.81-.2,4.19,.29-.3,.39-1.67,.62-2.34,.38-1.1,.32-1.11,.57-2.16,.36-1.51,1.33-1.83,1.78-3.22,.78-2.43,1.22-2.13,3.03-3.51Z"/>
        <path class="cls-1" d="M9.83,77.23c-.1-.08-.65,.37-1.28-.3-.2-.22-.61-.19-.6-.19,.27,.03,.34,.27,.6,.43,.23,.14,.15,.31,.53,.44,.18,.07,.69-.1,.72-.34,0-.03,.03-.05,.03-.04Z"/>
        <path class="cls-1" d="M7.63,80.2c-.03,.17-.38,.27-.58,.19-.18-.07-1.07-.5-1.22-.32-.03,.04,.22,.07,.33,.14,.23,.15,.84,.24,1,.45,.22,.28,.49-.53,.48-.45Z"/>
        <path class="cls-1" d="M6.31,82.18c-.3,.21-.43,.51-.93,.59-.24,.04-.65-.83-.74-.66-.13,.24,.8,1.53,1.23,.76,0,0,.52-.32,.44-.68Z"/>
      </g>
      <g>
        <path class="cls-1" d="M10.3,74.89c-2.02,1.36-2.4,.96-3.37,3.48-.6,1.55-1.72,1.91-2.18,3.47-.33,1.13-.28,1.21-.76,2.4-.33,.81-.31,2.14-.81,2.49-.91,.62,.11-4.52,.17-4.67,.37-1.01-.66-1.52,.86-3.83,.52-.79,.21-.87,.91-1.89,.91-1.32,.22-.97,1.48-2.03,.73-.62,1.19-2.66,3.28-1.7,1.07,.49,1.35,1.43,.46,2.25,0,0,0,0-.01,.01,0,0-.01,0-.02,.01Z"/>
        <path class="cls-6" d="M10.35,74.66c.29-.26,.6-.63,.49-.92-.12-.31-.45-1.09-.71-1.4-.57-.67-1.29-.1-1.77,.15-.8,.42-1.26,1.57-1.67,1.92-1.21,1.03-.53,.65-1.46,2.01-.68,.99-.35,1.05-.9,1.88-1.47,2.22-.43,2.79-.81,3.78-.19,.5-.71,4.17-.48,4.61,.34-.31,.53-1.82,.83-2.54,.49-1.2,.43-1.21,.76-2.35,.49-1.65,1.58-1.94,2.16-3.45,1.01-2.63,1.48-2.28,3.56-3.69Z"/>
        <path class="cls-3" d="M9.17,72.38c-1.33-.21-1.93,1.57-2.48,2.04-1.21,1.03-.53,.65-1.46,2.01-.68,.99-.35,1.05-.9,1.88-1.47,2.22-.43,2.79-.81,3.78-.16,.42-.55,3.08-.53,4.18,.15-.44,.02-1.53,.41-2.14,.24-.38,.52-2.39,.47-2.83-.08-.76-.18-.82,.14-1.55,.21-.49,1.02-1.4,1.04-1.6,.1-.82,.14-.54,.36-1.2,.12-.37,1.29-1.93,1.65-2.01,1.04-.24,.44-.69,1.34-1.46,.36-.31,.69-.69,.78-1.09Z"/>
        <path class="cls-1" d="M9.5,75.18c-.1-.09-.74,.36-1.39-.41-.21-.26-.66-.25-.66-.25,.3,.04,.35,.32,.63,.51,.24,.17,.15,.35,.56,.52,.2,.08,.77-.07,.82-.33,0-.03,.03-.05,.04-.04Z"/>
        <path class="cls-1" d="M6.89,78.32c-.04,.18-.44,.28-.65,.18-.19-.09-1.14-.61-1.33-.43-.04,.04,.24,.09,.36,.17,.25,.18,.91,.32,1.08,.55,.23,.32,.57-.55,.56-.47Z"/>
        <path class="cls-1" d="M5.31,80.42c-.34,.21-.5,.53-1.06,.59-.27,.03-.66-.95-.77-.78-.16,.26,.79,1.73,1.31,.91,0,0,.59-.32,.53-.73Z"/>
      </g>
      <g>
        <path class="cls-1" d="M34.84,71.75c-.12-.22,.09-.2,.42,.07,2.18,1.78,.9,1.28,1.65,2.64,.35,.63,.38,.3,.83,1.32,.82,1.84,1.37,1.47,1.6,3.98,.09,.92,.3,4.4-.21,5.1-.4,.55-.63-.21-.68-.58-.18-1.44,.16-.07-.13-1.48-.43-2.07-1.02-2.65-1.67-4.38-.39-1.05-.73-1.33-1.17-2.31-.54-1.21-1.32-1.06-1.63-3.12-.11-.76,.44-1.52,.68-1.13,.18,.01,.18-.08,.3-.1Z"/>
        <path class="cls-6" d="M34.95,71.49c-.08,0-.23-.34-.3-.33-.32,.26-.5-.55-.57-.54-.11,.09-.36,.94-.42,1.07-.02,.33,.27,1.03,.3,1.4,.48,1.98,1.07,1.73,1.63,2.97,.44,.98,.77,1.22,1.16,2.28,.64,1.73,1.25,2.34,1.67,4.4,.08,.4,.19,2.03,.42,2.16,.77,.4,.54-4.66,.43-5.16-.44-2.03-.44-1.83-1.31-3.37-.52-.92-.18-.7-.9-1.6-.56-.69-.4-1.36-.71-1.83-.06-.1-1.01-1.14-1.4-1.46Z"/>
        <path class="cls-3" d="M34.95,71.49c-.08,0-.1-.53-.17-.52,0,.05-.06,.65-.05,.71,.07,.66,1.25,.63,1.56,1.78,.09,.34,0,.49,.27,.78,.22,.25,.91,1.57,.97,1.89,.02,.13,.71,.82,.86,1.2,.09,.24,.23,.4,.36,.49-.16-.37-.38-.71-.79-1.45-.52-.92-.18-.7-.9-1.6-.56-.69-.4-1.36-.71-1.83-.06-.1-1.01-1.14-1.4-1.46Z"/>
        <path class="cls-1" d="M36.64,74.42c-.77-.38-1.06-.49-1.91-.63,.89-.11,1.16,0,1.98,.33,.05,.05,.17,.28,.15,.34-.03,.08-.15,0-.22-.03Z"/>
        <path class="cls-1" d="M38.85,78.13c-.89-.28-1.28-.3-2.1-.81-.02-.01-.04,0-.03-.05h0s0,0,.02,0c.02,0,.04,0,.06,0,.86,.3,1.19,.23,2.04,.44,.03,.05,.16,.29,.18,.33,.03,.08-.09,.09-.16,.07Z"/>
      </g>
      <g>
        <path class="cls-1" d="M34.87,74.4c-.08-.23,.12-.18,.4,.14,1.86,2.12,.68,1.4,1.2,2.87,.24,.68,.33,.36,.61,1.44,.51,1.95,1.11,1.68,.93,4.18-.07,.92-.42,4.39-1.04,5-.48,.48-.59-.31-.58-.69,.06-1.45,.17-.04,.11-1.48-.09-2.11-.57-2.78-.93-4.6-.21-1.1-.5-1.43-.77-2.47-.33-1.28-1.13-1.27-1.1-3.35,.01-.77,.69-1.43,.85-1,.18,.04,.19-.05,.32-.05Z"/>
        <path class="cls-5" d="M34.97,74.26c-.84-.07-1.28,.3-1.2,1.33,.17,2.03,.77,1.88,1.12,3.2,.27,1.04,.56,1.33,.78,2.44,.35,1.81,.85,2.51,.93,4.62,.02,.41-.15,2.04,.07,2.2,.69,.52,1.29-4.5,1.27-5.02-.1-2.08-.14-1.88-.74-3.54-.36-.99-.06-.72-.63-1.72-.44-.77-.17-1.41-.4-1.92-.05-.11-.86-1.2-1.19-1.58Z"/>
        <path class="cls-3" d="M34.99,74.23c-.08,0-.12-.08-.19-.07-.01,.05-.02,.1-.03,.16-.04,.66,1.12,.83,1.25,2.01,.04,.36-.07,.48,.14,.81,.18,.28,.65,1.7,.65,2.02,0,.13,.56,.92,.65,1.33,.05,.25,.16,.43,.28,.54-.1-.4-.26-.76-.55-1.56-.36-.99-.06-.72-.63-1.72-.44-.77-.17-1.41-.4-1.92-.05-.11-.84-1.22-1.18-1.6Z"/>
        <path class="cls-1" d="M36.21,77.32c-.7-.51-.97-.65-1.78-.93,.9,.04,1.15,.18,1.9,.65,.04,.06,.12,.31,.1,.36-.04,.07-.15-.02-.22-.07Z"/>
        <path class="cls-1" d="M37.79,81.35c-.83-.43-1.22-.5-1.94-1.14-.02-.02-.04-.02-.02-.05h0s0,0,.02,.01c.02,0,.04,0,.05,.02,.8,.43,1.13,.42,1.94,.76,.02,.06,.11,.31,.12,.36,.01,.08-.1,.08-.17,.04Z"/>
      </g>
      <g>
        <path class="cls-1" d="M35.37,80.23h0c-.34,.46-.35,.26-.53,.8-.27,.84-.91-.95-1.03-1.16-.25-.46-1.44-1.27-1.78-1.42,.11,.3,.55,.57-.89,.64-.85,.04-2.12-.97-2.02-1.91,.07-.6,.99-.5,1.44-2.5,.13-.57-.14-1.05,.28-1.42,.54-.47,.93,.04,2.02-.95,.93-.85,1.62,1.18,1.86,1.78,.47,1.17,.72,.73,1.12,1.66,.59,1.38,.57,2.83-.42,3.96,.04,.14-.04,.43-.05,.52h0Z"/>
        <path class="cls-6" d="M35.2,80.19c.18-.89-.15-.15,.45-.93,.78-1.03,.53-3.33-.54-4.29-.44-.4-.93-2.71-1.87-2.93-.23-.05-.65,.51-1.33,.7-1.22,.35-1.42,.23-1.42,1.35,0,.64-.47,2.02-1.09,2.42-1.22,.78,.9,2.46,1.73,2.42,.06,0,.75-.04,.87-.15-.79-1.43,1.69,.59,1.85,.83,.15,.23,.65,1.35,.79,1.47,.03-.07,.11-.45,.56-.88h0Z"/>
        <path class="cls-3" d="M35.76,79.11c.61-1.1,.36-3.24-.65-4.15-.44-.4-.93-2.71-1.87-2.93-.17-.04-.45,.26-.86,.5,.11,.41,.66,.61,.55,.82-.14,.25,.15,.28,.19,.68,.04,.39,.08,.27-.15,.57-.25,.34,.56,.98,.63,1.2,0,0,.37,.48,.44,.66,.15,.39,.42,.71,.49,1.19,.04,.3,.17,.55,.23,.93,.05,.31,.09,.59,.18,.89,.05,.15,0,.71,.21,.52,.16-.14,.06-.73-.02-.92-.04-.08-.12-1.32-.23-1.67-.09-.28-.85-1.6-1.05-1.83-.08-.09-.34-.62-.26-.76,.12-.19,.06-.48,.34-.52,.33-.05,.37,.27,.65,.5,.1,.09,.42,.64,.64,.83,.24,.22,.76,1.66,.72,1.99-.03,.25,.04,.56-.05,.83-.04,.12-.23,.51-.13,.66Z"/>
        <path class="cls-1" d="M31.82,78.49c-.6-1.04-.52-.6-1.15-1.69l-.15-.29c.27,.23,.25,.19,.47,.46,.72,.88,.55,.38,1.19,1.34,.04,.09-.11,.07-.19,.13-.01,0,.09,.15,.07,.16-.1,.05-.2,0-.25-.11Z"/>
        <path class="cls-1" d="M33.8,75.07c0,.38,1.33,1.45,1.39,3.07,.03,.71,0,.98,.14,1.7,0,.03,0,.05-.01,.08-.28-.41-.31-1.28-.36-1.76-.18-1.73-1.87-2.66-1.5-3.3,.06-.09,.19-.12,.28-.05,.09,.06,.11,.18,.06,.27Z"/>
        <path class="cls-1" d="M30.86,75.97c.41-1.26,.87-1.47,2.14-1.15h0c-1.46,.16-1.25,0-2.14,1.15Z"/>
        <path class="cls-1" d="M34.09,74.6c.21-.39,.37-.8,.48-.66,.02,.02,.22,.25,.15,.26-.32,.03-.37,.17-.63,.4Z"/>
      </g>
      <g>
        <path class="cls-1" d="M26.47,73.99c1.14,.15,.86,1.05,1.75,1.89,.99,.94,.21,.74,1.36,1.51,.37,.25,.16,.65,.86,1.2,1.14,.91,2.2,1.1,2.51,2.4,.29,1.23,.19,.82,.77,1.9,.23,.42,.76,5.69,.7,6.03-.25,1.47-1.24-2.02-1.24-2.02-.35-1.01-.63-1.67-1.31-2.47-.81-.95,.32-1.44-1.37-2.68-1.24-.91-.49-1.29-1.74-1.26-.58,.02-2.61-2.92-3.32-3.57-1.19-1.07-.33-2.46,.85-2.9,.07-.03,.08-.02,.15-.03,0,0,.01,0,.02,0h0s0,0,.01,0Z"/>
        <path class="cls-6" d="M26.29,73.93h0s-.05,0-.09,.02c-1.28,.44-1.95,1.79-.68,2.82,.59,.47,2.7,3.67,3.2,3.59,1.39-.22,.64,.43,1.83,1.31,1.77,1.3,.62,1.81,1.35,2.67,.73,.86,.71,.77,1.14,1.74,.1,.22,.91,2.86,1.15,3.03l.05-.23c.05-.27-.48-5.54-.68-5.91-.6-1.09-.5-.7-.79-1.94-.29-1.22-1.34-1.42-2.44-2.29-.72-.57-.57-1.02-.86-1.2-1.21-.8-.45-.58-1.37-1.52-.85-.86-.78-1.96-1.81-2.08Z"/>
        <path class="cls-3" d="M34.06,86.5c-.16-1.55-.31-3.35-.43-3.56-.6-1.09-.49-.72-.78-1.97-.29-1.22-1.37-1.41-2.47-2.28-.72-.57-.62-.97-.91-1.16-.26-.17-.42-.29-.53-.4,.05,.09,.08,.22,.11,.38,.04,.23,.84,.21,.32,.67-.2,.17-.92-.1-.68,.39,.03,.07,.45-.15,.66-.04,.1,.05,.23-.24,.91,.36,.52,.46,0,.44,.69,.76,.23,.11,.71,.56,.89,.76,.31,.36,.36,.53,.5,.97,.15,.48,0,.36,.32,.85,.2,.3,.67,1.56,.62,1.87-.03,.15,.6,2.09,.73,2.31,.02,.03,.03,.05,.05,.08h0Zm-5.31-9.59c-.13-.21-.07-.35-.64-.9-.39-.37-.56-.74-.72-1.06-.09,.43,.56,1.27-.27,1.19,0,0-.7-.29-.25,.18,.28,.3,.64,.12,1.21,.45,.2,.12,.47,.01,.68,.13Z"/>
        <path class="cls-1" d="M29.22,80.24c1-.32,.86-.27,1.43-1.16-.03,.8-.55,1.11-1.21,1.37-.07,.03-.25,.05-.28-.02-.03-.07,0-.16,.07-.19Z"/>
        <path class="cls-1" d="M25.67,76.9c1.29,.35,1.93,.62,3.19,.77,.15,.02,.11,0,.21,.05-1.07,.16-2.21-.24-3.23-.5-.08,.01-.15-.04-.16-.12-.01-.08-.09-.19-.01-.21Z"/>
        <path class="cls-1" d="M28.79,77c-.97-.44-2.05-.13-2.56-1.16h0c1.04,.97,1.33,.42,2.56,.91,.07,.04,.2,.19,.16,.26-.04,.07-.09,.03-.16,0Z"/>
        <path class="cls-1" d="M31.27,82.06c.49,.2,1.1-.18,1.35-.59,.13,.13-.53,1.15-1.46,.85-.07-.03-.11-.12-.08-.19,.03-.07,.12-.11,.19-.08Z"/>
        <path class="cls-1" d="M31.95,84.35c.77,.06,.13,.52,1.47-.03h0c-.94,.9-.82,.33-1.23,.35-.08,0-.18-.04-.18-.12,0-.08-.14-.19-.06-.2Z"/>
      </g>
      <g>
        <path class="cls-1" d="M21.67,75.61c.27-1.68-.15-1.64,1.73-1.58h-.01c.79,.02,1.36,2.23,1.64,2.88,.33,.16,.73,1.4,.82,1.69,.43,.37,.45,1.45,.52,1.97,.86,1.13-.29,3.73-.48,5.2-.01,.11-.28,4.58-.78,2.49-.28-1.16-.17-3.18,.03-4.38h0c.14-.92-.62-1.12-.67-2.79-.33-.27-.94-1.59-.98-2-1.05-.76-1.83-2.15-1.82-3.46,0-.01,0-.02,0-.03Z"/>
        <path class="cls-6" d="M21.62,75.49c-.01,.92,.7,2.14,1.27,2.85,.37,.47,.78,.63,.7,.81,0-.02,0,0,.01-.02,0,.22,.78,1.76,.96,1.9,.06,.13,.11,.35,.12,.58,.06,.94,.65,1.43,.59,2.14-.13,1.64-.39,3.12,.12,4.78,.13-.42,.23-1.51,.26-1.81h0c.12-1.4,.34-1.83,.65-3.15-.02-.37,.65-1.97,.1-2.79-.4-.6-.12-1.41-.51-1.96-.35-.49-.62-1.62-.89-1.78,.01,0,.01,0,.02,0-.36,.02-.85-3.05-1.61-3.05-1.89,0-1.44-.23-1.8,1.49Z"/>
        <path class="cls-3" d="M25.54,87.67c.05-.39,.08-.79,.1-.95h0c.12-1.4,.34-1.83,.65-3.15-.02-.37,.65-1.97,.1-2.79-.4-.6-.12-1.41-.51-1.96-.35-.49-.62-1.62-.89-1.78,.01,0,.01,0,.02,0-.36,.02-.85-3.05-1.61-3.05-.99,0-1.34-.06-1.5,.13,.08,.15,.31,.33,.78,.51,.32,.13,.76,.26,1,.54,.48,.55,.28,.04,.64,.91,.06,.14-.01,.16,.17,.35,.19,.2-.33,.88-.03,.97,.61,.18,1.31,2.04,1.18,2.54-.02,.07,.35,.45,.4,.78,.04,.29,.14,.34,.15,.75,.02,.71,.21,.74-.21,1.48-.1,.17-.5,2.6-.45,2.87,.06,.3-.3,1.47-.02,1.85Z"/>
        <path class="cls-1" d="M23.49,79.06c-.07-.84,.44-1.74,1.32-1.72h0c-.74,.38-1.16,.95-1.03,1.82,.02,.08-.03,.25-.11,.27-.08,.02-.15-.29-.17-.37Z"/>
        <path class="cls-1" d="M24.52,81.15c.28-.84,.83-1.48,1.71-.94-.85-.08-1.16-.04-1.43,1.01-.02,.08-.11,.29-.19,.27-.08-.02-.11-.26-.09-.34Z"/>
        <path class="cls-1" d="M25.05,82.82c.48,.45,.9-.04,1.5-.37,0,.07,0,.24-.14,.33-.34,.2-.9,.63-1.22,.54-.07-.03-.11-.12-.08-.19,.03-.07-.14-.34-.06-.31Z"/>
        <path class="cls-1" d="M24.72,76.78c-.33-.59-1.27-.72-1.99-1.36-.19-.16-.24-.19-.44-.27,.15-.08,.4,.09,.52,.17,.83,.57,1.58,.4,2.02,1.11,.03,.07,.17,.37,.1,.41-.07,.03-.16,0-.19-.07Z"/>
      </g>
      <path class="cls-3" d="M33.67,71.67c-.26-.34-.57-.52-.7-1,0,0-.51-1.3-.52-1.31-.37-.63-.6-2.84-1.5-3.37-.26-.16,.71,1.39,.72,1.59,0,.11,.87,2.82,.99,3.35,0,.02,.52,1.53-.13,.91-.25-.24-1.63-2.82-1.74-3.18-.03-.1-1.17-1.93-1.07-1.36,.06,.36,1.6,2.58,1.86,3.42,.06,.19,.21,1.67,.86,1.92,.12-.09,.26-.19,.4-.33,.39-.35,.73-.21,1.02,.13,.05-.25-.33-.65-.21-.78Z"/>
      <path class="cls-3" d="M14.55,76.24c-.11,.32,.53,.54,.58-.26,.08-1.51-.02-1.34-.57-2.71-.39-.99-1.1-.96-.36,.64,.15,.32,.49,1.97,.36,2.33Z"/>
      <path class="cls-3" d="M16.56,75.63c-.08-.29-.78-1.97-.17-1.84,.81,.17,.7,.85,1.16,1.46,.64,.86,1.05,1.74,1.79,2.69,1.12,1.44-.27,1.3-.36,1.23-.1-.08-.78-.14-1.3-.73-.45-.5-1.33-2.13-1.17-2.79,.02-.07,.03-.08,.05-.02Z"/>
      <path class="cls-3" d="M22.07,72.99c.29-.5,1.4-.98,1.82-.25,.41,.7,.12,1.34,.2,2.11,.06,.63-.64-1.28-.82-1.38-.29-.17-.9,.17-1.1-.05-.06-.07-.16-.33-.1-.43Z"/>
      <path class="cls-3" d="M29.59,75.29c-.11,.31,.28-1.18,.35-1.4,.09-.32,.49-.85,.33-1.15-.28,.02-1.1,1.77-.99,2.39,.15,.86,.22,.42,.32,.16Z"/>
      <path class="cls-3" d="M5.71,73.25c-.58-.6-.93-1.16-1.6-1.73-1.03-.86-2.69-4.24-2.89-5.56-.11-.73-.06-2.61,.32-3.22,0,0,.93-2.2,.35-1.75-.12,.09-.48,1.09-.65,1.4-.42,.77-.91,2.94-.75,3.82,.07,.41,.2,1.59,.37,1.93,.1,.2,.26,1.05,.55,1.35,.23,.24,.53,.92,.98,1.26,.44,.33,.36,.87,1.18,1.29,.3,.16,.77,1.1,.97,.98,.19-.11,.79,.66,1.16,.81,.04,.02,.8,.69,.33-.2-.05-.09-.31-.37-.33-.39Z"/>
      <path class="cls-3" d="M9.23,72.41c.33-.56-.27-.85-.35-1.61-.03-.31-.46-.61-.55,.35-.06,.6,.09,.66-.12,1.16-.01,.03-.37,.43,.2,.28,0,0,.24-.17,.49-.23,.28-.07,.08-.03,.33,.05Z"/>
      <path class="cls-3" d="M6.79,69.96c.94,.15-.02-1.32-.37-.67-.04,.08-.07,.61,.37,.67Z"/>
      <path class="cls-3" d="M8.25,68.08c-.59-.19-.11,1.37,.51,.65,.3-.34-.49-.65-.51-.65Z"/>
      <path class="cls-3" d="M3.1,67.62c-.75,.7,.96,1.14,.41,.09-.06-.12-.34-.16-.41-.09Z"/>
      <path class="cls-4" d="M3.82,64.86c-.45,.18,.27,.61,.29,.1,0-.12-.24-.12-.29-.1Z"/>
      <path class="cls-4" d="M12.6,64.84c-.46,.79,.74,.7,.35-.1-.1-.21-.31,.03-.35,.1Z"/>
      <path class="cls-3" d="M26.57,68.87c-.68,.15,.19,1.32,.37,.35,.05-.26-.18-.39-.37-.35Z"/>
      <path class="cls-1" d="M19.85,80.11c-.14,.72-.21,.89-.28,1.9-.06,.79-.61,1.86-.34,2.34,.48,.87,1.72-3.71,1.73-3.86,0-.09,.03-.16,.05-.24-.38-.04-.76-.09-1.16-.15Z"/>
      <path class="cls-4" d="M23.61,66.63c-.46,.79,.74,.7,.35-.1-.1-.21-.31,.03-.35,.1Z"/>
      <path class="cls-3" d="M13.46,68.47c-.59-.19-.11,1.37,.51,.65,.3-.34-.49-.65-.51-.65Z"/>
      <path class="cls-4" d="M10.24,59.36c-.45,.18,.27,.61,.29,.1,0-.12-.24-.12-.29-.1Z"/>
      <path class="cls-4" d="M14.81,58.73c-.45,.18,.27,.61,.29,.1,0-.12-.24-.12-.29-.1Z"/>
    </g>
    <path class="cls-7" d="M22.7,67.48c-1.26-2.92-1.63-3.99-2.27-7.14-.44-2.17-1.19-3.06-1.8-5.02-.3-.94-.14-.74-.58-1.53-.26-.46-.17-.24-.3-.7,.2,.44,.07,.2,.36,.66,.53,.86,.74,1.9,1.19,2.92,.89,2.01,1,2.07,1.48,4.28,.61,2.79,1.07,3.88,2.19,6.42,.03,.07,0,.16-.07,.19s-.16,0-.19-.07Z"/>
    <path class="cls-7" d="M10.6,69.69c-2.42-.56-1.85-6.17-3.72-7.98l-.91-.73h0s.98,.66,.98,.66c1.91,1.64,1.58,7.31,3.7,7.77,.08,.01,.13,.09,.12,.17-.01,.08-.09,.13-.17,.12Z"/>
    <path class="cls-7" d="M14.61,59.33c-2.21-3.25-.23-4.06-1.46-7.27l-.27-.65h0c2.02,3.57-.38,4.42,1.96,7.74,.05,.06,.04,.15-.03,.2-.06,.05-.15,.04-.2-.03Z"/>
    <path class="cls-7" d="M27.81,61.4c.53-1.69,1.02-1.44,.78-3.27-.22-1.77-.28-1.79-.03-3.65,.05-.34,.25-2.1,.69-2.33-.37,.41-.5,1.89-.55,2.35-.2,1.88-.15,1.83,.11,3.6,.28,1.92-.23,1.66-.73,3.37-.02,.08-.1,.13-.17,.11-.08-.02-.13-.1-.11-.17Z"/>
    <path class="cls-7" d="M17.91,67.66c-1.52-.07-2.09-3.47-2.4-4.64,.5,1.02,1.15,4.32,2.38,4.35,.08,0,.15,.06,.15,.14,0,.08-.06,.15-.14,.15Z"/>
    <path class="cls-7" d="M7.68,57.14c-2.1-1.88-1.67-3.39-2.42-5.76-.23-.72-.09-.28-.24-.77,1.26,2.29,.45,4.26,2.82,6.29,.07,.05,.08,.14,.03,.2-.05,.07-.14,.08-.2,.03Z"/>
  </g>
  <g>
    <g>
      <path class="cls-1" d="M183.83,63.64c-.03,1.07-.32,.96-.46,1.58-.15,.67-1.12,3.75-1.6,4.3-.21,.24-3.02,2.64-3.49,2.71-.75,.11-2,.63-2.59,1.11-2.39,1.96-13.62,1-16.52,.08-3.03-.97-5.77-2.06-8.13-4.27-2.21-2.07-3.44-5.83-2.92-8.84,.84-4.92,4.5-8.41,9.29-9.44,3.73-.8,9.01-.28,12.75,.45,4.95,.97,11.97,6.55,13.47,11.44l.21,.88Z"/>
      <path class="cls-3" d="M183.66,63.66l-.2-.85c-1.48-4.8-8.47-10.36-13.34-11.32-3.71-.73-8.98-1.24-12.68-.45-4.72,1.01-8.33,4.45-9.16,9.3-.5,2.95,.7,6.65,2.87,8.67,2.35,2.2,5.07,3.28,8.08,4.24,2.83,.9,14.02,1.87,16.35-.05,.59-.48,1.9-1.02,2.64-1.14,.48-.08,3.22-2.42,3.42-2.65,.48-.54,1.38-3.51,1.56-4.22,.17-.66,.43-.57,.45-1.52Z"/>
      <path class="cls-2" d="M183.66,63.66l-.2-.85c-.39-1.28-1.18-2.62-2.21-3.9,.08,.44,.26,.94,.34,1.12,.29,.66,.49,1.63,.35,2.34-.13,.67-.2,.59-.61,.48-.81-.2-2.05-2.69-2.47-3.31-1.19-1.74-1.4-.9-1.02-.62,.01,.09,.5,.64,.55,.78,.39,.93,.48,.95,.99,1.76,.03,.04,.71,1.04,.71,1.04,.79,.89,.09,.9-.45,.28-1.13-.77-2.11-2.85-2.77-3.08-1.81-.62,.35,1.81,.42,1.95,.27,.54,2.25,1.93,1.04,2.41-1.29,.51-.98-1.4-1.38-1.17-.5,.29-1.08,0-.99,.73,.38,2.81-.31,1.12-.93,.83-.62-.29-.83-1.1-1.28-1.62-1.28-1.5-4.93,1.44-4.11,5.23,.29,1.33-.66,.66-.71-.44-.03-.62-1.18-3.47-1.89-2.16-.96,1.78-.81,1.9,.03,3.53,.86,1.67,2.04,2.38,2.72,3.53,.45,.76,.11,.65-.05,.69-.82,.22-2.74-2.03-3.11-2.74-.38-.72-2.74-2.56-2.81-2.26,0,.02,1.03,3.31,.64,3.74-.63,.69-1.99-2.81-3.1-2.8-.45,0-1.87-2.01-2.18-2.1-1.16-.33-1.25,1.01-1.35,1.14-.8,.96-1.3-1.2-1.54-1.49-1.13-1.34-.54,.75-1.92-.84-.52-.6-.6-1.19-1.24-.64-1.21-.3-2.02-2.99-2.17-4.01-.34-2.29,1.61-4.06,1.78-5.64,.2-1.89-.59-.45-.87-.3-1.11,.6-2.5,2.47-3.29,3.76-.12,.42-.22,.85-.29,1.29-.5,2.95,.7,6.65,2.87,8.67,2.35,2.2,5.07,3.28,8.08,4.24,2.83,.9,14.02,1.87,16.35-.05,.59-.48,1.9-1.02,2.64-1.14,.48-.08,3.22-2.42,3.42-2.65,.48-.54,1.38-3.51,1.56-4.22,.17-.66,.43-.57,.45-1.52Z"/>
      <g>
        <path class="cls-1" d="M160.66,72.94c-1.48,1.64-1.9,1.36-2.2,3.78-.19,1.5-1.1,2.05-1.16,3.52-.05,1.06,.02,1.13-.15,2.27-.11,.78,.19,1.95-.17,2.36-.66,.75-.88-3.99-.87-4.14,.11-.96-.91-1.19-.07-3.55,.29-.81,0-.81,.39-1.85,.51-1.36-.01-.9,.85-2.11,.51-.71,.47-2.59,2.51-2.2,1.04,.2,1.49,.97,.89,1.88,0,0,0,0,0,.01,0,0,0,.01-.01,.02Z"/>
        <path class="cls-6" d="M160.65,72.73c.2-.3,.3-.64,.23-.91-.08-.3-.45-.76-.85-.91-.74-.28-1.24,.02-1.6,.35-.61,.54-.77,1.65-1.05,2.05-.84,1.17-.32,.69-.85,2.08-.38,1.02-.08,.99-.38,1.85-.81,2.27,.23,2.54,.11,3.5-.06,.48,.28,3.82,.58,4.15,.23-.35,.07-1.71,.17-2.41,.17-1.16,.11-1.16,.16-2.23,.07-1.55,.96-2.04,1.15-3.5,.32-2.53,.8-2.32,2.33-4.01Z"/>
        <path class="cls-1" d="M160.02,73.37c-.11-.06-.57,.48-1.31-.06-.24-.18-.63-.08-.63-.08,.27-.03,.38,.21,.67,.31,.25,.09,.21,.28,.6,.34,.19,.03,.66-.23,.65-.46,0-.03,.02-.05,.02-.05Z"/>
        <path class="cls-1" d="M158.4,76.69c0,.17-.32,.34-.54,.3-.19-.04-1.14-.29-1.26-.09-.03,.04,.23,.02,.35,.07,.25,.11,.87,.08,1.06,.25,.27,.24,.38-.61,.39-.53Z"/>
        <path class="cls-1" d="M157.48,78.88c-.25,.26-.33,.58-.81,.75-.23,.08-.79-.69-.85-.52-.09,.26,1.07,1.35,1.34,.52,0,0,.45-.41,.31-.75Z"/>
      </g>
      <g>
        <path class="cls-1" d="M160.05,70.98c-1.74,1.71-2.18,1.38-2.66,4.04-.3,1.64-1.34,2.19-1.5,3.82-.12,1.17-.05,1.24-.3,2.5-.17,.85,.09,2.16-.33,2.6-.77,.78-.73-4.46-.7-4.62,.18-1.06-.93-1.37,.14-3.92,.37-.87,.04-.9,.54-2.02,.65-1.47,.04-1,1.07-2.27,.61-.75,.68-2.83,2.9-2.27,1.14,.29,1.59,1.16,.87,2.13,0,0,0,0-.01,.01,0,0-.01,.01-.02,.02Z"/>
        <path class="cls-6" d="M160.05,70.75c.24-.31,.47-.72,.31-.99-.17-.28-.64-.99-.96-1.24-.68-.55-1.28,.14-1.71,.48-.7,.56-.95,1.77-1.29,2.2-1,1.23-.4,.74-1.06,2.24-.49,1.1-.15,1.09-.54,2.02-1.03,2.45,.1,2.82-.1,3.87-.1,.52,.08,4.23,.39,4.62,.28-.37,.18-1.88,.34-2.65,.26-1.27,.19-1.27,.32-2.45,.18-1.71,1.19-2.19,1.48-3.79,.51-2.77,1.03-2.51,2.82-4.28Z"/>
        <path class="cls-3" d="M158.47,68.72c-1.34,.04-1.61,1.9-2.06,2.46-1,1.23-.4,.74-1.06,2.24-.49,1.1-.15,1.09-.54,2.02-1.03,2.45,.1,2.82-.1,3.87-.08,.44,.03,3.13,.25,4.2,.07-.46-.26-1.51,0-2.18,.17-.42,.07-2.45-.06-2.87-.22-.73-.32-.77-.15-1.54,.12-.52,.74-1.57,.72-1.76-.06-.82,.04-.56,.13-1.24,.05-.39,.91-2.13,1.25-2.28,.98-.43,.3-.76,1.04-1.69,.29-.37,.55-.8,.56-1.22Z"/>
        <path class="cls-1" d="M159.31,71.41c-.12-.07-.66,.5-1.44-.15-.26-.21-.69-.12-.69-.12,.3-.01,.41,.25,.72,.39,.27,.12,.21,.32,.64,.41,.21,.05,.74-.21,.74-.47,0-.03,.02-.05,.03-.05Z"/>
        <path class="cls-1" d="M157.32,74.98c0,.19-.38,.36-.61,.3-.21-.05-1.24-.39-1.39-.18-.03,.04,.25,.04,.38,.1,.27,.13,.96,.15,1.16,.35,.28,.28,.46-.65,.46-.56Z"/>
        <path class="cls-1" d="M156.17,77.35c-.3,.27-.39,.62-.94,.78-.26,.08-.83-.81-.9-.62-.11,.29,1.1,1.56,1.45,.66,0,0,.52-.42,.39-.81Z"/>
      </g>
      <g>
        <path class="cls-1" d="M183.57,63.35c-.16-.19,.05-.21,.42,0,2.47,1.35,1.12,1.09,2.11,2.28,.46,.55,.43,.23,1.06,1.14,1.15,1.66,1.62,1.19,2.31,3.61,.26,.89,1.11,4.27,.74,5.05-.29,.61-.66-.09-.78-.45-.44-1.39,.15-.1-.4-1.43-.81-1.95-1.49-2.41-2.45-4-.58-.96-.96-1.17-1.57-2.05-.75-1.09-1.5-.8-2.18-2.77-.25-.72,.15-1.58,.45-1.23,.18-.02,.16-.11,.28-.16Z"/>
        <path class="cls-6" d="M183.64,63.08c-.08,.02-.29-.29-.36-.26-.27,.32-.59-.45-.66-.42-.09,.1-.17,.99-.21,1.13,.04,.33,.46,.96,.55,1.32,.84,1.86,1.37,1.5,2.15,2.62,.61,.88,.98,1.06,1.57,2.03,.95,1.58,1.66,2.07,2.46,4.02,.16,.38,.56,1.96,.82,2.04,.83,.25-.33-4.68-.53-5.15-.81-1.91-.78-1.72-1.91-3.07-.68-.8-.31-.66-1.18-1.4-.68-.57-.65-1.26-1.03-1.67-.08-.09-1.2-.93-1.65-1.17Z"/>
        <path class="cls-3" d="M183.64,63.08c-.07,.02-.2-.5-.26-.48,0,.05,.07,.65,.08,.71,.19,.63,1.34,.39,1.86,1.46,.16,.32,.1,.48,.41,.71,.27,.2,1.19,1.37,1.3,1.67,.04,.12,.84,.67,1.06,1.02,.14,.22,.3,.35,.45,.41-.23-.34-.5-.63-1.05-1.28-.68-.8-.31-.66-1.18-1.4-.68-.57-.65-1.26-1.03-1.67-.08-.09-1.2-.93-1.65-1.17Z"/>
        <path class="cls-1" d="M185.84,65.64c-.83-.23-1.13-.28-1.99-.27,.86-.27,1.14-.22,2.01-.05,.06,.04,.22,.25,.21,.3-.01,.08-.15,.03-.23,0Z"/>
        <path class="cls-1" d="M188.7,68.88c-.93-.11-1.31-.05-2.21-.41-.03-.01-.04,0-.04-.04h0s.01,0,.02,0c.02-.01,.04,0,.06,0,.9,.14,1.21,0,2.08,.05,.04,.05,.21,.25,.23,.3,.04,.07-.07,.11-.15,.1Z"/>
      </g>
      <g>
        <path class="cls-1" d="M184.1,65.95c-.12-.21,.08-.2,.42,.06,2.22,1.73,.92,1.26,1.71,2.6,.36,.62,.39,.3,.86,1.3,.86,1.82,1.4,1.44,1.69,3.94,.11,.92,.4,4.4-.09,5.11-.39,.56-.64-.2-.69-.57-.21-1.44,.16-.07-.16-1.48-.48-2.06-1.08-2.63-1.76-4.35-.41-1.04-.76-1.31-1.22-2.28-.57-1.2-1.35-1.03-1.7-3.08-.13-.76,.41-1.53,.65-1.14,.18,0,.18-.08,.3-.11Z"/>
        <path class="cls-5" d="M184.17,65.79c-.84,.08-1.21,.54-.93,1.53,.55,1.97,1.11,1.7,1.69,2.94,.46,.97,.8,1.21,1.21,2.25,.68,1.71,1.3,2.31,1.77,4.36,.09,.4,.23,2.03,.47,2.15,.77,.38,.44-4.67,.32-5.17-.48-2.02-.48-1.82-1.39-3.34-.54-.9-.2-.7-.94-1.57-.57-.68-.43-1.35-.75-1.82-.07-.1-1.06-1.02-1.47-1.33Z"/>
        <path class="cls-3" d="M184.18,65.76c-.08,0-.13-.05-.2-.04,0,.05,0,.1,0,.16,.08,.66,1.26,.61,1.6,1.75,.1,.34,.02,.49,.29,.77,.23,.24,.95,1.55,1.01,1.86,.02,.13,.72,.8,.88,1.18,.1,.24,.24,.39,.37,.48-.17-.37-.39-.7-.82-1.43-.54-.9-.2-.7-.94-1.57-.57-.68-.43-1.35-.75-1.82-.07-.1-1.05-1.04-1.45-1.35Z"/>
        <path class="cls-1" d="M185.95,68.57c-.78-.37-1.07-.46-1.92-.59,.89-.13,1.16-.03,1.99,.28,.05,.05,.18,.28,.16,.33-.02,.08-.15,0-.23-.03Z"/>
        <path class="cls-1" d="M188.25,72.24c-.9-.26-1.29-.27-2.12-.76-.02-.01-.04,0-.03-.05h0s0,0,.02,0c.02,0,.04,0,.06,0,.86,.28,1.19,.2,2.05,.39,.03,.05,.16,.28,.18,.33,.03,.07-.08,.09-.16,.07Z"/>
      </g>
      <g>
        <path class="cls-1" d="M185.67,71.59h0c-.25,.51-.3,.32-.37,.89-.11,.87-1.07-.76-1.23-.95-.34-.41-1.65-.98-2.02-1.06,.17,.27,.64,.46-.76,.79-.83,.2-2.27-.56-2.34-1.51-.05-.61,.88-.68,.95-2.72,.02-.58-.33-1.01,.02-1.44,.45-.56,.93-.13,1.81-1.31,.75-1.01,1.81,.86,2.16,1.4,.68,1.07,.84,.58,1.41,1.42,.83,1.25,1.08,2.67,.33,3.97,.07,.13,.05,.43,.04,.52h0Z"/>
        <path class="cls-6" d="M185.49,71.58c.01-.9-.17-.12,.27-1,.58-1.16-.09-3.37-1.32-4.12-.5-.31-1.42-2.49-2.38-2.53-.24-.01-.54,.62-1.17,.94-1.14,.57-1.35,.49-1.15,1.59,.12,.63-.09,2.07-.62,2.58-1.05,.99,1.34,2.25,2.14,2.06,.06-.02,.73-.18,.83-.31-1.04-1.26,1.77,.27,1.97,.47,.19,.2,.89,1.21,1.05,1.3,.02-.08,.02-.46,.39-.97h0Z"/>
        <path class="cls-3" d="M185.84,70.41c.4-1.2-.25-3.25-1.41-3.96-.5-.31-1.42-2.49-2.38-2.53-.18,0-.39,.34-.76,.65,.19,.38,.77,.48,.69,.7-.09,.27,.2,.25,.32,.64,.11,.38,.13,.25-.04,.59-.18,.38,.73,.86,.84,1.06,0,0,.45,.4,.55,.57,.22,.36,.54,.62,.7,1.08,.1,.28,.27,.51,.39,.87,.1,.3,.2,.57,.35,.84,.07,.14,.13,.7,.31,.47,.13-.16-.07-.73-.19-.9-.05-.08-.37-1.27-.54-1.6-.14-.26-1.13-1.42-1.37-1.61-.1-.08-.45-.55-.39-.7,.08-.21-.03-.48,.24-.57,.32-.11,.41,.19,.73,.38,.12,.07,.53,.55,.78,.7,.27,.17,1.06,1.49,1.07,1.82,.01,.26,.15,.54,.1,.83-.02,.13-.13,.54,0,.67Z"/>
        <path class="cls-1" d="M181.86,70.53c-.78-.91-.62-.5-1.44-1.45l-.2-.25c.3,.17,.28,.14,.55,.37,.87,.73,.61,.27,1.42,1.09,.06,.08-.1,.09-.16,.16,0,0,.11,.13,.1,.14-.09,.07-.2,.03-.26-.06Z"/>
        <path class="cls-1" d="M183.17,66.8c.08,.38,1.58,1.18,1.94,2.76,.16,.69,.19,.97,.45,1.64,.01,.03,0,.05,0,.08-.35-.35-.54-1.2-.68-1.67-.5-1.66-2.33-2.27-2.09-2.97,.05-.1,.16-.15,.27-.1,.1,.04,.14,.15,.11,.25Z"/>
        <path class="cls-1" d="M180.45,68.24c.17-1.31,.58-1.6,1.88-1.53h0c-1.4,.43-1.23,.23-1.88,1.53Z"/>
        <path class="cls-1" d="M183.37,66.29c.14-.42,.21-.86,.35-.74,.02,.02,.26,.21,.2,.23-.31,.09-.33,.23-.55,.51Z"/>
      </g>
      <g>
        <path class="cls-1" d="M175.76,67.1c1.15-.06,1.04,.87,2.06,1.53,1.15,.74,.34,.69,1.62,1.23,.41,.17,.28,.61,1.07,1.02,1.29,.68,2.37,.67,2.91,1.89,.51,1.15,.33,.77,1.11,1.72,.31,.37,1.8,5.45,1.81,5.8,.03,1.49-1.59-1.76-1.59-1.76-.53-.92-.93-1.53-1.75-2.19-.97-.78,.04-1.47-1.84-2.38-1.38-.67-.72-1.18-1.94-.91-.57,.12-3.1-2.39-3.93-2.89-1.37-.83-.78-2.36,.3-3,.06-.04,.08-.04,.14-.05,0,0,.01,0,.02,0h0s0,0,.01,0Z"/>
        <path class="cls-6" d="M175.58,67.08h0s-.05,.01-.09,.03c-1.18,.67-1.58,2.12-.14,2.89,.66,.36,3.34,3.11,3.81,2.94,1.33-.47,.71,.3,2.04,.95,1.98,.95,.94,1.66,1.82,2.37,.88,.71,.84,.62,1.44,1.5,.13,.19,1.42,2.64,1.7,2.76v-.23c0-.28-1.5-5.36-1.76-5.68-.79-.96-.62-.6-1.14-1.76-.51-1.14-1.58-1.15-2.82-1.8-.81-.43-.75-.89-1.06-1.02-1.34-.57-.55-.49-1.63-1.24-1-.69-1.13-1.78-2.17-1.71Z"/>
        <path class="cls-3" d="M185.54,77.99c-.44-1.49-.93-3.24-1.08-3.42-.79-.96-.61-.62-1.13-1.79-.51-1.14-1.61-1.14-2.85-1.79-.81-.43-.79-.84-1.1-.97-.28-.12-.47-.21-.6-.29,.06,.08,.12,.2,.18,.35,.08,.22,.86,.05,.44,.59-.16,.21-.92,.07-.59,.51,.05,.07,.41-.23,.64-.16,.11,.03,.19-.28,.96,.19,.59,.36,.09,.43,.82,.62,.25,.06,.8,.41,1.01,.59,.37,.3,.45,.45,.67,.86,.23,.44,.06,.36,.47,.77,.25,.26,.95,1.4,.95,1.72,0,.15,.97,1.95,1.15,2.13,.02,.02,.04,.05,.06,.07h0Zm-6.99-8.44c-.16-.18-.13-.33-.8-.76-.45-.29-.69-.62-.9-.9-.01,.44,.79,1.14-.05,1.23,0,0-.74-.16-.22,.22,.34,.25,.66,0,1.27,.22,.22,.08,.46-.08,.69,0Z"/>
        <path class="cls-1" d="M179.63,72.73c.92-.5,.8-.42,1.19-1.4,.12,.79-.34,1.19-.93,1.57-.06,.05-.24,.09-.28,.03-.05-.06-.03-.15,.03-.2Z"/>
        <path class="cls-1" d="M175.52,70.11c1.33,.11,2.01,.25,3.28,.17,.15-.01,.11-.02,.22,.01-1.02,.36-2.22,.18-3.26,.11-.08,.03-.16-.01-.18-.09-.03-.08-.13-.17-.05-.2Z"/>
        <path class="cls-1" d="M178.61,69.63c-1.03-.25-2.04,.25-2.73-.67h0c1.2,.76,1.39,.17,2.69,.42,.08,.03,.23,.16,.2,.23-.03,.08-.08,.05-.16,.02Z"/>
        <path class="cls-1" d="M181.98,74.14c.52,.11,1.05-.38,1.22-.83,.15,.1-.31,1.22-1.28,1.11-.08-.02-.13-.1-.11-.17,.02-.08,.1-.13,.17-.11Z"/>
        <path class="cls-1" d="M183.07,76.26c.77-.08,.22,.49,1.44-.3h0c-.76,1.06-.74,.48-1.15,.57-.08,.02-.18-.01-.2-.09-.02-.08-.17-.17-.09-.18Z"/>
      </g>
      <g>
        <path class="cls-1" d="M171.35,69.58c-.04-1.7-.45-1.59,1.41-1.88h-.01c.78-.13,1.75,1.94,2.14,2.53,.36,.1,.98,1.24,1.12,1.51,.49,.28,.71,1.34,.87,1.84,1.05,.95,.41,3.71,.49,5.2,0,.11,.57,4.55-.31,2.59-.49-1.09-.75-3.1-.78-4.31h0c-.03-.93-.82-.99-1.18-2.61-.37-.21-1.22-1.38-1.33-1.78-1.17-.55-2.2-1.77-2.43-3.07,0-.01,0-.02,0-.03Z"/>
        <path class="cls-6" d="M171.27,69.47c.16,.91,1.09,1.97,1.78,2.57,.45,.39,.88,.47,.83,.67,0-.02,0-.01,0-.02,.03,.22,1.09,1.58,1.29,1.69,.08,.12,.17,.32,.23,.55,.24,.91,.91,1.28,.98,2,.17,1.63,.2,3.13,1,4.68,.05-.43-.06-1.53-.09-1.83h0c-.14-1.39,0-1.86,.05-3.22-.09-.36,.28-2.06-.42-2.76-.51-.52-.38-1.37-.86-1.83-.43-.42-.91-1.48-1.2-1.58,.01,0,.01,0,.02,0-.35,.08-1.4-2.84-2.14-2.7-1.85,.35-1.45,.04-1.49,1.79Z"/>
        <path class="cls-3" d="M177.39,80.72c-.02-.4-.06-.79-.08-.95h0c-.14-1.39,0-1.86,.05-3.22-.09-.36,.28-2.06-.42-2.76-.51-.52-.38-1.37-.86-1.83-.43-.42-.91-1.48-1.2-1.58,.01,0,.01,0,.02,0-.35,.08-1.4-2.84-2.14-2.7-.98,.19-1.33,.19-1.45,.4,.11,.13,.36,.26,.87,.36,.34,.06,.79,.12,1.09,.35,.57,.45,.28,0,.8,.78,.08,.12,.02,.16,.23,.31,.22,.16-.16,.93,.15,.96,.63,.07,1.66,1.76,1.63,2.27,0,.07,.43,.38,.54,.69,.1,.27,.2,.31,.29,.71,.15,.69,.34,.69,.07,1.49-.06,.19,0,2.65,.09,2.9,.11,.28-.02,1.5,.32,1.82Z"/>
        <path class="cls-1" d="M173.77,72.64c-.23-.81,.11-1.79,.97-1.94h0c-.66,.51-.97,1.15-.68,1.98,.03,.07,.01,.25-.06,.29-.07,.03-.2-.26-.23-.33Z"/>
        <path class="cls-1" d="M175.18,74.5c.12-.88,.54-1.6,1.51-1.24-.85,.08-1.15,.17-1.22,1.25,0,.08-.06,.3-.14,.3-.08,0-.16-.23-.15-.31Z"/>
        <path class="cls-1" d="M176.01,76.04c.55,.35,.88-.21,1.4-.64,.01,.06,.05,.24-.08,.35-.29,.26-.77,.79-1.1,.76-.08-.02-.13-.1-.11-.17,.02-.08-.2-.31-.12-.29Z"/>
        <path class="cls-1" d="M174.57,70.17c-.43-.52-1.38-.47-2.21-.96-.21-.13-.27-.14-.48-.18,.13-.1,.41,.02,.54,.07,.92,.41,1.63,.1,2.19,.72,.05,.06,.23,.34,.17,.38-.06,.05-.15,.03-.2-.03Z"/>
      </g>
      <path class="cls-3" d="M182.41,63.48c-.32-.28-.65-.41-.87-.85,0,0-.74-1.19-.75-1.19-.48-.55-1.12-2.68-2.1-3.03-.29-.1,.95,1.23,1,1.43,.03,.11,1.37,2.61,1.59,3.1,0,.02,.8,1.41,.04,.92-.29-.19-2.12-2.47-2.3-2.8-.05-.09-1.51-1.68-1.3-1.14,.13,.34,2.05,2.24,2.47,3.02,.09,.17,.51,1.61,1.2,1.73,.1-.11,.22-.24,.33-.39,.31-.42,.68-.34,1.03-.06,0-.25-.44-.58-.35-.72Z"/>
      <path class="cls-3" d="M164.47,71.52c-.05,.33,.62,.43,.52-.36-.2-1.5-.27-1.31-1.06-2.56-.57-.9-1.26-.74-.24,.69,.2,.28,.84,1.85,.78,2.23Z"/>
      <path class="cls-3" d="M166.33,70.55c-.13-.27-1.13-1.79-.51-1.78,.83,.01,.85,.7,1.41,1.22,.79,.73,1.35,1.51,2.26,2.31,1.37,1.2-.02,1.33-.13,1.28-.12-.05-.8,0-1.42-.47-.53-.41-1.7-1.84-1.67-2.52,0-.07,.02-.09,.05-.03Z"/>
      <path class="cls-3" d="M171.26,66.94c.19-.55,1.2-1.22,1.75-.58,.53,.62,.37,1.3,.59,2.04,.18,.61-.87-1.14-1.06-1.21-.31-.11-.85,.34-1.1,.15-.07-.05-.22-.29-.18-.4Z"/>
      <path class="cls-3" d="M179.07,67.8c-.05,.32,.06-1.21,.08-1.44,.03-.33,.32-.92,.11-1.2-.27,.07-.76,1.94-.53,2.53,.31,.82,.3,.38,.34,.1Z"/>
      <path class="cls-3" d="M155.23,70.22c-.68-.48-1.13-.97-1.89-1.4-1.17-.66-3.43-3.67-3.87-4.93-.24-.69-.54-2.55-.29-3.22,0,0,.51-2.34,.02-1.78-.1,.11-.27,1.16-.38,1.5-.27,.84-.35,3.06-.03,3.9,.15,.39,.49,1.52,.72,1.82,.13,.18,.45,.98,.79,1.22,.27,.19,.69,.8,1.2,1.06,.49,.25,.51,.79,1.4,1.05,.33,.1,.96,.94,1.14,.78,.16-.15,.9,.5,1.29,.58,.05,0,.92,.53,.28-.26-.07-.08-.37-.3-.4-.32Z"/>
      <path class="cls-3" d="M158.54,68.75c.22-.61-.42-.79-.64-1.51-.09-.29-.56-.51-.48,.45,.05,.61,.21,.64,.1,1.16,0,.03-.28,.5,.25,.24,0,0,.21-.22,.44-.32,.27-.12,.07-.05,.33-.02Z"/>
      <path class="cls-3" d="M155.68,66.78c.95-.03-.26-1.3-.49-.59-.03,.09,.05,.61,.49,.59Z"/>
      <path class="cls-3" d="M156.77,64.67c-.61-.08,.14,1.36,.62,.55,.23-.39-.61-.54-.62-.55Z"/>
      <path class="cls-3" d="M151.62,65.18c-.6,.82,1.16,.95,.42,.01-.08-.1-.37-.09-.42-.01Z"/>
      <path class="cls-4" d="M151.82,62.33c-.41,.26,.38,.55,.31,.04-.02-.12-.26-.07-.31-.04Z"/>
      <path class="cls-4" d="M160.44,60.68c-.31,.86,.86,.55,.33-.17-.14-.19-.3,.09-.33,.17Z"/>
      <path class="cls-3" d="M174.91,62.05c-.64,.27,.43,1.27,.42,.27,0-.26-.25-.35-.42-.27Z"/>
      <path class="cls-1" d="M170.39,74.34c0,.74-.04,.91,.08,1.92,.09,.78-.25,1.94,.1,2.37,.64,.76,1-3.96,.99-4.11,0-.09,0-.17,0-.24-.38,.03-.77,.05-1.17,.07Z"/>
      <path class="cls-4" d="M171.59,60.4c-.31,.86,.86,.55,.33-.17-.14-.19-.3,.09-.33,.17Z"/>
      <path class="cls-3" d="M161.96,64.08c-.61-.08,.14,1.36,.62,.55,.23-.39-.61-.54-.62-.55Z"/>
      <path class="cls-4" d="M157.11,55.73c-.41,.26,.38,.55,.31,.04-.02-.12-.26-.07-.31-.04Z"/>
      <path class="cls-4" d="M161.49,54.27c-.41,.26,.38,.55,.31,.04-.02-.12-.26-.07-.31-.04Z"/>
    </g>
    <path class="cls-7" d="M170.85,61.4c-1.78-2.64-2.34-3.62-3.56-6.6-.84-2.05-1.73-2.79-2.7-4.6-.47-.87-.27-.7-.86-1.4-.34-.4-.21-.21-.43-.63,.28,.4,.11,.19,.47,.59,.68,.75,1.08,1.73,1.71,2.65,1.25,1.81,1.37,1.85,2.25,3.93,1.11,2.63,1.77,3.61,3.34,5.9,.05,.07,.03,.16-.04,.2s-.16,.03-.2-.04Z"/>
    <path class="cls-7" d="M159.38,65.82c-2.48-.1-2.96-5.72-5.14-7.15l-1.03-.55h0s1.08,.47,1.08,.47c2.18,1.26,2.91,6.89,5.08,6.95,.08,0,.15,.06,.15,.14,0,.08-.06,.15-.14,.15Z"/>
    <path class="cls-7" d="M161.4,54.89c-2.78-2.78-.98-3.95-2.78-6.87l-.39-.59h0c2.65,3.13,.44,4.42,3.36,7.24,.06,.05,.06,.15,.01,.2-.05,.06-.15,.06-.2,.01Z"/>
    <path class="cls-7" d="M174.75,54.48c.21-1.76,.73-1.6,.16-3.36-.55-1.69-.6-1.7-.7-3.58-.02-.34-.14-2.12,.25-2.42-.29,.47-.14,1.95-.1,2.41,.16,1.88,.19,1.83,.77,3.52,.63,1.83,.09,1.68-.09,3.45,0,.08-.07,.14-.15,.14-.08,0-.14-.07-.14-.15Z"/>
    <path class="cls-7" d="M166.18,62.46c-1.5,.21-2.7-3.02-3.22-4.11,.68,.91,1.93,4.03,3.15,3.83,.08-.02,.16,.03,.17,.11,.02,.08-.03,.16-.11,.17Z"/>
    <path class="cls-7" d="M154.18,54.03c-2.42-1.45-2.27-3.02-3.44-5.21-.35-.67-.14-.25-.38-.71,1.66,2.02,1.23,4.1,3.94,5.65,.07,.03,.1,.12,.07,.19-.03,.07-.12,.1-.19,.07Z"/>
  </g>
  <g>
    <g>
      <path class="cls-1" d="M137.13,18.51c-.03,1.07-.32,.96-.46,1.58-.15,.67-1.12,3.75-1.6,4.3-.21,.24-3.02,2.64-3.49,2.71-.75,.11-2,.63-2.59,1.11-2.39,1.96-13.62,1-16.52,.08-3.03-.97-5.77-2.06-8.13-4.27-2.21-2.07-3.44-5.83-2.92-8.84,.84-4.92,4.5-8.41,9.29-9.44,3.73-.8,9.01-.28,12.75,.45,4.95,.97,11.97,6.55,13.47,11.44l.21,.88Z"/>
      <path class="cls-3" d="M136.96,18.54l-.2-.85c-1.48-4.8-8.47-10.36-13.34-11.32-3.71-.73-8.98-1.24-12.68-.45-4.72,1.01-8.33,4.45-9.16,9.3-.5,2.95,.7,6.65,2.87,8.67,2.35,2.2,5.07,3.28,8.08,4.24,2.83,.9,14.02,1.87,16.35-.05,.59-.48,1.9-1.02,2.64-1.14,.48-.08,3.22-2.42,3.42-2.65,.48-.54,1.38-3.51,1.56-4.22,.17-.66,.43-.57,.45-1.52Z"/>
      <path class="cls-2" d="M136.96,18.54l-.2-.85c-.39-1.28-1.18-2.62-2.21-3.9,.08,.44,.26,.94,.34,1.12,.29,.66,.49,1.63,.35,2.34-.13,.67-.2,.59-.61,.48-.81-.2-2.05-2.69-2.47-3.31-1.19-1.74-1.4-.9-1.02-.62,.01,.09,.5,.64,.55,.78,.39,.93,.48,.95,.99,1.76,.03,.04,.71,1.04,.71,1.04,.79,.89,.09,.9-.45,.28-1.13-.77-2.11-2.85-2.77-3.08-1.81-.62,.35,1.81,.42,1.95,.27,.54,2.25,1.93,1.04,2.41-1.29,.51-.98-1.4-1.38-1.17-.5,.29-1.08,0-.99,.73,.38,2.81-.31,1.12-.93,.83-.62-.29-.83-1.1-1.28-1.62-1.28-1.5-4.93,1.44-4.11,5.23,.29,1.33-.66,.66-.71-.44-.03-.62-1.18-3.47-1.89-2.16-.96,1.78-.81,1.9,.03,3.53,.86,1.67,2.04,2.38,2.72,3.53,.45,.76,.11,.65-.05,.69-.82,.22-2.74-2.03-3.11-2.74-.38-.72-2.74-2.56-2.81-2.26,0,.02,1.03,3.31,.64,3.74-.63,.69-1.99-2.81-3.1-2.8-.45,0-1.87-2.01-2.18-2.1-1.16-.33-1.25,1.01-1.35,1.14-.8,.96-1.3-1.2-1.54-1.49-1.13-1.34-.54,.75-1.92-.84-.52-.6-.6-1.19-1.24-.64-1.21-.3-2.02-2.99-2.17-4.01-.34-2.29,1.61-4.06,1.78-5.64,.2-1.89-.59-.45-.87-.3-1.11,.6-2.5,2.47-3.29,3.76-.12,.42-.22,.85-.29,1.29-.5,2.95,.7,6.65,2.87,8.67,2.35,2.2,5.07,3.28,8.08,4.24,2.83,.9,14.02,1.87,16.35-.05,.59-.48,1.9-1.02,2.64-1.14,.48-.08,3.22-2.42,3.42-2.65,.48-.54,1.38-3.51,1.56-4.22,.17-.66,.43-.57,.45-1.52Z"/>
      <g>
        <path class="cls-1" d="M113.96,27.81c-1.48,1.64-1.9,1.36-2.2,3.78-.19,1.5-1.1,2.05-1.16,3.52-.05,1.06,.02,1.13-.15,2.27-.11,.78,.19,1.95-.17,2.36-.66,.75-.88-3.99-.87-4.14,.11-.96-.91-1.19-.07-3.55,.29-.81,0-.81,.39-1.85,.51-1.36-.01-.9,.85-2.11,.51-.71,.47-2.59,2.51-2.2,1.04,.2,1.49,.97,.89,1.88,0,0,0,0,0,.01,0,0,0,.01-.01,.02Z"/>
        <path class="cls-6" d="M113.95,27.6c.2-.3,.3-.64,.23-.91-.08-.3-.45-.76-.85-.91-.74-.28-1.24,.02-1.6,.35-.61,.54-.77,1.65-1.05,2.05-.84,1.17-.32,.69-.85,2.08-.38,1.02-.08,.99-.38,1.85-.81,2.27,.23,2.54,.11,3.5-.06,.48,.28,3.82,.58,4.15,.23-.35,.07-1.71,.17-2.41,.17-1.16,.11-1.16,.16-2.23,.07-1.55,.96-2.04,1.15-3.5,.32-2.53,.8-2.32,2.33-4.01Z"/>
        <path class="cls-1" d="M113.32,28.24c-.11-.06-.57,.48-1.31-.06-.24-.18-.63-.08-.63-.08,.27-.03,.38,.21,.67,.31,.25,.09,.21,.28,.6,.34,.19,.03,.66-.23,.65-.46,0-.03,.02-.05,.02-.05Z"/>
        <path class="cls-1" d="M111.7,31.57c0,.17-.32,.34-.54,.3-.19-.04-1.14-.29-1.26-.09-.03,.04,.23,.02,.35,.07,.25,.11,.87,.08,1.06,.25,.27,.24,.38-.61,.39-.53Z"/>
        <path class="cls-1" d="M110.78,33.76c-.25,.26-.33,.58-.81,.75-.23,.08-.79-.69-.85-.52-.09,.26,1.07,1.35,1.34,.52,0,0,.45-.41,.31-.75Z"/>
      </g>
      <g>
        <path class="cls-1" d="M113.35,25.86c-1.74,1.71-2.18,1.38-2.66,4.04-.3,1.64-1.34,2.19-1.5,3.82-.12,1.17-.05,1.24-.3,2.5-.17,.85,.09,2.16-.33,2.6-.77,.78-.73-4.46-.7-4.62,.18-1.06-.93-1.37,.14-3.92,.37-.87,.04-.9,.54-2.02,.65-1.47,.04-1,1.07-2.27,.61-.75,.68-2.83,2.9-2.27,1.14,.29,1.59,1.16,.87,2.13,0,0,0,0-.01,.01,0,0-.01,.01-.02,.02Z"/>
        <path class="cls-6" d="M113.35,25.62c.24-.31,.47-.72,.31-.99-.17-.28-.64-.99-.96-1.24-.68-.55-1.28,.14-1.71,.48-.7,.56-.95,1.77-1.29,2.2-1,1.23-.4,.74-1.06,2.24-.49,1.1-.15,1.09-.54,2.02-1.03,2.45,.1,2.82-.1,3.87-.1,.52,.08,4.23,.39,4.62,.28-.37,.18-1.88,.34-2.65,.26-1.27,.19-1.27,.32-2.45,.18-1.71,1.19-2.19,1.48-3.79,.51-2.77,1.03-2.51,2.82-4.28Z"/>
        <path class="cls-3" d="M111.77,23.6c-1.34,.04-1.61,1.9-2.06,2.46-1,1.23-.4,.74-1.06,2.24-.49,1.1-.15,1.09-.54,2.02-1.03,2.45,.1,2.82-.1,3.87-.08,.44,.03,3.13,.25,4.2,.07-.46-.26-1.51,0-2.18,.17-.42,.07-2.45-.06-2.87-.22-.73-.32-.77-.15-1.54,.12-.52,.74-1.57,.72-1.76-.06-.82,.04-.56,.13-1.24,.05-.39,.91-2.13,1.25-2.28,.98-.43,.3-.76,1.04-1.69,.29-.37,.55-.8,.56-1.22Z"/>
        <path class="cls-1" d="M112.61,26.29c-.12-.07-.66,.5-1.44-.15-.26-.21-.69-.12-.69-.12,.3-.01,.41,.25,.72,.39,.27,.12,.21,.32,.64,.41,.21,.05,.74-.21,.74-.47,0-.03,.02-.05,.03-.05Z"/>
        <path class="cls-1" d="M110.62,29.86c0,.19-.38,.36-.61,.3-.21-.05-1.24-.39-1.39-.18-.03,.04,.25,.04,.38,.1,.27,.13,.96,.15,1.16,.35,.28,.28,.46-.65,.46-.56Z"/>
        <path class="cls-1" d="M109.47,32.22c-.3,.27-.39,.62-.94,.78-.26,.08-.83-.81-.9-.62-.11,.29,1.1,1.56,1.45,.66,0,0,.52-.42,.39-.81Z"/>
      </g>
      <g>
        <path class="cls-1" d="M136.88,18.23c-.16-.19,.05-.21,.42,0,2.47,1.35,1.12,1.09,2.11,2.28,.46,.55,.43,.23,1.06,1.14,1.15,1.66,1.62,1.19,2.31,3.61,.26,.89,1.11,4.27,.74,5.05-.29,.61-.66-.09-.78-.45-.44-1.39,.15-.1-.4-1.43-.81-1.95-1.49-2.41-2.45-4-.58-.96-.96-1.17-1.57-2.05-.75-1.09-1.5-.8-2.18-2.77-.25-.72,.15-1.58,.45-1.23,.18-.02,.16-.11,.28-.16Z"/>
        <path class="cls-6" d="M136.94,17.95c-.08,.02-.29-.29-.36-.26-.27,.32-.59-.45-.66-.42-.09,.1-.17,.99-.21,1.13,.04,.33,.46,.96,.55,1.32,.84,1.86,1.37,1.5,2.15,2.62,.61,.88,.98,1.06,1.57,2.03,.95,1.58,1.66,2.07,2.46,4.02,.16,.38,.56,1.96,.82,2.04,.83,.25-.33-4.68-.53-5.15-.81-1.91-.78-1.72-1.91-3.07-.68-.8-.31-.66-1.18-1.4-.68-.57-.65-1.26-1.03-1.67-.08-.09-1.2-.93-1.65-1.17Z"/>
        <path class="cls-3" d="M136.94,17.95c-.07,.02-.2-.5-.26-.48,0,.05,.07,.65,.08,.71,.19,.63,1.34,.39,1.86,1.46,.16,.32,.1,.48,.41,.71,.27,.2,1.19,1.37,1.3,1.67,.04,.12,.84,.67,1.06,1.02,.14,.22,.3,.35,.45,.41-.23-.34-.5-.63-1.05-1.28-.68-.8-.31-.66-1.18-1.4-.68-.57-.65-1.26-1.03-1.67-.08-.09-1.2-.93-1.65-1.17Z"/>
        <path class="cls-1" d="M139.14,20.51c-.83-.23-1.13-.28-1.99-.27,.86-.27,1.14-.22,2.01-.05,.06,.04,.22,.25,.21,.3-.01,.08-.15,.03-.23,0Z"/>
        <path class="cls-1" d="M142,23.75c-.93-.11-1.31-.05-2.21-.41-.03-.01-.04,0-.04-.04h0s.01,0,.02,0c.02-.01,.04,0,.06,0,.9,.14,1.21,0,2.08,.05,.04,.05,.21,.25,.23,.3,.04,.07-.07,.11-.15,.1Z"/>
      </g>
      <g>
        <path class="cls-1" d="M137.4,20.82c-.12-.21,.08-.2,.42,.06,2.22,1.73,.92,1.26,1.71,2.6,.36,.62,.39,.3,.86,1.3,.86,1.82,1.4,1.44,1.69,3.94,.11,.92,.4,4.4-.09,5.11-.39,.56-.64-.2-.69-.57-.21-1.44,.16-.07-.16-1.48-.48-2.06-1.08-2.63-1.76-4.35-.41-1.04-.76-1.31-1.22-2.28-.57-1.2-1.35-1.03-1.7-3.08-.13-.76,.41-1.53,.65-1.14,.18,0,.18-.08,.3-.11Z"/>
        <path class="cls-5" d="M137.47,20.66c-.84,.08-1.21,.54-.93,1.53,.55,1.97,1.11,1.7,1.69,2.94,.46,.97,.8,1.21,1.21,2.25,.68,1.71,1.3,2.31,1.77,4.36,.09,.4,.23,2.03,.47,2.15,.77,.38,.44-4.67,.32-5.17-.48-2.02-.48-1.82-1.39-3.34-.54-.9-.2-.7-.94-1.57-.57-.68-.43-1.35-.75-1.82-.07-.1-1.06-1.02-1.47-1.33Z"/>
        <path class="cls-3" d="M137.48,20.64c-.08,0-.13-.05-.2-.04,0,.05,0,.1,0,.16,.08,.66,1.26,.61,1.6,1.75,.1,.34,.02,.49,.29,.77,.23,.24,.95,1.55,1.01,1.86,.02,.13,.72,.8,.88,1.18,.1,.24,.24,.39,.37,.48-.17-.37-.39-.7-.82-1.43-.54-.9-.2-.7-.94-1.57-.57-.68-.43-1.35-.75-1.82-.07-.1-1.05-1.04-1.45-1.35Z"/>
        <path class="cls-1" d="M139.26,23.45c-.78-.37-1.07-.46-1.92-.59,.89-.13,1.16-.03,1.99,.28,.05,.05,.18,.28,.16,.33-.02,.08-.15,0-.23-.03Z"/>
        <path class="cls-1" d="M141.55,27.11c-.9-.26-1.29-.27-2.12-.76-.02-.01-.04,0-.03-.05h0s0,0,.02,0c.02,0,.04,0,.06,0,.86,.28,1.19,.2,2.05,.39,.03,.05,.16,.28,.18,.33,.03,.07-.08,.09-.16,.07Z"/>
      </g>
      <g>
        <path class="cls-1" d="M138.97,26.46h0c-.25,.51-.3,.32-.37,.89-.11,.87-1.07-.76-1.23-.95-.34-.41-1.65-.98-2.02-1.06,.17,.27,.64,.46-.76,.79-.83,.2-2.27-.56-2.34-1.51-.05-.61,.88-.68,.95-2.72,.02-.58-.33-1.01,.02-1.44,.45-.56,.93-.13,1.81-1.31,.75-1.01,1.81,.86,2.16,1.4,.68,1.07,.84,.58,1.41,1.42,.83,1.25,1.08,2.67,.33,3.97,.07,.13,.05,.43,.04,.52h0Z"/>
        <path class="cls-6" d="M138.79,26.45c.01-.9-.17-.12,.27-1,.58-1.16-.09-3.37-1.32-4.12-.5-.31-1.42-2.49-2.38-2.53-.24-.01-.54,.62-1.17,.94-1.14,.57-1.35,.49-1.15,1.59,.12,.63-.09,2.07-.62,2.58-1.05,.99,1.34,2.25,2.14,2.06,.06-.02,.73-.18,.83-.31-1.04-1.26,1.77,.27,1.97,.47,.19,.2,.89,1.21,1.05,1.3,.02-.08,.02-.46,.39-.97h0Z"/>
        <path class="cls-3" d="M139.14,25.29c.4-1.2-.25-3.25-1.41-3.96-.5-.31-1.42-2.49-2.38-2.53-.18,0-.39,.34-.76,.65,.19,.38,.77,.48,.69,.7-.09,.27,.2,.25,.32,.64,.11,.38,.13,.25-.04,.59-.18,.38,.73,.86,.84,1.06,0,0,.45,.4,.55,.57,.22,.36,.54,.62,.7,1.08,.1,.28,.27,.51,.39,.87,.1,.3,.2,.57,.35,.84,.07,.14,.13,.7,.31,.47,.13-.16-.07-.73-.19-.9-.05-.08-.37-1.27-.54-1.6-.14-.26-1.13-1.42-1.37-1.61-.1-.08-.45-.55-.39-.7,.08-.21-.03-.48,.24-.57,.32-.11,.41,.19,.73,.38,.12,.07,.53,.55,.78,.7,.27,.17,1.06,1.49,1.07,1.82,.01,.26,.15,.54,.1,.83-.02,.13-.13,.54,0,.67Z"/>
        <path class="cls-1" d="M135.16,25.41c-.78-.91-.62-.5-1.44-1.45l-.2-.25c.3,.17,.28,.14,.55,.37,.87,.73,.61,.27,1.42,1.09,.06,.08-.1,.09-.16,.16,0,0,.11,.13,.1,.14-.09,.07-.2,.03-.26-.06Z"/>
        <path class="cls-1" d="M136.47,21.68c.08,.38,1.58,1.18,1.94,2.76,.16,.69,.19,.97,.45,1.64,.01,.03,0,.05,0,.08-.35-.35-.54-1.2-.68-1.67-.5-1.66-2.33-2.27-2.09-2.97,.05-.1,.16-.15,.27-.1,.1,.04,.14,.15,.11,.25Z"/>
        <path class="cls-1" d="M133.75,23.11c.17-1.31,.58-1.6,1.88-1.53h0c-1.4,.43-1.23,.23-1.88,1.53Z"/>
        <path class="cls-1" d="M136.67,21.17c.14-.42,.21-.86,.35-.74,.02,.02,.26,.21,.2,.23-.31,.09-.33,.23-.55,.51Z"/>
      </g>
      <g>
        <path class="cls-1" d="M129.06,21.97c1.15-.06,1.04,.87,2.06,1.53,1.15,.74,.34,.69,1.62,1.23,.41,.17,.28,.61,1.07,1.02,1.29,.68,2.37,.67,2.91,1.89,.51,1.15,.33,.77,1.11,1.72,.31,.37,1.8,5.45,1.81,5.8,.03,1.49-1.59-1.76-1.59-1.76-.53-.92-.93-1.53-1.75-2.19-.97-.78,.04-1.47-1.84-2.38-1.38-.67-.72-1.18-1.94-.91-.57,.12-3.1-2.39-3.93-2.89-1.37-.83-.78-2.36,.3-3,.06-.04,.08-.04,.14-.05,0,0,.01,0,.02,0h0s0,0,.01,0Z"/>
        <path class="cls-6" d="M128.88,21.95h0s-.05,.01-.09,.03c-1.18,.67-1.58,2.12-.14,2.89,.66,.36,3.34,3.11,3.81,2.94,1.33-.47,.71,.3,2.04,.95,1.98,.95,.94,1.66,1.82,2.37,.88,.71,.84,.62,1.44,1.5,.13,.19,1.42,2.64,1.7,2.76v-.23c0-.28-1.5-5.36-1.76-5.68-.79-.96-.62-.6-1.14-1.76-.51-1.14-1.58-1.15-2.82-1.8-.81-.43-.75-.89-1.06-1.02-1.34-.57-.55-.49-1.63-1.24-1-.69-1.13-1.78-2.17-1.71Z"/>
        <path class="cls-3" d="M138.84,32.86c-.44-1.49-.93-3.24-1.08-3.42-.79-.96-.61-.62-1.13-1.79-.51-1.14-1.61-1.14-2.85-1.79-.81-.43-.79-.84-1.1-.97-.28-.12-.47-.21-.6-.29,.06,.08,.12,.2,.18,.35,.08,.22,.86,.05,.44,.59-.16,.21-.92,.07-.59,.51,.05,.07,.41-.23,.64-.16,.11,.03,.19-.28,.96,.19,.59,.36,.09,.43,.82,.62,.25,.06,.8,.41,1.01,.59,.37,.3,.45,.45,.67,.86,.23,.44,.06,.36,.47,.77,.25,.26,.95,1.4,.95,1.72,0,.15,.97,1.95,1.15,2.13,.02,.02,.04,.05,.06,.07h0Zm-6.99-8.44c-.16-.18-.13-.33-.8-.76-.45-.29-.69-.62-.9-.9-.01,.44,.79,1.14-.05,1.23,0,0-.74-.16-.22,.22,.34,.25,.66,0,1.27,.22,.22,.08,.46-.08,.69,0Z"/>
        <path class="cls-1" d="M132.93,27.61c.92-.5,.8-.42,1.19-1.4,.12,.79-.34,1.19-.93,1.57-.06,.05-.24,.09-.28,.03-.05-.06-.03-.15,.03-.2Z"/>
        <path class="cls-1" d="M128.82,24.98c1.33,.11,2.01,.25,3.28,.17,.15-.01,.11-.02,.22,.01-1.02,.36-2.22,.18-3.26,.11-.08,.03-.16-.01-.18-.09-.03-.08-.13-.17-.05-.2Z"/>
        <path class="cls-1" d="M131.91,24.5c-1.03-.25-2.04,.25-2.73-.67h0c1.2,.76,1.39,.17,2.69,.42,.08,.03,.23,.16,.2,.23-.03,.08-.08,.05-.16,.02Z"/>
        <path class="cls-1" d="M135.28,29.02c.52,.11,1.05-.38,1.22-.83,.15,.1-.31,1.22-1.28,1.11-.08-.02-.13-.1-.11-.17,.02-.08,.1-.13,.17-.11Z"/>
        <path class="cls-1" d="M136.37,31.14c.77-.08,.22,.49,1.44-.3h0c-.76,1.06-.74,.48-1.15,.57-.08,.02-.18-.01-.2-.09-.02-.08-.17-.17-.09-.18Z"/>
      </g>
      <g>
        <path class="cls-1" d="M124.65,24.46c-.04-1.7-.45-1.59,1.41-1.88h-.01c.78-.13,1.75,1.94,2.14,2.53,.36,.1,.98,1.24,1.12,1.51,.49,.28,.71,1.34,.87,1.84,1.05,.95,.41,3.71,.49,5.2,0,.11,.57,4.55-.31,2.59-.49-1.09-.75-3.1-.78-4.31h0c-.03-.93-.82-.99-1.18-2.61-.37-.21-1.22-1.38-1.33-1.78-1.17-.55-2.2-1.77-2.43-3.07,0-.01,0-.02,0-.03Z"/>
        <path class="cls-6" d="M124.57,24.35c.16,.91,1.09,1.97,1.78,2.57,.45,.39,.88,.47,.83,.67,0-.02,0-.01,0-.02,.03,.22,1.09,1.58,1.29,1.69,.08,.12,.17,.32,.23,.55,.24,.91,.91,1.28,.98,2,.17,1.63,.2,3.13,1,4.68,.05-.43-.06-1.53-.09-1.83h0c-.14-1.39,0-1.86,.05-3.22-.09-.36,.28-2.06-.42-2.76-.51-.52-.38-1.37-.86-1.83-.43-.42-.91-1.48-1.2-1.58,.01,0,.01,0,.02,0-.35,.08-1.4-2.84-2.14-2.7-1.85,.35-1.45,.04-1.49,1.79Z"/>
        <path class="cls-3" d="M130.69,35.6c-.02-.4-.06-.79-.08-.95h0c-.14-1.39,0-1.86,.05-3.22-.09-.36,.28-2.06-.42-2.76-.51-.52-.38-1.37-.86-1.83-.43-.42-.91-1.48-1.2-1.58,.01,0,.01,0,.02,0-.35,.08-1.4-2.84-2.14-2.7-.98,.19-1.33,.19-1.45,.4,.11,.13,.36,.26,.87,.36,.34,.06,.79,.12,1.09,.35,.57,.45,.28,0,.8,.78,.08,.12,.02,.16,.23,.31,.22,.16-.16,.93,.15,.96,.63,.07,1.66,1.76,1.63,2.27,0,.07,.43,.38,.54,.69,.1,.27,.2,.31,.29,.71,.15,.69,.34,.69,.07,1.49-.06,.19,0,2.65,.09,2.9,.11,.28-.02,1.5,.32,1.82Z"/>
        <path class="cls-1" d="M127.08,27.52c-.23-.81,.11-1.79,.97-1.94h0c-.66,.51-.97,1.15-.68,1.98,.03,.07,.01,.25-.06,.29-.07,.03-.2-.26-.23-.33Z"/>
        <path class="cls-1" d="M128.48,29.38c.12-.88,.54-1.6,1.51-1.24-.85,.08-1.15,.17-1.22,1.25,0,.08-.06,.3-.14,.3-.08,0-.16-.23-.15-.31Z"/>
        <path class="cls-1" d="M129.31,30.92c.55,.35,.88-.21,1.4-.64,.01,.06,.05,.24-.08,.35-.29,.26-.77,.79-1.1,.76-.08-.02-.13-.1-.11-.17,.02-.08-.2-.31-.12-.29Z"/>
        <path class="cls-1" d="M127.87,25.04c-.43-.52-1.38-.47-2.21-.96-.21-.13-.27-.14-.48-.18,.13-.1,.41,.02,.54,.07,.92,.41,1.63,.1,2.19,.72,.05,.06,.23,.34,.17,.38-.06,.05-.15,.03-.2-.03Z"/>
      </g>
      <path class="cls-3" d="M135.71,18.36c-.32-.28-.65-.41-.87-.85,0,0-.74-1.19-.75-1.19-.48-.55-1.12-2.68-2.1-3.03-.29-.1,.95,1.23,1,1.43,.03,.11,1.37,2.61,1.59,3.1,0,.02,.8,1.41,.04,.92-.29-.19-2.12-2.47-2.3-2.8-.05-.09-1.51-1.68-1.3-1.14,.13,.34,2.05,2.24,2.47,3.02,.09,.17,.51,1.61,1.2,1.73,.1-.11,.22-.24,.33-.39,.31-.42,.68-.34,1.03-.06,0-.25-.44-.58-.35-.72Z"/>
      <path class="cls-3" d="M117.77,26.4c-.05,.33,.62,.43,.52-.36-.2-1.5-.27-1.31-1.06-2.56-.57-.9-1.26-.74-.24,.69,.2,.28,.84,1.85,.78,2.23Z"/>
      <path class="cls-3" d="M119.63,25.43c-.13-.27-1.13-1.79-.51-1.78,.83,.01,.85,.7,1.41,1.22,.79,.73,1.35,1.51,2.26,2.31,1.37,1.2-.02,1.33-.13,1.28-.12-.05-.8,0-1.42-.47-.53-.41-1.7-1.84-1.67-2.52,0-.07,.02-.09,.05-.03Z"/>
      <path class="cls-3" d="M124.56,21.81c.19-.55,1.2-1.22,1.75-.58,.53,.62,.37,1.3,.59,2.04,.18,.61-.87-1.14-1.06-1.21-.31-.11-.85,.34-1.1,.15-.07-.05-.22-.29-.18-.4Z"/>
      <path class="cls-3" d="M132.37,22.68c-.05,.32,.06-1.21,.08-1.44,.03-.33,.32-.92,.11-1.2-.27,.07-.76,1.94-.53,2.53,.31,.82,.3,.38,.34,.1Z"/>
      <path class="cls-3" d="M108.53,25.1c-.68-.48-1.13-.97-1.89-1.4-1.17-.66-3.43-3.67-3.87-4.93-.24-.69-.54-2.55-.29-3.22,0,0,.51-2.34,.02-1.78-.1,.11-.27,1.16-.38,1.5-.27,.84-.35,3.06-.03,3.9,.15,.39,.49,1.52,.72,1.82,.13,.18,.45,.98,.79,1.22,.27,.19,.69,.8,1.2,1.06,.49,.25,.51,.79,1.4,1.05,.33,.1,.96,.94,1.14,.78,.16-.15,.9,.5,1.29,.58,.05,0,.92,.53,.28-.26-.07-.08-.37-.3-.4-.32Z"/>
      <path class="cls-3" d="M111.84,23.62c.22-.61-.42-.79-.64-1.51-.09-.29-.56-.51-.48,.45,.05,.61,.21,.64,.1,1.16,0,.03-.28,.5,.25,.24,0,0,.21-.22,.44-.32,.27-.12,.07-.05,.33-.02Z"/>
      <path class="cls-3" d="M108.98,21.66c.95-.03-.26-1.3-.49-.59-.03,.09,.05,.61,.49,.59Z"/>
      <path class="cls-3" d="M110.07,19.55c-.61-.08,.14,1.36,.62,.55,.23-.39-.61-.54-.62-.55Z"/>
      <path class="cls-3" d="M104.92,20.05c-.6,.82,1.16,.95,.42,.01-.08-.1-.37-.09-.42-.01Z"/>
      <path class="cls-4" d="M105.12,17.2c-.41,.26,.38,.55,.31,.04-.02-.12-.26-.07-.31-.04Z"/>
      <path class="cls-4" d="M113.74,15.55c-.31,.86,.86,.55,.33-.17-.14-.19-.3,.09-.33,.17Z"/>
      <path class="cls-3" d="M128.21,16.93c-.64,.27,.43,1.27,.42,.27,0-.26-.25-.35-.42-.27Z"/>
      <path class="cls-1" d="M123.69,29.22c0,.74-.04,.91,.08,1.92,.09,.78-.25,1.94,.1,2.37,.64,.76,1-3.96,.99-4.11,0-.09,0-.17,0-.24-.38,.03-.77,.05-1.17,.07Z"/>
      <path class="cls-4" d="M124.89,15.27c-.31,.86,.86,.55,.33-.17-.14-.19-.3,.09-.33,.17Z"/>
      <path class="cls-3" d="M115.26,18.96c-.61-.08,.14,1.36,.62,.55,.23-.39-.61-.54-.62-.55Z"/>
      <path class="cls-4" d="M110.41,10.6c-.41,.26,.38,.55,.31,.04-.02-.12-.26-.07-.31-.04Z"/>
      <path class="cls-4" d="M114.79,9.14c-.41,.26,.38,.55,.31,.04-.02-.12-.26-.07-.31-.04Z"/>
    </g>
    <path class="cls-7" d="M124.15,16.28c-1.78-2.64-2.34-3.62-3.56-6.6-.84-2.05-1.73-2.79-2.7-4.6-.47-.87-.27-.7-.86-1.4-.34-.4-.21-.21-.43-.63,.28,.4,.11,.19,.47,.59,.68,.75,1.08,1.73,1.71,2.65,1.25,1.81,1.37,1.85,2.25,3.93,1.11,2.63,1.77,3.61,3.34,5.9,.05,.07,.03,.16-.04,.2s-.16,.03-.2-.04Z"/>
    <path class="cls-7" d="M112.68,20.7c-2.48-.1-2.96-5.72-5.14-7.15l-1.03-.55h0s1.08,.47,1.08,.47c2.18,1.26,2.91,6.89,5.08,6.95,.08,0,.15,.06,.15,.14,0,.08-.06,.15-.14,.15Z"/>
    <path class="cls-7" d="M114.7,9.76c-2.78-2.78-.98-3.95-2.78-6.87l-.39-.59h0c2.65,3.13,.44,4.42,3.36,7.24,.06,.05,.06,.15,.01,.2-.05,.06-.15,.06-.2,.01Z"/>
    <path class="cls-7" d="M128.05,9.36c.21-1.76,.73-1.6,.16-3.36-.55-1.69-.6-1.7-.7-3.58-.02-.34-.14-2.12,.25-2.42-.29,.47-.14,1.95-.1,2.41,.16,1.88,.19,1.83,.77,3.52,.63,1.83,.09,1.68-.09,3.45,0,.08-.07,.14-.15,.14-.08,0-.14-.07-.14-.15Z"/>
    <path class="cls-7" d="M119.48,17.34c-1.5,.21-2.7-3.02-3.22-4.11,.68,.91,1.93,4.03,3.15,3.83,.08-.02,.16,.03,.17,.11,.02,.08-.03,.16-.11,.17Z"/>
    <path class="cls-7" d="M107.48,8.9c-2.42-1.45-2.27-3.02-3.44-5.21-.35-.67-.14-.25-.38-.71,1.66,2.02,1.23,4.1,3.94,5.65,.07,.03,.1,.12,.07,.19-.03,.07-.12,.1-.19,.07Z"/>
  </g>
  <g>
    <g>
      <path class="cls-1" d="M242.43,66.75c.06,1.07,.35,.95,.51,1.57,.17,.66,1.24,3.71,1.74,4.24,.22,.23,3.11,2.54,3.58,2.59,.75,.09,2.02,.56,2.63,1.02,2.46,1.88,13.65,.55,16.51-.46,2.99-1.06,5.7-2.25,7.99-4.53,2.14-2.14,3.24-5.94,2.63-8.93-1-4.89-4.78-8.26-9.6-9.13-3.75-.67-9.02,.01-12.73,.87-4.91,1.13-11.75,6.94-13.09,11.87l-.18,.89Z"/>
      <path class="cls-3" d="M242.6,66.77l.17-.86c1.32-4.85,8.12-10.63,12.96-11.75,3.69-.85,8.94-1.54,12.66-.87,4.75,.85,8.47,4.17,9.46,8.99,.6,2.93-.49,6.67-2.58,8.76-2.27,2.27-4.96,3.44-7.93,4.5-2.8,1-13.95,2.32-16.34,.49-.61-.46-1.93-.95-2.68-1.06-.48-.07-3.29-2.32-3.51-2.54-.5-.53-1.49-3.46-1.7-4.17-.19-.65-.44-.55-.5-1.5Z"/>
      <path class="cls-2" d="M242.6,66.77l.17-.86c.35-1.29,1.09-2.65,2.09-3.97-.07,.44-.23,.95-.3,1.13-.27,.67-.44,1.64-.28,2.35,.15,.66,.22,.58,.62,.46,.81-.23,1.96-2.76,2.37-3.39,1.13-1.78,1.37-.95,1-.66-.01,.09-.48,.66-.53,.8-.36,.95-.45,.97-.93,1.79-.03,.04-.67,1.06-.68,1.07-.76,.91-.06,.9,.46,.27,1.1-.8,2.01-2.92,2.67-3.17,1.79-.67-.29,1.82-.36,1.96-.25,.55-2.18,2-.96,2.44,1.31,.47,.93-1.43,1.34-1.21,.51,.27,1.08-.03,1.01,.69-.29,2.83,.34,1.11,.96,.8,.61-.31,.8-1.12,1.23-1.66,1.23-1.54,4.97,1.27,4.28,5.1-.24,1.34,.68,.64,.69-.46,0-.62,1.07-3.5,1.82-2.22,1.02,1.74,.87,1.88,.09,3.52-.8,1.7-1.96,2.45-2.6,3.62-.43,.77-.09,.65,.08,.69,.82,.2,2.68-2.12,3.02-2.84,.35-.73,2.65-2.65,2.73-2.35,0,.01-.92,3.34-.51,3.76,.65,.67,1.89-2.87,3.01-2.9,.45-.01,1.81-2.07,2.11-2.17,1.15-.37,1.28,.96,1.39,1.09,.83,.93,1.26-1.24,1.49-1.54,1.09-1.37,.56,.73,1.89-.9,.5-.61,.56-1.21,1.22-.68,1.2-.34,1.92-3.05,2.04-4.08,.26-2.3-1.75-4.01-1.97-5.58-.26-1.89,.57-.47,.86-.33,1.13,.56,2.58,2.38,3.42,3.65,.13,.41,.25,.84,.34,1.28,.6,2.93-.49,6.67-2.58,8.76-2.27,2.27-4.96,3.44-7.93,4.5-2.8,1-13.95,2.32-16.34,.49-.61-.46-1.93-.95-2.68-1.06-.48-.07-3.29-2.32-3.51-2.54-.5-.53-1.49-3.46-1.7-4.17-.19-.65-.44-.55-.5-1.5Z"/>
      <g>
        <path class="cls-1" d="M265.89,75.29c1.53,1.59,1.94,1.3,2.33,3.71,.24,1.49,1.16,2.01,1.28,3.48,.08,1.06,.02,1.13,.22,2.27,.14,.78-.13,1.96,.25,2.36,.68,.72,.75-4.02,.73-4.17-.14-.96,.87-1.22-.05-3.55-.31-.8-.02-.81-.45-1.84-.56-1.34-.02-.9-.92-2.08-.53-.69-.55-2.58-2.58-2.12-1.04,.23-1.46,1.02-.83,1.9,0,0,0,0,0,.01,0,0,0,.01,.01,.02Z"/>
        <path class="cls-6" d="M265.89,75.08c-.21-.29-.32-.63-.26-.9,.07-.31,.43-.78,.82-.94,.73-.3,1.24-.02,1.61,.3,.63,.52,.82,1.63,1.12,2.01,.88,1.14,.34,.68,.91,2.05,.42,1.01,.11,.99,.44,1.84,.88,2.24-.15,2.55,0,3.5,.08,.47-.16,3.83-.45,4.17-.24-.34-.13-1.71-.25-2.41-.21-1.15-.15-1.15-.23-2.23-.12-1.55-1.03-2.01-1.26-3.46-.4-2.52-.88-2.29-2.46-3.93Z"/>
        <path class="cls-1" d="M266.55,75.7c.11-.06,.59,.46,1.31-.11,.24-.19,.63-.1,.63-.1-.27-.02-.37,.22-.66,.33-.25,.1-.2,.28-.59,.36-.19,.04-.67-.2-.66-.44,0-.03-.02-.05-.03-.05Z"/>
        <path class="cls-1" d="M268.27,78.97c0,.17,.33,.33,.55,.28,.19-.04,1.13-.33,1.26-.13,.03,.04-.23,.03-.35,.08-.25,.11-.87,.11-1.06,.29-.26,.24-.4-.6-.4-.52Z"/>
        <path class="cls-1" d="M269.27,81.13c.26,.25,.34,.57,.83,.73,.23,.08,.77-.72,.83-.54,.09,.26-1.03,1.39-1.33,.56,0,0-.46-.39-.33-.74Z"/>
      </g>
      <g>
        <path class="cls-1" d="M266.44,73.31c1.79,1.66,2.22,1.31,2.79,3.95,.35,1.63,1.41,2.15,1.63,3.76,.16,1.17,.09,1.24,.38,2.49,.2,.85-.02,2.17,.42,2.59,.8,.76,.58-4.48,.55-4.64-.22-1.05,.89-1.4-.27-3.91-.4-.86-.07-.89-.61-2-.7-1.45-.07-1-1.15-2.24-.63-.73-.77-2.81-2.98-2.18-1.13,.32-1.55,1.21-.8,2.15,0,0,0,0,.01,.01,0,0,.01,.01,.02,.02Z"/>
        <path class="cls-6" d="M266.42,73.08c-.25-.31-.49-.71-.34-.98,.16-.29,.61-1.01,.92-1.27,.67-.57,1.29,.09,1.72,.42,.72,.54,1.01,1.74,1.36,2.15,1.04,1.2,.42,.72,1.13,2.21,.52,1.08,.19,1.09,.6,2,1.11,2.41,0,2.82,.22,3.86,.11,.52,.06,4.23-.24,4.63-.29-.36-.25-1.88-.43-2.64-.3-1.26-.23-1.26-.4-2.44-.23-1.7-1.26-2.15-1.61-3.74-.6-2.75-1.11-2.48-2.96-4.19Z"/>
        <path class="cls-3" d="M267.94,71c1.34,0,1.67,1.85,2.14,2.39,1.04,1.2,.42,.72,1.13,2.21,.52,1.08,.19,1.09,.6,2,1.11,2.41,0,2.82,.22,3.86,.1,.44,.07,3.13-.11,4.21-.08-.46,.21-1.51-.08-2.18-.18-.41-.15-2.45-.04-2.87,.2-.74,.3-.78,.1-1.55-.13-.52-.79-1.54-.78-1.74,.03-.83-.06-.56-.17-1.24-.07-.38-.98-2.1-1.32-2.24-.99-.4-.33-.75-1.1-1.65-.31-.36-.58-.78-.6-1.2Z"/>
        <path class="cls-1" d="M267.19,73.72c.11-.08,.68,.47,1.44-.2,.25-.22,.69-.15,.69-.15-.3,0-.4,.26-.7,.41-.27,.13-.2,.33-.63,.43-.21,.05-.75-.18-.76-.45,0-.03-.02-.05-.03-.05Z"/>
        <path class="cls-1" d="M269.29,77.22c.01,.19,.39,.34,.62,.27,.21-.06,1.23-.43,1.38-.23,.03,.04-.25,.05-.38,.12-.27,.14-.95,.18-1.15,.38-.27,.29-.48-.64-.48-.55Z"/>
        <path class="cls-1" d="M270.52,79.55c.31,.26,.41,.6,.96,.75,.26,.07,.8-.84,.88-.65,.12,.28-1.05,1.59-1.43,.7,0,0-.54-.4-.41-.8Z"/>
      </g>
      <g>
        <path class="cls-1" d="M242.67,66.46c.15-.2-.06-.21-.42,0-2.43,1.43-1.08,1.12-2.04,2.35-.44,.57-.42,.24-1.03,1.18-1.09,1.69-1.58,1.25-2.19,3.68-.23,.9-.97,4.31-.57,5.08,.31,.6,.66-.11,.76-.47,.4-1.4-.15-.09,.36-1.44,.74-1.98,1.41-2.46,2.32-4.08,.55-.97,.92-1.2,1.5-2.1,.72-1.11,1.47-.85,2.09-2.84,.23-.73-.21-1.57-.5-1.22-.18-.02-.16-.1-.28-.15Z"/>
        <path class="cls-6" d="M242.6,66.19c.08,.02,.28-.3,.35-.28,.28,.31,.58-.47,.65-.44,.1,.1,.21,.98,.25,1.12-.03,.33-.43,.97-.51,1.34-.78,1.89-1.32,1.54-2.06,2.69-.58,.9-.95,1.09-1.5,2.08-.9,1.61-1.59,2.12-2.33,4.09-.14,.38-.49,1.98-.75,2.07-.82,.28,.18-4.68,.36-5.17,.74-1.94,.72-1.74,1.81-3.13,.65-.83,.29-.67,1.14-1.44,.66-.6,.6-1.28,.98-1.7,.08-.09,1.17-.97,1.61-1.23Z"/>
        <path class="cls-3" d="M242.6,66.19c.07,.02,.18-.51,.24-.48,0,.05-.04,.65-.06,.71-.17,.64-1.33,.44-1.81,1.52-.15,.33-.08,.48-.39,.73-.26,.21-1.14,1.41-1.24,1.72-.04,.13-.82,.7-1.03,1.06-.13,.22-.29,.36-.43,.43,.22-.34,.48-.65,1-1.31,.65-.83,.29-.67,1.14-1.44,.66-.6,.6-1.28,.98-1.7,.08-.09,1.17-.97,1.61-1.23Z"/>
        <path class="cls-1" d="M240.49,68.82c.82-.26,1.12-.32,1.98-.33-.86-.25-1.15-.19-2.01,.02-.06,.04-.21,.25-.2,.31,.01,.08,.15,.03,.23,0Z"/>
        <path class="cls-1" d="M237.73,72.15c.92-.15,1.31-.1,2.2-.48,.03-.01,.04,0,.04-.04h0s-.01,0-.02,0c-.02-.01-.04,0-.06,0-.89,.16-1.21,.04-2.08,.12-.04,.05-.2,.26-.22,.3-.04,.07,.07,.1,.15,.09Z"/>
      </g>
      <g>
        <path class="cls-1" d="M242.24,69.07c.12-.22-.09-.2-.42,.07-2.16,1.81-.88,1.28-1.63,2.65-.34,.63-.38,.31-.82,1.33-.8,1.85-1.35,1.49-1.56,3.99-.08,.92-.25,4.41,.26,5.1,.41,.54,.63-.22,.67-.59,.16-1.45-.16-.07,.12-1.48,.41-2.07,.99-2.66,1.62-4.4,.38-1.05,.71-1.34,1.14-2.32,.53-1.22,1.31-1.08,1.6-3.14,.11-.76-.46-1.52-.69-1.12-.18,.01-.18-.08-.3-.1Z"/>
        <path class="cls-5" d="M242.16,68.91c.84,.06,1.22,.5,.98,1.5-.48,1.98-1.05,1.74-1.59,2.99-.43,.99-.76,1.23-1.14,2.29-.63,1.73-1.22,2.35-1.63,4.42-.08,.4-.16,2.04-.4,2.16-.76,.41-.59-4.65-.49-5.16,.42-2.04,.42-1.84,1.28-3.38,.51-.92,.17-.7,.89-1.6,.55-.7,.39-1.37,.69-1.84,.06-.1,1.03-1.05,1.42-1.37Z"/>
        <path class="cls-3" d="M242.14,68.89c.08,0,.13-.06,.2-.05,0,.05,0,.1,0,.16-.06,.66-1.24,.65-1.54,1.8-.09,.35,0,.49-.26,.78-.22,.25-.9,1.58-.95,1.9-.02,.13-.7,.82-.84,1.21-.09,.24-.22,.4-.36,.49,.16-.38,.37-.72,.78-1.46,.51-.92,.17-.7,.89-1.6,.55-.7,.39-1.37,.69-1.84,.06-.1,1.02-1.08,1.41-1.4Z"/>
        <path class="cls-1" d="M240.46,71.76c.77-.39,1.05-.5,1.9-.65-.89-.1-1.16,0-1.98,.35-.05,.05-.17,.28-.15,.34,.03,.08,.15,0,.22-.03Z"/>
        <path class="cls-1" d="M238.29,75.49c.89-.29,1.28-.31,2.09-.83,.02-.01,.04-.01,.03-.05h0s0,0-.02,0c-.02,0-.04,0-.06,0-.85,.31-1.18,.24-2.03,.46-.03,.05-.15,.29-.17,.34-.03,.08,.09,.09,.16,.07Z"/>
      </g>
      <g>
        <path class="cls-1" d="M240.85,74.76h0c.27,.51,.31,.31,.4,.88,.14,.87,1.05-.8,1.2-.99,.32-.42,1.62-1.04,1.98-1.13-.16,.28-.63,.48,.78,.77,.84,.17,2.25-.64,2.29-1.58,.03-.61-.9-.65-1.04-2.69-.04-.58,.3-1.02-.06-1.44-.47-.54-.93-.1-1.85-1.25-.79-.98-1.78,.92-2.11,1.47-.65,1.09-.82,.61-1.36,1.46-.79,1.27-.99,2.71-.2,3.98-.07,.13-.03,.43-.03,.52h0Z"/>
        <path class="cls-6" d="M241.03,74.74c-.04-.9,.17-.13-.3-.99-.62-1.14-.02-3.37,1.19-4.16,.49-.33,1.34-2.53,2.29-2.61,.24-.02,.56,.6,1.2,.9,1.15,.53,1.37,.45,1.2,1.55-.1,.63,.16,2.07,.71,2.56,1.08,.96-1.27,2.3-2.08,2.13-.06-.01-.73-.16-.84-.28,1-1.29-1.76,.32-1.96,.54-.18,.2-.85,1.24-1,1.34-.02-.08-.04-.46-.42-.96h0Z"/>
        <path class="cls-3" d="M240.64,73.59c-.44-1.18,.14-3.25,1.28-4,.49-.33,1.34-2.53,2.29-2.61,.18-.01,.41,.33,.78,.63-.17,.38-.75,.5-.66,.73,.1,.26-.19,.25-.29,.65-.1,.38-.12,.25,.06,.59,.2,.37-.7,.88-.81,1.09,0,0-.44,.42-.53,.58-.21,.36-.52,.64-.66,1.1-.09,.29-.25,.52-.37,.88-.09,.3-.18,.57-.32,.85-.07,.14-.1,.7-.29,.48-.14-.16,.05-.73,.16-.91,.05-.08,.32-1.28,.49-1.62,.13-.27,1.09-1.46,1.32-1.65,.1-.08,.43-.56,.37-.71-.09-.21,.01-.48-.26-.56-.32-.1-.4,.21-.72,.4-.12,.07-.52,.56-.76,.73-.27,.18-1.01,1.52-1.01,1.86,0,.26-.13,.55-.07,.83,.02,.12,.15,.54,.02,.67Z"/>
        <path class="cls-1" d="M244.62,73.58c.75-.93,.6-.52,1.39-1.5l.19-.26c-.3,.18-.27,.15-.54,.39-.85,.76-.6,.29-1.38,1.14-.06,.08,.1,.09,.17,.16,0,0-.11,.14-.1,.14,.09,.06,.2,.02,.26-.07Z"/>
        <path class="cls-1" d="M243.19,69.89c-.06,.38-1.54,1.23-1.85,2.82-.14,.7-.15,.97-.4,1.65-.01,.03,0,.05,0,.08,.34-.37,.5-1.21,.63-1.69,.44-1.68,2.26-2.34,1.99-3.03-.05-.1-.17-.14-.27-.09-.1,.05-.14,.16-.1,.26Z"/>
        <path class="cls-1" d="M245.96,71.24c-.21-1.31-.63-1.58-1.93-1.47h0c1.42,.38,1.24,.19,1.93,1.47Z"/>
        <path class="cls-1" d="M242.97,69.39c-.15-.42-.24-.85-.37-.72-.02,.02-.26,.22-.19,.23,.31,.08,.34,.22,.56,.49Z"/>
      </g>
      <g>
        <path class="cls-1" d="M250.6,69.95c-1.15-.02-1.01,.9-2.01,1.6-1.12,.78-.32,.7-1.58,1.28-.4,.19-.26,.62-1.03,1.06-1.27,.72-2.35,.75-2.85,1.99-.47,1.17-.31,.78-1.06,1.75-.29,.38-1.62,5.51-1.62,5.85,.02,1.49,1.53-1.81,1.53-1.81,.5-.94,.88-1.56,1.68-2.24,.95-.82-.09-1.47,1.77-2.44,1.36-.71,.68-1.2,1.91-.98,.57,.11,3.02-2.49,3.83-3.01,1.34-.88,.7-2.38-.4-2.99-.07-.04-.08-.04-.14-.05,0,0-.01,0-.02,0h0s0,0-.01,0Z"/>
        <path class="cls-6" d="M250.79,69.92h0s.05,0,.09,.03c1.2,.63,1.65,2.07,.24,2.89-.65,.38-3.23,3.21-3.71,3.06-1.34-.43-.7,.33-2.01,1.01-1.94,1.02-.89,1.69-1.74,2.43-.86,.74-.82,.65-1.39,1.54-.13,.2-1.34,2.69-1.6,2.82v-.23c-.02-.28,1.31-5.4,1.57-5.74,.76-.99,.6-.62,1.08-1.8,.47-1.16,1.55-1.2,2.76-1.89,.8-.45,.72-.92,1.03-1.06,1.32-.61,.53-.51,1.59-1.29,.98-.72,1.07-1.82,2.11-1.78Z"/>
        <path class="cls-3" d="M241.19,81.15s.04-.05,.06-.07c.17-.19,1.08-2.02,1.08-2.17-.01-.32,.65-1.49,.89-1.75,.4-.43,.23-.34,.45-.79,.2-.41,.28-.57,.64-.88,.21-.18,.75-.55,.99-.62,.72-.21,.22-.26,.8-.64,.76-.49,.85-.19,.95-.22,.23-.07,.6,.21,.65,.14,.31-.45-.44-.29-.61-.49-.44-.53,.35-.39,.42-.61,.05-.16,.11-.27,.17-.36-.13,.08-.31,.18-.59,.31-.31,.14-.28,.55-1.07,1.01-1.21,.69-2.32,.72-2.79,1.88-.48,1.18-.31,.83-1.07,1.82-.15,.19-.57,1.95-.97,3.45h0Zm7.41-8.69c.61-.24,.93,0,1.26-.26,.51-.4-.22-.22-.22-.22-.84-.05-.06-.79-.09-1.22-.2,.29-.43,.63-.87,.93-.65,.45-.62,.61-.77,.79,.23-.08,.47,.06,.69-.02Z"/>
        <path class="cls-1" d="M246.92,75.71c-.94-.47-.81-.4-1.23-1.36-.09,.8,.38,1.18,.98,1.54,.07,.05,.24,.09,.28,.02,.05-.07,.03-.16-.04-.2Z"/>
        <path class="cls-1" d="M250.94,72.95c-1.33,.15-2.01,.31-3.27,.27-.15,0-.11-.01-.22,.02,1.03,.32,2.22,.11,3.26,0,.08,.02,.16-.02,.18-.1,.02-.08,.12-.18,.04-.2Z"/>
        <path class="cls-1" d="M247.84,72.57c1.02-.28,2.04,.18,2.71-.76h0c-1.17,.8-1.38,.21-2.67,.5-.07,.03-.22,.16-.19,.24,.03,.07,.09,.05,.16,.02Z"/>
        <path class="cls-1" d="M244.62,77.19c-.52,.12-1.06-.35-1.24-.79-.15,.11,.35,1.21,1.32,1.07,.08-.02,.12-.1,.1-.18-.02-.08-.1-.12-.18-.1Z"/>
        <path class="cls-1" d="M243.6,79.35c-.77-.06-.21,.49-1.45-.25h0c.79,1.04,.76,.45,1.16,.54,.08,.02,.18-.02,.2-.1,.02-.08,.17-.17,.09-.19Z"/>
      </g>
      <g>
        <path class="cls-1" d="M255.09,72.29c-.01-1.7,.4-1.6-1.47-1.83h.01c-.78-.1-1.69,2-2.06,2.59-.35,.11-.94,1.27-1.07,1.55-.48,.3-.67,1.36-.81,1.87-1.02,.99-.29,3.73-.32,5.21,0,.11-.42,4.56,.39,2.58,.46-1.11,.65-3.12,.64-4.33h0c0-.93,.79-1.02,1.09-2.65,.36-.22,1.17-1.42,1.28-1.82,1.16-.59,2.14-1.84,2.33-3.14,0-.01,0-.02,0-.03Z"/>
        <path class="cls-6" d="M255.17,72.17c-.13,.92-1.02,2.01-1.69,2.62-.44,.4-.87,.5-.81,.7,0-.02,0-.01,0-.02-.03,.22-1.04,1.62-1.23,1.73-.07,.12-.16,.33-.21,.55-.21,.92-.86,1.31-.92,2.03-.12,1.64-.1,3.14-.85,4.71-.07-.43,0-1.53,.03-1.83h0c.1-1.4-.06-1.86-.16-3.22,.08-.36-.34-2.05,.33-2.77,.49-.53,.33-1.38,.8-1.86,.42-.43,.86-1.5,1.15-1.62-.01,0-.01,0-.02,0,.35,.07,1.31-2.88,2.05-2.77,1.86,.29,1.46,0,1.55,1.75Z"/>
        <path class="cls-3" d="M249.43,83.61c.01-.4,.04-.79,.05-.95h0c.1-1.4-.06-1.86-.16-3.22,.08-.36-.34-2.05,.33-2.77,.49-.53,.33-1.38,.8-1.86,.42-.43,.86-1.5,1.15-1.62-.01,0-.01,0-.02,0,.35,.07,1.31-2.88,2.05-2.77,.98,.15,1.33,.14,1.46,.36-.11,.14-.35,.28-.85,.39-.34,.08-.79,.14-1.07,.38-.56,.47-.28,0-.77,.8-.08,.12,0,.16-.22,.32-.22,.16,.19,.92-.11,.96-.63,.09-1.6,1.82-1.56,2.33,0,.07-.41,.39-.51,.71-.09,.28-.19,.31-.27,.72-.13,.7-.32,.7-.02,1.49,.07,.18,.1,2.65,0,2.9-.1,.29,.07,1.5-.27,1.83Z"/>
        <path class="cls-1" d="M252.77,75.42c.2-.82-.17-1.78-1.04-1.9h0c.68,.48,1.01,1.11,.74,1.96-.03,.07,0,.25,.07,.29,.07,.03,.19-.26,.22-.34Z"/>
        <path class="cls-1" d="M251.43,77.33c-.15-.88-.6-1.59-1.55-1.19,.85,.05,1.15,.14,1.26,1.21,0,.08,.07,.3,.15,.29,.08,0,.15-.24,.14-.32Z"/>
        <path class="cls-1" d="M250.65,78.9c-.54,.37-.89-.18-1.42-.6-.01,.07-.04,.24,.09,.35,.3,.25,.79,.76,1.12,.72,.08-.02,.12-.1,.1-.18-.02-.08,.19-.31,.11-.29Z"/>
        <path class="cls-1" d="M251.9,72.98c.41-.53,1.37-.52,2.18-1.04,.21-.13,.26-.15,.48-.2-.14-.1-.41,.03-.54,.09-.9,.44-1.62,.16-2.16,.79-.05,.07-.22,.34-.16,.39,.07,.05,.16,.03,.2-.04Z"/>
      </g>
      <path class="cls-3" d="M243.84,66.55c.31-.29,.64-.43,.85-.88,0,0,.71-1.21,.71-1.22,.46-.57,1.03-2.72,2-3.1,.28-.11-.91,1.26-.96,1.46-.02,.11-1.29,2.65-1.49,3.16,0,.02-.75,1.43-.01,.92,.28-.2,2.04-2.54,2.21-2.87,.05-.1,1.45-1.73,1.26-1.19-.12,.34-1.97,2.3-2.37,3.1-.09,.17-.46,1.62-1.15,1.77-.11-.1-.22-.23-.35-.38-.33-.41-.69-.32-1.03-.03-.02-.25,.42-.59,.33-.73Z"/>
      <path class="cls-3" d="M262.04,74c.06,.33-.61,.45-.53-.34,.15-1.5,.23-1.32,.98-2.59,.54-.91,1.24-.78,.26,.69-.19,.29-.78,1.88-.71,2.25Z"/>
      <path class="cls-3" d="M260.14,73.09c.12-.27,1.07-1.82,.45-1.79-.83,.04-.82,.73-1.37,1.27-.76,.75-1.3,1.55-2.18,2.38-1.33,1.25,.07,1.33,.17,1.27,.11-.06,.8-.02,1.4-.52,.52-.43,1.64-1.9,1.59-2.58,0-.07-.02-.09-.05-.03Z"/>
      <path class="cls-3" d="M255.1,69.64c-.21-.54-1.23-1.18-1.77-.52-.51,.63-.33,1.31-.52,2.05-.16,.61,.83-1.17,1.02-1.24,.31-.12,.86,.31,1.1,.12,.07-.06,.21-.3,.17-.41Z"/>
      <path class="cls-3" d="M247.32,70.76c.06,.32-.1-1.21-.13-1.44-.04-.33-.35-.91-.15-1.19,.27,.06,.82,1.92,.61,2.52-.28,.82-.29,.39-.34,.11Z"/>
      <path class="cls-3" d="M271.23,72.4c.67-.5,1.1-1.01,1.84-1.46,1.15-.7,3.3-3.78,3.7-5.05,.22-.7,.46-2.57,.18-3.23,0,0-.58-2.32-.08-1.78,.1,.11,.31,1.15,.43,1.49,.3,.83,.45,3.05,.16,3.89-.14,.39-.44,1.54-.66,1.85-.13,.18-.42,1-.75,1.25-.26,.2-.67,.82-1.17,1.1-.48,.26-.49,.8-1.37,1.1-.32,.11-.92,.97-1.11,.82-.17-.14-.88,.53-1.27,.62-.05,.01-.9,.56-.29-.25,.06-.08,.36-.32,.39-.33Z"/>
      <path class="cls-3" d="M267.87,71.03c-.24-.6,.4-.8,.59-1.53,.08-.3,.55-.53,.49,.43-.03,.61-.19,.64-.06,1.17,0,.03,.3,.49-.24,.24,0,0-.22-.21-.45-.3-.27-.11-.07-.05-.33,0Z"/>
      <path class="cls-3" d="M270.66,68.97c-.95,0,.22-1.3,.47-.61,.03,.09-.03,.61-.47,.61Z"/>
      <path class="cls-3" d="M269.51,66.9c.61-.1-.1,1.37-.61,.57-.24-.38,.59-.56,.61-.57Z"/>
      <path class="cls-3" d="M274.67,67.24c.63,.8-1.13,.98-.42,.03,.08-.11,.36-.1,.42-.03Z"/>
      <path class="cls-4" d="M274.38,64.39c.42,.25-.36,.57-.3,.05,.01-.12,.25-.08,.3-.05Z"/>
      <path class="cls-4" d="M265.71,63.03c.34,.85-.84,.58-.33-.15,.13-.19,.3,.08,.33,.15Z"/>
      <path class="cls-3" d="M251.29,64.87c.65,.25-.39,1.28-.42,.29,0-.26,.24-.36,.42-.29Z"/>
      <path class="cls-1" d="M256.21,77.01c.02,.74,.07,.91-.01,1.92-.06,.79,.32,1.93-.02,2.37-.61,.79-1.13-3.93-1.12-4.08,0-.09,0-.17-.01-.24,.38,.02,.77,.03,1.17,.03Z"/>
      <path class="cls-4" d="M254.55,63.11c.34,.85-.84,.58-.33-.15,.13-.19,.3,.08,.33,.15Z"/>
      <path class="cls-3" d="M264.3,66.48c.61-.1-.1,1.37-.61,.57-.24-.38,.59-.56,.61-.57Z"/>
      <path class="cls-4" d="M268.88,57.97c.42,.25-.36,.57-.3,.05,.01-.12,.25-.08,.3-.05Z"/>
      <path class="cls-4" d="M264.45,56.66c.42,.25-.36,.57-.3,.05,.01-.12,.25-.08,.3-.05Z"/>
    </g>
    <path class="cls-7" d="M255.33,64.09c1.69-2.69,2.22-3.7,3.34-6.71,.77-2.08,1.64-2.84,2.55-4.68,.44-.88,.25-.71,.81-1.43,.32-.42,.2-.22,.41-.64-.26,.41-.1,.19-.46,.6-.66,.77-1.02,1.76-1.62,2.7-1.19,1.85-1.31,1.89-2.12,4-1.03,2.66-1.65,3.67-3.15,6.01-.04,.07-.02,.16,.04,.2s.16,.02,.2-.04Z"/>
    <path class="cls-7" d="M266.94,68.13c2.47-.18,2.77-5.81,4.9-7.32l1.02-.59h0s-1.07,.5-1.07,.5c-2.14,1.33-2.68,6.98-4.85,7.11-.08,0-.14,.06-.14,.14,0,.08,.06,.14,.14,.14Z"/>
    <path class="cls-7" d="M264.56,57.27c2.68-2.87,.85-3.98,2.56-6.96l.37-.6h0c-2.55,3.22-.3,4.43-3.12,7.35-.06,.06-.06,.15,0,.2,.06,.06,.15,.06,.2,0Z"/>
    <path class="cls-7" d="M251.2,57.3c-.27-1.75-.78-1.58-.27-3.35,.49-1.71,.55-1.72,.58-3.6,0-.34,.07-2.12-.33-2.41,.3,.46,.21,1.94,.18,2.4-.09,1.89-.13,1.83-.66,3.54-.57,1.85-.03,1.68,.21,3.44,0,.08,.08,.14,.16,.13,.08,0,.14-.08,.13-.16Z"/>
    <path class="cls-7" d="M260.03,65c1.51,.16,2.6-3.11,3.08-4.21-.65,.93-1.8,4.1-3.02,3.93-.08-.02-.15,.03-.17,.11-.02,.08,.03,.15,.11,.17Z"/>
    <path class="cls-7" d="M271.74,56.18c2.37-1.53,2.17-3.09,3.27-5.32,.33-.68,.13-.26,.35-.72-1.6,2.07-1.09,4.14-3.75,5.78-.07,.04-.1,.12-.06,.19,.04,.07,.12,.1,.19,.06Z"/>
  </g>
</svg>