<?xml version="1.0" encoding="UTF-8"?>
<svg id="Vrstva_1" data-name="Vrstva 1" xmlns="http://www.w3.org/2000/svg" viewBox="0 0 284.69 370.19">
  <defs>
    <style>
      .cls-1 {
        fill: #e2e2fb;
      }

      .cls-2 {
        fill: #6b6b93;
      }

      .cls-3 {
        fill: #71ca35;
      }

      .cls-4 {
        fill: #9696c8;
      }

      .cls-5 {
        fill: #b3b3da;
      }

      .cls-6 {
        fill: #1b92ec;
      }

      .cls-7 {
        fill: #42a6fd;
      }
    </style>
  </defs>
  <path class="cls-2" d="M47.58,344.2v17.33c0,4.78,36.97,8.66,82.58,8.66,13.23,0,25.72-.33,36.8-.91,13.27-.69,24.5-1.75,32.52-3.05,8.39-1.35,13.26-2.97,13.26-4.7v-17.33c0,1.73-4.87,3.35-13.26,4.71-8.02,1.29-19.26,2.35-32.52,3.04-11.08,.58-23.57,.91-36.8,.91-45.61,0-82.58-3.88-82.58-8.66Z"/>
  <path class="cls-4" d="M47.58,344.2c0,4.78,36.97,8.66,82.58,8.66,13.23,0,25.72-.33,36.8-.91,13.27-.69,24.5-1.75,32.52-3.04,8.39-1.36,13.26-2.98,13.26-4.71,0-4.78-36.98-8.66-82.58-8.66-45.61,0-82.58,3.88-82.58,8.66Z"/>
  <path class="cls-2" d="M12.54,110.1c.6,0,1.23-.03,1.87-.09,1.53-.14,2.66-1.5,2.52-3.03-.14-1.53-1.5-2.66-3.03-2.52-2.78,.26-4.89-.25-6.27-1.51-1.97-1.79-2.05-4.73-2.05-4.76,0-1.54-1.25-2.78-2.78-2.78S0,96.65,0,98.19c0,.55,.11,5.44,3.87,8.88,2.21,2.01,5.12,3.03,8.67,3.03Z"/>
  <rect class="cls-2" x="127.81" y="12.07" width="4.87" height="51.01" transform="translate(260.5 75.16) rotate(-180)"/>
  <path class="cls-5" d="M101.02,101.67H19.25c-8.07,0-14.61,6.54-14.61,14.61v15.72s16.01,0,16.01,0v-12.94c0-2.31,1.87-4.18,4.18-4.18H106.41s-5.39-13.22-5.39-13.22Z"/>
  <rect class="cls-5" x=".46" y="132" width="24.7" height="6.55" rx="2.95" ry="2.95" transform="translate(25.63 270.56) rotate(180)"/>
  <path class="cls-5" d="M111.81,98.19h-11.13c-1.54,0-2.78,1.25-2.78,2.78v14.61c0,1.54,1.25,2.78,2.78,2.78h14.27s-3.13-20.18-3.13-20.18Z"/>
  <rect class="cls-5" x="107.98" y="65.83" width="44.54" height="84.9" transform="translate(260.5 216.56) rotate(-180)"/>
  <rect class="cls-5" x="111.11" y="150.73" width="38.97" height="102.99" transform="translate(261.19 404.45) rotate(-180)"/>
  <rect class="cls-2" x="153.39" y="248.42" width="7.31" height="15.48" transform="translate(314.08 512.32) rotate(-180)"/>
  <rect class="cls-5" x="111.11" y="259.64" width="38.97" height="87.1"/>
  <rect class="cls-2" x="100.5" y="248.42" width="7.31" height="15.48" transform="translate(208.3 512.32) rotate(-180)"/>
  <rect class="cls-4" x="128.16" y="65.83" width="19.14" height="84.9" transform="translate(275.46 216.56) rotate(-180)"/>
  <rect class="cls-4" x="128.16" y="150.73" width="16.01" height="196.01"/>
  <path class="cls-4" d="M166.96,351.95v17.33c7.15-.37,13.7-.85,19.48-1.42,2.38-.23,4.63-.48,6.74-.74,2.28-.28,4.39-.58,6.31-.89v-17.32c-1.92,.31-4.03,.61-6.31,.88-2.11,.27-4.36,.51-6.74,.75-5.78,.56-12.33,1.04-19.48,1.41Z"/>
  <path class="cls-5" d="M147.99,66.49c5.15,0,10.47-.44,14.49-3.64,3.78-3.01,5.69-7.67,6.2-15.11,.94-13.84,16.12-19.93,16.27-19.99,2.6-1,3.9-3.91,2.9-6.51-1-2.6-3.92-3.9-6.52-2.9-.87,.33-21.33,8.4-22.71,28.73-.28,4.19-1.1,6.85-2.41,7.9-1.26,1-3.79,1.45-8.21,1.45-2.79,0-5.05,2.26-5.05,5.05,0,2.79,2.26,5.05,5.05,5.05Z"/>
  <path class="cls-1" d="M118.65,145.53h0c1.35,0,2.44-1.09,2.44-2.44V76.95c0-1.35-1.09-2.44-2.44-2.44h0c-1.35,0-2.44,1.09-2.44,2.44v66.15c0,1.35,1.09,2.44,2.44,2.44Z"/>
  <path class="cls-1" d="M118.65,246.86h0c1.35,0,2.44-1.09,2.44-2.44v-81.5c0-1.35-1.09-2.44-2.44-2.44h0c-1.35,0-2.44,1.09-2.44,2.44v81.5c0,1.35,1.09,2.44,2.44,2.44Z"/>
  <path class="cls-1" d="M118.65,298.25h0c1.35,0,2.44-1.09,2.44-2.44v-20.69c0-1.35-1.09-2.44-2.44-2.44h0c-1.35,0-2.44,1.09-2.44,2.44v20.69c0,1.35,1.09,2.44,2.44,2.44Z"/>
  <polygon class="cls-2" points="122.81 95.41 137.68 95.41 145.08 108.23 145.11 108.28 137.68 121.16 122.81 121.16 115.41 108.34 115.38 108.28 122.81 95.41"/>
  <polygon class="cls-4" points="125.59 100.22 134.9 100.22 139.54 108.25 139.56 108.28 134.9 116.35 125.59 116.35 120.96 108.32 120.94 108.28 125.59 100.22"/>
  <polygon class="cls-2" points="107.98 65.83 152.52 65.83 152.52 68.96 107.98 72.79 107.98 65.83"/>
  <rect class="cls-5" x="101.02" y="56.44" width="58.46" height="9.39" rx="4.23" ry="4.23" transform="translate(260.5 122.27) rotate(180)"/>
  <polygon class="cls-2" points="4.64 127.24 20.64 129.59 20.64 132 4.64 132 4.64 127.24"/>
  <rect class="cls-5" x="97.19" y="250.82" width="66.81" height="10.67" transform="translate(261.19 512.32) rotate(-180)"/>
  <rect class="cls-2" x="97.19" y="255.17" width="66.81" height="1.97" transform="translate(261.19 512.32) rotate(-180)"/>
  <rect class="cls-2" x="111.11" y="261.49" width="38.97" height="5.8" transform="translate(261.19 528.79) rotate(-180)"/>
  <rect class="cls-2" x="111.11" y="150.73" width="38.97" height="5.8" transform="translate(261.19 307.26) rotate(-180)"/>
  <path class="cls-1" d="M9.51,121.7c.86,0,1.57-.7,1.57-1.57v-2.42c0-5.3,4.31-9.61,9.61-9.61H89.27c.86,0,1.57-.7,1.57-1.57s-.7-1.57-1.57-1.57H20.69c-7.03,0-12.74,5.72-12.74,12.74v2.42c0,.86,.7,1.57,1.57,1.57Z"/>
  <rect class="cls-2" x="104.15" y="98.19" width="3.83" height="20.18" transform="translate(212.13 216.56) rotate(-180)"/>
  <rect class="cls-2" x="94.76" y="101.67" width="3.13" height="13.22" transform="translate(192.65 216.56) rotate(-180)"/>
  <path class="cls-1" d="M127.68,108.28c0,1.42,1.15,2.57,2.57,2.57,1.42,0,2.57-1.15,2.57-2.57,0-1.42-1.15-2.57-2.57-2.57-1.42,0-2.57,1.15-2.57,2.57Z"/>
  <path class="cls-4" d="M169.11,4.66c4.51,2.41,8.54,5.5,12.07,8.92,3.81,3.68,7.07,7.74,10,11.92,2.93,4.18,5.5,8.51,7.89,12.88,2.39,4.37,4.57,8.8,6.69,13.22,4.21,8.84,8.06,17.73,12.34,26.2,2.15,4.22,4.42,8.34,6.98,12.11,1.28,1.89,2.64,3.68,4.1,5.3l.55,.6c.18,.2,.38,.38,.56,.58,.37,.39,.76,.75,1.15,1.11,.18,.18,.41,.37,.63,.56l.65,.56c.44,.37,.87,.76,1.32,1.11,1.77,1.47,3.64,2.81,5.53,4.1,1.91,1.27,3.88,2.44,5.91,3.52,4.05,2.13,8.33,3.84,12.76,5.08,4.43,1.23,9,1.99,13.62,2.31,3.88,.27,7.78,.22,11.7-.07l1.13,6.25c-4.34,.47-8.77,.69-13.19,.51-5.05-.2-10.12-.88-15.07-2.1-4.95-1.23-9.78-2.99-14.37-5.23-2.29-1.13-4.53-2.37-6.7-3.72-1.17-.74-2.33-1.51-3.46-2.3-2.53-1.82-11.06-8.55-18.92-21.32-.94-1.6-1.85-3.2-2.73-4.81-.34-.63-.69-1.27-1.02-1.9-.17-.33-.34-.65-.51-.95-4.1-7.76-7.79-15.57-11.7-23.17-2.19-4.26-4.43-8.47-6.81-12.53-2.38-4.06-4.9-8.01-7.64-11.68-2.74-3.68-5.7-7.12-8.96-10.07-3.25-2.96-6.79-5.43-10.57-7.18-1.89-.88-3.84-1.58-5.84-2.09-2.01-.52-4.01-.83-6.16-1.01-2.12-.16-4.24-.17-6.35-.03-10.05,.27-23.82,4.83-32.36,8.05l-4.35-4.7s26.5-24.68,61.13-10Z"/>
  <g>
    <g>
      <path class="cls-7" d="M18.34,182.59c4.88-4.19,2.79-13.2-3.65-19.32,.12,.16,1.99,2.83-4.4,12.15-3.98,5.81,3.2,11.34,8.05,7.17Z"/>
      <path class="cls-7" d="M16.94,146.46c-5.25-6.08-3.94-7.99-3.94-7.99-3.94,4.68-4.69,11.01-1.03,13.51,3.64,2.48,8.13-1.85,4.96-5.52Z"/>
    </g>
    <path class="cls-6" d="M9.18,169.68c4.47-2.81,3.85-10.37-.63-16.12,.08,.14,1.27,2.54-5.03,9.33-3.93,4.24,1.23,9.58,5.67,6.79Z"/>
  </g>
  <path class="cls-3" d="M78.31,292.87l2.01,2.15c-.64-.73-1.31-1.45-2.01-2.15Z"/>
  <path class="cls-5" d="M186.43,350.54v17.32c2.38-.23,4.63-.48,6.74-.74v-17.33c-2.11,.27-4.36,.51-6.74,.75Z"/>
</svg>