<?xml version="1.0" encoding="UTF-8"?>
<svg id="Vrstva_1" data-name="Vrstva 1" xmlns="http://www.w3.org/2000/svg" viewBox="0 0 829.16 1121.67">
  <defs>
    <style>
      .cls-1 {
        fill: #f8dcc8;
      }

      .cls-2 {
        fill: #ffe2ce;
      }

      .cls-3 {
        fill: #ffe04f;
      }

      .cls-4 {
        fill: #f2d0b9;
      }

      .cls-5 {
        fill: #efc4ac;
      }

      .cls-6 {
        fill: #ffbe2e;
      }

      .cls-7 {
        fill: #171714;
      }

      .cls-8 {
        opacity: .51;
      }

      .cls-9 {
        opacity: .74;
      }
    </style>
  </defs>
  <g id="svicky">
    <g>
      <path class="cls-4" d="M635.54,1044.57h-235.05s0-483.6,0-483.6c19.83,10.57,56.04,26.45,103.82,28.84,63.19,3.16,110.7-19.09,131.22-30.28v485.04Z"/>
      <ellipse class="cls-2" cx="517.58" cy="570.8" rx="120.63" ry="42.54"/>
      <path class="cls-2" d="M402.91,554.38c-4.69,3.88-20.95,17.32-18.26,32.68,2.24,12.8,16.5,20.55,21.15,23.07,10.81,5.87,13.43,2.28,19.22,6.73,12.45,9.56,3.12,28.27,13.68,56.6,2.97,7.97,9.38,25.17,19.97,26.07,9.04,.76,17.82-10.64,21.85-18.86,9.85-20.06-1.92-34.43,8.65-49.03,3.91-5.39,12.38-12.77,20.19-11.54,24.07,3.82,29.64,87.56,30.28,98.06,2.85,46.82-2.83,98.83-4.33,112.48-.71,6.49-3.97,35.57,2.88,70.66,3.58,18.33,8.67,31.9,20.19,37.49,1.11,.54,11.67,5.51,18.75,1.44,14.75-8.49-.23-47.87-7.21-106.71-10.32-87.08,12.79-82.72,0-149.97-3.28-17.24-10.4-47.01,4.33-60.56,.82-.76,9.8-8.79,20.19-7.21,11.42,1.74,12.95,13.31,21.63,14.42,13.27,1.7,33.6-20.5,31.72-41.82-.52-5.92-3.05-15.11-16.1-27.27-30.22-28.17-71.76-30.23-101.89-31.72-20.27-1-41.07,2.21-82.67,8.65-16.43,2.54-30.84,5.28-44.22,16.34Z"/>
      <g>
        <path class="cls-5" d="M509.66,615.74c-4.76-.14-13.97,4.01-19.43,11.37-.05,.07-.09,.12-.12,.16-10.16,13.87-1.16,25.29-9.82,46.06-1.31,3.15-9.56,22.16-19.72,21.83-10.75-.35-17.95-22.23-19.34-26.07-10.22-28.33-1.19-47.04-13.24-56.6-5.61-4.45-8.15-.86-18.62-6.73-3.72-2.08-16.78-9.02-20.48-23.07-.55-2.08-1.21-5.54-.89-10.05-1.98,3.72-5.4,11.62-3.36,20.63,3.08,13.63,16.61,20.46,21.5,23.07,8.91,4.76,12.35,3.3,16.47,4.95,0,0,1.55,.69,3.08,1.78,6.21,4.43,5.62,35.73,13.49,57.23,1.82,4.97,8.99,24.56,20.72,25.43,9.34,.69,18.17-10.74,22.22-18.86,10.02-20.06-1.95-34.43,8.8-49.03,4.59-6.23,12.88-12.87,20.53-11.54,14.43,2.51,19.16,31.85,19.77,31.64,.74-.25-7.04-41.78-21.58-42.21Z"/>
        <path class="cls-5" d="M612.99,625.83c-10.57-2.13-12.18-10.37-21.2-11.38-8.64-.96-17.25,5.73-21.63,11.53-6.25,8.3-4.87,23.37-1.86,53.2,3.6,35.64,3.91,37.11,3.76,41.56-1,29.85-11.1,44.51-3.76,108.41,6.76,58.84,21.27,98.22,6.98,106.71-6.53,3.88-17.01-.9-18.15-1.44-11.08-5.22-14.76-16.97-15.57-19.82,.35,2.57,3.46,22.99,19.75,30.39,2.33,1.06,12.23,5.31,19.06,1.44,15-8.49-.24-47.87-7.33-106.71-10.5-87.08,13-82.72,0-149.97-3.33-17.24-10.58-47.01,4.4-60.56,4.59-4.16,12.99-9.21,20.53-7.21,6.22,1.65,6.82,6.47,13.04,8.33,11.63,3.49,25.28-8.81,24.75-9.85-.45-.89-10.5,7.85-22.78,5.37Z"/>
      </g>
      <path class="cls-5" d="M406.2,923.98c-2.81-.04,.65,28.7-10.18,79.5-8.48,39.75-18.92,61.13-9.99,91.03,3.77,12.64,11.37,28,16.33,27.12,5.86-1.03,6.24-24.41,6.45-44.82,.92-90.27,1.55-152.78-2.6-152.83Z"/>
      <path class="cls-5" d="M604.55,841.37c7.69-1.81,13.37,43.15,40.29,98.59,14.32,29.49,4.45,57.02,22.8,67.03,39.1,21.33,31.75,31.83,28.76,37.58h-60.85c-39.08,0-52.77-198.06-31-203.2Z"/>
      <path class="cls-2" d="M614.11,850.56c7.69-1.81,2.56,17.98,29.48,73.42,8.14,16.77,8.35,30.31,13.06,59.11,4.71,28.8,24.58,33.69,47.45,45.98,19.66,10.57,68.93-13.19,81.83-23.29,44.56-34.91,62.83,38.79,14.96,38.79h-152.98c-48.5-12.7-55.57-188.88-33.79-194.02Z"/>
      <path class="cls-2" d="M401.88,914.16c-2.81-.04,.65,28.7-10.18,79.5-8.48,39.75-18.92,61.13-9.99,91.03,3.77,12.64,11.37,28,16.33,27.12,5.86-1.03,6.24-24.41,6.45-44.82,.92-90.27,1.55-152.78-2.6-152.83Z"/>
      <g class="cls-8">
        <path class="cls-1" d="M428.24,722c-21.59,10.83-8.05,81.73,0,112.48,11.28,43.09,20.57,41.07,30.28,77.87,18.79,71.21-13.97,73.47,6.07,132.22h61.35c-5.1-23-9.97-46.56-12.62-63.01-17.75-110.15,24.73-145.98-8.65-204.77-20.55-36.18-59.7-63.19-76.43-54.8Z"/>
      </g>
      <g class="cls-9">
        <path class="cls-1" d="M439.77,559.06c-2.69,.62-24.57,5.92-25.96,17.3-.83,6.78,5.86,13.83,11.54,17.3,12.68,7.76,23.51-.36,28.84,5.77,7.26,8.36-10.16,26.56-1.44,41.82,1.94,3.4,6.6,9.14,11.54,8.65,12-1.18,8.42-37.47,27.4-46.14,10.49-4.8,15.11,4.69,36.05,4.33,10.39-.18,13.4-2.59,49.03-15.86,30.83-11.49,37.76-13.11,37.49-15.86-.55-5.64-30.54-8-53.35-7.21-22.89,.79-21.7,4.18-37.49,4.33-40.25,.37-52.65-21.6-83.64-14.42Z"/>
      </g>
      <path class="cls-3" d="M507.44,528.12c-31.3-2.74-46.81-45.27-48.24-49.33-14.84-42.37,6.22-86.11,17.54-109.63,19.88-41.29,36.87-45.59,43.85-81.12,6.35-32.36-1.87-58.66,1.1-59.2,2.96-.54,9.66,25.77,20.83,65.78,22.08,79.09,24.48,78.72,27.41,100.86,4.65,35.16,9.49,71.71-12.06,101.95-3.17,4.44-23.55,33.05-50.43,30.7Z"/>
      <path class="cls-6" d="M494.57,391.78c-10.33,22.22-17.26,37.54-17.3,59.12-.02,7.76-.11,47.63,23.07,57.68,12.67,5.5,25.88-.7,27.4-1.44,25.61-12.48,28.38-54.01,23.07-79.31-3.1-14.77-10.09-29.49-12.98-28.84-4.56,1.02,3.07,39.75,0,40.38-3.17,.65-22.2-38.55-12.98-79.31,4.33-19.14,13.12-30.79,11.54-31.72-2.51-1.49-25.09,27.47-41.82,63.45Z"/>
      <path class="cls-7" d="M509.54,455.23c7.31,33.56,10.61,67.9,9.83,102.24-.2,8.71-.66,17.42-1.37,26.1-.24,2.91,2.66,5.41,5.41,5.41,3.12,0,5.17-2.48,5.41-5.41,2.83-34.72,1.5-69.65-3.8-104.08-1.4-9.1-3.09-18.15-5.05-27.14-.62-2.85-3.95-4.52-6.65-3.78-2.95,.81-4.4,3.79-3.78,6.65h0Z"/>
    </g>
    <g>
      <path class="cls-4" d="M257.26,1044.57H22.21s0-712.43,0-712.43c19.83,10.57,56.04,26.45,103.82,28.84,63.19,3.16,110.7-19.09,131.22-30.28v713.87Z"/>
      <ellipse class="cls-2" cx="139.29" cy="341.96" rx="120.63" ry="42.54"/>
      <path class="cls-2" d="M24.62,325.54c-4.69,3.88-20.95,17.32-18.26,32.68,2.24,12.8,16.5,20.55,21.15,23.07,10.81,5.87,13.43,2.28,19.22,6.73,12.45,9.56,3.12,28.27,13.68,56.6,2.97,7.97,9.38,25.17,19.97,26.07,9.04,.76,17.82-10.64,21.85-18.86,9.85-20.06-1.92-34.43,8.65-49.03,3.91-5.39,12.38-12.77,20.19-11.54,24.07,3.82,29.64,87.56,30.28,98.06,2.85,46.82-2.83,98.83-4.33,112.48-.71,6.49-3.97,35.57,2.88,70.66,3.58,18.33,8.67,31.9,20.19,37.49,1.11,.54,11.67,5.51,18.75,1.44,14.75-8.49-.23-47.87-7.21-106.71-10.32-87.08,12.79-82.72,0-149.97-3.28-17.24-10.4-47.01,4.33-60.56,.82-.76,9.8-8.79,20.19-7.21,11.42,1.74,12.95,13.31,21.63,14.42,13.27,1.7,33.6-20.5,31.72-41.82-.52-5.92-3.05-15.11-16.1-27.27-30.22-28.17-71.76-30.23-101.89-31.72-20.27-1-41.07,2.21-82.67,8.65-16.43,2.54-30.84,5.28-44.22,16.34Z"/>
      <g>
        <path class="cls-5" d="M131.37,386.9c-4.76-.14-13.97,4.01-19.43,11.37-.05,.07-.09,.12-.12,.16-10.16,13.87-1.16,25.29-9.82,46.06-1.31,3.15-9.56,22.16-19.72,21.83-10.75-.35-17.95-22.23-19.34-26.07-10.22-28.33-1.19-47.04-13.24-56.6-5.61-4.45-8.15-.86-18.62-6.73-3.72-2.08-16.78-9.02-20.48-23.07-.55-2.08-1.21-5.54-.89-10.05-1.98,3.72-5.4,11.62-3.36,20.63,3.08,13.63,16.61,20.46,21.5,23.07,8.91,4.76,12.35,3.3,16.47,4.95,0,0,1.55,.69,3.08,1.78,6.21,4.43,5.62,35.73,13.49,57.23,1.82,4.97,8.99,24.56,20.72,25.43,9.34,.69,18.17-10.74,22.22-18.86,10.02-20.06-1.95-34.43,8.8-49.03,4.59-6.23,12.88-12.87,20.53-11.54,14.43,2.51,19.16,31.85,19.77,31.64,.74-.25-7.04-41.78-21.58-42.21Z"/>
        <path class="cls-5" d="M234.7,397c-10.57-2.13-12.18-10.37-21.2-11.38-8.64-.96-17.25,5.73-21.63,11.53-6.25,8.3-4.87,23.37-1.86,53.2,3.6,35.64,3.91,37.11,3.76,41.56-1,29.85-11.1,44.51-3.76,108.41,6.76,58.84,21.27,98.22,6.98,106.71-6.53,3.88-17.01-.9-18.15-1.44-11.08-5.22-14.76-16.97-15.57-19.82,.35,2.57,3.46,22.99,19.75,30.39,2.33,1.06,12.23,5.31,19.06,1.44,15-8.49-.24-47.87-7.33-106.71-10.5-87.08,13-82.72,0-149.97-3.33-17.24-10.58-47.01,4.4-60.56,4.59-4.16,12.99-9.21,20.53-7.21,6.22,1.65,6.82,6.47,13.04,8.33,11.63,3.49,25.28-8.81,24.75-9.85-.45-.89-10.5,7.85-22.78,5.37Z"/>
      </g>
      <path class="cls-5" d="M27.91,695.14c-2.81-.04,.65,28.7-10.18,79.5-8.48,39.75-18.92,61.13-9.99,91.03,3.77,12.64,11.37,28,16.33,27.12,5.86-1.03,6.24-24.41,6.45-44.82,.92-90.27,1.55-152.78-2.6-152.83Z"/>
      <path class="cls-5" d="M51.88,885.86c-4.79-.78-11.84,16.78-25.96,51.91-17.45,43.43-15.19,53.17-11.54,59.12,5.43,8.84,18.1,16.13,27.4,12.98,29.17-9.87,23.66-121.8,10.09-124.01Z"/>
      <path class="cls-5" d="M214.9,802.64c-12.88,2.63-6.42,74.91-5.77,82.19,3.83,42.87,6.86,72.09,28.84,87.96,12.63,9.12,31.45,13.78,37.49,7.21,5.55-6.04-2.95-18.01-11.54-41.82-17.65-48.92-7.68-70.23-30.28-112.48-5.83-10.91-12.97-24.25-18.75-23.07Z"/>
      <path class="cls-2" d="M46.11,887.57c-4.79-.78-11.84,16.78-25.96,51.91-17.45,43.43-15.19,53.17-11.54,59.12,5.43,8.84,18.1,16.13,27.4,12.98,29.17-9.87,23.66-121.8,10.09-124.01Z"/>
      <path class="cls-2" d="M209.13,784.24c-12.88,2.63-6.42,74.91-5.77,82.19,3.83,42.87,6.86,72.09,28.84,87.96,12.63,9.12,31.45,13.78,37.49,7.21,5.55-6.04-2.95-18.01-11.54-41.82-17.65-48.92-7.68-70.23-30.28-112.48-5.83-10.91-12.97-24.25-18.75-23.07Z"/>
      <path class="cls-2" d="M23.59,685.32c-2.81-.04,.65,28.7-10.18,79.5-8.48,39.75-18.92,61.13-9.99,91.03,3.77,12.64,11.37,28,16.33,27.12,5.86-1.03,6.24-24.41,6.45-44.82,.92-90.27,1.55-152.78-2.6-152.83Z"/>
      <g class="cls-8">
        <path class="cls-1" d="M49.95,493.17c-21.59,10.83-8.05,81.73,0,112.48,11.28,43.09,20.57,41.07,30.28,77.87,18.79,71.21-14.27,85.45,5.77,144.2,15.97,46.82,41.38,50.74,47.59,99.5,2.24,17.61,2.22,43,12.98,46.14,6.9,2.02,14.8-6.12,15.86-7.21,18.4-18.94,7.39-56.73-4.33-105.27-7.57-31.34-18.55-80.1-23.07-108.15-17.75-110.15,24.73-145.98-8.65-204.77-20.55-36.18-59.7-63.19-76.43-54.8Z"/>
      </g>
      <g class="cls-9">
        <path class="cls-1" d="M61.48,330.22c-2.69,.62-24.57,5.92-25.96,17.3-.83,6.78,5.86,13.83,11.54,17.3,12.68,7.76,23.51-.36,28.84,5.77,7.26,8.36-10.16,26.56-1.44,41.82,1.94,3.4,6.6,9.14,11.54,8.65,12-1.18,8.42-37.47,27.4-46.14,10.49-4.8,15.11,4.69,36.05,4.33,10.39-.18,13.4-2.59,49.03-15.86,30.83-11.49,37.76-13.11,37.49-15.86-.55-5.64-30.54-8-53.35-7.21-22.89,.79-21.7,4.18-37.49,4.33-40.25,.37-52.65-21.6-83.64-14.42Z"/>
      </g>
      <path class="cls-3" d="M129.15,299.29c-31.3-2.74-46.81-45.27-48.24-49.33-14.84-42.37,6.22-86.11,17.54-109.63,19.88-41.29,36.87-45.59,43.85-81.12C148.66,26.85,140.43,.55,143.4,0c2.96-.54,9.66,25.77,20.83,65.78,22.08,79.09,24.48,78.72,27.41,100.86,4.65,35.16,9.49,71.71-12.06,101.95-3.17,4.44-23.55,33.05-50.43,30.7Z"/>
      <path class="cls-6" d="M116.28,162.95c-10.33,22.22-17.26,37.54-17.3,59.12-.02,7.76-.11,47.63,23.07,57.68,12.67,5.5,25.88-.7,27.4-1.44,25.61-12.48,28.38-54.01,23.07-79.31-3.1-14.77-10.09-29.49-12.98-28.84-4.56,1.02,3.07,39.75,0,40.38-3.17,.65-22.2-38.55-12.98-79.31,4.33-19.14,13.12-30.79,11.54-31.72-2.51-1.49-25.09,27.47-41.82,63.45Z"/>
      <path class="cls-7" d="M131.26,226.39c7.31,33.56,10.61,67.9,9.83,102.24-.2,8.71-.66,17.42-1.37,26.1-.24,2.91,2.66,5.41,5.41,5.41,3.12,0,5.17-2.48,5.41-5.41,2.83-34.72,1.5-69.65-3.8-104.08-1.4-9.1-3.09-18.15-5.05-27.14-.62-2.85-3.95-4.52-6.65-3.78-2.95,.81-4.4,3.79-3.78,6.65h0Z"/>
    </g>
  </g>
</svg>