<?xml version="1.0" encoding="UTF-8"?>
<svg id="Vrstva_1" data-name="Vrstva 1" xmlns="http://www.w3.org/2000/svg" xmlns:xlink="http://www.w3.org/1999/xlink" viewBox="0 0 1149.87 580.36">
  <defs>
    <style>
      .cls-1, .cls-2 {
        fill: none;
      }

      .cls-3 {
        clip-path: url(#clippath);
      }

      .cls-4 {
        fill: #fff;
      }

      .cls-5, .cls-6 {
        fill: #b3b3b3;
      }

      .cls-7 {
        fill: #ccc;
      }

      .cls-8 {
        clip-path: url(#clippath-1);
      }

      .cls-9 {
        clip-path: url(#clippath-4);
      }

      .cls-10 {
        clip-path: url(#clippath-3);
      }

      .cls-11 {
        clip-path: url(#clippath-2);
      }

      .cls-12 {
        clip-path: url(#clippath-7);
      }

      .cls-13 {
        clip-path: url(#clippath-8);
      }

      .cls-14 {
        clip-path: url(#clippath-6);
      }

      .cls-15 {
        clip-path: url(#clippath-5);
      }

      .cls-16 {
        clip-path: url(#clippath-9);
      }

      .cls-17 {
        clip-path: url(#clippath-14);
      }

      .cls-18 {
        clip-path: url(#clippath-13);
      }

      .cls-19 {
        clip-path: url(#clippath-12);
      }

      .cls-20 {
        clip-path: url(#clippath-10);
      }

      .cls-21 {
        clip-path: url(#clippath-15);
      }

      .cls-22 {
        clip-path: url(#clippath-11);
      }

      .cls-23 {
        opacity: .5;
      }

      .cls-24 {
        fill: #1a1a18;
      }

      .cls-24, .cls-25, .cls-26, .cls-6, .cls-27 {
        fill-rule: evenodd;
      }

      .cls-25 {
        fill: #df0010;
      }

      .cls-26 {
        fill: #e1000f;
      }

      .cls-27 {
        fill: #f1f1f1;
      }

      .cls-2 {
        stroke: #fbfbfb;
        stroke-miterlimit: 22.93;
        stroke-width: .22px;
      }
    </style>
    <clipPath id="clippath">
      <rect class="cls-1" x="136.49" y="25.2" width="24.77" height="102.46"/>
    </clipPath>
    <clipPath id="clippath-1">
      <rect class="cls-1" x="159.96" width="26.79" height="106.73"/>
    </clipPath>
    <clipPath id="clippath-2">
      <rect class="cls-1" x="270.42" y="25.2" width="24.77" height="102.46"/>
    </clipPath>
    <clipPath id="clippath-3">
      <rect class="cls-1" x="293.89" width="26.79" height="106.73"/>
    </clipPath>
    <clipPath id="clippath-4">
      <rect class="cls-1" x="404.35" y="25.2" width="24.77" height="102.46"/>
    </clipPath>
    <clipPath id="clippath-5">
      <rect class="cls-1" x="427.82" width="26.79" height="106.73"/>
    </clipPath>
    <clipPath id="clippath-6">
      <rect class="cls-1" x="538.28" y="25.2" width="24.77" height="102.46"/>
    </clipPath>
    <clipPath id="clippath-7">
      <rect class="cls-1" x="561.75" width="26.79" height="106.73"/>
    </clipPath>
    <clipPath id="clippath-8">
      <rect class="cls-1" x="672.21" y="25.2" width="24.77" height="102.46"/>
    </clipPath>
    <clipPath id="clippath-9">
      <rect class="cls-1" x="695.68" width="26.79" height="106.73"/>
    </clipPath>
    <clipPath id="clippath-10">
      <rect class="cls-1" x="806.14" y="25.2" width="24.77" height="102.46"/>
    </clipPath>
    <clipPath id="clippath-11">
      <rect class="cls-1" x="829.61" width="26.79" height="106.73"/>
    </clipPath>
    <clipPath id="clippath-12">
      <rect class="cls-1" x="940.08" y="25.2" width="24.77" height="102.46"/>
    </clipPath>
    <clipPath id="clippath-13">
      <rect class="cls-1" x="963.55" width="26.79" height="106.73"/>
    </clipPath>
    <clipPath id="clippath-14">
      <rect class="cls-1" x="1074.01" y="25.2" width="24.77" height="102.46"/>
    </clipPath>
    <clipPath id="clippath-15">
      <rect class="cls-1" x="1097.48" width="26.79" height="106.73"/>
    </clipPath>
  </defs>
  <g>
    <g>
      <g>
        <path class="cls-27" d="M1088.04,132.54h20.05c22.98,0,41.77,18.79,41.77,41.77v364.28c0,22.97-18.79,41.77-41.77,41.77h-20.05c-22.01,0-40.18-17.25-41.67-38.9h-30.13v-34.68h30.03V204.42h-30.03v-34.68h30.28c2.29-20.85,20.09-37.2,41.52-37.2Z"/>
        <rect class="cls-7" x="1083.05" y="174.02" width="28.48" height="364.22" rx="11.41" ry="11.41"/>
        <rect class="cls-5" x="1016.24" y="169.74" width="9.87" height="34.68"/>
        <rect class="cls-5" x="1016.24" y="506.6" width="9.87" height="34.68"/>
      </g>
      <g>
        <path class="cls-27" d="M954.42,132.54h20.05c22.98,0,41.77,18.79,41.77,41.77v364.28c0,22.97-18.79,41.77-41.77,41.77h-20.05c-22.01,0-40.18-17.25-41.67-38.9h-30.13v-34.68h30.03V204.42h-30.03v-34.68h30.28c2.29-20.85,20.09-37.2,41.52-37.2Z"/>
        <rect class="cls-7" x="949.43" y="174.02" width="28.48" height="364.22" rx="11.41" ry="11.41"/>
        <rect class="cls-5" x="882.62" y="169.74" width="9.87" height="34.68"/>
        <rect class="cls-5" x="882.62" y="506.6" width="9.87" height="34.68"/>
      </g>
      <g>
        <path class="cls-27" d="M820.79,132.54h20.05c22.98,0,41.77,18.79,41.77,41.77v364.28c0,22.97-18.79,41.77-41.77,41.77h-20.05c-22.01,0-40.18-17.25-41.67-38.9h-30.13v-34.68h30.03V204.42h-30.03v-34.68h30.28c2.29-20.85,20.09-37.2,41.52-37.2Z"/>
        <rect class="cls-7" x="815.81" y="174.02" width="28.48" height="364.22" rx="11.41" ry="11.41"/>
        <rect class="cls-5" x="748.99" y="169.74" width="9.87" height="34.68"/>
        <rect class="cls-5" x="748.99" y="506.6" width="9.87" height="34.68"/>
      </g>
      <g>
        <path class="cls-27" d="M687.17,132.54h20.05c22.98,0,41.77,18.79,41.77,41.77v364.28c0,22.97-18.79,41.77-41.77,41.77h-20.05c-22.01,0-40.18-17.25-41.67-38.9h-30.13v-34.68h30.03V204.42h-30.03v-34.68h30.28c2.29-20.85,20.09-37.2,41.52-37.2Z"/>
        <rect class="cls-7" x="682.18" y="174.02" width="28.48" height="364.22" rx="11.41" ry="11.41"/>
        <rect class="cls-5" x="615.37" y="169.74" width="9.87" height="34.68"/>
        <rect class="cls-5" x="615.37" y="506.6" width="9.87" height="34.68"/>
      </g>
      <g>
        <path class="cls-27" d="M553.55,132.54h20.05c22.98,0,41.77,18.79,41.77,41.77v364.28c0,22.97-18.79,41.77-41.77,41.77h-20.05c-22.01,0-40.18-17.25-41.67-38.9h-30.13v-34.68h30.03V204.42h-30.03v-34.68h30.28c2.29-20.85,20.09-37.2,41.52-37.2Z"/>
        <rect class="cls-7" x="548.56" y="174.02" width="28.48" height="364.22" rx="11.41" ry="11.41"/>
        <rect class="cls-5" x="481.75" y="169.74" width="9.87" height="34.68"/>
        <rect class="cls-5" x="481.75" y="506.6" width="9.87" height="34.68"/>
      </g>
      <g>
        <path class="cls-27" d="M419.92,132.54h20.05c22.98,0,41.77,18.79,41.77,41.77v364.28c0,22.97-18.79,41.77-41.77,41.77h-20.05c-22.01,0-40.18-17.25-41.67-38.9h-30.13v-34.68h30.03V204.42h-30.03v-34.68h30.28c2.29-20.85,20.09-37.2,41.52-37.2Z"/>
        <rect class="cls-7" x="414.93" y="174.02" width="28.48" height="364.22" rx="11.41" ry="11.41"/>
        <rect class="cls-5" x="348.12" y="169.74" width="9.87" height="34.68"/>
        <rect class="cls-5" x="348.12" y="506.6" width="9.87" height="34.68"/>
      </g>
      <g>
        <path class="cls-27" d="M286.3,132.54h20.05c22.98,0,41.77,18.79,41.77,41.77v364.28c0,22.97-18.79,41.77-41.77,41.77h-20.05c-22.01,0-40.18-17.25-41.67-38.9h-30.13v-34.68h30.03V204.42h-30.03v-34.68h30.28c2.29-20.85,20.09-37.2,41.52-37.2Z"/>
        <rect class="cls-7" x="281.31" y="174.02" width="28.48" height="364.22" rx="11.41" ry="11.41"/>
        <rect class="cls-5" x="214.5" y="169.74" width="9.87" height="34.68"/>
        <rect class="cls-5" x="214.5" y="506.6" width="9.87" height="34.68"/>
      </g>
      <g>
        <path class="cls-27" d="M152.37,132.54h20.05c22.98,0,41.77,18.79,41.77,41.77v364.28c0,22.97-18.79,41.77-41.77,41.77h-20.05c-22.01,0-40.18-17.25-41.67-38.9h-30.13v-34.68h30.03V204.42h-30.03v-34.68h30.28c2.29-20.85,20.09-37.2,41.52-37.2Z"/>
        <rect class="cls-7" x="147.38" y="174.02" width="28.48" height="364.22" rx="11.41" ry="11.41"/>
        <rect class="cls-5" x="80.57" y="169.74" width="9.87" height="34.68"/>
        <rect class="cls-5" x="80.57" y="506.6" width="9.87" height="34.68"/>
      </g>
      <path class="cls-6" d="M101.39,204.42h-11.87l5.99-34.68h10.87s1.68,7.04,.5,17.34c-1.13,9.86-5.5,17.34-5.5,17.34Z"/>
    </g>
    <g>
      <circle class="cls-4" cx="49.23" cy="178.46" r="49.22" transform="translate(-117.99 99.04) rotate(-49.17)"/>
      <path class="cls-26" d="M53.11,212.37c16.59-.05,32.61-11.01,33.89-28.4-1.58,21.32-20.14,37.32-41.46,35.75-21.32-1.58-37.32-20.14-35.75-41.46,1.58-21.32,20.14-37.32,41.46-35.75-.69,9.38-1.04,14.06-1.04,14.06-9.55,1.09-17.81,2.71-21.87,7.75-15.75,19.58-3.15,48.13,24.76,48.03Z"/>
      <polygon class="cls-24" points="44.14 111.81 54.33 111.81 54.33 129.83 49.41 135.7 44.14 129.83 44.14 111.81"/>
    </g>
  </g>
  <g>
    <g class="cls-23">
      <g class="cls-3">
        <path class="cls-25" d="M155.31,36.17c-5.52-5.57-8.29-8.35-8.29-8.35,5.14,13.68,4.7,26.1-1.31,37.26-11.43,12.03-11.43,27.12,0,45.28,8.14,9.36,12.22,14.04,12.22,14.04-4.65-11.92-6.98-17.88-6.98-17.88-4.99-13.77-4.77-23.91,.65-30.41,10.61-13.97,11.84-27.28,3.71-39.93Z"/>
        <path class="cls-2" d="M155.31,36.17c-5.52-5.57-8.29-8.35-8.29-8.35,5.14,13.68,4.7,26.1-1.31,37.26-11.43,12.03-11.43,27.12,0,45.28,8.14,9.36,12.22,14.04,12.22,14.04-4.65-11.92-6.98-17.88-6.98-17.88-4.99-13.77-4.77-23.91,.65-30.41,10.61-13.97,11.84-27.28,3.71-39.93Z"/>
      </g>
    </g>
    <g class="cls-23">
      <g class="cls-8">
        <path class="cls-25" d="M166.36,95.44c6,5.82,9,8.74,9,8.74-5.58-14.31-5.1-27.3,1.42-38.97,12.41-12.58,12.41-28.36,0-47.36-8.84-9.79-13.26-14.68-13.26-14.68,5.05,12.46,7.58,18.7,7.58,18.7,5.42,14.4,5.18,25-.71,31.81-11.52,14.61-12.86,28.53-4.03,41.77Z"/>
        <path class="cls-2" d="M166.36,95.44c6,5.82,9,8.74,9,8.74-5.58-14.31-5.1-27.3,1.42-38.97,12.41-12.58,12.41-28.36,0-47.36-8.84-9.79-13.26-14.68-13.26-14.68,5.05,12.46,7.58,18.7,7.58,18.7,5.42,14.4,5.18,25-.71,31.81-11.52,14.61-12.86,28.53-4.03,41.77Z"/>
      </g>
    </g>
    <g class="cls-23">
      <g class="cls-11">
        <path class="cls-25" d="M289.24,36.17c-5.52-5.57-8.29-8.35-8.29-8.35,5.14,13.68,4.7,26.1-1.31,37.26-11.43,12.03-11.43,27.12,0,45.28,8.14,9.36,12.22,14.04,12.22,14.04-4.65-11.92-6.98-17.88-6.98-17.88-4.99-13.77-4.77-23.91,.65-30.41,10.61-13.97,11.84-27.28,3.71-39.93Z"/>
        <path class="cls-2" d="M289.24,36.17c-5.52-5.57-8.29-8.35-8.29-8.35,5.14,13.68,4.7,26.1-1.31,37.26-11.43,12.03-11.43,27.12,0,45.28,8.14,9.36,12.22,14.04,12.22,14.04-4.65-11.92-6.98-17.88-6.98-17.88-4.99-13.77-4.77-23.91,.65-30.41,10.61-13.97,11.84-27.28,3.71-39.93Z"/>
      </g>
    </g>
    <g class="cls-23">
      <g class="cls-10">
        <path class="cls-25" d="M300.29,95.44c6,5.82,9,8.74,9,8.74-5.58-14.31-5.1-27.3,1.42-38.97,12.41-12.58,12.41-28.36,0-47.36-8.84-9.79-13.26-14.68-13.26-14.68,5.05,12.46,7.58,18.7,7.58,18.7,5.42,14.4,5.18,25-.71,31.81-11.52,14.61-12.86,28.53-4.03,41.77Z"/>
        <path class="cls-2" d="M300.29,95.44c6,5.82,9,8.74,9,8.74-5.58-14.31-5.1-27.3,1.42-38.97,12.41-12.58,12.41-28.36,0-47.36-8.84-9.79-13.26-14.68-13.26-14.68,5.05,12.46,7.58,18.7,7.58,18.7,5.42,14.4,5.18,25-.71,31.81-11.52,14.61-12.86,28.53-4.03,41.77Z"/>
      </g>
    </g>
    <g class="cls-23">
      <g class="cls-9">
        <path class="cls-25" d="M423.17,36.17c-5.52-5.57-8.29-8.35-8.29-8.35,5.14,13.68,4.7,26.1-1.31,37.26-11.43,12.03-11.43,27.12,0,45.28,8.14,9.36,12.22,14.04,12.22,14.04-4.65-11.92-6.98-17.88-6.98-17.88-4.99-13.77-4.77-23.91,.65-30.41,10.61-13.97,11.84-27.28,3.71-39.93Z"/>
        <path class="cls-2" d="M423.17,36.17c-5.52-5.57-8.29-8.35-8.29-8.35,5.14,13.68,4.7,26.1-1.31,37.26-11.43,12.03-11.43,27.12,0,45.28,8.14,9.36,12.22,14.04,12.22,14.04-4.65-11.92-6.98-17.88-6.98-17.88-4.99-13.77-4.77-23.91,.65-30.41,10.61-13.97,11.84-27.28,3.71-39.93Z"/>
      </g>
    </g>
    <g class="cls-23">
      <g class="cls-15">
        <path class="cls-25" d="M434.22,95.44c6,5.82,9,8.74,9,8.74-5.58-14.31-5.1-27.3,1.42-38.97,12.41-12.58,12.41-28.36,0-47.36-8.84-9.79-13.26-14.68-13.26-14.68,5.05,12.46,7.58,18.7,7.58,18.7,5.42,14.4,5.18,25-.71,31.81-11.52,14.61-12.86,28.53-4.03,41.77Z"/>
        <path class="cls-2" d="M434.22,95.44c6,5.82,9,8.74,9,8.74-5.58-14.31-5.1-27.3,1.42-38.97,12.41-12.58,12.41-28.36,0-47.36-8.84-9.79-13.26-14.68-13.26-14.68,5.05,12.46,7.58,18.7,7.58,18.7,5.42,14.4,5.18,25-.71,31.81-11.52,14.61-12.86,28.53-4.03,41.77Z"/>
      </g>
    </g>
    <g class="cls-23">
      <g class="cls-14">
        <path class="cls-25" d="M557.1,36.17c-5.52-5.57-8.29-8.35-8.29-8.35,5.14,13.68,4.7,26.1-1.31,37.26-11.43,12.03-11.43,27.12,0,45.28,8.14,9.36,12.22,14.04,12.22,14.04-4.65-11.92-6.98-17.88-6.98-17.88-4.99-13.77-4.77-23.91,.65-30.41,10.61-13.97,11.84-27.28,3.71-39.93Z"/>
        <path class="cls-2" d="M557.1,36.17c-5.52-5.57-8.29-8.35-8.29-8.35,5.14,13.68,4.7,26.1-1.31,37.26-11.43,12.03-11.43,27.12,0,45.28,8.14,9.36,12.22,14.04,12.22,14.04-4.65-11.92-6.98-17.88-6.98-17.88-4.99-13.77-4.77-23.91,.65-30.41,10.61-13.97,11.84-27.28,3.71-39.93Z"/>
      </g>
    </g>
    <g class="cls-23">
      <g class="cls-12">
        <path class="cls-25" d="M568.15,95.44c6,5.82,9,8.74,9,8.74-5.58-14.31-5.1-27.3,1.42-38.97,12.41-12.58,12.41-28.36,0-47.36-8.84-9.79-13.26-14.68-13.26-14.68,5.05,12.46,7.58,18.7,7.58,18.7,5.42,14.4,5.18,25-.71,31.81-11.52,14.61-12.86,28.53-4.03,41.77Z"/>
        <path class="cls-2" d="M568.15,95.44c6,5.82,9,8.74,9,8.74-5.58-14.31-5.1-27.3,1.42-38.97,12.41-12.58,12.41-28.36,0-47.36-8.84-9.79-13.26-14.68-13.26-14.68,5.05,12.46,7.58,18.7,7.58,18.7,5.42,14.4,5.18,25-.71,31.81-11.52,14.61-12.86,28.53-4.03,41.77Z"/>
      </g>
    </g>
    <g class="cls-23">
      <g class="cls-13">
        <path class="cls-25" d="M691.04,36.17c-5.52-5.57-8.29-8.35-8.29-8.35,5.14,13.68,4.7,26.1-1.31,37.26-11.43,12.03-11.43,27.12,0,45.28,8.14,9.36,12.22,14.04,12.22,14.04-4.65-11.92-6.98-17.88-6.98-17.88-4.99-13.77-4.77-23.91,.65-30.41,10.61-13.97,11.84-27.28,3.71-39.93Z"/>
        <path class="cls-2" d="M691.04,36.17c-5.52-5.57-8.29-8.35-8.29-8.35,5.14,13.68,4.7,26.1-1.31,37.26-11.43,12.03-11.43,27.12,0,45.28,8.14,9.36,12.22,14.04,12.22,14.04-4.65-11.92-6.98-17.88-6.98-17.88-4.99-13.77-4.77-23.91,.65-30.41,10.61-13.97,11.84-27.28,3.71-39.93Z"/>
      </g>
    </g>
    <g class="cls-23">
      <g class="cls-16">
        <path class="cls-25" d="M702.09,95.44c6,5.82,9,8.74,9,8.74-5.58-14.31-5.1-27.3,1.42-38.97,12.41-12.58,12.41-28.36,0-47.36-8.84-9.79-13.26-14.68-13.26-14.68,5.05,12.46,7.58,18.7,7.58,18.7,5.42,14.4,5.18,25-.71,31.81-11.52,14.61-12.86,28.53-4.03,41.77Z"/>
        <path class="cls-2" d="M702.09,95.44c6,5.82,9,8.74,9,8.74-5.58-14.31-5.1-27.3,1.42-38.97,12.41-12.58,12.41-28.36,0-47.36-8.84-9.79-13.26-14.68-13.26-14.68,5.05,12.46,7.58,18.7,7.58,18.7,5.42,14.4,5.18,25-.71,31.81-11.52,14.61-12.86,28.53-4.03,41.77Z"/>
      </g>
    </g>
    <g class="cls-23">
      <g class="cls-20">
        <path class="cls-25" d="M824.97,36.17c-5.52-5.57-8.29-8.35-8.29-8.35,5.14,13.68,4.7,26.1-1.31,37.26-11.43,12.03-11.43,27.12,0,45.28,8.14,9.36,12.22,14.04,12.22,14.04-4.65-11.92-6.98-17.88-6.98-17.88-4.99-13.77-4.77-23.91,.65-30.41,10.61-13.97,11.84-27.28,3.71-39.93Z"/>
        <path class="cls-2" d="M824.97,36.17c-5.52-5.57-8.29-8.35-8.29-8.35,5.14,13.68,4.7,26.1-1.31,37.26-11.43,12.03-11.43,27.12,0,45.28,8.14,9.36,12.22,14.04,12.22,14.04-4.65-11.92-6.98-17.88-6.98-17.88-4.99-13.77-4.77-23.91,.65-30.41,10.61-13.97,11.84-27.28,3.71-39.93Z"/>
      </g>
    </g>
    <g class="cls-23">
      <g class="cls-22">
        <path class="cls-25" d="M836.02,95.44c6,5.82,9,8.74,9,8.74-5.58-14.31-5.1-27.3,1.42-38.97,12.41-12.58,12.41-28.36,0-47.36-8.84-9.79-13.26-14.68-13.26-14.68,5.05,12.46,7.58,18.7,7.58,18.7,5.42,14.4,5.18,25-.71,31.81-11.52,14.61-12.86,28.53-4.03,41.77Z"/>
        <path class="cls-2" d="M836.02,95.44c6,5.82,9,8.74,9,8.74-5.58-14.31-5.1-27.3,1.42-38.97,12.41-12.58,12.41-28.36,0-47.36-8.84-9.79-13.26-14.68-13.26-14.68,5.05,12.46,7.58,18.7,7.58,18.7,5.42,14.4,5.18,25-.71,31.81-11.52,14.61-12.86,28.53-4.03,41.77Z"/>
      </g>
    </g>
    <g class="cls-23">
      <g class="cls-19">
        <path class="cls-25" d="M958.9,36.17c-5.52-5.57-8.29-8.35-8.29-8.35,5.14,13.68,4.7,26.1-1.31,37.26-11.43,12.03-11.43,27.12,0,45.28,8.14,9.36,12.22,14.04,12.22,14.04-4.65-11.92-6.98-17.88-6.98-17.88-4.99-13.77-4.77-23.91,.65-30.41,10.61-13.97,11.84-27.28,3.71-39.93Z"/>
        <path class="cls-2" d="M958.9,36.17c-5.52-5.57-8.29-8.35-8.29-8.35,5.14,13.68,4.7,26.1-1.31,37.26-11.43,12.03-11.43,27.12,0,45.28,8.14,9.36,12.22,14.04,12.22,14.04-4.65-11.92-6.98-17.88-6.98-17.88-4.99-13.77-4.77-23.91,.65-30.41,10.61-13.97,11.84-27.28,3.71-39.93Z"/>
      </g>
    </g>
    <g class="cls-23">
      <g class="cls-18">
        <path class="cls-25" d="M969.95,95.44c6,5.82,9,8.74,9,8.74-5.58-14.31-5.1-27.3,1.42-38.97,12.41-12.58,12.41-28.36,0-47.36-8.84-9.79-13.26-14.68-13.26-14.68,5.05,12.46,7.58,18.7,7.58,18.7,5.42,14.4,5.18,25-.71,31.81-11.52,14.61-12.86,28.53-4.03,41.77Z"/>
        <path class="cls-2" d="M969.95,95.44c6,5.82,9,8.74,9,8.74-5.58-14.31-5.1-27.3,1.42-38.97,12.41-12.58,12.41-28.36,0-47.36-8.84-9.79-13.26-14.68-13.26-14.68,5.05,12.46,7.58,18.7,7.58,18.7,5.42,14.4,5.18,25-.71,31.81-11.52,14.61-12.86,28.53-4.03,41.77Z"/>
      </g>
    </g>
    <g class="cls-23">
      <g class="cls-17">
        <path class="cls-25" d="M1092.83,36.17c-5.52-5.57-8.29-8.35-8.29-8.35,5.14,13.68,4.7,26.1-1.31,37.26-11.43,12.03-11.43,27.12,0,45.28,8.14,9.36,12.22,14.04,12.22,14.04-4.65-11.92-6.98-17.88-6.98-17.88-4.99-13.77-4.77-23.91,.65-30.41,10.61-13.97,11.84-27.28,3.71-39.93Z"/>
        <path class="cls-2" d="M1092.83,36.17c-5.52-5.57-8.29-8.35-8.29-8.35,5.14,13.68,4.7,26.1-1.31,37.26-11.43,12.03-11.43,27.12,0,45.28,8.14,9.36,12.22,14.04,12.22,14.04-4.65-11.92-6.98-17.88-6.98-17.88-4.99-13.77-4.77-23.91,.65-30.41,10.61-13.97,11.84-27.28,3.71-39.93Z"/>
      </g>
    </g>
    <g class="cls-23">
      <g class="cls-21">
        <path class="cls-25" d="M1103.88,95.44c6,5.82,9,8.74,9,8.74-5.58-14.31-5.1-27.3,1.42-38.97,12.41-12.58,12.41-28.36,0-47.36-8.84-9.79-13.26-14.68-13.26-14.68,5.05,12.46,7.58,18.7,7.58,18.7,5.42,14.4,5.18,25-.71,31.81-11.52,14.61-12.86,28.53-4.03,41.77Z"/>
        <path class="cls-2" d="M1103.88,95.44c6,5.82,9,8.74,9,8.74-5.58-14.31-5.1-27.3,1.42-38.97,12.41-12.58,12.41-28.36,0-47.36-8.84-9.79-13.26-14.68-13.26-14.68,5.05,12.46,7.58,18.7,7.58,18.7,5.42,14.4,5.18,25-.71,31.81-11.52,14.61-12.86,28.53-4.03,41.77Z"/>
      </g>
    </g>
  </g>
</svg>