<?xml version="1.0" encoding="UTF-8"?>
<svg xmlns="http://www.w3.org/2000/svg" viewBox="0 0 561.1 1106.15">
  <defs>
    <style>
      .cls-1 {
        fill: #00548f;
      }

      .cls-2 {
        fill: #00716f;
      }

      .cls-3 {
        fill: #f6a16c;
      }

      .cls-4 {
        fill: #fff;
      }

      .cls-5 {
        fill: #ffa47f;
      }

      .cls-6 {
        fill: #ffbe7d;
      }

      .cls-7 {
        stroke: #ffbe7d;
        stroke-width: 18.65px;
      }

      .cls-7, .cls-8, .cls-9, .cls-10 {
        fill: none;
      }

      .cls-7, .cls-8, .cls-10 {
        stroke-miterlimit: 10;
      }

      .cls-11 {
        fill: #8ecbff;
        fill-rule: evenodd;
        stroke-miterlimit: 22.93;
        stroke-width: 23px;
      }

      .cls-11, .cls-8 {
        stroke: #fff;
      }

      .cls-12 {
        mix-blend-mode: lighten;
        opacity: .74;
      }

      .cls-8 {
        stroke-width: 21.48px;
      }

      .cls-8, .cls-9 {
        stroke-linecap: round;
      }

      .cls-9 {
        stroke: #00548f;
        stroke-linejoin: round;
        stroke-width: 15px;
      }

      .cls-13 {
        isolation: isolate;
      }

      .cls-10 {
        stroke: #00716f;
        stroke-width: 71px;
      }
    </style>
  </defs>
  <g class="cls-13">
    <g id="Vrstva_1" data-name="Vrstva 1">
      <g id="pytlik">
        <line class="cls-7" x1="232.3" y1="818.65" x2="232.3" y2="1062.84"/>
        <line class="cls-7" x1="329.14" y1="820.51" x2="329.14" y2="1062.84"/>
        <path class="cls-4" d="M417.41,746.16c0,75.1-60.88,135.99-135.99,135.99s-135.99-60.88-135.99-135.99,60.88-170.74,135.99-170.74,135.99,95.64,135.99,170.74Z"/>
        <g>
          <line class="cls-10" x1="328.1" y1="827.38" x2="328.1" y2="934.45"/>
          <line class="cls-10" x1="227.43" y1="827.38" x2="227.43" y2="934.45"/>
        </g>
        <path class="cls-6" d="M318.69,546.99h-74.54v47.74h0c.08,20.5,16.72,37.1,37.24,37.1s37.16-16.6,37.24-37.1h.04v-47.74Z"/>
        <path class="cls-2" d="M281.42,882.15c58.51,0,108.38-36.96,127.56-88.8H153.86c19.19,51.84,69.06,88.8,127.56,88.8Z"/>
        <circle class="cls-6" cx="439.44" cy="423.35" r="59.73"/>
        <circle class="cls-6" cx="120.88" cy="423.35" r="59.73"/>
        <rect class="cls-6" x="102.19" y="281.16" width="355.09" height="285.38" rx="142.69" ry="142.69"/>
        <path class="cls-1" d="M202.95,188.82h53.15c55.86,0,101.21,45.35,101.21,101.21h-53.15c-55.86,0-101.21-45.35-101.21-101.21h0Z"/>
        <polyline class="cls-9" points="392.98 219.51 357.31 290.03 402.94 264.31"/>
        <circle class="cls-5" cx="365.23" cy="476.9" r="36.51"/>
        <circle class="cls-5" cx="185.6" cy="476.9" r="36.51"/>
        <circle class="cls-1" cx="310.27" cy="437.98" r="10.53"/>
        <circle class="cls-1" cx="251.29" cy="437.98" r="10.53"/>
        <path class="cls-3" d="M307.68,505.99c0,9.23-13.06,23.73-29.18,23.73s-29.18-14.51-29.18-23.73,13.06-9.68,29.18-9.68,29.18,.45,29.18,9.68Z"/>
        <rect class="cls-2" x="289.07" y="1030.44" width="114.34" height="75.71" rx="37.86" ry="37.86"/>
        <rect class="cls-2" x="156.96" y="1030.44" width="114.34" height="75.71" rx="37.86" ry="37.86"/>
        <g>
          <g class="cls-12">
            <path class="cls-11" d="M171.53,11.72c6.45,7.54,40.9,43.31,48.32,42.34,10.47-1.38,30.48-1.79,38.7-8.42,12.88-10.41,56,4.19,69.25,12,26.1,15.37,48.87-5.11,83.46,10.57,13.3,6.03,46.11,13.43,57.57,22.7,9.25,7.47,27.47-13.68,38.55-22.01,13.33-10.02,4.26-4.35,13.49,24.16,9.44,29.15,7.59,67.48-10.48,92.02-42.29,57.44,31.91,75.19-24.66,281.23-4.79,17.45-15.3,71.33-30.68,73.13-19.28,2.24-147.11,13.68-188.19,11.02-4.28-.28-72.39-30.37-72.71-30.32-39.48,6.28-32.78-31.81-104.19,12.64-4.55-34.55,14.24-18.36-24.59-50.38-49.17-40.55,16.54-218.92,42.47-300.62,10.02-31.56,30.34-110.07,47.35-132.95,6.34-8.51,13.67-40.21,16.36-37.08Z"/>
          </g>
          <path class="cls-4" d="M333.92,101.81c-27.83,5.78-56.32,11.01-83.92,16.67,.23-.02,1.38-.59,1.76-1.22,.62-.98,.16-.24,.29-.44l-.03,.06-.13,.25-.26,.5c-8.39,15.69-19.86,29.39-30.86,43.07-10.94,13.49-22.17,26.56-32.31,40.51-4.77,6.7-9.48,13.44-12.47,20.86-1.01,2.55-1.61,5.25-2.44,7.84-3.58,11.45-9.08,22.38-14.34,32.89-2.5,5.08-4.94,10.14-6.07,14.49l-9.94-9.46c4.67-1.87,9.17-4.16,13.7-6.41,14.09-7.18,28.68-14.87,41.8-23.31,2.06-1.34,4.09-2.72,5.99-4.24,0,0,.67-.52,.67-.52,.1-.08,.25-.18,.31-.25,.57-.6,1.05-.92,1.59-1.59,11.32-13.31,22.49-26.53,34.67-39.22,3.87-4,7.79-7.95,12.18-11.84,4.48-3.73,9.65-8.64,16.15-8.2,5.91,.55,9.23,5.92,8.94,10.88-.19,7.11-2.21,13.5-4.39,19.92-1.9,5.42-4.03,10.61-6.24,15.71-7.66,18.11-17.47,34.95-25.06,52.86-.18,.49-.33,.96-.39,1.18-.04,.11-.02,.13,0-.13,.02-.34,.02-.63-.03-.98-.43-4.6-5.98-7.69-9.97-5.5,3.44-2.71,6.87-6.74,10.05-10.21,6.82-7.84,13.93-15.35,19.23-24.49,5.49-9.24,10.06-19.46,16.34-28.56,4.87-7.1,10.57-13.74,17.08-19.39,.75-.67,2.37-2.08,3.14-2.74,4.46-3.6,7.65-7.69,11.8-11.84,2.47-2.31,6.08-3.04,9.08-1.29,2.96,1.73,4.87,4.51,7.02,6.96,8.48,10.34,17.62,20.46,27.01,29.98,.72,.78,3.59,3.57,4.35,4.41,9.53,10.49,18.93,21.52,28.57,31.86,3.7,3.95,7.42,7.89,11.28,11.68,3.42,3.21,6.75,6.7,10.92,8.94,.6,.27,1.26,.52,1.94,.38-.66,.22-1.38,.04-2.02-.17-4.47-1.76-8.19-4.99-11.96-7.88-4.26-3.41-8.38-6.99-12.41-10.66-10.52-9.5-20.8-19.63-30.98-29.48-.8-.76-3.63-3.17-4.52-3.98-8.22-7.24-16.24-14.76-23.81-22.71,0,0-5.62-5.96-5.62-5.96-1.46-1.52-2.8-3.08-4.4-4.32-.19-.17-.14-.05-.15-.09,.66,.38,1.63,.38,2.31,.09,.15-.03,.28-.09,.4-.18,.02-.01,0,0,0,0v.02c-.74,.79-1.59,1.85-2.55,3.06-3.41,4.39-7.59,8.43-11.63,12.3-5.53,5.32-10.3,11.32-14.35,17.84-5.64,9.08-9.59,18.96-14.87,28.58-6.68,12.36-16.33,23.05-25.52,33.71-2.77,2.91-5.43,6.17-9.25,8-4.3,2.03-9.86-.05-11.38-4.82-1.02-2.83-.19-6.16,.69-8.7,1.21-3.5,2.75-6.91,4.18-10.12,2.3-5.06,4.64-9.97,6.96-14.87,6.8-14.56,13.82-28.88,18.96-43.9,1.54-4.76,3.18-9.96,3.34-14.72,.08,3.26,4.16,7.04,8.28,5.97,.09-.01,.17-.04,.25-.07,.11-.02-.09,.03-.42,.25-5.99,4.1-11.03,9.63-16.29,14.97-11.49,12.07-22.61,24.9-33.49,37.66-1.61,1.93-3.54,3.81-5.58,5.33-2.28,1.78-4.93,3.57-7.35,5.09-14.4,8.98-28.76,16.38-43.83,23.65-4.42,2.11-8.92,4.2-13.5,6.07-2.87,1.05-13.86,5.01-16.68,6.04,0,0,4.26-14.6,4.26-14.6,2-6.85,4.9-12.19,7.63-17.44,5.39-10.07,10.68-19.81,14.38-30.43,.54-1.55,1.57-4.78,2.12-6.27,1.4-3.89,3.43-7.58,5.45-10.93,13.01-20.38,29.41-36.71,45.16-54.41,11.79-13.2,23.94-26.11,33.24-41.06,.84-1.04,1.87-1.34,2.83-1.47,0,0,.58-.09,.58-.09l2.21-.31c27.35-3.5,54.85-6.5,82.3-9.05h0Z"/>
          <path class="cls-4" d="M480.1,107.93c-8.41,2.82-21.79,9.84-24.57,18.66-1.46,5.93,4.75,15.07,7.97,20.07,4.72,7.01,12.92,16.96,18.31,23.72,3.09,4,6.52,8.15,8.63,13.01,3.21,7.38-1.54,14.97-9.73,14.69-5.55-.3-10.35-2.64-15.03-4.6-3.6-1.61-7.07-3.38-10.56-5.1-5.43-2.69-10.89-4.76-16.8-6.93-15.36-5.62-36.52-12.38-38.51-31.93-1.27-16.32,8.39-32.25,17.47-44.78-.67,2.53-1.46,4.98-2.15,7.46-2.04,7.19-4.06,14.75-4.86,22.02-1.96,16.75,3.56,22.66,18.81,27.57,11.51,3.7,24.02,6.71,35.18,12.23,5.4,2.53,11.41,5.72,16.98,7.21-1.21,0-2.51,.48-3.64,1.28-2.07,1.49-3.45,4.54-2.71,6.93-.46-1.19-1.11-2.17-1.9-3.45-4.08-6.26-8.68-12.34-12.84-18.8-5.87-9.08-11.64-18.78-14.09-29.56-1.61-6.68-.88-13.39,3.91-18.62,7.28-7.79,19.82-11.43,30.15-11.09h0Z"/>
          <path class="cls-4" d="M311.98,331.41c-5.69-2.01-14.22-6.41-19.81-3.29-3.5,2.48-5.1,6.55-6.96,10.45-6.22,14.1-11.21,28.69-19.16,42.1-2.92,4.62-6.32,8.72-9.68,12.82-3.39,4.19-8.36,10.4-11.71,14.59-.31,.38-.66,.87-.68,.92,.04-.08,.08-.13,.25-.5,1.36-3.2,.26-7.17-2.5-9.36-2.14-1.69-4.78-2.22-7.19-1.53-.06,.02-.42,.14-.4,.15,1.48-.75,2.98-1.76,4.49-2.72,6.28-4.08,12.84-8.49,19.36-12.32,4.95-2.81,9.38-5.4,15.06-7.33,1.99-.66,5.29-1.51,8.16-1.05,4.49,.49,8.28,4.63,8.23,9.2,.03,.66,.06,2.44,.06,3.12-.1,11.61-1.13,23.08-2.07,34.45-.51,6.28-1.2,12.51-1.35,18.76-.01,.94,0,1.81,.13,2.71,.04,.14-.06,.11,.08,.32,1.15,2.25,3.24,3.25,5.77,3.27-1.21,.39-2.54,.72-3.98,.45-1.81-.41-3.73-1.55-4.58-3.2-1.03-2.18-1.51-4.57-2.02-6.87-3.48-17.07-4-34.6-6.14-51.65,0,0-.06-.4-.06-.4,.05,2.31,2.65,4.28,4.47,4.34,.09,.03-.75,.26-1.53,.63-12.59,6.23-23.51,16.02-35.78,23.14-4.3,2.58-9.96,2.45-13.1-2.09-1.79-2.6-1.95-5.93-.71-8.71,1.18-2.74,3.47-5.03,5.2-7.27,4.76-5.83,10.08-11.81,14.98-17.28,6.41-6.99,10.88-15.76,15.78-23.88,5.59-9.09,9.94-17.9,17.28-26.16,10.15-11.03,21.13-4.15,30.11,4.21h0Z"/>
          <path class="cls-4" d="M79.56,474.15c1.17-23.01,28.01-47.43,44.39-61.62,14.15-12.22,29.03-22.72,42.82-35.04,4.49-4.11,8.68-8.39,12.29-13.84-.04,1.21-.09,2.48-.23,3.7-4,22.69-27.28,43.68-43.84,58.12-9.54,8.13-19.33,15.67-28.91,23.28-9.67,7.84-19.16,14.99-26.52,25.4h0Z"/>
          <path class="cls-4" d="M95.69,480.83c3.07-1.11,5.39-3.7,7.96-5.65,0,0,7.51-6.36,7.51-6.36,34.48-28.95,71.71-55.16,112.91-73.67,0,0,1.14-.52,1.14-.52,.37-.19,.79-.32,1.08-.6-.71,1.57-1.92,2.83-2.94,4.19-7.41,9.01-15.93,17.09-24.66,24.74-25.12,21.42-52.69,40.2-83.27,53-4.71,1.85-9.54,3.61-14.54,4.66-1.69,.27-3.52,.75-5.2,.21h0Z"/>
          <path class="cls-4" d="M465.53,301.74c.17-.09,.35,.08,.47,.18,.37,.34,.65,.76,.93,1.16,2.35,3.69,4.01,7.81,5.57,11.85,9.84,27,13.26,55.79,13.8,84.33,.07,3.07,.07,9,.28,12,.02,.22,.04,.45,.04,.59,0,.06,0,.13-.06,.12-.04,.03-.14-.08-.43-.21l.92,3.2c-1.84,2.17-3.71,4.29-5.78,6.28,.25-2.86,.72-5.65,1.26-8.44l.92,3.2c-.83-.49-1.13-.9-1.61-1.46-1.5-1.97-2.55-4.16-3.57-6.32-3.03-6.75-5.22-13.83-7.03-20.9-6.3-25.66-8.32-52.14-5.99-78.44,.09-.76,.4-4.58,.46-5.45,.02-.45,.05-.9,0-1.34-.03-.13-.03-.3-.18-.34h0Z"/>
          <path class="cls-4" d="M413.32,325.43c21.86,26.08,38.14,56.17,52.32,86.88,.69,1.48,1.64,3.34,2.42,4.78,2.47,4.04,4.93,8.27,6.71,12.72,.42,1.16,.93,2.34,1.03,3.59,0,.17,.01,.43-.17,.52,.07-.16-.07-.29-.16-.4-1.46-1.38-4.33-3.23-6-4.44,0,0-6.47-4.58-6.47-4.58-22.46-16.95-49.05-70.96-49.67-99.07h0Z"/>
          <path class="cls-4" d="M369.47,375.17c2.41,.03,4.83,.94,6.99,1.95,3.64,1.69,7.01,3.93,10.22,6.21,14.84,10.86,27.55,24.53,39.81,37.76,10.72,11.25,19.92,23.16,32.08,32.1,7.11,5.04,14.06,11.03,18.13,18.86-8.24-4.57-16.46-7.26-25.11-10.26-9.24-3.57-17.17-9.77-24.38-16.08-13.77-12.34-25.48-26.85-36.13-41.68-5.77-7.93-10.94-16.24-16.88-24.01-1.37-1.77-2.91-3.55-4.75-4.86h0Z"/>
        </g>
        <g>
          <g>
            <rect class="cls-6" x="452.75" y="494.9" width="68.96" height="21.22" rx="10.61" ry="10.61" transform="translate(61.52 -52.79) rotate(6.62)"/>
            <rect class="cls-6" x="459.35" y="446.87" width="92.15" height="60.07" rx="30.03" ry="30.03" transform="translate(565.46 -215.41) rotate(51.62)"/>
          </g>
          <path class="cls-8" d="M530.41,505.51c91.55,80.85-161.7,169.8-161.7,169.8"/>
          <g>
            <rect class="cls-6" x="33.24" y="498.98" width="68.96" height="21.22" rx="10.61" ry="10.61" transform="translate(246.13 991.7) rotate(167.26)"/>
            <rect class="cls-6" x=".5" y="453.05" width="92.15" height="60.07" rx="30.03" ry="30.03" transform="translate(479.94 701.56) rotate(122.26)"/>
          </g>
          <path class="cls-8" d="M26.12,515.02c-80.2,161.55,179.28,160.29,179.28,160.29"/>
        </g>
      </g>
    </g>
  </g>
</svg>