<?xml version="1.0" encoding="UTF-8"?>
<svg xmlns="http://www.w3.org/2000/svg" xmlns:xlink="http://www.w3.org/1999/xlink" viewBox="0 0 3193.69 1250.79">
  <defs>
    <style>
      .cls-1, .cls-2 {
        fill: #fff;
      }

      .cls-3, .cls-4 {
        fill: #ffcea9;
      }

      .cls-5 {
        fill: #fcbc7e;
      }

      .cls-6, .cls-7 {
        fill: #8ecbff;
      }

      .cls-8 {
        fill: #05716f;
      }

      .cls-9 {
        fill: #272314;
      }

      .cls-7 {
        opacity: .7;
      }

      .cls-7, .cls-10 {
        mix-blend-mode: multiply;
      }

      .cls-7, .cls-11, .cls-12, .cls-13, .cls-14, .cls-15, .cls-16, .cls-17, .cls-18, .cls-2, .cls-19 {
        fill-rule: evenodd;
      }

      .cls-20 {
        stroke: #05716f;
        stroke-width: 85px;
      }

      .cls-20, .cls-21, .cls-22, .cls-4, .cls-23, .cls-24, .cls-25 {
        stroke-miterlimit: 10;
      }

      .cls-20, .cls-21, .cls-22, .cls-24, .cls-25 {
        fill: none;
      }

      .cls-26 {
        fill: #333;
        mix-blend-mode: overlay;
      }

      .cls-21 {
        stroke-width: 3.6px;
      }

      .cls-21, .cls-22, .cls-4, .cls-24, .cls-25 {
        stroke-linecap: round;
      }

      .cls-21, .cls-4, .cls-25 {
        stroke: #f49f6c;
      }

      .cls-22 {
        stroke: url(#Nepojmenovaný_přechod_156);
      }

      .cls-22, .cls-24 {
        stroke-width: 45px;
      }

      .cls-4, .cls-25 {
        stroke-width: 1.8px;
      }

      .cls-23 {
        fill: #00548f;
        stroke: #00548f;
        stroke-width: .9px;
      }

      .cls-11 {
        fill: #a2a2b2;
      }

      .cls-12 {
        fill: #c6c7c5;
      }

      .cls-13 {
        fill: #cbc5d4;
      }

      .cls-14 {
        fill: #d8d9d5;
      }

      .cls-15 {
        fill: #9795a5;
      }

      .cls-16 {
        fill: #b7b5c6;
      }

      .cls-17 {
        fill: #c2c2c2;
      }

      .cls-18 {
        fill: #f1f1f1;
      }

      .cls-19 {
        fill: #e6e6e6;
      }

      .cls-24 {
        stroke: #ffcea9;
      }

      .cls-27 {
        isolation: isolate;
      }
    </style>
    <linearGradient id="Nepojmenovaný_přechod_156" data-name="Nepojmenovaný přechod 156" x1="1780.65" y1="759.17" x2="2309.76" y2="759.17" gradientUnits="userSpaceOnUse">
      <stop offset="0" stop-color="#ffcea9"/>
      <stop offset="1" stop-color="#f7ad5b"/>
    </linearGradient>
  </defs>
  <g class="cls-27">
    <g id="Vrstva_1" data-name="Vrstva 1">
      <g>
        <g>
          <path class="cls-7" d="M3007.77,1250.79c114.59,0,202.58-102.88,183.25-215.83-.23-1.35-.47-2.71-.73-4.08-50.27-272.48-581.78-249.59-896.43-183-314.65,66.59-762.63,73.14-897.98,17.82-240.25-98.19-301.71-104.39-457.79-103.61-156.08,.78,66.94,131.08-83.02,93.6-120.41-30.1-379.77-94.75-617.72-89.69C104.73,768.82-1.04,877.62,0,1010.27h0c1.06,133.13,109.29,240.49,242.42,240.47,231.13-.04,547.15-.06,558.68,.04,115.15,1.05,242.39-137.52,428.57-88.1,34.43,9.14,71.95,21.2,111.24,34.6,103.49,35.31,212.06,53.5,321.41,53.5h2.45c125.28,0,249.66-23.12,365.87-69.92,135.02-54.38,378.83-28.42,549.51,16.99,133.3,35.46,270.75,52.93,408.69,52.93h18.93Z"/>
          <path class="cls-18" d="M858.5,418.55L.96,419.77l.06,307.12c21.31,189.07,63.65,342.48,133.54,420.24,37.03,41.2,90.16,23.92,139.72,23.92h300.25c40.75,0,83.02,24.3,115.46-4.8,118.17-106.02,174.83-418.23,174.83-746.47l-6.33-1.23Z"/>
          <path class="cls-2" d="M.96,409.45c51.11-16.34,221.72-28.26,423.91-28.26,242.32,0,439.95,17.33,439.95,38.58s-197.63,38.58-439.95,38.58c-202.44,0-373.03-11.85-423.91-28.22v-20.68Z"/>
          <path class="cls-14" d="M810.71,893.8c0-210.35-174.02-380.88-388.69-380.88-214.67,0-388.69,170.52-388.69,380.88,0,8.81,.31,17.55,.91,26.2-2.08-8.59-4.09-17.33-6.03-26.19-11.31-51.64-20.32-107.84-27.18-166.92l-.05-296.85v-20.68s0,20.68,0,20.68c53.13,16.07,223.53,28.22,423.91,28.22,241.7,0,437.87-17.09,439.93-38.24-.58,169.94-16.37,337.54-48.04,473.79-.24,1.04-.48,2.07-.73,3.1-2.09,8.89-4.24,17.63-6.47,26.24,.67-8.67,1.05-17.42,1.12-26.24,0-1.04,.01-2.08,.01-3.12Z"/>
          <path class="cls-15" d="M469.14,280.14h-60.97s0,111.04,0,111.04c-.11,.26-.17,.52-.17,.79,0,.26,.06,.53,.17,.79v.62s.38,0,.38,0c2.71,3.41,15.08,5.99,29.93,5.99,14.85,0,27.22-2.58,29.93-5.99h.73s0-113.23,0-113.23Z"/>
          <path class="cls-13" d="M438.65,288.77c-16.79,0-30.49-3.33-30.49-7.41,0-4.08,13.7-7.4,30.49-7.4,16.79,0,30.49,3.32,30.49,7.4s-13.7,7.41-30.49,7.41Z"/>
          <path class="cls-16" d="M424.47,280.4c0-.49,1.87-171.66,1.96-175.89,.69-33.12,15.65-63.09,38.07-82.24,13.02-11.13,28.58-18.7,45.39-21.29,16.89-2.59,34.9-.16,52.75,8.74,30.76,15.34,60.93,50.27,82.82,112.67l-27.68,9.65c-19.01-54.2-43.68-83.78-68.23-96.02-12.07-6.02-24.12-7.69-35.28-5.98-11.25,1.73-21.77,6.89-30.68,14.51-16.39,14-27.33,36.05-27.85,60.53-.1,4.73-1.95,175.06-1.96,175.55l-29.29-.23Z"/>
          <path class="cls-15" d="M504.01,15.33c70.83-6.78,104.42,52.72,127.43,111.94l14.01-4.88c-21.89-62.4-52.06-97.34-82.82-112.67-17.84-8.89-35.85-11.33-52.75-8.74-16.81,2.58-32.36,10.15-45.39,21.29-14.53,12.42-25.93,29.38-32.34,48.8,14.43-23.96,38.41-52.53,71.85-55.73Z"/>
          <path class="cls-17" d="M444.93,273.97c0,3.17-2.58,5.75-5.75,5.75s-5.75-2.58-5.75-5.75V138.26c-.27-4.71-2.65-55.02,19.68-88.75,11.19-16.9,24.75-27.7,39.28-33.45,12.76-5.04,26.21-6.16,39.41-4.06,13.04,2.07,25.79,7.29,37.36,14.93,18.58,12.3,34.16,30.95,42.88,52.99,1.17,2.95-.28,6.29-3.23,7.45-2.96,1.17-6.29-.28-7.45-3.23-7.85-19.85-21.85-36.61-38.53-47.65-10.24-6.77-21.45-11.38-32.82-13.18-11.2-1.78-22.6-.84-33.4,3.43-12.44,4.92-24.15,14.31-33.94,29.09-21.25,32.11-17.78,81.92-17.77,82.06l.02,.36v135.72Z"/>
          <path class="cls-11" d="M427.64,398.88c-.81-42.7-3.1-103.74,41.49-106.96v101.45h-.72c-2.72,3.42-15.08,6-29.93,6-3.81,0-7.46-.17-10.83-.48Z"/>
          <path class="cls-13" d="M456.83,397.87c-2.21,.4-4.65,.74-7.26,.99v-84.25c0-2,1.63-3.63,3.63-3.63s3.63,1.63,3.63,3.63v83.27Z"/>
          <path class="cls-12" d="M620.82,1227.2s30.14,4.84,43.67-8.06c13.53-12.89,44.85-72.78,44.85-72.78l-132.21,24.72,43.69,56.12Z"/>
          <path class="cls-12" d="M219.71,1227.24s-30.13,4.84-43.67-8.05c-13.53-12.9-44.85-72.78-44.85-72.78l132.21,24.72-43.69,56.12Z"/>
          <path class="cls-19" d="M124.31,1031.36l-20.91,2.42c-19.68,2.27,37.04,101.12,56.73,101.12H681.23c19.7,0,73.36-91.9,53.66-92.26l-610.58-11.28Z"/>
          <g class="cls-10">
            <path class="cls-6" d="M655.45,397.84c3.99-24.68,8.52-72.01-1.32-156.97-2.57-22.19-13.59-27.86-4.1-30.03,14.3-3.27,18.45,84.04,16.9,106.32-4.79,68.49,14.38,89.61,10.75-6.2-3.62-95.8-36.48-187.11-36.48-187.11l-19.28,6.72s4.54,30.06,8.65,63.09c9.97,80.29-10.57,127.56-1.05,133.34,12.89,7.84,2.59-57.39,11.34-57.87,9.46-.52,5.19,67.25-2.58,113.5-.38-5.33-2.34-10.39-6.84-13.93-10.54-8.31-18.63,5.67-7.13,9.15,9.17,2.77,11.43,11.71,11.94,15.96-.2,1-.4,1.97-.59,2.94-61.32-3.17-133.71-4.99-211.25-4.99-221.12,0-400.38,14.87-400.38,33.21s179.26,33.21,400.38,33.21c83.08,0,160.25-2.1,224.22-5.69h0c70.17-5.01,80.79,74.94,82.58,126.46,.79,22.71,2.45,63.15,3.93,93.16,9.86,201.01-13.68,241.25,7.34,241.37,21.02,.11,2.52-40.36,2.53-235.63,0-95.92,.5-202.89,13.01-186.78,12.51,16.11-7.13,118.76,12.51,118.76,21.4,0,0-38.6,0-70.63s3.37-62.56,9.51-66.12c6.14-3.56,12.71,19.2,8.61,35.32-4.1,16.12-4.95,41.64,12.3,37.91s-.01-26.12-3.28-49.4c-2.75-19.6,18.35-57.16,25.1-68.57,1.34-1.11,2.03-2.23,2.03-3.37,0-11.2-66.88-21.11-169.34-27.13Z"/>
            <path class="cls-6" d="M660.19,397.16c.07-.17,6.4-6.32,13.22-2.61,6.5,3.54,9.13-6.07,.92-7.09-6.48-.81-11.5,4.42-14.14,9.7Z"/>
            <path class="cls-6" d="M615.68,387.92c4.48-6.34,12.87-3.62,13.01-3.5-4.7-3.57-11.52-6.04-16.97-2.45-6.91,4.54-.31,12,3.96,5.95Z"/>
            <path class="cls-6" d="M627.94,360.65c7.75,.41,9.93,8.95,9.9,9.14,.51-5.88-1.04-12.96-6.98-15.66-7.53-3.42-10.31,6.14-2.92,6.53Z"/>
            <path class="cls-6" d="M604.06,366.82c6.44-8.52,17.87-4.42,18.05-4.24-6.31-5.12-15.57-8.82-23.24-4.12-9.71,5.95-.96,16.49,5.19,8.36Z"/>
            <path class="cls-6" d="M684.25,385.19c-8.17-6.89-18.4-.35-18.55-.14,5.02-6.39,13.24-12.05,21.75-9.17,10.78,3.65,4.58,15.87-3.21,9.3Z"/>
          </g>
        </g>
        <g>
          <ellipse class="cls-26" cx="2053.89" cy="957.03" rx="409.88" ry="70.66"/>
          <path class="cls-24" d="M2018.55,400.03c27.9,237.82,182.08,225.86,182.08,225.86"/>
          <path class="cls-24" d="M1860.57,860.88s-74.96-166.83-154.45-218.24c-53.66-34.71-149.61-13.85-220-87.63-28.72-30.1-38.01-46.55-38.01-46.55"/>
          <path class="cls-24" d="M1879.74,919.26s-184.12-125.45-258.48-158.42c-51.42-22.8-100.28,39.6-224.44,27.05-30.29-3.06-53.24-12.4-53.24-12.4"/>
          <g>
            <path class="cls-3" d="M1412.91,437.08h39.53v92.15h-46.07v-85.61c0-3.61,2.93-6.54,6.54-6.54Z" transform="translate(-3.9 954.6) rotate(-36.88)"/>
            <path class="cls-3" d="M1430.77,408.7h60.71v11.49c0,24.3-19.73,44.03-44.03,44.03h-16.68v-55.52h0Z" transform="translate(30.47 964.29) rotate(-36.88)"/>
          </g>
          <g>
            <path class="cls-3" d="M1292.68,721.71h39.53v92.15h-46.07v-85.61c0-3.61,2.93-6.54,6.54-6.54Z" transform="translate(255.26 1859.9) rotate(-76.41)"/>
            <path class="cls-3" d="M1273.57,683.82h60.71v14.91c0,22.41-18.2,40.61-40.61,40.61h-20.1v-55.52h0Z" transform="translate(305.87 1811.8) rotate(-76.41)"/>
          </g>
          <rect class="cls-9" x="2391.96" y="382.86" width="365.94" height="231.05" rx="74.6" ry="74.6" transform="translate(1293.82 -1790.15) rotate(49.81)"/>
          <path class="cls-3" d="M1948.13,995.58l-83.37-236.85,244.83-176.28c52.91-38.09,127.57-14.66,149.22,46.84l77.57,220.37c21.65,61.5-21.88,126.53-86.98,129.98l-301.27,15.94Z"/>
          <g>
            <path class="cls-3" d="M1900.56,333.33h91.86c11.27,0,20.41,9.15,20.41,20.41h0c0,11.27-9.15,20.41-20.41,20.41h-91.86c-11.27,0-20.41-9.15-20.41-20.41h0c0-11.27,9.15-20.41,20.41-20.41Z" transform="translate(528.39 -1025.73) rotate(33.91)"/>
            <rect class="cls-3" x="1930.26" y="276.32" width="150.35" height="115.56" rx="57.78" ry="57.78" transform="translate(1947.5 -1698.15) rotate(78.91)"/>
          </g>
          <path class="cls-22" d="M1803.15,622.58c154.88,266.67,484.11,273.17,484.11,273.17"/>
          <g>
            <rect class="cls-3" x="1751.1" y="506.84" width="132.68" height="40.83" rx="20.41" ry="20.41" transform="translate(2756.69 -1115.59) rotate(103.58)"/>
            <rect class="cls-3" x="1685.55" y="494.82" width="150.35" height="115.56" rx="57.78" ry="57.78" transform="translate(1314.41 -1238.02) rotate(58.58)"/>
          </g>
          <path class="cls-8" d="M1823.3,906.42c19.12,54.32,70.02,88.43,124.83,89.16l-83.37-236.85c-42.27,34.9-60.58,93.37-41.46,147.69Z"/>
          <g>
            <rect class="cls-3" x="2276.02" y="642.45" width="118.19" height="118.61" transform="translate(98.51 1672.74) rotate(-40.19)"/>
            <circle class="cls-3" cx="2290.14" cy="739.72" r="59.28"/>
          </g>
          <circle class="cls-5" cx="2541.49" cy="515.68" r="25.95"/>
          <path class="cls-3" d="M2326.77,709.46h0c-45.79-54.19-38.97-135.24,15.22-181.03l218.86-184.91c15.44-13.04,38.53-11.1,51.58,4.34l118.57,140.33c13.04,15.44,11.1,38.53-4.34,51.58l-218.86,184.91c-54.19,45.79-135.24,38.97-181.03-15.22Z"/>
          <g>
            <circle class="cls-23" cx="2553.98" cy="566.73" r="9.2"/>
            <circle class="cls-23" cx="2502.1" cy="505.33" r="9.2"/>
          </g>
          <g>
            <line class="cls-21" x1="2599.81" y1="516.55" x2="2630.78" y2="553.22"/>
            <line class="cls-21" x1="2530.35" y1="434.35" x2="2561.33" y2="471.01"/>
          </g>
          <path class="cls-9" d="M2621.51,503.3l-54.45-64.44c-24.36-28.83-20.74-71.96,8.1-96.32l14.71-12.43c32.21-27.21,78.48-19.6,92.74,15.25l48.77,119.16c6.38,15.58,.85,34.71-13.55,46.88h0c-28.83,24.36-71.96,20.74-96.32-8.1Z"/>
          <path class="cls-3" d="M2609.27,583.92h20.96c19.24,0,34.86,15.62,34.86,34.86h0c0,19.24-15.62,34.86-34.86,34.86h-20.96c-4.57,0-8.28-3.71-8.28-8.28v-53.16c0-4.57,3.71-8.28,8.28-8.28Z" transform="translate(1406.4 -1791.85) rotate(49.81)"/>
          <rect class="cls-3" x="2435.23" y="387.72" width="64.1" height="69.72" rx="32.05" ry="32.05" transform="translate(1197.74 -1734.81) rotate(49.81)"/>
          <path class="cls-1" d="M2452.92,593.78c-21.89-18.31-54.47-15.4-72.78,6.49l79.27,66.29c18.31-21.89,15.4-54.47-6.49-72.78Z"/>
          <path class="cls-4" d="M2523.26,592.46c-16.2,13.68-40.42,11.65-54.1-4.55-13.68-16.2-11.65-40.42,4.55-54.1"/>
          <path class="cls-25" d="M2393.1,694.03c2.09-24.88-16.38-46.75-41.27-48.85"/>
          <path class="cls-20" d="M1764.43,696.28s62.84,43.44,85.84,157.09"/>
          <path class="cls-20" d="M1692.1,806.23s112.39,87.03,197.92,124.11"/>
        </g>
      </g>
    </g>
  </g>
</svg>