<?xml version="1.0" encoding="UTF-8"?>
<svg xmlns="http://www.w3.org/2000/svg" viewBox="0 0 353.8 677.71">
  <defs>
    <style>
      .cls-1 {
        fill: none;
        stroke: #1a1a18;
        stroke-miterlimit: 22.93;
        stroke-width: .28px;
      }

      .cls-2, .cls-3 {
        fill: #fff;
      }

      .cls-4 {
        fill: #c3c3c4;
      }

      .cls-5, .cls-6, .cls-7 {
        fill: #1a1a18;
      }

      .cls-6 {
        mix-blend-mode: multiply;
        opacity: .16;
      }

      .cls-7, .cls-8, .cls-3 {
        fill-rule: evenodd;
      }

      .cls-8 {
        fill: #d8d8d8;
      }

      .cls-9 {
        isolation: isolate;
      }
    </style>
  </defs>
  <g class="cls-9">
    <g id="Vrstva_1" data-name="Vrstva 1">
      <g id="zasuvky">
        <path class="cls-4" d="M54.47,355.05h244.86c30.06,0,54.47,24.41,54.47,54.47v213.71c0,30.06-24.41,54.47-54.47,54.47H54.47c-30.06,0-54.47-24.41-54.47-54.47v-213.71c0-30.06,24.41-54.47,54.47-54.47Z"/>
        <path class="cls-2" d="M64.62,391h218.66c14.48,0,26.23,11.75,26.23,26.23v194.76c0,14.48-11.75,26.23-26.23,26.23H64.62c-14.48,0-26.23-11.75-26.23-26.23v-194.76c0-14.48,11.75-26.23,26.23-26.23Z"/>
        <path class="cls-3" d="M182.35,409.53c57.8,0,104.66,46.86,104.66,104.66s-46.86,104.66-104.66,104.66-104.66-46.85-104.66-104.66,46.86-104.66,104.66-104.66Z"/>
        <path class="cls-6" d="M182.35,409.53c57.8,0,104.66,46.86,104.66,104.66s-46.86,104.66-104.66,104.66-104.66-46.85-104.66-104.66,46.86-104.66,104.66-104.66Z"/>
        <path class="cls-7" d="M136.26,502.3c6.57,0,11.9,5.33,11.9,11.89s-5.33,11.89-11.9,11.89-11.89-5.33-11.89-11.89,5.33-11.89,11.89-11.89Z"/>
        <path class="cls-1" d="M136.26,502.3c6.57,0,11.9,5.33,11.9,11.89s-5.33,11.89-11.9,11.89-11.89-5.33-11.89-11.89,5.33-11.89,11.89-11.89Z"/>
        <path class="cls-7" d="M227.69,502.3c6.57,0,11.89,5.33,11.89,11.89s-5.32,11.89-11.89,11.89-11.89-5.33-11.89-11.89,5.32-11.89,11.89-11.89Z"/>
        <path class="cls-1" d="M227.69,502.3c6.57,0,11.89,5.33,11.89,11.89s-5.32,11.89-11.89,11.89-11.89-5.33-11.89-11.89,5.32-11.89,11.89-11.89Z"/>
        <path class="cls-8" d="M182.35,446.68c6.57,0,11.89,5.33,11.89,11.9s-5.33,11.89-11.89,11.89-11.9-5.32-11.9-11.89,5.33-11.9,11.9-11.9Z"/>
        <path class="cls-5" d="M182.35,446.68c6.57,0,11.89,5.33,11.89,11.9s-5.33,11.89-11.89,11.89-11.9-5.32-11.9-11.89,5.33-11.9,11.9-11.9Z"/>
        <path class="cls-4" d="M54.47,0h244.86c30.06,0,54.47,24.41,54.47,54.47v213.71c0,30.06-24.41,54.47-54.47,54.47H54.47c-30.06,0-54.47-24.41-54.47-54.47V54.47C0,24.41,24.41,0,54.47,0Z"/>
        <path class="cls-2" d="M64.62,35.95h218.66c14.48,0,26.23,11.75,26.23,26.23v194.76c0,14.48-11.75,26.23-26.23,26.23H64.62c-14.48,0-26.23-11.75-26.23-26.23V62.18c0-14.48,11.75-26.23,26.23-26.23Z"/>
        <path class="cls-3" d="M182.35,54.48c57.8,0,104.66,46.86,104.66,104.66s-46.86,104.66-104.66,104.66-104.66-46.86-104.66-104.66S124.55,54.48,182.35,54.48Z"/>
        <path class="cls-6" d="M182.35,54.48c57.8,0,104.66,46.86,104.66,104.66s-46.86,104.66-104.66,104.66-104.66-46.86-104.66-104.66S124.55,54.48,182.35,54.48Z"/>
        <path class="cls-7" d="M136.26,147.24c6.57,0,11.9,5.32,11.9,11.89s-5.33,11.89-11.9,11.89-11.89-5.33-11.89-11.89,5.33-11.89,11.89-11.89Z"/>
        <path class="cls-1" d="M136.26,147.24c6.57,0,11.9,5.32,11.9,11.89s-5.33,11.89-11.9,11.89-11.89-5.33-11.89-11.89,5.33-11.89,11.89-11.89Z"/>
        <path class="cls-7" d="M227.69,147.24c6.57,0,11.89,5.32,11.89,11.89s-5.32,11.89-11.89,11.89-11.89-5.33-11.89-11.89,5.32-11.89,11.89-11.89Z"/>
        <path class="cls-1" d="M227.69,147.24c6.57,0,11.89,5.32,11.89,11.89s-5.32,11.89-11.89,11.89-11.89-5.33-11.89-11.89,5.32-11.89,11.89-11.89Z"/>
        <path class="cls-8" d="M182.35,91.63c6.57,0,11.89,5.33,11.89,11.9s-5.33,11.89-11.89,11.89-11.9-5.32-11.9-11.89,5.33-11.9,11.9-11.9Z"/>
        <path class="cls-5" d="M182.35,91.63c6.57,0,11.89,5.33,11.89,11.9s-5.33,11.89-11.89,11.89-11.9-5.32-11.9-11.89,5.33-11.9,11.9-11.9Z"/>
      </g>
    </g>
  </g>
</svg>